G04 #@! TF.FileFunction,Soldermask,Bot*
%FSLAX46Y46*%
G04 Gerber Fmt 4.6, Leading zero omitted, Abs format (unit mm)*
G04 Created by KiCad (PCBNEW 4.0.4-stable) date 11/24/16 17:28:53*
%MOMM*%
%LPD*%
G01*
G04 APERTURE LIST*
%ADD10C,0.150000*%
%ADD11C,1.299160*%
%ADD12C,2.198320*%
%ADD13C,2.195780*%
%ADD14R,2.127200X2.127200*%
%ADD15O,2.127200X2.127200*%
%ADD16C,1.400760*%
%ADD17R,1.600000X1.150000*%
%ADD18R,2.432000X2.432000*%
%ADD19O,2.432000X2.432000*%
%ADD20R,2.127200X2.432000*%
%ADD21O,2.127200X2.432000*%
%ADD22C,1.901140*%
%ADD23C,0.900000*%
G04 APERTURE END LIST*
D10*
D11*
X182626000Y-105999280D03*
X182626000Y-101600000D03*
D12*
X110998000Y-97282000D03*
D13*
X113538000Y-94742000D03*
X108458000Y-94742000D03*
X108458000Y-99822000D03*
X113538000Y-99822000D03*
D14*
X184404000Y-92456000D03*
D15*
X184404000Y-94996000D03*
X181864000Y-92456000D03*
X181864000Y-94996000D03*
X179324000Y-92456000D03*
X179324000Y-94996000D03*
D16*
X167132000Y-84340700D03*
X167132000Y-85839300D03*
D17*
X155956000Y-99314000D03*
X157856000Y-99314000D03*
X158364000Y-100838000D03*
X156464000Y-100838000D03*
D18*
X181864000Y-112522000D03*
D19*
X181864000Y-115062000D03*
D20*
X171704000Y-119126000D03*
D21*
X174244000Y-119126000D03*
X176784000Y-119126000D03*
X179324000Y-119126000D03*
X181864000Y-119126000D03*
D22*
X157071060Y-80772000D03*
X161952940Y-80772000D03*
X140815060Y-81280000D03*
X145696940Y-81280000D03*
D17*
X129540000Y-89154000D03*
X127640000Y-89154000D03*
D10*
G36*
X129307399Y-86389774D02*
X128494226Y-85576601D01*
X129625597Y-84445230D01*
X130438770Y-85258403D01*
X129307399Y-86389774D01*
X129307399Y-86389774D01*
G37*
G36*
X130650901Y-85046272D02*
X129837728Y-84233099D01*
X130969099Y-83101728D01*
X131782272Y-83914901D01*
X130650901Y-85046272D01*
X130650901Y-85046272D01*
G37*
D20*
X118872000Y-117094000D03*
D21*
X121412000Y-117094000D03*
X123952000Y-117094000D03*
D20*
X128778000Y-117094000D03*
D21*
X131318000Y-117094000D03*
X133858000Y-117094000D03*
X136398000Y-117094000D03*
D20*
X146558000Y-117094000D03*
D21*
X144018000Y-117094000D03*
X141478000Y-117094000D03*
D23*
X141224000Y-87376000D03*
X139954000Y-88392000D03*
X147066000Y-101854000D03*
X148590000Y-91440000D03*
X151130000Y-98044000D03*
X153670000Y-95504000D03*
M02*
