%FSLAX45Y45*%
G04 Gerber Fmt 4.5, Leading zero omitted, Abs format (unit mm)*
G04 Created by KiCad (PCBNEW 4.0.4-stable) date 11/24/16 17:28:45*
%MOMM*%
%LPD*%
G01*
G04 APERTURE LIST*
%ADD10C,0.127000*%
%ADD11C,0.150000*%
%ADD12C,0.200000*%
%ADD13C,0.300000*%
G04 APERTURE END LIST*
D10*
D11*
X18821400Y-8001000D02*
G75*
G03X18440400Y-7620000I-381000J0D01*
G01*
X18440400Y-12192000D02*
G75*
G03X18821400Y-11811000I0J381000D01*
G01*
X10490200Y-11811000D02*
G75*
G03X10871200Y-12192000I381000J0D01*
G01*
X10871200Y-7620000D02*
G75*
G03X10490200Y-8001000I0J-381000D01*
G01*
X10490200Y-11836400D02*
X10490200Y-7975600D01*
X18821400Y-11811000D02*
X18821400Y-11430000D01*
X10871200Y-12192000D02*
X18440400Y-12192000D01*
X18440400Y-7620000D02*
X10845800Y-7620000D01*
X18821400Y-11430000D02*
X18821400Y-7975600D01*
D12*
X11054400Y-10851200D02*
X11094400Y-10891200D01*
X11094400Y-10851200D02*
X11054400Y-10891200D01*
X11054400Y-11003600D02*
X11094400Y-11043600D01*
X11094400Y-11003600D02*
X11054400Y-11043600D01*
X11054400Y-11130600D02*
X11094400Y-11170600D01*
X11094400Y-11130600D02*
X11054400Y-11170600D01*
X11054400Y-11283000D02*
X11094400Y-11323000D01*
X11094400Y-11283000D02*
X11054400Y-11323000D01*
X11181400Y-10851200D02*
X11221400Y-10891200D01*
X11221400Y-10851200D02*
X11181400Y-10891200D01*
X11181400Y-11003600D02*
X11221400Y-11043600D01*
X11221400Y-11003600D02*
X11181400Y-11043600D01*
X11181400Y-11130600D02*
X11221400Y-11170600D01*
X11221400Y-11130600D02*
X11181400Y-11170600D01*
X11181400Y-11283000D02*
X11221400Y-11323000D01*
X11221400Y-11283000D02*
X11181400Y-11323000D01*
X11333800Y-10851200D02*
X11373800Y-10891200D01*
X11373800Y-10851200D02*
X11333800Y-10891200D01*
X11333800Y-11003600D02*
X11373800Y-11043600D01*
X11373800Y-11003600D02*
X11333800Y-11043600D01*
X11333800Y-11130600D02*
X11373800Y-11170600D01*
X11373800Y-11130600D02*
X11333800Y-11170600D01*
X11333800Y-11283000D02*
X11373800Y-11323000D01*
X11373800Y-11283000D02*
X11333800Y-11323000D01*
X11460800Y-10851200D02*
X11500800Y-10891200D01*
X11500800Y-10851200D02*
X11460800Y-10891200D01*
X11460800Y-11003600D02*
X11500800Y-11043600D01*
X11500800Y-11003600D02*
X11460800Y-11043600D01*
X11460800Y-11130600D02*
X11500800Y-11170600D01*
X11500800Y-11130600D02*
X11460800Y-11170600D01*
X11460800Y-11283000D02*
X11500800Y-11323000D01*
X11500800Y-11283000D02*
X11460800Y-11323000D01*
X11943400Y-10339200D02*
X11983400Y-10379200D01*
X11983400Y-10339200D02*
X11943400Y-10379200D01*
X12045000Y-10339200D02*
X12085000Y-10379200D01*
X12085000Y-10339200D02*
X12045000Y-10379200D01*
X12095800Y-8590600D02*
X12135800Y-8630600D01*
X12135800Y-8590600D02*
X12095800Y-8630600D01*
X12095800Y-8692200D02*
X12135800Y-8732200D01*
X12135800Y-8692200D02*
X12095800Y-8732200D01*
X12095800Y-8793800D02*
X12135800Y-8833800D01*
X12135800Y-8793800D02*
X12095800Y-8833800D01*
X12095800Y-8895400D02*
X12135800Y-8935400D01*
X12135800Y-8895400D02*
X12095800Y-8935400D01*
X12197400Y-8590600D02*
X12237400Y-8630600D01*
X12237400Y-8590600D02*
X12197400Y-8630600D01*
X12197400Y-8692200D02*
X12237400Y-8732200D01*
X12237400Y-8692200D02*
X12197400Y-8732200D01*
X12197400Y-8793800D02*
X12237400Y-8833800D01*
X12237400Y-8793800D02*
X12197400Y-8833800D01*
X12197400Y-8895400D02*
X12237400Y-8935400D01*
X12237400Y-8895400D02*
X12197400Y-8935400D01*
X12197400Y-10339200D02*
X12237400Y-10379200D01*
X12237400Y-10339200D02*
X12197400Y-10379200D01*
X12324400Y-8590600D02*
X12364400Y-8630600D01*
X12364400Y-8590600D02*
X12324400Y-8630600D01*
X12324400Y-8692200D02*
X12364400Y-8732200D01*
X12364400Y-8692200D02*
X12324400Y-8732200D01*
X12324400Y-8793800D02*
X12364400Y-8833800D01*
X12364400Y-8793800D02*
X12324400Y-8833800D01*
X12324400Y-8895400D02*
X12364400Y-8935400D01*
X12364400Y-8895400D02*
X12324400Y-8935400D01*
X12324400Y-10339200D02*
X12364400Y-10379200D01*
X12364400Y-10339200D02*
X12324400Y-10379200D01*
X12426000Y-8590600D02*
X12466000Y-8630600D01*
X12466000Y-8590600D02*
X12426000Y-8630600D01*
X12426000Y-8692200D02*
X12466000Y-8732200D01*
X12466000Y-8692200D02*
X12426000Y-8732200D01*
X12426000Y-8793800D02*
X12466000Y-8833800D01*
X12466000Y-8793800D02*
X12426000Y-8833800D01*
X12426000Y-8895400D02*
X12466000Y-8935400D01*
X12466000Y-8895400D02*
X12426000Y-8935400D01*
X12934000Y-9327200D02*
X12974000Y-9367200D01*
X12974000Y-9327200D02*
X12934000Y-9367200D01*
X12934000Y-9886000D02*
X12974000Y-9926000D01*
X12974000Y-9886000D02*
X12934000Y-9926000D01*
X12934000Y-9962200D02*
X12974000Y-10002200D01*
X12974000Y-9962200D02*
X12934000Y-10002200D01*
X13086400Y-9608600D02*
X13126400Y-9648600D01*
X13126400Y-9608600D02*
X13086400Y-9648600D01*
X13086400Y-9733600D02*
X13126400Y-9773600D01*
X13126400Y-9733600D02*
X13086400Y-9773600D01*
X13111800Y-9276400D02*
X13151800Y-9316400D01*
X13151800Y-9276400D02*
X13111800Y-9316400D01*
X13211400Y-9608600D02*
X13251400Y-9648600D01*
X13251400Y-9608600D02*
X13211400Y-9648600D01*
X13211400Y-9733600D02*
X13251400Y-9773600D01*
X13251400Y-9733600D02*
X13211400Y-9773600D01*
X13340400Y-8590600D02*
X13380400Y-8630600D01*
X13380400Y-8590600D02*
X13340400Y-8630600D01*
X13340400Y-8666800D02*
X13380400Y-8706800D01*
X13380400Y-8666800D02*
X13340400Y-8706800D01*
X13391200Y-9987600D02*
X13431200Y-10027600D01*
X13431200Y-9987600D02*
X13391200Y-10027600D01*
X13467400Y-8590600D02*
X13507400Y-8630600D01*
X13507400Y-8590600D02*
X13467400Y-8630600D01*
X13467400Y-8666800D02*
X13507400Y-8706800D01*
X13507400Y-8666800D02*
X13467400Y-8706800D01*
X13467400Y-9174800D02*
X13507400Y-9214800D01*
X13507400Y-9174800D02*
X13467400Y-9214800D01*
X13569000Y-11308400D02*
X13609000Y-11348400D01*
X13609000Y-11308400D02*
X13569000Y-11348400D01*
X13645200Y-9352600D02*
X13685200Y-9392600D01*
X13685200Y-9352600D02*
X13645200Y-9392600D01*
X13645200Y-9428800D02*
X13685200Y-9468800D01*
X13685200Y-9428800D02*
X13645200Y-9468800D01*
X13645200Y-9505000D02*
X13685200Y-9545000D01*
X13685200Y-9505000D02*
X13645200Y-9545000D01*
X13696000Y-11308400D02*
X13736000Y-11348400D01*
X13736000Y-11308400D02*
X13696000Y-11348400D01*
X13721400Y-11156000D02*
X13761400Y-11196000D01*
X13761400Y-11156000D02*
X13721400Y-11196000D01*
X13873800Y-11308400D02*
X13913800Y-11348400D01*
X13913800Y-11308400D02*
X13873800Y-11348400D01*
X13873800Y-11435400D02*
X13913800Y-11475400D01*
X13913800Y-11435400D02*
X13873800Y-11475400D01*
X13899200Y-11156000D02*
X13939200Y-11196000D01*
X13939200Y-11156000D02*
X13899200Y-11196000D01*
X13924600Y-10089200D02*
X13964600Y-10129200D01*
X13964600Y-10089200D02*
X13924600Y-10129200D01*
X13924600Y-10165400D02*
X13964600Y-10205400D01*
X13964600Y-10165400D02*
X13924600Y-10205400D01*
X13924600Y-10241600D02*
X13964600Y-10281600D01*
X13964600Y-10241600D02*
X13924600Y-10281600D01*
X13950000Y-9124000D02*
X13990000Y-9164000D01*
X13990000Y-9124000D02*
X13950000Y-9164000D01*
X14153200Y-8793800D02*
X14193200Y-8833800D01*
X14193200Y-8793800D02*
X14153200Y-8833800D01*
X14153200Y-8895400D02*
X14193200Y-8935400D01*
X14193200Y-8895400D02*
X14153200Y-8935400D01*
X14204000Y-8971600D02*
X14244000Y-9011600D01*
X14244000Y-8971600D02*
X14204000Y-9011600D01*
X14208025Y-9098600D02*
X14248025Y-9138600D01*
X14248025Y-9098600D02*
X14208025Y-9138600D01*
X14229400Y-9784400D02*
X14269400Y-9824400D01*
X14269400Y-9784400D02*
X14229400Y-9824400D01*
X14231150Y-9427050D02*
X14271150Y-9467050D01*
X14271150Y-9427050D02*
X14231150Y-9467050D01*
X14231150Y-9555800D02*
X14271150Y-9595800D01*
X14271150Y-9555800D02*
X14231150Y-9595800D01*
X14231150Y-9684550D02*
X14271150Y-9724550D01*
X14271150Y-9684550D02*
X14231150Y-9724550D01*
X14356400Y-9784400D02*
X14396400Y-9824400D01*
X14396400Y-9784400D02*
X14356400Y-9824400D01*
X14359900Y-9427050D02*
X14399900Y-9467050D01*
X14399900Y-9427050D02*
X14359900Y-9467050D01*
X14359900Y-9555800D02*
X14399900Y-9595800D01*
X14399900Y-9555800D02*
X14359900Y-9595800D01*
X14359900Y-9684550D02*
X14399900Y-9724550D01*
X14399900Y-9684550D02*
X14359900Y-9724550D01*
X14407200Y-9098600D02*
X14447200Y-9138600D01*
X14447200Y-9098600D02*
X14407200Y-9138600D01*
X14432600Y-10419400D02*
X14472600Y-10459400D01*
X14472600Y-10419400D02*
X14432600Y-10459400D01*
X14458000Y-8971600D02*
X14498000Y-9011600D01*
X14498000Y-8971600D02*
X14458000Y-9011600D01*
X14508800Y-10165400D02*
X14548800Y-10205400D01*
X14548800Y-10165400D02*
X14508800Y-10205400D01*
X14534200Y-10419400D02*
X14574200Y-10459400D01*
X14574200Y-10419400D02*
X14534200Y-10459400D01*
X14534200Y-10902000D02*
X14574200Y-10942000D01*
X14574200Y-10902000D02*
X14534200Y-10942000D01*
X14582985Y-10674981D02*
X14622985Y-10714981D01*
X14622985Y-10674981D02*
X14582985Y-10714981D01*
X14585000Y-10165400D02*
X14625000Y-10205400D01*
X14625000Y-10165400D02*
X14585000Y-10205400D01*
X14585000Y-10800400D02*
X14625000Y-10840400D01*
X14625000Y-10800400D02*
X14585000Y-10840400D01*
X14686600Y-10260800D02*
X14726600Y-10300800D01*
X14726600Y-10260800D02*
X14686600Y-10300800D01*
X14686600Y-10444800D02*
X14726600Y-10484800D01*
X14726600Y-10444800D02*
X14686600Y-10484800D01*
X14864400Y-9911400D02*
X14904400Y-9951400D01*
X14904400Y-9911400D02*
X14864400Y-9951400D01*
X14940600Y-9149400D02*
X14980600Y-9189400D01*
X14980600Y-9149400D02*
X14940600Y-9189400D01*
X14966000Y-7930200D02*
X15006000Y-7970200D01*
X15006000Y-7930200D02*
X14966000Y-7970200D01*
X14966000Y-8031800D02*
X15006000Y-8071800D01*
X15006000Y-8031800D02*
X14966000Y-8071800D01*
X15067600Y-7930200D02*
X15107600Y-7970200D01*
X15107600Y-7930200D02*
X15067600Y-7970200D01*
X15067600Y-8031800D02*
X15107600Y-8071800D01*
X15107600Y-8031800D02*
X15067600Y-8071800D01*
X15067600Y-9718300D02*
X15107600Y-9758300D01*
X15107600Y-9718300D02*
X15067600Y-9758300D01*
X15118400Y-8387400D02*
X15158400Y-8427400D01*
X15158400Y-8387400D02*
X15118400Y-8427400D01*
X15169200Y-7930200D02*
X15209200Y-7970200D01*
X15209200Y-7930200D02*
X15169200Y-7970200D01*
X15169200Y-8031800D02*
X15209200Y-8071800D01*
X15209200Y-8031800D02*
X15169200Y-8071800D01*
X15270800Y-7930200D02*
X15310800Y-7970200D01*
X15310800Y-7930200D02*
X15270800Y-7970200D01*
X15270800Y-8031800D02*
X15310800Y-8071800D01*
X15310800Y-8031800D02*
X15270800Y-8071800D01*
X15270800Y-8870000D02*
X15310800Y-8910000D01*
X15310800Y-8870000D02*
X15270800Y-8910000D01*
X15372400Y-9149400D02*
X15412400Y-9189400D01*
X15412400Y-9149400D02*
X15372400Y-9189400D01*
X15397800Y-9943300D02*
X15437800Y-9983300D01*
X15437800Y-9943300D02*
X15397800Y-9983300D01*
X15418600Y-9119400D02*
X15458600Y-9159400D01*
X15458600Y-9119400D02*
X15418600Y-9159400D01*
X15423200Y-9606600D02*
X15463200Y-9646600D01*
X15463200Y-9606600D02*
X15423200Y-9646600D01*
X15448600Y-8844600D02*
X15488600Y-8884600D01*
X15488600Y-8844600D02*
X15448600Y-8884600D01*
X15474000Y-9276400D02*
X15514000Y-9316400D01*
X15514000Y-9276400D02*
X15474000Y-9316400D01*
X15499400Y-11384600D02*
X15539400Y-11424600D01*
X15539400Y-11384600D02*
X15499400Y-11424600D01*
X15499400Y-11486200D02*
X15539400Y-11526200D01*
X15539400Y-11486200D02*
X15499400Y-11526200D01*
X15504891Y-10932891D02*
X15544891Y-10972891D01*
X15544891Y-10932891D02*
X15504891Y-10972891D01*
X15524800Y-9225600D02*
X15564800Y-9265600D01*
X15564800Y-9225600D02*
X15524800Y-9265600D01*
X15568871Y-9815786D02*
X15608871Y-9855786D01*
X15608871Y-9815786D02*
X15568871Y-9855786D01*
X15575600Y-8844600D02*
X15615600Y-8884600D01*
X15615600Y-8844600D02*
X15575600Y-8884600D01*
X15575600Y-9555800D02*
X15615600Y-9595800D01*
X15615600Y-9555800D02*
X15575600Y-9595800D01*
X15626400Y-11384600D02*
X15666400Y-11424600D01*
X15666400Y-11384600D02*
X15626400Y-11424600D01*
X15626400Y-11486200D02*
X15666400Y-11526200D01*
X15666400Y-11486200D02*
X15626400Y-11526200D01*
X15651800Y-9225600D02*
X15691800Y-9265600D01*
X15691800Y-9225600D02*
X15651800Y-9265600D01*
X15651800Y-9225600D02*
X15691800Y-9265600D01*
X15691800Y-9225600D02*
X15651800Y-9265600D01*
X15677200Y-9793300D02*
X15717200Y-9833300D01*
X15717200Y-9793300D02*
X15677200Y-9833300D01*
X15702600Y-9327200D02*
X15742600Y-9367200D01*
X15742600Y-9327200D02*
X15702600Y-9367200D01*
X15753400Y-11384600D02*
X15793400Y-11424600D01*
X15793400Y-11384600D02*
X15753400Y-11424600D01*
X15753400Y-11486200D02*
X15793400Y-11526200D01*
X15793400Y-11486200D02*
X15753400Y-11526200D01*
X15778800Y-8844600D02*
X15818800Y-8884600D01*
X15818800Y-8844600D02*
X15778800Y-8884600D01*
X15804200Y-10444800D02*
X15844200Y-10484800D01*
X15844200Y-10444800D02*
X15804200Y-10484800D01*
X15880400Y-11384600D02*
X15920400Y-11424600D01*
X15920400Y-11384600D02*
X15880400Y-11424600D01*
X15880400Y-11486200D02*
X15920400Y-11526200D01*
X15920400Y-11486200D02*
X15880400Y-11526200D01*
X15903800Y-10495600D02*
X15943800Y-10535600D01*
X15943800Y-10495600D02*
X15903800Y-10535600D01*
X15937799Y-9403400D02*
X15977799Y-9443400D01*
X15977799Y-9403400D02*
X15937799Y-9443400D01*
X15937799Y-9479600D02*
X15977799Y-9519600D01*
X15977799Y-9479600D02*
X15937799Y-9519600D01*
X15982000Y-9936800D02*
X16022000Y-9976800D01*
X16022000Y-9936800D02*
X15982000Y-9976800D01*
X16032800Y-9352600D02*
X16072800Y-9392600D01*
X16072800Y-9352600D02*
X16032800Y-9392600D01*
X16083600Y-10303600D02*
X16123600Y-10343600D01*
X16123600Y-10303600D02*
X16083600Y-10343600D01*
X16109000Y-9403400D02*
X16149000Y-9443400D01*
X16149000Y-9403400D02*
X16109000Y-9443400D01*
X16134400Y-9733600D02*
X16174400Y-9773600D01*
X16174400Y-9733600D02*
X16134400Y-9773600D01*
X16134400Y-11892600D02*
X16174400Y-11932600D01*
X16174400Y-11892600D02*
X16134400Y-11932600D01*
X16185200Y-8692200D02*
X16225200Y-8732200D01*
X16225200Y-8692200D02*
X16185200Y-8732200D01*
X16185200Y-9225600D02*
X16225200Y-9265600D01*
X16225200Y-9225600D02*
X16185200Y-9265600D01*
X16261400Y-10292400D02*
X16301400Y-10332400D01*
X16301400Y-10292400D02*
X16261400Y-10332400D01*
X16261400Y-10571800D02*
X16301400Y-10611800D01*
X16301400Y-10571800D02*
X16261400Y-10611800D01*
X16376401Y-10571800D02*
X16416401Y-10611800D01*
X16416401Y-10571800D02*
X16376401Y-10611800D01*
X16553826Y-9898374D02*
X16593826Y-9938374D01*
X16593826Y-9898374D02*
X16553826Y-9938374D01*
X16566200Y-9733600D02*
X16606200Y-9773600D01*
X16606200Y-9733600D02*
X16566200Y-9773600D01*
X16617000Y-10063800D02*
X16657000Y-10103800D01*
X16657000Y-10063800D02*
X16617000Y-10103800D01*
X16632787Y-9885521D02*
X16672787Y-9925521D01*
X16672787Y-9885521D02*
X16632787Y-9925521D01*
X16667800Y-9632000D02*
X16707800Y-9672000D01*
X16707800Y-9632000D02*
X16667800Y-9672000D01*
X16693200Y-9505000D02*
X16733200Y-9545000D01*
X16733200Y-9505000D02*
X16693200Y-9545000D01*
X16769400Y-9276400D02*
X16809400Y-9316400D01*
X16809400Y-9276400D02*
X16769400Y-9316400D01*
X16769400Y-9454200D02*
X16809400Y-9494200D01*
X16809400Y-9454200D02*
X16769400Y-9494200D01*
X16794800Y-8844600D02*
X16834800Y-8884600D01*
X16834800Y-8844600D02*
X16794800Y-8884600D01*
X16871000Y-8311200D02*
X16911000Y-8351200D01*
X16911000Y-8311200D02*
X16871000Y-8351200D01*
X16921800Y-10622600D02*
X16961800Y-10662600D01*
X16961800Y-10622600D02*
X16921800Y-10662600D01*
X16972600Y-10698800D02*
X17012600Y-10738800D01*
X17012600Y-10698800D02*
X16972600Y-10738800D01*
X16998000Y-9200200D02*
X17038000Y-9240200D01*
X17038000Y-9200200D02*
X16998000Y-9240200D01*
X16998000Y-10622600D02*
X17038000Y-10662600D01*
X17038000Y-10622600D02*
X16998000Y-10662600D01*
X17175800Y-9962200D02*
X17215800Y-10002200D01*
X17215800Y-9962200D02*
X17175800Y-10002200D01*
X17175800Y-10063800D02*
X17215800Y-10103800D01*
X17215800Y-10063800D02*
X17175800Y-10103800D01*
X17277400Y-9962200D02*
X17317400Y-10002200D01*
X17317400Y-9962200D02*
X17277400Y-10002200D01*
X17277400Y-10063800D02*
X17317400Y-10103800D01*
X17317400Y-10063800D02*
X17277400Y-10103800D01*
X17328200Y-9378000D02*
X17368200Y-9418000D01*
X17368200Y-9378000D02*
X17328200Y-9418000D01*
X17353600Y-9962200D02*
X17393600Y-10002200D01*
X17393600Y-9962200D02*
X17353600Y-10002200D01*
X17353600Y-10063800D02*
X17393600Y-10103800D01*
X17393600Y-10063800D02*
X17353600Y-10103800D01*
X17404400Y-9733600D02*
X17444400Y-9773600D01*
X17444400Y-9733600D02*
X17404400Y-9773600D01*
X17455200Y-9962200D02*
X17495200Y-10002200D01*
X17495200Y-9962200D02*
X17455200Y-10002200D01*
X17455200Y-10063800D02*
X17495200Y-10103800D01*
X17495200Y-10063800D02*
X17455200Y-10103800D01*
X17480600Y-8514400D02*
X17520600Y-8554400D01*
X17520600Y-8514400D02*
X17480600Y-8554400D01*
X17480600Y-8641400D02*
X17520600Y-8681400D01*
X17520600Y-8641400D02*
X17480600Y-8681400D01*
X17658400Y-7955600D02*
X17698400Y-7995600D01*
X17698400Y-7955600D02*
X17658400Y-7995600D01*
X17658400Y-8031800D02*
X17698400Y-8071800D01*
X17698400Y-8031800D02*
X17658400Y-8071800D01*
X17760000Y-8336600D02*
X17800000Y-8376600D01*
X17800000Y-8336600D02*
X17760000Y-8376600D01*
X17861600Y-8336600D02*
X17901600Y-8376600D01*
X17901600Y-8336600D02*
X17861600Y-8376600D01*
X18395000Y-8412800D02*
X18435000Y-8452800D01*
X18435000Y-8412800D02*
X18395000Y-8452800D01*
X18445800Y-8489000D02*
X18485800Y-8529000D01*
X18485800Y-8489000D02*
X18445800Y-8529000D01*
X18496600Y-8412800D02*
X18536600Y-8452800D01*
X18536600Y-8412800D02*
X18496600Y-8452800D01*
X18547400Y-11206800D02*
X18587400Y-11246800D01*
X18587400Y-11206800D02*
X18547400Y-11246800D01*
X18547400Y-11308400D02*
X18587400Y-11348400D01*
X18587400Y-11308400D02*
X18547400Y-11348400D01*
X18547400Y-11410000D02*
X18587400Y-11450000D01*
X18587400Y-11410000D02*
X18547400Y-11450000D01*
X18547400Y-11511600D02*
X18587400Y-11551600D01*
X18587400Y-11511600D02*
X18547400Y-11551600D01*
X18547400Y-11765600D02*
X18587400Y-11805600D01*
X18587400Y-11765600D02*
X18547400Y-11805600D01*
X18547400Y-11867200D02*
X18587400Y-11907200D01*
X18587400Y-11867200D02*
X18547400Y-11907200D01*
X18547400Y-11968800D02*
X18587400Y-12008800D01*
X18587400Y-11968800D02*
X18547400Y-12008800D01*
X16743172Y-8434070D02*
G75*
G03X16743172Y-8434070I-29972J0D01*
G01*
X16743172Y-8583930D02*
G75*
G03X16743172Y-8583930I-29972J0D01*
G01*
X14081506Y-8087995D02*
X14081506Y-8168005D01*
X14041501Y-8128000D02*
X14121511Y-8128000D01*
X14569694Y-8087995D02*
X14569694Y-8168005D01*
X14529689Y-8128000D02*
X14609699Y-8128000D01*
X15707106Y-8037195D02*
X15707106Y-8117205D01*
X15667101Y-8077200D02*
X15747111Y-8077200D01*
X16195294Y-8037195D02*
X16195294Y-8117205D01*
X16155289Y-8077200D02*
X16235299Y-8077200D01*
X10877590Y-9505990D02*
X10877590Y-9442410D01*
X10814010Y-9442410D01*
X10814010Y-9505990D01*
X10877590Y-9505990D01*
X10877590Y-10013990D02*
X10877590Y-9950410D01*
X10814010Y-9950410D01*
X10814010Y-10013990D01*
X10877590Y-10013990D01*
X11131590Y-9759990D02*
X11131590Y-9696410D01*
X11068010Y-9696410D01*
X11068010Y-9759990D01*
X11131590Y-9759990D01*
X11385590Y-9505990D02*
X11385590Y-9442410D01*
X11322010Y-9442410D01*
X11322010Y-9505990D01*
X11385590Y-9505990D01*
X11385590Y-10013990D02*
X11385590Y-9950410D01*
X11322010Y-9950410D01*
X11322010Y-10013990D01*
X11385590Y-10013990D01*
X11887200Y-11760200D02*
X11938000Y-11709400D01*
X11887200Y-11658600D01*
X11836400Y-11709400D01*
X11887200Y-11760200D01*
X12141200Y-11760200D02*
X12192000Y-11709400D01*
X12141200Y-11658600D01*
X12090400Y-11709400D01*
X12141200Y-11760200D01*
X12395200Y-11760200D02*
X12446000Y-11709400D01*
X12395200Y-11658600D01*
X12344400Y-11709400D01*
X12395200Y-11760200D01*
X12877800Y-11760200D02*
X12928600Y-11709400D01*
X12877800Y-11658600D01*
X12827000Y-11709400D01*
X12877800Y-11760200D01*
X13131800Y-11760200D02*
X13182600Y-11709400D01*
X13131800Y-11658600D01*
X13081000Y-11709400D01*
X13131800Y-11760200D01*
X13385800Y-11760200D02*
X13436600Y-11709400D01*
X13385800Y-11658600D01*
X13335000Y-11709400D01*
X13385800Y-11760200D01*
X13639800Y-11760200D02*
X13690600Y-11709400D01*
X13639800Y-11658600D01*
X13589000Y-11709400D01*
X13639800Y-11760200D01*
X14147800Y-11760200D02*
X14198600Y-11709400D01*
X14147800Y-11658600D01*
X14097000Y-11709400D01*
X14147800Y-11760200D01*
X14401800Y-11760200D02*
X14452600Y-11709400D01*
X14401800Y-11658600D01*
X14351000Y-11709400D01*
X14401800Y-11760200D01*
X14655800Y-11760200D02*
X14706600Y-11709400D01*
X14655800Y-11658600D01*
X14605000Y-11709400D01*
X14655800Y-11760200D01*
X17170400Y-11963400D02*
X17221200Y-11912600D01*
X17170400Y-11861800D01*
X17119600Y-11912600D01*
X17170400Y-11963400D01*
X17424400Y-11963400D02*
X17475200Y-11912600D01*
X17424400Y-11861800D01*
X17373600Y-11912600D01*
X17424400Y-11963400D01*
X17678400Y-11963400D02*
X17729200Y-11912600D01*
X17678400Y-11861800D01*
X17627600Y-11912600D01*
X17678400Y-11963400D01*
X17932400Y-9296400D02*
X17983200Y-9245600D01*
X17932400Y-9194800D01*
X17881600Y-9245600D01*
X17932400Y-9296400D01*
X17932400Y-9550400D02*
X17983200Y-9499600D01*
X17932400Y-9448800D01*
X17881600Y-9499600D01*
X17932400Y-9550400D01*
X17932400Y-11963400D02*
X17983200Y-11912600D01*
X17932400Y-11861800D01*
X17881600Y-11912600D01*
X17932400Y-11963400D01*
X18186400Y-9296400D02*
X18237200Y-9245600D01*
X18186400Y-9194800D01*
X18135600Y-9245600D01*
X18186400Y-9296400D01*
X18186400Y-9550400D02*
X18237200Y-9499600D01*
X18186400Y-9448800D01*
X18135600Y-9499600D01*
X18186400Y-9550400D01*
X18186400Y-11303000D02*
X18237200Y-11252200D01*
X18186400Y-11201400D01*
X18135600Y-11252200D01*
X18186400Y-11303000D01*
X18186400Y-11557000D02*
X18237200Y-11506200D01*
X18186400Y-11455400D01*
X18135600Y-11506200D01*
X18186400Y-11557000D01*
X18186400Y-11963400D02*
X18237200Y-11912600D01*
X18186400Y-11861800D01*
X18135600Y-11912600D01*
X18186400Y-11963400D01*
X18440400Y-9296400D02*
X18491200Y-9245600D01*
X18440400Y-9194800D01*
X18389600Y-9245600D01*
X18440400Y-9296400D01*
X18440400Y-9550400D02*
X18491200Y-9499600D01*
X18440400Y-9448800D01*
X18389600Y-9499600D01*
X18440400Y-9550400D01*
D13*
X10754129Y-12665214D02*
X10754129Y-12365214D01*
X10825557Y-12365214D01*
X10868414Y-12379500D01*
X10896986Y-12408071D01*
X10911271Y-12436643D01*
X10925557Y-12493786D01*
X10925557Y-12536643D01*
X10911271Y-12593786D01*
X10896986Y-12622357D01*
X10868414Y-12650929D01*
X10825557Y-12665214D01*
X10754129Y-12665214D01*
X11054129Y-12665214D02*
X11054129Y-12465214D01*
X11054129Y-12522357D02*
X11068414Y-12493786D01*
X11082700Y-12479500D01*
X11111271Y-12465214D01*
X11139843Y-12465214D01*
X11239843Y-12665214D02*
X11239843Y-12465214D01*
X11239843Y-12365214D02*
X11225557Y-12379500D01*
X11239843Y-12393786D01*
X11254128Y-12379500D01*
X11239843Y-12365214D01*
X11239843Y-12393786D01*
X11425557Y-12665214D02*
X11396986Y-12650929D01*
X11382700Y-12622357D01*
X11382700Y-12365214D01*
X11582700Y-12665214D02*
X11554128Y-12650929D01*
X11539843Y-12622357D01*
X11539843Y-12365214D01*
X11925557Y-12665214D02*
X11925557Y-12365214D01*
X12025557Y-12579500D01*
X12125557Y-12365214D01*
X12125557Y-12665214D01*
X12396986Y-12665214D02*
X12396986Y-12508071D01*
X12382700Y-12479500D01*
X12354128Y-12465214D01*
X12296986Y-12465214D01*
X12268414Y-12479500D01*
X12396986Y-12650929D02*
X12368414Y-12665214D01*
X12296986Y-12665214D01*
X12268414Y-12650929D01*
X12254128Y-12622357D01*
X12254128Y-12593786D01*
X12268414Y-12565214D01*
X12296986Y-12550929D01*
X12368414Y-12550929D01*
X12396986Y-12536643D01*
X12539843Y-12465214D02*
X12539843Y-12765214D01*
X12539843Y-12479500D02*
X12568414Y-12465214D01*
X12625557Y-12465214D01*
X12654128Y-12479500D01*
X12668414Y-12493786D01*
X12682700Y-12522357D01*
X12682700Y-12608071D01*
X12668414Y-12636643D01*
X12654128Y-12650929D01*
X12625557Y-12665214D01*
X12568414Y-12665214D01*
X12539843Y-12650929D01*
X12811271Y-12636643D02*
X12825557Y-12650929D01*
X12811271Y-12665214D01*
X12796986Y-12650929D01*
X12811271Y-12636643D01*
X12811271Y-12665214D01*
X12811271Y-12479500D02*
X12825557Y-12493786D01*
X12811271Y-12508071D01*
X12796986Y-12493786D01*
X12811271Y-12479500D01*
X12811271Y-12508071D01*
X10442700Y-13139500D02*
X10482700Y-13179500D01*
X10482700Y-13139500D02*
X10442700Y-13179500D01*
X10811271Y-12995214D02*
X10839843Y-12995214D01*
X10868414Y-13009500D01*
X10882700Y-13023786D01*
X10896986Y-13052357D01*
X10911271Y-13109500D01*
X10911271Y-13180929D01*
X10896986Y-13238071D01*
X10882700Y-13266643D01*
X10868414Y-13280929D01*
X10839843Y-13295214D01*
X10811271Y-13295214D01*
X10782700Y-13280929D01*
X10768414Y-13266643D01*
X10754129Y-13238071D01*
X10739843Y-13180929D01*
X10739843Y-13109500D01*
X10754129Y-13052357D01*
X10768414Y-13023786D01*
X10782700Y-13009500D01*
X10811271Y-12995214D01*
X11039843Y-13266643D02*
X11054129Y-13280929D01*
X11039843Y-13295214D01*
X11025557Y-13280929D01*
X11039843Y-13266643D01*
X11039843Y-13295214D01*
X11311271Y-13095214D02*
X11311271Y-13295214D01*
X11239843Y-12980929D02*
X11168414Y-13195214D01*
X11354128Y-13195214D01*
X11525557Y-12995214D02*
X11554128Y-12995214D01*
X11582700Y-13009500D01*
X11596986Y-13023786D01*
X11611271Y-13052357D01*
X11625557Y-13109500D01*
X11625557Y-13180929D01*
X11611271Y-13238071D01*
X11596986Y-13266643D01*
X11582700Y-13280929D01*
X11554128Y-13295214D01*
X11525557Y-13295214D01*
X11496986Y-13280929D01*
X11482700Y-13266643D01*
X11468414Y-13238071D01*
X11454128Y-13180929D01*
X11454128Y-13109500D01*
X11468414Y-13052357D01*
X11482700Y-13023786D01*
X11496986Y-13009500D01*
X11525557Y-12995214D01*
X11754128Y-13295214D02*
X11754128Y-13095214D01*
X11754128Y-13123786D02*
X11768414Y-13109500D01*
X11796986Y-13095214D01*
X11839843Y-13095214D01*
X11868414Y-13109500D01*
X11882700Y-13138071D01*
X11882700Y-13295214D01*
X11882700Y-13138071D02*
X11896986Y-13109500D01*
X11925557Y-13095214D01*
X11968414Y-13095214D01*
X11996986Y-13109500D01*
X12011271Y-13138071D01*
X12011271Y-13295214D01*
X12154128Y-13295214D02*
X12154128Y-13095214D01*
X12154128Y-13123786D02*
X12168414Y-13109500D01*
X12196986Y-13095214D01*
X12239843Y-13095214D01*
X12268414Y-13109500D01*
X12282700Y-13138071D01*
X12282700Y-13295214D01*
X12282700Y-13138071D02*
X12296986Y-13109500D01*
X12325557Y-13095214D01*
X12368414Y-13095214D01*
X12396986Y-13109500D01*
X12411271Y-13138071D01*
X12411271Y-13295214D01*
X12996986Y-12980929D02*
X12739843Y-13366643D01*
X13382700Y-12995214D02*
X13411271Y-12995214D01*
X13439843Y-13009500D01*
X13454128Y-13023786D01*
X13468414Y-13052357D01*
X13482700Y-13109500D01*
X13482700Y-13180929D01*
X13468414Y-13238071D01*
X13454128Y-13266643D01*
X13439843Y-13280929D01*
X13411271Y-13295214D01*
X13382700Y-13295214D01*
X13354128Y-13280929D01*
X13339843Y-13266643D01*
X13325557Y-13238071D01*
X13311271Y-13180929D01*
X13311271Y-13109500D01*
X13325557Y-13052357D01*
X13339843Y-13023786D01*
X13354128Y-13009500D01*
X13382700Y-12995214D01*
X13611271Y-13266643D02*
X13625557Y-13280929D01*
X13611271Y-13295214D01*
X13596986Y-13280929D01*
X13611271Y-13266643D01*
X13611271Y-13295214D01*
X13811271Y-12995214D02*
X13839843Y-12995214D01*
X13868414Y-13009500D01*
X13882700Y-13023786D01*
X13896985Y-13052357D01*
X13911271Y-13109500D01*
X13911271Y-13180929D01*
X13896985Y-13238071D01*
X13882700Y-13266643D01*
X13868414Y-13280929D01*
X13839843Y-13295214D01*
X13811271Y-13295214D01*
X13782700Y-13280929D01*
X13768414Y-13266643D01*
X13754128Y-13238071D01*
X13739843Y-13180929D01*
X13739843Y-13109500D01*
X13754128Y-13052357D01*
X13768414Y-13023786D01*
X13782700Y-13009500D01*
X13811271Y-12995214D01*
X14196985Y-13295214D02*
X14025557Y-13295214D01*
X14111271Y-13295214D02*
X14111271Y-12995214D01*
X14082700Y-13038071D01*
X14054128Y-13066643D01*
X14025557Y-13080929D01*
X14454128Y-12995214D02*
X14396985Y-12995214D01*
X14368414Y-13009500D01*
X14354128Y-13023786D01*
X14325557Y-13066643D01*
X14311271Y-13123786D01*
X14311271Y-13238071D01*
X14325557Y-13266643D01*
X14339843Y-13280929D01*
X14368414Y-13295214D01*
X14425557Y-13295214D01*
X14454128Y-13280929D01*
X14468414Y-13266643D01*
X14482700Y-13238071D01*
X14482700Y-13166643D01*
X14468414Y-13138071D01*
X14454128Y-13123786D01*
X14425557Y-13109500D01*
X14368414Y-13109500D01*
X14339843Y-13123786D01*
X14325557Y-13138071D01*
X14311271Y-13166643D01*
X14596986Y-12995214D02*
X14596986Y-13052357D01*
X14711271Y-12995214D02*
X14711271Y-13052357D01*
X15154128Y-13409500D02*
X15139843Y-13395214D01*
X15111271Y-13352357D01*
X15096985Y-13323786D01*
X15082700Y-13280929D01*
X15068414Y-13209500D01*
X15068414Y-13152357D01*
X15082700Y-13080929D01*
X15096985Y-13038071D01*
X15111271Y-13009500D01*
X15139843Y-12966643D01*
X15154128Y-12952357D01*
X15425557Y-13295214D02*
X15254128Y-13295214D01*
X15339843Y-13295214D02*
X15339843Y-12995214D01*
X15311271Y-13038071D01*
X15282700Y-13066643D01*
X15254128Y-13080929D01*
X15525557Y-12995214D02*
X15725557Y-12995214D01*
X15596985Y-13295214D01*
X15882700Y-13123786D02*
X15854128Y-13109500D01*
X15839843Y-13095214D01*
X15825557Y-13066643D01*
X15825557Y-13052357D01*
X15839843Y-13023786D01*
X15854128Y-13009500D01*
X15882700Y-12995214D01*
X15939843Y-12995214D01*
X15968414Y-13009500D01*
X15982700Y-13023786D01*
X15996985Y-13052357D01*
X15996985Y-13066643D01*
X15982700Y-13095214D01*
X15968414Y-13109500D01*
X15939843Y-13123786D01*
X15882700Y-13123786D01*
X15854128Y-13138071D01*
X15839843Y-13152357D01*
X15825557Y-13180929D01*
X15825557Y-13238071D01*
X15839843Y-13266643D01*
X15854128Y-13280929D01*
X15882700Y-13295214D01*
X15939843Y-13295214D01*
X15968414Y-13280929D01*
X15982700Y-13266643D01*
X15996985Y-13238071D01*
X15996985Y-13180929D01*
X15982700Y-13152357D01*
X15968414Y-13138071D01*
X15939843Y-13123786D01*
X16354128Y-13295214D02*
X16354128Y-12995214D01*
X16482700Y-13295214D02*
X16482700Y-13138071D01*
X16468414Y-13109500D01*
X16439843Y-13095214D01*
X16396985Y-13095214D01*
X16368414Y-13109500D01*
X16354128Y-13123786D01*
X16668414Y-13295214D02*
X16639843Y-13280929D01*
X16625557Y-13266643D01*
X16611271Y-13238071D01*
X16611271Y-13152357D01*
X16625557Y-13123786D01*
X16639843Y-13109500D01*
X16668414Y-13095214D01*
X16711271Y-13095214D01*
X16739843Y-13109500D01*
X16754128Y-13123786D01*
X16768414Y-13152357D01*
X16768414Y-13238071D01*
X16754128Y-13266643D01*
X16739843Y-13280929D01*
X16711271Y-13295214D01*
X16668414Y-13295214D01*
X16939843Y-13295214D02*
X16911271Y-13280929D01*
X16896986Y-13252357D01*
X16896986Y-12995214D01*
X17168414Y-13280929D02*
X17139843Y-13295214D01*
X17082700Y-13295214D01*
X17054129Y-13280929D01*
X17039843Y-13252357D01*
X17039843Y-13138071D01*
X17054129Y-13109500D01*
X17082700Y-13095214D01*
X17139843Y-13095214D01*
X17168414Y-13109500D01*
X17182700Y-13138071D01*
X17182700Y-13166643D01*
X17039843Y-13195214D01*
X17296986Y-13280929D02*
X17325557Y-13295214D01*
X17382700Y-13295214D01*
X17411271Y-13280929D01*
X17425557Y-13252357D01*
X17425557Y-13238071D01*
X17411271Y-13209500D01*
X17382700Y-13195214D01*
X17339843Y-13195214D01*
X17311271Y-13180929D01*
X17296986Y-13152357D01*
X17296986Y-13138071D01*
X17311271Y-13109500D01*
X17339843Y-13095214D01*
X17382700Y-13095214D01*
X17411271Y-13109500D01*
X17525557Y-13409500D02*
X17539843Y-13395214D01*
X17568414Y-13352357D01*
X17582700Y-13323786D01*
X17596986Y-13280929D01*
X17611271Y-13209500D01*
X17611271Y-13152357D01*
X17596986Y-13080929D01*
X17582700Y-13038071D01*
X17568414Y-13009500D01*
X17539843Y-12966643D01*
X17525557Y-12952357D01*
X10482700Y-13555500D02*
G75*
G03X10482700Y-13555500I-29972J0D01*
G01*
X10811271Y-13391214D02*
X10839843Y-13391214D01*
X10868414Y-13405500D01*
X10882700Y-13419786D01*
X10896986Y-13448357D01*
X10911271Y-13505500D01*
X10911271Y-13576929D01*
X10896986Y-13634071D01*
X10882700Y-13662643D01*
X10868414Y-13676929D01*
X10839843Y-13691214D01*
X10811271Y-13691214D01*
X10782700Y-13676929D01*
X10768414Y-13662643D01*
X10754129Y-13634071D01*
X10739843Y-13576929D01*
X10739843Y-13505500D01*
X10754129Y-13448357D01*
X10768414Y-13419786D01*
X10782700Y-13405500D01*
X10811271Y-13391214D01*
X11039843Y-13662643D02*
X11054129Y-13676929D01*
X11039843Y-13691214D01*
X11025557Y-13676929D01*
X11039843Y-13662643D01*
X11039843Y-13691214D01*
X11311271Y-13391214D02*
X11254128Y-13391214D01*
X11225557Y-13405500D01*
X11211271Y-13419786D01*
X11182700Y-13462643D01*
X11168414Y-13519786D01*
X11168414Y-13634071D01*
X11182700Y-13662643D01*
X11196986Y-13676929D01*
X11225557Y-13691214D01*
X11282700Y-13691214D01*
X11311271Y-13676929D01*
X11325557Y-13662643D01*
X11339843Y-13634071D01*
X11339843Y-13562643D01*
X11325557Y-13534071D01*
X11311271Y-13519786D01*
X11282700Y-13505500D01*
X11225557Y-13505500D01*
X11196986Y-13519786D01*
X11182700Y-13534071D01*
X11168414Y-13562643D01*
X11525557Y-13391214D02*
X11554128Y-13391214D01*
X11582700Y-13405500D01*
X11596986Y-13419786D01*
X11611271Y-13448357D01*
X11625557Y-13505500D01*
X11625557Y-13576929D01*
X11611271Y-13634071D01*
X11596986Y-13662643D01*
X11582700Y-13676929D01*
X11554128Y-13691214D01*
X11525557Y-13691214D01*
X11496986Y-13676929D01*
X11482700Y-13662643D01*
X11468414Y-13634071D01*
X11454128Y-13576929D01*
X11454128Y-13505500D01*
X11468414Y-13448357D01*
X11482700Y-13419786D01*
X11496986Y-13405500D01*
X11525557Y-13391214D01*
X11754128Y-13691214D02*
X11754128Y-13491214D01*
X11754128Y-13519786D02*
X11768414Y-13505500D01*
X11796986Y-13491214D01*
X11839843Y-13491214D01*
X11868414Y-13505500D01*
X11882700Y-13534071D01*
X11882700Y-13691214D01*
X11882700Y-13534071D02*
X11896986Y-13505500D01*
X11925557Y-13491214D01*
X11968414Y-13491214D01*
X11996986Y-13505500D01*
X12011271Y-13534071D01*
X12011271Y-13691214D01*
X12154128Y-13691214D02*
X12154128Y-13491214D01*
X12154128Y-13519786D02*
X12168414Y-13505500D01*
X12196986Y-13491214D01*
X12239843Y-13491214D01*
X12268414Y-13505500D01*
X12282700Y-13534071D01*
X12282700Y-13691214D01*
X12282700Y-13534071D02*
X12296986Y-13505500D01*
X12325557Y-13491214D01*
X12368414Y-13491214D01*
X12396986Y-13505500D01*
X12411271Y-13534071D01*
X12411271Y-13691214D01*
X12996986Y-13376929D02*
X12739843Y-13762643D01*
X13382700Y-13391214D02*
X13411271Y-13391214D01*
X13439843Y-13405500D01*
X13454128Y-13419786D01*
X13468414Y-13448357D01*
X13482700Y-13505500D01*
X13482700Y-13576929D01*
X13468414Y-13634071D01*
X13454128Y-13662643D01*
X13439843Y-13676929D01*
X13411271Y-13691214D01*
X13382700Y-13691214D01*
X13354128Y-13676929D01*
X13339843Y-13662643D01*
X13325557Y-13634071D01*
X13311271Y-13576929D01*
X13311271Y-13505500D01*
X13325557Y-13448357D01*
X13339843Y-13419786D01*
X13354128Y-13405500D01*
X13382700Y-13391214D01*
X13611271Y-13662643D02*
X13625557Y-13676929D01*
X13611271Y-13691214D01*
X13596986Y-13676929D01*
X13611271Y-13662643D01*
X13611271Y-13691214D01*
X13811271Y-13391214D02*
X13839843Y-13391214D01*
X13868414Y-13405500D01*
X13882700Y-13419786D01*
X13896985Y-13448357D01*
X13911271Y-13505500D01*
X13911271Y-13576929D01*
X13896985Y-13634071D01*
X13882700Y-13662643D01*
X13868414Y-13676929D01*
X13839843Y-13691214D01*
X13811271Y-13691214D01*
X13782700Y-13676929D01*
X13768414Y-13662643D01*
X13754128Y-13634071D01*
X13739843Y-13576929D01*
X13739843Y-13505500D01*
X13754128Y-13448357D01*
X13768414Y-13419786D01*
X13782700Y-13405500D01*
X13811271Y-13391214D01*
X14025557Y-13419786D02*
X14039843Y-13405500D01*
X14068414Y-13391214D01*
X14139843Y-13391214D01*
X14168414Y-13405500D01*
X14182700Y-13419786D01*
X14196985Y-13448357D01*
X14196985Y-13476929D01*
X14182700Y-13519786D01*
X14011271Y-13691214D01*
X14196985Y-13691214D01*
X14454128Y-13491214D02*
X14454128Y-13691214D01*
X14382700Y-13376929D02*
X14311271Y-13591214D01*
X14496985Y-13591214D01*
X14596986Y-13391214D02*
X14596986Y-13448357D01*
X14711271Y-13391214D02*
X14711271Y-13448357D01*
X15154128Y-13805500D02*
X15139843Y-13791214D01*
X15111271Y-13748357D01*
X15096985Y-13719786D01*
X15082700Y-13676929D01*
X15068414Y-13605500D01*
X15068414Y-13548357D01*
X15082700Y-13476929D01*
X15096985Y-13434071D01*
X15111271Y-13405500D01*
X15139843Y-13362643D01*
X15154128Y-13348357D01*
X15254128Y-13419786D02*
X15268414Y-13405500D01*
X15296985Y-13391214D01*
X15368414Y-13391214D01*
X15396985Y-13405500D01*
X15411271Y-13419786D01*
X15425557Y-13448357D01*
X15425557Y-13476929D01*
X15411271Y-13519786D01*
X15239843Y-13691214D01*
X15425557Y-13691214D01*
X15782700Y-13691214D02*
X15782700Y-13391214D01*
X15911271Y-13691214D02*
X15911271Y-13534071D01*
X15896985Y-13505500D01*
X15868414Y-13491214D01*
X15825557Y-13491214D01*
X15796985Y-13505500D01*
X15782700Y-13519786D01*
X16096985Y-13691214D02*
X16068414Y-13676929D01*
X16054128Y-13662643D01*
X16039843Y-13634071D01*
X16039843Y-13548357D01*
X16054128Y-13519786D01*
X16068414Y-13505500D01*
X16096985Y-13491214D01*
X16139843Y-13491214D01*
X16168414Y-13505500D01*
X16182700Y-13519786D01*
X16196985Y-13548357D01*
X16196985Y-13634071D01*
X16182700Y-13662643D01*
X16168414Y-13676929D01*
X16139843Y-13691214D01*
X16096985Y-13691214D01*
X16368414Y-13691214D02*
X16339843Y-13676929D01*
X16325557Y-13648357D01*
X16325557Y-13391214D01*
X16596986Y-13676929D02*
X16568414Y-13691214D01*
X16511271Y-13691214D01*
X16482700Y-13676929D01*
X16468414Y-13648357D01*
X16468414Y-13534071D01*
X16482700Y-13505500D01*
X16511271Y-13491214D01*
X16568414Y-13491214D01*
X16596986Y-13505500D01*
X16611271Y-13534071D01*
X16611271Y-13562643D01*
X16468414Y-13591214D01*
X16725557Y-13676929D02*
X16754128Y-13691214D01*
X16811271Y-13691214D01*
X16839843Y-13676929D01*
X16854129Y-13648357D01*
X16854129Y-13634071D01*
X16839843Y-13605500D01*
X16811271Y-13591214D01*
X16768414Y-13591214D01*
X16739843Y-13576929D01*
X16725557Y-13548357D01*
X16725557Y-13534071D01*
X16739843Y-13505500D01*
X16768414Y-13491214D01*
X16811271Y-13491214D01*
X16839843Y-13505500D01*
X16954128Y-13805500D02*
X16968414Y-13791214D01*
X16996986Y-13748357D01*
X17011271Y-13719786D01*
X17025557Y-13676929D01*
X17039843Y-13605500D01*
X17039843Y-13548357D01*
X17025557Y-13476929D01*
X17011271Y-13434071D01*
X16996986Y-13405500D01*
X16968414Y-13362643D01*
X16954128Y-13348357D01*
X10442695Y-13911495D02*
X10442695Y-13991505D01*
X10402690Y-13951500D02*
X10482700Y-13951500D01*
X10811271Y-13787214D02*
X10839843Y-13787214D01*
X10868414Y-13801500D01*
X10882700Y-13815786D01*
X10896986Y-13844357D01*
X10911271Y-13901500D01*
X10911271Y-13972929D01*
X10896986Y-14030071D01*
X10882700Y-14058643D01*
X10868414Y-14072929D01*
X10839843Y-14087214D01*
X10811271Y-14087214D01*
X10782700Y-14072929D01*
X10768414Y-14058643D01*
X10754129Y-14030071D01*
X10739843Y-13972929D01*
X10739843Y-13901500D01*
X10754129Y-13844357D01*
X10768414Y-13815786D01*
X10782700Y-13801500D01*
X10811271Y-13787214D01*
X11039843Y-14058643D02*
X11054129Y-14072929D01*
X11039843Y-14087214D01*
X11025557Y-14072929D01*
X11039843Y-14058643D01*
X11039843Y-14087214D01*
X11225557Y-13915786D02*
X11196986Y-13901500D01*
X11182700Y-13887214D01*
X11168414Y-13858643D01*
X11168414Y-13844357D01*
X11182700Y-13815786D01*
X11196986Y-13801500D01*
X11225557Y-13787214D01*
X11282700Y-13787214D01*
X11311271Y-13801500D01*
X11325557Y-13815786D01*
X11339843Y-13844357D01*
X11339843Y-13858643D01*
X11325557Y-13887214D01*
X11311271Y-13901500D01*
X11282700Y-13915786D01*
X11225557Y-13915786D01*
X11196986Y-13930071D01*
X11182700Y-13944357D01*
X11168414Y-13972929D01*
X11168414Y-14030071D01*
X11182700Y-14058643D01*
X11196986Y-14072929D01*
X11225557Y-14087214D01*
X11282700Y-14087214D01*
X11311271Y-14072929D01*
X11325557Y-14058643D01*
X11339843Y-14030071D01*
X11339843Y-13972929D01*
X11325557Y-13944357D01*
X11311271Y-13930071D01*
X11282700Y-13915786D01*
X11525557Y-13787214D02*
X11554128Y-13787214D01*
X11582700Y-13801500D01*
X11596986Y-13815786D01*
X11611271Y-13844357D01*
X11625557Y-13901500D01*
X11625557Y-13972929D01*
X11611271Y-14030071D01*
X11596986Y-14058643D01*
X11582700Y-14072929D01*
X11554128Y-14087214D01*
X11525557Y-14087214D01*
X11496986Y-14072929D01*
X11482700Y-14058643D01*
X11468414Y-14030071D01*
X11454128Y-13972929D01*
X11454128Y-13901500D01*
X11468414Y-13844357D01*
X11482700Y-13815786D01*
X11496986Y-13801500D01*
X11525557Y-13787214D01*
X11754128Y-14087214D02*
X11754128Y-13887214D01*
X11754128Y-13915786D02*
X11768414Y-13901500D01*
X11796986Y-13887214D01*
X11839843Y-13887214D01*
X11868414Y-13901500D01*
X11882700Y-13930071D01*
X11882700Y-14087214D01*
X11882700Y-13930071D02*
X11896986Y-13901500D01*
X11925557Y-13887214D01*
X11968414Y-13887214D01*
X11996986Y-13901500D01*
X12011271Y-13930071D01*
X12011271Y-14087214D01*
X12154128Y-14087214D02*
X12154128Y-13887214D01*
X12154128Y-13915786D02*
X12168414Y-13901500D01*
X12196986Y-13887214D01*
X12239843Y-13887214D01*
X12268414Y-13901500D01*
X12282700Y-13930071D01*
X12282700Y-14087214D01*
X12282700Y-13930071D02*
X12296986Y-13901500D01*
X12325557Y-13887214D01*
X12368414Y-13887214D01*
X12396986Y-13901500D01*
X12411271Y-13930071D01*
X12411271Y-14087214D01*
X12996986Y-13772929D02*
X12739843Y-14158643D01*
X13382700Y-13787214D02*
X13411271Y-13787214D01*
X13439843Y-13801500D01*
X13454128Y-13815786D01*
X13468414Y-13844357D01*
X13482700Y-13901500D01*
X13482700Y-13972929D01*
X13468414Y-14030071D01*
X13454128Y-14058643D01*
X13439843Y-14072929D01*
X13411271Y-14087214D01*
X13382700Y-14087214D01*
X13354128Y-14072929D01*
X13339843Y-14058643D01*
X13325557Y-14030071D01*
X13311271Y-13972929D01*
X13311271Y-13901500D01*
X13325557Y-13844357D01*
X13339843Y-13815786D01*
X13354128Y-13801500D01*
X13382700Y-13787214D01*
X13611271Y-14058643D02*
X13625557Y-14072929D01*
X13611271Y-14087214D01*
X13596986Y-14072929D01*
X13611271Y-14058643D01*
X13611271Y-14087214D01*
X13811271Y-13787214D02*
X13839843Y-13787214D01*
X13868414Y-13801500D01*
X13882700Y-13815786D01*
X13896985Y-13844357D01*
X13911271Y-13901500D01*
X13911271Y-13972929D01*
X13896985Y-14030071D01*
X13882700Y-14058643D01*
X13868414Y-14072929D01*
X13839843Y-14087214D01*
X13811271Y-14087214D01*
X13782700Y-14072929D01*
X13768414Y-14058643D01*
X13754128Y-14030071D01*
X13739843Y-13972929D01*
X13739843Y-13901500D01*
X13754128Y-13844357D01*
X13768414Y-13815786D01*
X13782700Y-13801500D01*
X13811271Y-13787214D01*
X14011271Y-13787214D02*
X14196985Y-13787214D01*
X14096985Y-13901500D01*
X14139843Y-13901500D01*
X14168414Y-13915786D01*
X14182700Y-13930071D01*
X14196985Y-13958643D01*
X14196985Y-14030071D01*
X14182700Y-14058643D01*
X14168414Y-14072929D01*
X14139843Y-14087214D01*
X14054128Y-14087214D01*
X14025557Y-14072929D01*
X14011271Y-14058643D01*
X14311271Y-13815786D02*
X14325557Y-13801500D01*
X14354128Y-13787214D01*
X14425557Y-13787214D01*
X14454128Y-13801500D01*
X14468414Y-13815786D01*
X14482700Y-13844357D01*
X14482700Y-13872929D01*
X14468414Y-13915786D01*
X14296985Y-14087214D01*
X14482700Y-14087214D01*
X14596986Y-13787214D02*
X14596986Y-13844357D01*
X14711271Y-13787214D02*
X14711271Y-13844357D01*
X15154128Y-14201500D02*
X15139843Y-14187214D01*
X15111271Y-14144357D01*
X15096985Y-14115786D01*
X15082700Y-14072929D01*
X15068414Y-14001500D01*
X15068414Y-13944357D01*
X15082700Y-13872929D01*
X15096985Y-13830071D01*
X15111271Y-13801500D01*
X15139843Y-13758643D01*
X15154128Y-13744357D01*
X15396985Y-13887214D02*
X15396985Y-14087214D01*
X15325557Y-13772929D02*
X15254128Y-13987214D01*
X15439843Y-13987214D01*
X15782700Y-14087214D02*
X15782700Y-13787214D01*
X15911271Y-14087214D02*
X15911271Y-13930071D01*
X15896985Y-13901500D01*
X15868414Y-13887214D01*
X15825557Y-13887214D01*
X15796985Y-13901500D01*
X15782700Y-13915786D01*
X16096985Y-14087214D02*
X16068414Y-14072929D01*
X16054128Y-14058643D01*
X16039843Y-14030071D01*
X16039843Y-13944357D01*
X16054128Y-13915786D01*
X16068414Y-13901500D01*
X16096985Y-13887214D01*
X16139843Y-13887214D01*
X16168414Y-13901500D01*
X16182700Y-13915786D01*
X16196985Y-13944357D01*
X16196985Y-14030071D01*
X16182700Y-14058643D01*
X16168414Y-14072929D01*
X16139843Y-14087214D01*
X16096985Y-14087214D01*
X16368414Y-14087214D02*
X16339843Y-14072929D01*
X16325557Y-14044357D01*
X16325557Y-13787214D01*
X16596986Y-14072929D02*
X16568414Y-14087214D01*
X16511271Y-14087214D01*
X16482700Y-14072929D01*
X16468414Y-14044357D01*
X16468414Y-13930071D01*
X16482700Y-13901500D01*
X16511271Y-13887214D01*
X16568414Y-13887214D01*
X16596986Y-13901500D01*
X16611271Y-13930071D01*
X16611271Y-13958643D01*
X16468414Y-13987214D01*
X16725557Y-14072929D02*
X16754128Y-14087214D01*
X16811271Y-14087214D01*
X16839843Y-14072929D01*
X16854129Y-14044357D01*
X16854129Y-14030071D01*
X16839843Y-14001500D01*
X16811271Y-13987214D01*
X16768414Y-13987214D01*
X16739843Y-13972929D01*
X16725557Y-13944357D01*
X16725557Y-13930071D01*
X16739843Y-13901500D01*
X16768414Y-13887214D01*
X16811271Y-13887214D01*
X16839843Y-13901500D01*
X16954128Y-14201500D02*
X16968414Y-14187214D01*
X16996986Y-14144357D01*
X17011271Y-14115786D01*
X17025557Y-14072929D01*
X17039843Y-14001500D01*
X17039843Y-13944357D01*
X17025557Y-13872929D01*
X17011271Y-13830071D01*
X16996986Y-13801500D01*
X16968414Y-13758643D01*
X16954128Y-13744357D01*
X10469532Y-14379290D02*
X10469532Y-14315710D01*
X10405952Y-14315710D01*
X10405952Y-14379290D01*
X10469532Y-14379290D01*
X10811271Y-14183214D02*
X10839843Y-14183214D01*
X10868414Y-14197500D01*
X10882700Y-14211786D01*
X10896986Y-14240357D01*
X10911271Y-14297500D01*
X10911271Y-14368929D01*
X10896986Y-14426071D01*
X10882700Y-14454643D01*
X10868414Y-14468929D01*
X10839843Y-14483214D01*
X10811271Y-14483214D01*
X10782700Y-14468929D01*
X10768414Y-14454643D01*
X10754129Y-14426071D01*
X10739843Y-14368929D01*
X10739843Y-14297500D01*
X10754129Y-14240357D01*
X10768414Y-14211786D01*
X10782700Y-14197500D01*
X10811271Y-14183214D01*
X11039843Y-14454643D02*
X11054129Y-14468929D01*
X11039843Y-14483214D01*
X11025557Y-14468929D01*
X11039843Y-14454643D01*
X11039843Y-14483214D01*
X11196986Y-14483214D02*
X11254128Y-14483214D01*
X11282700Y-14468929D01*
X11296986Y-14454643D01*
X11325557Y-14411786D01*
X11339843Y-14354643D01*
X11339843Y-14240357D01*
X11325557Y-14211786D01*
X11311271Y-14197500D01*
X11282700Y-14183214D01*
X11225557Y-14183214D01*
X11196986Y-14197500D01*
X11182700Y-14211786D01*
X11168414Y-14240357D01*
X11168414Y-14311786D01*
X11182700Y-14340357D01*
X11196986Y-14354643D01*
X11225557Y-14368929D01*
X11282700Y-14368929D01*
X11311271Y-14354643D01*
X11325557Y-14340357D01*
X11339843Y-14311786D01*
X11525557Y-14183214D02*
X11554128Y-14183214D01*
X11582700Y-14197500D01*
X11596986Y-14211786D01*
X11611271Y-14240357D01*
X11625557Y-14297500D01*
X11625557Y-14368929D01*
X11611271Y-14426071D01*
X11596986Y-14454643D01*
X11582700Y-14468929D01*
X11554128Y-14483214D01*
X11525557Y-14483214D01*
X11496986Y-14468929D01*
X11482700Y-14454643D01*
X11468414Y-14426071D01*
X11454128Y-14368929D01*
X11454128Y-14297500D01*
X11468414Y-14240357D01*
X11482700Y-14211786D01*
X11496986Y-14197500D01*
X11525557Y-14183214D01*
X11754128Y-14483214D02*
X11754128Y-14283214D01*
X11754128Y-14311786D02*
X11768414Y-14297500D01*
X11796986Y-14283214D01*
X11839843Y-14283214D01*
X11868414Y-14297500D01*
X11882700Y-14326071D01*
X11882700Y-14483214D01*
X11882700Y-14326071D02*
X11896986Y-14297500D01*
X11925557Y-14283214D01*
X11968414Y-14283214D01*
X11996986Y-14297500D01*
X12011271Y-14326071D01*
X12011271Y-14483214D01*
X12154128Y-14483214D02*
X12154128Y-14283214D01*
X12154128Y-14311786D02*
X12168414Y-14297500D01*
X12196986Y-14283214D01*
X12239843Y-14283214D01*
X12268414Y-14297500D01*
X12282700Y-14326071D01*
X12282700Y-14483214D01*
X12282700Y-14326071D02*
X12296986Y-14297500D01*
X12325557Y-14283214D01*
X12368414Y-14283214D01*
X12396986Y-14297500D01*
X12411271Y-14326071D01*
X12411271Y-14483214D01*
X12996986Y-14168929D02*
X12739843Y-14554643D01*
X13382700Y-14183214D02*
X13411271Y-14183214D01*
X13439843Y-14197500D01*
X13454128Y-14211786D01*
X13468414Y-14240357D01*
X13482700Y-14297500D01*
X13482700Y-14368929D01*
X13468414Y-14426071D01*
X13454128Y-14454643D01*
X13439843Y-14468929D01*
X13411271Y-14483214D01*
X13382700Y-14483214D01*
X13354128Y-14468929D01*
X13339843Y-14454643D01*
X13325557Y-14426071D01*
X13311271Y-14368929D01*
X13311271Y-14297500D01*
X13325557Y-14240357D01*
X13339843Y-14211786D01*
X13354128Y-14197500D01*
X13382700Y-14183214D01*
X13611271Y-14454643D02*
X13625557Y-14468929D01*
X13611271Y-14483214D01*
X13596986Y-14468929D01*
X13611271Y-14454643D01*
X13611271Y-14483214D01*
X13811271Y-14183214D02*
X13839843Y-14183214D01*
X13868414Y-14197500D01*
X13882700Y-14211786D01*
X13896985Y-14240357D01*
X13911271Y-14297500D01*
X13911271Y-14368929D01*
X13896985Y-14426071D01*
X13882700Y-14454643D01*
X13868414Y-14468929D01*
X13839843Y-14483214D01*
X13811271Y-14483214D01*
X13782700Y-14468929D01*
X13768414Y-14454643D01*
X13754128Y-14426071D01*
X13739843Y-14368929D01*
X13739843Y-14297500D01*
X13754128Y-14240357D01*
X13768414Y-14211786D01*
X13782700Y-14197500D01*
X13811271Y-14183214D01*
X14011271Y-14183214D02*
X14196985Y-14183214D01*
X14096985Y-14297500D01*
X14139843Y-14297500D01*
X14168414Y-14311786D01*
X14182700Y-14326071D01*
X14196985Y-14354643D01*
X14196985Y-14426071D01*
X14182700Y-14454643D01*
X14168414Y-14468929D01*
X14139843Y-14483214D01*
X14054128Y-14483214D01*
X14025557Y-14468929D01*
X14011271Y-14454643D01*
X14468414Y-14183214D02*
X14325557Y-14183214D01*
X14311271Y-14326071D01*
X14325557Y-14311786D01*
X14354128Y-14297500D01*
X14425557Y-14297500D01*
X14454128Y-14311786D01*
X14468414Y-14326071D01*
X14482700Y-14354643D01*
X14482700Y-14426071D01*
X14468414Y-14454643D01*
X14454128Y-14468929D01*
X14425557Y-14483214D01*
X14354128Y-14483214D01*
X14325557Y-14468929D01*
X14311271Y-14454643D01*
X14596986Y-14183214D02*
X14596986Y-14240357D01*
X14711271Y-14183214D02*
X14711271Y-14240357D01*
X15154128Y-14597500D02*
X15139843Y-14583214D01*
X15111271Y-14540357D01*
X15096985Y-14511786D01*
X15082700Y-14468929D01*
X15068414Y-14397500D01*
X15068414Y-14340357D01*
X15082700Y-14268929D01*
X15096985Y-14226071D01*
X15111271Y-14197500D01*
X15139843Y-14154643D01*
X15154128Y-14140357D01*
X15411271Y-14183214D02*
X15268414Y-14183214D01*
X15254128Y-14326071D01*
X15268414Y-14311786D01*
X15296985Y-14297500D01*
X15368414Y-14297500D01*
X15396985Y-14311786D01*
X15411271Y-14326071D01*
X15425557Y-14354643D01*
X15425557Y-14426071D01*
X15411271Y-14454643D01*
X15396985Y-14468929D01*
X15368414Y-14483214D01*
X15296985Y-14483214D01*
X15268414Y-14468929D01*
X15254128Y-14454643D01*
X15782700Y-14483214D02*
X15782700Y-14183214D01*
X15911271Y-14483214D02*
X15911271Y-14326071D01*
X15896985Y-14297500D01*
X15868414Y-14283214D01*
X15825557Y-14283214D01*
X15796985Y-14297500D01*
X15782700Y-14311786D01*
X16096985Y-14483214D02*
X16068414Y-14468929D01*
X16054128Y-14454643D01*
X16039843Y-14426071D01*
X16039843Y-14340357D01*
X16054128Y-14311786D01*
X16068414Y-14297500D01*
X16096985Y-14283214D01*
X16139843Y-14283214D01*
X16168414Y-14297500D01*
X16182700Y-14311786D01*
X16196985Y-14340357D01*
X16196985Y-14426071D01*
X16182700Y-14454643D01*
X16168414Y-14468929D01*
X16139843Y-14483214D01*
X16096985Y-14483214D01*
X16368414Y-14483214D02*
X16339843Y-14468929D01*
X16325557Y-14440357D01*
X16325557Y-14183214D01*
X16596986Y-14468929D02*
X16568414Y-14483214D01*
X16511271Y-14483214D01*
X16482700Y-14468929D01*
X16468414Y-14440357D01*
X16468414Y-14326071D01*
X16482700Y-14297500D01*
X16511271Y-14283214D01*
X16568414Y-14283214D01*
X16596986Y-14297500D01*
X16611271Y-14326071D01*
X16611271Y-14354643D01*
X16468414Y-14383214D01*
X16725557Y-14468929D02*
X16754128Y-14483214D01*
X16811271Y-14483214D01*
X16839843Y-14468929D01*
X16854129Y-14440357D01*
X16854129Y-14426071D01*
X16839843Y-14397500D01*
X16811271Y-14383214D01*
X16768414Y-14383214D01*
X16739843Y-14368929D01*
X16725557Y-14340357D01*
X16725557Y-14326071D01*
X16739843Y-14297500D01*
X16768414Y-14283214D01*
X16811271Y-14283214D01*
X16839843Y-14297500D01*
X16954128Y-14597500D02*
X16968414Y-14583214D01*
X16996986Y-14540357D01*
X17011271Y-14511786D01*
X17025557Y-14468929D01*
X17039843Y-14397500D01*
X17039843Y-14340357D01*
X17025557Y-14268929D01*
X17011271Y-14226071D01*
X16996986Y-14197500D01*
X16968414Y-14154643D01*
X16954128Y-14140357D01*
X10431900Y-14794300D02*
X10482700Y-14743500D01*
X10431900Y-14692700D01*
X10381100Y-14743500D01*
X10431900Y-14794300D01*
X10911271Y-14879214D02*
X10739843Y-14879214D01*
X10825557Y-14879214D02*
X10825557Y-14579214D01*
X10796986Y-14622071D01*
X10768414Y-14650643D01*
X10739843Y-14664929D01*
X11039843Y-14850643D02*
X11054129Y-14864929D01*
X11039843Y-14879214D01*
X11025557Y-14864929D01*
X11039843Y-14850643D01*
X11039843Y-14879214D01*
X11239843Y-14579214D02*
X11268414Y-14579214D01*
X11296986Y-14593500D01*
X11311271Y-14607786D01*
X11325557Y-14636357D01*
X11339843Y-14693500D01*
X11339843Y-14764929D01*
X11325557Y-14822071D01*
X11311271Y-14850643D01*
X11296986Y-14864929D01*
X11268414Y-14879214D01*
X11239843Y-14879214D01*
X11211271Y-14864929D01*
X11196986Y-14850643D01*
X11182700Y-14822071D01*
X11168414Y-14764929D01*
X11168414Y-14693500D01*
X11182700Y-14636357D01*
X11196986Y-14607786D01*
X11211271Y-14593500D01*
X11239843Y-14579214D01*
X11454128Y-14607786D02*
X11468414Y-14593500D01*
X11496986Y-14579214D01*
X11568414Y-14579214D01*
X11596986Y-14593500D01*
X11611271Y-14607786D01*
X11625557Y-14636357D01*
X11625557Y-14664929D01*
X11611271Y-14707786D01*
X11439843Y-14879214D01*
X11625557Y-14879214D01*
X11754128Y-14879214D02*
X11754128Y-14679214D01*
X11754128Y-14707786D02*
X11768414Y-14693500D01*
X11796986Y-14679214D01*
X11839843Y-14679214D01*
X11868414Y-14693500D01*
X11882700Y-14722071D01*
X11882700Y-14879214D01*
X11882700Y-14722071D02*
X11896986Y-14693500D01*
X11925557Y-14679214D01*
X11968414Y-14679214D01*
X11996986Y-14693500D01*
X12011271Y-14722071D01*
X12011271Y-14879214D01*
X12154128Y-14879214D02*
X12154128Y-14679214D01*
X12154128Y-14707786D02*
X12168414Y-14693500D01*
X12196986Y-14679214D01*
X12239843Y-14679214D01*
X12268414Y-14693500D01*
X12282700Y-14722071D01*
X12282700Y-14879214D01*
X12282700Y-14722071D02*
X12296986Y-14693500D01*
X12325557Y-14679214D01*
X12368414Y-14679214D01*
X12396986Y-14693500D01*
X12411271Y-14722071D01*
X12411271Y-14879214D01*
X12996986Y-14564929D02*
X12739843Y-14950643D01*
X13382700Y-14579214D02*
X13411271Y-14579214D01*
X13439843Y-14593500D01*
X13454128Y-14607786D01*
X13468414Y-14636357D01*
X13482700Y-14693500D01*
X13482700Y-14764929D01*
X13468414Y-14822071D01*
X13454128Y-14850643D01*
X13439843Y-14864929D01*
X13411271Y-14879214D01*
X13382700Y-14879214D01*
X13354128Y-14864929D01*
X13339843Y-14850643D01*
X13325557Y-14822071D01*
X13311271Y-14764929D01*
X13311271Y-14693500D01*
X13325557Y-14636357D01*
X13339843Y-14607786D01*
X13354128Y-14593500D01*
X13382700Y-14579214D01*
X13611271Y-14850643D02*
X13625557Y-14864929D01*
X13611271Y-14879214D01*
X13596986Y-14864929D01*
X13611271Y-14850643D01*
X13611271Y-14879214D01*
X13811271Y-14579214D02*
X13839843Y-14579214D01*
X13868414Y-14593500D01*
X13882700Y-14607786D01*
X13896985Y-14636357D01*
X13911271Y-14693500D01*
X13911271Y-14764929D01*
X13896985Y-14822071D01*
X13882700Y-14850643D01*
X13868414Y-14864929D01*
X13839843Y-14879214D01*
X13811271Y-14879214D01*
X13782700Y-14864929D01*
X13768414Y-14850643D01*
X13754128Y-14822071D01*
X13739843Y-14764929D01*
X13739843Y-14693500D01*
X13754128Y-14636357D01*
X13768414Y-14607786D01*
X13782700Y-14593500D01*
X13811271Y-14579214D01*
X14168414Y-14679214D02*
X14168414Y-14879214D01*
X14096985Y-14564929D02*
X14025557Y-14779214D01*
X14211271Y-14779214D01*
X14382700Y-14579214D02*
X14411271Y-14579214D01*
X14439843Y-14593500D01*
X14454128Y-14607786D01*
X14468414Y-14636357D01*
X14482700Y-14693500D01*
X14482700Y-14764929D01*
X14468414Y-14822071D01*
X14454128Y-14850643D01*
X14439843Y-14864929D01*
X14411271Y-14879214D01*
X14382700Y-14879214D01*
X14354128Y-14864929D01*
X14339843Y-14850643D01*
X14325557Y-14822071D01*
X14311271Y-14764929D01*
X14311271Y-14693500D01*
X14325557Y-14636357D01*
X14339843Y-14607786D01*
X14354128Y-14593500D01*
X14382700Y-14579214D01*
X14596986Y-14579214D02*
X14596986Y-14636357D01*
X14711271Y-14579214D02*
X14711271Y-14636357D01*
X15154128Y-14993500D02*
X15139843Y-14979214D01*
X15111271Y-14936357D01*
X15096985Y-14907786D01*
X15082700Y-14864929D01*
X15068414Y-14793500D01*
X15068414Y-14736357D01*
X15082700Y-14664929D01*
X15096985Y-14622071D01*
X15111271Y-14593500D01*
X15139843Y-14550643D01*
X15154128Y-14536357D01*
X15254128Y-14607786D02*
X15268414Y-14593500D01*
X15296985Y-14579214D01*
X15368414Y-14579214D01*
X15396985Y-14593500D01*
X15411271Y-14607786D01*
X15425557Y-14636357D01*
X15425557Y-14664929D01*
X15411271Y-14707786D01*
X15239843Y-14879214D01*
X15425557Y-14879214D01*
X15525557Y-14579214D02*
X15711271Y-14579214D01*
X15611271Y-14693500D01*
X15654128Y-14693500D01*
X15682700Y-14707786D01*
X15696985Y-14722071D01*
X15711271Y-14750643D01*
X15711271Y-14822071D01*
X15696985Y-14850643D01*
X15682700Y-14864929D01*
X15654128Y-14879214D01*
X15568414Y-14879214D01*
X15539843Y-14864929D01*
X15525557Y-14850643D01*
X16068414Y-14879214D02*
X16068414Y-14579214D01*
X16196985Y-14879214D02*
X16196985Y-14722071D01*
X16182700Y-14693500D01*
X16154128Y-14679214D01*
X16111271Y-14679214D01*
X16082700Y-14693500D01*
X16068414Y-14707786D01*
X16382700Y-14879214D02*
X16354128Y-14864929D01*
X16339843Y-14850643D01*
X16325557Y-14822071D01*
X16325557Y-14736357D01*
X16339843Y-14707786D01*
X16354128Y-14693500D01*
X16382700Y-14679214D01*
X16425557Y-14679214D01*
X16454128Y-14693500D01*
X16468414Y-14707786D01*
X16482700Y-14736357D01*
X16482700Y-14822071D01*
X16468414Y-14850643D01*
X16454128Y-14864929D01*
X16425557Y-14879214D01*
X16382700Y-14879214D01*
X16654128Y-14879214D02*
X16625557Y-14864929D01*
X16611271Y-14836357D01*
X16611271Y-14579214D01*
X16882700Y-14864929D02*
X16854129Y-14879214D01*
X16796986Y-14879214D01*
X16768414Y-14864929D01*
X16754128Y-14836357D01*
X16754128Y-14722071D01*
X16768414Y-14693500D01*
X16796986Y-14679214D01*
X16854129Y-14679214D01*
X16882700Y-14693500D01*
X16896986Y-14722071D01*
X16896986Y-14750643D01*
X16754128Y-14779214D01*
X17011271Y-14864929D02*
X17039843Y-14879214D01*
X17096986Y-14879214D01*
X17125557Y-14864929D01*
X17139843Y-14836357D01*
X17139843Y-14822071D01*
X17125557Y-14793500D01*
X17096986Y-14779214D01*
X17054129Y-14779214D01*
X17025557Y-14764929D01*
X17011271Y-14736357D01*
X17011271Y-14722071D01*
X17025557Y-14693500D01*
X17054129Y-14679214D01*
X17096986Y-14679214D01*
X17125557Y-14693500D01*
X17239843Y-14993500D02*
X17254129Y-14979214D01*
X17282700Y-14936357D01*
X17296986Y-14907786D01*
X17311271Y-14864929D01*
X17325557Y-14793500D01*
X17325557Y-14736357D01*
X17311271Y-14664929D01*
X17296986Y-14622071D01*
X17282700Y-14593500D01*
X17254129Y-14550643D01*
X17239843Y-14536357D01*
M02*
