G04 #@! TF.FileFunction,Legend,Top*
%FSLAX46Y46*%
G04 Gerber Fmt 4.6, Leading zero omitted, Abs format (unit mm)*
G04 Created by KiCad (PCBNEW 4.0.4-stable) date 11/24/16 17:28:53*
%MOMM*%
%LPD*%
G01*
G04 APERTURE LIST*
%ADD10C,0.150000*%
%ADD11C,0.300000*%
%ADD12C,0.200000*%
%ADD13C,0.250000*%
%ADD14C,0.010000*%
%ADD15C,0.381000*%
%ADD16C,0.304800*%
G04 APERTURE END LIST*
D10*
D11*
X118773714Y-80768000D02*
X119488000Y-80768000D01*
X118630857Y-81196571D02*
X119130857Y-79696571D01*
X119630857Y-81196571D01*
X120130857Y-80196571D02*
X120130857Y-81696571D01*
X120130857Y-80268000D02*
X120273714Y-80196571D01*
X120559428Y-80196571D01*
X120702285Y-80268000D01*
X120773714Y-80339429D01*
X120845143Y-80482286D01*
X120845143Y-80910857D01*
X120773714Y-81053714D01*
X120702285Y-81125143D01*
X120559428Y-81196571D01*
X120273714Y-81196571D01*
X120130857Y-81125143D01*
X121488000Y-80196571D02*
X121488000Y-81696571D01*
X121488000Y-80268000D02*
X121630857Y-80196571D01*
X121916571Y-80196571D01*
X122059428Y-80268000D01*
X122130857Y-80339429D01*
X122202286Y-80482286D01*
X122202286Y-80910857D01*
X122130857Y-81053714D01*
X122059428Y-81125143D01*
X121916571Y-81196571D01*
X121630857Y-81196571D01*
X121488000Y-81125143D01*
X123059429Y-81196571D02*
X122916571Y-81125143D01*
X122845143Y-81053714D01*
X122773714Y-80910857D01*
X122773714Y-80482286D01*
X122845143Y-80339429D01*
X122916571Y-80268000D01*
X123059429Y-80196571D01*
X123273714Y-80196571D01*
X123416571Y-80268000D01*
X123488000Y-80339429D01*
X123559429Y-80482286D01*
X123559429Y-80910857D01*
X123488000Y-81053714D01*
X123416571Y-81125143D01*
X123273714Y-81196571D01*
X123059429Y-81196571D01*
X123988000Y-80196571D02*
X124559429Y-80196571D01*
X124202286Y-79696571D02*
X124202286Y-80982286D01*
X124273714Y-81125143D01*
X124416572Y-81196571D01*
X124559429Y-81196571D01*
X125630857Y-81125143D02*
X125488000Y-81196571D01*
X125202286Y-81196571D01*
X125059429Y-81125143D01*
X124988000Y-80982286D01*
X124988000Y-80410857D01*
X125059429Y-80268000D01*
X125202286Y-80196571D01*
X125488000Y-80196571D01*
X125630857Y-80268000D01*
X125702286Y-80410857D01*
X125702286Y-80553714D01*
X124988000Y-80696571D01*
X126988000Y-81125143D02*
X126845143Y-81196571D01*
X126559429Y-81196571D01*
X126416571Y-81125143D01*
X126345143Y-81053714D01*
X126273714Y-80910857D01*
X126273714Y-80482286D01*
X126345143Y-80339429D01*
X126416571Y-80268000D01*
X126559429Y-80196571D01*
X126845143Y-80196571D01*
X126988000Y-80268000D01*
X127630857Y-81196571D02*
X127630857Y-79696571D01*
X128273714Y-81196571D02*
X128273714Y-80410857D01*
X128202285Y-80268000D01*
X128059428Y-80196571D01*
X127845143Y-80196571D01*
X127702285Y-80268000D01*
X127630857Y-80339429D01*
X128988000Y-81053714D02*
X129059428Y-81125143D01*
X128988000Y-81196571D01*
X128916571Y-81125143D01*
X128988000Y-81053714D01*
X128988000Y-81196571D01*
X130345143Y-81125143D02*
X130202286Y-81196571D01*
X129916572Y-81196571D01*
X129773714Y-81125143D01*
X129702286Y-81053714D01*
X129630857Y-80910857D01*
X129630857Y-80482286D01*
X129702286Y-80339429D01*
X129773714Y-80268000D01*
X129916572Y-80196571D01*
X130202286Y-80196571D01*
X130345143Y-80268000D01*
X131202286Y-81196571D02*
X131059428Y-81125143D01*
X130988000Y-81053714D01*
X130916571Y-80910857D01*
X130916571Y-80482286D01*
X130988000Y-80339429D01*
X131059428Y-80268000D01*
X131202286Y-80196571D01*
X131416571Y-80196571D01*
X131559428Y-80268000D01*
X131630857Y-80339429D01*
X131702286Y-80482286D01*
X131702286Y-80910857D01*
X131630857Y-81053714D01*
X131559428Y-81125143D01*
X131416571Y-81196571D01*
X131202286Y-81196571D01*
X132345143Y-81196571D02*
X132345143Y-80196571D01*
X132345143Y-80339429D02*
X132416571Y-80268000D01*
X132559429Y-80196571D01*
X132773714Y-80196571D01*
X132916571Y-80268000D01*
X132988000Y-80410857D01*
X132988000Y-81196571D01*
X132988000Y-80410857D02*
X133059429Y-80268000D01*
X133202286Y-80196571D01*
X133416571Y-80196571D01*
X133559429Y-80268000D01*
X133630857Y-80410857D01*
X133630857Y-81196571D01*
D12*
X163569809Y-120338857D02*
X163684095Y-120376952D01*
X163722190Y-120415048D01*
X163760285Y-120491238D01*
X163760285Y-120605524D01*
X163722190Y-120681714D01*
X163684095Y-120719810D01*
X163607904Y-120757905D01*
X163303142Y-120757905D01*
X163303142Y-119957905D01*
X163569809Y-119957905D01*
X163645999Y-119996000D01*
X163684095Y-120034095D01*
X163722190Y-120110286D01*
X163722190Y-120186476D01*
X163684095Y-120262667D01*
X163645999Y-120300762D01*
X163569809Y-120338857D01*
X163303142Y-120338857D01*
X164217428Y-120757905D02*
X164141237Y-120719810D01*
X164103142Y-120681714D01*
X164065047Y-120605524D01*
X164065047Y-120376952D01*
X164103142Y-120300762D01*
X164141237Y-120262667D01*
X164217428Y-120224571D01*
X164331714Y-120224571D01*
X164407904Y-120262667D01*
X164445999Y-120300762D01*
X164484095Y-120376952D01*
X164484095Y-120605524D01*
X164445999Y-120681714D01*
X164407904Y-120719810D01*
X164331714Y-120757905D01*
X164217428Y-120757905D01*
X164941238Y-120757905D02*
X164865047Y-120719810D01*
X164826952Y-120681714D01*
X164788857Y-120605524D01*
X164788857Y-120376952D01*
X164826952Y-120300762D01*
X164865047Y-120262667D01*
X164941238Y-120224571D01*
X165055524Y-120224571D01*
X165131714Y-120262667D01*
X165169809Y-120300762D01*
X165207905Y-120376952D01*
X165207905Y-120605524D01*
X165169809Y-120681714D01*
X165131714Y-120719810D01*
X165055524Y-120757905D01*
X164941238Y-120757905D01*
X165436476Y-120224571D02*
X165741238Y-120224571D01*
X165550762Y-119957905D02*
X165550762Y-120643619D01*
X165588857Y-120719810D01*
X165665048Y-120757905D01*
X165741238Y-120757905D01*
X166160286Y-119957905D02*
X166236477Y-119957905D01*
X166312667Y-119996000D01*
X166350762Y-120034095D01*
X166388858Y-120110286D01*
X166426953Y-120262667D01*
X166426953Y-120453143D01*
X166388858Y-120605524D01*
X166350762Y-120681714D01*
X166312667Y-120719810D01*
X166236477Y-120757905D01*
X166160286Y-120757905D01*
X166084096Y-120719810D01*
X166046000Y-120681714D01*
X166007905Y-120605524D01*
X165969810Y-120453143D01*
X165969810Y-120262667D01*
X166007905Y-120110286D01*
X166046000Y-120034095D01*
X166084096Y-119996000D01*
X166160286Y-119957905D01*
X154965524Y-120757905D02*
X154698857Y-120376952D01*
X154508381Y-120757905D02*
X154508381Y-119957905D01*
X154813143Y-119957905D01*
X154889334Y-119996000D01*
X154927429Y-120034095D01*
X154965524Y-120110286D01*
X154965524Y-120224571D01*
X154927429Y-120300762D01*
X154889334Y-120338857D01*
X154813143Y-120376952D01*
X154508381Y-120376952D01*
X155613143Y-120719810D02*
X155536953Y-120757905D01*
X155384572Y-120757905D01*
X155308381Y-120719810D01*
X155270286Y-120643619D01*
X155270286Y-120338857D01*
X155308381Y-120262667D01*
X155384572Y-120224571D01*
X155536953Y-120224571D01*
X155613143Y-120262667D01*
X155651238Y-120338857D01*
X155651238Y-120415048D01*
X155270286Y-120491238D01*
X155956000Y-120719810D02*
X156032190Y-120757905D01*
X156184571Y-120757905D01*
X156260762Y-120719810D01*
X156298857Y-120643619D01*
X156298857Y-120605524D01*
X156260762Y-120529333D01*
X156184571Y-120491238D01*
X156070286Y-120491238D01*
X155994095Y-120453143D01*
X155956000Y-120376952D01*
X155956000Y-120338857D01*
X155994095Y-120262667D01*
X156070286Y-120224571D01*
X156184571Y-120224571D01*
X156260762Y-120262667D01*
X156946476Y-120719810D02*
X156870286Y-120757905D01*
X156717905Y-120757905D01*
X156641714Y-120719810D01*
X156603619Y-120643619D01*
X156603619Y-120338857D01*
X156641714Y-120262667D01*
X156717905Y-120224571D01*
X156870286Y-120224571D01*
X156946476Y-120262667D01*
X156984571Y-120338857D01*
X156984571Y-120415048D01*
X156603619Y-120491238D01*
X157213142Y-120224571D02*
X157517904Y-120224571D01*
X157327428Y-119957905D02*
X157327428Y-120643619D01*
X157365523Y-120719810D01*
X157441714Y-120757905D01*
X157517904Y-120757905D01*
X131248286Y-120719810D02*
X131362572Y-120757905D01*
X131553048Y-120757905D01*
X131629238Y-120719810D01*
X131667334Y-120681714D01*
X131705429Y-120605524D01*
X131705429Y-120529333D01*
X131667334Y-120453143D01*
X131629238Y-120415048D01*
X131553048Y-120376952D01*
X131400667Y-120338857D01*
X131324476Y-120300762D01*
X131286381Y-120262667D01*
X131248286Y-120186476D01*
X131248286Y-120110286D01*
X131286381Y-120034095D01*
X131324476Y-119996000D01*
X131400667Y-119957905D01*
X131591143Y-119957905D01*
X131705429Y-119996000D01*
X131972096Y-119957905D02*
X132162572Y-120757905D01*
X132314953Y-120186476D01*
X132467334Y-120757905D01*
X132657810Y-119957905D01*
X132962572Y-120757905D02*
X132962572Y-119957905D01*
X133153048Y-119957905D01*
X133267334Y-119996000D01*
X133343525Y-120072190D01*
X133381620Y-120148381D01*
X133419715Y-120300762D01*
X133419715Y-120415048D01*
X133381620Y-120567429D01*
X133343525Y-120643619D01*
X133267334Y-120719810D01*
X133153048Y-120757905D01*
X132962572Y-120757905D01*
X142062381Y-119957905D02*
X142062381Y-120605524D01*
X142100476Y-120681714D01*
X142138572Y-120719810D01*
X142214762Y-120757905D01*
X142367143Y-120757905D01*
X142443334Y-120719810D01*
X142481429Y-120681714D01*
X142519524Y-120605524D01*
X142519524Y-119957905D01*
X143243333Y-120757905D02*
X143243333Y-120338857D01*
X143205238Y-120262667D01*
X143129048Y-120224571D01*
X142976667Y-120224571D01*
X142900476Y-120262667D01*
X143243333Y-120719810D02*
X143167143Y-120757905D01*
X142976667Y-120757905D01*
X142900476Y-120719810D01*
X142862381Y-120643619D01*
X142862381Y-120567429D01*
X142900476Y-120491238D01*
X142976667Y-120453143D01*
X143167143Y-120453143D01*
X143243333Y-120415048D01*
X143624286Y-120757905D02*
X143624286Y-120224571D01*
X143624286Y-120376952D02*
X143662381Y-120300762D01*
X143700477Y-120262667D01*
X143776667Y-120224571D01*
X143852858Y-120224571D01*
X144005238Y-120224571D02*
X144310000Y-120224571D01*
X144119524Y-119957905D02*
X144119524Y-120643619D01*
X144157619Y-120719810D01*
X144233810Y-120757905D01*
X144310000Y-120757905D01*
X144538572Y-120034095D02*
X144576667Y-119996000D01*
X144652858Y-119957905D01*
X144843334Y-119957905D01*
X144919524Y-119996000D01*
X144957620Y-120034095D01*
X144995715Y-120110286D01*
X144995715Y-120186476D01*
X144957620Y-120300762D01*
X144500477Y-120757905D01*
X144995715Y-120757905D01*
X119964381Y-119957905D02*
X119964381Y-120605524D01*
X120002476Y-120681714D01*
X120040572Y-120719810D01*
X120116762Y-120757905D01*
X120269143Y-120757905D01*
X120345334Y-120719810D01*
X120383429Y-120681714D01*
X120421524Y-120605524D01*
X120421524Y-119957905D01*
X121145333Y-120757905D02*
X121145333Y-120338857D01*
X121107238Y-120262667D01*
X121031048Y-120224571D01*
X120878667Y-120224571D01*
X120802476Y-120262667D01*
X121145333Y-120719810D02*
X121069143Y-120757905D01*
X120878667Y-120757905D01*
X120802476Y-120719810D01*
X120764381Y-120643619D01*
X120764381Y-120567429D01*
X120802476Y-120491238D01*
X120878667Y-120453143D01*
X121069143Y-120453143D01*
X121145333Y-120415048D01*
X121526286Y-120757905D02*
X121526286Y-120224571D01*
X121526286Y-120376952D02*
X121564381Y-120300762D01*
X121602477Y-120262667D01*
X121678667Y-120224571D01*
X121754858Y-120224571D01*
X121907238Y-120224571D02*
X122212000Y-120224571D01*
X122021524Y-119957905D02*
X122021524Y-120643619D01*
X122059619Y-120719810D01*
X122135810Y-120757905D01*
X122212000Y-120757905D01*
X122897715Y-120757905D02*
X122440572Y-120757905D01*
X122669143Y-120757905D02*
X122669143Y-119957905D01*
X122592953Y-120072190D01*
X122516762Y-120148381D01*
X122440572Y-120186476D01*
D13*
X185967619Y-110665048D02*
X184967619Y-110998381D01*
X185967619Y-111331715D01*
X185062857Y-112236477D02*
X185015238Y-112188858D01*
X184967619Y-112046001D01*
X184967619Y-111950763D01*
X185015238Y-111807905D01*
X185110476Y-111712667D01*
X185205714Y-111665048D01*
X185396190Y-111617429D01*
X185539048Y-111617429D01*
X185729524Y-111665048D01*
X185824762Y-111712667D01*
X185920000Y-111807905D01*
X185967619Y-111950763D01*
X185967619Y-112046001D01*
X185920000Y-112188858D01*
X185872381Y-112236477D01*
X185062857Y-113236477D02*
X185015238Y-113188858D01*
X184967619Y-113046001D01*
X184967619Y-112950763D01*
X185015238Y-112807905D01*
X185110476Y-112712667D01*
X185205714Y-112665048D01*
X185396190Y-112617429D01*
X185539048Y-112617429D01*
X185729524Y-112665048D01*
X185824762Y-112712667D01*
X185920000Y-112807905D01*
X185967619Y-112950763D01*
X185967619Y-113046001D01*
X185920000Y-113188858D01*
X185872381Y-113236477D01*
X186015238Y-114379334D02*
X184729524Y-113522191D01*
X185920000Y-115236477D02*
X185967619Y-115141239D01*
X185967619Y-114998382D01*
X185920000Y-114855524D01*
X185824762Y-114760286D01*
X185729524Y-114712667D01*
X185539048Y-114665048D01*
X185396190Y-114665048D01*
X185205714Y-114712667D01*
X185110476Y-114760286D01*
X185015238Y-114855524D01*
X184967619Y-114998382D01*
X184967619Y-115093620D01*
X185015238Y-115236477D01*
X185062857Y-115284096D01*
X185396190Y-115284096D01*
X185396190Y-115093620D01*
X184967619Y-115712667D02*
X185967619Y-115712667D01*
X184967619Y-116284096D01*
X185967619Y-116284096D01*
X184967619Y-116760286D02*
X185967619Y-116760286D01*
X185967619Y-116998381D01*
X185920000Y-117141239D01*
X185824762Y-117236477D01*
X185729524Y-117284096D01*
X185539048Y-117331715D01*
X185396190Y-117331715D01*
X185205714Y-117284096D01*
X185110476Y-117236477D01*
X185015238Y-117141239D01*
X184967619Y-116998381D01*
X184967619Y-116760286D01*
D12*
X139808381Y-113353905D02*
X140265524Y-113353905D01*
X140036953Y-114153905D02*
X140036953Y-113353905D01*
X140456001Y-113353905D02*
X140989334Y-114153905D01*
X140989334Y-113353905D02*
X140456001Y-114153905D01*
X141865525Y-113315810D02*
X141179810Y-114344381D01*
X142589334Y-114153905D02*
X142322667Y-113772952D01*
X142132191Y-114153905D02*
X142132191Y-113353905D01*
X142436953Y-113353905D01*
X142513144Y-113392000D01*
X142551239Y-113430095D01*
X142589334Y-113506286D01*
X142589334Y-113620571D01*
X142551239Y-113696762D01*
X142513144Y-113734857D01*
X142436953Y-113772952D01*
X142132191Y-113772952D01*
X142856001Y-113353905D02*
X143389334Y-114153905D01*
X143389334Y-113353905D02*
X142856001Y-114153905D01*
X144265525Y-113315810D02*
X143579810Y-114344381D01*
X144951239Y-113392000D02*
X144875048Y-113353905D01*
X144760763Y-113353905D01*
X144646477Y-113392000D01*
X144570286Y-113468190D01*
X144532191Y-113544381D01*
X144494096Y-113696762D01*
X144494096Y-113811048D01*
X144532191Y-113963429D01*
X144570286Y-114039619D01*
X144646477Y-114115810D01*
X144760763Y-114153905D01*
X144836953Y-114153905D01*
X144951239Y-114115810D01*
X144989334Y-114077714D01*
X144989334Y-113811048D01*
X144836953Y-113811048D01*
X145332191Y-114153905D02*
X145332191Y-113353905D01*
X145789334Y-114153905D01*
X145789334Y-113353905D01*
X146170286Y-114153905D02*
X146170286Y-113353905D01*
X146360762Y-113353905D01*
X146475048Y-113392000D01*
X146551239Y-113468190D01*
X146589334Y-113544381D01*
X146627429Y-113696762D01*
X146627429Y-113811048D01*
X146589334Y-113963429D01*
X146551239Y-114039619D01*
X146475048Y-114115810D01*
X146360762Y-114153905D01*
X146170286Y-114153905D01*
X118243715Y-113392000D02*
X118167524Y-113353905D01*
X118053239Y-113353905D01*
X117938953Y-113392000D01*
X117862762Y-113468190D01*
X117824667Y-113544381D01*
X117786572Y-113696762D01*
X117786572Y-113811048D01*
X117824667Y-113963429D01*
X117862762Y-114039619D01*
X117938953Y-114115810D01*
X118053239Y-114153905D01*
X118129429Y-114153905D01*
X118243715Y-114115810D01*
X118281810Y-114077714D01*
X118281810Y-113811048D01*
X118129429Y-113811048D01*
X118624667Y-114153905D02*
X118624667Y-113353905D01*
X119081810Y-114153905D01*
X119081810Y-113353905D01*
X119462762Y-114153905D02*
X119462762Y-113353905D01*
X119653238Y-113353905D01*
X119767524Y-113392000D01*
X119843715Y-113468190D01*
X119881810Y-113544381D01*
X119919905Y-113696762D01*
X119919905Y-113811048D01*
X119881810Y-113963429D01*
X119843715Y-114039619D01*
X119767524Y-114115810D01*
X119653238Y-114153905D01*
X119462762Y-114153905D01*
X120834191Y-113315810D02*
X120148476Y-114344381D01*
X120986571Y-113353905D02*
X121443714Y-113353905D01*
X121215143Y-114153905D02*
X121215143Y-113353905D01*
X121634191Y-113353905D02*
X122167524Y-114153905D01*
X122167524Y-113353905D02*
X121634191Y-114153905D01*
X123043715Y-113315810D02*
X122358000Y-114344381D01*
X123767524Y-114153905D02*
X123500857Y-113772952D01*
X123310381Y-114153905D02*
X123310381Y-113353905D01*
X123615143Y-113353905D01*
X123691334Y-113392000D01*
X123729429Y-113430095D01*
X123767524Y-113506286D01*
X123767524Y-113620571D01*
X123729429Y-113696762D01*
X123691334Y-113734857D01*
X123615143Y-113772952D01*
X123310381Y-113772952D01*
X124034191Y-113353905D02*
X124567524Y-114153905D01*
X124567524Y-113353905D02*
X124034191Y-114153905D01*
X126835620Y-113353905D02*
X127330858Y-113353905D01*
X127064191Y-113658667D01*
X127178477Y-113658667D01*
X127254667Y-113696762D01*
X127292763Y-113734857D01*
X127330858Y-113811048D01*
X127330858Y-114001524D01*
X127292763Y-114077714D01*
X127254667Y-114115810D01*
X127178477Y-114153905D01*
X126949905Y-114153905D01*
X126873715Y-114115810D01*
X126835620Y-114077714D01*
X127673715Y-114077714D02*
X127711810Y-114115810D01*
X127673715Y-114153905D01*
X127635620Y-114115810D01*
X127673715Y-114077714D01*
X127673715Y-114153905D01*
X127978477Y-113353905D02*
X128473715Y-113353905D01*
X128207048Y-113658667D01*
X128321334Y-113658667D01*
X128397524Y-113696762D01*
X128435620Y-113734857D01*
X128473715Y-113811048D01*
X128473715Y-114001524D01*
X128435620Y-114077714D01*
X128397524Y-114115810D01*
X128321334Y-114153905D01*
X128092762Y-114153905D01*
X128016572Y-114115810D01*
X127978477Y-114077714D01*
X128740382Y-113620571D02*
X128930858Y-114153905D01*
X129121334Y-113620571D01*
X129997525Y-113315810D02*
X129311810Y-114344381D01*
X130264191Y-114153905D02*
X130264191Y-113353905D01*
X130454667Y-113353905D01*
X130568953Y-113392000D01*
X130645144Y-113468190D01*
X130683239Y-113544381D01*
X130721334Y-113696762D01*
X130721334Y-113811048D01*
X130683239Y-113963429D01*
X130645144Y-114039619D01*
X130568953Y-114115810D01*
X130454667Y-114153905D01*
X130264191Y-114153905D01*
X131064191Y-114153905D02*
X131064191Y-113353905D01*
X131597524Y-113353905D02*
X131749905Y-113353905D01*
X131826096Y-113392000D01*
X131902286Y-113468190D01*
X131940381Y-113620571D01*
X131940381Y-113887238D01*
X131902286Y-114039619D01*
X131826096Y-114115810D01*
X131749905Y-114153905D01*
X131597524Y-114153905D01*
X131521334Y-114115810D01*
X131445143Y-114039619D01*
X131407048Y-113887238D01*
X131407048Y-113620571D01*
X131445143Y-113468190D01*
X131521334Y-113392000D01*
X131597524Y-113353905D01*
X132854667Y-113315810D02*
X132168952Y-114344381D01*
X133578476Y-114077714D02*
X133540381Y-114115810D01*
X133426095Y-114153905D01*
X133349905Y-114153905D01*
X133235619Y-114115810D01*
X133159428Y-114039619D01*
X133121333Y-113963429D01*
X133083238Y-113811048D01*
X133083238Y-113696762D01*
X133121333Y-113544381D01*
X133159428Y-113468190D01*
X133235619Y-113392000D01*
X133349905Y-113353905D01*
X133426095Y-113353905D01*
X133540381Y-113392000D01*
X133578476Y-113430095D01*
X134302286Y-114153905D02*
X133921333Y-114153905D01*
X133921333Y-113353905D01*
X134568952Y-114153905D02*
X134568952Y-113353905D01*
X135026095Y-114153905D02*
X134683238Y-113696762D01*
X135026095Y-113353905D02*
X134568952Y-113811048D01*
X135940381Y-113315810D02*
X135254666Y-114344381D01*
X136626095Y-113392000D02*
X136549904Y-113353905D01*
X136435619Y-113353905D01*
X136321333Y-113392000D01*
X136245142Y-113468190D01*
X136207047Y-113544381D01*
X136168952Y-113696762D01*
X136168952Y-113811048D01*
X136207047Y-113963429D01*
X136245142Y-114039619D01*
X136321333Y-114115810D01*
X136435619Y-114153905D01*
X136511809Y-114153905D01*
X136626095Y-114115810D01*
X136664190Y-114077714D01*
X136664190Y-113811048D01*
X136511809Y-113811048D01*
X137007047Y-114153905D02*
X137007047Y-113353905D01*
X137464190Y-114153905D01*
X137464190Y-113353905D01*
X137845142Y-114153905D02*
X137845142Y-113353905D01*
X138035618Y-113353905D01*
X138149904Y-113392000D01*
X138226095Y-113468190D01*
X138264190Y-113544381D01*
X138302285Y-113696762D01*
X138302285Y-113811048D01*
X138264190Y-113963429D01*
X138226095Y-114039619D01*
X138149904Y-114115810D01*
X138035618Y-114153905D01*
X137845142Y-114153905D01*
D11*
X198191815Y-104555061D02*
X199191815Y-104555061D01*
X197620387Y-104912204D02*
X198691815Y-105269347D01*
X198691815Y-104340775D01*
X197691815Y-103055061D02*
X197691815Y-103769347D01*
X198406101Y-103840776D01*
X198334673Y-103769347D01*
X198263244Y-103626490D01*
X198263244Y-103269347D01*
X198334673Y-103126490D01*
X198406101Y-103055061D01*
X198548958Y-102983633D01*
X198906101Y-102983633D01*
X199048958Y-103055061D01*
X199120387Y-103126490D01*
X199191815Y-103269347D01*
X199191815Y-103626490D01*
X199120387Y-103769347D01*
X199048958Y-103840776D01*
X199048958Y-102340776D02*
X199120387Y-102269348D01*
X199191815Y-102340776D01*
X199120387Y-102412205D01*
X199048958Y-102340776D01*
X199191815Y-102340776D01*
X197691815Y-101769347D02*
X197691815Y-100769347D01*
X199191815Y-101412204D01*
X197691815Y-100340776D02*
X197691815Y-99412205D01*
X198263244Y-99912205D01*
X198263244Y-99697919D01*
X198334673Y-99555062D01*
X198406101Y-99483633D01*
X198548958Y-99412205D01*
X198906101Y-99412205D01*
X199048958Y-99483633D01*
X199120387Y-99555062D01*
X199191815Y-99697919D01*
X199191815Y-100126491D01*
X199120387Y-100269348D01*
X199048958Y-100340776D01*
X197691815Y-98483634D02*
X197691815Y-98340777D01*
X197763244Y-98197920D01*
X197834673Y-98126491D01*
X197977530Y-98055062D01*
X198263244Y-97983634D01*
X198620387Y-97983634D01*
X198906101Y-98055062D01*
X199048958Y-98126491D01*
X199120387Y-98197920D01*
X199191815Y-98340777D01*
X199191815Y-98483634D01*
X199120387Y-98626491D01*
X199048958Y-98697920D01*
X198906101Y-98769348D01*
X198620387Y-98840777D01*
X198263244Y-98840777D01*
X197977530Y-98769348D01*
X197834673Y-98697920D01*
X197763244Y-98626491D01*
X197691815Y-98483634D01*
X199191815Y-96197920D02*
X198191815Y-96197920D01*
X198334673Y-96197920D02*
X198263244Y-96126492D01*
X198191815Y-95983634D01*
X198191815Y-95769349D01*
X198263244Y-95626492D01*
X198406101Y-95555063D01*
X199191815Y-95555063D01*
X198406101Y-95555063D02*
X198263244Y-95483634D01*
X198191815Y-95340777D01*
X198191815Y-95126492D01*
X198263244Y-94983634D01*
X198406101Y-94912206D01*
X199191815Y-94912206D01*
X199191815Y-94197920D02*
X198191815Y-94197920D01*
X198334673Y-94197920D02*
X198263244Y-94126492D01*
X198191815Y-93983634D01*
X198191815Y-93769349D01*
X198263244Y-93626492D01*
X198406101Y-93555063D01*
X199191815Y-93555063D01*
X198406101Y-93555063D02*
X198263244Y-93483634D01*
X198191815Y-93340777D01*
X198191815Y-93126492D01*
X198263244Y-92983634D01*
X198406101Y-92912206D01*
X199191815Y-92912206D01*
X197163244Y-121920226D02*
X197163244Y-76189898D01*
X188324109Y-121920226D02*
X199863244Y-121920226D01*
X188324109Y-76189898D02*
X199863244Y-76189898D01*
X197163244Y-76189898D02*
X197749665Y-77316402D01*
X197163244Y-76189898D02*
X196576823Y-77316402D01*
X197163244Y-121920226D02*
X197749665Y-120793722D01*
X197163244Y-121920226D02*
X196576823Y-120793722D01*
X140639182Y-130354662D02*
X140496271Y-130283339D01*
X140424790Y-130211964D01*
X140353254Y-130069160D01*
X140353201Y-129997732D01*
X140424523Y-129854822D01*
X140495898Y-129783339D01*
X140638703Y-129711804D01*
X140924417Y-129711591D01*
X141067327Y-129782913D01*
X141138809Y-129854289D01*
X141210344Y-129997092D01*
X141210397Y-130068520D01*
X141139076Y-130211431D01*
X141067700Y-130282913D01*
X140924896Y-130354448D01*
X140639182Y-130354662D01*
X140496378Y-130426196D01*
X140425003Y-130497679D01*
X140353681Y-130640589D01*
X140353894Y-130926303D01*
X140425430Y-131069106D01*
X140496911Y-131140482D01*
X140639822Y-131211803D01*
X140925536Y-131211590D01*
X141068340Y-131140056D01*
X141139715Y-131068573D01*
X141211037Y-130925663D01*
X141210823Y-130639949D01*
X141139289Y-130497145D01*
X141067807Y-130425770D01*
X140924896Y-130354448D01*
X141710130Y-129711004D02*
X142638701Y-129710311D01*
X142139128Y-130282113D01*
X142353414Y-130281953D01*
X142496324Y-130353276D01*
X142567806Y-130424650D01*
X142639341Y-130567454D01*
X142639607Y-130924597D01*
X142568286Y-131067507D01*
X142496910Y-131138989D01*
X142354107Y-131210524D01*
X141925535Y-131210844D01*
X141782624Y-131139522D01*
X141711143Y-131068147D01*
X143282571Y-131066974D02*
X143354052Y-131138350D01*
X143282677Y-131209831D01*
X143211195Y-131138456D01*
X143282571Y-131066974D01*
X143282677Y-131209831D01*
X143852987Y-129709405D02*
X144781557Y-129708712D01*
X144281984Y-130280514D01*
X144496270Y-130280354D01*
X144639180Y-130351676D01*
X144710663Y-130423051D01*
X144782197Y-130565855D01*
X144782464Y-130922998D01*
X144711142Y-131065908D01*
X144639767Y-131137390D01*
X144496963Y-131208925D01*
X144068391Y-131209245D01*
X143925481Y-131137923D01*
X143854000Y-131066548D01*
X145710128Y-129708019D02*
X145852985Y-129707912D01*
X145995895Y-129779235D01*
X146067378Y-129850610D01*
X146138913Y-129993414D01*
X146210555Y-130279075D01*
X146210821Y-130636218D01*
X146139606Y-130921985D01*
X146068284Y-131064895D01*
X145996908Y-131136377D01*
X145854105Y-131207912D01*
X145711248Y-131208019D01*
X145568337Y-131136697D01*
X145496855Y-131065321D01*
X145425321Y-130922518D01*
X145353678Y-130636857D01*
X145353412Y-130279714D01*
X145424628Y-129993947D01*
X145495949Y-129851037D01*
X145567325Y-129779555D01*
X145710128Y-129708019D01*
X147567271Y-129706633D02*
X146852985Y-129707166D01*
X146782089Y-130421505D01*
X146853465Y-130350024D01*
X146996268Y-130278488D01*
X147353411Y-130278222D01*
X147496321Y-130349544D01*
X147567804Y-130420919D01*
X147639338Y-130563722D01*
X147639605Y-130920865D01*
X147568284Y-131063776D01*
X147496908Y-131135258D01*
X147354104Y-131206792D01*
X146996961Y-131207059D01*
X146854051Y-131135738D01*
X146782569Y-131064362D01*
X149425532Y-131205246D02*
X149424785Y-130205247D01*
X149424892Y-130348105D02*
X149496267Y-130276622D01*
X149639071Y-130205087D01*
X149853356Y-130204927D01*
X149996266Y-130276249D01*
X150067802Y-130419053D01*
X150068388Y-131204767D01*
X150067802Y-130419053D02*
X150139124Y-130276143D01*
X150281928Y-130204607D01*
X150496213Y-130204447D01*
X150639124Y-130275769D01*
X150710659Y-130418573D01*
X150711245Y-131204287D01*
X151425531Y-131203754D02*
X151424785Y-130203754D01*
X151424891Y-130346612D02*
X151496266Y-130275130D01*
X151639071Y-130203594D01*
X151853356Y-130203434D01*
X151996266Y-130274757D01*
X152067802Y-130417560D01*
X152068388Y-131203274D01*
X152067802Y-130417560D02*
X152139124Y-130274650D01*
X152281928Y-130203114D01*
X152496212Y-130202954D01*
X152639124Y-130274277D01*
X152710658Y-130417081D01*
X152711245Y-131202794D01*
X104914359Y-129209895D02*
X188219394Y-129147723D01*
X104908965Y-121982172D02*
X104916374Y-131909894D01*
X188214000Y-121920000D02*
X188221409Y-131847722D01*
X188219394Y-129147723D02*
X187093328Y-129734984D01*
X188219394Y-129147723D02*
X187092453Y-128562143D01*
X104914359Y-129209895D02*
X106041300Y-129795475D01*
X104914359Y-129209895D02*
X106040425Y-128622634D01*
D10*
X123098000Y-98582000D02*
X123098000Y-97882000D01*
X124298000Y-97882000D02*
X124298000Y-98582000D01*
D14*
G36*
X118456337Y-84329046D02*
X118703665Y-84687436D01*
X118643357Y-85056322D01*
X118659646Y-85507207D01*
X118785188Y-85649345D01*
X118957093Y-86012247D01*
X118954219Y-86621410D01*
X118815129Y-87262112D01*
X118578387Y-87719629D01*
X118395859Y-87817158D01*
X118062847Y-87954230D01*
X118029789Y-88051106D01*
X117829004Y-88276255D01*
X117356670Y-88278720D01*
X116807816Y-88097056D01*
X116377470Y-87769822D01*
X116339283Y-87716895D01*
X115853020Y-86733577D01*
X116710218Y-86733577D01*
X117054348Y-86961214D01*
X117407591Y-86965970D01*
X117975835Y-86791567D01*
X118231977Y-86547158D01*
X118117185Y-86263326D01*
X117902606Y-86212948D01*
X117612896Y-86080583D01*
X117645222Y-85918904D01*
X117649128Y-85766154D01*
X117259949Y-85928311D01*
X116772082Y-86342399D01*
X116710218Y-86733577D01*
X115853020Y-86733577D01*
X115809172Y-86644908D01*
X115769670Y-85767354D01*
X115911866Y-85544527D01*
X118029789Y-85544527D01*
X118163473Y-85678211D01*
X118297158Y-85544527D01*
X118163473Y-85410842D01*
X118029789Y-85544527D01*
X115911866Y-85544527D01*
X116229672Y-85046515D01*
X117100235Y-84490014D01*
X117888211Y-84250889D01*
X118456337Y-84329046D01*
X118456337Y-84329046D01*
G37*
X118456337Y-84329046D02*
X118703665Y-84687436D01*
X118643357Y-85056322D01*
X118659646Y-85507207D01*
X118785188Y-85649345D01*
X118957093Y-86012247D01*
X118954219Y-86621410D01*
X118815129Y-87262112D01*
X118578387Y-87719629D01*
X118395859Y-87817158D01*
X118062847Y-87954230D01*
X118029789Y-88051106D01*
X117829004Y-88276255D01*
X117356670Y-88278720D01*
X116807816Y-88097056D01*
X116377470Y-87769822D01*
X116339283Y-87716895D01*
X115853020Y-86733577D01*
X116710218Y-86733577D01*
X117054348Y-86961214D01*
X117407591Y-86965970D01*
X117975835Y-86791567D01*
X118231977Y-86547158D01*
X118117185Y-86263326D01*
X117902606Y-86212948D01*
X117612896Y-86080583D01*
X117645222Y-85918904D01*
X117649128Y-85766154D01*
X117259949Y-85928311D01*
X116772082Y-86342399D01*
X116710218Y-86733577D01*
X115853020Y-86733577D01*
X115809172Y-86644908D01*
X115769670Y-85767354D01*
X115911866Y-85544527D01*
X118029789Y-85544527D01*
X118163473Y-85678211D01*
X118297158Y-85544527D01*
X118163473Y-85410842D01*
X118029789Y-85544527D01*
X115911866Y-85544527D01*
X116229672Y-85046515D01*
X117100235Y-84490014D01*
X117888211Y-84250889D01*
X118456337Y-84329046D01*
G36*
X114555879Y-80150425D02*
X114781829Y-80605708D01*
X115012623Y-81468606D01*
X114792717Y-82087577D01*
X114183111Y-82504695D01*
X113762652Y-82816972D01*
X113434915Y-83247396D01*
X113293147Y-83631959D01*
X113430593Y-83806656D01*
X113442715Y-83806958D01*
X113740501Y-83965880D01*
X114257183Y-84359104D01*
X114395060Y-84475379D01*
X114952066Y-84907922D01*
X115348644Y-85133954D01*
X115397691Y-85143474D01*
X115617159Y-85348125D01*
X115623473Y-85410842D01*
X115419139Y-85650386D01*
X114886879Y-85617520D01*
X114147806Y-85330188D01*
X113812274Y-85142474D01*
X113148906Y-84792607D01*
X112636024Y-84614474D01*
X112573458Y-84608737D01*
X112226156Y-84852768D01*
X111978998Y-85495877D01*
X111883966Y-86382290D01*
X111640344Y-86892037D01*
X111008306Y-87213717D01*
X110515025Y-87278770D01*
X110413587Y-87036761D01*
X110302139Y-86398077D01*
X110204446Y-85499713D01*
X110202599Y-85477684D01*
X110155322Y-84306022D01*
X110188958Y-83098001D01*
X110290366Y-81995651D01*
X110446399Y-81141003D01*
X110643914Y-80676085D01*
X110647285Y-80672644D01*
X110980776Y-80667856D01*
X111587921Y-80889875D01*
X111888819Y-81042108D01*
X112929680Y-81612244D01*
X113465455Y-80704175D01*
X113917490Y-80034569D01*
X114251779Y-79852169D01*
X114555879Y-80150425D01*
X114555879Y-80150425D01*
G37*
X114555879Y-80150425D02*
X114781829Y-80605708D01*
X115012623Y-81468606D01*
X114792717Y-82087577D01*
X114183111Y-82504695D01*
X113762652Y-82816972D01*
X113434915Y-83247396D01*
X113293147Y-83631959D01*
X113430593Y-83806656D01*
X113442715Y-83806958D01*
X113740501Y-83965880D01*
X114257183Y-84359104D01*
X114395060Y-84475379D01*
X114952066Y-84907922D01*
X115348644Y-85133954D01*
X115397691Y-85143474D01*
X115617159Y-85348125D01*
X115623473Y-85410842D01*
X115419139Y-85650386D01*
X114886879Y-85617520D01*
X114147806Y-85330188D01*
X113812274Y-85142474D01*
X113148906Y-84792607D01*
X112636024Y-84614474D01*
X112573458Y-84608737D01*
X112226156Y-84852768D01*
X111978998Y-85495877D01*
X111883966Y-86382290D01*
X111640344Y-86892037D01*
X111008306Y-87213717D01*
X110515025Y-87278770D01*
X110413587Y-87036761D01*
X110302139Y-86398077D01*
X110204446Y-85499713D01*
X110202599Y-85477684D01*
X110155322Y-84306022D01*
X110188958Y-83098001D01*
X110290366Y-81995651D01*
X110446399Y-81141003D01*
X110643914Y-80676085D01*
X110647285Y-80672644D01*
X110980776Y-80667856D01*
X111587921Y-80889875D01*
X111888819Y-81042108D01*
X112929680Y-81612244D01*
X113465455Y-80704175D01*
X113917490Y-80034569D01*
X114251779Y-79852169D01*
X114555879Y-80150425D01*
D10*
X163163000Y-90583000D02*
X162088000Y-90583000D01*
X163163000Y-100933000D02*
X162088000Y-100933000D01*
X152813000Y-100933000D02*
X153888000Y-100933000D01*
X152813000Y-90583000D02*
X153888000Y-90583000D01*
X163163000Y-90583000D02*
X163163000Y-91658000D01*
X152813000Y-90583000D02*
X152813000Y-91658000D01*
X152813000Y-100933000D02*
X152813000Y-99858000D01*
X163163000Y-100933000D02*
X163163000Y-99858000D01*
X162088000Y-90583000D02*
X162088000Y-89558000D01*
X168402000Y-114300000D02*
X171450000Y-114300000D01*
X171450000Y-114300000D02*
X171450000Y-107188000D01*
X171450000Y-107188000D02*
X168402000Y-107188000D01*
X165354000Y-114300000D02*
X164592000Y-114300000D01*
X164592000Y-114300000D02*
X162306000Y-112776000D01*
X162306000Y-112776000D02*
X162306000Y-108712000D01*
X162306000Y-108712000D02*
X164592000Y-107188000D01*
X164592000Y-107188000D02*
X165354000Y-107188000D01*
X169580000Y-91024000D02*
X168880000Y-91024000D01*
X168880000Y-89824000D02*
X169580000Y-89824000D01*
X187076080Y-107650280D02*
X187076080Y-99949000D01*
X188076840Y-107650280D02*
X188076840Y-99949000D01*
X188076840Y-99949000D02*
X178876960Y-99949000D01*
X178876960Y-99949000D02*
X178876960Y-107650280D01*
X178876960Y-107650280D02*
X188076840Y-107650280D01*
X129539000Y-99061000D02*
X129539000Y-98286000D01*
X133839000Y-94761000D02*
X133839000Y-95536000D01*
X129539000Y-94761000D02*
X129539000Y-95536000D01*
X133839000Y-99061000D02*
X133064000Y-99061000D01*
X133839000Y-94761000D02*
X133064000Y-94761000D01*
X129539000Y-94761000D02*
X130314000Y-94761000D01*
X129539000Y-99061000D02*
X130314000Y-99061000D01*
X167732000Y-81442000D02*
X168432000Y-81442000D01*
X168432000Y-82642000D02*
X167732000Y-82642000D01*
X118964000Y-95982000D02*
X118964000Y-96682000D01*
X117764000Y-96682000D02*
X117764000Y-95982000D01*
X117440000Y-95982000D02*
X117440000Y-96682000D01*
X116240000Y-96682000D02*
X116240000Y-95982000D01*
D15*
X112298480Y-97282000D02*
G75*
G03X112298480Y-97282000I-1300480J0D01*
G01*
X114498120Y-97282000D02*
G75*
G03X114498120Y-97282000I-3500120J0D01*
G01*
X107398820Y-93682820D02*
X114597180Y-93682820D01*
X114597180Y-93682820D02*
X114597180Y-100881180D01*
X114597180Y-100881180D02*
X107398820Y-100881180D01*
X107398820Y-100881180D02*
X107398820Y-93682820D01*
D10*
X183134000Y-91186000D02*
X178054000Y-91186000D01*
X185954000Y-90906000D02*
X185954000Y-92456000D01*
X185674000Y-93726000D02*
X183134000Y-93726000D01*
X183134000Y-93726000D02*
X183134000Y-91186000D01*
X178054000Y-91186000D02*
X178054000Y-96266000D01*
X178054000Y-96266000D02*
X183134000Y-96266000D01*
X185954000Y-90906000D02*
X184404000Y-90906000D01*
X185674000Y-96266000D02*
X185674000Y-93726000D01*
X183134000Y-96266000D02*
X185674000Y-96266000D01*
X154396000Y-116648000D02*
X157196000Y-116648000D01*
X157196000Y-116648000D02*
X157196000Y-118048000D01*
X157196000Y-118048000D02*
X154396000Y-118048000D01*
X154396000Y-118048000D02*
X154396000Y-116648000D01*
X158796000Y-115598000D02*
X158796000Y-116248000D01*
X158796000Y-119098000D02*
X158796000Y-118448000D01*
X152796000Y-118448000D02*
X152796000Y-119098000D01*
X152796000Y-115598000D02*
X152796000Y-116248000D01*
X158796000Y-115598000D02*
X152796000Y-115598000D01*
X152796000Y-119098000D02*
X158796000Y-119098000D01*
X178816000Y-86106000D02*
X178816000Y-89154000D01*
X178816000Y-89154000D02*
X185928000Y-89154000D01*
X185928000Y-89154000D02*
X185928000Y-86106000D01*
X178816000Y-83058000D02*
X178816000Y-82296000D01*
X178816000Y-82296000D02*
X180340000Y-80010000D01*
X180340000Y-80010000D02*
X184404000Y-80010000D01*
X184404000Y-80010000D02*
X185928000Y-82296000D01*
X185928000Y-82296000D02*
X185928000Y-83058000D01*
X168381680Y-86690200D02*
X176982120Y-86690200D01*
X176982120Y-86690200D02*
X176982120Y-83489800D01*
X176982120Y-83489800D02*
X168381680Y-83489800D01*
X168381680Y-84239100D02*
X168381680Y-83489800D01*
X168381680Y-85989160D02*
X168381680Y-86690200D01*
X168381680Y-84790280D02*
X168081960Y-84691220D01*
X168381680Y-85389720D02*
X168081960Y-85488780D01*
X168381680Y-85989160D02*
X168381680Y-84190840D01*
X126330000Y-93950000D02*
X126330000Y-94650000D01*
X125130000Y-94650000D02*
X125130000Y-93950000D01*
X127030000Y-97882000D02*
X126330000Y-97882000D01*
X126330000Y-96682000D02*
X127030000Y-96682000D01*
X131156000Y-101692000D02*
X131156000Y-102392000D01*
X129956000Y-102392000D02*
X129956000Y-101692000D01*
X162398000Y-83474000D02*
X163098000Y-83474000D01*
X163098000Y-84674000D02*
X162398000Y-84674000D01*
X156626000Y-84674000D02*
X155926000Y-84674000D01*
X155926000Y-83474000D02*
X156626000Y-83474000D01*
X164876000Y-87722000D02*
X164176000Y-87722000D01*
X164176000Y-86522000D02*
X164876000Y-86522000D01*
X154848000Y-87722000D02*
X154148000Y-87722000D01*
X154148000Y-86522000D02*
X154848000Y-86522000D01*
X134712000Y-101692000D02*
X134712000Y-102392000D01*
X133512000Y-102392000D02*
X133512000Y-101692000D01*
X136236000Y-101692000D02*
X136236000Y-102392000D01*
X135036000Y-102392000D02*
X135036000Y-101692000D01*
X137830000Y-90962000D02*
X137830000Y-90262000D01*
X139030000Y-90262000D02*
X139030000Y-90962000D01*
X138268000Y-100676000D02*
X138268000Y-101376000D01*
X137068000Y-101376000D02*
X137068000Y-100676000D01*
X143094000Y-103094000D02*
X143094000Y-103794000D01*
X141894000Y-103794000D02*
X141894000Y-103094000D01*
X140116000Y-86198000D02*
X139416000Y-86198000D01*
X139416000Y-84998000D02*
X140116000Y-84998000D01*
X146396000Y-84998000D02*
X147096000Y-84998000D01*
X147096000Y-86198000D02*
X146396000Y-86198000D01*
X174914000Y-81376000D02*
X174914000Y-80676000D01*
X176114000Y-80676000D02*
X176114000Y-81376000D01*
X157042808Y-110828914D02*
X157042808Y-110128914D01*
X158242808Y-110128914D02*
X158242808Y-110828914D01*
X172882000Y-109758000D02*
X172882000Y-109058000D01*
X174082000Y-109058000D02*
X174082000Y-109758000D01*
X152562000Y-112044000D02*
X152562000Y-111344000D01*
X153762000Y-111344000D02*
X153762000Y-112044000D01*
X150784000Y-112044000D02*
X150784000Y-111344000D01*
X151984000Y-111344000D02*
X151984000Y-112044000D01*
X149006000Y-112044000D02*
X149006000Y-111344000D01*
X150206000Y-111344000D02*
X150206000Y-112044000D01*
X146974000Y-112044000D02*
X146974000Y-111344000D01*
X148174000Y-111344000D02*
X148174000Y-112044000D01*
X120620000Y-96682000D02*
X121320000Y-96682000D01*
X121320000Y-97882000D02*
X120620000Y-97882000D01*
X153762000Y-107412000D02*
X153762000Y-108112000D01*
X152562000Y-108112000D02*
X152562000Y-107412000D01*
X170850000Y-94580000D02*
X170150000Y-94580000D01*
X170150000Y-93380000D02*
X170850000Y-93380000D01*
X151984000Y-107412000D02*
X151984000Y-108112000D01*
X150784000Y-108112000D02*
X150784000Y-107412000D01*
X150206000Y-107412000D02*
X150206000Y-108112000D01*
X149006000Y-108112000D02*
X149006000Y-107412000D01*
X148174000Y-107412000D02*
X148174000Y-108112000D01*
X146974000Y-108112000D02*
X146974000Y-107412000D01*
X171288000Y-96936000D02*
X171988000Y-96936000D01*
X171988000Y-98136000D02*
X171288000Y-98136000D01*
X154148000Y-84998000D02*
X154848000Y-84998000D01*
X154848000Y-86198000D02*
X154148000Y-86198000D01*
X132680000Y-101692000D02*
X132680000Y-102392000D01*
X131480000Y-102392000D02*
X131480000Y-101692000D01*
X133004000Y-91348000D02*
X133004000Y-90648000D01*
X134204000Y-90648000D02*
X134204000Y-91348000D01*
X164176000Y-88046000D02*
X164876000Y-88046000D01*
X164876000Y-89246000D02*
X164176000Y-89246000D01*
X147158000Y-89316000D02*
X147858000Y-89316000D01*
X147858000Y-90516000D02*
X147158000Y-90516000D01*
X149068000Y-99984000D02*
X149768000Y-99984000D01*
X149768000Y-101184000D02*
X149068000Y-101184000D01*
X149768000Y-102708000D02*
X149068000Y-102708000D01*
X149068000Y-101508000D02*
X149768000Y-101508000D01*
X178146000Y-114138000D02*
X178146000Y-114838000D01*
X176946000Y-114838000D02*
X176946000Y-114138000D01*
X172558000Y-90902000D02*
X172558000Y-91602000D01*
X171358000Y-91602000D02*
X171358000Y-90902000D01*
X175387000Y-92551160D02*
X175387000Y-92502900D01*
X174685960Y-89752180D02*
X175387000Y-89752180D01*
X175387000Y-89752180D02*
X175387000Y-90001100D01*
X175387000Y-92551160D02*
X175387000Y-92751820D01*
X175387000Y-92751820D02*
X174685960Y-92751820D01*
X128612000Y-94500000D02*
X128612000Y-93500000D01*
X126912000Y-93500000D02*
X126912000Y-94500000D01*
X128866000Y-102842000D02*
X128866000Y-101842000D01*
X127166000Y-101842000D02*
X127166000Y-102842000D01*
X135802000Y-89670000D02*
X135802000Y-90670000D01*
X137502000Y-90670000D02*
X137502000Y-89670000D01*
X173320000Y-104302000D02*
X174020000Y-104302000D01*
X174020000Y-105502000D02*
X173320000Y-105502000D01*
X173320000Y-102778000D02*
X174020000Y-102778000D01*
X174020000Y-103978000D02*
X173320000Y-103978000D01*
X141312000Y-104366000D02*
X141312000Y-103366000D01*
X139612000Y-103366000D02*
X139612000Y-104366000D01*
X159078808Y-110224000D02*
X159078808Y-111224000D01*
X160778808Y-111224000D02*
X160778808Y-110224000D01*
X174918000Y-109248000D02*
X174918000Y-110248000D01*
X176618000Y-110248000D02*
X176618000Y-109248000D01*
X176368000Y-114138000D02*
X176368000Y-114838000D01*
X175168000Y-114838000D02*
X175168000Y-114138000D01*
X175168000Y-96296000D02*
X175168000Y-95596000D01*
X176368000Y-95596000D02*
X176368000Y-96296000D01*
X172378000Y-80038000D02*
X172378000Y-81038000D01*
X174078000Y-81038000D02*
X174078000Y-80038000D01*
X183134000Y-113792000D02*
X183134000Y-116332000D01*
X183414000Y-110972000D02*
X183414000Y-112522000D01*
X183134000Y-113792000D02*
X180594000Y-113792000D01*
X180314000Y-112522000D02*
X180314000Y-110972000D01*
X180314000Y-110972000D02*
X183414000Y-110972000D01*
X180594000Y-113792000D02*
X180594000Y-116332000D01*
X180594000Y-116332000D02*
X183134000Y-116332000D01*
X171704000Y-120676000D02*
X170154000Y-120676000D01*
X170154000Y-120676000D02*
X170154000Y-117576000D01*
X170154000Y-117576000D02*
X171704000Y-117576000D01*
X172974000Y-117856000D02*
X183134000Y-117856000D01*
X183134000Y-117856000D02*
X183134000Y-120396000D01*
X183134000Y-120396000D02*
X172974000Y-120396000D01*
X172974000Y-117856000D02*
X172974000Y-120396000D01*
X164211000Y-79771240D02*
X164411660Y-80172560D01*
X164411660Y-80172560D02*
X164513260Y-80772000D01*
X164513260Y-80772000D02*
X164411660Y-81272380D01*
X164411660Y-81272380D02*
X164012880Y-81970880D01*
X164012880Y-81970880D02*
X163410900Y-82372200D01*
X163410900Y-82372200D02*
X162811460Y-82572860D01*
X162811460Y-82572860D02*
X156212540Y-82572860D01*
X156212540Y-82572860D02*
X155511500Y-82372200D01*
X155511500Y-82372200D02*
X155112720Y-82072480D01*
X155112720Y-82072480D02*
X154711400Y-81572100D01*
X154711400Y-81572100D02*
X154510740Y-80972660D01*
X154510740Y-80972660D02*
X154510740Y-80472280D01*
X154510740Y-80472280D02*
X154711400Y-79971900D01*
X154711400Y-79971900D02*
X155211780Y-79372460D01*
X155211780Y-79372460D02*
X155712160Y-79072740D01*
X155712160Y-79072740D02*
X156212540Y-78971140D01*
X156311600Y-78971140D02*
X162913060Y-78971140D01*
X162913060Y-78971140D02*
X163311840Y-79072740D01*
X163311840Y-79072740D02*
X163812220Y-79372460D01*
X163812220Y-79372460D02*
X164312600Y-79872840D01*
X156321760Y-78442820D02*
X155862020Y-78491080D01*
X155862020Y-78491080D02*
X155463240Y-78602840D01*
X155463240Y-78602840D02*
X155031440Y-78821280D01*
X155031440Y-78821280D02*
X154741880Y-79052420D01*
X154741880Y-79052420D02*
X154411680Y-79402940D01*
X154411680Y-79402940D02*
X154122120Y-79941420D01*
X154122120Y-79941420D02*
X153992580Y-80540860D01*
X153992580Y-80540860D02*
X153992580Y-81051400D01*
X153992580Y-81051400D02*
X154162760Y-81752440D01*
X154162760Y-81752440D02*
X154561540Y-82341720D01*
X154561540Y-82341720D02*
X155021280Y-82712560D01*
X155021280Y-82712560D02*
X155442920Y-82920840D01*
X155442920Y-82920840D02*
X155892500Y-83080860D01*
X155892500Y-83080860D02*
X156331920Y-83111340D01*
X163672520Y-82892900D02*
X164050980Y-82671920D01*
X164050980Y-82671920D02*
X164371020Y-82392520D01*
X164371020Y-82392520D02*
X164622480Y-82062320D01*
X164622480Y-82062320D02*
X164922200Y-81511140D01*
X164922200Y-81511140D02*
X165031420Y-81041240D01*
X165031420Y-81041240D02*
X165051740Y-80581500D01*
X165051740Y-80581500D02*
X164962840Y-80121760D01*
X164962840Y-80121760D02*
X164772340Y-79672180D01*
X164772340Y-79672180D02*
X164411660Y-79202280D01*
X164411660Y-79202280D02*
X164061140Y-78882240D01*
X164061140Y-78882240D02*
X163672520Y-78651100D01*
X163672520Y-78651100D02*
X163243260Y-78511400D01*
X163243260Y-78511400D02*
X162801300Y-78442820D01*
X156311600Y-83101180D02*
X162763200Y-83101180D01*
X162763200Y-83101180D02*
X163182300Y-83063080D01*
X163182300Y-83063080D02*
X163672520Y-82892900D01*
X156311600Y-78442820D02*
X162763200Y-78442820D01*
X147955000Y-80279240D02*
X148155660Y-80680560D01*
X148155660Y-80680560D02*
X148257260Y-81280000D01*
X148257260Y-81280000D02*
X148155660Y-81780380D01*
X148155660Y-81780380D02*
X147756880Y-82478880D01*
X147756880Y-82478880D02*
X147154900Y-82880200D01*
X147154900Y-82880200D02*
X146555460Y-83080860D01*
X146555460Y-83080860D02*
X139956540Y-83080860D01*
X139956540Y-83080860D02*
X139255500Y-82880200D01*
X139255500Y-82880200D02*
X138856720Y-82580480D01*
X138856720Y-82580480D02*
X138455400Y-82080100D01*
X138455400Y-82080100D02*
X138254740Y-81480660D01*
X138254740Y-81480660D02*
X138254740Y-80980280D01*
X138254740Y-80980280D02*
X138455400Y-80479900D01*
X138455400Y-80479900D02*
X138955780Y-79880460D01*
X138955780Y-79880460D02*
X139456160Y-79580740D01*
X139456160Y-79580740D02*
X139956540Y-79479140D01*
X140055600Y-79479140D02*
X146657060Y-79479140D01*
X146657060Y-79479140D02*
X147055840Y-79580740D01*
X147055840Y-79580740D02*
X147556220Y-79880460D01*
X147556220Y-79880460D02*
X148056600Y-80380840D01*
X140065760Y-78950820D02*
X139606020Y-78999080D01*
X139606020Y-78999080D02*
X139207240Y-79110840D01*
X139207240Y-79110840D02*
X138775440Y-79329280D01*
X138775440Y-79329280D02*
X138485880Y-79560420D01*
X138485880Y-79560420D02*
X138155680Y-79910940D01*
X138155680Y-79910940D02*
X137866120Y-80449420D01*
X137866120Y-80449420D02*
X137736580Y-81048860D01*
X137736580Y-81048860D02*
X137736580Y-81559400D01*
X137736580Y-81559400D02*
X137906760Y-82260440D01*
X137906760Y-82260440D02*
X138305540Y-82849720D01*
X138305540Y-82849720D02*
X138765280Y-83220560D01*
X138765280Y-83220560D02*
X139186920Y-83428840D01*
X139186920Y-83428840D02*
X139636500Y-83588860D01*
X139636500Y-83588860D02*
X140075920Y-83619340D01*
X147416520Y-83400900D02*
X147794980Y-83179920D01*
X147794980Y-83179920D02*
X148115020Y-82900520D01*
X148115020Y-82900520D02*
X148366480Y-82570320D01*
X148366480Y-82570320D02*
X148666200Y-82019140D01*
X148666200Y-82019140D02*
X148775420Y-81549240D01*
X148775420Y-81549240D02*
X148795740Y-81089500D01*
X148795740Y-81089500D02*
X148706840Y-80629760D01*
X148706840Y-80629760D02*
X148516340Y-80180180D01*
X148516340Y-80180180D02*
X148155660Y-79710280D01*
X148155660Y-79710280D02*
X147805140Y-79390240D01*
X147805140Y-79390240D02*
X147416520Y-79159100D01*
X147416520Y-79159100D02*
X146987260Y-79019400D01*
X146987260Y-79019400D02*
X146545300Y-78950820D01*
X140055600Y-83609180D02*
X146507200Y-83609180D01*
X146507200Y-83609180D02*
X146926300Y-83571080D01*
X146926300Y-83571080D02*
X147416520Y-83400900D01*
X140055600Y-78950820D02*
X146507200Y-78950820D01*
X120142000Y-118364000D02*
X125222000Y-118364000D01*
X125222000Y-118364000D02*
X125222000Y-115824000D01*
X125222000Y-115824000D02*
X120142000Y-115824000D01*
X117322000Y-115544000D02*
X118872000Y-115544000D01*
X120142000Y-115824000D02*
X120142000Y-118364000D01*
X118872000Y-118644000D02*
X117322000Y-118644000D01*
X117322000Y-118644000D02*
X117322000Y-115544000D01*
X130048000Y-118364000D02*
X137668000Y-118364000D01*
X130048000Y-115824000D02*
X137668000Y-115824000D01*
X127228000Y-115544000D02*
X128778000Y-115544000D01*
X137668000Y-118364000D02*
X137668000Y-115824000D01*
X130048000Y-115824000D02*
X130048000Y-118364000D01*
X128778000Y-118644000D02*
X127228000Y-118644000D01*
X127228000Y-118644000D02*
X127228000Y-115544000D01*
X145288000Y-115824000D02*
X140208000Y-115824000D01*
X140208000Y-115824000D02*
X140208000Y-118364000D01*
X140208000Y-118364000D02*
X145288000Y-118364000D01*
X148108000Y-118644000D02*
X146558000Y-118644000D01*
X145288000Y-118364000D02*
X145288000Y-115824000D01*
X146558000Y-115544000D02*
X148108000Y-115544000D01*
X148108000Y-115544000D02*
X148108000Y-118644000D01*
X163446000Y-116648000D02*
X166246000Y-116648000D01*
X166246000Y-116648000D02*
X166246000Y-118048000D01*
X166246000Y-118048000D02*
X163446000Y-118048000D01*
X163446000Y-118048000D02*
X163446000Y-116648000D01*
X167846000Y-115598000D02*
X167846000Y-116248000D01*
X167846000Y-119098000D02*
X167846000Y-118448000D01*
X161846000Y-118448000D02*
X161846000Y-119098000D01*
X161846000Y-115598000D02*
X161846000Y-116248000D01*
X167846000Y-115598000D02*
X161846000Y-115598000D01*
X161846000Y-119098000D02*
X167846000Y-119098000D01*
X146780250Y-92776750D02*
X146780250Y-93301750D01*
X139530250Y-100026750D02*
X139530250Y-99501750D01*
X146780250Y-100026750D02*
X146780250Y-99501750D01*
X139530250Y-92776750D02*
X140055250Y-92776750D01*
X139530250Y-100026750D02*
X140055250Y-100026750D01*
X146780250Y-100026750D02*
X146255250Y-100026750D01*
X146780250Y-92776750D02*
X146255250Y-92776750D01*
X123531334Y-102211143D02*
X123483715Y-102258762D01*
X123340858Y-102306381D01*
X123245620Y-102306381D01*
X123102762Y-102258762D01*
X123007524Y-102163524D01*
X122959905Y-102068286D01*
X122912286Y-101877810D01*
X122912286Y-101734952D01*
X122959905Y-101544476D01*
X123007524Y-101449238D01*
X123102762Y-101354000D01*
X123245620Y-101306381D01*
X123340858Y-101306381D01*
X123483715Y-101354000D01*
X123531334Y-101401619D01*
X123864667Y-101306381D02*
X124483715Y-101306381D01*
X124150381Y-101687333D01*
X124293239Y-101687333D01*
X124388477Y-101734952D01*
X124436096Y-101782571D01*
X124483715Y-101877810D01*
X124483715Y-102115905D01*
X124436096Y-102211143D01*
X124388477Y-102258762D01*
X124293239Y-102306381D01*
X124007524Y-102306381D01*
X123912286Y-102258762D01*
X123864667Y-102211143D01*
X164640381Y-96519905D02*
X165449905Y-96519905D01*
X165545143Y-96472286D01*
X165592762Y-96424667D01*
X165640381Y-96329429D01*
X165640381Y-96138952D01*
X165592762Y-96043714D01*
X165545143Y-95996095D01*
X165449905Y-95948476D01*
X164640381Y-95948476D01*
X164640381Y-95567524D02*
X164640381Y-94948476D01*
X165021333Y-95281810D01*
X165021333Y-95138952D01*
X165068952Y-95043714D01*
X165116571Y-94996095D01*
X165211810Y-94948476D01*
X165449905Y-94948476D01*
X165545143Y-94996095D01*
X165592762Y-95043714D01*
X165640381Y-95138952D01*
X165640381Y-95424667D01*
X165592762Y-95519905D01*
X165545143Y-95567524D01*
X165568381Y-111505905D02*
X166377905Y-111505905D01*
X166473143Y-111458286D01*
X166520762Y-111410667D01*
X166568381Y-111315429D01*
X166568381Y-111124952D01*
X166520762Y-111029714D01*
X166473143Y-110982095D01*
X166377905Y-110934476D01*
X165568381Y-110934476D01*
X165568381Y-109982095D02*
X165568381Y-110458286D01*
X166044571Y-110505905D01*
X165996952Y-110458286D01*
X165949333Y-110363048D01*
X165949333Y-110124952D01*
X165996952Y-110029714D01*
X166044571Y-109982095D01*
X166139810Y-109934476D01*
X166377905Y-109934476D01*
X166473143Y-109982095D01*
X166520762Y-110029714D01*
X166568381Y-110124952D01*
X166568381Y-110363048D01*
X166520762Y-110458286D01*
X166473143Y-110505905D01*
X168521143Y-89352381D02*
X168187809Y-88876190D01*
X167949714Y-89352381D02*
X167949714Y-88352381D01*
X168330667Y-88352381D01*
X168425905Y-88400000D01*
X168473524Y-88447619D01*
X168521143Y-88542857D01*
X168521143Y-88685714D01*
X168473524Y-88780952D01*
X168425905Y-88828571D01*
X168330667Y-88876190D01*
X167949714Y-88876190D01*
X169473524Y-89352381D02*
X168902095Y-89352381D01*
X169187809Y-89352381D02*
X169187809Y-88352381D01*
X169092571Y-88495238D01*
X168997333Y-88590476D01*
X168902095Y-88638095D01*
X170378286Y-88352381D02*
X169902095Y-88352381D01*
X169854476Y-88828571D01*
X169902095Y-88780952D01*
X169997333Y-88733333D01*
X170235429Y-88733333D01*
X170330667Y-88780952D01*
X170378286Y-88828571D01*
X170425905Y-88923810D01*
X170425905Y-89161905D01*
X170378286Y-89257143D01*
X170330667Y-89304762D01*
X170235429Y-89352381D01*
X169997333Y-89352381D01*
X169902095Y-89304762D01*
X169854476Y-89257143D01*
X181887905Y-99258381D02*
X181887905Y-98258381D01*
X182268858Y-98258381D01*
X182364096Y-98306000D01*
X182411715Y-98353619D01*
X182459334Y-98448857D01*
X182459334Y-98591714D01*
X182411715Y-98686952D01*
X182364096Y-98734571D01*
X182268858Y-98782190D01*
X181887905Y-98782190D01*
X183364096Y-98258381D02*
X182887905Y-98258381D01*
X182840286Y-98734571D01*
X182887905Y-98686952D01*
X182983143Y-98639333D01*
X183221239Y-98639333D01*
X183316477Y-98686952D01*
X183364096Y-98734571D01*
X183411715Y-98829810D01*
X183411715Y-99067905D01*
X183364096Y-99163143D01*
X183316477Y-99210762D01*
X183221239Y-99258381D01*
X182983143Y-99258381D01*
X182887905Y-99210762D01*
X182840286Y-99163143D01*
X129286095Y-92162381D02*
X129286095Y-92971905D01*
X129333714Y-93067143D01*
X129381333Y-93114762D01*
X129476571Y-93162381D01*
X129667048Y-93162381D01*
X129762286Y-93114762D01*
X129809905Y-93067143D01*
X129857524Y-92971905D01*
X129857524Y-92162381D01*
X130857524Y-93162381D02*
X130286095Y-93162381D01*
X130571809Y-93162381D02*
X130571809Y-92162381D01*
X130476571Y-92305238D01*
X130381333Y-92400476D01*
X130286095Y-92448095D01*
X167251143Y-80499143D02*
X167203524Y-80546762D01*
X167060667Y-80594381D01*
X166965429Y-80594381D01*
X166822571Y-80546762D01*
X166727333Y-80451524D01*
X166679714Y-80356286D01*
X166632095Y-80165810D01*
X166632095Y-80022952D01*
X166679714Y-79832476D01*
X166727333Y-79737238D01*
X166822571Y-79642000D01*
X166965429Y-79594381D01*
X167060667Y-79594381D01*
X167203524Y-79642000D01*
X167251143Y-79689619D01*
X168203524Y-80594381D02*
X167632095Y-80594381D01*
X167917809Y-80594381D02*
X167917809Y-79594381D01*
X167822571Y-79737238D01*
X167727333Y-79832476D01*
X167632095Y-79880095D01*
X169155905Y-80594381D02*
X168584476Y-80594381D01*
X168870190Y-80594381D02*
X168870190Y-79594381D01*
X168774952Y-79737238D01*
X168679714Y-79832476D01*
X168584476Y-79880095D01*
X118197334Y-93924381D02*
X117721143Y-93924381D01*
X117721143Y-92924381D01*
X119054477Y-93924381D02*
X118483048Y-93924381D01*
X118768762Y-93924381D02*
X118768762Y-92924381D01*
X118673524Y-93067238D01*
X118578286Y-93162476D01*
X118483048Y-93210095D01*
X116673334Y-93829143D02*
X116625715Y-93876762D01*
X116482858Y-93924381D01*
X116387620Y-93924381D01*
X116244762Y-93876762D01*
X116149524Y-93781524D01*
X116101905Y-93686286D01*
X116054286Y-93495810D01*
X116054286Y-93352952D01*
X116101905Y-93162476D01*
X116149524Y-93067238D01*
X116244762Y-92972000D01*
X116387620Y-92924381D01*
X116482858Y-92924381D01*
X116625715Y-92972000D01*
X116673334Y-93019619D01*
X117625715Y-93924381D02*
X117054286Y-93924381D01*
X117340000Y-93924381D02*
X117340000Y-92924381D01*
X117244762Y-93067238D01*
X117149524Y-93162476D01*
X117054286Y-93210095D01*
D16*
X109873143Y-103051429D02*
X109873143Y-101527429D01*
X110453715Y-101527429D01*
X110598857Y-101600000D01*
X110671429Y-101672571D01*
X110744000Y-101817714D01*
X110744000Y-102035429D01*
X110671429Y-102180571D01*
X110598857Y-102253143D01*
X110453715Y-102325714D01*
X109873143Y-102325714D01*
X112195429Y-103051429D02*
X111324572Y-103051429D01*
X111760000Y-103051429D02*
X111760000Y-101527429D01*
X111614857Y-101745143D01*
X111469715Y-101890286D01*
X111324572Y-101962857D01*
X109038572Y-92818857D02*
X109256286Y-92891429D01*
X109619143Y-92891429D01*
X109764286Y-92818857D01*
X109836857Y-92746286D01*
X109909429Y-92601143D01*
X109909429Y-92456000D01*
X109836857Y-92310857D01*
X109764286Y-92238286D01*
X109619143Y-92165714D01*
X109328857Y-92093143D01*
X109183715Y-92020571D01*
X109111143Y-91948000D01*
X109038572Y-91802857D01*
X109038572Y-91657714D01*
X109111143Y-91512571D01*
X109183715Y-91440000D01*
X109328857Y-91367429D01*
X109691715Y-91367429D01*
X109909429Y-91440000D01*
X110562572Y-92891429D02*
X110562572Y-91367429D01*
X111070572Y-92456000D01*
X111578572Y-91367429D01*
X111578572Y-92891429D01*
X112231715Y-92456000D02*
X112957429Y-92456000D01*
X112086572Y-92891429D02*
X112594572Y-91367429D01*
X113102572Y-92891429D01*
D10*
X181379905Y-90622381D02*
X181379905Y-89622381D01*
X181760858Y-89622381D01*
X181856096Y-89670000D01*
X181903715Y-89717619D01*
X181951334Y-89812857D01*
X181951334Y-89955714D01*
X181903715Y-90050952D01*
X181856096Y-90098571D01*
X181760858Y-90146190D01*
X181379905Y-90146190D01*
X182332286Y-89717619D02*
X182379905Y-89670000D01*
X182475143Y-89622381D01*
X182713239Y-89622381D01*
X182808477Y-89670000D01*
X182856096Y-89717619D01*
X182903715Y-89812857D01*
X182903715Y-89908095D01*
X182856096Y-90050952D01*
X182284667Y-90622381D01*
X182903715Y-90622381D01*
X156400667Y-115212762D02*
X156543524Y-115260381D01*
X156781620Y-115260381D01*
X156876858Y-115212762D01*
X156924477Y-115165143D01*
X156972096Y-115069905D01*
X156972096Y-114974667D01*
X156924477Y-114879429D01*
X156876858Y-114831810D01*
X156781620Y-114784190D01*
X156591143Y-114736571D01*
X156495905Y-114688952D01*
X156448286Y-114641333D01*
X156400667Y-114546095D01*
X156400667Y-114450857D01*
X156448286Y-114355619D01*
X156495905Y-114308000D01*
X156591143Y-114260381D01*
X156829239Y-114260381D01*
X156972096Y-114308000D01*
X157305429Y-114260381D02*
X157543524Y-115260381D01*
X157734001Y-114546095D01*
X157924477Y-115260381D01*
X158162572Y-114260381D01*
X158495905Y-114355619D02*
X158543524Y-114308000D01*
X158638762Y-114260381D01*
X158876858Y-114260381D01*
X158972096Y-114308000D01*
X159019715Y-114355619D01*
X159067334Y-114450857D01*
X159067334Y-114546095D01*
X159019715Y-114688952D01*
X158448286Y-115260381D01*
X159067334Y-115260381D01*
X178562095Y-78700381D02*
X178562095Y-79509905D01*
X178609714Y-79605143D01*
X178657333Y-79652762D01*
X178752571Y-79700381D01*
X178943048Y-79700381D01*
X179038286Y-79652762D01*
X179085905Y-79605143D01*
X179133524Y-79509905D01*
X179133524Y-78700381D01*
X180038286Y-79033714D02*
X180038286Y-79700381D01*
X179800190Y-78652762D02*
X179562095Y-79367048D01*
X180181143Y-79367048D01*
X177323809Y-85320190D02*
X177323809Y-85796381D01*
X176990476Y-84796381D02*
X177323809Y-85320190D01*
X177657143Y-84796381D01*
X177942857Y-84891619D02*
X177990476Y-84844000D01*
X178085714Y-84796381D01*
X178323810Y-84796381D01*
X178419048Y-84844000D01*
X178466667Y-84891619D01*
X178514286Y-84986857D01*
X178514286Y-85082095D01*
X178466667Y-85224952D01*
X177895238Y-85796381D01*
X178514286Y-85796381D01*
X125563334Y-91035143D02*
X125515715Y-91082762D01*
X125372858Y-91130381D01*
X125277620Y-91130381D01*
X125134762Y-91082762D01*
X125039524Y-90987524D01*
X124991905Y-90892286D01*
X124944286Y-90701810D01*
X124944286Y-90558952D01*
X124991905Y-90368476D01*
X125039524Y-90273238D01*
X125134762Y-90178000D01*
X125277620Y-90130381D01*
X125372858Y-90130381D01*
X125515715Y-90178000D01*
X125563334Y-90225619D01*
X125944286Y-90225619D02*
X125991905Y-90178000D01*
X126087143Y-90130381D01*
X126325239Y-90130381D01*
X126420477Y-90178000D01*
X126468096Y-90225619D01*
X126515715Y-90320857D01*
X126515715Y-90416095D01*
X126468096Y-90558952D01*
X125896667Y-91130381D01*
X126515715Y-91130381D01*
X126513334Y-99539143D02*
X126465715Y-99586762D01*
X126322858Y-99634381D01*
X126227620Y-99634381D01*
X126084762Y-99586762D01*
X125989524Y-99491524D01*
X125941905Y-99396286D01*
X125894286Y-99205810D01*
X125894286Y-99062952D01*
X125941905Y-98872476D01*
X125989524Y-98777238D01*
X126084762Y-98682000D01*
X126227620Y-98634381D01*
X126322858Y-98634381D01*
X126465715Y-98682000D01*
X126513334Y-98729619D01*
X127418096Y-98634381D02*
X126941905Y-98634381D01*
X126894286Y-99110571D01*
X126941905Y-99062952D01*
X127037143Y-99015333D01*
X127275239Y-99015333D01*
X127370477Y-99062952D01*
X127418096Y-99110571D01*
X127465715Y-99205810D01*
X127465715Y-99443905D01*
X127418096Y-99539143D01*
X127370477Y-99586762D01*
X127275239Y-99634381D01*
X127037143Y-99634381D01*
X126941905Y-99586762D01*
X126894286Y-99539143D01*
X130659143Y-105830666D02*
X130706762Y-105878285D01*
X130754381Y-106021142D01*
X130754381Y-106116380D01*
X130706762Y-106259238D01*
X130611524Y-106354476D01*
X130516286Y-106402095D01*
X130325810Y-106449714D01*
X130182952Y-106449714D01*
X129992476Y-106402095D01*
X129897238Y-106354476D01*
X129802000Y-106259238D01*
X129754381Y-106116380D01*
X129754381Y-106021142D01*
X129802000Y-105878285D01*
X129849619Y-105830666D01*
X129754381Y-105497333D02*
X129754381Y-104830666D01*
X130754381Y-105259238D01*
X162647334Y-85955143D02*
X162599715Y-86002762D01*
X162456858Y-86050381D01*
X162361620Y-86050381D01*
X162218762Y-86002762D01*
X162123524Y-85907524D01*
X162075905Y-85812286D01*
X162028286Y-85621810D01*
X162028286Y-85478952D01*
X162075905Y-85288476D01*
X162123524Y-85193238D01*
X162218762Y-85098000D01*
X162361620Y-85050381D01*
X162456858Y-85050381D01*
X162599715Y-85098000D01*
X162647334Y-85145619D01*
X163218762Y-85478952D02*
X163123524Y-85431333D01*
X163075905Y-85383714D01*
X163028286Y-85288476D01*
X163028286Y-85240857D01*
X163075905Y-85145619D01*
X163123524Y-85098000D01*
X163218762Y-85050381D01*
X163409239Y-85050381D01*
X163504477Y-85098000D01*
X163552096Y-85145619D01*
X163599715Y-85240857D01*
X163599715Y-85288476D01*
X163552096Y-85383714D01*
X163504477Y-85431333D01*
X163409239Y-85478952D01*
X163218762Y-85478952D01*
X163123524Y-85526571D01*
X163075905Y-85574190D01*
X163028286Y-85669429D01*
X163028286Y-85859905D01*
X163075905Y-85955143D01*
X163123524Y-86002762D01*
X163218762Y-86050381D01*
X163409239Y-86050381D01*
X163504477Y-86002762D01*
X163552096Y-85955143D01*
X163599715Y-85859905D01*
X163599715Y-85669429D01*
X163552096Y-85574190D01*
X163504477Y-85526571D01*
X163409239Y-85478952D01*
X152487334Y-82145143D02*
X152439715Y-82192762D01*
X152296858Y-82240381D01*
X152201620Y-82240381D01*
X152058762Y-82192762D01*
X151963524Y-82097524D01*
X151915905Y-82002286D01*
X151868286Y-81811810D01*
X151868286Y-81668952D01*
X151915905Y-81478476D01*
X151963524Y-81383238D01*
X152058762Y-81288000D01*
X152201620Y-81240381D01*
X152296858Y-81240381D01*
X152439715Y-81288000D01*
X152487334Y-81335619D01*
X152963524Y-82240381D02*
X153154000Y-82240381D01*
X153249239Y-82192762D01*
X153296858Y-82145143D01*
X153392096Y-82002286D01*
X153439715Y-81811810D01*
X153439715Y-81430857D01*
X153392096Y-81335619D01*
X153344477Y-81288000D01*
X153249239Y-81240381D01*
X153058762Y-81240381D01*
X152963524Y-81288000D01*
X152915905Y-81335619D01*
X152868286Y-81430857D01*
X152868286Y-81668952D01*
X152915905Y-81764190D01*
X152963524Y-81811810D01*
X153058762Y-81859429D01*
X153249239Y-81859429D01*
X153344477Y-81811810D01*
X153392096Y-81764190D01*
X153439715Y-81668952D01*
X160515143Y-87479143D02*
X160467524Y-87526762D01*
X160324667Y-87574381D01*
X160229429Y-87574381D01*
X160086571Y-87526762D01*
X159991333Y-87431524D01*
X159943714Y-87336286D01*
X159896095Y-87145810D01*
X159896095Y-87002952D01*
X159943714Y-86812476D01*
X159991333Y-86717238D01*
X160086571Y-86622000D01*
X160229429Y-86574381D01*
X160324667Y-86574381D01*
X160467524Y-86622000D01*
X160515143Y-86669619D01*
X161467524Y-87574381D02*
X160896095Y-87574381D01*
X161181809Y-87574381D02*
X161181809Y-86574381D01*
X161086571Y-86717238D01*
X160991333Y-86812476D01*
X160896095Y-86860095D01*
X162086571Y-86574381D02*
X162181810Y-86574381D01*
X162277048Y-86622000D01*
X162324667Y-86669619D01*
X162372286Y-86764857D01*
X162419905Y-86955333D01*
X162419905Y-87193429D01*
X162372286Y-87383905D01*
X162324667Y-87479143D01*
X162277048Y-87526762D01*
X162181810Y-87574381D01*
X162086571Y-87574381D01*
X161991333Y-87526762D01*
X161943714Y-87479143D01*
X161896095Y-87383905D01*
X161848476Y-87193429D01*
X161848476Y-86955333D01*
X161896095Y-86764857D01*
X161943714Y-86669619D01*
X161991333Y-86622000D01*
X162086571Y-86574381D01*
X150487143Y-87479143D02*
X150439524Y-87526762D01*
X150296667Y-87574381D01*
X150201429Y-87574381D01*
X150058571Y-87526762D01*
X149963333Y-87431524D01*
X149915714Y-87336286D01*
X149868095Y-87145810D01*
X149868095Y-87002952D01*
X149915714Y-86812476D01*
X149963333Y-86717238D01*
X150058571Y-86622000D01*
X150201429Y-86574381D01*
X150296667Y-86574381D01*
X150439524Y-86622000D01*
X150487143Y-86669619D01*
X151439524Y-87574381D02*
X150868095Y-87574381D01*
X151153809Y-87574381D02*
X151153809Y-86574381D01*
X151058571Y-86717238D01*
X150963333Y-86812476D01*
X150868095Y-86860095D01*
X151820476Y-86669619D02*
X151868095Y-86622000D01*
X151963333Y-86574381D01*
X152201429Y-86574381D01*
X152296667Y-86622000D01*
X152344286Y-86669619D01*
X152391905Y-86764857D01*
X152391905Y-86860095D01*
X152344286Y-87002952D01*
X151772857Y-87574381D01*
X152391905Y-87574381D01*
X134469143Y-106306857D02*
X134516762Y-106354476D01*
X134564381Y-106497333D01*
X134564381Y-106592571D01*
X134516762Y-106735429D01*
X134421524Y-106830667D01*
X134326286Y-106878286D01*
X134135810Y-106925905D01*
X133992952Y-106925905D01*
X133802476Y-106878286D01*
X133707238Y-106830667D01*
X133612000Y-106735429D01*
X133564381Y-106592571D01*
X133564381Y-106497333D01*
X133612000Y-106354476D01*
X133659619Y-106306857D01*
X134564381Y-105354476D02*
X134564381Y-105925905D01*
X134564381Y-105640191D02*
X133564381Y-105640191D01*
X133707238Y-105735429D01*
X133802476Y-105830667D01*
X133850095Y-105925905D01*
X133564381Y-104449714D02*
X133564381Y-104925905D01*
X134040571Y-104973524D01*
X133992952Y-104925905D01*
X133945333Y-104830667D01*
X133945333Y-104592571D01*
X133992952Y-104497333D01*
X134040571Y-104449714D01*
X134135810Y-104402095D01*
X134373905Y-104402095D01*
X134469143Y-104449714D01*
X134516762Y-104497333D01*
X134564381Y-104592571D01*
X134564381Y-104830667D01*
X134516762Y-104925905D01*
X134469143Y-104973524D01*
X135993143Y-106428857D02*
X136040762Y-106476476D01*
X136088381Y-106619333D01*
X136088381Y-106714571D01*
X136040762Y-106857429D01*
X135945524Y-106952667D01*
X135850286Y-107000286D01*
X135659810Y-107047905D01*
X135516952Y-107047905D01*
X135326476Y-107000286D01*
X135231238Y-106952667D01*
X135136000Y-106857429D01*
X135088381Y-106714571D01*
X135088381Y-106619333D01*
X135136000Y-106476476D01*
X135183619Y-106428857D01*
X136088381Y-105476476D02*
X136088381Y-106047905D01*
X136088381Y-105762191D02*
X135088381Y-105762191D01*
X135231238Y-105857429D01*
X135326476Y-105952667D01*
X135374095Y-106047905D01*
X135088381Y-104619333D02*
X135088381Y-104809810D01*
X135136000Y-104905048D01*
X135183619Y-104952667D01*
X135326476Y-105047905D01*
X135516952Y-105095524D01*
X135897905Y-105095524D01*
X135993143Y-105047905D01*
X136040762Y-105000286D01*
X136088381Y-104905048D01*
X136088381Y-104714571D01*
X136040762Y-104619333D01*
X135993143Y-104571714D01*
X135897905Y-104524095D01*
X135659810Y-104524095D01*
X135564571Y-104571714D01*
X135516952Y-104619333D01*
X135469333Y-104714571D01*
X135469333Y-104905048D01*
X135516952Y-105000286D01*
X135564571Y-105047905D01*
X135659810Y-105095524D01*
X138533143Y-94876857D02*
X138580762Y-94924476D01*
X138628381Y-95067333D01*
X138628381Y-95162571D01*
X138580762Y-95305429D01*
X138485524Y-95400667D01*
X138390286Y-95448286D01*
X138199810Y-95495905D01*
X138056952Y-95495905D01*
X137866476Y-95448286D01*
X137771238Y-95400667D01*
X137676000Y-95305429D01*
X137628381Y-95162571D01*
X137628381Y-95067333D01*
X137676000Y-94924476D01*
X137723619Y-94876857D01*
X138628381Y-93924476D02*
X138628381Y-94495905D01*
X138628381Y-94210191D02*
X137628381Y-94210191D01*
X137771238Y-94305429D01*
X137866476Y-94400667D01*
X137914095Y-94495905D01*
X138056952Y-93353048D02*
X138009333Y-93448286D01*
X137961714Y-93495905D01*
X137866476Y-93543524D01*
X137818857Y-93543524D01*
X137723619Y-93495905D01*
X137676000Y-93448286D01*
X137628381Y-93353048D01*
X137628381Y-93162571D01*
X137676000Y-93067333D01*
X137723619Y-93019714D01*
X137818857Y-92972095D01*
X137866476Y-92972095D01*
X137961714Y-93019714D01*
X138009333Y-93067333D01*
X138056952Y-93162571D01*
X138056952Y-93353048D01*
X138104571Y-93448286D01*
X138152190Y-93495905D01*
X138247429Y-93543524D01*
X138437905Y-93543524D01*
X138533143Y-93495905D01*
X138580762Y-93448286D01*
X138628381Y-93353048D01*
X138628381Y-93162571D01*
X138580762Y-93067333D01*
X138533143Y-93019714D01*
X138437905Y-92972095D01*
X138247429Y-92972095D01*
X138152190Y-93019714D01*
X138104571Y-93067333D01*
X138056952Y-93162571D01*
X138025143Y-105290857D02*
X138072762Y-105338476D01*
X138120381Y-105481333D01*
X138120381Y-105576571D01*
X138072762Y-105719429D01*
X137977524Y-105814667D01*
X137882286Y-105862286D01*
X137691810Y-105909905D01*
X137548952Y-105909905D01*
X137358476Y-105862286D01*
X137263238Y-105814667D01*
X137168000Y-105719429D01*
X137120381Y-105576571D01*
X137120381Y-105481333D01*
X137168000Y-105338476D01*
X137215619Y-105290857D01*
X138120381Y-104338476D02*
X138120381Y-104909905D01*
X138120381Y-104624191D02*
X137120381Y-104624191D01*
X137263238Y-104719429D01*
X137358476Y-104814667D01*
X137406095Y-104909905D01*
X138120381Y-103862286D02*
X138120381Y-103671810D01*
X138072762Y-103576571D01*
X138025143Y-103528952D01*
X137882286Y-103433714D01*
X137691810Y-103386095D01*
X137310857Y-103386095D01*
X137215619Y-103433714D01*
X137168000Y-103481333D01*
X137120381Y-103576571D01*
X137120381Y-103767048D01*
X137168000Y-103862286D01*
X137215619Y-103909905D01*
X137310857Y-103957524D01*
X137548952Y-103957524D01*
X137644190Y-103909905D01*
X137691810Y-103862286D01*
X137739429Y-103767048D01*
X137739429Y-103576571D01*
X137691810Y-103481333D01*
X137644190Y-103433714D01*
X137548952Y-103386095D01*
X142851143Y-108592857D02*
X142898762Y-108640476D01*
X142946381Y-108783333D01*
X142946381Y-108878571D01*
X142898762Y-109021429D01*
X142803524Y-109116667D01*
X142708286Y-109164286D01*
X142517810Y-109211905D01*
X142374952Y-109211905D01*
X142184476Y-109164286D01*
X142089238Y-109116667D01*
X141994000Y-109021429D01*
X141946381Y-108878571D01*
X141946381Y-108783333D01*
X141994000Y-108640476D01*
X142041619Y-108592857D01*
X142041619Y-108211905D02*
X141994000Y-108164286D01*
X141946381Y-108069048D01*
X141946381Y-107830952D01*
X141994000Y-107735714D01*
X142041619Y-107688095D01*
X142136857Y-107640476D01*
X142232095Y-107640476D01*
X142374952Y-107688095D01*
X142946381Y-108259524D01*
X142946381Y-107640476D01*
X141946381Y-107021429D02*
X141946381Y-106926190D01*
X141994000Y-106830952D01*
X142041619Y-106783333D01*
X142136857Y-106735714D01*
X142327333Y-106688095D01*
X142565429Y-106688095D01*
X142755905Y-106735714D01*
X142851143Y-106783333D01*
X142898762Y-106830952D01*
X142946381Y-106926190D01*
X142946381Y-107021429D01*
X142898762Y-107116667D01*
X142851143Y-107164286D01*
X142755905Y-107211905D01*
X142565429Y-107259524D01*
X142327333Y-107259524D01*
X142136857Y-107211905D01*
X142041619Y-107164286D01*
X141994000Y-107116667D01*
X141946381Y-107021429D01*
X138803143Y-87733143D02*
X138755524Y-87780762D01*
X138612667Y-87828381D01*
X138517429Y-87828381D01*
X138374571Y-87780762D01*
X138279333Y-87685524D01*
X138231714Y-87590286D01*
X138184095Y-87399810D01*
X138184095Y-87256952D01*
X138231714Y-87066476D01*
X138279333Y-86971238D01*
X138374571Y-86876000D01*
X138517429Y-86828381D01*
X138612667Y-86828381D01*
X138755524Y-86876000D01*
X138803143Y-86923619D01*
X139184095Y-86923619D02*
X139231714Y-86876000D01*
X139326952Y-86828381D01*
X139565048Y-86828381D01*
X139660286Y-86876000D01*
X139707905Y-86923619D01*
X139755524Y-87018857D01*
X139755524Y-87114095D01*
X139707905Y-87256952D01*
X139136476Y-87828381D01*
X139755524Y-87828381D01*
X140707905Y-87828381D02*
X140136476Y-87828381D01*
X140422190Y-87828381D02*
X140422190Y-86828381D01*
X140326952Y-86971238D01*
X140231714Y-87066476D01*
X140136476Y-87114095D01*
X146169143Y-87479143D02*
X146121524Y-87526762D01*
X145978667Y-87574381D01*
X145883429Y-87574381D01*
X145740571Y-87526762D01*
X145645333Y-87431524D01*
X145597714Y-87336286D01*
X145550095Y-87145810D01*
X145550095Y-87002952D01*
X145597714Y-86812476D01*
X145645333Y-86717238D01*
X145740571Y-86622000D01*
X145883429Y-86574381D01*
X145978667Y-86574381D01*
X146121524Y-86622000D01*
X146169143Y-86669619D01*
X146550095Y-86669619D02*
X146597714Y-86622000D01*
X146692952Y-86574381D01*
X146931048Y-86574381D01*
X147026286Y-86622000D01*
X147073905Y-86669619D01*
X147121524Y-86764857D01*
X147121524Y-86860095D01*
X147073905Y-87002952D01*
X146502476Y-87574381D01*
X147121524Y-87574381D01*
X147502476Y-86669619D02*
X147550095Y-86622000D01*
X147645333Y-86574381D01*
X147883429Y-86574381D01*
X147978667Y-86622000D01*
X148026286Y-86669619D01*
X148073905Y-86764857D01*
X148073905Y-86860095D01*
X148026286Y-87002952D01*
X147454857Y-87574381D01*
X148073905Y-87574381D01*
X177649143Y-81602857D02*
X177696762Y-81650476D01*
X177744381Y-81793333D01*
X177744381Y-81888571D01*
X177696762Y-82031429D01*
X177601524Y-82126667D01*
X177506286Y-82174286D01*
X177315810Y-82221905D01*
X177172952Y-82221905D01*
X176982476Y-82174286D01*
X176887238Y-82126667D01*
X176792000Y-82031429D01*
X176744381Y-81888571D01*
X176744381Y-81793333D01*
X176792000Y-81650476D01*
X176839619Y-81602857D01*
X176839619Y-81221905D02*
X176792000Y-81174286D01*
X176744381Y-81079048D01*
X176744381Y-80840952D01*
X176792000Y-80745714D01*
X176839619Y-80698095D01*
X176934857Y-80650476D01*
X177030095Y-80650476D01*
X177172952Y-80698095D01*
X177744381Y-81269524D01*
X177744381Y-80650476D01*
X176744381Y-79793333D02*
X176744381Y-79983810D01*
X176792000Y-80079048D01*
X176839619Y-80126667D01*
X176982476Y-80221905D01*
X177172952Y-80269524D01*
X177553905Y-80269524D01*
X177649143Y-80221905D01*
X177696762Y-80174286D01*
X177744381Y-80079048D01*
X177744381Y-79888571D01*
X177696762Y-79793333D01*
X177649143Y-79745714D01*
X177553905Y-79698095D01*
X177315810Y-79698095D01*
X177220571Y-79745714D01*
X177172952Y-79793333D01*
X177125333Y-79888571D01*
X177125333Y-80079048D01*
X177172952Y-80174286D01*
X177220571Y-80221905D01*
X177315810Y-80269524D01*
X158091143Y-107576857D02*
X158138762Y-107624476D01*
X158186381Y-107767333D01*
X158186381Y-107862571D01*
X158138762Y-108005429D01*
X158043524Y-108100667D01*
X157948286Y-108148286D01*
X157757810Y-108195905D01*
X157614952Y-108195905D01*
X157424476Y-108148286D01*
X157329238Y-108100667D01*
X157234000Y-108005429D01*
X157186381Y-107862571D01*
X157186381Y-107767333D01*
X157234000Y-107624476D01*
X157281619Y-107576857D01*
X157281619Y-107195905D02*
X157234000Y-107148286D01*
X157186381Y-107053048D01*
X157186381Y-106814952D01*
X157234000Y-106719714D01*
X157281619Y-106672095D01*
X157376857Y-106624476D01*
X157472095Y-106624476D01*
X157614952Y-106672095D01*
X158186381Y-107243524D01*
X158186381Y-106624476D01*
X157186381Y-106291143D02*
X157186381Y-105624476D01*
X158186381Y-106053048D01*
X173839143Y-113672857D02*
X173886762Y-113720476D01*
X173934381Y-113863333D01*
X173934381Y-113958571D01*
X173886762Y-114101429D01*
X173791524Y-114196667D01*
X173696286Y-114244286D01*
X173505810Y-114291905D01*
X173362952Y-114291905D01*
X173172476Y-114244286D01*
X173077238Y-114196667D01*
X172982000Y-114101429D01*
X172934381Y-113958571D01*
X172934381Y-113863333D01*
X172982000Y-113720476D01*
X173029619Y-113672857D01*
X173029619Y-113291905D02*
X172982000Y-113244286D01*
X172934381Y-113149048D01*
X172934381Y-112910952D01*
X172982000Y-112815714D01*
X173029619Y-112768095D01*
X173124857Y-112720476D01*
X173220095Y-112720476D01*
X173362952Y-112768095D01*
X173934381Y-113339524D01*
X173934381Y-112720476D01*
X173934381Y-112244286D02*
X173934381Y-112053810D01*
X173886762Y-111958571D01*
X173839143Y-111910952D01*
X173696286Y-111815714D01*
X173505810Y-111768095D01*
X173124857Y-111768095D01*
X173029619Y-111815714D01*
X172982000Y-111863333D01*
X172934381Y-111958571D01*
X172934381Y-112149048D01*
X172982000Y-112244286D01*
X173029619Y-112291905D01*
X173124857Y-112339524D01*
X173362952Y-112339524D01*
X173458190Y-112291905D01*
X173505810Y-112244286D01*
X173553429Y-112149048D01*
X173553429Y-111958571D01*
X173505810Y-111863333D01*
X173458190Y-111815714D01*
X173362952Y-111768095D01*
X153106381Y-115292095D02*
X152106381Y-115292095D01*
X152106381Y-115054000D01*
X152154000Y-114911142D01*
X152249238Y-114815904D01*
X152344476Y-114768285D01*
X152534952Y-114720666D01*
X152677810Y-114720666D01*
X152868286Y-114768285D01*
X152963524Y-114815904D01*
X153058762Y-114911142D01*
X153106381Y-115054000D01*
X153106381Y-115292095D01*
X153106381Y-113768285D02*
X153106381Y-114339714D01*
X153106381Y-114054000D02*
X152106381Y-114054000D01*
X152249238Y-114149238D01*
X152344476Y-114244476D01*
X152392095Y-114339714D01*
X151582381Y-115292095D02*
X150582381Y-115292095D01*
X150582381Y-115054000D01*
X150630000Y-114911142D01*
X150725238Y-114815904D01*
X150820476Y-114768285D01*
X151010952Y-114720666D01*
X151153810Y-114720666D01*
X151344286Y-114768285D01*
X151439524Y-114815904D01*
X151534762Y-114911142D01*
X151582381Y-115054000D01*
X151582381Y-115292095D01*
X150677619Y-114339714D02*
X150630000Y-114292095D01*
X150582381Y-114196857D01*
X150582381Y-113958761D01*
X150630000Y-113863523D01*
X150677619Y-113815904D01*
X150772857Y-113768285D01*
X150868095Y-113768285D01*
X151010952Y-113815904D01*
X151582381Y-114387333D01*
X151582381Y-113768285D01*
X149804381Y-115292095D02*
X148804381Y-115292095D01*
X148804381Y-115054000D01*
X148852000Y-114911142D01*
X148947238Y-114815904D01*
X149042476Y-114768285D01*
X149232952Y-114720666D01*
X149375810Y-114720666D01*
X149566286Y-114768285D01*
X149661524Y-114815904D01*
X149756762Y-114911142D01*
X149804381Y-115054000D01*
X149804381Y-115292095D01*
X148804381Y-114387333D02*
X148804381Y-113768285D01*
X149185333Y-114101619D01*
X149185333Y-113958761D01*
X149232952Y-113863523D01*
X149280571Y-113815904D01*
X149375810Y-113768285D01*
X149613905Y-113768285D01*
X149709143Y-113815904D01*
X149756762Y-113863523D01*
X149804381Y-113958761D01*
X149804381Y-114244476D01*
X149756762Y-114339714D01*
X149709143Y-114387333D01*
X148026381Y-115292095D02*
X147026381Y-115292095D01*
X147026381Y-115054000D01*
X147074000Y-114911142D01*
X147169238Y-114815904D01*
X147264476Y-114768285D01*
X147454952Y-114720666D01*
X147597810Y-114720666D01*
X147788286Y-114768285D01*
X147883524Y-114815904D01*
X147978762Y-114911142D01*
X148026381Y-115054000D01*
X148026381Y-115292095D01*
X147359714Y-113863523D02*
X148026381Y-113863523D01*
X146978762Y-114101619D02*
X147693048Y-114339714D01*
X147693048Y-113720666D01*
X120869334Y-99512381D02*
X120393143Y-99512381D01*
X120393143Y-98512381D01*
X121155048Y-98607619D02*
X121202667Y-98560000D01*
X121297905Y-98512381D01*
X121536001Y-98512381D01*
X121631239Y-98560000D01*
X121678858Y-98607619D01*
X121726477Y-98702857D01*
X121726477Y-98798095D01*
X121678858Y-98940952D01*
X121107429Y-99512381D01*
X121726477Y-99512381D01*
X154122381Y-104814666D02*
X153646190Y-105148000D01*
X154122381Y-105386095D02*
X153122381Y-105386095D01*
X153122381Y-105005142D01*
X153170000Y-104909904D01*
X153217619Y-104862285D01*
X153312857Y-104814666D01*
X153455714Y-104814666D01*
X153550952Y-104862285D01*
X153598571Y-104909904D01*
X153646190Y-105005142D01*
X153646190Y-105386095D01*
X154122381Y-103862285D02*
X154122381Y-104433714D01*
X154122381Y-104148000D02*
X153122381Y-104148000D01*
X153265238Y-104243238D01*
X153360476Y-104338476D01*
X153408095Y-104433714D01*
X167219334Y-94432381D02*
X166886000Y-93956190D01*
X166647905Y-94432381D02*
X166647905Y-93432381D01*
X167028858Y-93432381D01*
X167124096Y-93480000D01*
X167171715Y-93527619D01*
X167219334Y-93622857D01*
X167219334Y-93765714D01*
X167171715Y-93860952D01*
X167124096Y-93908571D01*
X167028858Y-93956190D01*
X166647905Y-93956190D01*
X167600286Y-93527619D02*
X167647905Y-93480000D01*
X167743143Y-93432381D01*
X167981239Y-93432381D01*
X168076477Y-93480000D01*
X168124096Y-93527619D01*
X168171715Y-93622857D01*
X168171715Y-93718095D01*
X168124096Y-93860952D01*
X167552667Y-94432381D01*
X168171715Y-94432381D01*
X152344381Y-104814666D02*
X151868190Y-105148000D01*
X152344381Y-105386095D02*
X151344381Y-105386095D01*
X151344381Y-105005142D01*
X151392000Y-104909904D01*
X151439619Y-104862285D01*
X151534857Y-104814666D01*
X151677714Y-104814666D01*
X151772952Y-104862285D01*
X151820571Y-104909904D01*
X151868190Y-105005142D01*
X151868190Y-105386095D01*
X151344381Y-104481333D02*
X151344381Y-103862285D01*
X151725333Y-104195619D01*
X151725333Y-104052761D01*
X151772952Y-103957523D01*
X151820571Y-103909904D01*
X151915810Y-103862285D01*
X152153905Y-103862285D01*
X152249143Y-103909904D01*
X152296762Y-103957523D01*
X152344381Y-104052761D01*
X152344381Y-104338476D01*
X152296762Y-104433714D01*
X152249143Y-104481333D01*
X150566381Y-104814666D02*
X150090190Y-105148000D01*
X150566381Y-105386095D02*
X149566381Y-105386095D01*
X149566381Y-105005142D01*
X149614000Y-104909904D01*
X149661619Y-104862285D01*
X149756857Y-104814666D01*
X149899714Y-104814666D01*
X149994952Y-104862285D01*
X150042571Y-104909904D01*
X150090190Y-105005142D01*
X150090190Y-105386095D01*
X149899714Y-103957523D02*
X150566381Y-103957523D01*
X149518762Y-104195619D02*
X150233048Y-104433714D01*
X150233048Y-103814666D01*
X148788381Y-104814666D02*
X148312190Y-105148000D01*
X148788381Y-105386095D02*
X147788381Y-105386095D01*
X147788381Y-105005142D01*
X147836000Y-104909904D01*
X147883619Y-104862285D01*
X147978857Y-104814666D01*
X148121714Y-104814666D01*
X148216952Y-104862285D01*
X148264571Y-104909904D01*
X148312190Y-105005142D01*
X148312190Y-105386095D01*
X147788381Y-103909904D02*
X147788381Y-104386095D01*
X148264571Y-104433714D01*
X148216952Y-104386095D01*
X148169333Y-104290857D01*
X148169333Y-104052761D01*
X148216952Y-103957523D01*
X148264571Y-103909904D01*
X148359810Y-103862285D01*
X148597905Y-103862285D01*
X148693143Y-103909904D01*
X148740762Y-103957523D01*
X148788381Y-104052761D01*
X148788381Y-104290857D01*
X148740762Y-104386095D01*
X148693143Y-104433714D01*
X171405334Y-99512381D02*
X171072000Y-99036190D01*
X170833905Y-99512381D02*
X170833905Y-98512381D01*
X171214858Y-98512381D01*
X171310096Y-98560000D01*
X171357715Y-98607619D01*
X171405334Y-98702857D01*
X171405334Y-98845714D01*
X171357715Y-98940952D01*
X171310096Y-98988571D01*
X171214858Y-99036190D01*
X170833905Y-99036190D01*
X172262477Y-98512381D02*
X172072000Y-98512381D01*
X171976762Y-98560000D01*
X171929143Y-98607619D01*
X171833905Y-98750476D01*
X171786286Y-98940952D01*
X171786286Y-99321905D01*
X171833905Y-99417143D01*
X171881524Y-99464762D01*
X171976762Y-99512381D01*
X172167239Y-99512381D01*
X172262477Y-99464762D01*
X172310096Y-99417143D01*
X172357715Y-99321905D01*
X172357715Y-99083810D01*
X172310096Y-98988571D01*
X172262477Y-98940952D01*
X172167239Y-98893333D01*
X171976762Y-98893333D01*
X171881524Y-98940952D01*
X171833905Y-98988571D01*
X171786286Y-99083810D01*
X150963334Y-85796381D02*
X150630000Y-85320190D01*
X150391905Y-85796381D02*
X150391905Y-84796381D01*
X150772858Y-84796381D01*
X150868096Y-84844000D01*
X150915715Y-84891619D01*
X150963334Y-84986857D01*
X150963334Y-85129714D01*
X150915715Y-85224952D01*
X150868096Y-85272571D01*
X150772858Y-85320190D01*
X150391905Y-85320190D01*
X151296667Y-84796381D02*
X151963334Y-84796381D01*
X151534762Y-85796381D01*
X132532381Y-105830666D02*
X132056190Y-106164000D01*
X132532381Y-106402095D02*
X131532381Y-106402095D01*
X131532381Y-106021142D01*
X131580000Y-105925904D01*
X131627619Y-105878285D01*
X131722857Y-105830666D01*
X131865714Y-105830666D01*
X131960952Y-105878285D01*
X132008571Y-105925904D01*
X132056190Y-106021142D01*
X132056190Y-106402095D01*
X131960952Y-105259238D02*
X131913333Y-105354476D01*
X131865714Y-105402095D01*
X131770476Y-105449714D01*
X131722857Y-105449714D01*
X131627619Y-105402095D01*
X131580000Y-105354476D01*
X131532381Y-105259238D01*
X131532381Y-105068761D01*
X131580000Y-104973523D01*
X131627619Y-104925904D01*
X131722857Y-104878285D01*
X131770476Y-104878285D01*
X131865714Y-104925904D01*
X131913333Y-104973523D01*
X131960952Y-105068761D01*
X131960952Y-105259238D01*
X132008571Y-105354476D01*
X132056190Y-105402095D01*
X132151429Y-105449714D01*
X132341905Y-105449714D01*
X132437143Y-105402095D01*
X132484762Y-105354476D01*
X132532381Y-105259238D01*
X132532381Y-105068761D01*
X132484762Y-104973523D01*
X132437143Y-104925904D01*
X132341905Y-104878285D01*
X132151429Y-104878285D01*
X132056190Y-104925904D01*
X132008571Y-104973523D01*
X131960952Y-105068761D01*
X134056381Y-88050666D02*
X133580190Y-88384000D01*
X134056381Y-88622095D02*
X133056381Y-88622095D01*
X133056381Y-88241142D01*
X133104000Y-88145904D01*
X133151619Y-88098285D01*
X133246857Y-88050666D01*
X133389714Y-88050666D01*
X133484952Y-88098285D01*
X133532571Y-88145904D01*
X133580190Y-88241142D01*
X133580190Y-88622095D01*
X134056381Y-87574476D02*
X134056381Y-87384000D01*
X134008762Y-87288761D01*
X133961143Y-87241142D01*
X133818286Y-87145904D01*
X133627810Y-87098285D01*
X133246857Y-87098285D01*
X133151619Y-87145904D01*
X133104000Y-87193523D01*
X133056381Y-87288761D01*
X133056381Y-87479238D01*
X133104000Y-87574476D01*
X133151619Y-87622095D01*
X133246857Y-87669714D01*
X133484952Y-87669714D01*
X133580190Y-87622095D01*
X133627810Y-87574476D01*
X133675429Y-87479238D01*
X133675429Y-87288761D01*
X133627810Y-87193523D01*
X133580190Y-87145904D01*
X133484952Y-87098285D01*
X164965143Y-90876381D02*
X164631809Y-90400190D01*
X164393714Y-90876381D02*
X164393714Y-89876381D01*
X164774667Y-89876381D01*
X164869905Y-89924000D01*
X164917524Y-89971619D01*
X164965143Y-90066857D01*
X164965143Y-90209714D01*
X164917524Y-90304952D01*
X164869905Y-90352571D01*
X164774667Y-90400190D01*
X164393714Y-90400190D01*
X165917524Y-90876381D02*
X165346095Y-90876381D01*
X165631809Y-90876381D02*
X165631809Y-89876381D01*
X165536571Y-90019238D01*
X165441333Y-90114476D01*
X165346095Y-90162095D01*
X166536571Y-89876381D02*
X166631810Y-89876381D01*
X166727048Y-89924000D01*
X166774667Y-89971619D01*
X166822286Y-90066857D01*
X166869905Y-90257333D01*
X166869905Y-90495429D01*
X166822286Y-90685905D01*
X166774667Y-90781143D01*
X166727048Y-90828762D01*
X166631810Y-90876381D01*
X166536571Y-90876381D01*
X166441333Y-90828762D01*
X166393714Y-90781143D01*
X166346095Y-90685905D01*
X166298476Y-90495429D01*
X166298476Y-90257333D01*
X166346095Y-90066857D01*
X166393714Y-89971619D01*
X166441333Y-89924000D01*
X166536571Y-89876381D01*
X150355143Y-90368381D02*
X150021809Y-89892190D01*
X149783714Y-90368381D02*
X149783714Y-89368381D01*
X150164667Y-89368381D01*
X150259905Y-89416000D01*
X150307524Y-89463619D01*
X150355143Y-89558857D01*
X150355143Y-89701714D01*
X150307524Y-89796952D01*
X150259905Y-89844571D01*
X150164667Y-89892190D01*
X149783714Y-89892190D01*
X151307524Y-90368381D02*
X150736095Y-90368381D01*
X151021809Y-90368381D02*
X151021809Y-89368381D01*
X150926571Y-89511238D01*
X150831333Y-89606476D01*
X150736095Y-89654095D01*
X152259905Y-90368381D02*
X151688476Y-90368381D01*
X151974190Y-90368381D02*
X151974190Y-89368381D01*
X151878952Y-89511238D01*
X151783714Y-89606476D01*
X151688476Y-89654095D01*
X145153143Y-102306381D02*
X144819809Y-101830190D01*
X144581714Y-102306381D02*
X144581714Y-101306381D01*
X144962667Y-101306381D01*
X145057905Y-101354000D01*
X145105524Y-101401619D01*
X145153143Y-101496857D01*
X145153143Y-101639714D01*
X145105524Y-101734952D01*
X145057905Y-101782571D01*
X144962667Y-101830190D01*
X144581714Y-101830190D01*
X146105524Y-102306381D02*
X145534095Y-102306381D01*
X145819809Y-102306381D02*
X145819809Y-101306381D01*
X145724571Y-101449238D01*
X145629333Y-101544476D01*
X145534095Y-101592095D01*
X146486476Y-101401619D02*
X146534095Y-101354000D01*
X146629333Y-101306381D01*
X146867429Y-101306381D01*
X146962667Y-101354000D01*
X147010286Y-101401619D01*
X147057905Y-101496857D01*
X147057905Y-101592095D01*
X147010286Y-101734952D01*
X146438857Y-102306381D01*
X147057905Y-102306381D01*
X145153143Y-103830381D02*
X144819809Y-103354190D01*
X144581714Y-103830381D02*
X144581714Y-102830381D01*
X144962667Y-102830381D01*
X145057905Y-102878000D01*
X145105524Y-102925619D01*
X145153143Y-103020857D01*
X145153143Y-103163714D01*
X145105524Y-103258952D01*
X145057905Y-103306571D01*
X144962667Y-103354190D01*
X144581714Y-103354190D01*
X146105524Y-103830381D02*
X145534095Y-103830381D01*
X145819809Y-103830381D02*
X145819809Y-102830381D01*
X145724571Y-102973238D01*
X145629333Y-103068476D01*
X145534095Y-103116095D01*
X146438857Y-102830381D02*
X147057905Y-102830381D01*
X146724571Y-103211333D01*
X146867429Y-103211333D01*
X146962667Y-103258952D01*
X147010286Y-103306571D01*
X147057905Y-103401810D01*
X147057905Y-103639905D01*
X147010286Y-103735143D01*
X146962667Y-103782762D01*
X146867429Y-103830381D01*
X146581714Y-103830381D01*
X146486476Y-103782762D01*
X146438857Y-103735143D01*
X179522381Y-115704857D02*
X179046190Y-116038191D01*
X179522381Y-116276286D02*
X178522381Y-116276286D01*
X178522381Y-115895333D01*
X178570000Y-115800095D01*
X178617619Y-115752476D01*
X178712857Y-115704857D01*
X178855714Y-115704857D01*
X178950952Y-115752476D01*
X178998571Y-115800095D01*
X179046190Y-115895333D01*
X179046190Y-116276286D01*
X179522381Y-114752476D02*
X179522381Y-115323905D01*
X179522381Y-115038191D02*
X178522381Y-115038191D01*
X178665238Y-115133429D01*
X178760476Y-115228667D01*
X178808095Y-115323905D01*
X178855714Y-113895333D02*
X179522381Y-113895333D01*
X178474762Y-114133429D02*
X179189048Y-114371524D01*
X179189048Y-113752476D01*
X171569143Y-89352381D02*
X171235809Y-88876190D01*
X170997714Y-89352381D02*
X170997714Y-88352381D01*
X171378667Y-88352381D01*
X171473905Y-88400000D01*
X171521524Y-88447619D01*
X171569143Y-88542857D01*
X171569143Y-88685714D01*
X171521524Y-88780952D01*
X171473905Y-88828571D01*
X171378667Y-88876190D01*
X170997714Y-88876190D01*
X172521524Y-89352381D02*
X171950095Y-89352381D01*
X172235809Y-89352381D02*
X172235809Y-88352381D01*
X172140571Y-88495238D01*
X172045333Y-88590476D01*
X171950095Y-88638095D01*
X173378667Y-88352381D02*
X173188190Y-88352381D01*
X173092952Y-88400000D01*
X173045333Y-88447619D01*
X172950095Y-88590476D01*
X172902476Y-88780952D01*
X172902476Y-89161905D01*
X172950095Y-89257143D01*
X172997714Y-89304762D01*
X173092952Y-89352381D01*
X173283429Y-89352381D01*
X173378667Y-89304762D01*
X173426286Y-89257143D01*
X173473905Y-89161905D01*
X173473905Y-88923810D01*
X173426286Y-88828571D01*
X173378667Y-88780952D01*
X173283429Y-88733333D01*
X173092952Y-88733333D01*
X172997714Y-88780952D01*
X172950095Y-88828571D01*
X172902476Y-88923810D01*
X175672762Y-89193619D02*
X175577524Y-89146000D01*
X175482286Y-89050762D01*
X175339429Y-88907905D01*
X175244190Y-88860286D01*
X175148952Y-88860286D01*
X175196571Y-89098381D02*
X175101333Y-89050762D01*
X175006095Y-88955524D01*
X174958476Y-88765048D01*
X174958476Y-88431714D01*
X175006095Y-88241238D01*
X175101333Y-88146000D01*
X175196571Y-88098381D01*
X175387048Y-88098381D01*
X175482286Y-88146000D01*
X175577524Y-88241238D01*
X175625143Y-88431714D01*
X175625143Y-88765048D01*
X175577524Y-88955524D01*
X175482286Y-89050762D01*
X175387048Y-89098381D01*
X175196571Y-89098381D01*
X176577524Y-89098381D02*
X176006095Y-89098381D01*
X176291809Y-89098381D02*
X176291809Y-88098381D01*
X176196571Y-88241238D01*
X176101333Y-88336476D01*
X176006095Y-88384095D01*
X127849334Y-91035143D02*
X127801715Y-91082762D01*
X127658858Y-91130381D01*
X127563620Y-91130381D01*
X127420762Y-91082762D01*
X127325524Y-90987524D01*
X127277905Y-90892286D01*
X127230286Y-90701810D01*
X127230286Y-90558952D01*
X127277905Y-90368476D01*
X127325524Y-90273238D01*
X127420762Y-90178000D01*
X127563620Y-90130381D01*
X127658858Y-90130381D01*
X127801715Y-90178000D01*
X127849334Y-90225619D01*
X128706477Y-90463714D02*
X128706477Y-91130381D01*
X128468381Y-90082762D02*
X128230286Y-90797048D01*
X128849334Y-90797048D01*
X128373143Y-105830666D02*
X128420762Y-105878285D01*
X128468381Y-106021142D01*
X128468381Y-106116380D01*
X128420762Y-106259238D01*
X128325524Y-106354476D01*
X128230286Y-106402095D01*
X128039810Y-106449714D01*
X127896952Y-106449714D01*
X127706476Y-106402095D01*
X127611238Y-106354476D01*
X127516000Y-106259238D01*
X127468381Y-106116380D01*
X127468381Y-106021142D01*
X127516000Y-105878285D01*
X127563619Y-105830666D01*
X127468381Y-104973523D02*
X127468381Y-105164000D01*
X127516000Y-105259238D01*
X127563619Y-105306857D01*
X127706476Y-105402095D01*
X127896952Y-105449714D01*
X128277905Y-105449714D01*
X128373143Y-105402095D01*
X128420762Y-105354476D01*
X128468381Y-105259238D01*
X128468381Y-105068761D01*
X128420762Y-104973523D01*
X128373143Y-104925904D01*
X128277905Y-104878285D01*
X128039810Y-104878285D01*
X127944571Y-104925904D01*
X127896952Y-104973523D01*
X127849333Y-105068761D01*
X127849333Y-105259238D01*
X127896952Y-105354476D01*
X127944571Y-105402095D01*
X128039810Y-105449714D01*
X136755143Y-94876857D02*
X136802762Y-94924476D01*
X136850381Y-95067333D01*
X136850381Y-95162571D01*
X136802762Y-95305429D01*
X136707524Y-95400667D01*
X136612286Y-95448286D01*
X136421810Y-95495905D01*
X136278952Y-95495905D01*
X136088476Y-95448286D01*
X135993238Y-95400667D01*
X135898000Y-95305429D01*
X135850381Y-95162571D01*
X135850381Y-95067333D01*
X135898000Y-94924476D01*
X135945619Y-94876857D01*
X136850381Y-93924476D02*
X136850381Y-94495905D01*
X136850381Y-94210191D02*
X135850381Y-94210191D01*
X135993238Y-94305429D01*
X136088476Y-94400667D01*
X136136095Y-94495905D01*
X135850381Y-93591143D02*
X135850381Y-92924476D01*
X136850381Y-93353048D01*
X169791143Y-105354381D02*
X169457809Y-104878190D01*
X169219714Y-105354381D02*
X169219714Y-104354381D01*
X169600667Y-104354381D01*
X169695905Y-104402000D01*
X169743524Y-104449619D01*
X169791143Y-104544857D01*
X169791143Y-104687714D01*
X169743524Y-104782952D01*
X169695905Y-104830571D01*
X169600667Y-104878190D01*
X169219714Y-104878190D01*
X170743524Y-105354381D02*
X170172095Y-105354381D01*
X170457809Y-105354381D02*
X170457809Y-104354381D01*
X170362571Y-104497238D01*
X170267333Y-104592476D01*
X170172095Y-104640095D01*
X171076857Y-104354381D02*
X171743524Y-104354381D01*
X171314952Y-105354381D01*
X169791143Y-103322381D02*
X169457809Y-102846190D01*
X169219714Y-103322381D02*
X169219714Y-102322381D01*
X169600667Y-102322381D01*
X169695905Y-102370000D01*
X169743524Y-102417619D01*
X169791143Y-102512857D01*
X169791143Y-102655714D01*
X169743524Y-102750952D01*
X169695905Y-102798571D01*
X169600667Y-102846190D01*
X169219714Y-102846190D01*
X170743524Y-103322381D02*
X170172095Y-103322381D01*
X170457809Y-103322381D02*
X170457809Y-102322381D01*
X170362571Y-102465238D01*
X170267333Y-102560476D01*
X170172095Y-102608095D01*
X171314952Y-102750952D02*
X171219714Y-102703333D01*
X171172095Y-102655714D01*
X171124476Y-102560476D01*
X171124476Y-102512857D01*
X171172095Y-102417619D01*
X171219714Y-102370000D01*
X171314952Y-102322381D01*
X171505429Y-102322381D01*
X171600667Y-102370000D01*
X171648286Y-102417619D01*
X171695905Y-102512857D01*
X171695905Y-102560476D01*
X171648286Y-102655714D01*
X171600667Y-102703333D01*
X171505429Y-102750952D01*
X171314952Y-102750952D01*
X171219714Y-102798571D01*
X171172095Y-102846190D01*
X171124476Y-102941429D01*
X171124476Y-103131905D01*
X171172095Y-103227143D01*
X171219714Y-103274762D01*
X171314952Y-103322381D01*
X171505429Y-103322381D01*
X171600667Y-103274762D01*
X171648286Y-103227143D01*
X171695905Y-103131905D01*
X171695905Y-102941429D01*
X171648286Y-102846190D01*
X171600667Y-102798571D01*
X171505429Y-102750952D01*
X140819143Y-108592857D02*
X140866762Y-108640476D01*
X140914381Y-108783333D01*
X140914381Y-108878571D01*
X140866762Y-109021429D01*
X140771524Y-109116667D01*
X140676286Y-109164286D01*
X140485810Y-109211905D01*
X140342952Y-109211905D01*
X140152476Y-109164286D01*
X140057238Y-109116667D01*
X139962000Y-109021429D01*
X139914381Y-108878571D01*
X139914381Y-108783333D01*
X139962000Y-108640476D01*
X140009619Y-108592857D01*
X140009619Y-108211905D02*
X139962000Y-108164286D01*
X139914381Y-108069048D01*
X139914381Y-107830952D01*
X139962000Y-107735714D01*
X140009619Y-107688095D01*
X140104857Y-107640476D01*
X140200095Y-107640476D01*
X140342952Y-107688095D01*
X140914381Y-108259524D01*
X140914381Y-107640476D01*
X139914381Y-107307143D02*
X139914381Y-106688095D01*
X140295333Y-107021429D01*
X140295333Y-106878571D01*
X140342952Y-106783333D01*
X140390571Y-106735714D01*
X140485810Y-106688095D01*
X140723905Y-106688095D01*
X140819143Y-106735714D01*
X140866762Y-106783333D01*
X140914381Y-106878571D01*
X140914381Y-107164286D01*
X140866762Y-107259524D01*
X140819143Y-107307143D01*
X160377143Y-107576857D02*
X160424762Y-107624476D01*
X160472381Y-107767333D01*
X160472381Y-107862571D01*
X160424762Y-108005429D01*
X160329524Y-108100667D01*
X160234286Y-108148286D01*
X160043810Y-108195905D01*
X159900952Y-108195905D01*
X159710476Y-108148286D01*
X159615238Y-108100667D01*
X159520000Y-108005429D01*
X159472381Y-107862571D01*
X159472381Y-107767333D01*
X159520000Y-107624476D01*
X159567619Y-107576857D01*
X159567619Y-107195905D02*
X159520000Y-107148286D01*
X159472381Y-107053048D01*
X159472381Y-106814952D01*
X159520000Y-106719714D01*
X159567619Y-106672095D01*
X159662857Y-106624476D01*
X159758095Y-106624476D01*
X159900952Y-106672095D01*
X160472381Y-107243524D01*
X160472381Y-106624476D01*
X159472381Y-105719714D02*
X159472381Y-106195905D01*
X159948571Y-106243524D01*
X159900952Y-106195905D01*
X159853333Y-106100667D01*
X159853333Y-105862571D01*
X159900952Y-105767333D01*
X159948571Y-105719714D01*
X160043810Y-105672095D01*
X160281905Y-105672095D01*
X160377143Y-105719714D01*
X160424762Y-105767333D01*
X160472381Y-105862571D01*
X160472381Y-106100667D01*
X160424762Y-106195905D01*
X160377143Y-106243524D01*
X178157143Y-110370857D02*
X178204762Y-110418476D01*
X178252381Y-110561333D01*
X178252381Y-110656571D01*
X178204762Y-110799429D01*
X178109524Y-110894667D01*
X178014286Y-110942286D01*
X177823810Y-110989905D01*
X177680952Y-110989905D01*
X177490476Y-110942286D01*
X177395238Y-110894667D01*
X177300000Y-110799429D01*
X177252381Y-110656571D01*
X177252381Y-110561333D01*
X177300000Y-110418476D01*
X177347619Y-110370857D01*
X177347619Y-109989905D02*
X177300000Y-109942286D01*
X177252381Y-109847048D01*
X177252381Y-109608952D01*
X177300000Y-109513714D01*
X177347619Y-109466095D01*
X177442857Y-109418476D01*
X177538095Y-109418476D01*
X177680952Y-109466095D01*
X178252381Y-110037524D01*
X178252381Y-109418476D01*
X177680952Y-108847048D02*
X177633333Y-108942286D01*
X177585714Y-108989905D01*
X177490476Y-109037524D01*
X177442857Y-109037524D01*
X177347619Y-108989905D01*
X177300000Y-108942286D01*
X177252381Y-108847048D01*
X177252381Y-108656571D01*
X177300000Y-108561333D01*
X177347619Y-108513714D01*
X177442857Y-108466095D01*
X177490476Y-108466095D01*
X177585714Y-108513714D01*
X177633333Y-108561333D01*
X177680952Y-108656571D01*
X177680952Y-108847048D01*
X177728571Y-108942286D01*
X177776190Y-108989905D01*
X177871429Y-109037524D01*
X178061905Y-109037524D01*
X178157143Y-108989905D01*
X178204762Y-108942286D01*
X178252381Y-108847048D01*
X178252381Y-108656571D01*
X178204762Y-108561333D01*
X178157143Y-108513714D01*
X178061905Y-108466095D01*
X177871429Y-108466095D01*
X177776190Y-108513714D01*
X177728571Y-108561333D01*
X177680952Y-108656571D01*
X174950381Y-116562095D02*
X173950381Y-116562095D01*
X173950381Y-116324000D01*
X173998000Y-116181142D01*
X174093238Y-116085904D01*
X174188476Y-116038285D01*
X174378952Y-115990666D01*
X174521810Y-115990666D01*
X174712286Y-116038285D01*
X174807524Y-116085904D01*
X174902762Y-116181142D01*
X174950381Y-116324000D01*
X174950381Y-116562095D01*
X173950381Y-115085904D02*
X173950381Y-115562095D01*
X174426571Y-115609714D01*
X174378952Y-115562095D01*
X174331333Y-115466857D01*
X174331333Y-115228761D01*
X174378952Y-115133523D01*
X174426571Y-115085904D01*
X174521810Y-115038285D01*
X174759905Y-115038285D01*
X174855143Y-115085904D01*
X174902762Y-115133523D01*
X174950381Y-115228761D01*
X174950381Y-115466857D01*
X174902762Y-115562095D01*
X174855143Y-115609714D01*
X174696381Y-96400857D02*
X174220190Y-96734191D01*
X174696381Y-96972286D02*
X173696381Y-96972286D01*
X173696381Y-96591333D01*
X173744000Y-96496095D01*
X173791619Y-96448476D01*
X173886857Y-96400857D01*
X174029714Y-96400857D01*
X174124952Y-96448476D01*
X174172571Y-96496095D01*
X174220190Y-96591333D01*
X174220190Y-96972286D01*
X174696381Y-95448476D02*
X174696381Y-96019905D01*
X174696381Y-95734191D02*
X173696381Y-95734191D01*
X173839238Y-95829429D01*
X173934476Y-95924667D01*
X173982095Y-96019905D01*
X174696381Y-94972286D02*
X174696381Y-94781810D01*
X174648762Y-94686571D01*
X174601143Y-94638952D01*
X174458286Y-94543714D01*
X174267810Y-94496095D01*
X173886857Y-94496095D01*
X173791619Y-94543714D01*
X173744000Y-94591333D01*
X173696381Y-94686571D01*
X173696381Y-94877048D01*
X173744000Y-94972286D01*
X173791619Y-95019905D01*
X173886857Y-95067524D01*
X174124952Y-95067524D01*
X174220190Y-95019905D01*
X174267810Y-94972286D01*
X174315429Y-94877048D01*
X174315429Y-94686571D01*
X174267810Y-94591333D01*
X174220190Y-94543714D01*
X174124952Y-94496095D01*
X171807143Y-81414857D02*
X171854762Y-81462476D01*
X171902381Y-81605333D01*
X171902381Y-81700571D01*
X171854762Y-81843429D01*
X171759524Y-81938667D01*
X171664286Y-81986286D01*
X171473810Y-82033905D01*
X171330952Y-82033905D01*
X171140476Y-81986286D01*
X171045238Y-81938667D01*
X170950000Y-81843429D01*
X170902381Y-81700571D01*
X170902381Y-81605333D01*
X170950000Y-81462476D01*
X170997619Y-81414857D01*
X170997619Y-81033905D02*
X170950000Y-80986286D01*
X170902381Y-80891048D01*
X170902381Y-80652952D01*
X170950000Y-80557714D01*
X170997619Y-80510095D01*
X171092857Y-80462476D01*
X171188095Y-80462476D01*
X171330952Y-80510095D01*
X171902381Y-81081524D01*
X171902381Y-80462476D01*
X171235714Y-79605333D02*
X171902381Y-79605333D01*
X170854762Y-79843429D02*
X171569048Y-80081524D01*
X171569048Y-79462476D01*
X181125905Y-110180381D02*
X181125905Y-109180381D01*
X181506858Y-109180381D01*
X181602096Y-109228000D01*
X181649715Y-109275619D01*
X181697334Y-109370857D01*
X181697334Y-109513714D01*
X181649715Y-109608952D01*
X181602096Y-109656571D01*
X181506858Y-109704190D01*
X181125905Y-109704190D01*
X182554477Y-109180381D02*
X182364000Y-109180381D01*
X182268762Y-109228000D01*
X182221143Y-109275619D01*
X182125905Y-109418476D01*
X182078286Y-109608952D01*
X182078286Y-109989905D01*
X182125905Y-110085143D01*
X182173524Y-110132762D01*
X182268762Y-110180381D01*
X182459239Y-110180381D01*
X182554477Y-110132762D01*
X182602096Y-110085143D01*
X182649715Y-109989905D01*
X182649715Y-109751810D01*
X182602096Y-109656571D01*
X182554477Y-109608952D01*
X182459239Y-109561333D01*
X182268762Y-109561333D01*
X182173524Y-109608952D01*
X182125905Y-109656571D01*
X182078286Y-109751810D01*
X169870381Y-120118095D02*
X168870381Y-120118095D01*
X168870381Y-119737142D01*
X168918000Y-119641904D01*
X168965619Y-119594285D01*
X169060857Y-119546666D01*
X169203714Y-119546666D01*
X169298952Y-119594285D01*
X169346571Y-119641904D01*
X169394190Y-119737142D01*
X169394190Y-120118095D01*
X169298952Y-118975238D02*
X169251333Y-119070476D01*
X169203714Y-119118095D01*
X169108476Y-119165714D01*
X169060857Y-119165714D01*
X168965619Y-119118095D01*
X168918000Y-119070476D01*
X168870381Y-118975238D01*
X168870381Y-118784761D01*
X168918000Y-118689523D01*
X168965619Y-118641904D01*
X169060857Y-118594285D01*
X169108476Y-118594285D01*
X169203714Y-118641904D01*
X169251333Y-118689523D01*
X169298952Y-118784761D01*
X169298952Y-118975238D01*
X169346571Y-119070476D01*
X169394190Y-119118095D01*
X169489429Y-119165714D01*
X169679905Y-119165714D01*
X169775143Y-119118095D01*
X169822762Y-119070476D01*
X169870381Y-118975238D01*
X169870381Y-118784761D01*
X169822762Y-118689523D01*
X169775143Y-118641904D01*
X169679905Y-118594285D01*
X169489429Y-118594285D01*
X169394190Y-118641904D01*
X169346571Y-118689523D01*
X169298952Y-118784761D01*
X159035809Y-77446190D02*
X159035809Y-77922381D01*
X158702476Y-76922381D02*
X159035809Y-77446190D01*
X159369143Y-76922381D01*
X160226286Y-77922381D02*
X159654857Y-77922381D01*
X159940571Y-77922381D02*
X159940571Y-76922381D01*
X159845333Y-77065238D01*
X159750095Y-77160476D01*
X159654857Y-77208095D01*
X142779809Y-77446190D02*
X142779809Y-77922381D01*
X142446476Y-76922381D02*
X142779809Y-77446190D01*
X143113143Y-76922381D01*
X143351238Y-76922381D02*
X143970286Y-76922381D01*
X143636952Y-77303333D01*
X143779810Y-77303333D01*
X143875048Y-77350952D01*
X143922667Y-77398571D01*
X143970286Y-77493810D01*
X143970286Y-77731905D01*
X143922667Y-77827143D01*
X143875048Y-77874762D01*
X143779810Y-77922381D01*
X143494095Y-77922381D01*
X143398857Y-77874762D01*
X143351238Y-77827143D01*
X116784381Y-117832095D02*
X115784381Y-117832095D01*
X115784381Y-117451142D01*
X115832000Y-117355904D01*
X115879619Y-117308285D01*
X115974857Y-117260666D01*
X116117714Y-117260666D01*
X116212952Y-117308285D01*
X116260571Y-117355904D01*
X116308190Y-117451142D01*
X116308190Y-117832095D01*
X115784381Y-116927333D02*
X115784381Y-116308285D01*
X116165333Y-116641619D01*
X116165333Y-116498761D01*
X116212952Y-116403523D01*
X116260571Y-116355904D01*
X116355810Y-116308285D01*
X116593905Y-116308285D01*
X116689143Y-116355904D01*
X116736762Y-116403523D01*
X116784381Y-116498761D01*
X116784381Y-116784476D01*
X116736762Y-116879714D01*
X116689143Y-116927333D01*
X126944381Y-117832095D02*
X125944381Y-117832095D01*
X125944381Y-117451142D01*
X125992000Y-117355904D01*
X126039619Y-117308285D01*
X126134857Y-117260666D01*
X126277714Y-117260666D01*
X126372952Y-117308285D01*
X126420571Y-117355904D01*
X126468190Y-117451142D01*
X126468190Y-117832095D01*
X126277714Y-116403523D02*
X126944381Y-116403523D01*
X125896762Y-116641619D02*
X126611048Y-116879714D01*
X126611048Y-116260666D01*
X139644381Y-117832095D02*
X138644381Y-117832095D01*
X138644381Y-117451142D01*
X138692000Y-117355904D01*
X138739619Y-117308285D01*
X138834857Y-117260666D01*
X138977714Y-117260666D01*
X139072952Y-117308285D01*
X139120571Y-117355904D01*
X139168190Y-117451142D01*
X139168190Y-117832095D01*
X138644381Y-116927333D02*
X138644381Y-116260666D01*
X139644381Y-116689238D01*
X165544667Y-115212762D02*
X165687524Y-115260381D01*
X165925620Y-115260381D01*
X166020858Y-115212762D01*
X166068477Y-115165143D01*
X166116096Y-115069905D01*
X166116096Y-114974667D01*
X166068477Y-114879429D01*
X166020858Y-114831810D01*
X165925620Y-114784190D01*
X165735143Y-114736571D01*
X165639905Y-114688952D01*
X165592286Y-114641333D01*
X165544667Y-114546095D01*
X165544667Y-114450857D01*
X165592286Y-114355619D01*
X165639905Y-114308000D01*
X165735143Y-114260381D01*
X165973239Y-114260381D01*
X166116096Y-114308000D01*
X166449429Y-114260381D02*
X166687524Y-115260381D01*
X166878001Y-114546095D01*
X167068477Y-115260381D01*
X167306572Y-114260381D01*
X168211334Y-115260381D02*
X167639905Y-115260381D01*
X167925619Y-115260381D02*
X167925619Y-114260381D01*
X167830381Y-114403238D01*
X167735143Y-114498476D01*
X167639905Y-114546095D01*
X142647345Y-90774131D02*
X142647345Y-91583655D01*
X142694964Y-91678893D01*
X142742583Y-91726512D01*
X142837821Y-91774131D01*
X143028298Y-91774131D01*
X143123536Y-91726512D01*
X143171155Y-91678893D01*
X143218774Y-91583655D01*
X143218774Y-90774131D01*
X143647345Y-90869369D02*
X143694964Y-90821750D01*
X143790202Y-90774131D01*
X144028298Y-90774131D01*
X144123536Y-90821750D01*
X144171155Y-90869369D01*
X144218774Y-90964607D01*
X144218774Y-91059845D01*
X144171155Y-91202702D01*
X143599726Y-91774131D01*
X144218774Y-91774131D01*
M02*
