G04 #@! TF.FileFunction,Copper,L2,Bot,Signal*
%FSLAX46Y46*%
G04 Gerber Fmt 4.6, Leading zero omitted, Abs format (unit mm)*
G04 Created by KiCad (PCBNEW 4.0.4-stable) date 11/24/16 17:28:53*
%MOMM*%
%LPD*%
G01*
G04 APERTURE LIST*
%ADD10C,0.150000*%
%ADD11C,1.798320*%
%ADD12C,1.795780*%
%ADD13R,1.727200X1.727200*%
%ADD14O,1.727200X1.727200*%
%ADD15C,1.000760*%
%ADD16R,1.200000X0.750000*%
%ADD17R,2.032000X2.032000*%
%ADD18O,2.032000X2.032000*%
%ADD19R,1.727200X2.032000*%
%ADD20O,1.727200X2.032000*%
%ADD21C,1.501140*%
%ADD22C,0.500000*%
%ADD23C,0.600000*%
%ADD24C,0.250000*%
%ADD25C,0.500000*%
%ADD26C,0.600000*%
%ADD27C,0.300000*%
%ADD28C,0.400000*%
%ADD29C,0.800000*%
%ADD30C,0.375000*%
%ADD31C,0.254000*%
G04 APERTURE END LIST*
D10*
D11*
X110998000Y-97282000D03*
D12*
X113538000Y-94742000D03*
X108458000Y-94742000D03*
X108458000Y-99822000D03*
X113538000Y-99822000D03*
D13*
X184404000Y-92456000D03*
D14*
X184404000Y-94996000D03*
X181864000Y-92456000D03*
X181864000Y-94996000D03*
X179324000Y-92456000D03*
X179324000Y-94996000D03*
D15*
X167132000Y-84340700D03*
X167132000Y-85839300D03*
D16*
X155956000Y-99314000D03*
X157856000Y-99314000D03*
X158364000Y-100838000D03*
X156464000Y-100838000D03*
D17*
X181864000Y-112522000D03*
D18*
X181864000Y-115062000D03*
D19*
X171704000Y-119126000D03*
D20*
X174244000Y-119126000D03*
X176784000Y-119126000D03*
X179324000Y-119126000D03*
X181864000Y-119126000D03*
D21*
X157071060Y-80772000D03*
X161952940Y-80772000D03*
X140815060Y-81280000D03*
X145696940Y-81280000D03*
D16*
X129540000Y-89154000D03*
X127640000Y-89154000D03*
D10*
G36*
X129307399Y-86106931D02*
X128777069Y-85576601D01*
X129625597Y-84728073D01*
X130155927Y-85258403D01*
X129307399Y-86106931D01*
X129307399Y-86106931D01*
G37*
G36*
X130650901Y-84763429D02*
X130120571Y-84233099D01*
X130969099Y-83384571D01*
X131499429Y-83914901D01*
X130650901Y-84763429D01*
X130650901Y-84763429D01*
G37*
D19*
X118872000Y-117094000D03*
D20*
X121412000Y-117094000D03*
X123952000Y-117094000D03*
D19*
X128778000Y-117094000D03*
D20*
X131318000Y-117094000D03*
X133858000Y-117094000D03*
X136398000Y-117094000D03*
D19*
X146558000Y-117094000D03*
D20*
X144018000Y-117094000D03*
X141478000Y-117094000D03*
D22*
X141224000Y-87376000D03*
X139954000Y-88392000D03*
X147066000Y-101854000D03*
X148590000Y-91440000D03*
X151130000Y-98044000D03*
X153670000Y-95504000D03*
D23*
X175006000Y-85344000D03*
X175006000Y-86614000D03*
X139192000Y-111760000D03*
X137414000Y-111760000D03*
X138938000Y-114554000D03*
X135890000Y-113284000D03*
X131064000Y-96286000D03*
X131064000Y-97536000D03*
X132314000Y-97536000D03*
X132314000Y-96286000D03*
X143799000Y-94470500D03*
X143799000Y-95758000D03*
X143799000Y-97045500D03*
X143764000Y-98044000D03*
X142494000Y-98044000D03*
X142511500Y-97045500D03*
X142511500Y-95758000D03*
X142511500Y-94470500D03*
X137160000Y-113284000D03*
X138938000Y-113284000D03*
X114808000Y-113030000D03*
X113538000Y-113030000D03*
X112014000Y-113030000D03*
X110744000Y-113030000D03*
X110744000Y-111506000D03*
X112014000Y-111506000D03*
X113538000Y-111506000D03*
X114808000Y-111506000D03*
X114808000Y-110236000D03*
X113538000Y-110236000D03*
X112014000Y-110236000D03*
X110744000Y-110236000D03*
X110744000Y-108712000D03*
X112014000Y-108712000D03*
X113538000Y-108712000D03*
X114808000Y-108712000D03*
X121158000Y-89154000D03*
X122174000Y-89154000D03*
X121158000Y-87122000D03*
X121158000Y-86106000D03*
X121158000Y-88138000D03*
X122174000Y-86106000D03*
X122174000Y-87122000D03*
X122174000Y-88138000D03*
X123444000Y-89154000D03*
X123444000Y-88138000D03*
X123444000Y-87122000D03*
X123444000Y-86106000D03*
X124460000Y-86106000D03*
X124460000Y-87122000D03*
X124460000Y-88138000D03*
X124460000Y-89154000D03*
X149860000Y-80518000D03*
X150876000Y-80518000D03*
X151892000Y-80518000D03*
X152908000Y-80518000D03*
X152908000Y-79502000D03*
X151892000Y-79502000D03*
X150876000Y-79502000D03*
X149860000Y-79502000D03*
X185674000Y-119888000D03*
X185674000Y-118872000D03*
X185674000Y-117856000D03*
X185674000Y-115316000D03*
X185674000Y-114300000D03*
X185674000Y-113284000D03*
X185674000Y-112268000D03*
X155194000Y-115062000D03*
X156464000Y-115062000D03*
X157734000Y-115062000D03*
X159004000Y-115062000D03*
X159004000Y-114046000D03*
X157734000Y-114046000D03*
X156464000Y-114046000D03*
X155194000Y-114046000D03*
X120650000Y-103592000D03*
X123444000Y-103592000D03*
X122174000Y-103592000D03*
X119634000Y-103592000D03*
X171958000Y-100838000D03*
X172974000Y-100838000D03*
X173736000Y-100838000D03*
X174752000Y-100838000D03*
X174752000Y-99822000D03*
X173736000Y-99822000D03*
X172974000Y-99822000D03*
X171958000Y-99822000D03*
X133604000Y-86106000D03*
X134874000Y-86106000D03*
X134874000Y-86868000D03*
X133604000Y-86868000D03*
X154386001Y-91394001D03*
X155448000Y-92456000D03*
X159577991Y-94234000D03*
X159577991Y-94996000D03*
X168910000Y-83312000D03*
X162052000Y-87122000D03*
X162052000Y-92456000D03*
X153924000Y-91694000D03*
X154940000Y-92964000D03*
X176784000Y-79756000D03*
X176784000Y-80518000D03*
X177800000Y-83566000D03*
X178816000Y-83566000D03*
X145542000Y-104394000D03*
X144526000Y-104394000D03*
X146050000Y-101854000D03*
X145288000Y-101854000D03*
X156972000Y-98133000D03*
X154178000Y-99633000D03*
X157988000Y-88646000D03*
X155956000Y-88646000D03*
X151384000Y-84074000D03*
X170180000Y-92202000D03*
X168148000Y-88646000D03*
X162814000Y-105918000D03*
X160528000Y-93726000D03*
X155888712Y-98357860D03*
X160020000Y-99568000D03*
X136652000Y-95250000D03*
X136652000Y-94488000D03*
X136652000Y-93726000D03*
X148844000Y-99314000D03*
X139446000Y-101092000D03*
X139700000Y-91440000D03*
X144272000Y-91186000D03*
X142280250Y-91186000D03*
X139446000Y-101854000D03*
X139446000Y-102616000D03*
X155248914Y-109528914D03*
X173482000Y-93980000D03*
X174244000Y-97536000D03*
X158242000Y-104648000D03*
X147066000Y-104648000D03*
X159238000Y-105156000D03*
X146029854Y-106949806D03*
X146050000Y-108204000D03*
X161036000Y-103236000D03*
X145542000Y-109220000D03*
X162814000Y-103124000D03*
X184150000Y-84328000D03*
X185166000Y-84328000D03*
X169926000Y-107188000D03*
X169418000Y-106426000D03*
X184658000Y-85090000D03*
X170180000Y-106426000D03*
X163964011Y-105918000D03*
X161290000Y-94234000D03*
X165862000Y-97536000D03*
X161544000Y-97536000D03*
X156718000Y-92456000D03*
X134874000Y-91948000D03*
X156718000Y-92456000D03*
X144780000Y-89916000D03*
X142240000Y-89916000D03*
X131318000Y-92964000D03*
X157226000Y-93472000D03*
X147066000Y-102808001D03*
X150876000Y-97383000D03*
X155956000Y-95758000D03*
X154432000Y-96266000D03*
X149606000Y-91694000D03*
X152908000Y-88900000D03*
X141732000Y-89154000D03*
X154686000Y-88646000D03*
X141732000Y-88138000D03*
X166527872Y-99055205D03*
X165738263Y-99183737D03*
X166370000Y-100838000D03*
X166878000Y-96520000D03*
X167132000Y-95250000D03*
X167894000Y-94742000D03*
X167894000Y-92964000D03*
X161544000Y-119126000D03*
X134112000Y-100076000D03*
X129540000Y-99060000D03*
X129540000Y-99822000D03*
X129540000Y-93472000D03*
D24*
X137414000Y-111760000D02*
X139192000Y-111760000D01*
X135382000Y-113284000D02*
X135382000Y-111760000D01*
X143799000Y-97045500D02*
X143799000Y-95758000D01*
X142511500Y-97045500D02*
X142511500Y-98280500D01*
X142511500Y-98280500D02*
X142494000Y-98298000D01*
X138938000Y-113284000D02*
X137160000Y-113284000D01*
D25*
X113538000Y-113030000D02*
X114808000Y-113030000D01*
X110744000Y-113030000D02*
X112014000Y-113030000D01*
X112014000Y-111506000D02*
X110744000Y-111506000D01*
X114808000Y-111506000D02*
X113538000Y-111506000D01*
X113538000Y-110236000D02*
X114808000Y-110236000D01*
X110744000Y-110236000D02*
X112014000Y-110236000D01*
X112014000Y-108712000D02*
X110744000Y-108712000D01*
X114808000Y-108712000D02*
X113538000Y-108712000D01*
X122174000Y-86106000D02*
X121158000Y-86106000D01*
X122174000Y-88138000D02*
X122174000Y-87122000D01*
X121158000Y-87122000D02*
X121158000Y-88138000D01*
X123444000Y-87122000D02*
X123444000Y-88138000D01*
X124460000Y-86106000D02*
X123444000Y-86106000D01*
X124460000Y-88138000D02*
X124460000Y-87122000D01*
X126440000Y-89154000D02*
X124460000Y-89154000D01*
X150876000Y-80518000D02*
X149860000Y-80518000D01*
X152908000Y-80518000D02*
X151892000Y-80518000D01*
X151892000Y-79502000D02*
X152908000Y-79502000D01*
X149860000Y-79502000D02*
X150876000Y-79502000D01*
X185674000Y-117856000D02*
X185674000Y-118872000D01*
X185674000Y-114300000D02*
X185674000Y-115316000D01*
X185674000Y-112268000D02*
X185674000Y-113284000D01*
X156464000Y-115062000D02*
X155194000Y-115062000D01*
X159004000Y-115062000D02*
X157734000Y-115062000D01*
X157734000Y-114046000D02*
X159004000Y-114046000D01*
X155194000Y-114046000D02*
X156464000Y-114046000D01*
D26*
X121920000Y-103592000D02*
X122174000Y-103592000D01*
X120650000Y-103592000D02*
X121920000Y-103592000D01*
X171958000Y-100838000D02*
X171958000Y-99822000D01*
X173736000Y-100838000D02*
X172974000Y-100838000D01*
X174752000Y-99822000D02*
X174752000Y-100838000D01*
X172974000Y-99822000D02*
X173736000Y-99822000D01*
X174752000Y-94996000D02*
X171958000Y-97790000D01*
X171958000Y-97790000D02*
X171958000Y-99822000D01*
X179324000Y-94996000D02*
X174752000Y-94996000D01*
X133604000Y-86106000D02*
X133604000Y-86868000D01*
X134874000Y-86868000D02*
X134874000Y-86106000D01*
D27*
X145288000Y-101854000D02*
X146050000Y-101854000D01*
D25*
X177800000Y-83566000D02*
X178816000Y-83566000D01*
D26*
X126440000Y-89154000D02*
X127640000Y-89154000D01*
D24*
X136144000Y-117094000D02*
X136144000Y-116941600D01*
D26*
X155448000Y-92456000D02*
X154386001Y-91394001D01*
X154940000Y-92964000D02*
X154940000Y-92710000D01*
X154940000Y-92710000D02*
X153924000Y-91694000D01*
X159577991Y-94234000D02*
X159577991Y-93492007D01*
X159577991Y-96111007D02*
X159577991Y-94996000D01*
X162052000Y-87122000D02*
X168148000Y-87122000D01*
X168910000Y-86360000D02*
X168910000Y-83312000D01*
X168148000Y-87122000D02*
X168910000Y-86360000D01*
X160613998Y-92456000D02*
X162052000Y-92456000D01*
X157856000Y-99314000D02*
X157856000Y-97832998D01*
X157856000Y-97832998D02*
X159577991Y-96111007D01*
X159577991Y-93492007D02*
X160613998Y-92456000D01*
X156464000Y-100838000D02*
X156464000Y-100706000D01*
X156464000Y-100706000D02*
X157856000Y-99314000D01*
X176784000Y-80518000D02*
X176784000Y-79756000D01*
X178308000Y-81788000D02*
X178308000Y-83566000D01*
X178054000Y-81534000D02*
X178308000Y-81788000D01*
X178054000Y-81026000D02*
X178816000Y-81788000D01*
X176784000Y-79756000D02*
X178054000Y-81026000D01*
X178054000Y-81026000D02*
X178054000Y-81534000D01*
X178816000Y-81788000D02*
X178816000Y-83566000D01*
X177800000Y-83566000D02*
X177800000Y-81534000D01*
X177800000Y-81534000D02*
X176784000Y-80518000D01*
X145034000Y-102616000D02*
X145288000Y-102616000D01*
X145288000Y-102616000D02*
X145542000Y-102362000D01*
X145034000Y-104394000D02*
X145542000Y-104394000D01*
X144526000Y-104394000D02*
X145034000Y-104394000D01*
X145034000Y-104394000D02*
X145034000Y-102616000D01*
X145542000Y-104394000D02*
X145542000Y-102362000D01*
X145542000Y-102362000D02*
X146050000Y-101854000D01*
X144526000Y-104394000D02*
X144526000Y-102616000D01*
X144526000Y-102616000D02*
X145288000Y-101854000D01*
X137414000Y-84028001D02*
X136697999Y-84028001D01*
X151338001Y-84028001D02*
X137414000Y-84028001D01*
X137414000Y-84028001D02*
X137368001Y-84074000D01*
X137368001Y-84074000D02*
X130810000Y-84074000D01*
X136652000Y-84074000D02*
X134620000Y-84074000D01*
X134620000Y-84074000D02*
X130810000Y-84074000D01*
X155956000Y-88646000D02*
X151338001Y-84028001D01*
X136697999Y-84028001D02*
X136652000Y-84074000D01*
D28*
X156972000Y-98133000D02*
X155956000Y-97117000D01*
X155956000Y-97117000D02*
X155956000Y-97113998D01*
D26*
X156511997Y-96558001D02*
X155956000Y-97113998D01*
X155956000Y-97113998D02*
X154178000Y-98891998D01*
X154178000Y-98891998D02*
X154178000Y-99633000D01*
X157988000Y-95504000D02*
X156933999Y-96558001D01*
X156933999Y-96558001D02*
X156511997Y-96558001D01*
X157988000Y-94651002D02*
X157988000Y-95504000D01*
X157988000Y-88646000D02*
X157988000Y-89070264D01*
X158026001Y-94613001D02*
X157988000Y-94651002D01*
X157988000Y-89070264D02*
X158026001Y-89108265D01*
X158026001Y-89108265D02*
X158026001Y-94613001D01*
X157988000Y-88646000D02*
X155956000Y-88646000D01*
X168148000Y-88646000D02*
X157988000Y-88646000D01*
X155956000Y-88646000D02*
X153670000Y-86360000D01*
X168148000Y-91186000D02*
X169164000Y-92202000D01*
X169164000Y-92202000D02*
X170180000Y-92202000D01*
X168148000Y-88646000D02*
X168148000Y-91186000D01*
D27*
X160220002Y-98806000D02*
X163464001Y-102049999D01*
X160528000Y-93726000D02*
X160228001Y-94025999D01*
X160228001Y-94025999D02*
X160228001Y-98798001D01*
X160228001Y-98798001D02*
X160220002Y-98806000D01*
X163464001Y-105013999D02*
X163464001Y-105267999D01*
X163464001Y-105267999D02*
X162814000Y-105918000D01*
X163464001Y-102049999D02*
X163464001Y-105013999D01*
D25*
X155956000Y-99314000D02*
X155956000Y-98425148D01*
X155956000Y-98425148D02*
X155888712Y-98357860D01*
X160020000Y-99568000D02*
X159634000Y-99568000D01*
X159634000Y-99568000D02*
X158364000Y-100838000D01*
X142280250Y-91186000D02*
X144272000Y-91186000D01*
X139700000Y-91440000D02*
X142026250Y-91440000D01*
X142026250Y-91440000D02*
X142280250Y-91186000D01*
D26*
X136652000Y-93726000D02*
X136652000Y-98298000D01*
X136652000Y-98298000D02*
X139446000Y-101092000D01*
X136652000Y-94488000D02*
X136652000Y-95250000D01*
X136652000Y-93726000D02*
X136652000Y-94488000D01*
X148082000Y-99314000D02*
X148844000Y-99314000D01*
X140716000Y-99314000D02*
X148082000Y-99314000D01*
X139446000Y-101092000D02*
X139446000Y-100584000D01*
X139446000Y-100584000D02*
X140716000Y-99314000D01*
X139446000Y-102616000D02*
X139446000Y-101854000D01*
X139446000Y-108458000D02*
X139446000Y-102616000D01*
X140462000Y-109474000D02*
X139446000Y-108458000D01*
X141008008Y-110020008D02*
X140462000Y-109474000D01*
X155248914Y-109528914D02*
X154757820Y-110020008D01*
X154757820Y-110020008D02*
X141008008Y-110020008D01*
D29*
X181864000Y-92456000D02*
X181864000Y-91234686D01*
X181864000Y-91234686D02*
X181053314Y-90424000D01*
X181053314Y-90424000D02*
X177038000Y-90424000D01*
X177038000Y-90424000D02*
X173482000Y-93980000D01*
D27*
X174244000Y-97536000D02*
X180848000Y-97536000D01*
D24*
X180848000Y-97536000D02*
X181864000Y-96520000D01*
X181864000Y-96520000D02*
X181864000Y-94996000D01*
D26*
X147066000Y-104648000D02*
X158242000Y-104648000D01*
D25*
X146029854Y-106949806D02*
X147165650Y-105814010D01*
X147165650Y-105814010D02*
X158579990Y-105814010D01*
X158579990Y-105814010D02*
X158938001Y-105455999D01*
X158938001Y-105455999D02*
X159238000Y-105156000D01*
X146050000Y-108204000D02*
X147739980Y-106514020D01*
X147739980Y-106514020D02*
X158989982Y-106514020D01*
X158989982Y-106514020D02*
X161036000Y-104468002D01*
X161036000Y-104468002D02*
X161036000Y-103660264D01*
X161036000Y-103660264D02*
X161036000Y-103236000D01*
X146267365Y-108024645D02*
X146229355Y-108024645D01*
X146229355Y-108024645D02*
X146050000Y-108204000D01*
D26*
X159028982Y-106564020D02*
X161036000Y-104557002D01*
X161036000Y-104557002D02*
X161036000Y-103236000D01*
X146267365Y-108024645D02*
X147727990Y-106564020D01*
X147727990Y-106564020D02*
X159028982Y-106564020D01*
X162514001Y-104385119D02*
X162514001Y-103423999D01*
X162514001Y-103423999D02*
X162814000Y-103124000D01*
X146304000Y-109220000D02*
X148159970Y-107364030D01*
X148159970Y-107364030D02*
X159535090Y-107364030D01*
X159535090Y-107364030D02*
X162514001Y-104385119D01*
X145542000Y-109220000D02*
X146304000Y-109220000D01*
D27*
X162514001Y-104385119D02*
X159810090Y-107089030D01*
D26*
X169418000Y-107188000D02*
X175260000Y-113030000D01*
X175260000Y-113030000D02*
X175768000Y-113030000D01*
X170180000Y-106426000D02*
X169418000Y-107188000D01*
X169672000Y-106934000D02*
X169926000Y-107188000D01*
X169418000Y-106426000D02*
X169418000Y-106850264D01*
X169418000Y-106850264D02*
X169501736Y-106934000D01*
X169501736Y-106934000D02*
X169672000Y-106934000D01*
X175768000Y-113030000D02*
X181356000Y-113030000D01*
X181356000Y-113030000D02*
X181864000Y-112522000D01*
X170434000Y-107696000D02*
X175768000Y-113030000D01*
X169926000Y-107188000D02*
X175260000Y-112522000D01*
X175260000Y-112522000D02*
X181864000Y-112522000D01*
X169926000Y-107188000D02*
X170434000Y-107696000D01*
X170180000Y-106426000D02*
X170180000Y-106850264D01*
X170180000Y-106850264D02*
X170434000Y-107104264D01*
X170434000Y-107104264D02*
X170434000Y-107696000D01*
X184658000Y-84328000D02*
X185420000Y-85090000D01*
X185420000Y-85090000D02*
X185420000Y-84328000D01*
X185166000Y-85344000D02*
X185420000Y-85090000D01*
X184658000Y-85344000D02*
X185166000Y-85344000D01*
X184658000Y-84836000D02*
X184658000Y-85344000D01*
X169418000Y-96012000D02*
X181356000Y-84074000D01*
X181356000Y-84074000D02*
X185420000Y-84074000D01*
X185420000Y-84074000D02*
X185420000Y-84328000D01*
X169926000Y-107188000D02*
X169926000Y-96520000D01*
X169926000Y-96520000D02*
X169418000Y-96012000D01*
X184658000Y-84328000D02*
X185420000Y-84328000D01*
X181353194Y-84836000D02*
X181610000Y-84836000D01*
X181610000Y-84836000D02*
X184658000Y-84836000D01*
X180848000Y-84582000D02*
X181356000Y-84582000D01*
X181356000Y-84582000D02*
X181610000Y-84836000D01*
X169418000Y-106426000D02*
X169418000Y-96012000D01*
X181610000Y-84328000D02*
X184658000Y-84328000D01*
X169926000Y-107188000D02*
X169926000Y-106680000D01*
X169926000Y-106680000D02*
X170180000Y-106426000D01*
X169418000Y-106426000D02*
X169717999Y-106126001D01*
X170180000Y-106426000D02*
X170180000Y-96009194D01*
X170180000Y-96009194D02*
X181353194Y-84836000D01*
D27*
X161290000Y-94234000D02*
X160893999Y-94630001D01*
X163964011Y-104902000D02*
X163964011Y-105918000D01*
X163964011Y-101842889D02*
X163964011Y-104902000D01*
X160893999Y-98772877D02*
X161181122Y-99060000D01*
X161181122Y-99060000D02*
X163964011Y-101842889D01*
X160893999Y-94630001D02*
X160893999Y-98772877D01*
X161544000Y-97536000D02*
X165862000Y-97536000D01*
X134874000Y-91948000D02*
X136280999Y-90541001D01*
D24*
X136280999Y-90541001D02*
X154178000Y-90541001D01*
D27*
X154178000Y-90541001D02*
X154803001Y-90541001D01*
X154803001Y-90541001D02*
X156718000Y-92456000D01*
D24*
X135225239Y-91596761D02*
X134874000Y-91948000D01*
D25*
X142240000Y-89916000D02*
X144780000Y-89916000D01*
D27*
X131318000Y-92964000D02*
X131617999Y-92664001D01*
X131617999Y-92664001D02*
X153224879Y-92664001D01*
X153224879Y-92664001D02*
X154332877Y-93771999D01*
X154332877Y-93771999D02*
X156926001Y-93771999D01*
X156926001Y-93771999D02*
X157226000Y-93472000D01*
X131617999Y-92664001D02*
X135341002Y-92664001D01*
D24*
X131658997Y-92704999D02*
X131617999Y-92664001D01*
D27*
X153265877Y-92704999D02*
X154166889Y-93606011D01*
X157091989Y-93606011D02*
X157226000Y-93472000D01*
D24*
X147066000Y-101854000D02*
X147066000Y-102808001D01*
X147066000Y-102616000D02*
X147066000Y-102808001D01*
D27*
X147066000Y-101854000D02*
X147066000Y-102616000D01*
X147066000Y-102362000D02*
X147066000Y-102616000D01*
D24*
X151130000Y-98044000D02*
X151130000Y-97653000D01*
X151130000Y-97653000D02*
X150841467Y-97364467D01*
X150876000Y-97399000D02*
X154315000Y-97399000D01*
X150876000Y-97399000D02*
X150841467Y-97364467D01*
X154315000Y-97399000D02*
X155956000Y-95758000D01*
X153670000Y-95504000D02*
X154432000Y-96266000D01*
X149352000Y-91440000D02*
X149606000Y-91694000D01*
X148590000Y-91440000D02*
X149352000Y-91440000D01*
D25*
X141732000Y-89154000D02*
X152654000Y-89154000D01*
X152654000Y-89154000D02*
X152908000Y-88900000D01*
D26*
X139954000Y-88392000D02*
X140716000Y-89154000D01*
X140716000Y-89154000D02*
X141732000Y-89154000D01*
D24*
X152862001Y-88854001D02*
X152908000Y-88900000D01*
D25*
X141732000Y-88138000D02*
X141732000Y-87884000D01*
X141732000Y-87884000D02*
X141224000Y-87376000D01*
X141732000Y-88138000D02*
X154178000Y-88138000D01*
X154178000Y-88138000D02*
X154686000Y-88646000D01*
D30*
X144018000Y-112776000D02*
X144272000Y-112522000D01*
X144018000Y-112268000D02*
X144018000Y-112014000D01*
X144018000Y-112776000D02*
X144018000Y-112268000D01*
D27*
X160344107Y-111170026D02*
X145288000Y-111207528D01*
X145288000Y-111207528D02*
X144861974Y-111207528D01*
D30*
X144018000Y-112268000D02*
X144226497Y-112268000D01*
X144226497Y-112268000D02*
X145286969Y-111207528D01*
X145286969Y-111207528D02*
X145288000Y-111207528D01*
X144018000Y-112014000D02*
X144824472Y-111207528D01*
X144824472Y-111207528D02*
X144861974Y-111207528D01*
D27*
X166527872Y-99479469D02*
X166527872Y-99055205D01*
D26*
X144018000Y-115478000D02*
X144018000Y-112776000D01*
D27*
X166527872Y-99479469D02*
X165089020Y-100918321D01*
X165089020Y-106425113D02*
X160344107Y-111170026D01*
X165089020Y-100918321D02*
X165089020Y-106425113D01*
D26*
X144018000Y-117094000D02*
X144018000Y-115478000D01*
D30*
X141732000Y-112014000D02*
X143002000Y-110744000D01*
X141478000Y-112014000D02*
X141732000Y-112014000D01*
D27*
X165738263Y-99183737D02*
X164589012Y-100332988D01*
X164589012Y-106218001D02*
X160136995Y-110670018D01*
X160136995Y-110670018D02*
X142821982Y-110670018D01*
X142821982Y-110670018D02*
X142748000Y-110744000D01*
X142748000Y-110744000D02*
X141478000Y-112014000D01*
D26*
X141478000Y-117094000D02*
X141478000Y-112014000D01*
D24*
X164589012Y-100332988D02*
X164589012Y-106218001D01*
X171704000Y-112903536D02*
X171704000Y-115570000D01*
D27*
X171704000Y-115570000D02*
X171704000Y-116586000D01*
D26*
X171704000Y-116586000D02*
X171704000Y-119126000D01*
D24*
X166992952Y-108192488D02*
X171576464Y-112776000D01*
X171576464Y-112776000D02*
X171704000Y-112903536D01*
X166992952Y-103517048D02*
X166992952Y-108192488D01*
X166370000Y-100838000D02*
X166992952Y-101460952D01*
X166992952Y-101460952D02*
X166992952Y-103517048D01*
X174244000Y-114807126D02*
X174244000Y-115570000D01*
D27*
X174244000Y-115570000D02*
X174244000Y-116586000D01*
D26*
X174244000Y-116586000D02*
X174244000Y-119126000D01*
D24*
X167442962Y-108006088D02*
X172974874Y-113538000D01*
X172974874Y-113538000D02*
X174244000Y-114807126D01*
X167442962Y-103067038D02*
X167442962Y-108006088D01*
X166878000Y-96520000D02*
X167442962Y-97084962D01*
X167442962Y-97084962D02*
X167442962Y-103067038D01*
D27*
X176022000Y-117048000D02*
X175514000Y-116540000D01*
D26*
X176784000Y-119126000D02*
X176784000Y-117510000D01*
X176784000Y-117510000D02*
X176322000Y-117048000D01*
X176322000Y-117048000D02*
X176022000Y-117048000D01*
D24*
X167892972Y-107819688D02*
X175496323Y-115458393D01*
D27*
X175514000Y-116540000D02*
X175514000Y-115476070D01*
X175514000Y-115476070D02*
X175496323Y-115458393D01*
D24*
X167132000Y-95250000D02*
X167132000Y-95674264D01*
X167132000Y-95674264D02*
X167892972Y-96435236D01*
X167892972Y-96435236D02*
X167892972Y-107819688D01*
X177292000Y-116390076D02*
X177546000Y-116449010D01*
X177041694Y-116332000D02*
X177292000Y-116390076D01*
D30*
X177292000Y-116390076D02*
X178204076Y-116390076D01*
X178204076Y-116390076D02*
X178263010Y-116449010D01*
D26*
X179324000Y-119126000D02*
X179324000Y-117510000D01*
X179324000Y-117510000D02*
X178263010Y-116449010D01*
X179324000Y-119126000D02*
X179324000Y-117856000D01*
D24*
X167894000Y-94742000D02*
X167894000Y-95166264D01*
X167894000Y-95166264D02*
X168342980Y-95615244D01*
X168342980Y-95615244D02*
X168342981Y-107633287D01*
X168342981Y-107633287D02*
X177041694Y-116332000D01*
X168792990Y-107446886D02*
X176547677Y-115166219D01*
D27*
X181864000Y-119126000D02*
X181864000Y-117810000D01*
X181864000Y-117810000D02*
X179624000Y-115570000D01*
X179624000Y-115570000D02*
X176951458Y-115570000D01*
X176951458Y-115570000D02*
X176547677Y-115166219D01*
D26*
X181864000Y-119126000D02*
X181864000Y-118750104D01*
D24*
X167894000Y-92964000D02*
X168792990Y-93862990D01*
X168792990Y-93862990D02*
X168792990Y-107446886D01*
D26*
X129540000Y-87122000D02*
X129540000Y-89022000D01*
X129540000Y-85974000D02*
X129540000Y-87122000D01*
X129540000Y-87122000D02*
X129466498Y-87048498D01*
X129466498Y-87048498D02*
X129466498Y-85417502D01*
X161290000Y-119380000D02*
X161544000Y-119126000D01*
X129448000Y-119380000D02*
X161290000Y-119380000D01*
X128778000Y-118710000D02*
X129448000Y-119380000D01*
X128778000Y-117094000D02*
X128778000Y-118710000D01*
X129540000Y-91186000D02*
X129540000Y-92456000D01*
X129540000Y-92456000D02*
X129540000Y-93472000D01*
X129540000Y-89154000D02*
X129540000Y-92456000D01*
X129540000Y-89022000D02*
X129408000Y-89154000D01*
X129540000Y-99822000D02*
X129540000Y-99060000D01*
X128778000Y-117094000D02*
X128778000Y-100584000D01*
X128778000Y-100584000D02*
X129540000Y-99822000D01*
X133350000Y-100076000D02*
X134112000Y-100076000D01*
X129794000Y-100076000D02*
X133350000Y-100076000D01*
X129540000Y-93472000D02*
X129540000Y-99060000D01*
X129540000Y-99822000D02*
X129794000Y-100076000D01*
D31*
G36*
X185584995Y-77158824D02*
X186586196Y-77827804D01*
X187255175Y-78829005D01*
X187504000Y-80079931D01*
X187504000Y-118040069D01*
X187255175Y-119290995D01*
X186586196Y-120292196D01*
X185584995Y-120961176D01*
X184334069Y-121210000D01*
X108781931Y-121210000D01*
X107531005Y-120961175D01*
X106529804Y-120292196D01*
X105860824Y-119290995D01*
X105612000Y-118040069D01*
X105612000Y-117379750D01*
X117373400Y-117379750D01*
X117373400Y-118236309D01*
X117470073Y-118469698D01*
X117648701Y-118648327D01*
X117882090Y-118745000D01*
X118586250Y-118745000D01*
X118745000Y-118586250D01*
X118745000Y-117221000D01*
X117532150Y-117221000D01*
X117373400Y-117379750D01*
X105612000Y-117379750D01*
X105612000Y-115951691D01*
X117373400Y-115951691D01*
X117373400Y-116808250D01*
X117532150Y-116967000D01*
X118745000Y-116967000D01*
X118745000Y-115601750D01*
X118999000Y-115601750D01*
X118999000Y-116967000D01*
X119019000Y-116967000D01*
X119019000Y-117221000D01*
X118999000Y-117221000D01*
X118999000Y-118586250D01*
X119157750Y-118745000D01*
X119861910Y-118745000D01*
X120095299Y-118648327D01*
X120273927Y-118469698D01*
X120337500Y-118316220D01*
X120352330Y-118338415D01*
X120838511Y-118663271D01*
X121412000Y-118777345D01*
X121985489Y-118663271D01*
X122471670Y-118338415D01*
X122682000Y-118023634D01*
X122892330Y-118338415D01*
X123378511Y-118663271D01*
X123952000Y-118777345D01*
X124525489Y-118663271D01*
X125011670Y-118338415D01*
X125336526Y-117852234D01*
X125450600Y-117278745D01*
X125450600Y-116909255D01*
X125336526Y-116335766D01*
X125164293Y-116078000D01*
X127266960Y-116078000D01*
X127266960Y-118110000D01*
X127311238Y-118345317D01*
X127450310Y-118561441D01*
X127662510Y-118706431D01*
X127849836Y-118744365D01*
X127914173Y-119067809D01*
X128116855Y-119371145D01*
X128786855Y-120041145D01*
X129090191Y-120243827D01*
X129448000Y-120315000D01*
X161290000Y-120315000D01*
X161647809Y-120243827D01*
X161951145Y-120041145D01*
X162204854Y-119787436D01*
X162336192Y-119656327D01*
X162478838Y-119312799D01*
X162479162Y-118940833D01*
X162337117Y-118597057D01*
X162074327Y-118333808D01*
X161730799Y-118191162D01*
X161358833Y-118190838D01*
X161015057Y-118332883D01*
X160902744Y-118445000D01*
X147970157Y-118445000D01*
X148056600Y-118236309D01*
X148056600Y-117379750D01*
X147897850Y-117221000D01*
X146685000Y-117221000D01*
X146685000Y-117241000D01*
X146431000Y-117241000D01*
X146431000Y-117221000D01*
X146411000Y-117221000D01*
X146411000Y-116967000D01*
X146431000Y-116967000D01*
X146431000Y-115601750D01*
X146685000Y-115601750D01*
X146685000Y-116967000D01*
X147897850Y-116967000D01*
X148056600Y-116808250D01*
X148056600Y-115951691D01*
X147959927Y-115718302D01*
X147781299Y-115539673D01*
X147547910Y-115443000D01*
X146843750Y-115443000D01*
X146685000Y-115601750D01*
X146431000Y-115601750D01*
X146272250Y-115443000D01*
X145568090Y-115443000D01*
X145334701Y-115539673D01*
X145156073Y-115718302D01*
X145092500Y-115871780D01*
X145077670Y-115849585D01*
X144953000Y-115766283D01*
X144953000Y-112954826D01*
X145031891Y-112836757D01*
X145084272Y-112573415D01*
X145666098Y-111991589D01*
X160346063Y-111955024D01*
X160495249Y-111924962D01*
X160644514Y-111895271D01*
X160645344Y-111894716D01*
X160646319Y-111894520D01*
X160772585Y-111809697D01*
X160899186Y-111725105D01*
X165644099Y-106980192D01*
X165814265Y-106725520D01*
X165874020Y-106425113D01*
X165874020Y-101644454D01*
X166183201Y-101772838D01*
X166230077Y-101772879D01*
X166232952Y-101775754D01*
X166232952Y-108192488D01*
X166290804Y-108483327D01*
X166455551Y-108729889D01*
X170944000Y-113218338D01*
X170944000Y-115444318D01*
X170919000Y-115570000D01*
X170919000Y-116110218D01*
X170840173Y-116228191D01*
X170769000Y-116586000D01*
X170769000Y-117475995D01*
X170605083Y-117506838D01*
X170388959Y-117645910D01*
X170243969Y-117858110D01*
X170192960Y-118110000D01*
X170192960Y-120142000D01*
X170237238Y-120377317D01*
X170376310Y-120593441D01*
X170588510Y-120738431D01*
X170840400Y-120789440D01*
X172567600Y-120789440D01*
X172802917Y-120745162D01*
X173019041Y-120606090D01*
X173164031Y-120393890D01*
X173172400Y-120352561D01*
X173184330Y-120370415D01*
X173670511Y-120695271D01*
X174244000Y-120809345D01*
X174817489Y-120695271D01*
X175303670Y-120370415D01*
X175514000Y-120055634D01*
X175724330Y-120370415D01*
X176210511Y-120695271D01*
X176784000Y-120809345D01*
X177357489Y-120695271D01*
X177843670Y-120370415D01*
X178054000Y-120055634D01*
X178264330Y-120370415D01*
X178750511Y-120695271D01*
X179324000Y-120809345D01*
X179897489Y-120695271D01*
X180383670Y-120370415D01*
X180594000Y-120055634D01*
X180804330Y-120370415D01*
X181290511Y-120695271D01*
X181864000Y-120809345D01*
X182437489Y-120695271D01*
X182923670Y-120370415D01*
X183248526Y-119884234D01*
X183362600Y-119310745D01*
X183362600Y-118941255D01*
X183248526Y-118367766D01*
X182923670Y-117881585D01*
X182623320Y-117680897D01*
X182591247Y-117519657D01*
X182589245Y-117509593D01*
X182419079Y-117254921D01*
X181877158Y-116713000D01*
X181991002Y-116713000D01*
X181991002Y-116549368D01*
X182246946Y-116667983D01*
X182832379Y-116399188D01*
X183270385Y-115926818D01*
X183469975Y-115444944D01*
X183350836Y-115189000D01*
X181991000Y-115189000D01*
X181991000Y-115209000D01*
X181737000Y-115209000D01*
X181737000Y-115189000D01*
X181717000Y-115189000D01*
X181717000Y-114935000D01*
X181737000Y-114935000D01*
X181737000Y-114915000D01*
X181991000Y-114915000D01*
X181991000Y-114935000D01*
X183350836Y-114935000D01*
X183469975Y-114679056D01*
X183270385Y-114197182D01*
X183179903Y-114099602D01*
X183331441Y-114002090D01*
X183476431Y-113789890D01*
X183527440Y-113538000D01*
X183527440Y-111506000D01*
X183483162Y-111270683D01*
X183344090Y-111054559D01*
X183131890Y-110909569D01*
X182880000Y-110858560D01*
X180848000Y-110858560D01*
X180612683Y-110902838D01*
X180396559Y-111041910D01*
X180251569Y-111254110D01*
X180200560Y-111506000D01*
X180200560Y-111587000D01*
X175647290Y-111587000D01*
X171369000Y-107308710D01*
X171369000Y-107104264D01*
X171297827Y-106746455D01*
X171115000Y-106472834D01*
X171115000Y-106426816D01*
X171115162Y-106240833D01*
X171115000Y-106240441D01*
X171115000Y-106214070D01*
X181541232Y-106214070D01*
X181706002Y-106612843D01*
X182010833Y-106918206D01*
X182409317Y-107083671D01*
X182840790Y-107084048D01*
X183239563Y-106919278D01*
X183544926Y-106614447D01*
X183710391Y-106215963D01*
X183710768Y-105784490D01*
X183545998Y-105385717D01*
X183241167Y-105080354D01*
X182842683Y-104914889D01*
X182411210Y-104914512D01*
X182012437Y-105079282D01*
X181707074Y-105384113D01*
X181541609Y-105782597D01*
X181541232Y-106214070D01*
X171115000Y-106214070D01*
X171115000Y-101814790D01*
X181541232Y-101814790D01*
X181706002Y-102213563D01*
X182010833Y-102518926D01*
X182409317Y-102684391D01*
X182840790Y-102684768D01*
X183239563Y-102519998D01*
X183544926Y-102215167D01*
X183710391Y-101816683D01*
X183710768Y-101385210D01*
X183545998Y-100986437D01*
X183241167Y-100681074D01*
X182842683Y-100515609D01*
X182411210Y-100515232D01*
X182012437Y-100680002D01*
X181707074Y-100984833D01*
X181541609Y-101383317D01*
X181541232Y-101814790D01*
X171115000Y-101814790D01*
X171115000Y-96396484D01*
X172156456Y-95355027D01*
X177869032Y-95355027D01*
X178117179Y-95884490D01*
X178549053Y-96278688D01*
X178964974Y-96450958D01*
X179197000Y-96329817D01*
X179197000Y-95123000D01*
X177989531Y-95123000D01*
X177869032Y-95355027D01*
X172156456Y-95355027D01*
X172779807Y-94731676D01*
X173085923Y-94936215D01*
X173482000Y-95015001D01*
X173878077Y-94936215D01*
X174213856Y-94711856D01*
X176110684Y-92815027D01*
X177869032Y-92815027D01*
X178117179Y-93344490D01*
X178535152Y-93726000D01*
X178117179Y-94107510D01*
X177869032Y-94636973D01*
X177989531Y-94869000D01*
X179197000Y-94869000D01*
X179197000Y-92583000D01*
X177989531Y-92583000D01*
X177869032Y-92815027D01*
X176110684Y-92815027D01*
X177466711Y-91459000D01*
X178236060Y-91459000D01*
X178117179Y-91567510D01*
X177869032Y-92096973D01*
X177989531Y-92329000D01*
X179197000Y-92329000D01*
X179197000Y-92309000D01*
X179451000Y-92309000D01*
X179451000Y-92329000D01*
X179471000Y-92329000D01*
X179471000Y-92583000D01*
X179451000Y-92583000D01*
X179451000Y-94869000D01*
X179471000Y-94869000D01*
X179471000Y-95123000D01*
X179451000Y-95123000D01*
X179451000Y-96329817D01*
X179683026Y-96450958D01*
X180098947Y-96278688D01*
X180530821Y-95884490D01*
X180588336Y-95761772D01*
X180804330Y-96085029D01*
X181056005Y-96253193D01*
X180558198Y-96751000D01*
X174781506Y-96751000D01*
X174774327Y-96743808D01*
X174430799Y-96601162D01*
X174058833Y-96600838D01*
X173715057Y-96742883D01*
X173451808Y-97005673D01*
X173309162Y-97349201D01*
X173308838Y-97721167D01*
X173450883Y-98064943D01*
X173713673Y-98328192D01*
X174057201Y-98470838D01*
X174429167Y-98471162D01*
X174772943Y-98329117D01*
X174781074Y-98321000D01*
X180848000Y-98321000D01*
X181148406Y-98261245D01*
X181403079Y-98091079D01*
X181474273Y-97984529D01*
X182401401Y-97057401D01*
X182566148Y-96810839D01*
X182624000Y-96520000D01*
X182624000Y-96285262D01*
X182923670Y-96085029D01*
X183134000Y-95770248D01*
X183344330Y-96085029D01*
X183830511Y-96409885D01*
X184404000Y-96523959D01*
X184977489Y-96409885D01*
X185463670Y-96085029D01*
X185788526Y-95598848D01*
X185902600Y-95025359D01*
X185902600Y-94966641D01*
X185788526Y-94393152D01*
X185477426Y-93927558D01*
X185502917Y-93922762D01*
X185719041Y-93783690D01*
X185864031Y-93571490D01*
X185915040Y-93319600D01*
X185915040Y-91592400D01*
X185870762Y-91357083D01*
X185731690Y-91140959D01*
X185519490Y-90995969D01*
X185267600Y-90944960D01*
X183540400Y-90944960D01*
X183305083Y-90989238D01*
X183088959Y-91128310D01*
X182943969Y-91340510D01*
X182935136Y-91384131D01*
X182923670Y-91366971D01*
X182899000Y-91350487D01*
X182899000Y-91234691D01*
X182899001Y-91234686D01*
X182820215Y-90838609D01*
X182795086Y-90801000D01*
X182595856Y-90502830D01*
X182595853Y-90502828D01*
X181785170Y-89692144D01*
X181449391Y-89467785D01*
X181053314Y-89388999D01*
X181053309Y-89389000D01*
X178122483Y-89389000D01*
X181740483Y-85771000D01*
X183840405Y-85771000D01*
X183996855Y-86005145D01*
X184300191Y-86207827D01*
X184658000Y-86279000D01*
X185166000Y-86279000D01*
X185523809Y-86207827D01*
X185827145Y-86005145D01*
X186081145Y-85751145D01*
X186283827Y-85447809D01*
X186355000Y-85090000D01*
X186355000Y-84074000D01*
X186283827Y-83716191D01*
X186081145Y-83412855D01*
X185777809Y-83210173D01*
X185420000Y-83139000D01*
X181356005Y-83139000D01*
X181356000Y-83138999D01*
X181057556Y-83198364D01*
X180998191Y-83210173D01*
X180694855Y-83412855D01*
X180694853Y-83412858D01*
X180186858Y-83920853D01*
X180186855Y-83920855D01*
X180186853Y-83920858D01*
X169552990Y-94554720D01*
X169552990Y-93862990D01*
X169495138Y-93572151D01*
X169330391Y-93325589D01*
X169136290Y-93131488D01*
X169164000Y-93137000D01*
X170179184Y-93137000D01*
X170365167Y-93137162D01*
X170708943Y-92995117D01*
X170972192Y-92732327D01*
X171114838Y-92388799D01*
X171115162Y-92016833D01*
X170973117Y-91673057D01*
X170710327Y-91409808D01*
X170366799Y-91267162D01*
X169994833Y-91266838D01*
X169994441Y-91267000D01*
X169551290Y-91267000D01*
X169083000Y-90798710D01*
X169083000Y-88646816D01*
X169083162Y-88460833D01*
X168941117Y-88117057D01*
X168678327Y-87853808D01*
X168334799Y-87711162D01*
X167962833Y-87710838D01*
X167962441Y-87711000D01*
X157988816Y-87711000D01*
X157802833Y-87710838D01*
X157802441Y-87711000D01*
X156343290Y-87711000D01*
X153197840Y-84565550D01*
X165996424Y-84565550D01*
X166168911Y-84983001D01*
X166275630Y-85089906D01*
X166170033Y-85195319D01*
X165996818Y-85612468D01*
X165996424Y-86064150D01*
X166168911Y-86481601D01*
X166488019Y-86801267D01*
X166905168Y-86974482D01*
X167356850Y-86974876D01*
X167774301Y-86802389D01*
X168093967Y-86483281D01*
X168267182Y-86066132D01*
X168267576Y-85614450D01*
X168232338Y-85529167D01*
X174070838Y-85529167D01*
X174212883Y-85872943D01*
X174318710Y-85978954D01*
X174213808Y-86083673D01*
X174071162Y-86427201D01*
X174070838Y-86799167D01*
X174212883Y-87142943D01*
X174475673Y-87406192D01*
X174819201Y-87548838D01*
X175191167Y-87549162D01*
X175534943Y-87407117D01*
X175798192Y-87144327D01*
X175940838Y-86800799D01*
X175941162Y-86428833D01*
X175799117Y-86085057D01*
X175693290Y-85979046D01*
X175798192Y-85874327D01*
X175940838Y-85530799D01*
X175941162Y-85158833D01*
X175799117Y-84815057D01*
X175536327Y-84551808D01*
X175192799Y-84409162D01*
X174820833Y-84408838D01*
X174477057Y-84550883D01*
X174213808Y-84813673D01*
X174071162Y-85157201D01*
X174070838Y-85529167D01*
X168232338Y-85529167D01*
X168095089Y-85196999D01*
X167988370Y-85090094D01*
X168093967Y-84984681D01*
X168267182Y-84567532D01*
X168267576Y-84115850D01*
X168095089Y-83698399D01*
X167775981Y-83378733D01*
X167358832Y-83205518D01*
X166907150Y-83205124D01*
X166489699Y-83377611D01*
X166170033Y-83696719D01*
X165996818Y-84113868D01*
X165996424Y-84565550D01*
X153197840Y-84565550D01*
X152045436Y-83413146D01*
X151914327Y-83281808D01*
X151802150Y-83235228D01*
X151695810Y-83164174D01*
X151571472Y-83139442D01*
X151570799Y-83139162D01*
X151570064Y-83139161D01*
X151338001Y-83093001D01*
X136697999Y-83093001D01*
X136466748Y-83139000D01*
X131639146Y-83139000D01*
X131426908Y-82926762D01*
X131229205Y-82791677D01*
X130978043Y-82737193D01*
X130725472Y-82784717D01*
X130511290Y-82926762D01*
X129662762Y-83775290D01*
X129527677Y-83972993D01*
X129498772Y-84106241D01*
X129381970Y-84128219D01*
X129167788Y-84270264D01*
X128319260Y-85118792D01*
X128184175Y-85316495D01*
X128129691Y-85567657D01*
X128177215Y-85820228D01*
X128319260Y-86034410D01*
X128531498Y-86246648D01*
X128531498Y-87048498D01*
X128602671Y-87406307D01*
X128605000Y-87409793D01*
X128605000Y-88239982D01*
X128601354Y-88242329D01*
X128599698Y-88240673D01*
X128366309Y-88144000D01*
X127925750Y-88144000D01*
X127767000Y-88302750D01*
X127767000Y-89027000D01*
X127787000Y-89027000D01*
X127787000Y-89281000D01*
X127767000Y-89281000D01*
X127767000Y-90005250D01*
X127925750Y-90164000D01*
X128366309Y-90164000D01*
X128599698Y-90067327D01*
X128601068Y-90065957D01*
X128605000Y-90068644D01*
X128605000Y-93470920D01*
X128604838Y-93657167D01*
X128605000Y-93657559D01*
X128605000Y-99059184D01*
X128604838Y-99245167D01*
X128605000Y-99245559D01*
X128605000Y-99434710D01*
X128116855Y-99922855D01*
X127914173Y-100226191D01*
X127843000Y-100584000D01*
X127843000Y-115443995D01*
X127679083Y-115474838D01*
X127462959Y-115613910D01*
X127317969Y-115826110D01*
X127266960Y-116078000D01*
X125164293Y-116078000D01*
X125011670Y-115849585D01*
X124525489Y-115524729D01*
X123952000Y-115410655D01*
X123378511Y-115524729D01*
X122892330Y-115849585D01*
X122682000Y-116164366D01*
X122471670Y-115849585D01*
X121985489Y-115524729D01*
X121412000Y-115410655D01*
X120838511Y-115524729D01*
X120352330Y-115849585D01*
X120337500Y-115871780D01*
X120273927Y-115718302D01*
X120095299Y-115539673D01*
X119861910Y-115443000D01*
X119157750Y-115443000D01*
X118999000Y-115601750D01*
X118745000Y-115601750D01*
X118586250Y-115443000D01*
X117882090Y-115443000D01*
X117648701Y-115539673D01*
X117470073Y-115718302D01*
X117373400Y-115951691D01*
X105612000Y-115951691D01*
X105612000Y-100900632D01*
X107558973Y-100900632D01*
X107645121Y-101156897D01*
X108217841Y-101366359D01*
X108827122Y-101340707D01*
X109270879Y-101156897D01*
X109357027Y-100900632D01*
X112638973Y-100900632D01*
X112725121Y-101156897D01*
X113297841Y-101366359D01*
X113907122Y-101340707D01*
X114350879Y-101156897D01*
X114437027Y-100900632D01*
X113538000Y-100001605D01*
X112638973Y-100900632D01*
X109357027Y-100900632D01*
X108458000Y-100001605D01*
X107558973Y-100900632D01*
X105612000Y-100900632D01*
X105612000Y-99581841D01*
X106913641Y-99581841D01*
X106939293Y-100191122D01*
X107123103Y-100634879D01*
X107379368Y-100721027D01*
X108278395Y-99822000D01*
X107379368Y-98922973D01*
X107123103Y-99009121D01*
X106913641Y-99581841D01*
X105612000Y-99581841D01*
X105612000Y-95820632D01*
X107558973Y-95820632D01*
X107645121Y-96076897D01*
X108217841Y-96286359D01*
X108827122Y-96260707D01*
X108839000Y-96255787D01*
X108839000Y-98329151D01*
X108698159Y-98277641D01*
X108088878Y-98303293D01*
X107645121Y-98487103D01*
X107558973Y-98743368D01*
X108458000Y-99642395D01*
X108472143Y-99628253D01*
X108651748Y-99807858D01*
X108637605Y-99822000D01*
X109536632Y-100721027D01*
X109792897Y-100634879D01*
X110002359Y-100062159D01*
X109976707Y-99452878D01*
X109866577Y-99187000D01*
X112138047Y-99187000D01*
X111993641Y-99581841D01*
X112019293Y-100191122D01*
X112203103Y-100634879D01*
X112459368Y-100721027D01*
X113358395Y-99822000D01*
X113717605Y-99822000D01*
X114616632Y-100721027D01*
X114872897Y-100634879D01*
X115082359Y-100062159D01*
X115056707Y-99452878D01*
X114872897Y-99009121D01*
X114616632Y-98922973D01*
X113717605Y-99822000D01*
X113358395Y-99822000D01*
X113344253Y-99807858D01*
X113523858Y-99628253D01*
X113538000Y-99642395D01*
X114437027Y-98743368D01*
X114350879Y-98487103D01*
X113778159Y-98277641D01*
X113665000Y-98282405D01*
X113665000Y-96270901D01*
X113907122Y-96260707D01*
X114350879Y-96076897D01*
X114437027Y-95820632D01*
X113538000Y-94921605D01*
X113523858Y-94935748D01*
X113344253Y-94756143D01*
X113358395Y-94742000D01*
X113717605Y-94742000D01*
X114616632Y-95641027D01*
X114872897Y-95554879D01*
X115082359Y-94982159D01*
X115056707Y-94372878D01*
X114872897Y-93929121D01*
X114616632Y-93842973D01*
X113717605Y-94742000D01*
X113358395Y-94742000D01*
X112459368Y-93842973D01*
X112203103Y-93929121D01*
X111993641Y-94501841D01*
X112019293Y-95111122D01*
X112024213Y-95123000D01*
X109950849Y-95123000D01*
X110002359Y-94982159D01*
X109976707Y-94372878D01*
X109792897Y-93929121D01*
X109536632Y-93842973D01*
X108637605Y-94742000D01*
X108651748Y-94756143D01*
X108472143Y-94935748D01*
X108458000Y-94921605D01*
X107558973Y-95820632D01*
X105612000Y-95820632D01*
X105612000Y-94501841D01*
X106913641Y-94501841D01*
X106939293Y-95111122D01*
X107123103Y-95554879D01*
X107379368Y-95641027D01*
X108278395Y-94742000D01*
X107379368Y-93842973D01*
X107123103Y-93929121D01*
X106913641Y-94501841D01*
X105612000Y-94501841D01*
X105612000Y-93663368D01*
X107558973Y-93663368D01*
X108458000Y-94562395D01*
X109357027Y-93663368D01*
X112638973Y-93663368D01*
X113538000Y-94562395D01*
X114437027Y-93663368D01*
X114350879Y-93407103D01*
X113778159Y-93197641D01*
X113168878Y-93223293D01*
X112725121Y-93407103D01*
X112638973Y-93663368D01*
X109357027Y-93663368D01*
X109270879Y-93407103D01*
X108698159Y-93197641D01*
X108088878Y-93223293D01*
X107645121Y-93407103D01*
X107558973Y-93663368D01*
X105612000Y-93663368D01*
X105612000Y-89439750D01*
X126405000Y-89439750D01*
X126405000Y-89655310D01*
X126501673Y-89888699D01*
X126680302Y-90067327D01*
X126913691Y-90164000D01*
X127354250Y-90164000D01*
X127513000Y-90005250D01*
X127513000Y-89281000D01*
X126563750Y-89281000D01*
X126405000Y-89439750D01*
X105612000Y-89439750D01*
X105612000Y-88652690D01*
X126405000Y-88652690D01*
X126405000Y-88868250D01*
X126563750Y-89027000D01*
X127513000Y-89027000D01*
X127513000Y-88302750D01*
X127354250Y-88144000D01*
X126913691Y-88144000D01*
X126680302Y-88240673D01*
X126501673Y-88419301D01*
X126405000Y-88652690D01*
X105612000Y-88652690D01*
X105612000Y-81554398D01*
X139429250Y-81554398D01*
X139639746Y-82063837D01*
X140029173Y-82453944D01*
X140538244Y-82665329D01*
X141089458Y-82665810D01*
X141598897Y-82455314D01*
X141989004Y-82065887D01*
X142200389Y-81556816D01*
X142200391Y-81554398D01*
X144311130Y-81554398D01*
X144521626Y-82063837D01*
X144911053Y-82453944D01*
X145420124Y-82665329D01*
X145971338Y-82665810D01*
X146480777Y-82455314D01*
X146870884Y-82065887D01*
X147082269Y-81556816D01*
X147082714Y-81046398D01*
X155685250Y-81046398D01*
X155895746Y-81555837D01*
X156285173Y-81945944D01*
X156794244Y-82157329D01*
X157345458Y-82157810D01*
X157854897Y-81947314D01*
X158245004Y-81557887D01*
X158456389Y-81048816D01*
X158456391Y-81046398D01*
X160567130Y-81046398D01*
X160777626Y-81555837D01*
X161167053Y-81945944D01*
X161676124Y-82157329D01*
X162227338Y-82157810D01*
X162736777Y-81947314D01*
X163126884Y-81557887D01*
X163338269Y-81048816D01*
X163338750Y-80497602D01*
X163128254Y-79988163D01*
X162738827Y-79598056D01*
X162229756Y-79386671D01*
X161678542Y-79386190D01*
X161169103Y-79596686D01*
X160778996Y-79986113D01*
X160567611Y-80495184D01*
X160567130Y-81046398D01*
X158456391Y-81046398D01*
X158456870Y-80497602D01*
X158246374Y-79988163D01*
X157856947Y-79598056D01*
X157347876Y-79386671D01*
X156796662Y-79386190D01*
X156287223Y-79596686D01*
X155897116Y-79986113D01*
X155685731Y-80495184D01*
X155685250Y-81046398D01*
X147082714Y-81046398D01*
X147082750Y-81005602D01*
X146872254Y-80496163D01*
X146482827Y-80106056D01*
X145973756Y-79894671D01*
X145422542Y-79894190D01*
X144913103Y-80104686D01*
X144522996Y-80494113D01*
X144311611Y-81003184D01*
X144311130Y-81554398D01*
X142200391Y-81554398D01*
X142200870Y-81005602D01*
X141990374Y-80496163D01*
X141600947Y-80106056D01*
X141091876Y-79894671D01*
X140540662Y-79894190D01*
X140031223Y-80104686D01*
X139641116Y-80494113D01*
X139429731Y-81003184D01*
X139429250Y-81554398D01*
X105612000Y-81554398D01*
X105612000Y-80079931D01*
X105860824Y-78829005D01*
X106529804Y-77827804D01*
X107531005Y-77158825D01*
X108781931Y-76910000D01*
X184334069Y-76910000D01*
X185584995Y-77158824D01*
X185584995Y-77158824D01*
G37*
X185584995Y-77158824D02*
X186586196Y-77827804D01*
X187255175Y-78829005D01*
X187504000Y-80079931D01*
X187504000Y-118040069D01*
X187255175Y-119290995D01*
X186586196Y-120292196D01*
X185584995Y-120961176D01*
X184334069Y-121210000D01*
X108781931Y-121210000D01*
X107531005Y-120961175D01*
X106529804Y-120292196D01*
X105860824Y-119290995D01*
X105612000Y-118040069D01*
X105612000Y-117379750D01*
X117373400Y-117379750D01*
X117373400Y-118236309D01*
X117470073Y-118469698D01*
X117648701Y-118648327D01*
X117882090Y-118745000D01*
X118586250Y-118745000D01*
X118745000Y-118586250D01*
X118745000Y-117221000D01*
X117532150Y-117221000D01*
X117373400Y-117379750D01*
X105612000Y-117379750D01*
X105612000Y-115951691D01*
X117373400Y-115951691D01*
X117373400Y-116808250D01*
X117532150Y-116967000D01*
X118745000Y-116967000D01*
X118745000Y-115601750D01*
X118999000Y-115601750D01*
X118999000Y-116967000D01*
X119019000Y-116967000D01*
X119019000Y-117221000D01*
X118999000Y-117221000D01*
X118999000Y-118586250D01*
X119157750Y-118745000D01*
X119861910Y-118745000D01*
X120095299Y-118648327D01*
X120273927Y-118469698D01*
X120337500Y-118316220D01*
X120352330Y-118338415D01*
X120838511Y-118663271D01*
X121412000Y-118777345D01*
X121985489Y-118663271D01*
X122471670Y-118338415D01*
X122682000Y-118023634D01*
X122892330Y-118338415D01*
X123378511Y-118663271D01*
X123952000Y-118777345D01*
X124525489Y-118663271D01*
X125011670Y-118338415D01*
X125336526Y-117852234D01*
X125450600Y-117278745D01*
X125450600Y-116909255D01*
X125336526Y-116335766D01*
X125164293Y-116078000D01*
X127266960Y-116078000D01*
X127266960Y-118110000D01*
X127311238Y-118345317D01*
X127450310Y-118561441D01*
X127662510Y-118706431D01*
X127849836Y-118744365D01*
X127914173Y-119067809D01*
X128116855Y-119371145D01*
X128786855Y-120041145D01*
X129090191Y-120243827D01*
X129448000Y-120315000D01*
X161290000Y-120315000D01*
X161647809Y-120243827D01*
X161951145Y-120041145D01*
X162204854Y-119787436D01*
X162336192Y-119656327D01*
X162478838Y-119312799D01*
X162479162Y-118940833D01*
X162337117Y-118597057D01*
X162074327Y-118333808D01*
X161730799Y-118191162D01*
X161358833Y-118190838D01*
X161015057Y-118332883D01*
X160902744Y-118445000D01*
X147970157Y-118445000D01*
X148056600Y-118236309D01*
X148056600Y-117379750D01*
X147897850Y-117221000D01*
X146685000Y-117221000D01*
X146685000Y-117241000D01*
X146431000Y-117241000D01*
X146431000Y-117221000D01*
X146411000Y-117221000D01*
X146411000Y-116967000D01*
X146431000Y-116967000D01*
X146431000Y-115601750D01*
X146685000Y-115601750D01*
X146685000Y-116967000D01*
X147897850Y-116967000D01*
X148056600Y-116808250D01*
X148056600Y-115951691D01*
X147959927Y-115718302D01*
X147781299Y-115539673D01*
X147547910Y-115443000D01*
X146843750Y-115443000D01*
X146685000Y-115601750D01*
X146431000Y-115601750D01*
X146272250Y-115443000D01*
X145568090Y-115443000D01*
X145334701Y-115539673D01*
X145156073Y-115718302D01*
X145092500Y-115871780D01*
X145077670Y-115849585D01*
X144953000Y-115766283D01*
X144953000Y-112954826D01*
X145031891Y-112836757D01*
X145084272Y-112573415D01*
X145666098Y-111991589D01*
X160346063Y-111955024D01*
X160495249Y-111924962D01*
X160644514Y-111895271D01*
X160645344Y-111894716D01*
X160646319Y-111894520D01*
X160772585Y-111809697D01*
X160899186Y-111725105D01*
X165644099Y-106980192D01*
X165814265Y-106725520D01*
X165874020Y-106425113D01*
X165874020Y-101644454D01*
X166183201Y-101772838D01*
X166230077Y-101772879D01*
X166232952Y-101775754D01*
X166232952Y-108192488D01*
X166290804Y-108483327D01*
X166455551Y-108729889D01*
X170944000Y-113218338D01*
X170944000Y-115444318D01*
X170919000Y-115570000D01*
X170919000Y-116110218D01*
X170840173Y-116228191D01*
X170769000Y-116586000D01*
X170769000Y-117475995D01*
X170605083Y-117506838D01*
X170388959Y-117645910D01*
X170243969Y-117858110D01*
X170192960Y-118110000D01*
X170192960Y-120142000D01*
X170237238Y-120377317D01*
X170376310Y-120593441D01*
X170588510Y-120738431D01*
X170840400Y-120789440D01*
X172567600Y-120789440D01*
X172802917Y-120745162D01*
X173019041Y-120606090D01*
X173164031Y-120393890D01*
X173172400Y-120352561D01*
X173184330Y-120370415D01*
X173670511Y-120695271D01*
X174244000Y-120809345D01*
X174817489Y-120695271D01*
X175303670Y-120370415D01*
X175514000Y-120055634D01*
X175724330Y-120370415D01*
X176210511Y-120695271D01*
X176784000Y-120809345D01*
X177357489Y-120695271D01*
X177843670Y-120370415D01*
X178054000Y-120055634D01*
X178264330Y-120370415D01*
X178750511Y-120695271D01*
X179324000Y-120809345D01*
X179897489Y-120695271D01*
X180383670Y-120370415D01*
X180594000Y-120055634D01*
X180804330Y-120370415D01*
X181290511Y-120695271D01*
X181864000Y-120809345D01*
X182437489Y-120695271D01*
X182923670Y-120370415D01*
X183248526Y-119884234D01*
X183362600Y-119310745D01*
X183362600Y-118941255D01*
X183248526Y-118367766D01*
X182923670Y-117881585D01*
X182623320Y-117680897D01*
X182591247Y-117519657D01*
X182589245Y-117509593D01*
X182419079Y-117254921D01*
X181877158Y-116713000D01*
X181991002Y-116713000D01*
X181991002Y-116549368D01*
X182246946Y-116667983D01*
X182832379Y-116399188D01*
X183270385Y-115926818D01*
X183469975Y-115444944D01*
X183350836Y-115189000D01*
X181991000Y-115189000D01*
X181991000Y-115209000D01*
X181737000Y-115209000D01*
X181737000Y-115189000D01*
X181717000Y-115189000D01*
X181717000Y-114935000D01*
X181737000Y-114935000D01*
X181737000Y-114915000D01*
X181991000Y-114915000D01*
X181991000Y-114935000D01*
X183350836Y-114935000D01*
X183469975Y-114679056D01*
X183270385Y-114197182D01*
X183179903Y-114099602D01*
X183331441Y-114002090D01*
X183476431Y-113789890D01*
X183527440Y-113538000D01*
X183527440Y-111506000D01*
X183483162Y-111270683D01*
X183344090Y-111054559D01*
X183131890Y-110909569D01*
X182880000Y-110858560D01*
X180848000Y-110858560D01*
X180612683Y-110902838D01*
X180396559Y-111041910D01*
X180251569Y-111254110D01*
X180200560Y-111506000D01*
X180200560Y-111587000D01*
X175647290Y-111587000D01*
X171369000Y-107308710D01*
X171369000Y-107104264D01*
X171297827Y-106746455D01*
X171115000Y-106472834D01*
X171115000Y-106426816D01*
X171115162Y-106240833D01*
X171115000Y-106240441D01*
X171115000Y-106214070D01*
X181541232Y-106214070D01*
X181706002Y-106612843D01*
X182010833Y-106918206D01*
X182409317Y-107083671D01*
X182840790Y-107084048D01*
X183239563Y-106919278D01*
X183544926Y-106614447D01*
X183710391Y-106215963D01*
X183710768Y-105784490D01*
X183545998Y-105385717D01*
X183241167Y-105080354D01*
X182842683Y-104914889D01*
X182411210Y-104914512D01*
X182012437Y-105079282D01*
X181707074Y-105384113D01*
X181541609Y-105782597D01*
X181541232Y-106214070D01*
X171115000Y-106214070D01*
X171115000Y-101814790D01*
X181541232Y-101814790D01*
X181706002Y-102213563D01*
X182010833Y-102518926D01*
X182409317Y-102684391D01*
X182840790Y-102684768D01*
X183239563Y-102519998D01*
X183544926Y-102215167D01*
X183710391Y-101816683D01*
X183710768Y-101385210D01*
X183545998Y-100986437D01*
X183241167Y-100681074D01*
X182842683Y-100515609D01*
X182411210Y-100515232D01*
X182012437Y-100680002D01*
X181707074Y-100984833D01*
X181541609Y-101383317D01*
X181541232Y-101814790D01*
X171115000Y-101814790D01*
X171115000Y-96396484D01*
X172156456Y-95355027D01*
X177869032Y-95355027D01*
X178117179Y-95884490D01*
X178549053Y-96278688D01*
X178964974Y-96450958D01*
X179197000Y-96329817D01*
X179197000Y-95123000D01*
X177989531Y-95123000D01*
X177869032Y-95355027D01*
X172156456Y-95355027D01*
X172779807Y-94731676D01*
X173085923Y-94936215D01*
X173482000Y-95015001D01*
X173878077Y-94936215D01*
X174213856Y-94711856D01*
X176110684Y-92815027D01*
X177869032Y-92815027D01*
X178117179Y-93344490D01*
X178535152Y-93726000D01*
X178117179Y-94107510D01*
X177869032Y-94636973D01*
X177989531Y-94869000D01*
X179197000Y-94869000D01*
X179197000Y-92583000D01*
X177989531Y-92583000D01*
X177869032Y-92815027D01*
X176110684Y-92815027D01*
X177466711Y-91459000D01*
X178236060Y-91459000D01*
X178117179Y-91567510D01*
X177869032Y-92096973D01*
X177989531Y-92329000D01*
X179197000Y-92329000D01*
X179197000Y-92309000D01*
X179451000Y-92309000D01*
X179451000Y-92329000D01*
X179471000Y-92329000D01*
X179471000Y-92583000D01*
X179451000Y-92583000D01*
X179451000Y-94869000D01*
X179471000Y-94869000D01*
X179471000Y-95123000D01*
X179451000Y-95123000D01*
X179451000Y-96329817D01*
X179683026Y-96450958D01*
X180098947Y-96278688D01*
X180530821Y-95884490D01*
X180588336Y-95761772D01*
X180804330Y-96085029D01*
X181056005Y-96253193D01*
X180558198Y-96751000D01*
X174781506Y-96751000D01*
X174774327Y-96743808D01*
X174430799Y-96601162D01*
X174058833Y-96600838D01*
X173715057Y-96742883D01*
X173451808Y-97005673D01*
X173309162Y-97349201D01*
X173308838Y-97721167D01*
X173450883Y-98064943D01*
X173713673Y-98328192D01*
X174057201Y-98470838D01*
X174429167Y-98471162D01*
X174772943Y-98329117D01*
X174781074Y-98321000D01*
X180848000Y-98321000D01*
X181148406Y-98261245D01*
X181403079Y-98091079D01*
X181474273Y-97984529D01*
X182401401Y-97057401D01*
X182566148Y-96810839D01*
X182624000Y-96520000D01*
X182624000Y-96285262D01*
X182923670Y-96085029D01*
X183134000Y-95770248D01*
X183344330Y-96085029D01*
X183830511Y-96409885D01*
X184404000Y-96523959D01*
X184977489Y-96409885D01*
X185463670Y-96085029D01*
X185788526Y-95598848D01*
X185902600Y-95025359D01*
X185902600Y-94966641D01*
X185788526Y-94393152D01*
X185477426Y-93927558D01*
X185502917Y-93922762D01*
X185719041Y-93783690D01*
X185864031Y-93571490D01*
X185915040Y-93319600D01*
X185915040Y-91592400D01*
X185870762Y-91357083D01*
X185731690Y-91140959D01*
X185519490Y-90995969D01*
X185267600Y-90944960D01*
X183540400Y-90944960D01*
X183305083Y-90989238D01*
X183088959Y-91128310D01*
X182943969Y-91340510D01*
X182935136Y-91384131D01*
X182923670Y-91366971D01*
X182899000Y-91350487D01*
X182899000Y-91234691D01*
X182899001Y-91234686D01*
X182820215Y-90838609D01*
X182795086Y-90801000D01*
X182595856Y-90502830D01*
X182595853Y-90502828D01*
X181785170Y-89692144D01*
X181449391Y-89467785D01*
X181053314Y-89388999D01*
X181053309Y-89389000D01*
X178122483Y-89389000D01*
X181740483Y-85771000D01*
X183840405Y-85771000D01*
X183996855Y-86005145D01*
X184300191Y-86207827D01*
X184658000Y-86279000D01*
X185166000Y-86279000D01*
X185523809Y-86207827D01*
X185827145Y-86005145D01*
X186081145Y-85751145D01*
X186283827Y-85447809D01*
X186355000Y-85090000D01*
X186355000Y-84074000D01*
X186283827Y-83716191D01*
X186081145Y-83412855D01*
X185777809Y-83210173D01*
X185420000Y-83139000D01*
X181356005Y-83139000D01*
X181356000Y-83138999D01*
X181057556Y-83198364D01*
X180998191Y-83210173D01*
X180694855Y-83412855D01*
X180694853Y-83412858D01*
X180186858Y-83920853D01*
X180186855Y-83920855D01*
X180186853Y-83920858D01*
X169552990Y-94554720D01*
X169552990Y-93862990D01*
X169495138Y-93572151D01*
X169330391Y-93325589D01*
X169136290Y-93131488D01*
X169164000Y-93137000D01*
X170179184Y-93137000D01*
X170365167Y-93137162D01*
X170708943Y-92995117D01*
X170972192Y-92732327D01*
X171114838Y-92388799D01*
X171115162Y-92016833D01*
X170973117Y-91673057D01*
X170710327Y-91409808D01*
X170366799Y-91267162D01*
X169994833Y-91266838D01*
X169994441Y-91267000D01*
X169551290Y-91267000D01*
X169083000Y-90798710D01*
X169083000Y-88646816D01*
X169083162Y-88460833D01*
X168941117Y-88117057D01*
X168678327Y-87853808D01*
X168334799Y-87711162D01*
X167962833Y-87710838D01*
X167962441Y-87711000D01*
X157988816Y-87711000D01*
X157802833Y-87710838D01*
X157802441Y-87711000D01*
X156343290Y-87711000D01*
X153197840Y-84565550D01*
X165996424Y-84565550D01*
X166168911Y-84983001D01*
X166275630Y-85089906D01*
X166170033Y-85195319D01*
X165996818Y-85612468D01*
X165996424Y-86064150D01*
X166168911Y-86481601D01*
X166488019Y-86801267D01*
X166905168Y-86974482D01*
X167356850Y-86974876D01*
X167774301Y-86802389D01*
X168093967Y-86483281D01*
X168267182Y-86066132D01*
X168267576Y-85614450D01*
X168232338Y-85529167D01*
X174070838Y-85529167D01*
X174212883Y-85872943D01*
X174318710Y-85978954D01*
X174213808Y-86083673D01*
X174071162Y-86427201D01*
X174070838Y-86799167D01*
X174212883Y-87142943D01*
X174475673Y-87406192D01*
X174819201Y-87548838D01*
X175191167Y-87549162D01*
X175534943Y-87407117D01*
X175798192Y-87144327D01*
X175940838Y-86800799D01*
X175941162Y-86428833D01*
X175799117Y-86085057D01*
X175693290Y-85979046D01*
X175798192Y-85874327D01*
X175940838Y-85530799D01*
X175941162Y-85158833D01*
X175799117Y-84815057D01*
X175536327Y-84551808D01*
X175192799Y-84409162D01*
X174820833Y-84408838D01*
X174477057Y-84550883D01*
X174213808Y-84813673D01*
X174071162Y-85157201D01*
X174070838Y-85529167D01*
X168232338Y-85529167D01*
X168095089Y-85196999D01*
X167988370Y-85090094D01*
X168093967Y-84984681D01*
X168267182Y-84567532D01*
X168267576Y-84115850D01*
X168095089Y-83698399D01*
X167775981Y-83378733D01*
X167358832Y-83205518D01*
X166907150Y-83205124D01*
X166489699Y-83377611D01*
X166170033Y-83696719D01*
X165996818Y-84113868D01*
X165996424Y-84565550D01*
X153197840Y-84565550D01*
X152045436Y-83413146D01*
X151914327Y-83281808D01*
X151802150Y-83235228D01*
X151695810Y-83164174D01*
X151571472Y-83139442D01*
X151570799Y-83139162D01*
X151570064Y-83139161D01*
X151338001Y-83093001D01*
X136697999Y-83093001D01*
X136466748Y-83139000D01*
X131639146Y-83139000D01*
X131426908Y-82926762D01*
X131229205Y-82791677D01*
X130978043Y-82737193D01*
X130725472Y-82784717D01*
X130511290Y-82926762D01*
X129662762Y-83775290D01*
X129527677Y-83972993D01*
X129498772Y-84106241D01*
X129381970Y-84128219D01*
X129167788Y-84270264D01*
X128319260Y-85118792D01*
X128184175Y-85316495D01*
X128129691Y-85567657D01*
X128177215Y-85820228D01*
X128319260Y-86034410D01*
X128531498Y-86246648D01*
X128531498Y-87048498D01*
X128602671Y-87406307D01*
X128605000Y-87409793D01*
X128605000Y-88239982D01*
X128601354Y-88242329D01*
X128599698Y-88240673D01*
X128366309Y-88144000D01*
X127925750Y-88144000D01*
X127767000Y-88302750D01*
X127767000Y-89027000D01*
X127787000Y-89027000D01*
X127787000Y-89281000D01*
X127767000Y-89281000D01*
X127767000Y-90005250D01*
X127925750Y-90164000D01*
X128366309Y-90164000D01*
X128599698Y-90067327D01*
X128601068Y-90065957D01*
X128605000Y-90068644D01*
X128605000Y-93470920D01*
X128604838Y-93657167D01*
X128605000Y-93657559D01*
X128605000Y-99059184D01*
X128604838Y-99245167D01*
X128605000Y-99245559D01*
X128605000Y-99434710D01*
X128116855Y-99922855D01*
X127914173Y-100226191D01*
X127843000Y-100584000D01*
X127843000Y-115443995D01*
X127679083Y-115474838D01*
X127462959Y-115613910D01*
X127317969Y-115826110D01*
X127266960Y-116078000D01*
X125164293Y-116078000D01*
X125011670Y-115849585D01*
X124525489Y-115524729D01*
X123952000Y-115410655D01*
X123378511Y-115524729D01*
X122892330Y-115849585D01*
X122682000Y-116164366D01*
X122471670Y-115849585D01*
X121985489Y-115524729D01*
X121412000Y-115410655D01*
X120838511Y-115524729D01*
X120352330Y-115849585D01*
X120337500Y-115871780D01*
X120273927Y-115718302D01*
X120095299Y-115539673D01*
X119861910Y-115443000D01*
X119157750Y-115443000D01*
X118999000Y-115601750D01*
X118745000Y-115601750D01*
X118586250Y-115443000D01*
X117882090Y-115443000D01*
X117648701Y-115539673D01*
X117470073Y-115718302D01*
X117373400Y-115951691D01*
X105612000Y-115951691D01*
X105612000Y-100900632D01*
X107558973Y-100900632D01*
X107645121Y-101156897D01*
X108217841Y-101366359D01*
X108827122Y-101340707D01*
X109270879Y-101156897D01*
X109357027Y-100900632D01*
X112638973Y-100900632D01*
X112725121Y-101156897D01*
X113297841Y-101366359D01*
X113907122Y-101340707D01*
X114350879Y-101156897D01*
X114437027Y-100900632D01*
X113538000Y-100001605D01*
X112638973Y-100900632D01*
X109357027Y-100900632D01*
X108458000Y-100001605D01*
X107558973Y-100900632D01*
X105612000Y-100900632D01*
X105612000Y-99581841D01*
X106913641Y-99581841D01*
X106939293Y-100191122D01*
X107123103Y-100634879D01*
X107379368Y-100721027D01*
X108278395Y-99822000D01*
X107379368Y-98922973D01*
X107123103Y-99009121D01*
X106913641Y-99581841D01*
X105612000Y-99581841D01*
X105612000Y-95820632D01*
X107558973Y-95820632D01*
X107645121Y-96076897D01*
X108217841Y-96286359D01*
X108827122Y-96260707D01*
X108839000Y-96255787D01*
X108839000Y-98329151D01*
X108698159Y-98277641D01*
X108088878Y-98303293D01*
X107645121Y-98487103D01*
X107558973Y-98743368D01*
X108458000Y-99642395D01*
X108472143Y-99628253D01*
X108651748Y-99807858D01*
X108637605Y-99822000D01*
X109536632Y-100721027D01*
X109792897Y-100634879D01*
X110002359Y-100062159D01*
X109976707Y-99452878D01*
X109866577Y-99187000D01*
X112138047Y-99187000D01*
X111993641Y-99581841D01*
X112019293Y-100191122D01*
X112203103Y-100634879D01*
X112459368Y-100721027D01*
X113358395Y-99822000D01*
X113717605Y-99822000D01*
X114616632Y-100721027D01*
X114872897Y-100634879D01*
X115082359Y-100062159D01*
X115056707Y-99452878D01*
X114872897Y-99009121D01*
X114616632Y-98922973D01*
X113717605Y-99822000D01*
X113358395Y-99822000D01*
X113344253Y-99807858D01*
X113523858Y-99628253D01*
X113538000Y-99642395D01*
X114437027Y-98743368D01*
X114350879Y-98487103D01*
X113778159Y-98277641D01*
X113665000Y-98282405D01*
X113665000Y-96270901D01*
X113907122Y-96260707D01*
X114350879Y-96076897D01*
X114437027Y-95820632D01*
X113538000Y-94921605D01*
X113523858Y-94935748D01*
X113344253Y-94756143D01*
X113358395Y-94742000D01*
X113717605Y-94742000D01*
X114616632Y-95641027D01*
X114872897Y-95554879D01*
X115082359Y-94982159D01*
X115056707Y-94372878D01*
X114872897Y-93929121D01*
X114616632Y-93842973D01*
X113717605Y-94742000D01*
X113358395Y-94742000D01*
X112459368Y-93842973D01*
X112203103Y-93929121D01*
X111993641Y-94501841D01*
X112019293Y-95111122D01*
X112024213Y-95123000D01*
X109950849Y-95123000D01*
X110002359Y-94982159D01*
X109976707Y-94372878D01*
X109792897Y-93929121D01*
X109536632Y-93842973D01*
X108637605Y-94742000D01*
X108651748Y-94756143D01*
X108472143Y-94935748D01*
X108458000Y-94921605D01*
X107558973Y-95820632D01*
X105612000Y-95820632D01*
X105612000Y-94501841D01*
X106913641Y-94501841D01*
X106939293Y-95111122D01*
X107123103Y-95554879D01*
X107379368Y-95641027D01*
X108278395Y-94742000D01*
X107379368Y-93842973D01*
X107123103Y-93929121D01*
X106913641Y-94501841D01*
X105612000Y-94501841D01*
X105612000Y-93663368D01*
X107558973Y-93663368D01*
X108458000Y-94562395D01*
X109357027Y-93663368D01*
X112638973Y-93663368D01*
X113538000Y-94562395D01*
X114437027Y-93663368D01*
X114350879Y-93407103D01*
X113778159Y-93197641D01*
X113168878Y-93223293D01*
X112725121Y-93407103D01*
X112638973Y-93663368D01*
X109357027Y-93663368D01*
X109270879Y-93407103D01*
X108698159Y-93197641D01*
X108088878Y-93223293D01*
X107645121Y-93407103D01*
X107558973Y-93663368D01*
X105612000Y-93663368D01*
X105612000Y-89439750D01*
X126405000Y-89439750D01*
X126405000Y-89655310D01*
X126501673Y-89888699D01*
X126680302Y-90067327D01*
X126913691Y-90164000D01*
X127354250Y-90164000D01*
X127513000Y-90005250D01*
X127513000Y-89281000D01*
X126563750Y-89281000D01*
X126405000Y-89439750D01*
X105612000Y-89439750D01*
X105612000Y-88652690D01*
X126405000Y-88652690D01*
X126405000Y-88868250D01*
X126563750Y-89027000D01*
X127513000Y-89027000D01*
X127513000Y-88302750D01*
X127354250Y-88144000D01*
X126913691Y-88144000D01*
X126680302Y-88240673D01*
X126501673Y-88419301D01*
X126405000Y-88652690D01*
X105612000Y-88652690D01*
X105612000Y-81554398D01*
X139429250Y-81554398D01*
X139639746Y-82063837D01*
X140029173Y-82453944D01*
X140538244Y-82665329D01*
X141089458Y-82665810D01*
X141598897Y-82455314D01*
X141989004Y-82065887D01*
X142200389Y-81556816D01*
X142200391Y-81554398D01*
X144311130Y-81554398D01*
X144521626Y-82063837D01*
X144911053Y-82453944D01*
X145420124Y-82665329D01*
X145971338Y-82665810D01*
X146480777Y-82455314D01*
X146870884Y-82065887D01*
X147082269Y-81556816D01*
X147082714Y-81046398D01*
X155685250Y-81046398D01*
X155895746Y-81555837D01*
X156285173Y-81945944D01*
X156794244Y-82157329D01*
X157345458Y-82157810D01*
X157854897Y-81947314D01*
X158245004Y-81557887D01*
X158456389Y-81048816D01*
X158456391Y-81046398D01*
X160567130Y-81046398D01*
X160777626Y-81555837D01*
X161167053Y-81945944D01*
X161676124Y-82157329D01*
X162227338Y-82157810D01*
X162736777Y-81947314D01*
X163126884Y-81557887D01*
X163338269Y-81048816D01*
X163338750Y-80497602D01*
X163128254Y-79988163D01*
X162738827Y-79598056D01*
X162229756Y-79386671D01*
X161678542Y-79386190D01*
X161169103Y-79596686D01*
X160778996Y-79986113D01*
X160567611Y-80495184D01*
X160567130Y-81046398D01*
X158456391Y-81046398D01*
X158456870Y-80497602D01*
X158246374Y-79988163D01*
X157856947Y-79598056D01*
X157347876Y-79386671D01*
X156796662Y-79386190D01*
X156287223Y-79596686D01*
X155897116Y-79986113D01*
X155685731Y-80495184D01*
X155685250Y-81046398D01*
X147082714Y-81046398D01*
X147082750Y-81005602D01*
X146872254Y-80496163D01*
X146482827Y-80106056D01*
X145973756Y-79894671D01*
X145422542Y-79894190D01*
X144913103Y-80104686D01*
X144522996Y-80494113D01*
X144311611Y-81003184D01*
X144311130Y-81554398D01*
X142200391Y-81554398D01*
X142200870Y-81005602D01*
X141990374Y-80496163D01*
X141600947Y-80106056D01*
X141091876Y-79894671D01*
X140540662Y-79894190D01*
X140031223Y-80104686D01*
X139641116Y-80494113D01*
X139429731Y-81003184D01*
X139429250Y-81554398D01*
X105612000Y-81554398D01*
X105612000Y-80079931D01*
X105860824Y-78829005D01*
X106529804Y-77827804D01*
X107531005Y-77158825D01*
X108781931Y-76910000D01*
X184334069Y-76910000D01*
X185584995Y-77158824D01*
G36*
X130524883Y-93492943D02*
X130787673Y-93756192D01*
X131131201Y-93898838D01*
X131503167Y-93899162D01*
X131846943Y-93757117D01*
X132110192Y-93494327D01*
X132129013Y-93449001D01*
X135754616Y-93449001D01*
X135717162Y-93539201D01*
X135716838Y-93911167D01*
X135717000Y-93911559D01*
X135717000Y-94487184D01*
X135716838Y-94673167D01*
X135717000Y-94673559D01*
X135717000Y-95249184D01*
X135716838Y-95435167D01*
X135717000Y-95435559D01*
X135717000Y-98298000D01*
X135788173Y-98655809D01*
X135990855Y-98959145D01*
X138566249Y-101534539D01*
X138511162Y-101667201D01*
X138510838Y-102039167D01*
X138511000Y-102039559D01*
X138511000Y-102615184D01*
X138510838Y-102801167D01*
X138511000Y-102801559D01*
X138511000Y-108458000D01*
X138582173Y-108815809D01*
X138784855Y-109119145D01*
X140346863Y-110681153D01*
X140650199Y-110883835D01*
X141008008Y-110955008D01*
X141426834Y-110955008D01*
X141259349Y-111122493D01*
X141120191Y-111150173D01*
X140816855Y-111352855D01*
X140614173Y-111656191D01*
X140543000Y-112014000D01*
X140543000Y-115766283D01*
X140418330Y-115849585D01*
X140093474Y-116335766D01*
X139979400Y-116909255D01*
X139979400Y-117278745D01*
X140093474Y-117852234D01*
X140418330Y-118338415D01*
X140577846Y-118445000D01*
X137299480Y-118445000D01*
X137300036Y-118444732D01*
X137689954Y-118008320D01*
X137883184Y-117455913D01*
X137738924Y-117221000D01*
X136525000Y-117221000D01*
X136525000Y-117241000D01*
X136271000Y-117241000D01*
X136271000Y-117221000D01*
X136251000Y-117221000D01*
X136251000Y-116967000D01*
X136271000Y-116967000D01*
X136271000Y-115607783D01*
X136525000Y-115607783D01*
X136525000Y-116967000D01*
X137738924Y-116967000D01*
X137883184Y-116732087D01*
X137689954Y-116179680D01*
X137300036Y-115743268D01*
X136772791Y-115489291D01*
X136757026Y-115486642D01*
X136525000Y-115607783D01*
X136271000Y-115607783D01*
X136038974Y-115486642D01*
X136023209Y-115489291D01*
X135495964Y-115743268D01*
X135124461Y-116159069D01*
X134917670Y-115849585D01*
X134431489Y-115524729D01*
X133858000Y-115410655D01*
X133284511Y-115524729D01*
X132798330Y-115849585D01*
X132588000Y-116164366D01*
X132377670Y-115849585D01*
X131891489Y-115524729D01*
X131318000Y-115410655D01*
X130744511Y-115524729D01*
X130258330Y-115849585D01*
X130248757Y-115863913D01*
X130244762Y-115842683D01*
X130105690Y-115626559D01*
X129893490Y-115481569D01*
X129713000Y-115445019D01*
X129713000Y-114739167D01*
X138002838Y-114739167D01*
X138144883Y-115082943D01*
X138407673Y-115346192D01*
X138751201Y-115488838D01*
X139123167Y-115489162D01*
X139466943Y-115347117D01*
X139730192Y-115084327D01*
X139872838Y-114740799D01*
X139873162Y-114368833D01*
X139731117Y-114025057D01*
X139468327Y-113761808D01*
X139124799Y-113619162D01*
X138752833Y-113618838D01*
X138409057Y-113760883D01*
X138145808Y-114023673D01*
X138003162Y-114367201D01*
X138002838Y-114739167D01*
X129713000Y-114739167D01*
X129713000Y-111760000D01*
X134622000Y-111760000D01*
X134622000Y-113284000D01*
X134679852Y-113574839D01*
X134844599Y-113821401D01*
X135091161Y-113986148D01*
X135314043Y-114030482D01*
X135359673Y-114076192D01*
X135703201Y-114218838D01*
X136075167Y-114219162D01*
X136418943Y-114077117D01*
X136682192Y-113814327D01*
X136824838Y-113470799D01*
X136825162Y-113098833D01*
X136683117Y-112755057D01*
X136420327Y-112491808D01*
X136142000Y-112376236D01*
X136142000Y-111945167D01*
X136478838Y-111945167D01*
X136620883Y-112288943D01*
X136883673Y-112552192D01*
X137227201Y-112694838D01*
X137599167Y-112695162D01*
X137942943Y-112553117D01*
X137976118Y-112520000D01*
X138629537Y-112520000D01*
X138661673Y-112552192D01*
X139005201Y-112694838D01*
X139377167Y-112695162D01*
X139720943Y-112553117D01*
X139984192Y-112290327D01*
X140126838Y-111946799D01*
X140127162Y-111574833D01*
X139985117Y-111231057D01*
X139722327Y-110967808D01*
X139378799Y-110825162D01*
X139006833Y-110824838D01*
X138663057Y-110966883D01*
X138629882Y-111000000D01*
X137976463Y-111000000D01*
X137944327Y-110967808D01*
X137600799Y-110825162D01*
X137228833Y-110824838D01*
X136885057Y-110966883D01*
X136621808Y-111229673D01*
X136479162Y-111573201D01*
X136478838Y-111945167D01*
X136142000Y-111945167D01*
X136142000Y-111760000D01*
X136084148Y-111469161D01*
X135919401Y-111222599D01*
X135672839Y-111057852D01*
X135382000Y-111000000D01*
X135091161Y-111057852D01*
X134844599Y-111222599D01*
X134679852Y-111469161D01*
X134622000Y-111760000D01*
X129713000Y-111760000D01*
X129713000Y-100994888D01*
X129794000Y-101011000D01*
X134111184Y-101011000D01*
X134297167Y-101011162D01*
X134640943Y-100869117D01*
X134904192Y-100606327D01*
X135046838Y-100262799D01*
X135047162Y-99890833D01*
X134905117Y-99547057D01*
X134642327Y-99283808D01*
X134298799Y-99141162D01*
X133926833Y-99140838D01*
X133926441Y-99141000D01*
X130475000Y-99141000D01*
X130475000Y-99060816D01*
X130475162Y-98874833D01*
X130475000Y-98874441D01*
X130475000Y-93472816D01*
X130475087Y-93372428D01*
X130524883Y-93492943D01*
X130524883Y-93492943D01*
G37*
X130524883Y-93492943D02*
X130787673Y-93756192D01*
X131131201Y-93898838D01*
X131503167Y-93899162D01*
X131846943Y-93757117D01*
X132110192Y-93494327D01*
X132129013Y-93449001D01*
X135754616Y-93449001D01*
X135717162Y-93539201D01*
X135716838Y-93911167D01*
X135717000Y-93911559D01*
X135717000Y-94487184D01*
X135716838Y-94673167D01*
X135717000Y-94673559D01*
X135717000Y-95249184D01*
X135716838Y-95435167D01*
X135717000Y-95435559D01*
X135717000Y-98298000D01*
X135788173Y-98655809D01*
X135990855Y-98959145D01*
X138566249Y-101534539D01*
X138511162Y-101667201D01*
X138510838Y-102039167D01*
X138511000Y-102039559D01*
X138511000Y-102615184D01*
X138510838Y-102801167D01*
X138511000Y-102801559D01*
X138511000Y-108458000D01*
X138582173Y-108815809D01*
X138784855Y-109119145D01*
X140346863Y-110681153D01*
X140650199Y-110883835D01*
X141008008Y-110955008D01*
X141426834Y-110955008D01*
X141259349Y-111122493D01*
X141120191Y-111150173D01*
X140816855Y-111352855D01*
X140614173Y-111656191D01*
X140543000Y-112014000D01*
X140543000Y-115766283D01*
X140418330Y-115849585D01*
X140093474Y-116335766D01*
X139979400Y-116909255D01*
X139979400Y-117278745D01*
X140093474Y-117852234D01*
X140418330Y-118338415D01*
X140577846Y-118445000D01*
X137299480Y-118445000D01*
X137300036Y-118444732D01*
X137689954Y-118008320D01*
X137883184Y-117455913D01*
X137738924Y-117221000D01*
X136525000Y-117221000D01*
X136525000Y-117241000D01*
X136271000Y-117241000D01*
X136271000Y-117221000D01*
X136251000Y-117221000D01*
X136251000Y-116967000D01*
X136271000Y-116967000D01*
X136271000Y-115607783D01*
X136525000Y-115607783D01*
X136525000Y-116967000D01*
X137738924Y-116967000D01*
X137883184Y-116732087D01*
X137689954Y-116179680D01*
X137300036Y-115743268D01*
X136772791Y-115489291D01*
X136757026Y-115486642D01*
X136525000Y-115607783D01*
X136271000Y-115607783D01*
X136038974Y-115486642D01*
X136023209Y-115489291D01*
X135495964Y-115743268D01*
X135124461Y-116159069D01*
X134917670Y-115849585D01*
X134431489Y-115524729D01*
X133858000Y-115410655D01*
X133284511Y-115524729D01*
X132798330Y-115849585D01*
X132588000Y-116164366D01*
X132377670Y-115849585D01*
X131891489Y-115524729D01*
X131318000Y-115410655D01*
X130744511Y-115524729D01*
X130258330Y-115849585D01*
X130248757Y-115863913D01*
X130244762Y-115842683D01*
X130105690Y-115626559D01*
X129893490Y-115481569D01*
X129713000Y-115445019D01*
X129713000Y-114739167D01*
X138002838Y-114739167D01*
X138144883Y-115082943D01*
X138407673Y-115346192D01*
X138751201Y-115488838D01*
X139123167Y-115489162D01*
X139466943Y-115347117D01*
X139730192Y-115084327D01*
X139872838Y-114740799D01*
X139873162Y-114368833D01*
X139731117Y-114025057D01*
X139468327Y-113761808D01*
X139124799Y-113619162D01*
X138752833Y-113618838D01*
X138409057Y-113760883D01*
X138145808Y-114023673D01*
X138003162Y-114367201D01*
X138002838Y-114739167D01*
X129713000Y-114739167D01*
X129713000Y-111760000D01*
X134622000Y-111760000D01*
X134622000Y-113284000D01*
X134679852Y-113574839D01*
X134844599Y-113821401D01*
X135091161Y-113986148D01*
X135314043Y-114030482D01*
X135359673Y-114076192D01*
X135703201Y-114218838D01*
X136075167Y-114219162D01*
X136418943Y-114077117D01*
X136682192Y-113814327D01*
X136824838Y-113470799D01*
X136825162Y-113098833D01*
X136683117Y-112755057D01*
X136420327Y-112491808D01*
X136142000Y-112376236D01*
X136142000Y-111945167D01*
X136478838Y-111945167D01*
X136620883Y-112288943D01*
X136883673Y-112552192D01*
X137227201Y-112694838D01*
X137599167Y-112695162D01*
X137942943Y-112553117D01*
X137976118Y-112520000D01*
X138629537Y-112520000D01*
X138661673Y-112552192D01*
X139005201Y-112694838D01*
X139377167Y-112695162D01*
X139720943Y-112553117D01*
X139984192Y-112290327D01*
X140126838Y-111946799D01*
X140127162Y-111574833D01*
X139985117Y-111231057D01*
X139722327Y-110967808D01*
X139378799Y-110825162D01*
X139006833Y-110824838D01*
X138663057Y-110966883D01*
X138629882Y-111000000D01*
X137976463Y-111000000D01*
X137944327Y-110967808D01*
X137600799Y-110825162D01*
X137228833Y-110824838D01*
X136885057Y-110966883D01*
X136621808Y-111229673D01*
X136479162Y-111573201D01*
X136478838Y-111945167D01*
X136142000Y-111945167D01*
X136142000Y-111760000D01*
X136084148Y-111469161D01*
X135919401Y-111222599D01*
X135672839Y-111057852D01*
X135382000Y-111000000D01*
X135091161Y-111057852D01*
X134844599Y-111222599D01*
X134679852Y-111469161D01*
X134622000Y-111760000D01*
X129713000Y-111760000D01*
X129713000Y-100994888D01*
X129794000Y-101011000D01*
X134111184Y-101011000D01*
X134297167Y-101011162D01*
X134640943Y-100869117D01*
X134904192Y-100606327D01*
X135046838Y-100262799D01*
X135047162Y-99890833D01*
X134905117Y-99547057D01*
X134642327Y-99283808D01*
X134298799Y-99141162D01*
X133926833Y-99140838D01*
X133926441Y-99141000D01*
X130475000Y-99141000D01*
X130475000Y-99060816D01*
X130475162Y-98874833D01*
X130475000Y-98874441D01*
X130475000Y-93472816D01*
X130475087Y-93372428D01*
X130524883Y-93492943D01*
G36*
X153777798Y-94327078D02*
X154032471Y-94497244D01*
X154332877Y-94556999D01*
X156926001Y-94556999D01*
X157077701Y-94526824D01*
X157053000Y-94651002D01*
X157053000Y-95116711D01*
X156805119Y-95364592D01*
X156749117Y-95229057D01*
X156486327Y-94965808D01*
X156142799Y-94823162D01*
X155770833Y-94822838D01*
X155427057Y-94964883D01*
X155163808Y-95227673D01*
X155032439Y-95544043D01*
X154962327Y-95473808D01*
X154618799Y-95331162D01*
X154571923Y-95331121D01*
X154545025Y-95304223D01*
X154420704Y-95003343D01*
X154171967Y-94754171D01*
X153846810Y-94619154D01*
X153494735Y-94618847D01*
X153169343Y-94753296D01*
X152920171Y-95002033D01*
X152785154Y-95327190D01*
X152784847Y-95679265D01*
X152919296Y-96004657D01*
X153168033Y-96253829D01*
X153470709Y-96379511D01*
X153496878Y-96405680D01*
X153496838Y-96451167D01*
X153574449Y-96639000D01*
X151454435Y-96639000D01*
X151406327Y-96590808D01*
X151062799Y-96448162D01*
X150690833Y-96447838D01*
X150347057Y-96589883D01*
X150083808Y-96852673D01*
X149941162Y-97196201D01*
X149940838Y-97568167D01*
X150082883Y-97911943D01*
X150244973Y-98074317D01*
X150244847Y-98219265D01*
X150379296Y-98544657D01*
X150628033Y-98793829D01*
X150953190Y-98928846D01*
X151305265Y-98929153D01*
X151630657Y-98794704D01*
X151879829Y-98545967D01*
X152014846Y-98220810D01*
X152014900Y-98159000D01*
X153588708Y-98159000D01*
X153516855Y-98230853D01*
X153314173Y-98534189D01*
X153243000Y-98891998D01*
X153243000Y-99632184D01*
X153242838Y-99818167D01*
X153384883Y-100161943D01*
X153647673Y-100425192D01*
X153991201Y-100567838D01*
X154363167Y-100568162D01*
X154706943Y-100426117D01*
X154951993Y-100181494D01*
X155104110Y-100285431D01*
X155238924Y-100312732D01*
X155229000Y-100336690D01*
X155229000Y-100552250D01*
X155387750Y-100711000D01*
X156337000Y-100711000D01*
X156337000Y-100691000D01*
X156591000Y-100691000D01*
X156591000Y-100711000D01*
X156611000Y-100711000D01*
X156611000Y-100965000D01*
X156591000Y-100965000D01*
X156591000Y-101689250D01*
X156749750Y-101848000D01*
X157190309Y-101848000D01*
X157423698Y-101751327D01*
X157425068Y-101749957D01*
X157512110Y-101809431D01*
X157764000Y-101860440D01*
X158964000Y-101860440D01*
X159199317Y-101816162D01*
X159415441Y-101677090D01*
X159560431Y-101464890D01*
X159611440Y-101213000D01*
X159611440Y-100842140D01*
X159950639Y-100502940D01*
X160205167Y-100503162D01*
X160548943Y-100361117D01*
X160607003Y-100303159D01*
X162532490Y-102228646D01*
X162285057Y-102330883D01*
X162021808Y-102593673D01*
X162021645Y-102594065D01*
X161852856Y-102762854D01*
X161852433Y-102763487D01*
X161829117Y-102707057D01*
X161566327Y-102443808D01*
X161222799Y-102301162D01*
X160850833Y-102300838D01*
X160507057Y-102442883D01*
X160243808Y-102705673D01*
X160101162Y-103049201D01*
X160100838Y-103421167D01*
X160101000Y-103421559D01*
X160101000Y-104151423D01*
X159828418Y-104424004D01*
X159768327Y-104363808D01*
X159424799Y-104221162D01*
X159077181Y-104220859D01*
X159035117Y-104119057D01*
X158772327Y-103855808D01*
X158428799Y-103713162D01*
X158056833Y-103712838D01*
X158056441Y-103713000D01*
X147324167Y-103713000D01*
X147594943Y-103601118D01*
X147858192Y-103338328D01*
X148000838Y-102994800D01*
X148001162Y-102622834D01*
X147859117Y-102279058D01*
X147851099Y-102271026D01*
X147950846Y-102030810D01*
X147951153Y-101678735D01*
X147816704Y-101353343D01*
X147587512Y-101123750D01*
X155229000Y-101123750D01*
X155229000Y-101339310D01*
X155325673Y-101572699D01*
X155504302Y-101751327D01*
X155737691Y-101848000D01*
X156178250Y-101848000D01*
X156337000Y-101689250D01*
X156337000Y-100965000D01*
X155387750Y-100965000D01*
X155229000Y-101123750D01*
X147587512Y-101123750D01*
X147567967Y-101104171D01*
X147242810Y-100969154D01*
X146890735Y-100968847D01*
X146565343Y-101103296D01*
X146316171Y-101352033D01*
X146181154Y-101677190D01*
X146180847Y-102029265D01*
X146280661Y-102270833D01*
X146273808Y-102277674D01*
X146131162Y-102621202D01*
X146130838Y-102993168D01*
X146272883Y-103336944D01*
X146535673Y-103600193D01*
X146843801Y-103728139D01*
X146537057Y-103854883D01*
X146273808Y-104117673D01*
X146131162Y-104461201D01*
X146130838Y-104833167D01*
X146272883Y-105176943D01*
X146411889Y-105316192D01*
X145621018Y-106107062D01*
X145500911Y-106156689D01*
X145237662Y-106419479D01*
X145095016Y-106763007D01*
X145094692Y-107134973D01*
X145236737Y-107478749D01*
X145344716Y-107586917D01*
X145257808Y-107673673D01*
X145115162Y-108017201D01*
X145114842Y-108384826D01*
X145013057Y-108426883D01*
X144749808Y-108689673D01*
X144607162Y-109033201D01*
X144607117Y-109085008D01*
X141395298Y-109085008D01*
X140381000Y-108070710D01*
X140381000Y-102616816D01*
X140381162Y-102430833D01*
X140381000Y-102430441D01*
X140381000Y-101854816D01*
X140381162Y-101668833D01*
X140300222Y-101472943D01*
X140380838Y-101278799D01*
X140381106Y-100971184D01*
X141103290Y-100249000D01*
X148843184Y-100249000D01*
X149029167Y-100249162D01*
X149372943Y-100107117D01*
X149636192Y-99844327D01*
X149778838Y-99500799D01*
X149779162Y-99128833D01*
X149637117Y-98785057D01*
X149374327Y-98521808D01*
X149030799Y-98379162D01*
X148658833Y-98378838D01*
X148658441Y-98379000D01*
X140716000Y-98379000D01*
X140358191Y-98450173D01*
X140054855Y-98652855D01*
X139192000Y-99515710D01*
X137587000Y-97910710D01*
X137587000Y-95250816D01*
X137587162Y-95064833D01*
X137587000Y-95064441D01*
X137587000Y-94488816D01*
X137587162Y-94302833D01*
X137587000Y-94302441D01*
X137587000Y-93726816D01*
X137587162Y-93540833D01*
X137549218Y-93449001D01*
X152899721Y-93449001D01*
X153777798Y-94327078D01*
X153777798Y-94327078D01*
G37*
X153777798Y-94327078D02*
X154032471Y-94497244D01*
X154332877Y-94556999D01*
X156926001Y-94556999D01*
X157077701Y-94526824D01*
X157053000Y-94651002D01*
X157053000Y-95116711D01*
X156805119Y-95364592D01*
X156749117Y-95229057D01*
X156486327Y-94965808D01*
X156142799Y-94823162D01*
X155770833Y-94822838D01*
X155427057Y-94964883D01*
X155163808Y-95227673D01*
X155032439Y-95544043D01*
X154962327Y-95473808D01*
X154618799Y-95331162D01*
X154571923Y-95331121D01*
X154545025Y-95304223D01*
X154420704Y-95003343D01*
X154171967Y-94754171D01*
X153846810Y-94619154D01*
X153494735Y-94618847D01*
X153169343Y-94753296D01*
X152920171Y-95002033D01*
X152785154Y-95327190D01*
X152784847Y-95679265D01*
X152919296Y-96004657D01*
X153168033Y-96253829D01*
X153470709Y-96379511D01*
X153496878Y-96405680D01*
X153496838Y-96451167D01*
X153574449Y-96639000D01*
X151454435Y-96639000D01*
X151406327Y-96590808D01*
X151062799Y-96448162D01*
X150690833Y-96447838D01*
X150347057Y-96589883D01*
X150083808Y-96852673D01*
X149941162Y-97196201D01*
X149940838Y-97568167D01*
X150082883Y-97911943D01*
X150244973Y-98074317D01*
X150244847Y-98219265D01*
X150379296Y-98544657D01*
X150628033Y-98793829D01*
X150953190Y-98928846D01*
X151305265Y-98929153D01*
X151630657Y-98794704D01*
X151879829Y-98545967D01*
X152014846Y-98220810D01*
X152014900Y-98159000D01*
X153588708Y-98159000D01*
X153516855Y-98230853D01*
X153314173Y-98534189D01*
X153243000Y-98891998D01*
X153243000Y-99632184D01*
X153242838Y-99818167D01*
X153384883Y-100161943D01*
X153647673Y-100425192D01*
X153991201Y-100567838D01*
X154363167Y-100568162D01*
X154706943Y-100426117D01*
X154951993Y-100181494D01*
X155104110Y-100285431D01*
X155238924Y-100312732D01*
X155229000Y-100336690D01*
X155229000Y-100552250D01*
X155387750Y-100711000D01*
X156337000Y-100711000D01*
X156337000Y-100691000D01*
X156591000Y-100691000D01*
X156591000Y-100711000D01*
X156611000Y-100711000D01*
X156611000Y-100965000D01*
X156591000Y-100965000D01*
X156591000Y-101689250D01*
X156749750Y-101848000D01*
X157190309Y-101848000D01*
X157423698Y-101751327D01*
X157425068Y-101749957D01*
X157512110Y-101809431D01*
X157764000Y-101860440D01*
X158964000Y-101860440D01*
X159199317Y-101816162D01*
X159415441Y-101677090D01*
X159560431Y-101464890D01*
X159611440Y-101213000D01*
X159611440Y-100842140D01*
X159950639Y-100502940D01*
X160205167Y-100503162D01*
X160548943Y-100361117D01*
X160607003Y-100303159D01*
X162532490Y-102228646D01*
X162285057Y-102330883D01*
X162021808Y-102593673D01*
X162021645Y-102594065D01*
X161852856Y-102762854D01*
X161852433Y-102763487D01*
X161829117Y-102707057D01*
X161566327Y-102443808D01*
X161222799Y-102301162D01*
X160850833Y-102300838D01*
X160507057Y-102442883D01*
X160243808Y-102705673D01*
X160101162Y-103049201D01*
X160100838Y-103421167D01*
X160101000Y-103421559D01*
X160101000Y-104151423D01*
X159828418Y-104424004D01*
X159768327Y-104363808D01*
X159424799Y-104221162D01*
X159077181Y-104220859D01*
X159035117Y-104119057D01*
X158772327Y-103855808D01*
X158428799Y-103713162D01*
X158056833Y-103712838D01*
X158056441Y-103713000D01*
X147324167Y-103713000D01*
X147594943Y-103601118D01*
X147858192Y-103338328D01*
X148000838Y-102994800D01*
X148001162Y-102622834D01*
X147859117Y-102279058D01*
X147851099Y-102271026D01*
X147950846Y-102030810D01*
X147951153Y-101678735D01*
X147816704Y-101353343D01*
X147587512Y-101123750D01*
X155229000Y-101123750D01*
X155229000Y-101339310D01*
X155325673Y-101572699D01*
X155504302Y-101751327D01*
X155737691Y-101848000D01*
X156178250Y-101848000D01*
X156337000Y-101689250D01*
X156337000Y-100965000D01*
X155387750Y-100965000D01*
X155229000Y-101123750D01*
X147587512Y-101123750D01*
X147567967Y-101104171D01*
X147242810Y-100969154D01*
X146890735Y-100968847D01*
X146565343Y-101103296D01*
X146316171Y-101352033D01*
X146181154Y-101677190D01*
X146180847Y-102029265D01*
X146280661Y-102270833D01*
X146273808Y-102277674D01*
X146131162Y-102621202D01*
X146130838Y-102993168D01*
X146272883Y-103336944D01*
X146535673Y-103600193D01*
X146843801Y-103728139D01*
X146537057Y-103854883D01*
X146273808Y-104117673D01*
X146131162Y-104461201D01*
X146130838Y-104833167D01*
X146272883Y-105176943D01*
X146411889Y-105316192D01*
X145621018Y-106107062D01*
X145500911Y-106156689D01*
X145237662Y-106419479D01*
X145095016Y-106763007D01*
X145094692Y-107134973D01*
X145236737Y-107478749D01*
X145344716Y-107586917D01*
X145257808Y-107673673D01*
X145115162Y-108017201D01*
X145114842Y-108384826D01*
X145013057Y-108426883D01*
X144749808Y-108689673D01*
X144607162Y-109033201D01*
X144607117Y-109085008D01*
X141395298Y-109085008D01*
X140381000Y-108070710D01*
X140381000Y-102616816D01*
X140381162Y-102430833D01*
X140381000Y-102430441D01*
X140381000Y-101854816D01*
X140381162Y-101668833D01*
X140300222Y-101472943D01*
X140380838Y-101278799D01*
X140381106Y-100971184D01*
X141103290Y-100249000D01*
X148843184Y-100249000D01*
X149029167Y-100249162D01*
X149372943Y-100107117D01*
X149636192Y-99844327D01*
X149778838Y-99500799D01*
X149779162Y-99128833D01*
X149637117Y-98785057D01*
X149374327Y-98521808D01*
X149030799Y-98379162D01*
X148658833Y-98378838D01*
X148658441Y-98379000D01*
X140716000Y-98379000D01*
X140358191Y-98450173D01*
X140054855Y-98652855D01*
X139192000Y-99515710D01*
X137587000Y-97910710D01*
X137587000Y-95250816D01*
X137587162Y-95064833D01*
X137587000Y-95064441D01*
X137587000Y-94488816D01*
X137587162Y-94302833D01*
X137587000Y-94302441D01*
X137587000Y-93726816D01*
X137587162Y-93540833D01*
X137549218Y-93449001D01*
X152899721Y-93449001D01*
X153777798Y-94327078D01*
G36*
X157983000Y-99187000D02*
X158003000Y-99187000D01*
X158003000Y-99441000D01*
X157983000Y-99441000D01*
X157983000Y-99461000D01*
X157729000Y-99461000D01*
X157729000Y-99441000D01*
X157709000Y-99441000D01*
X157709000Y-99187000D01*
X157729000Y-99187000D01*
X157729000Y-99167000D01*
X157983000Y-99167000D01*
X157983000Y-99187000D01*
X157983000Y-99187000D01*
G37*
X157983000Y-99187000D02*
X158003000Y-99187000D01*
X158003000Y-99441000D01*
X157983000Y-99441000D01*
X157983000Y-99461000D01*
X157729000Y-99461000D01*
X157729000Y-99441000D01*
X157709000Y-99441000D01*
X157709000Y-99187000D01*
X157729000Y-99187000D01*
X157729000Y-99167000D01*
X157983000Y-99167000D01*
X157983000Y-99187000D01*
G36*
X167213000Y-91186000D02*
X167284173Y-91543809D01*
X167486855Y-91847145D01*
X167680327Y-92040617D01*
X167365057Y-92170883D01*
X167101808Y-92433673D01*
X166959162Y-92777201D01*
X166958838Y-93149167D01*
X167100883Y-93492943D01*
X167363673Y-93756192D01*
X167596961Y-93853062D01*
X167365057Y-93948883D01*
X167101808Y-94211673D01*
X167058929Y-94314936D01*
X166946833Y-94314838D01*
X166603057Y-94456883D01*
X166339808Y-94719673D01*
X166197162Y-95063201D01*
X166196838Y-95435167D01*
X166326625Y-95749276D01*
X166085808Y-95989673D01*
X165943162Y-96333201D01*
X165942929Y-96601070D01*
X165676833Y-96600838D01*
X165333057Y-96742883D01*
X165324926Y-96751000D01*
X162081506Y-96751000D01*
X162074327Y-96743808D01*
X161730799Y-96601162D01*
X161678999Y-96601117D01*
X161678999Y-95084941D01*
X161818943Y-95027117D01*
X162082192Y-94764327D01*
X162224838Y-94420799D01*
X162225162Y-94048833D01*
X162083117Y-93705057D01*
X161820327Y-93441808D01*
X161476799Y-93299162D01*
X161363265Y-93299063D01*
X161321117Y-93197057D01*
X161058327Y-92933808D01*
X160714799Y-92791162D01*
X160342833Y-92790838D01*
X159999057Y-92932883D01*
X159735808Y-93195673D01*
X159593162Y-93539201D01*
X159593117Y-93590356D01*
X159502756Y-93725592D01*
X159466787Y-93906418D01*
X159443001Y-94025999D01*
X159443001Y-98720992D01*
X159330511Y-98743368D01*
X159295325Y-98750367D01*
X159091000Y-98886892D01*
X159091000Y-98812690D01*
X158994327Y-98579301D01*
X158815698Y-98400673D01*
X158582309Y-98304000D01*
X158141750Y-98304000D01*
X157983002Y-98462748D01*
X157983002Y-98304000D01*
X157906852Y-98304000D01*
X157907162Y-97947833D01*
X157765117Y-97604057D01*
X157502327Y-97340808D01*
X157447275Y-97317948D01*
X157595144Y-97219146D01*
X158649142Y-96165147D01*
X158649145Y-96165145D01*
X158851827Y-95861809D01*
X158876917Y-95735673D01*
X158923001Y-95504000D01*
X158923000Y-95503995D01*
X158923000Y-94804046D01*
X158961002Y-94613001D01*
X158961001Y-94612996D01*
X158961001Y-89581000D01*
X167213000Y-89581000D01*
X167213000Y-91186000D01*
X167213000Y-91186000D01*
G37*
X167213000Y-91186000D02*
X167284173Y-91543809D01*
X167486855Y-91847145D01*
X167680327Y-92040617D01*
X167365057Y-92170883D01*
X167101808Y-92433673D01*
X166959162Y-92777201D01*
X166958838Y-93149167D01*
X167100883Y-93492943D01*
X167363673Y-93756192D01*
X167596961Y-93853062D01*
X167365057Y-93948883D01*
X167101808Y-94211673D01*
X167058929Y-94314936D01*
X166946833Y-94314838D01*
X166603057Y-94456883D01*
X166339808Y-94719673D01*
X166197162Y-95063201D01*
X166196838Y-95435167D01*
X166326625Y-95749276D01*
X166085808Y-95989673D01*
X165943162Y-96333201D01*
X165942929Y-96601070D01*
X165676833Y-96600838D01*
X165333057Y-96742883D01*
X165324926Y-96751000D01*
X162081506Y-96751000D01*
X162074327Y-96743808D01*
X161730799Y-96601162D01*
X161678999Y-96601117D01*
X161678999Y-95084941D01*
X161818943Y-95027117D01*
X162082192Y-94764327D01*
X162224838Y-94420799D01*
X162225162Y-94048833D01*
X162083117Y-93705057D01*
X161820327Y-93441808D01*
X161476799Y-93299162D01*
X161363265Y-93299063D01*
X161321117Y-93197057D01*
X161058327Y-92933808D01*
X160714799Y-92791162D01*
X160342833Y-92790838D01*
X159999057Y-92932883D01*
X159735808Y-93195673D01*
X159593162Y-93539201D01*
X159593117Y-93590356D01*
X159502756Y-93725592D01*
X159466787Y-93906418D01*
X159443001Y-94025999D01*
X159443001Y-98720992D01*
X159330511Y-98743368D01*
X159295325Y-98750367D01*
X159091000Y-98886892D01*
X159091000Y-98812690D01*
X158994327Y-98579301D01*
X158815698Y-98400673D01*
X158582309Y-98304000D01*
X158141750Y-98304000D01*
X157983002Y-98462748D01*
X157983002Y-98304000D01*
X157906852Y-98304000D01*
X157907162Y-97947833D01*
X157765117Y-97604057D01*
X157502327Y-97340808D01*
X157447275Y-97317948D01*
X157595144Y-97219146D01*
X158649142Y-96165147D01*
X158649145Y-96165145D01*
X158851827Y-95861809D01*
X158876917Y-95735673D01*
X158923001Y-95504000D01*
X158923000Y-95503995D01*
X158923000Y-94804046D01*
X158961002Y-94613001D01*
X158961001Y-94612996D01*
X158961001Y-89581000D01*
X167213000Y-89581000D01*
X167213000Y-91186000D01*
G36*
X154178000Y-91326001D02*
X154477843Y-91326001D01*
X155782847Y-92631005D01*
X155782838Y-92641167D01*
X155924883Y-92984943D01*
X155926935Y-92986999D01*
X154658035Y-92986999D01*
X153779958Y-92108922D01*
X153525286Y-91938756D01*
X153224879Y-91879001D01*
X150540840Y-91879001D01*
X150541162Y-91508833D01*
X150455288Y-91301001D01*
X154052318Y-91301001D01*
X154178000Y-91326001D01*
X154178000Y-91326001D01*
G37*
X154178000Y-91326001D02*
X154477843Y-91326001D01*
X155782847Y-92631005D01*
X155782838Y-92641167D01*
X155924883Y-92984943D01*
X155926935Y-92986999D01*
X154658035Y-92986999D01*
X153779958Y-92108922D01*
X153525286Y-91938756D01*
X153224879Y-91879001D01*
X150540840Y-91879001D01*
X150541162Y-91508833D01*
X150455288Y-91301001D01*
X154052318Y-91301001D01*
X154178000Y-91326001D01*
G36*
X153240710Y-87253000D02*
X142352579Y-87253000D01*
X141849790Y-86750210D01*
X141849788Y-86750209D01*
X141725967Y-86626171D01*
X141400810Y-86491154D01*
X141224004Y-86491000D01*
X141224000Y-86490999D01*
X141223996Y-86491000D01*
X141048735Y-86490847D01*
X140723343Y-86625296D01*
X140598212Y-86750209D01*
X140598210Y-86750210D01*
X140598209Y-86750212D01*
X140474171Y-86874033D01*
X140339154Y-87199190D01*
X140339000Y-87375996D01*
X140338999Y-87376000D01*
X140339000Y-87376004D01*
X140338851Y-87546242D01*
X140311809Y-87528173D01*
X139954000Y-87457000D01*
X139596191Y-87528173D01*
X139292855Y-87730855D01*
X139090173Y-88034191D01*
X139019000Y-88392000D01*
X139090173Y-88749809D01*
X139292855Y-89053145D01*
X140020711Y-89781001D01*
X136406681Y-89781001D01*
X136280999Y-89756001D01*
X135980592Y-89815756D01*
X135725920Y-89985922D01*
X134698995Y-91012847D01*
X134688833Y-91012838D01*
X134345057Y-91154883D01*
X134081808Y-91417673D01*
X133939162Y-91761201D01*
X133939059Y-91879001D01*
X131617999Y-91879001D01*
X131317593Y-91938756D01*
X131182710Y-92028881D01*
X131132833Y-92028838D01*
X130789057Y-92170883D01*
X130525808Y-92433673D01*
X130475000Y-92556032D01*
X130475000Y-90068018D01*
X130591441Y-89993090D01*
X130736431Y-89780890D01*
X130787440Y-89529000D01*
X130787440Y-88779000D01*
X130743162Y-88543683D01*
X130604090Y-88327559D01*
X130475000Y-88239356D01*
X130475000Y-87122005D01*
X130475001Y-87122000D01*
X130475000Y-87121995D01*
X130475000Y-85974000D01*
X130455248Y-85874700D01*
X130613736Y-85716212D01*
X130748821Y-85518509D01*
X130777726Y-85385261D01*
X130894528Y-85363283D01*
X131108710Y-85221238D01*
X131320948Y-85009000D01*
X137368001Y-85009000D01*
X137599252Y-84963001D01*
X150950711Y-84963001D01*
X153240710Y-87253000D01*
X153240710Y-87253000D01*
G37*
X153240710Y-87253000D02*
X142352579Y-87253000D01*
X141849790Y-86750210D01*
X141849788Y-86750209D01*
X141725967Y-86626171D01*
X141400810Y-86491154D01*
X141224004Y-86491000D01*
X141224000Y-86490999D01*
X141223996Y-86491000D01*
X141048735Y-86490847D01*
X140723343Y-86625296D01*
X140598212Y-86750209D01*
X140598210Y-86750210D01*
X140598209Y-86750212D01*
X140474171Y-86874033D01*
X140339154Y-87199190D01*
X140339000Y-87375996D01*
X140338999Y-87376000D01*
X140339000Y-87376004D01*
X140338851Y-87546242D01*
X140311809Y-87528173D01*
X139954000Y-87457000D01*
X139596191Y-87528173D01*
X139292855Y-87730855D01*
X139090173Y-88034191D01*
X139019000Y-88392000D01*
X139090173Y-88749809D01*
X139292855Y-89053145D01*
X140020711Y-89781001D01*
X136406681Y-89781001D01*
X136280999Y-89756001D01*
X135980592Y-89815756D01*
X135725920Y-89985922D01*
X134698995Y-91012847D01*
X134688833Y-91012838D01*
X134345057Y-91154883D01*
X134081808Y-91417673D01*
X133939162Y-91761201D01*
X133939059Y-91879001D01*
X131617999Y-91879001D01*
X131317593Y-91938756D01*
X131182710Y-92028881D01*
X131132833Y-92028838D01*
X130789057Y-92170883D01*
X130525808Y-92433673D01*
X130475000Y-92556032D01*
X130475000Y-90068018D01*
X130591441Y-89993090D01*
X130736431Y-89780890D01*
X130787440Y-89529000D01*
X130787440Y-88779000D01*
X130743162Y-88543683D01*
X130604090Y-88327559D01*
X130475000Y-88239356D01*
X130475000Y-87122005D01*
X130475001Y-87122000D01*
X130475000Y-87121995D01*
X130475000Y-85974000D01*
X130455248Y-85874700D01*
X130613736Y-85716212D01*
X130748821Y-85518509D01*
X130777726Y-85385261D01*
X130894528Y-85363283D01*
X131108710Y-85221238D01*
X131320948Y-85009000D01*
X137368001Y-85009000D01*
X137599252Y-84963001D01*
X150950711Y-84963001D01*
X153240710Y-87253000D01*
M02*
