M48
;DRILL file {KiCad 4.0.4-stable} date 11/24/16 17:28:44
;FORMAT={-:-/ absolute / inch / decimal}
FMAT,2
INCH,TZ
T1C0.016
T2C0.024
T3C0.032
T4C0.035
T5C0.040
%
G90
G05
M72
T1
X4.36Y-4.28
X4.36Y-4.34
X4.36Y-4.39
X4.36Y-4.45
X4.41Y-4.28
X4.41Y-4.34
X4.41Y-4.39
X4.41Y-4.45
X4.47Y-4.28
X4.47Y-4.34
X4.47Y-4.39
X4.47Y-4.45
X4.52Y-4.28
X4.52Y-4.34
X4.52Y-4.39
X4.52Y-4.45
X4.71Y-4.0784
X4.75Y-4.0784
X4.77Y-3.39
X4.77Y-3.43
X4.77Y-3.47
X4.77Y-3.51
X4.81Y-3.39
X4.81Y-3.43
X4.81Y-3.47
X4.81Y-3.51
X4.81Y-4.0784
X4.86Y-3.39
X4.86Y-3.43
X4.86Y-3.47
X4.86Y-3.51
X4.86Y-4.0784
X4.9Y-3.39
X4.9Y-3.43
X4.9Y-3.47
X4.9Y-3.51
X5.1Y-3.68
X5.1Y-3.9
X5.1Y-3.93
X5.16Y-3.7908
X5.16Y-3.84
X5.17Y-3.66
X5.2092Y-3.7908
X5.2092Y-3.84
X5.26Y-3.39
X5.26Y-3.42
X5.28Y-3.94
X5.31Y-3.39
X5.31Y-3.42
X5.31Y-3.62
X5.35Y-4.46
X5.38Y-3.69
X5.38Y-3.72
X5.38Y-3.75
X5.4Y-4.46
X5.41Y-4.4
X5.47Y-4.46
X5.47Y-4.51
X5.48Y-4.4
X5.49Y-3.98
X5.49Y-4.01
X5.49Y-4.04
X5.5Y-3.6
X5.58Y-3.47
X5.58Y-3.51
X5.6Y-3.54
X5.6016Y-3.59
X5.61Y-3.86
X5.6107Y-3.7193
X5.6107Y-3.77
X5.6107Y-3.8207
X5.66Y-3.86
X5.6614Y-3.7193
X5.6614Y-3.77
X5.6614Y-3.8207
X5.68Y-3.59
X5.69Y-4.11
X5.7Y-3.54
X5.72Y-4.01
X5.73Y-4.11
X5.73Y-4.3
X5.7492Y-4.2106
X5.75Y-4.01
X5.75Y-4.26
X5.79Y-4.0476
X5.79Y-4.12
X5.86Y-3.91
X5.89Y-3.61
X5.9Y-3.13
X5.9Y-3.17
X5.94Y-3.13
X5.94Y-3.17
X5.94Y-3.834
X5.96Y-3.31
X5.98Y-3.13
X5.98Y-3.17
X6.02Y-3.13
X6.02Y-3.17
X6.02Y-3.5
X6.06Y-3.61
X6.07Y-3.9226
X6.0782Y-3.5982
X6.08Y-3.79
X6.09Y-3.49
X6.1Y-3.66
X6.11Y-4.49
X6.11Y-4.53
X6.1122Y-4.3122
X6.12Y-3.64
X6.1374Y-3.8724
X6.14Y-3.49
X6.14Y-3.77
X6.16Y-4.49
X6.16Y-4.53
X6.17Y-3.64
X6.17Y-3.64
X6.18Y-3.8635
X6.19Y-3.68
X6.21Y-4.49
X6.21Y-4.53
X6.22Y-3.49
X6.23Y-4.12
X6.26Y-4.49
X6.26Y-4.53
X6.2692Y-4.14
X6.2826Y-3.71
X6.2826Y-3.74
X6.3Y-3.92
X6.32Y-3.69
X6.34Y-4.0644
X6.35Y-3.71
X6.36Y-3.84
X6.36Y-4.69
X6.38Y-3.43
X6.38Y-3.64
X6.41Y-4.06
X6.41Y-4.17
X6.4553Y-4.17
X6.5251Y-3.9049
X6.53Y-3.84
X6.55Y-3.97
X6.5562Y-3.8998
X6.57Y-3.8
X6.58Y-3.75
X6.61Y-3.66
X6.61Y-3.73
X6.62Y-3.49
X6.65Y-3.28
X6.67Y-4.19
X6.69Y-4.22
X6.7Y-3.63
X6.7Y-4.19
X6.77Y-3.93
X6.77Y-3.97
X6.81Y-3.93
X6.81Y-3.97
X6.83Y-3.7
X6.84Y-3.93
X6.84Y-3.97
X6.86Y-3.84
X6.88Y-3.93
X6.88Y-3.97
X6.89Y-3.36
X6.89Y-3.41
X6.96Y-3.14
X6.96Y-3.17
X7.Y-3.29
X7.04Y-3.29
X7.25Y-3.32
X7.27Y-3.35
X7.29Y-3.32
X7.31Y-4.42
X7.31Y-4.46
X7.31Y-4.5
X7.31Y-4.54
X7.31Y-4.64
X7.31Y-4.68
X7.31Y-4.72
T2
X6.58Y-3.3205
X6.58Y-3.3795
T3
X5.5439Y-3.2
X5.7361Y-3.2
X6.1839Y-3.18
X6.3761Y-3.18
T4
X4.27Y-3.73
X4.27Y-3.93
X4.37Y-3.83
X4.47Y-3.73
X4.47Y-3.93
T5
X4.68Y-4.61
X4.78Y-4.61
X4.88Y-4.61
X5.07Y-4.61
X5.17Y-4.61
X5.27Y-4.61
X5.37Y-4.61
X5.57Y-4.61
X5.67Y-4.61
X5.77Y-4.61
X6.76Y-4.69
X6.86Y-4.69
X6.96Y-4.69
X7.06Y-3.64
X7.06Y-3.74
X7.06Y-4.69
X7.16Y-3.64
X7.16Y-3.74
X7.16Y-4.43
X7.16Y-4.53
X7.16Y-4.69
X7.26Y-3.64
X7.26Y-3.74
T0
M30
