G04 #@! TF.FileFunction,Copper,L2,Inr,Signal*
%FSLAX46Y46*%
G04 Gerber Fmt 4.6, Leading zero omitted, Abs format (unit mm)*
G04 Created by KiCad (PCBNEW 4.0.4-stable) date 05/18/17 09:07:34*
%MOMM*%
%LPD*%
G01*
G04 APERTURE LIST*
%ADD10C,0.100000*%
%ADD11C,0.300000*%
%ADD12R,2.032000X2.032000*%
%ADD13O,2.032000X2.032000*%
%ADD14R,1.727200X2.032000*%
%ADD15O,1.727200X2.032000*%
%ADD16R,1.727200X1.727200*%
%ADD17O,1.727200X1.727200*%
%ADD18C,0.600000*%
%ADD19C,0.250000*%
%ADD20C,0.254000*%
G04 APERTURE END LIST*
D10*
D11*
X65557143Y-70250000D02*
X65414286Y-70178571D01*
X65200000Y-70178571D01*
X64985715Y-70250000D01*
X64842857Y-70392857D01*
X64771429Y-70535714D01*
X64700000Y-70821429D01*
X64700000Y-71035714D01*
X64771429Y-71321429D01*
X64842857Y-71464286D01*
X64985715Y-71607143D01*
X65200000Y-71678571D01*
X65342857Y-71678571D01*
X65557143Y-71607143D01*
X65628572Y-71535714D01*
X65628572Y-71035714D01*
X65342857Y-71035714D01*
X66271429Y-71678571D02*
X66271429Y-70178571D01*
X67128572Y-71678571D01*
X67128572Y-70178571D01*
X67842858Y-71678571D02*
X67842858Y-70178571D01*
X68200001Y-70178571D01*
X68414286Y-70250000D01*
X68557144Y-70392857D01*
X68628572Y-70535714D01*
X68700001Y-70821429D01*
X68700001Y-71035714D01*
X68628572Y-71321429D01*
X68557144Y-71464286D01*
X68414286Y-71607143D01*
X68200001Y-71678571D01*
X67842858Y-71678571D01*
D12*
X65900000Y-66900000D03*
D13*
X65900000Y-64360000D03*
D14*
X104180000Y-42200000D03*
D15*
X101640000Y-42200000D03*
X99100000Y-42200000D03*
D14*
X95480000Y-42200000D03*
D15*
X92940000Y-42200000D03*
X90400000Y-42200000D03*
D16*
X107800000Y-42200000D03*
D17*
X110340000Y-42200000D03*
X107800000Y-44740000D03*
X110340000Y-44740000D03*
X107800000Y-47280000D03*
X110340000Y-47280000D03*
D18*
X84200000Y-43600000D03*
X84900000Y-44200000D03*
X84970000Y-43210000D03*
X90500000Y-47470000D03*
X80340000Y-40480000D03*
X71800000Y-44700000D03*
X105700000Y-48000000D03*
X105700000Y-46800000D03*
X109000000Y-39800000D03*
X106400000Y-39800000D03*
X98400000Y-39800000D03*
X103046000Y-39800000D03*
X88800000Y-42100000D03*
X90500000Y-46600000D03*
X94000000Y-39800000D03*
X92000000Y-39900000D03*
X90300000Y-39900000D03*
X88800000Y-40200000D03*
X69400000Y-46400000D03*
X77600000Y-40300000D03*
X67400000Y-40400000D03*
X72500000Y-40300000D03*
X69300000Y-44700000D03*
X109700000Y-57700000D03*
X108425000Y-57600000D03*
X108400000Y-59100000D03*
X109700000Y-59100000D03*
X110900000Y-59100000D03*
X110900000Y-57800000D03*
X110900000Y-56400000D03*
X109700000Y-56400000D03*
X108500000Y-56400000D03*
X100000000Y-63400000D03*
X100000000Y-62100000D03*
X100000000Y-60900000D03*
X100000000Y-59800000D03*
X108500000Y-66500000D03*
X106700000Y-67300000D03*
X106700000Y-68800000D03*
X106700000Y-70200000D03*
X107800000Y-71800000D03*
X106300000Y-71800000D03*
X104900000Y-71800000D03*
X97500000Y-71400000D03*
X96400000Y-71400000D03*
X95200000Y-71400000D03*
X94000000Y-71400000D03*
X92800000Y-71400000D03*
X89100000Y-55500000D03*
X82900000Y-59300000D03*
X83900000Y-59300000D03*
X78725000Y-61900000D03*
X77100000Y-62300000D03*
X77100000Y-63900000D03*
X88900000Y-63700000D03*
X90600000Y-63700000D03*
X87200000Y-63700000D03*
X78300000Y-68000000D03*
X74400000Y-59000000D03*
X75500000Y-59200000D03*
X79500000Y-59200000D03*
X78000000Y-59100000D03*
X71800000Y-57500000D03*
X70600000Y-57500000D03*
X84656250Y-51133750D03*
X85943750Y-51133750D03*
X85943750Y-49846250D03*
X84656250Y-49846250D03*
X67200000Y-48900000D03*
X99100000Y-53500000D03*
X98300000Y-52700000D03*
X97600000Y-52000000D03*
X96800000Y-51200000D03*
X96200000Y-51800000D03*
X99700000Y-51100000D03*
X99000000Y-50600000D03*
X98230000Y-49870000D03*
X97600000Y-47100000D03*
X97600000Y-48100000D03*
X97530000Y-49190000D03*
X67900000Y-53700000D03*
X72700000Y-52700000D03*
X70400000Y-48900000D03*
X71700000Y-50000000D03*
X70400000Y-50000000D03*
X69000000Y-48900000D03*
X67600000Y-52700000D03*
X66600000Y-52700000D03*
X64200000Y-52700000D03*
X65000000Y-52700000D03*
X66600000Y-50100000D03*
X65200000Y-50100000D03*
X64200000Y-50100000D03*
X96000000Y-52600000D03*
X74700000Y-45325000D03*
X65100000Y-58000000D03*
X64100000Y-58000000D03*
X65900000Y-58000000D03*
X67500000Y-58000000D03*
X65900000Y-59300000D03*
X65900000Y-61400000D03*
X67300000Y-46950000D03*
X66550000Y-46950000D03*
X65300000Y-46950000D03*
X63880000Y-47000000D03*
X75580000Y-51620000D03*
X77000000Y-50300000D03*
X75545000Y-50320000D03*
X76960000Y-51560000D03*
X76240000Y-50940000D03*
X72000000Y-53200000D03*
X70600000Y-53800000D03*
X69000000Y-53800000D03*
X67900000Y-55100000D03*
X64100000Y-55900000D03*
X67000000Y-55900000D03*
X66000000Y-55900000D03*
X65100000Y-55900000D03*
X101440000Y-55580000D03*
X108000000Y-53300000D03*
X102200000Y-48200000D03*
X95500000Y-47400000D03*
X71300000Y-59200000D03*
X89100000Y-54199999D03*
X80625000Y-62700000D03*
X72800000Y-49700000D03*
X78000000Y-54300000D03*
X74200000Y-55600000D03*
X74200000Y-48200000D03*
X81200000Y-56100000D03*
X81200000Y-59100000D03*
X82500000Y-45300000D03*
X85900000Y-48200000D03*
X85700000Y-53000000D03*
X84200000Y-52700000D03*
X81400000Y-63300000D03*
X88100000Y-52700000D03*
X80000000Y-47900000D03*
X83100000Y-52700000D03*
X84600000Y-48200000D03*
X82050000Y-56700000D03*
X82050000Y-62450000D03*
X84300000Y-67390000D03*
X88040000Y-64810000D03*
X101500000Y-58700000D03*
X103400000Y-46700000D03*
X94645863Y-55654137D03*
X94645863Y-47202849D03*
X92800000Y-56300000D03*
X91400000Y-59700000D03*
X102800000Y-54200000D03*
X75800000Y-68400000D03*
X105000000Y-70300000D03*
X95566000Y-55664000D03*
X76700000Y-47400000D03*
X83300000Y-45700000D03*
X105990000Y-58400000D03*
X104400000Y-58000000D03*
X91400000Y-53500000D03*
X96366003Y-55664000D03*
X75900000Y-47400000D03*
X91600000Y-56500000D03*
X86100000Y-56500000D03*
X101580000Y-53220000D03*
X87040000Y-67400000D03*
X101130000Y-52350000D03*
X83990000Y-66180000D03*
X100360000Y-51710000D03*
X84680000Y-65070000D03*
X83000000Y-48200000D03*
X77400000Y-43100000D03*
X72900000Y-43400000D03*
X83000000Y-49200000D03*
X84380000Y-64090000D03*
X97330000Y-55690000D03*
D19*
X108425000Y-57600000D02*
X110700000Y-57600000D01*
X110700000Y-57600000D02*
X110900000Y-57800000D01*
X108500000Y-58600000D02*
X108475736Y-58600000D01*
X108475736Y-58600000D02*
X108400000Y-58675736D01*
X108400000Y-58675736D02*
X108400000Y-59100000D01*
X108500000Y-56400000D02*
X108500000Y-58600000D01*
X110900000Y-56400000D02*
X108500000Y-56400000D01*
X110900000Y-59100000D02*
X110900000Y-56400000D01*
X108400000Y-59100000D02*
X110900000Y-59100000D01*
X108500000Y-66500000D02*
X108500000Y-59200000D01*
X108500000Y-59200000D02*
X108400000Y-59100000D01*
X107800000Y-71800000D02*
X107800000Y-71300000D01*
X107800000Y-71300000D02*
X106700000Y-70200000D01*
X106700000Y-67300000D02*
X107500000Y-66500000D01*
X107500000Y-66500000D02*
X108500000Y-66500000D01*
X106700000Y-70200000D02*
X106700000Y-67300000D01*
X104900000Y-71800000D02*
X107800000Y-71800000D01*
X97500000Y-71400000D02*
X104500000Y-71400000D01*
X104500000Y-71400000D02*
X104900000Y-71800000D01*
X92800000Y-71400000D02*
X97500000Y-71400000D01*
X90600000Y-63700000D02*
X90600000Y-69200000D01*
X90600000Y-69200000D02*
X92800000Y-71400000D01*
X79500000Y-59200000D02*
X81000000Y-60700000D01*
X81000000Y-60700000D02*
X84200000Y-60700000D01*
X84200000Y-60700000D02*
X86900001Y-63400001D01*
X86900001Y-63400001D02*
X87200000Y-63700000D01*
X77100000Y-62300000D02*
X78325000Y-62300000D01*
X78325000Y-62300000D02*
X78725000Y-61900000D01*
X77100000Y-62300000D02*
X77100000Y-63900000D01*
X78725000Y-61900000D02*
X78725000Y-59825000D01*
X78725000Y-59825000D02*
X78000000Y-59100000D01*
X88900000Y-63700000D02*
X90600000Y-63700000D01*
X87200000Y-63700000D02*
X88900000Y-63700000D01*
X79400000Y-59100000D02*
X79500000Y-59200000D01*
X78000000Y-59100000D02*
X79400000Y-59100000D01*
X75500000Y-59200000D02*
X77900000Y-59200000D01*
X77900000Y-59200000D02*
X78000000Y-59100000D01*
X74400000Y-59000000D02*
X75300000Y-59000000D01*
X75300000Y-59000000D02*
X75500000Y-59200000D01*
X65900000Y-59300000D02*
X66425001Y-59825001D01*
X66425001Y-59825001D02*
X73574999Y-59825001D01*
X73574999Y-59825001D02*
X74100001Y-59299999D01*
X74100001Y-59299999D02*
X74400000Y-59000000D01*
X84600000Y-51560000D02*
X86000000Y-51560000D01*
X86000000Y-51560000D02*
X95960000Y-51560000D01*
X85943750Y-51133750D02*
X85943750Y-51503750D01*
X85943750Y-51503750D02*
X86000000Y-51560000D01*
X85943750Y-49846250D02*
X85943750Y-51133750D01*
X84600000Y-51560000D02*
X84656250Y-51503750D01*
X84656250Y-51503750D02*
X84656250Y-49846250D01*
X76960000Y-51560000D02*
X84600000Y-51560000D01*
X84600000Y-51560000D02*
X84600000Y-51190000D01*
X84600000Y-51190000D02*
X84656250Y-51133750D01*
X77000000Y-50300000D02*
X77000000Y-51520000D01*
X77000000Y-51520000D02*
X76960000Y-51560000D01*
X75580000Y-51620000D02*
X76900000Y-51620000D01*
X76900000Y-51620000D02*
X76960000Y-51560000D01*
X75580000Y-51620000D02*
X75580000Y-50355000D01*
X75580000Y-50355000D02*
X75545000Y-50320000D01*
X67200000Y-48900000D02*
X69000000Y-48900000D01*
X66600000Y-50100000D02*
X66600000Y-49500000D01*
X66600000Y-49500000D02*
X67200000Y-48900000D01*
X96200000Y-51800000D02*
X96200000Y-50520000D01*
X96200000Y-50520000D02*
X97530000Y-49190000D01*
X95960000Y-51560000D02*
X96200000Y-51800000D01*
X71700000Y-53500000D02*
X73700000Y-53500000D01*
X73700000Y-53500000D02*
X74110000Y-53090000D01*
X74110000Y-53090000D02*
X75580000Y-51620000D01*
X75545000Y-50320000D02*
X76980000Y-50320000D01*
X76980000Y-50320000D02*
X77000000Y-50300000D01*
X70400000Y-50000000D02*
X70400000Y-48900000D01*
X70400000Y-50000000D02*
X71700000Y-50000000D01*
X69800000Y-48900000D02*
X70400000Y-49500000D01*
X70400000Y-49500000D02*
X70400000Y-50000000D01*
X69000000Y-48900000D02*
X69800000Y-48900000D01*
X66600000Y-52700000D02*
X67600000Y-52700000D01*
X64200000Y-52700000D02*
X66600000Y-52700000D01*
X65000000Y-52700000D02*
X64200000Y-52700000D01*
X65900000Y-52700000D02*
X65900000Y-50100000D01*
X65900000Y-56700000D02*
X65900000Y-52700000D01*
X65900000Y-52700000D02*
X65000000Y-52700000D01*
X65200000Y-50100000D02*
X66600000Y-50100000D01*
X65200000Y-50100000D02*
X65100000Y-50100000D01*
X65900000Y-50100000D02*
X65200000Y-50100000D01*
X64200000Y-50100000D02*
X65100000Y-50100000D01*
X65900000Y-50100000D02*
X65900000Y-49020000D01*
X65100000Y-58000000D02*
X64100000Y-58000000D01*
X65900000Y-58000000D02*
X65100000Y-58000000D01*
X65900000Y-59300000D02*
X65900000Y-58000000D01*
X65900000Y-58000000D02*
X65900000Y-56700000D01*
X67500000Y-58000000D02*
X65900000Y-58000000D01*
X65900000Y-59300000D02*
X66200000Y-59300000D01*
X66200000Y-59300000D02*
X67500000Y-58000000D01*
X65900000Y-60100000D02*
X65900000Y-59300000D01*
X65900000Y-61400000D02*
X65900000Y-59300000D01*
X65900000Y-64360000D02*
X65900000Y-60100000D01*
X65900000Y-60100000D02*
X65900000Y-61400000D01*
X65580000Y-47920000D02*
X66330000Y-47920000D01*
X66330000Y-47920000D02*
X67300000Y-46950000D01*
X66550000Y-46950000D02*
X65580000Y-47920000D01*
X65580000Y-47920000D02*
X64800000Y-47920000D01*
X64800000Y-47920000D02*
X64580000Y-47700000D01*
X65900000Y-49020000D02*
X64800000Y-47920000D01*
X64580000Y-47700000D02*
X63880000Y-47000000D01*
X64580000Y-47700000D02*
X64580000Y-47670000D01*
X64580000Y-47670000D02*
X65300000Y-46950000D01*
X71700000Y-53500000D02*
X72000000Y-53200000D01*
X71000000Y-54200000D02*
X71700000Y-53500000D01*
X70200000Y-54200000D02*
X71000000Y-54200000D01*
X68600000Y-54200000D02*
X69000000Y-53800000D01*
X67600000Y-55200000D02*
X68600000Y-54200000D01*
X68600000Y-54200000D02*
X70200000Y-54200000D01*
X70200000Y-54200000D02*
X70600000Y-53800000D01*
X67600000Y-55400000D02*
X67900000Y-55100000D01*
X67100000Y-55900000D02*
X67600000Y-55400000D01*
X67600000Y-55400000D02*
X67600000Y-55200000D01*
X67000000Y-55900000D02*
X67100000Y-55900000D01*
X65600000Y-55900000D02*
X64100000Y-55900000D01*
X65600000Y-55900000D02*
X66000000Y-55900000D01*
X65100000Y-55900000D02*
X65600000Y-55900000D01*
X65600000Y-55900000D02*
X67000000Y-55900000D01*
X65900000Y-56700000D02*
X65100000Y-55900000D01*
D20*
G36*
X109356609Y-39620877D02*
X110399536Y-39828328D01*
X111162126Y-40337874D01*
X111671857Y-41100740D01*
X111879243Y-42138609D01*
X111890000Y-42164515D01*
X111890000Y-69517291D01*
X111873712Y-69556614D01*
X111666261Y-70599541D01*
X111156715Y-71362131D01*
X110393849Y-71871862D01*
X109355980Y-72079248D01*
X109330086Y-72090000D01*
X69620715Y-72090000D01*
X69620715Y-70485167D01*
X104064838Y-70485167D01*
X104206883Y-70828943D01*
X104469673Y-71092192D01*
X104813201Y-71234838D01*
X105185167Y-71235162D01*
X105528943Y-71093117D01*
X105792192Y-70830327D01*
X105934838Y-70486799D01*
X105935162Y-70114833D01*
X105793117Y-69771057D01*
X105530327Y-69507808D01*
X105186799Y-69365162D01*
X104814833Y-69364838D01*
X104471057Y-69506883D01*
X104207808Y-69769673D01*
X104065162Y-70113201D01*
X104064838Y-70485167D01*
X69620715Y-70485167D01*
X69620715Y-69165000D01*
X63779286Y-69165000D01*
X63779286Y-70670397D01*
X63728138Y-70593849D01*
X63520752Y-69555980D01*
X63510000Y-69530086D01*
X63510000Y-68585167D01*
X74864838Y-68585167D01*
X75006883Y-68928943D01*
X75269673Y-69192192D01*
X75613201Y-69334838D01*
X75985167Y-69335162D01*
X76328943Y-69193117D01*
X76592192Y-68930327D01*
X76734838Y-68586799D01*
X76735032Y-68363890D01*
X102715592Y-68363890D01*
X102880362Y-68762663D01*
X103185193Y-69068026D01*
X103583677Y-69233491D01*
X104015150Y-69233868D01*
X104413923Y-69069098D01*
X104719286Y-68764267D01*
X104884751Y-68365783D01*
X104884752Y-68363890D01*
X107114872Y-68363890D01*
X107279642Y-68762663D01*
X107584473Y-69068026D01*
X107982957Y-69233491D01*
X108414430Y-69233868D01*
X108813203Y-69069098D01*
X109118566Y-68764267D01*
X109284031Y-68365783D01*
X109284408Y-67934310D01*
X109119638Y-67535537D01*
X108814807Y-67230174D01*
X108416323Y-67064709D01*
X107984850Y-67064332D01*
X107586077Y-67229102D01*
X107280714Y-67533933D01*
X107115249Y-67932417D01*
X107114872Y-68363890D01*
X104884752Y-68363890D01*
X104885128Y-67934310D01*
X104720358Y-67535537D01*
X104415527Y-67230174D01*
X104017043Y-67064709D01*
X103585570Y-67064332D01*
X103186797Y-67229102D01*
X102881434Y-67533933D01*
X102715969Y-67932417D01*
X102715592Y-68363890D01*
X76735032Y-68363890D01*
X76735162Y-68214833D01*
X76593117Y-67871057D01*
X76330327Y-67607808D01*
X75986799Y-67465162D01*
X75614833Y-67464838D01*
X75271057Y-67606883D01*
X75007808Y-67869673D01*
X74865162Y-68213201D01*
X74864838Y-68585167D01*
X63510000Y-68585167D01*
X63510000Y-65884000D01*
X64236560Y-65884000D01*
X64236560Y-67916000D01*
X64280838Y-68151317D01*
X64419910Y-68367441D01*
X64632110Y-68512431D01*
X64884000Y-68563440D01*
X66916000Y-68563440D01*
X67151317Y-68519162D01*
X67367441Y-68380090D01*
X67512431Y-68167890D01*
X67563440Y-67916000D01*
X67563440Y-66365167D01*
X83054838Y-66365167D01*
X83196883Y-66708943D01*
X83459673Y-66972192D01*
X83460878Y-66972692D01*
X83365162Y-67203201D01*
X83364838Y-67575167D01*
X83506883Y-67918943D01*
X83769673Y-68182192D01*
X84113201Y-68324838D01*
X84485167Y-68325162D01*
X84828943Y-68183117D01*
X85092192Y-67920327D01*
X85231363Y-67585167D01*
X86104838Y-67585167D01*
X86246883Y-67928943D01*
X86509673Y-68192192D01*
X86853201Y-68334838D01*
X87225167Y-68335162D01*
X87568943Y-68193117D01*
X87832192Y-67930327D01*
X87974838Y-67586799D01*
X87975162Y-67214833D01*
X87833117Y-66871057D01*
X87570327Y-66607808D01*
X87226799Y-66465162D01*
X86854833Y-66464838D01*
X86511057Y-66606883D01*
X86247808Y-66869673D01*
X86105162Y-67213201D01*
X86104838Y-67585167D01*
X85231363Y-67585167D01*
X85234838Y-67576799D01*
X85235162Y-67204833D01*
X85093117Y-66861057D01*
X84830327Y-66597808D01*
X84829122Y-66597308D01*
X84924838Y-66366799D01*
X84925162Y-65994833D01*
X84920058Y-65982481D01*
X85208943Y-65863117D01*
X85472192Y-65600327D01*
X85614838Y-65256799D01*
X85615065Y-64995167D01*
X87104838Y-64995167D01*
X87246883Y-65338943D01*
X87509673Y-65602192D01*
X87853201Y-65744838D01*
X88225167Y-65745162D01*
X88568943Y-65603117D01*
X88832192Y-65340327D01*
X88974838Y-64996799D01*
X88975162Y-64624833D01*
X88833117Y-64281057D01*
X88570327Y-64017808D01*
X88226799Y-63875162D01*
X87854833Y-63874838D01*
X87511057Y-64016883D01*
X87247808Y-64279673D01*
X87105162Y-64623201D01*
X87104838Y-64995167D01*
X85615065Y-64995167D01*
X85615162Y-64884833D01*
X85473117Y-64541057D01*
X85283840Y-64351450D01*
X85314838Y-64276799D01*
X85315162Y-63904833D01*
X85173117Y-63561057D01*
X84910327Y-63297808D01*
X84566799Y-63155162D01*
X84194833Y-63154838D01*
X83851057Y-63296883D01*
X83587808Y-63559673D01*
X83445162Y-63903201D01*
X83444838Y-64275167D01*
X83586883Y-64618943D01*
X83776160Y-64808550D01*
X83745162Y-64883201D01*
X83744838Y-65255167D01*
X83749942Y-65267519D01*
X83461057Y-65386883D01*
X83197808Y-65649673D01*
X83055162Y-65993201D01*
X83054838Y-66365167D01*
X67563440Y-66365167D01*
X67563440Y-65884000D01*
X67519162Y-65648683D01*
X67380090Y-65432559D01*
X67167890Y-65287569D01*
X66916000Y-65236560D01*
X64884000Y-65236560D01*
X64648683Y-65280838D01*
X64432559Y-65419910D01*
X64287569Y-65632110D01*
X64236560Y-65884000D01*
X63510000Y-65884000D01*
X63510000Y-62885167D01*
X79689838Y-62885167D01*
X79831883Y-63228943D01*
X80094673Y-63492192D01*
X80438201Y-63634838D01*
X80526713Y-63634915D01*
X80606883Y-63828943D01*
X80869673Y-64092192D01*
X81213201Y-64234838D01*
X81585167Y-64235162D01*
X81928943Y-64093117D01*
X82192192Y-63830327D01*
X82334838Y-63486799D01*
X82334962Y-63343927D01*
X82578943Y-63243117D01*
X82842192Y-62980327D01*
X82984838Y-62636799D01*
X82985162Y-62264833D01*
X82843117Y-61921057D01*
X82580327Y-61657808D01*
X82236799Y-61515162D01*
X81864833Y-61514838D01*
X81521057Y-61656883D01*
X81257808Y-61919673D01*
X81231182Y-61983795D01*
X81155327Y-61907808D01*
X80811799Y-61765162D01*
X80439833Y-61764838D01*
X80096057Y-61906883D01*
X79832808Y-62169673D01*
X79690162Y-62513201D01*
X79689838Y-62885167D01*
X63510000Y-62885167D01*
X63510000Y-59385167D01*
X70364838Y-59385167D01*
X70506883Y-59728943D01*
X70769673Y-59992192D01*
X71113201Y-60134838D01*
X71485167Y-60135162D01*
X71828943Y-59993117D01*
X72092192Y-59730327D01*
X72234838Y-59386799D01*
X72234926Y-59285167D01*
X80264838Y-59285167D01*
X80406883Y-59628943D01*
X80669673Y-59892192D01*
X81013201Y-60034838D01*
X81385167Y-60035162D01*
X81728943Y-59893117D01*
X81736906Y-59885167D01*
X90464838Y-59885167D01*
X90606883Y-60228943D01*
X90869673Y-60492192D01*
X91213201Y-60634838D01*
X91585167Y-60635162D01*
X91928943Y-60493117D01*
X92192192Y-60230327D01*
X92334838Y-59886799D01*
X92335162Y-59514833D01*
X92193117Y-59171057D01*
X91930327Y-58907808D01*
X91875802Y-58885167D01*
X100564838Y-58885167D01*
X100706883Y-59228943D01*
X100969673Y-59492192D01*
X101313201Y-59634838D01*
X101685167Y-59635162D01*
X102028943Y-59493117D01*
X102292192Y-59230327D01*
X102434838Y-58886799D01*
X102435162Y-58514833D01*
X102298948Y-58185167D01*
X103464838Y-58185167D01*
X103606883Y-58528943D01*
X103869673Y-58792192D01*
X104213201Y-58934838D01*
X104585167Y-58935162D01*
X104928943Y-58793117D01*
X105078906Y-58643416D01*
X105196883Y-58928943D01*
X105459673Y-59192192D01*
X105803201Y-59334838D01*
X106175167Y-59335162D01*
X106518943Y-59193117D01*
X106782192Y-58930327D01*
X106924838Y-58586799D01*
X106925162Y-58214833D01*
X106783117Y-57871057D01*
X106520327Y-57607808D01*
X106176799Y-57465162D01*
X105804833Y-57464838D01*
X105461057Y-57606883D01*
X105311094Y-57756584D01*
X105193117Y-57471057D01*
X104930327Y-57207808D01*
X104586799Y-57065162D01*
X104214833Y-57064838D01*
X103871057Y-57206883D01*
X103607808Y-57469673D01*
X103465162Y-57813201D01*
X103464838Y-58185167D01*
X102298948Y-58185167D01*
X102293117Y-58171057D01*
X102030327Y-57907808D01*
X101686799Y-57765162D01*
X101314833Y-57764838D01*
X100971057Y-57906883D01*
X100707808Y-58169673D01*
X100565162Y-58513201D01*
X100564838Y-58885167D01*
X91875802Y-58885167D01*
X91586799Y-58765162D01*
X91214833Y-58764838D01*
X90871057Y-58906883D01*
X90607808Y-59169673D01*
X90465162Y-59513201D01*
X90464838Y-59885167D01*
X81736906Y-59885167D01*
X81992192Y-59630327D01*
X82134838Y-59286799D01*
X82135162Y-58914833D01*
X81993117Y-58571057D01*
X81730327Y-58307808D01*
X81386799Y-58165162D01*
X81014833Y-58164838D01*
X80671057Y-58306883D01*
X80407808Y-58569673D01*
X80265162Y-58913201D01*
X80264838Y-59285167D01*
X72234926Y-59285167D01*
X72235162Y-59014833D01*
X72093117Y-58671057D01*
X71830327Y-58407808D01*
X71486799Y-58265162D01*
X71114833Y-58264838D01*
X70771057Y-58406883D01*
X70507808Y-58669673D01*
X70365162Y-59013201D01*
X70364838Y-59385167D01*
X63510000Y-59385167D01*
X63510000Y-55785167D01*
X73264838Y-55785167D01*
X73406883Y-56128943D01*
X73669673Y-56392192D01*
X74013201Y-56534838D01*
X74385167Y-56535162D01*
X74728943Y-56393117D01*
X74837081Y-56285167D01*
X80264838Y-56285167D01*
X80406883Y-56628943D01*
X80669673Y-56892192D01*
X81013201Y-57034838D01*
X81176740Y-57034980D01*
X81256883Y-57228943D01*
X81519673Y-57492192D01*
X81863201Y-57634838D01*
X82235167Y-57635162D01*
X82578943Y-57493117D01*
X82842192Y-57230327D01*
X82984838Y-56886799D01*
X82985013Y-56685167D01*
X85164838Y-56685167D01*
X85306883Y-57028943D01*
X85569673Y-57292192D01*
X85913201Y-57434838D01*
X86285167Y-57435162D01*
X86628943Y-57293117D01*
X86892192Y-57030327D01*
X87034838Y-56686799D01*
X87034839Y-56685167D01*
X90664838Y-56685167D01*
X90806883Y-57028943D01*
X91069673Y-57292192D01*
X91413201Y-57434838D01*
X91785167Y-57435162D01*
X92128943Y-57293117D01*
X92312433Y-57109947D01*
X92613201Y-57234838D01*
X92985167Y-57235162D01*
X93328943Y-57093117D01*
X93592192Y-56830327D01*
X93734838Y-56486799D01*
X93735162Y-56114833D01*
X93621317Y-55839304D01*
X93710701Y-55839304D01*
X93852746Y-56183080D01*
X94115536Y-56446329D01*
X94459064Y-56588975D01*
X94831030Y-56589299D01*
X95094278Y-56480527D01*
X95379201Y-56598838D01*
X95751167Y-56599162D01*
X95966106Y-56510351D01*
X96179204Y-56598838D01*
X96551170Y-56599162D01*
X96816924Y-56489355D01*
X97143201Y-56624838D01*
X97515167Y-56625162D01*
X97858943Y-56483117D01*
X98122192Y-56220327D01*
X98264838Y-55876799D01*
X98264935Y-55765167D01*
X100504838Y-55765167D01*
X100646883Y-56108943D01*
X100909673Y-56372192D01*
X101253201Y-56514838D01*
X101625167Y-56515162D01*
X101968943Y-56373117D01*
X102232192Y-56110327D01*
X102374838Y-55766799D01*
X102375162Y-55394833D01*
X102233117Y-55051057D01*
X101970327Y-54787808D01*
X101626799Y-54645162D01*
X101254833Y-54644838D01*
X100911057Y-54786883D01*
X100647808Y-55049673D01*
X100505162Y-55393201D01*
X100504838Y-55765167D01*
X98264935Y-55765167D01*
X98265162Y-55504833D01*
X98123117Y-55161057D01*
X97860327Y-54897808D01*
X97516799Y-54755162D01*
X97144833Y-54754838D01*
X96879079Y-54864645D01*
X96552802Y-54729162D01*
X96180836Y-54728838D01*
X95965897Y-54817649D01*
X95752799Y-54729162D01*
X95380833Y-54728838D01*
X95117585Y-54837610D01*
X94832662Y-54719299D01*
X94460696Y-54718975D01*
X94116920Y-54861020D01*
X93853671Y-55123810D01*
X93711025Y-55467338D01*
X93710701Y-55839304D01*
X93621317Y-55839304D01*
X93593117Y-55771057D01*
X93330327Y-55507808D01*
X92986799Y-55365162D01*
X92614833Y-55364838D01*
X92271057Y-55506883D01*
X92087567Y-55690053D01*
X91786799Y-55565162D01*
X91414833Y-55564838D01*
X91071057Y-55706883D01*
X90807808Y-55969673D01*
X90665162Y-56313201D01*
X90664838Y-56685167D01*
X87034839Y-56685167D01*
X87035162Y-56314833D01*
X86893117Y-55971057D01*
X86630327Y-55707808D01*
X86286799Y-55565162D01*
X85914833Y-55564838D01*
X85571057Y-55706883D01*
X85307808Y-55969673D01*
X85165162Y-56313201D01*
X85164838Y-56685167D01*
X82985013Y-56685167D01*
X82985162Y-56514833D01*
X82843117Y-56171057D01*
X82580327Y-55907808D01*
X82236799Y-55765162D01*
X82073260Y-55765020D01*
X81993117Y-55571057D01*
X81730327Y-55307808D01*
X81386799Y-55165162D01*
X81014833Y-55164838D01*
X80671057Y-55306883D01*
X80407808Y-55569673D01*
X80265162Y-55913201D01*
X80264838Y-56285167D01*
X74837081Y-56285167D01*
X74992192Y-56130327D01*
X75134838Y-55786799D01*
X75135162Y-55414833D01*
X74993117Y-55071057D01*
X74730327Y-54807808D01*
X74386799Y-54665162D01*
X74014833Y-54664838D01*
X73671057Y-54806883D01*
X73407808Y-55069673D01*
X73265162Y-55413201D01*
X73264838Y-55785167D01*
X63510000Y-55785167D01*
X63510000Y-54485167D01*
X77064838Y-54485167D01*
X77206883Y-54828943D01*
X77469673Y-55092192D01*
X77813201Y-55234838D01*
X78185167Y-55235162D01*
X78528943Y-55093117D01*
X78792192Y-54830327D01*
X78934838Y-54486799D01*
X78935162Y-54114833D01*
X78793117Y-53771057D01*
X78530327Y-53507808D01*
X78186799Y-53365162D01*
X77814833Y-53364838D01*
X77471057Y-53506883D01*
X77207808Y-53769673D01*
X77065162Y-54113201D01*
X77064838Y-54485167D01*
X63510000Y-54485167D01*
X63510000Y-52885167D01*
X82164838Y-52885167D01*
X82306883Y-53228943D01*
X82569673Y-53492192D01*
X82913201Y-53634838D01*
X83285167Y-53635162D01*
X83628943Y-53493117D01*
X83649806Y-53472290D01*
X83669673Y-53492192D01*
X84013201Y-53634838D01*
X84385167Y-53635162D01*
X84728943Y-53493117D01*
X84844441Y-53377821D01*
X84906883Y-53528943D01*
X85169673Y-53792192D01*
X85513201Y-53934838D01*
X85885167Y-53935162D01*
X86228943Y-53793117D01*
X86492192Y-53530327D01*
X86634838Y-53186799D01*
X86635100Y-52885167D01*
X87164838Y-52885167D01*
X87306883Y-53228943D01*
X87569673Y-53492192D01*
X87913201Y-53634838D01*
X88285167Y-53635162D01*
X88382783Y-53594828D01*
X88307808Y-53669672D01*
X88165162Y-54013200D01*
X88164838Y-54385166D01*
X88306883Y-54728942D01*
X88569673Y-54992191D01*
X88913201Y-55134837D01*
X89285167Y-55135161D01*
X89628943Y-54993116D01*
X89892192Y-54730326D01*
X90034838Y-54386798D01*
X90035162Y-54014832D01*
X89898948Y-53685167D01*
X90464838Y-53685167D01*
X90606883Y-54028943D01*
X90869673Y-54292192D01*
X91213201Y-54434838D01*
X91585167Y-54435162D01*
X91928943Y-54293117D01*
X92192192Y-54030327D01*
X92334838Y-53686799D01*
X92335162Y-53314833D01*
X92193117Y-52971057D01*
X91930327Y-52707808D01*
X91586799Y-52565162D01*
X91214833Y-52564838D01*
X90871057Y-52706883D01*
X90607808Y-52969673D01*
X90465162Y-53313201D01*
X90464838Y-53685167D01*
X89898948Y-53685167D01*
X89893117Y-53671056D01*
X89630327Y-53407807D01*
X89286799Y-53265161D01*
X88914833Y-53264837D01*
X88817217Y-53305171D01*
X88892192Y-53230327D01*
X89034838Y-52886799D01*
X89035162Y-52514833D01*
X88893117Y-52171057D01*
X88630327Y-51907808D01*
X88599885Y-51895167D01*
X99424838Y-51895167D01*
X99566883Y-52238943D01*
X99829673Y-52502192D01*
X100173201Y-52644838D01*
X100240177Y-52644896D01*
X100336883Y-52878943D01*
X100599673Y-53142192D01*
X100645051Y-53161035D01*
X100644838Y-53405167D01*
X100786883Y-53748943D01*
X101049673Y-54012192D01*
X101393201Y-54154838D01*
X101765167Y-54155162D01*
X101865074Y-54113881D01*
X101864838Y-54385167D01*
X102006883Y-54728943D01*
X102269673Y-54992192D01*
X102613201Y-55134838D01*
X102985167Y-55135162D01*
X103328943Y-54993117D01*
X103592192Y-54730327D01*
X103734838Y-54386799D01*
X103735162Y-54014833D01*
X103593117Y-53671057D01*
X103407552Y-53485167D01*
X107064838Y-53485167D01*
X107206883Y-53828943D01*
X107469673Y-54092192D01*
X107813201Y-54234838D01*
X108185167Y-54235162D01*
X108528943Y-54093117D01*
X108792192Y-53830327D01*
X108934838Y-53486799D01*
X108935162Y-53114833D01*
X108793117Y-52771057D01*
X108530327Y-52507808D01*
X108186799Y-52365162D01*
X107814833Y-52364838D01*
X107471057Y-52506883D01*
X107207808Y-52769673D01*
X107065162Y-53113201D01*
X107064838Y-53485167D01*
X103407552Y-53485167D01*
X103330327Y-53407808D01*
X102986799Y-53265162D01*
X102614833Y-53264838D01*
X102514926Y-53306119D01*
X102515162Y-53034833D01*
X102373117Y-52691057D01*
X102110327Y-52427808D01*
X102064949Y-52408965D01*
X102065162Y-52164833D01*
X101923117Y-51821057D01*
X101660327Y-51557808D01*
X101316799Y-51415162D01*
X101249823Y-51415104D01*
X101153117Y-51181057D01*
X100890327Y-50917808D01*
X100546799Y-50775162D01*
X100174833Y-50774838D01*
X99831057Y-50916883D01*
X99567808Y-51179673D01*
X99425162Y-51523201D01*
X99424838Y-51895167D01*
X88599885Y-51895167D01*
X88286799Y-51765162D01*
X87914833Y-51764838D01*
X87571057Y-51906883D01*
X87307808Y-52169673D01*
X87165162Y-52513201D01*
X87164838Y-52885167D01*
X86635100Y-52885167D01*
X86635162Y-52814833D01*
X86493117Y-52471057D01*
X86230327Y-52207808D01*
X85886799Y-52065162D01*
X85514833Y-52064838D01*
X85171057Y-52206883D01*
X85055559Y-52322179D01*
X84993117Y-52171057D01*
X84730327Y-51907808D01*
X84386799Y-51765162D01*
X84014833Y-51764838D01*
X83671057Y-51906883D01*
X83650194Y-51927710D01*
X83630327Y-51907808D01*
X83286799Y-51765162D01*
X82914833Y-51764838D01*
X82571057Y-51906883D01*
X82307808Y-52169673D01*
X82165162Y-52513201D01*
X82164838Y-52885167D01*
X63510000Y-52885167D01*
X63510000Y-49885167D01*
X71864838Y-49885167D01*
X72006883Y-50228943D01*
X72269673Y-50492192D01*
X72613201Y-50634838D01*
X72985167Y-50635162D01*
X73328943Y-50493117D01*
X73592192Y-50230327D01*
X73734838Y-49886799D01*
X73735162Y-49514833D01*
X73593117Y-49171057D01*
X73330327Y-48907808D01*
X72986799Y-48765162D01*
X72614833Y-48764838D01*
X72271057Y-48906883D01*
X72007808Y-49169673D01*
X71865162Y-49513201D01*
X71864838Y-49885167D01*
X63510000Y-49885167D01*
X63510000Y-48385167D01*
X73264838Y-48385167D01*
X73406883Y-48728943D01*
X73669673Y-48992192D01*
X74013201Y-49134838D01*
X74385167Y-49135162D01*
X74728943Y-48993117D01*
X74992192Y-48730327D01*
X75134838Y-48386799D01*
X75135162Y-48014833D01*
X74993117Y-47671057D01*
X74907377Y-47585167D01*
X74964838Y-47585167D01*
X75106883Y-47928943D01*
X75369673Y-48192192D01*
X75713201Y-48334838D01*
X76085167Y-48335162D01*
X76300104Y-48246352D01*
X76513201Y-48334838D01*
X76885167Y-48335162D01*
X77228943Y-48193117D01*
X77337081Y-48085167D01*
X79064838Y-48085167D01*
X79206883Y-48428943D01*
X79469673Y-48692192D01*
X79813201Y-48834838D01*
X80185167Y-48835162D01*
X80528943Y-48693117D01*
X80792192Y-48430327D01*
X80810944Y-48385167D01*
X82064838Y-48385167D01*
X82195069Y-48700351D01*
X82065162Y-49013201D01*
X82064838Y-49385167D01*
X82206883Y-49728943D01*
X82469673Y-49992192D01*
X82813201Y-50134838D01*
X83185167Y-50135162D01*
X83528943Y-49993117D01*
X83792192Y-49730327D01*
X83934838Y-49386799D01*
X83935162Y-49014833D01*
X83824205Y-48746295D01*
X84069673Y-48992192D01*
X84413201Y-49134838D01*
X84785167Y-49135162D01*
X85128943Y-48993117D01*
X85249981Y-48872290D01*
X85369673Y-48992192D01*
X85713201Y-49134838D01*
X86085167Y-49135162D01*
X86428943Y-48993117D01*
X86692192Y-48730327D01*
X86834838Y-48386799D01*
X86834839Y-48385167D01*
X101264838Y-48385167D01*
X101406883Y-48728943D01*
X101669673Y-48992192D01*
X102013201Y-49134838D01*
X102385167Y-49135162D01*
X102728943Y-48993117D01*
X102992192Y-48730327D01*
X103134838Y-48386799D01*
X103135162Y-48014833D01*
X102993117Y-47671057D01*
X102730327Y-47407808D01*
X102386799Y-47265162D01*
X102014833Y-47264838D01*
X101671057Y-47406883D01*
X101407808Y-47669673D01*
X101265162Y-48013201D01*
X101264838Y-48385167D01*
X86834839Y-48385167D01*
X86835162Y-48014833D01*
X86693117Y-47671057D01*
X86430327Y-47407808D01*
X86382663Y-47388016D01*
X93710701Y-47388016D01*
X93852746Y-47731792D01*
X94115536Y-47995041D01*
X94459064Y-48137687D01*
X94831030Y-48138011D01*
X94890894Y-48113276D01*
X94969673Y-48192192D01*
X95313201Y-48334838D01*
X95685167Y-48335162D01*
X96028943Y-48193117D01*
X96292192Y-47930327D01*
X96434838Y-47586799D01*
X96435162Y-47214833D01*
X96298948Y-46885167D01*
X102464838Y-46885167D01*
X102606883Y-47228943D01*
X102869673Y-47492192D01*
X103213201Y-47634838D01*
X103585167Y-47635162D01*
X103928943Y-47493117D01*
X104192192Y-47230327D01*
X104334838Y-46886799D01*
X104335162Y-46514833D01*
X104193117Y-46171057D01*
X103930327Y-45907808D01*
X103586799Y-45765162D01*
X103214833Y-45764838D01*
X102871057Y-45906883D01*
X102607808Y-46169673D01*
X102465162Y-46513201D01*
X102464838Y-46885167D01*
X96298948Y-46885167D01*
X96293117Y-46871057D01*
X96030327Y-46607808D01*
X95686799Y-46465162D01*
X95314833Y-46464838D01*
X95254969Y-46489573D01*
X95176190Y-46410657D01*
X94832662Y-46268011D01*
X94460696Y-46267687D01*
X94116920Y-46409732D01*
X93853671Y-46672522D01*
X93711025Y-47016050D01*
X93710701Y-47388016D01*
X86382663Y-47388016D01*
X86086799Y-47265162D01*
X85714833Y-47264838D01*
X85371057Y-47406883D01*
X85250019Y-47527710D01*
X85130327Y-47407808D01*
X84786799Y-47265162D01*
X84414833Y-47264838D01*
X84071057Y-47406883D01*
X83807808Y-47669673D01*
X83800158Y-47688097D01*
X83793117Y-47671057D01*
X83530327Y-47407808D01*
X83186799Y-47265162D01*
X82814833Y-47264838D01*
X82471057Y-47406883D01*
X82207808Y-47669673D01*
X82065162Y-48013201D01*
X82064838Y-48385167D01*
X80810944Y-48385167D01*
X80934838Y-48086799D01*
X80935162Y-47714833D01*
X80793117Y-47371057D01*
X80530327Y-47107808D01*
X80186799Y-46965162D01*
X79814833Y-46964838D01*
X79471057Y-47106883D01*
X79207808Y-47369673D01*
X79065162Y-47713201D01*
X79064838Y-48085167D01*
X77337081Y-48085167D01*
X77492192Y-47930327D01*
X77634838Y-47586799D01*
X77635162Y-47214833D01*
X77493117Y-46871057D01*
X77230327Y-46607808D01*
X76886799Y-46465162D01*
X76514833Y-46464838D01*
X76299896Y-46553648D01*
X76086799Y-46465162D01*
X75714833Y-46464838D01*
X75371057Y-46606883D01*
X75107808Y-46869673D01*
X74965162Y-47213201D01*
X74964838Y-47585167D01*
X74907377Y-47585167D01*
X74730327Y-47407808D01*
X74386799Y-47265162D01*
X74014833Y-47264838D01*
X73671057Y-47406883D01*
X73407808Y-47669673D01*
X73265162Y-48013201D01*
X73264838Y-48385167D01*
X63510000Y-48385167D01*
X63510000Y-45485167D01*
X81564838Y-45485167D01*
X81706883Y-45828943D01*
X81969673Y-46092192D01*
X82313201Y-46234838D01*
X82512941Y-46235012D01*
X82769673Y-46492192D01*
X83113201Y-46634838D01*
X83485167Y-46635162D01*
X83828943Y-46493117D01*
X84092192Y-46230327D01*
X84234838Y-45886799D01*
X84235162Y-45514833D01*
X84093117Y-45171057D01*
X83830327Y-44907808D01*
X83486799Y-44765162D01*
X83287059Y-44764988D01*
X83262115Y-44740000D01*
X106272041Y-44740000D01*
X106386115Y-45313489D01*
X106710971Y-45799670D01*
X107197152Y-46124526D01*
X107770641Y-46238600D01*
X107829359Y-46238600D01*
X108402848Y-46124526D01*
X108889029Y-45799670D01*
X109070000Y-45528828D01*
X109250971Y-45799670D01*
X109737152Y-46124526D01*
X110310641Y-46238600D01*
X110369359Y-46238600D01*
X110942848Y-46124526D01*
X111429029Y-45799670D01*
X111753885Y-45313489D01*
X111867959Y-44740000D01*
X111753885Y-44166511D01*
X111429029Y-43680330D01*
X111114248Y-43470000D01*
X111429029Y-43259670D01*
X111753885Y-42773489D01*
X111867959Y-42200000D01*
X111753885Y-41626511D01*
X111429029Y-41140330D01*
X110942848Y-40815474D01*
X110369359Y-40701400D01*
X110310641Y-40701400D01*
X109737152Y-40815474D01*
X109271558Y-41126574D01*
X109266762Y-41101083D01*
X109127690Y-40884959D01*
X108915490Y-40739969D01*
X108663600Y-40688960D01*
X106936400Y-40688960D01*
X106701083Y-40733238D01*
X106484959Y-40872310D01*
X106339969Y-41084510D01*
X106288960Y-41336400D01*
X106288960Y-43063600D01*
X106333238Y-43298917D01*
X106472310Y-43515041D01*
X106684510Y-43660031D01*
X106728131Y-43668864D01*
X106710971Y-43680330D01*
X106386115Y-44166511D01*
X106272041Y-44740000D01*
X83262115Y-44740000D01*
X83030327Y-44507808D01*
X82686799Y-44365162D01*
X82314833Y-44364838D01*
X81971057Y-44506883D01*
X81707808Y-44769673D01*
X81565162Y-45113201D01*
X81564838Y-45485167D01*
X63510000Y-45485167D01*
X63510000Y-43585167D01*
X71964838Y-43585167D01*
X72106883Y-43928943D01*
X72369673Y-44192192D01*
X72713201Y-44334838D01*
X73085167Y-44335162D01*
X73428943Y-44193117D01*
X73692192Y-43930327D01*
X73834838Y-43586799D01*
X73835100Y-43285167D01*
X76464838Y-43285167D01*
X76606883Y-43628943D01*
X76869673Y-43892192D01*
X77213201Y-44034838D01*
X77585167Y-44035162D01*
X77928943Y-43893117D01*
X78192192Y-43630327D01*
X78334838Y-43286799D01*
X78335162Y-42914833D01*
X78193117Y-42571057D01*
X77930327Y-42307808D01*
X77586799Y-42165162D01*
X77214833Y-42164838D01*
X76871057Y-42306883D01*
X76607808Y-42569673D01*
X76465162Y-42913201D01*
X76464838Y-43285167D01*
X73835100Y-43285167D01*
X73835162Y-43214833D01*
X73693117Y-42871057D01*
X73430327Y-42607808D01*
X73086799Y-42465162D01*
X72714833Y-42464838D01*
X72371057Y-42606883D01*
X72107808Y-42869673D01*
X71965162Y-43213201D01*
X71964838Y-43585167D01*
X63510000Y-43585167D01*
X63510000Y-42169650D01*
X63520877Y-42143391D01*
X63546364Y-42015255D01*
X91441400Y-42015255D01*
X91441400Y-42384745D01*
X91555474Y-42958234D01*
X91880330Y-43444415D01*
X92366511Y-43769271D01*
X92940000Y-43883345D01*
X93513489Y-43769271D01*
X93999670Y-43444415D01*
X94009243Y-43430087D01*
X94013238Y-43451317D01*
X94152310Y-43667441D01*
X94364510Y-43812431D01*
X94616400Y-43863440D01*
X96343600Y-43863440D01*
X96578917Y-43819162D01*
X96795041Y-43680090D01*
X96940031Y-43467890D01*
X96991040Y-43216000D01*
X96991040Y-42015255D01*
X97601400Y-42015255D01*
X97601400Y-42384745D01*
X97715474Y-42958234D01*
X98040330Y-43444415D01*
X98526511Y-43769271D01*
X99100000Y-43883345D01*
X99673489Y-43769271D01*
X100159670Y-43444415D01*
X100370000Y-43129634D01*
X100580330Y-43444415D01*
X101066511Y-43769271D01*
X101640000Y-43883345D01*
X102213489Y-43769271D01*
X102699670Y-43444415D01*
X103024526Y-42958234D01*
X103138600Y-42384745D01*
X103138600Y-42015255D01*
X103024526Y-41441766D01*
X102699670Y-40955585D01*
X102213489Y-40630729D01*
X101640000Y-40516655D01*
X101066511Y-40630729D01*
X100580330Y-40955585D01*
X100370000Y-41270366D01*
X100159670Y-40955585D01*
X99673489Y-40630729D01*
X99100000Y-40516655D01*
X98526511Y-40630729D01*
X98040330Y-40955585D01*
X97715474Y-41441766D01*
X97601400Y-42015255D01*
X96991040Y-42015255D01*
X96991040Y-41184000D01*
X96946762Y-40948683D01*
X96807690Y-40732559D01*
X96595490Y-40587569D01*
X96343600Y-40536560D01*
X94616400Y-40536560D01*
X94381083Y-40580838D01*
X94164959Y-40719910D01*
X94019969Y-40932110D01*
X94011600Y-40973439D01*
X93999670Y-40955585D01*
X93513489Y-40630729D01*
X92940000Y-40516655D01*
X92366511Y-40630729D01*
X91880330Y-40955585D01*
X91555474Y-41441766D01*
X91441400Y-42015255D01*
X63546364Y-42015255D01*
X63728328Y-41100464D01*
X64237874Y-40337874D01*
X65000740Y-39828143D01*
X66038609Y-39620757D01*
X66064515Y-39610000D01*
X109330350Y-39610000D01*
X109356609Y-39620877D01*
X109356609Y-39620877D01*
G37*
X109356609Y-39620877D02*
X110399536Y-39828328D01*
X111162126Y-40337874D01*
X111671857Y-41100740D01*
X111879243Y-42138609D01*
X111890000Y-42164515D01*
X111890000Y-69517291D01*
X111873712Y-69556614D01*
X111666261Y-70599541D01*
X111156715Y-71362131D01*
X110393849Y-71871862D01*
X109355980Y-72079248D01*
X109330086Y-72090000D01*
X69620715Y-72090000D01*
X69620715Y-70485167D01*
X104064838Y-70485167D01*
X104206883Y-70828943D01*
X104469673Y-71092192D01*
X104813201Y-71234838D01*
X105185167Y-71235162D01*
X105528943Y-71093117D01*
X105792192Y-70830327D01*
X105934838Y-70486799D01*
X105935162Y-70114833D01*
X105793117Y-69771057D01*
X105530327Y-69507808D01*
X105186799Y-69365162D01*
X104814833Y-69364838D01*
X104471057Y-69506883D01*
X104207808Y-69769673D01*
X104065162Y-70113201D01*
X104064838Y-70485167D01*
X69620715Y-70485167D01*
X69620715Y-69165000D01*
X63779286Y-69165000D01*
X63779286Y-70670397D01*
X63728138Y-70593849D01*
X63520752Y-69555980D01*
X63510000Y-69530086D01*
X63510000Y-68585167D01*
X74864838Y-68585167D01*
X75006883Y-68928943D01*
X75269673Y-69192192D01*
X75613201Y-69334838D01*
X75985167Y-69335162D01*
X76328943Y-69193117D01*
X76592192Y-68930327D01*
X76734838Y-68586799D01*
X76735032Y-68363890D01*
X102715592Y-68363890D01*
X102880362Y-68762663D01*
X103185193Y-69068026D01*
X103583677Y-69233491D01*
X104015150Y-69233868D01*
X104413923Y-69069098D01*
X104719286Y-68764267D01*
X104884751Y-68365783D01*
X104884752Y-68363890D01*
X107114872Y-68363890D01*
X107279642Y-68762663D01*
X107584473Y-69068026D01*
X107982957Y-69233491D01*
X108414430Y-69233868D01*
X108813203Y-69069098D01*
X109118566Y-68764267D01*
X109284031Y-68365783D01*
X109284408Y-67934310D01*
X109119638Y-67535537D01*
X108814807Y-67230174D01*
X108416323Y-67064709D01*
X107984850Y-67064332D01*
X107586077Y-67229102D01*
X107280714Y-67533933D01*
X107115249Y-67932417D01*
X107114872Y-68363890D01*
X104884752Y-68363890D01*
X104885128Y-67934310D01*
X104720358Y-67535537D01*
X104415527Y-67230174D01*
X104017043Y-67064709D01*
X103585570Y-67064332D01*
X103186797Y-67229102D01*
X102881434Y-67533933D01*
X102715969Y-67932417D01*
X102715592Y-68363890D01*
X76735032Y-68363890D01*
X76735162Y-68214833D01*
X76593117Y-67871057D01*
X76330327Y-67607808D01*
X75986799Y-67465162D01*
X75614833Y-67464838D01*
X75271057Y-67606883D01*
X75007808Y-67869673D01*
X74865162Y-68213201D01*
X74864838Y-68585167D01*
X63510000Y-68585167D01*
X63510000Y-65884000D01*
X64236560Y-65884000D01*
X64236560Y-67916000D01*
X64280838Y-68151317D01*
X64419910Y-68367441D01*
X64632110Y-68512431D01*
X64884000Y-68563440D01*
X66916000Y-68563440D01*
X67151317Y-68519162D01*
X67367441Y-68380090D01*
X67512431Y-68167890D01*
X67563440Y-67916000D01*
X67563440Y-66365167D01*
X83054838Y-66365167D01*
X83196883Y-66708943D01*
X83459673Y-66972192D01*
X83460878Y-66972692D01*
X83365162Y-67203201D01*
X83364838Y-67575167D01*
X83506883Y-67918943D01*
X83769673Y-68182192D01*
X84113201Y-68324838D01*
X84485167Y-68325162D01*
X84828943Y-68183117D01*
X85092192Y-67920327D01*
X85231363Y-67585167D01*
X86104838Y-67585167D01*
X86246883Y-67928943D01*
X86509673Y-68192192D01*
X86853201Y-68334838D01*
X87225167Y-68335162D01*
X87568943Y-68193117D01*
X87832192Y-67930327D01*
X87974838Y-67586799D01*
X87975162Y-67214833D01*
X87833117Y-66871057D01*
X87570327Y-66607808D01*
X87226799Y-66465162D01*
X86854833Y-66464838D01*
X86511057Y-66606883D01*
X86247808Y-66869673D01*
X86105162Y-67213201D01*
X86104838Y-67585167D01*
X85231363Y-67585167D01*
X85234838Y-67576799D01*
X85235162Y-67204833D01*
X85093117Y-66861057D01*
X84830327Y-66597808D01*
X84829122Y-66597308D01*
X84924838Y-66366799D01*
X84925162Y-65994833D01*
X84920058Y-65982481D01*
X85208943Y-65863117D01*
X85472192Y-65600327D01*
X85614838Y-65256799D01*
X85615065Y-64995167D01*
X87104838Y-64995167D01*
X87246883Y-65338943D01*
X87509673Y-65602192D01*
X87853201Y-65744838D01*
X88225167Y-65745162D01*
X88568943Y-65603117D01*
X88832192Y-65340327D01*
X88974838Y-64996799D01*
X88975162Y-64624833D01*
X88833117Y-64281057D01*
X88570327Y-64017808D01*
X88226799Y-63875162D01*
X87854833Y-63874838D01*
X87511057Y-64016883D01*
X87247808Y-64279673D01*
X87105162Y-64623201D01*
X87104838Y-64995167D01*
X85615065Y-64995167D01*
X85615162Y-64884833D01*
X85473117Y-64541057D01*
X85283840Y-64351450D01*
X85314838Y-64276799D01*
X85315162Y-63904833D01*
X85173117Y-63561057D01*
X84910327Y-63297808D01*
X84566799Y-63155162D01*
X84194833Y-63154838D01*
X83851057Y-63296883D01*
X83587808Y-63559673D01*
X83445162Y-63903201D01*
X83444838Y-64275167D01*
X83586883Y-64618943D01*
X83776160Y-64808550D01*
X83745162Y-64883201D01*
X83744838Y-65255167D01*
X83749942Y-65267519D01*
X83461057Y-65386883D01*
X83197808Y-65649673D01*
X83055162Y-65993201D01*
X83054838Y-66365167D01*
X67563440Y-66365167D01*
X67563440Y-65884000D01*
X67519162Y-65648683D01*
X67380090Y-65432559D01*
X67167890Y-65287569D01*
X66916000Y-65236560D01*
X64884000Y-65236560D01*
X64648683Y-65280838D01*
X64432559Y-65419910D01*
X64287569Y-65632110D01*
X64236560Y-65884000D01*
X63510000Y-65884000D01*
X63510000Y-62885167D01*
X79689838Y-62885167D01*
X79831883Y-63228943D01*
X80094673Y-63492192D01*
X80438201Y-63634838D01*
X80526713Y-63634915D01*
X80606883Y-63828943D01*
X80869673Y-64092192D01*
X81213201Y-64234838D01*
X81585167Y-64235162D01*
X81928943Y-64093117D01*
X82192192Y-63830327D01*
X82334838Y-63486799D01*
X82334962Y-63343927D01*
X82578943Y-63243117D01*
X82842192Y-62980327D01*
X82984838Y-62636799D01*
X82985162Y-62264833D01*
X82843117Y-61921057D01*
X82580327Y-61657808D01*
X82236799Y-61515162D01*
X81864833Y-61514838D01*
X81521057Y-61656883D01*
X81257808Y-61919673D01*
X81231182Y-61983795D01*
X81155327Y-61907808D01*
X80811799Y-61765162D01*
X80439833Y-61764838D01*
X80096057Y-61906883D01*
X79832808Y-62169673D01*
X79690162Y-62513201D01*
X79689838Y-62885167D01*
X63510000Y-62885167D01*
X63510000Y-59385167D01*
X70364838Y-59385167D01*
X70506883Y-59728943D01*
X70769673Y-59992192D01*
X71113201Y-60134838D01*
X71485167Y-60135162D01*
X71828943Y-59993117D01*
X72092192Y-59730327D01*
X72234838Y-59386799D01*
X72234926Y-59285167D01*
X80264838Y-59285167D01*
X80406883Y-59628943D01*
X80669673Y-59892192D01*
X81013201Y-60034838D01*
X81385167Y-60035162D01*
X81728943Y-59893117D01*
X81736906Y-59885167D01*
X90464838Y-59885167D01*
X90606883Y-60228943D01*
X90869673Y-60492192D01*
X91213201Y-60634838D01*
X91585167Y-60635162D01*
X91928943Y-60493117D01*
X92192192Y-60230327D01*
X92334838Y-59886799D01*
X92335162Y-59514833D01*
X92193117Y-59171057D01*
X91930327Y-58907808D01*
X91875802Y-58885167D01*
X100564838Y-58885167D01*
X100706883Y-59228943D01*
X100969673Y-59492192D01*
X101313201Y-59634838D01*
X101685167Y-59635162D01*
X102028943Y-59493117D01*
X102292192Y-59230327D01*
X102434838Y-58886799D01*
X102435162Y-58514833D01*
X102298948Y-58185167D01*
X103464838Y-58185167D01*
X103606883Y-58528943D01*
X103869673Y-58792192D01*
X104213201Y-58934838D01*
X104585167Y-58935162D01*
X104928943Y-58793117D01*
X105078906Y-58643416D01*
X105196883Y-58928943D01*
X105459673Y-59192192D01*
X105803201Y-59334838D01*
X106175167Y-59335162D01*
X106518943Y-59193117D01*
X106782192Y-58930327D01*
X106924838Y-58586799D01*
X106925162Y-58214833D01*
X106783117Y-57871057D01*
X106520327Y-57607808D01*
X106176799Y-57465162D01*
X105804833Y-57464838D01*
X105461057Y-57606883D01*
X105311094Y-57756584D01*
X105193117Y-57471057D01*
X104930327Y-57207808D01*
X104586799Y-57065162D01*
X104214833Y-57064838D01*
X103871057Y-57206883D01*
X103607808Y-57469673D01*
X103465162Y-57813201D01*
X103464838Y-58185167D01*
X102298948Y-58185167D01*
X102293117Y-58171057D01*
X102030327Y-57907808D01*
X101686799Y-57765162D01*
X101314833Y-57764838D01*
X100971057Y-57906883D01*
X100707808Y-58169673D01*
X100565162Y-58513201D01*
X100564838Y-58885167D01*
X91875802Y-58885167D01*
X91586799Y-58765162D01*
X91214833Y-58764838D01*
X90871057Y-58906883D01*
X90607808Y-59169673D01*
X90465162Y-59513201D01*
X90464838Y-59885167D01*
X81736906Y-59885167D01*
X81992192Y-59630327D01*
X82134838Y-59286799D01*
X82135162Y-58914833D01*
X81993117Y-58571057D01*
X81730327Y-58307808D01*
X81386799Y-58165162D01*
X81014833Y-58164838D01*
X80671057Y-58306883D01*
X80407808Y-58569673D01*
X80265162Y-58913201D01*
X80264838Y-59285167D01*
X72234926Y-59285167D01*
X72235162Y-59014833D01*
X72093117Y-58671057D01*
X71830327Y-58407808D01*
X71486799Y-58265162D01*
X71114833Y-58264838D01*
X70771057Y-58406883D01*
X70507808Y-58669673D01*
X70365162Y-59013201D01*
X70364838Y-59385167D01*
X63510000Y-59385167D01*
X63510000Y-55785167D01*
X73264838Y-55785167D01*
X73406883Y-56128943D01*
X73669673Y-56392192D01*
X74013201Y-56534838D01*
X74385167Y-56535162D01*
X74728943Y-56393117D01*
X74837081Y-56285167D01*
X80264838Y-56285167D01*
X80406883Y-56628943D01*
X80669673Y-56892192D01*
X81013201Y-57034838D01*
X81176740Y-57034980D01*
X81256883Y-57228943D01*
X81519673Y-57492192D01*
X81863201Y-57634838D01*
X82235167Y-57635162D01*
X82578943Y-57493117D01*
X82842192Y-57230327D01*
X82984838Y-56886799D01*
X82985013Y-56685167D01*
X85164838Y-56685167D01*
X85306883Y-57028943D01*
X85569673Y-57292192D01*
X85913201Y-57434838D01*
X86285167Y-57435162D01*
X86628943Y-57293117D01*
X86892192Y-57030327D01*
X87034838Y-56686799D01*
X87034839Y-56685167D01*
X90664838Y-56685167D01*
X90806883Y-57028943D01*
X91069673Y-57292192D01*
X91413201Y-57434838D01*
X91785167Y-57435162D01*
X92128943Y-57293117D01*
X92312433Y-57109947D01*
X92613201Y-57234838D01*
X92985167Y-57235162D01*
X93328943Y-57093117D01*
X93592192Y-56830327D01*
X93734838Y-56486799D01*
X93735162Y-56114833D01*
X93621317Y-55839304D01*
X93710701Y-55839304D01*
X93852746Y-56183080D01*
X94115536Y-56446329D01*
X94459064Y-56588975D01*
X94831030Y-56589299D01*
X95094278Y-56480527D01*
X95379201Y-56598838D01*
X95751167Y-56599162D01*
X95966106Y-56510351D01*
X96179204Y-56598838D01*
X96551170Y-56599162D01*
X96816924Y-56489355D01*
X97143201Y-56624838D01*
X97515167Y-56625162D01*
X97858943Y-56483117D01*
X98122192Y-56220327D01*
X98264838Y-55876799D01*
X98264935Y-55765167D01*
X100504838Y-55765167D01*
X100646883Y-56108943D01*
X100909673Y-56372192D01*
X101253201Y-56514838D01*
X101625167Y-56515162D01*
X101968943Y-56373117D01*
X102232192Y-56110327D01*
X102374838Y-55766799D01*
X102375162Y-55394833D01*
X102233117Y-55051057D01*
X101970327Y-54787808D01*
X101626799Y-54645162D01*
X101254833Y-54644838D01*
X100911057Y-54786883D01*
X100647808Y-55049673D01*
X100505162Y-55393201D01*
X100504838Y-55765167D01*
X98264935Y-55765167D01*
X98265162Y-55504833D01*
X98123117Y-55161057D01*
X97860327Y-54897808D01*
X97516799Y-54755162D01*
X97144833Y-54754838D01*
X96879079Y-54864645D01*
X96552802Y-54729162D01*
X96180836Y-54728838D01*
X95965897Y-54817649D01*
X95752799Y-54729162D01*
X95380833Y-54728838D01*
X95117585Y-54837610D01*
X94832662Y-54719299D01*
X94460696Y-54718975D01*
X94116920Y-54861020D01*
X93853671Y-55123810D01*
X93711025Y-55467338D01*
X93710701Y-55839304D01*
X93621317Y-55839304D01*
X93593117Y-55771057D01*
X93330327Y-55507808D01*
X92986799Y-55365162D01*
X92614833Y-55364838D01*
X92271057Y-55506883D01*
X92087567Y-55690053D01*
X91786799Y-55565162D01*
X91414833Y-55564838D01*
X91071057Y-55706883D01*
X90807808Y-55969673D01*
X90665162Y-56313201D01*
X90664838Y-56685167D01*
X87034839Y-56685167D01*
X87035162Y-56314833D01*
X86893117Y-55971057D01*
X86630327Y-55707808D01*
X86286799Y-55565162D01*
X85914833Y-55564838D01*
X85571057Y-55706883D01*
X85307808Y-55969673D01*
X85165162Y-56313201D01*
X85164838Y-56685167D01*
X82985013Y-56685167D01*
X82985162Y-56514833D01*
X82843117Y-56171057D01*
X82580327Y-55907808D01*
X82236799Y-55765162D01*
X82073260Y-55765020D01*
X81993117Y-55571057D01*
X81730327Y-55307808D01*
X81386799Y-55165162D01*
X81014833Y-55164838D01*
X80671057Y-55306883D01*
X80407808Y-55569673D01*
X80265162Y-55913201D01*
X80264838Y-56285167D01*
X74837081Y-56285167D01*
X74992192Y-56130327D01*
X75134838Y-55786799D01*
X75135162Y-55414833D01*
X74993117Y-55071057D01*
X74730327Y-54807808D01*
X74386799Y-54665162D01*
X74014833Y-54664838D01*
X73671057Y-54806883D01*
X73407808Y-55069673D01*
X73265162Y-55413201D01*
X73264838Y-55785167D01*
X63510000Y-55785167D01*
X63510000Y-54485167D01*
X77064838Y-54485167D01*
X77206883Y-54828943D01*
X77469673Y-55092192D01*
X77813201Y-55234838D01*
X78185167Y-55235162D01*
X78528943Y-55093117D01*
X78792192Y-54830327D01*
X78934838Y-54486799D01*
X78935162Y-54114833D01*
X78793117Y-53771057D01*
X78530327Y-53507808D01*
X78186799Y-53365162D01*
X77814833Y-53364838D01*
X77471057Y-53506883D01*
X77207808Y-53769673D01*
X77065162Y-54113201D01*
X77064838Y-54485167D01*
X63510000Y-54485167D01*
X63510000Y-52885167D01*
X82164838Y-52885167D01*
X82306883Y-53228943D01*
X82569673Y-53492192D01*
X82913201Y-53634838D01*
X83285167Y-53635162D01*
X83628943Y-53493117D01*
X83649806Y-53472290D01*
X83669673Y-53492192D01*
X84013201Y-53634838D01*
X84385167Y-53635162D01*
X84728943Y-53493117D01*
X84844441Y-53377821D01*
X84906883Y-53528943D01*
X85169673Y-53792192D01*
X85513201Y-53934838D01*
X85885167Y-53935162D01*
X86228943Y-53793117D01*
X86492192Y-53530327D01*
X86634838Y-53186799D01*
X86635100Y-52885167D01*
X87164838Y-52885167D01*
X87306883Y-53228943D01*
X87569673Y-53492192D01*
X87913201Y-53634838D01*
X88285167Y-53635162D01*
X88382783Y-53594828D01*
X88307808Y-53669672D01*
X88165162Y-54013200D01*
X88164838Y-54385166D01*
X88306883Y-54728942D01*
X88569673Y-54992191D01*
X88913201Y-55134837D01*
X89285167Y-55135161D01*
X89628943Y-54993116D01*
X89892192Y-54730326D01*
X90034838Y-54386798D01*
X90035162Y-54014832D01*
X89898948Y-53685167D01*
X90464838Y-53685167D01*
X90606883Y-54028943D01*
X90869673Y-54292192D01*
X91213201Y-54434838D01*
X91585167Y-54435162D01*
X91928943Y-54293117D01*
X92192192Y-54030327D01*
X92334838Y-53686799D01*
X92335162Y-53314833D01*
X92193117Y-52971057D01*
X91930327Y-52707808D01*
X91586799Y-52565162D01*
X91214833Y-52564838D01*
X90871057Y-52706883D01*
X90607808Y-52969673D01*
X90465162Y-53313201D01*
X90464838Y-53685167D01*
X89898948Y-53685167D01*
X89893117Y-53671056D01*
X89630327Y-53407807D01*
X89286799Y-53265161D01*
X88914833Y-53264837D01*
X88817217Y-53305171D01*
X88892192Y-53230327D01*
X89034838Y-52886799D01*
X89035162Y-52514833D01*
X88893117Y-52171057D01*
X88630327Y-51907808D01*
X88599885Y-51895167D01*
X99424838Y-51895167D01*
X99566883Y-52238943D01*
X99829673Y-52502192D01*
X100173201Y-52644838D01*
X100240177Y-52644896D01*
X100336883Y-52878943D01*
X100599673Y-53142192D01*
X100645051Y-53161035D01*
X100644838Y-53405167D01*
X100786883Y-53748943D01*
X101049673Y-54012192D01*
X101393201Y-54154838D01*
X101765167Y-54155162D01*
X101865074Y-54113881D01*
X101864838Y-54385167D01*
X102006883Y-54728943D01*
X102269673Y-54992192D01*
X102613201Y-55134838D01*
X102985167Y-55135162D01*
X103328943Y-54993117D01*
X103592192Y-54730327D01*
X103734838Y-54386799D01*
X103735162Y-54014833D01*
X103593117Y-53671057D01*
X103407552Y-53485167D01*
X107064838Y-53485167D01*
X107206883Y-53828943D01*
X107469673Y-54092192D01*
X107813201Y-54234838D01*
X108185167Y-54235162D01*
X108528943Y-54093117D01*
X108792192Y-53830327D01*
X108934838Y-53486799D01*
X108935162Y-53114833D01*
X108793117Y-52771057D01*
X108530327Y-52507808D01*
X108186799Y-52365162D01*
X107814833Y-52364838D01*
X107471057Y-52506883D01*
X107207808Y-52769673D01*
X107065162Y-53113201D01*
X107064838Y-53485167D01*
X103407552Y-53485167D01*
X103330327Y-53407808D01*
X102986799Y-53265162D01*
X102614833Y-53264838D01*
X102514926Y-53306119D01*
X102515162Y-53034833D01*
X102373117Y-52691057D01*
X102110327Y-52427808D01*
X102064949Y-52408965D01*
X102065162Y-52164833D01*
X101923117Y-51821057D01*
X101660327Y-51557808D01*
X101316799Y-51415162D01*
X101249823Y-51415104D01*
X101153117Y-51181057D01*
X100890327Y-50917808D01*
X100546799Y-50775162D01*
X100174833Y-50774838D01*
X99831057Y-50916883D01*
X99567808Y-51179673D01*
X99425162Y-51523201D01*
X99424838Y-51895167D01*
X88599885Y-51895167D01*
X88286799Y-51765162D01*
X87914833Y-51764838D01*
X87571057Y-51906883D01*
X87307808Y-52169673D01*
X87165162Y-52513201D01*
X87164838Y-52885167D01*
X86635100Y-52885167D01*
X86635162Y-52814833D01*
X86493117Y-52471057D01*
X86230327Y-52207808D01*
X85886799Y-52065162D01*
X85514833Y-52064838D01*
X85171057Y-52206883D01*
X85055559Y-52322179D01*
X84993117Y-52171057D01*
X84730327Y-51907808D01*
X84386799Y-51765162D01*
X84014833Y-51764838D01*
X83671057Y-51906883D01*
X83650194Y-51927710D01*
X83630327Y-51907808D01*
X83286799Y-51765162D01*
X82914833Y-51764838D01*
X82571057Y-51906883D01*
X82307808Y-52169673D01*
X82165162Y-52513201D01*
X82164838Y-52885167D01*
X63510000Y-52885167D01*
X63510000Y-49885167D01*
X71864838Y-49885167D01*
X72006883Y-50228943D01*
X72269673Y-50492192D01*
X72613201Y-50634838D01*
X72985167Y-50635162D01*
X73328943Y-50493117D01*
X73592192Y-50230327D01*
X73734838Y-49886799D01*
X73735162Y-49514833D01*
X73593117Y-49171057D01*
X73330327Y-48907808D01*
X72986799Y-48765162D01*
X72614833Y-48764838D01*
X72271057Y-48906883D01*
X72007808Y-49169673D01*
X71865162Y-49513201D01*
X71864838Y-49885167D01*
X63510000Y-49885167D01*
X63510000Y-48385167D01*
X73264838Y-48385167D01*
X73406883Y-48728943D01*
X73669673Y-48992192D01*
X74013201Y-49134838D01*
X74385167Y-49135162D01*
X74728943Y-48993117D01*
X74992192Y-48730327D01*
X75134838Y-48386799D01*
X75135162Y-48014833D01*
X74993117Y-47671057D01*
X74907377Y-47585167D01*
X74964838Y-47585167D01*
X75106883Y-47928943D01*
X75369673Y-48192192D01*
X75713201Y-48334838D01*
X76085167Y-48335162D01*
X76300104Y-48246352D01*
X76513201Y-48334838D01*
X76885167Y-48335162D01*
X77228943Y-48193117D01*
X77337081Y-48085167D01*
X79064838Y-48085167D01*
X79206883Y-48428943D01*
X79469673Y-48692192D01*
X79813201Y-48834838D01*
X80185167Y-48835162D01*
X80528943Y-48693117D01*
X80792192Y-48430327D01*
X80810944Y-48385167D01*
X82064838Y-48385167D01*
X82195069Y-48700351D01*
X82065162Y-49013201D01*
X82064838Y-49385167D01*
X82206883Y-49728943D01*
X82469673Y-49992192D01*
X82813201Y-50134838D01*
X83185167Y-50135162D01*
X83528943Y-49993117D01*
X83792192Y-49730327D01*
X83934838Y-49386799D01*
X83935162Y-49014833D01*
X83824205Y-48746295D01*
X84069673Y-48992192D01*
X84413201Y-49134838D01*
X84785167Y-49135162D01*
X85128943Y-48993117D01*
X85249981Y-48872290D01*
X85369673Y-48992192D01*
X85713201Y-49134838D01*
X86085167Y-49135162D01*
X86428943Y-48993117D01*
X86692192Y-48730327D01*
X86834838Y-48386799D01*
X86834839Y-48385167D01*
X101264838Y-48385167D01*
X101406883Y-48728943D01*
X101669673Y-48992192D01*
X102013201Y-49134838D01*
X102385167Y-49135162D01*
X102728943Y-48993117D01*
X102992192Y-48730327D01*
X103134838Y-48386799D01*
X103135162Y-48014833D01*
X102993117Y-47671057D01*
X102730327Y-47407808D01*
X102386799Y-47265162D01*
X102014833Y-47264838D01*
X101671057Y-47406883D01*
X101407808Y-47669673D01*
X101265162Y-48013201D01*
X101264838Y-48385167D01*
X86834839Y-48385167D01*
X86835162Y-48014833D01*
X86693117Y-47671057D01*
X86430327Y-47407808D01*
X86382663Y-47388016D01*
X93710701Y-47388016D01*
X93852746Y-47731792D01*
X94115536Y-47995041D01*
X94459064Y-48137687D01*
X94831030Y-48138011D01*
X94890894Y-48113276D01*
X94969673Y-48192192D01*
X95313201Y-48334838D01*
X95685167Y-48335162D01*
X96028943Y-48193117D01*
X96292192Y-47930327D01*
X96434838Y-47586799D01*
X96435162Y-47214833D01*
X96298948Y-46885167D01*
X102464838Y-46885167D01*
X102606883Y-47228943D01*
X102869673Y-47492192D01*
X103213201Y-47634838D01*
X103585167Y-47635162D01*
X103928943Y-47493117D01*
X104192192Y-47230327D01*
X104334838Y-46886799D01*
X104335162Y-46514833D01*
X104193117Y-46171057D01*
X103930327Y-45907808D01*
X103586799Y-45765162D01*
X103214833Y-45764838D01*
X102871057Y-45906883D01*
X102607808Y-46169673D01*
X102465162Y-46513201D01*
X102464838Y-46885167D01*
X96298948Y-46885167D01*
X96293117Y-46871057D01*
X96030327Y-46607808D01*
X95686799Y-46465162D01*
X95314833Y-46464838D01*
X95254969Y-46489573D01*
X95176190Y-46410657D01*
X94832662Y-46268011D01*
X94460696Y-46267687D01*
X94116920Y-46409732D01*
X93853671Y-46672522D01*
X93711025Y-47016050D01*
X93710701Y-47388016D01*
X86382663Y-47388016D01*
X86086799Y-47265162D01*
X85714833Y-47264838D01*
X85371057Y-47406883D01*
X85250019Y-47527710D01*
X85130327Y-47407808D01*
X84786799Y-47265162D01*
X84414833Y-47264838D01*
X84071057Y-47406883D01*
X83807808Y-47669673D01*
X83800158Y-47688097D01*
X83793117Y-47671057D01*
X83530327Y-47407808D01*
X83186799Y-47265162D01*
X82814833Y-47264838D01*
X82471057Y-47406883D01*
X82207808Y-47669673D01*
X82065162Y-48013201D01*
X82064838Y-48385167D01*
X80810944Y-48385167D01*
X80934838Y-48086799D01*
X80935162Y-47714833D01*
X80793117Y-47371057D01*
X80530327Y-47107808D01*
X80186799Y-46965162D01*
X79814833Y-46964838D01*
X79471057Y-47106883D01*
X79207808Y-47369673D01*
X79065162Y-47713201D01*
X79064838Y-48085167D01*
X77337081Y-48085167D01*
X77492192Y-47930327D01*
X77634838Y-47586799D01*
X77635162Y-47214833D01*
X77493117Y-46871057D01*
X77230327Y-46607808D01*
X76886799Y-46465162D01*
X76514833Y-46464838D01*
X76299896Y-46553648D01*
X76086799Y-46465162D01*
X75714833Y-46464838D01*
X75371057Y-46606883D01*
X75107808Y-46869673D01*
X74965162Y-47213201D01*
X74964838Y-47585167D01*
X74907377Y-47585167D01*
X74730327Y-47407808D01*
X74386799Y-47265162D01*
X74014833Y-47264838D01*
X73671057Y-47406883D01*
X73407808Y-47669673D01*
X73265162Y-48013201D01*
X73264838Y-48385167D01*
X63510000Y-48385167D01*
X63510000Y-45485167D01*
X81564838Y-45485167D01*
X81706883Y-45828943D01*
X81969673Y-46092192D01*
X82313201Y-46234838D01*
X82512941Y-46235012D01*
X82769673Y-46492192D01*
X83113201Y-46634838D01*
X83485167Y-46635162D01*
X83828943Y-46493117D01*
X84092192Y-46230327D01*
X84234838Y-45886799D01*
X84235162Y-45514833D01*
X84093117Y-45171057D01*
X83830327Y-44907808D01*
X83486799Y-44765162D01*
X83287059Y-44764988D01*
X83262115Y-44740000D01*
X106272041Y-44740000D01*
X106386115Y-45313489D01*
X106710971Y-45799670D01*
X107197152Y-46124526D01*
X107770641Y-46238600D01*
X107829359Y-46238600D01*
X108402848Y-46124526D01*
X108889029Y-45799670D01*
X109070000Y-45528828D01*
X109250971Y-45799670D01*
X109737152Y-46124526D01*
X110310641Y-46238600D01*
X110369359Y-46238600D01*
X110942848Y-46124526D01*
X111429029Y-45799670D01*
X111753885Y-45313489D01*
X111867959Y-44740000D01*
X111753885Y-44166511D01*
X111429029Y-43680330D01*
X111114248Y-43470000D01*
X111429029Y-43259670D01*
X111753885Y-42773489D01*
X111867959Y-42200000D01*
X111753885Y-41626511D01*
X111429029Y-41140330D01*
X110942848Y-40815474D01*
X110369359Y-40701400D01*
X110310641Y-40701400D01*
X109737152Y-40815474D01*
X109271558Y-41126574D01*
X109266762Y-41101083D01*
X109127690Y-40884959D01*
X108915490Y-40739969D01*
X108663600Y-40688960D01*
X106936400Y-40688960D01*
X106701083Y-40733238D01*
X106484959Y-40872310D01*
X106339969Y-41084510D01*
X106288960Y-41336400D01*
X106288960Y-43063600D01*
X106333238Y-43298917D01*
X106472310Y-43515041D01*
X106684510Y-43660031D01*
X106728131Y-43668864D01*
X106710971Y-43680330D01*
X106386115Y-44166511D01*
X106272041Y-44740000D01*
X83262115Y-44740000D01*
X83030327Y-44507808D01*
X82686799Y-44365162D01*
X82314833Y-44364838D01*
X81971057Y-44506883D01*
X81707808Y-44769673D01*
X81565162Y-45113201D01*
X81564838Y-45485167D01*
X63510000Y-45485167D01*
X63510000Y-43585167D01*
X71964838Y-43585167D01*
X72106883Y-43928943D01*
X72369673Y-44192192D01*
X72713201Y-44334838D01*
X73085167Y-44335162D01*
X73428943Y-44193117D01*
X73692192Y-43930327D01*
X73834838Y-43586799D01*
X73835100Y-43285167D01*
X76464838Y-43285167D01*
X76606883Y-43628943D01*
X76869673Y-43892192D01*
X77213201Y-44034838D01*
X77585167Y-44035162D01*
X77928943Y-43893117D01*
X78192192Y-43630327D01*
X78334838Y-43286799D01*
X78335162Y-42914833D01*
X78193117Y-42571057D01*
X77930327Y-42307808D01*
X77586799Y-42165162D01*
X77214833Y-42164838D01*
X76871057Y-42306883D01*
X76607808Y-42569673D01*
X76465162Y-42913201D01*
X76464838Y-43285167D01*
X73835100Y-43285167D01*
X73835162Y-43214833D01*
X73693117Y-42871057D01*
X73430327Y-42607808D01*
X73086799Y-42465162D01*
X72714833Y-42464838D01*
X72371057Y-42606883D01*
X72107808Y-42869673D01*
X71965162Y-43213201D01*
X71964838Y-43585167D01*
X63510000Y-43585167D01*
X63510000Y-42169650D01*
X63520877Y-42143391D01*
X63546364Y-42015255D01*
X91441400Y-42015255D01*
X91441400Y-42384745D01*
X91555474Y-42958234D01*
X91880330Y-43444415D01*
X92366511Y-43769271D01*
X92940000Y-43883345D01*
X93513489Y-43769271D01*
X93999670Y-43444415D01*
X94009243Y-43430087D01*
X94013238Y-43451317D01*
X94152310Y-43667441D01*
X94364510Y-43812431D01*
X94616400Y-43863440D01*
X96343600Y-43863440D01*
X96578917Y-43819162D01*
X96795041Y-43680090D01*
X96940031Y-43467890D01*
X96991040Y-43216000D01*
X96991040Y-42015255D01*
X97601400Y-42015255D01*
X97601400Y-42384745D01*
X97715474Y-42958234D01*
X98040330Y-43444415D01*
X98526511Y-43769271D01*
X99100000Y-43883345D01*
X99673489Y-43769271D01*
X100159670Y-43444415D01*
X100370000Y-43129634D01*
X100580330Y-43444415D01*
X101066511Y-43769271D01*
X101640000Y-43883345D01*
X102213489Y-43769271D01*
X102699670Y-43444415D01*
X103024526Y-42958234D01*
X103138600Y-42384745D01*
X103138600Y-42015255D01*
X103024526Y-41441766D01*
X102699670Y-40955585D01*
X102213489Y-40630729D01*
X101640000Y-40516655D01*
X101066511Y-40630729D01*
X100580330Y-40955585D01*
X100370000Y-41270366D01*
X100159670Y-40955585D01*
X99673489Y-40630729D01*
X99100000Y-40516655D01*
X98526511Y-40630729D01*
X98040330Y-40955585D01*
X97715474Y-41441766D01*
X97601400Y-42015255D01*
X96991040Y-42015255D01*
X96991040Y-41184000D01*
X96946762Y-40948683D01*
X96807690Y-40732559D01*
X96595490Y-40587569D01*
X96343600Y-40536560D01*
X94616400Y-40536560D01*
X94381083Y-40580838D01*
X94164959Y-40719910D01*
X94019969Y-40932110D01*
X94011600Y-40973439D01*
X93999670Y-40955585D01*
X93513489Y-40630729D01*
X92940000Y-40516655D01*
X92366511Y-40630729D01*
X91880330Y-40955585D01*
X91555474Y-41441766D01*
X91441400Y-42015255D01*
X63546364Y-42015255D01*
X63728328Y-41100464D01*
X64237874Y-40337874D01*
X65000740Y-39828143D01*
X66038609Y-39620757D01*
X66064515Y-39610000D01*
X109330350Y-39610000D01*
X109356609Y-39620877D01*
M02*
