G04 #@! TF.FileFunction,Copper,L3,Inr,Signal*
%FSLAX46Y46*%
G04 Gerber Fmt 4.6, Leading zero omitted, Abs format (unit mm)*
G04 Created by KiCad (PCBNEW 4.0.4-stable) date 05/31/17 00:38:46*
%MOMM*%
%LPD*%
G01*
G04 APERTURE LIST*
%ADD10C,0.100000*%
%ADD11C,0.300000*%
%ADD12C,3.000000*%
%ADD13C,2.500000*%
%ADD14R,2.032000X2.032000*%
%ADD15O,2.032000X2.032000*%
%ADD16R,1.727200X2.032000*%
%ADD17O,1.727200X2.032000*%
%ADD18R,1.727200X1.727200*%
%ADD19O,1.727200X1.727200*%
%ADD20O,1.600000X2.400000*%
%ADD21C,0.600000*%
%ADD22C,0.250000*%
%ADD23C,0.500000*%
%ADD24C,0.254000*%
G04 APERTURE END LIST*
D10*
D11*
X69610001Y-70152857D02*
X70352858Y-70152857D01*
X69952858Y-70610000D01*
X70124286Y-70610000D01*
X70238572Y-70667143D01*
X70295715Y-70724286D01*
X70352858Y-70838571D01*
X70352858Y-71124286D01*
X70295715Y-71238571D01*
X70238572Y-71295714D01*
X70124286Y-71352857D01*
X69781429Y-71352857D01*
X69667143Y-71295714D01*
X69610001Y-71238571D01*
D12*
X85300000Y-50520000D03*
D13*
X76290000Y-51075000D03*
D14*
X65900000Y-66900000D03*
D15*
X65900000Y-64360000D03*
D16*
X104180000Y-42200000D03*
D17*
X101640000Y-42200000D03*
X99100000Y-42200000D03*
D16*
X95480000Y-42200000D03*
D17*
X92940000Y-42200000D03*
X90400000Y-42200000D03*
D18*
X107800000Y-42200000D03*
D19*
X110340000Y-42200000D03*
X107800000Y-44740000D03*
X110340000Y-44740000D03*
X107800000Y-47280000D03*
X110340000Y-47280000D03*
D20*
X77090000Y-63360000D03*
D21*
X74950000Y-59490000D03*
X76570000Y-59550000D03*
X78210000Y-59570000D03*
X79670000Y-59560000D03*
X79670000Y-58610000D03*
X78190000Y-58620000D03*
X76550000Y-58620000D03*
X74950000Y-58580000D03*
X73470000Y-58580000D03*
X98440000Y-53680000D03*
X96220000Y-53710000D03*
X89430000Y-55290000D03*
X88560000Y-55300000D03*
X87560000Y-55300000D03*
X74550000Y-49320000D03*
X103170000Y-63220000D03*
X103170000Y-61870000D03*
X103150000Y-60330000D03*
X103150000Y-58960000D03*
X72800000Y-64650000D03*
X71310000Y-64650000D03*
X69930000Y-64650000D03*
X72800000Y-68660000D03*
X71360000Y-68660000D03*
X70010000Y-68680000D03*
X68680000Y-68650000D03*
X68180000Y-64630000D03*
X68180000Y-63130000D03*
X68110000Y-61680000D03*
X89320000Y-71360000D03*
X87690000Y-71380000D03*
X86000000Y-71330000D03*
X84400000Y-71320000D03*
X82860000Y-71310000D03*
X71750000Y-50020000D03*
X70660000Y-50020000D03*
X67130000Y-49840000D03*
X67270000Y-45670000D03*
X101600000Y-50300000D03*
X99700000Y-49700000D03*
X100500000Y-50300000D03*
X84200000Y-43600000D03*
X84900000Y-44200000D03*
X84970000Y-43210000D03*
X90500000Y-47470000D03*
X80340000Y-40480000D03*
X71800000Y-44700000D03*
X105700000Y-48000000D03*
X105700000Y-46800000D03*
X109000000Y-39800000D03*
X106400000Y-39800000D03*
X98400000Y-39800000D03*
X103046000Y-39800000D03*
X88800000Y-42100000D03*
X90500000Y-46600000D03*
X94000000Y-39800000D03*
X92000000Y-39900000D03*
X90300000Y-39900000D03*
X88800000Y-40200000D03*
X69400000Y-46400000D03*
X77600000Y-40300000D03*
X67400000Y-40400000D03*
X72500000Y-40300000D03*
X69300000Y-44700000D03*
X109700000Y-57700000D03*
X108425000Y-57600000D03*
X108400000Y-59100000D03*
X109700000Y-59100000D03*
X110900000Y-59100000D03*
X110900000Y-57800000D03*
X110900000Y-56400000D03*
X109700000Y-56400000D03*
X108500000Y-56400000D03*
X100000000Y-63400000D03*
X100000000Y-62100000D03*
X100000000Y-60900000D03*
X100000000Y-59800000D03*
X108500000Y-66500000D03*
X106700000Y-67300000D03*
X106700000Y-68800000D03*
X106700000Y-70200000D03*
X107800000Y-71800000D03*
X106300000Y-71800000D03*
X104900000Y-71800000D03*
X97500000Y-71400000D03*
X96400000Y-71400000D03*
X95200000Y-71400000D03*
X94000000Y-71400000D03*
X92800000Y-71400000D03*
X82900000Y-59300000D03*
X83900000Y-59300000D03*
X78725000Y-61900000D03*
X88900000Y-63700000D03*
X90600000Y-63700000D03*
X87200000Y-63700000D03*
X78300000Y-68000000D03*
X71800000Y-57500000D03*
X70600000Y-57500000D03*
X67200000Y-48900000D03*
X97240000Y-53080000D03*
X98300000Y-52700000D03*
X97600000Y-52000000D03*
X96800000Y-51200000D03*
X96200000Y-51800000D03*
X99540000Y-50990000D03*
X98890000Y-50410000D03*
X98230000Y-49870000D03*
X97600000Y-47100000D03*
X97600000Y-48100000D03*
X97530000Y-49190000D03*
X68000000Y-52710000D03*
X72700000Y-52700000D03*
X67120000Y-53120000D03*
X66200000Y-53120000D03*
X63910000Y-53090000D03*
X65060000Y-53120000D03*
X66100000Y-49780000D03*
X64930000Y-49780000D03*
X63700000Y-49790000D03*
X96000000Y-52600000D03*
X74700000Y-45325000D03*
X65100000Y-58000000D03*
X64100000Y-58000000D03*
X65900000Y-58000000D03*
X67500000Y-58000000D03*
X65900000Y-59300000D03*
X65900000Y-61400000D03*
X67300000Y-46950000D03*
X66550000Y-46950000D03*
X65300000Y-46950000D03*
X63880000Y-47000000D03*
X72000000Y-53200000D03*
X70600000Y-53800000D03*
X69000000Y-53800000D03*
X67900000Y-55100000D03*
X64100000Y-55900000D03*
X67000000Y-55900000D03*
X66000000Y-55900000D03*
X65100000Y-55900000D03*
X70400000Y-48900000D03*
X69000000Y-48900000D03*
X101440000Y-55580000D03*
X108000000Y-53300000D03*
X102200000Y-48200000D03*
X95500000Y-47400000D03*
X80700000Y-55600000D03*
X80990000Y-58630000D03*
X71300000Y-59200000D03*
X89100000Y-54199999D03*
X72800000Y-49700000D03*
X78000000Y-54300000D03*
X74200000Y-55600000D03*
X74200000Y-48200000D03*
X82050000Y-62600000D03*
X86050000Y-48180000D03*
X84550000Y-48160000D03*
X82500000Y-45300000D03*
X85700000Y-53000000D03*
X84200000Y-52700000D03*
X88100000Y-52700000D03*
X80000000Y-47900000D03*
X83100000Y-52700000D03*
X82050000Y-56700000D03*
X84300000Y-67390000D03*
X88040000Y-64810000D03*
X101500000Y-58700000D03*
X103400000Y-46700000D03*
X94645863Y-55654137D03*
X94645863Y-47202849D03*
X92800000Y-56300000D03*
X91400000Y-59700000D03*
X102800000Y-54200000D03*
X75800000Y-68400000D03*
X105000000Y-70300000D03*
X95566000Y-55664000D03*
X76700000Y-47400000D03*
X83300000Y-45700000D03*
X105990000Y-58400000D03*
X104400000Y-58000000D03*
X91400000Y-53500000D03*
X96366003Y-55664000D03*
X75900000Y-47400000D03*
X91600000Y-56500000D03*
X86100000Y-56500000D03*
X101867722Y-53352199D03*
X87930000Y-67400000D03*
X101130000Y-52350000D03*
X83990000Y-66180000D03*
X100360000Y-51710000D03*
X84680000Y-65070000D03*
X83000000Y-48200000D03*
X77400000Y-43100000D03*
X72900000Y-43400000D03*
X83000000Y-49200000D03*
X84380000Y-64090000D03*
X97330000Y-55690000D03*
D22*
X80990000Y-57440000D02*
X80700000Y-57150000D01*
X80700000Y-57150000D02*
X80700000Y-55600000D01*
X80990000Y-58630000D02*
X80990000Y-57440000D01*
X78580000Y-52380000D02*
X78580000Y-50280000D01*
X78580000Y-50280000D02*
X77020000Y-48720000D01*
X78000000Y-52960000D02*
X78580000Y-52380000D01*
X78000000Y-54300000D02*
X78000000Y-52960000D01*
X80700000Y-55600000D02*
X74200000Y-55600000D01*
X80700000Y-55600000D02*
X79300000Y-55600000D01*
X79300000Y-55600000D02*
X78000000Y-54300000D01*
X71300000Y-59200000D02*
X72500000Y-60400000D01*
X80990000Y-59680000D02*
X80990000Y-58630000D01*
X72500000Y-60400000D02*
X80270000Y-60400000D01*
X80270000Y-60400000D02*
X80990000Y-59680000D01*
X75360000Y-48499999D02*
X76289999Y-48499999D01*
X74634264Y-48210000D02*
X75070001Y-48210000D01*
X75070001Y-48210000D02*
X75360000Y-48499999D01*
X74200000Y-48200000D02*
X74624264Y-48200000D01*
X74624264Y-48200000D02*
X74634264Y-48210000D01*
X76289999Y-48499999D02*
X76510000Y-48720000D01*
X76510000Y-48720000D02*
X77020000Y-48720000D01*
X74200000Y-55600000D02*
X74624264Y-55600000D01*
X74200000Y-48200000D02*
X74200000Y-48300000D01*
X74200000Y-48300000D02*
X72800000Y-49700000D01*
X82050000Y-62600000D02*
X82050000Y-62175736D01*
X82050000Y-62175736D02*
X82050000Y-56700000D01*
X80940000Y-46860000D02*
X83250000Y-46860000D01*
X83250000Y-46860000D02*
X83839999Y-47449999D01*
D23*
X80000000Y-47800000D02*
X80430000Y-47370000D01*
X80430000Y-47370000D02*
X80940000Y-46860000D01*
X84550000Y-48160000D02*
X83839999Y-47449999D01*
X86050000Y-48180000D02*
X84570000Y-48180000D01*
X84570000Y-48180000D02*
X84550000Y-48160000D01*
X80940000Y-46860000D02*
X82500000Y-45300000D01*
X80000000Y-47900000D02*
X80000000Y-47800000D01*
X82050000Y-51200000D02*
X82050000Y-49950000D01*
X82050000Y-49950000D02*
X80000000Y-47900000D01*
X82050000Y-56700000D02*
X82050000Y-51260002D01*
X88100000Y-52700000D02*
X84200000Y-52700000D01*
X83100000Y-52700000D02*
X85400000Y-52700000D01*
X85400000Y-52700000D02*
X85700000Y-53000000D01*
X82050000Y-56700000D02*
X82050000Y-53750000D01*
X82050000Y-53750000D02*
X83100000Y-52700000D01*
X94645863Y-54670000D02*
X94645863Y-51500000D01*
X94645863Y-55654137D02*
X94645863Y-54670000D01*
D22*
X94645863Y-54670000D02*
X102330000Y-54670000D01*
X102330000Y-54670000D02*
X102800000Y-54200000D01*
X93550000Y-48270000D02*
X93550000Y-50404137D01*
X93550000Y-50404137D02*
X94645863Y-51500000D01*
X94317152Y-47502848D02*
X93550000Y-48270000D01*
X94645863Y-47202849D02*
X94345864Y-47502848D01*
X94345864Y-47502848D02*
X94317152Y-47502848D01*
X92600000Y-63800000D02*
X92600000Y-60900000D01*
X92600000Y-60900000D02*
X91400000Y-59700000D01*
X91590000Y-64810000D02*
X92600000Y-63800000D01*
X88040000Y-64810000D02*
X91590000Y-64810000D01*
D23*
X92800000Y-56300000D02*
X94000000Y-56300000D01*
X94000000Y-56300000D02*
X94645863Y-55654137D01*
X91400000Y-59700000D02*
X92800000Y-58300000D01*
X92800000Y-58300000D02*
X92800000Y-56300000D01*
X88040000Y-64810000D02*
X86880000Y-64810000D01*
X86880000Y-64810000D02*
X84300000Y-67390000D01*
D22*
X108913600Y-42200000D02*
X109270000Y-42200000D01*
X109270000Y-42200000D02*
X110340000Y-42200000D01*
X107800000Y-42200000D02*
X109270000Y-42200000D01*
X102800000Y-54200000D02*
X102800000Y-57400000D01*
X102800000Y-57400000D02*
X101500000Y-58700000D01*
X103400000Y-46700000D02*
X107800000Y-42300000D01*
X103400000Y-53600000D02*
X103400000Y-46700000D01*
X102800000Y-54200000D02*
X103400000Y-53600000D01*
D24*
G36*
X108107029Y-40087277D02*
X108206883Y-40328943D01*
X108469673Y-40592192D01*
X108813201Y-40734838D01*
X109185167Y-40735162D01*
X109528943Y-40593117D01*
X109792192Y-40330327D01*
X109857154Y-40173881D01*
X111001438Y-40230505D01*
X111162126Y-40337874D01*
X111671857Y-41100740D01*
X111879243Y-42138609D01*
X111890000Y-42164515D01*
X111890000Y-42294705D01*
X111118735Y-43297350D01*
X110961877Y-43368189D01*
X110942848Y-43355474D01*
X110369359Y-43241400D01*
X110310641Y-43241400D01*
X109737152Y-43355474D01*
X109250971Y-43680330D01*
X109070000Y-43951172D01*
X108889029Y-43680330D01*
X108402848Y-43355474D01*
X107829359Y-43241400D01*
X107770641Y-43241400D01*
X107197152Y-43355474D01*
X106710971Y-43680330D01*
X106386115Y-44166511D01*
X106272041Y-44740000D01*
X106386115Y-45313489D01*
X106710971Y-45799670D01*
X107025752Y-46010000D01*
X106710971Y-46220330D01*
X106563408Y-46441174D01*
X106493117Y-46271057D01*
X106230327Y-46007808D01*
X105886799Y-45865162D01*
X105514833Y-45864838D01*
X105171057Y-46006883D01*
X104907808Y-46269673D01*
X104765162Y-46613201D01*
X104764838Y-46985167D01*
X104906883Y-47328943D01*
X104977710Y-47399893D01*
X104907808Y-47469673D01*
X104765162Y-47813201D01*
X104764838Y-48185167D01*
X104906883Y-48528943D01*
X105169673Y-48792192D01*
X105513201Y-48934838D01*
X105885167Y-48935162D01*
X106228943Y-48793117D01*
X106391267Y-48631076D01*
X106776432Y-49632505D01*
X107237447Y-52740086D01*
X107207808Y-52769673D01*
X107065162Y-53113201D01*
X107064838Y-53485167D01*
X107206883Y-53828943D01*
X107432511Y-54054965D01*
X107576663Y-55026655D01*
X105756334Y-57484877D01*
X105461057Y-57606883D01*
X105311094Y-57756584D01*
X105193117Y-57471057D01*
X104930327Y-57207808D01*
X104586799Y-57065162D01*
X104214833Y-57064838D01*
X103871057Y-57206883D01*
X103607808Y-57469673D01*
X103465162Y-57813201D01*
X103464931Y-58078367D01*
X103336799Y-58025162D01*
X102964833Y-58024838D01*
X102621057Y-58166883D01*
X102357808Y-58429673D01*
X102215162Y-58773201D01*
X102214838Y-59145167D01*
X102356883Y-59488943D01*
X102512709Y-59645042D01*
X102357808Y-59799673D01*
X102215162Y-60143201D01*
X102215060Y-60259982D01*
X100908387Y-60650033D01*
X100793117Y-60371057D01*
X100772290Y-60350194D01*
X100792192Y-60330327D01*
X100934838Y-59986799D01*
X100935162Y-59614833D01*
X100793117Y-59271057D01*
X100530327Y-59007808D01*
X100186799Y-58865162D01*
X99814833Y-58864838D01*
X99471057Y-59006883D01*
X99207808Y-59269673D01*
X99065162Y-59613201D01*
X99064838Y-59985167D01*
X99206883Y-60328943D01*
X99227710Y-60349806D01*
X99207808Y-60369673D01*
X99065162Y-60713201D01*
X99064838Y-61085167D01*
X99107204Y-61187700D01*
X97463673Y-61678306D01*
X97446683Y-61684734D01*
X95176683Y-62734734D01*
X95144534Y-62756061D01*
X88735163Y-68587293D01*
X84992030Y-69769335D01*
X82377857Y-69282755D01*
X82224993Y-67585167D01*
X86994838Y-67585167D01*
X87136883Y-67928943D01*
X87399673Y-68192192D01*
X87743201Y-68334838D01*
X88115167Y-68335162D01*
X88458943Y-68193117D01*
X88722192Y-67930327D01*
X88864838Y-67586799D01*
X88865162Y-67214833D01*
X88723117Y-66871057D01*
X88460327Y-66607808D01*
X88116799Y-66465162D01*
X87744833Y-66464838D01*
X87401057Y-66606883D01*
X87137808Y-66869673D01*
X86995162Y-67213201D01*
X86994838Y-67585167D01*
X82224993Y-67585167D01*
X82198534Y-67291335D01*
X82611317Y-65774598D01*
X83745145Y-64902423D01*
X83744838Y-65255167D01*
X83749942Y-65267519D01*
X83461057Y-65386883D01*
X83197808Y-65649673D01*
X83055162Y-65993201D01*
X83054838Y-66365167D01*
X83196883Y-66708943D01*
X83459673Y-66972192D01*
X83803201Y-67114838D01*
X84175167Y-67115162D01*
X84518943Y-66973117D01*
X84782192Y-66710327D01*
X84924838Y-66366799D01*
X84925162Y-65994833D01*
X84920058Y-65982481D01*
X85208943Y-65863117D01*
X85472192Y-65600327D01*
X85614838Y-65256799D01*
X85615162Y-64884833D01*
X85473117Y-64541057D01*
X85283840Y-64351450D01*
X85314838Y-64276799D01*
X85315162Y-63904833D01*
X85307037Y-63885167D01*
X86264838Y-63885167D01*
X86406883Y-64228943D01*
X86669673Y-64492192D01*
X87013201Y-64634838D01*
X87385167Y-64635162D01*
X87728943Y-64493117D01*
X87992192Y-64230327D01*
X88049966Y-64091193D01*
X88106883Y-64228943D01*
X88369673Y-64492192D01*
X88713201Y-64634838D01*
X89085167Y-64635162D01*
X89428943Y-64493117D01*
X89692192Y-64230327D01*
X89749966Y-64091193D01*
X89806883Y-64228943D01*
X90069673Y-64492192D01*
X90413201Y-64634838D01*
X90785167Y-64635162D01*
X91128943Y-64493117D01*
X91392192Y-64230327D01*
X91534838Y-63886799D01*
X91535162Y-63514833D01*
X91393117Y-63171057D01*
X91130327Y-62907808D01*
X90786799Y-62765162D01*
X90414833Y-62764838D01*
X90071057Y-62906883D01*
X89807808Y-63169673D01*
X89750034Y-63308807D01*
X89693117Y-63171057D01*
X89430327Y-62907808D01*
X89086799Y-62765162D01*
X88714833Y-62764838D01*
X88371057Y-62906883D01*
X88107808Y-63169673D01*
X88050034Y-63308807D01*
X87993117Y-63171057D01*
X87730327Y-62907808D01*
X87386799Y-62765162D01*
X87014833Y-62764838D01*
X86671057Y-62906883D01*
X86407808Y-63169673D01*
X86265162Y-63513201D01*
X86264838Y-63885167D01*
X85307037Y-63885167D01*
X85173117Y-63561057D01*
X84951693Y-63339247D01*
X85801147Y-62176836D01*
X87299209Y-60279291D01*
X88998710Y-58179908D01*
X89014172Y-58155622D01*
X89730547Y-56685167D01*
X90664838Y-56685167D01*
X90806883Y-57028943D01*
X91069673Y-57292192D01*
X91413201Y-57434838D01*
X91785167Y-57435162D01*
X92128943Y-57293117D01*
X92392192Y-57030327D01*
X92534838Y-56686799D01*
X92535162Y-56314833D01*
X92393117Y-55971057D01*
X92271440Y-55849167D01*
X94630838Y-55849167D01*
X94772883Y-56192943D01*
X95035673Y-56456192D01*
X95379201Y-56598838D01*
X95751167Y-56599162D01*
X95966106Y-56510351D01*
X96179204Y-56598838D01*
X96551170Y-56599162D01*
X96816924Y-56489355D01*
X97143201Y-56624838D01*
X97515167Y-56625162D01*
X97858943Y-56483117D01*
X98122192Y-56220327D01*
X98264838Y-55876799D01*
X98264935Y-55765167D01*
X100504838Y-55765167D01*
X100646883Y-56108943D01*
X100909673Y-56372192D01*
X101253201Y-56514838D01*
X101625167Y-56515162D01*
X101968943Y-56373117D01*
X102232192Y-56110327D01*
X102374838Y-55766799D01*
X102375162Y-55394833D01*
X102233117Y-55051057D01*
X101970327Y-54787808D01*
X101626799Y-54645162D01*
X101254833Y-54644838D01*
X100911057Y-54786883D01*
X100647808Y-55049673D01*
X100505162Y-55393201D01*
X100504838Y-55765167D01*
X98264935Y-55765167D01*
X98265162Y-55504833D01*
X98123117Y-55161057D01*
X97860327Y-54897808D01*
X97516799Y-54755162D01*
X97144833Y-54754838D01*
X96879079Y-54864645D01*
X96552802Y-54729162D01*
X96180836Y-54728838D01*
X95965897Y-54817649D01*
X95752799Y-54729162D01*
X95380833Y-54728838D01*
X95037057Y-54870883D01*
X94773808Y-55133673D01*
X94631162Y-55477201D01*
X94630838Y-55849167D01*
X92271440Y-55849167D01*
X92130327Y-55707808D01*
X91786799Y-55565162D01*
X91414833Y-55564838D01*
X91071057Y-55706883D01*
X90807808Y-55969673D01*
X90665162Y-56313201D01*
X90664838Y-56685167D01*
X89730547Y-56685167D01*
X90085310Y-55956970D01*
X90222192Y-55820327D01*
X90364838Y-55476799D01*
X90364920Y-55383035D01*
X90534172Y-55035622D01*
X90540751Y-55019346D01*
X90800325Y-54222723D01*
X90869673Y-54292192D01*
X91213201Y-54434838D01*
X91585167Y-54435162D01*
X91928943Y-54293117D01*
X92192192Y-54030327D01*
X92334838Y-53686799D01*
X92335162Y-53314833D01*
X92193117Y-52971057D01*
X92007552Y-52785167D01*
X95064838Y-52785167D01*
X95206883Y-53128943D01*
X95377784Y-53300143D01*
X95285162Y-53523201D01*
X95284838Y-53895167D01*
X95426883Y-54238943D01*
X95689673Y-54502192D01*
X96033201Y-54644838D01*
X96405167Y-54645162D01*
X96748943Y-54503117D01*
X97012192Y-54240327D01*
X97105805Y-54014884D01*
X97425167Y-54015162D01*
X97546158Y-53965170D01*
X97646883Y-54208943D01*
X97909673Y-54472192D01*
X98253201Y-54614838D01*
X98625167Y-54615162D01*
X98968943Y-54473117D01*
X99232192Y-54210327D01*
X99374838Y-53866799D01*
X99375162Y-53494833D01*
X99233117Y-53151057D01*
X99156837Y-53074644D01*
X99234838Y-52886799D01*
X99235162Y-52514833D01*
X99093117Y-52171057D01*
X98830327Y-51907808D01*
X98520404Y-51779116D01*
X98393117Y-51471057D01*
X98130327Y-51207808D01*
X97786799Y-51065162D01*
X97735118Y-51065117D01*
X97735162Y-51014833D01*
X97593117Y-50671057D01*
X97330327Y-50407808D01*
X96986799Y-50265162D01*
X96614833Y-50264838D01*
X96271057Y-50406883D01*
X96007808Y-50669673D01*
X95908529Y-50908762D01*
X95671057Y-51006883D01*
X95407808Y-51269673D01*
X95265162Y-51613201D01*
X95264838Y-51985167D01*
X95272905Y-52004690D01*
X95207808Y-52069673D01*
X95065162Y-52413201D01*
X95064838Y-52785167D01*
X92007552Y-52785167D01*
X91930327Y-52707808D01*
X91586799Y-52565162D01*
X91340499Y-52564947D01*
X92379865Y-49375167D01*
X96594838Y-49375167D01*
X96736883Y-49718943D01*
X96999673Y-49982192D01*
X97319571Y-50115026D01*
X97436883Y-50398943D01*
X97699673Y-50662192D01*
X98041114Y-50803971D01*
X98096883Y-50938943D01*
X98359673Y-51202192D01*
X98669092Y-51330675D01*
X98746883Y-51518943D01*
X99009673Y-51782192D01*
X99353201Y-51924838D01*
X99437128Y-51924911D01*
X99566883Y-52238943D01*
X99829673Y-52502192D01*
X100173201Y-52644838D01*
X100240177Y-52644896D01*
X100336883Y-52878943D01*
X100599673Y-53142192D01*
X100932784Y-53280512D01*
X100932560Y-53537366D01*
X101074605Y-53881142D01*
X101337395Y-54144391D01*
X101680923Y-54287037D01*
X102052889Y-54287361D01*
X102396665Y-54145316D01*
X102659914Y-53882526D01*
X102802560Y-53538998D01*
X102802884Y-53167032D01*
X102660839Y-52823256D01*
X102398049Y-52560007D01*
X102064938Y-52421687D01*
X102065162Y-52164833D01*
X101923117Y-51821057D01*
X101660327Y-51557808D01*
X101316799Y-51415162D01*
X101249823Y-51415104D01*
X101153117Y-51181057D01*
X101047168Y-51074923D01*
X101049806Y-51072290D01*
X101069673Y-51092192D01*
X101413201Y-51234838D01*
X101785167Y-51235162D01*
X102128943Y-51093117D01*
X102392192Y-50830327D01*
X102534838Y-50486799D01*
X102535162Y-50114833D01*
X102393117Y-49771057D01*
X102130327Y-49507808D01*
X101786799Y-49365162D01*
X101414833Y-49364838D01*
X101071057Y-49506883D01*
X101050194Y-49527710D01*
X101030327Y-49507808D01*
X100686799Y-49365162D01*
X100573278Y-49365063D01*
X100493117Y-49171057D01*
X100230327Y-48907808D01*
X99886799Y-48765162D01*
X99514833Y-48764838D01*
X99171057Y-48906883D01*
X98907808Y-49169673D01*
X98891423Y-49209133D01*
X98760327Y-49077808D01*
X98440429Y-48944974D01*
X98334299Y-48688119D01*
X98392192Y-48630327D01*
X98493991Y-48385167D01*
X101264838Y-48385167D01*
X101406883Y-48728943D01*
X101669673Y-48992192D01*
X102013201Y-49134838D01*
X102385167Y-49135162D01*
X102728943Y-48993117D01*
X102992192Y-48730327D01*
X103134838Y-48386799D01*
X103135162Y-48014833D01*
X102993117Y-47671057D01*
X102730327Y-47407808D01*
X102386799Y-47265162D01*
X102014833Y-47264838D01*
X101671057Y-47406883D01*
X101407808Y-47669673D01*
X101265162Y-48013201D01*
X101264838Y-48385167D01*
X98493991Y-48385167D01*
X98534838Y-48286799D01*
X98535162Y-47914833D01*
X98404931Y-47599649D01*
X98534838Y-47286799D01*
X98535162Y-46914833D01*
X98393117Y-46571057D01*
X98130327Y-46307808D01*
X97786799Y-46165162D01*
X97414833Y-46164838D01*
X97071057Y-46306883D01*
X96807808Y-46569673D01*
X96665162Y-46913201D01*
X96664838Y-47285167D01*
X96795069Y-47600351D01*
X96665162Y-47913201D01*
X96664838Y-48285167D01*
X96795701Y-48601881D01*
X96737808Y-48659673D01*
X96595162Y-49003201D01*
X96594838Y-49375167D01*
X92379865Y-49375167D01*
X92963124Y-47585167D01*
X94564838Y-47585167D01*
X94706883Y-47928943D01*
X94969673Y-48192192D01*
X95313201Y-48334838D01*
X95685167Y-48335162D01*
X96028943Y-48193117D01*
X96292192Y-47930327D01*
X96434838Y-47586799D01*
X96435162Y-47214833D01*
X96293117Y-46871057D01*
X96030327Y-46607808D01*
X95686799Y-46465162D01*
X95314833Y-46464838D01*
X94971057Y-46606883D01*
X94707808Y-46869673D01*
X94565162Y-47213201D01*
X94564838Y-47585167D01*
X92963124Y-47585167D01*
X94000228Y-44402331D01*
X95778568Y-43863440D01*
X96343600Y-43863440D01*
X96578917Y-43819162D01*
X96795041Y-43680090D01*
X96902469Y-43522864D01*
X97892324Y-43222908D01*
X98040330Y-43444415D01*
X98526511Y-43769271D01*
X99100000Y-43883345D01*
X99673489Y-43769271D01*
X100159670Y-43444415D01*
X100370000Y-43129634D01*
X100580330Y-43444415D01*
X101066511Y-43769271D01*
X101640000Y-43883345D01*
X102213489Y-43769271D01*
X102699670Y-43444415D01*
X102709243Y-43430087D01*
X102713238Y-43451317D01*
X102852310Y-43667441D01*
X103064510Y-43812431D01*
X103316400Y-43863440D01*
X105043600Y-43863440D01*
X105278917Y-43819162D01*
X105495041Y-43680090D01*
X105640031Y-43467890D01*
X105691040Y-43216000D01*
X105691040Y-41184000D01*
X105646762Y-40948683D01*
X105507690Y-40732559D01*
X105401459Y-40659975D01*
X105761825Y-40484156D01*
X105869673Y-40592192D01*
X106213201Y-40734838D01*
X106585167Y-40735162D01*
X106928943Y-40593117D01*
X107192192Y-40330327D01*
X107309503Y-40047812D01*
X108107029Y-40087277D01*
X108107029Y-40087277D01*
G37*
X108107029Y-40087277D02*
X108206883Y-40328943D01*
X108469673Y-40592192D01*
X108813201Y-40734838D01*
X109185167Y-40735162D01*
X109528943Y-40593117D01*
X109792192Y-40330327D01*
X109857154Y-40173881D01*
X111001438Y-40230505D01*
X111162126Y-40337874D01*
X111671857Y-41100740D01*
X111879243Y-42138609D01*
X111890000Y-42164515D01*
X111890000Y-42294705D01*
X111118735Y-43297350D01*
X110961877Y-43368189D01*
X110942848Y-43355474D01*
X110369359Y-43241400D01*
X110310641Y-43241400D01*
X109737152Y-43355474D01*
X109250971Y-43680330D01*
X109070000Y-43951172D01*
X108889029Y-43680330D01*
X108402848Y-43355474D01*
X107829359Y-43241400D01*
X107770641Y-43241400D01*
X107197152Y-43355474D01*
X106710971Y-43680330D01*
X106386115Y-44166511D01*
X106272041Y-44740000D01*
X106386115Y-45313489D01*
X106710971Y-45799670D01*
X107025752Y-46010000D01*
X106710971Y-46220330D01*
X106563408Y-46441174D01*
X106493117Y-46271057D01*
X106230327Y-46007808D01*
X105886799Y-45865162D01*
X105514833Y-45864838D01*
X105171057Y-46006883D01*
X104907808Y-46269673D01*
X104765162Y-46613201D01*
X104764838Y-46985167D01*
X104906883Y-47328943D01*
X104977710Y-47399893D01*
X104907808Y-47469673D01*
X104765162Y-47813201D01*
X104764838Y-48185167D01*
X104906883Y-48528943D01*
X105169673Y-48792192D01*
X105513201Y-48934838D01*
X105885167Y-48935162D01*
X106228943Y-48793117D01*
X106391267Y-48631076D01*
X106776432Y-49632505D01*
X107237447Y-52740086D01*
X107207808Y-52769673D01*
X107065162Y-53113201D01*
X107064838Y-53485167D01*
X107206883Y-53828943D01*
X107432511Y-54054965D01*
X107576663Y-55026655D01*
X105756334Y-57484877D01*
X105461057Y-57606883D01*
X105311094Y-57756584D01*
X105193117Y-57471057D01*
X104930327Y-57207808D01*
X104586799Y-57065162D01*
X104214833Y-57064838D01*
X103871057Y-57206883D01*
X103607808Y-57469673D01*
X103465162Y-57813201D01*
X103464931Y-58078367D01*
X103336799Y-58025162D01*
X102964833Y-58024838D01*
X102621057Y-58166883D01*
X102357808Y-58429673D01*
X102215162Y-58773201D01*
X102214838Y-59145167D01*
X102356883Y-59488943D01*
X102512709Y-59645042D01*
X102357808Y-59799673D01*
X102215162Y-60143201D01*
X102215060Y-60259982D01*
X100908387Y-60650033D01*
X100793117Y-60371057D01*
X100772290Y-60350194D01*
X100792192Y-60330327D01*
X100934838Y-59986799D01*
X100935162Y-59614833D01*
X100793117Y-59271057D01*
X100530327Y-59007808D01*
X100186799Y-58865162D01*
X99814833Y-58864838D01*
X99471057Y-59006883D01*
X99207808Y-59269673D01*
X99065162Y-59613201D01*
X99064838Y-59985167D01*
X99206883Y-60328943D01*
X99227710Y-60349806D01*
X99207808Y-60369673D01*
X99065162Y-60713201D01*
X99064838Y-61085167D01*
X99107204Y-61187700D01*
X97463673Y-61678306D01*
X97446683Y-61684734D01*
X95176683Y-62734734D01*
X95144534Y-62756061D01*
X88735163Y-68587293D01*
X84992030Y-69769335D01*
X82377857Y-69282755D01*
X82224993Y-67585167D01*
X86994838Y-67585167D01*
X87136883Y-67928943D01*
X87399673Y-68192192D01*
X87743201Y-68334838D01*
X88115167Y-68335162D01*
X88458943Y-68193117D01*
X88722192Y-67930327D01*
X88864838Y-67586799D01*
X88865162Y-67214833D01*
X88723117Y-66871057D01*
X88460327Y-66607808D01*
X88116799Y-66465162D01*
X87744833Y-66464838D01*
X87401057Y-66606883D01*
X87137808Y-66869673D01*
X86995162Y-67213201D01*
X86994838Y-67585167D01*
X82224993Y-67585167D01*
X82198534Y-67291335D01*
X82611317Y-65774598D01*
X83745145Y-64902423D01*
X83744838Y-65255167D01*
X83749942Y-65267519D01*
X83461057Y-65386883D01*
X83197808Y-65649673D01*
X83055162Y-65993201D01*
X83054838Y-66365167D01*
X83196883Y-66708943D01*
X83459673Y-66972192D01*
X83803201Y-67114838D01*
X84175167Y-67115162D01*
X84518943Y-66973117D01*
X84782192Y-66710327D01*
X84924838Y-66366799D01*
X84925162Y-65994833D01*
X84920058Y-65982481D01*
X85208943Y-65863117D01*
X85472192Y-65600327D01*
X85614838Y-65256799D01*
X85615162Y-64884833D01*
X85473117Y-64541057D01*
X85283840Y-64351450D01*
X85314838Y-64276799D01*
X85315162Y-63904833D01*
X85307037Y-63885167D01*
X86264838Y-63885167D01*
X86406883Y-64228943D01*
X86669673Y-64492192D01*
X87013201Y-64634838D01*
X87385167Y-64635162D01*
X87728943Y-64493117D01*
X87992192Y-64230327D01*
X88049966Y-64091193D01*
X88106883Y-64228943D01*
X88369673Y-64492192D01*
X88713201Y-64634838D01*
X89085167Y-64635162D01*
X89428943Y-64493117D01*
X89692192Y-64230327D01*
X89749966Y-64091193D01*
X89806883Y-64228943D01*
X90069673Y-64492192D01*
X90413201Y-64634838D01*
X90785167Y-64635162D01*
X91128943Y-64493117D01*
X91392192Y-64230327D01*
X91534838Y-63886799D01*
X91535162Y-63514833D01*
X91393117Y-63171057D01*
X91130327Y-62907808D01*
X90786799Y-62765162D01*
X90414833Y-62764838D01*
X90071057Y-62906883D01*
X89807808Y-63169673D01*
X89750034Y-63308807D01*
X89693117Y-63171057D01*
X89430327Y-62907808D01*
X89086799Y-62765162D01*
X88714833Y-62764838D01*
X88371057Y-62906883D01*
X88107808Y-63169673D01*
X88050034Y-63308807D01*
X87993117Y-63171057D01*
X87730327Y-62907808D01*
X87386799Y-62765162D01*
X87014833Y-62764838D01*
X86671057Y-62906883D01*
X86407808Y-63169673D01*
X86265162Y-63513201D01*
X86264838Y-63885167D01*
X85307037Y-63885167D01*
X85173117Y-63561057D01*
X84951693Y-63339247D01*
X85801147Y-62176836D01*
X87299209Y-60279291D01*
X88998710Y-58179908D01*
X89014172Y-58155622D01*
X89730547Y-56685167D01*
X90664838Y-56685167D01*
X90806883Y-57028943D01*
X91069673Y-57292192D01*
X91413201Y-57434838D01*
X91785167Y-57435162D01*
X92128943Y-57293117D01*
X92392192Y-57030327D01*
X92534838Y-56686799D01*
X92535162Y-56314833D01*
X92393117Y-55971057D01*
X92271440Y-55849167D01*
X94630838Y-55849167D01*
X94772883Y-56192943D01*
X95035673Y-56456192D01*
X95379201Y-56598838D01*
X95751167Y-56599162D01*
X95966106Y-56510351D01*
X96179204Y-56598838D01*
X96551170Y-56599162D01*
X96816924Y-56489355D01*
X97143201Y-56624838D01*
X97515167Y-56625162D01*
X97858943Y-56483117D01*
X98122192Y-56220327D01*
X98264838Y-55876799D01*
X98264935Y-55765167D01*
X100504838Y-55765167D01*
X100646883Y-56108943D01*
X100909673Y-56372192D01*
X101253201Y-56514838D01*
X101625167Y-56515162D01*
X101968943Y-56373117D01*
X102232192Y-56110327D01*
X102374838Y-55766799D01*
X102375162Y-55394833D01*
X102233117Y-55051057D01*
X101970327Y-54787808D01*
X101626799Y-54645162D01*
X101254833Y-54644838D01*
X100911057Y-54786883D01*
X100647808Y-55049673D01*
X100505162Y-55393201D01*
X100504838Y-55765167D01*
X98264935Y-55765167D01*
X98265162Y-55504833D01*
X98123117Y-55161057D01*
X97860327Y-54897808D01*
X97516799Y-54755162D01*
X97144833Y-54754838D01*
X96879079Y-54864645D01*
X96552802Y-54729162D01*
X96180836Y-54728838D01*
X95965897Y-54817649D01*
X95752799Y-54729162D01*
X95380833Y-54728838D01*
X95037057Y-54870883D01*
X94773808Y-55133673D01*
X94631162Y-55477201D01*
X94630838Y-55849167D01*
X92271440Y-55849167D01*
X92130327Y-55707808D01*
X91786799Y-55565162D01*
X91414833Y-55564838D01*
X91071057Y-55706883D01*
X90807808Y-55969673D01*
X90665162Y-56313201D01*
X90664838Y-56685167D01*
X89730547Y-56685167D01*
X90085310Y-55956970D01*
X90222192Y-55820327D01*
X90364838Y-55476799D01*
X90364920Y-55383035D01*
X90534172Y-55035622D01*
X90540751Y-55019346D01*
X90800325Y-54222723D01*
X90869673Y-54292192D01*
X91213201Y-54434838D01*
X91585167Y-54435162D01*
X91928943Y-54293117D01*
X92192192Y-54030327D01*
X92334838Y-53686799D01*
X92335162Y-53314833D01*
X92193117Y-52971057D01*
X92007552Y-52785167D01*
X95064838Y-52785167D01*
X95206883Y-53128943D01*
X95377784Y-53300143D01*
X95285162Y-53523201D01*
X95284838Y-53895167D01*
X95426883Y-54238943D01*
X95689673Y-54502192D01*
X96033201Y-54644838D01*
X96405167Y-54645162D01*
X96748943Y-54503117D01*
X97012192Y-54240327D01*
X97105805Y-54014884D01*
X97425167Y-54015162D01*
X97546158Y-53965170D01*
X97646883Y-54208943D01*
X97909673Y-54472192D01*
X98253201Y-54614838D01*
X98625167Y-54615162D01*
X98968943Y-54473117D01*
X99232192Y-54210327D01*
X99374838Y-53866799D01*
X99375162Y-53494833D01*
X99233117Y-53151057D01*
X99156837Y-53074644D01*
X99234838Y-52886799D01*
X99235162Y-52514833D01*
X99093117Y-52171057D01*
X98830327Y-51907808D01*
X98520404Y-51779116D01*
X98393117Y-51471057D01*
X98130327Y-51207808D01*
X97786799Y-51065162D01*
X97735118Y-51065117D01*
X97735162Y-51014833D01*
X97593117Y-50671057D01*
X97330327Y-50407808D01*
X96986799Y-50265162D01*
X96614833Y-50264838D01*
X96271057Y-50406883D01*
X96007808Y-50669673D01*
X95908529Y-50908762D01*
X95671057Y-51006883D01*
X95407808Y-51269673D01*
X95265162Y-51613201D01*
X95264838Y-51985167D01*
X95272905Y-52004690D01*
X95207808Y-52069673D01*
X95065162Y-52413201D01*
X95064838Y-52785167D01*
X92007552Y-52785167D01*
X91930327Y-52707808D01*
X91586799Y-52565162D01*
X91340499Y-52564947D01*
X92379865Y-49375167D01*
X96594838Y-49375167D01*
X96736883Y-49718943D01*
X96999673Y-49982192D01*
X97319571Y-50115026D01*
X97436883Y-50398943D01*
X97699673Y-50662192D01*
X98041114Y-50803971D01*
X98096883Y-50938943D01*
X98359673Y-51202192D01*
X98669092Y-51330675D01*
X98746883Y-51518943D01*
X99009673Y-51782192D01*
X99353201Y-51924838D01*
X99437128Y-51924911D01*
X99566883Y-52238943D01*
X99829673Y-52502192D01*
X100173201Y-52644838D01*
X100240177Y-52644896D01*
X100336883Y-52878943D01*
X100599673Y-53142192D01*
X100932784Y-53280512D01*
X100932560Y-53537366D01*
X101074605Y-53881142D01*
X101337395Y-54144391D01*
X101680923Y-54287037D01*
X102052889Y-54287361D01*
X102396665Y-54145316D01*
X102659914Y-53882526D01*
X102802560Y-53538998D01*
X102802884Y-53167032D01*
X102660839Y-52823256D01*
X102398049Y-52560007D01*
X102064938Y-52421687D01*
X102065162Y-52164833D01*
X101923117Y-51821057D01*
X101660327Y-51557808D01*
X101316799Y-51415162D01*
X101249823Y-51415104D01*
X101153117Y-51181057D01*
X101047168Y-51074923D01*
X101049806Y-51072290D01*
X101069673Y-51092192D01*
X101413201Y-51234838D01*
X101785167Y-51235162D01*
X102128943Y-51093117D01*
X102392192Y-50830327D01*
X102534838Y-50486799D01*
X102535162Y-50114833D01*
X102393117Y-49771057D01*
X102130327Y-49507808D01*
X101786799Y-49365162D01*
X101414833Y-49364838D01*
X101071057Y-49506883D01*
X101050194Y-49527710D01*
X101030327Y-49507808D01*
X100686799Y-49365162D01*
X100573278Y-49365063D01*
X100493117Y-49171057D01*
X100230327Y-48907808D01*
X99886799Y-48765162D01*
X99514833Y-48764838D01*
X99171057Y-48906883D01*
X98907808Y-49169673D01*
X98891423Y-49209133D01*
X98760327Y-49077808D01*
X98440429Y-48944974D01*
X98334299Y-48688119D01*
X98392192Y-48630327D01*
X98493991Y-48385167D01*
X101264838Y-48385167D01*
X101406883Y-48728943D01*
X101669673Y-48992192D01*
X102013201Y-49134838D01*
X102385167Y-49135162D01*
X102728943Y-48993117D01*
X102992192Y-48730327D01*
X103134838Y-48386799D01*
X103135162Y-48014833D01*
X102993117Y-47671057D01*
X102730327Y-47407808D01*
X102386799Y-47265162D01*
X102014833Y-47264838D01*
X101671057Y-47406883D01*
X101407808Y-47669673D01*
X101265162Y-48013201D01*
X101264838Y-48385167D01*
X98493991Y-48385167D01*
X98534838Y-48286799D01*
X98535162Y-47914833D01*
X98404931Y-47599649D01*
X98534838Y-47286799D01*
X98535162Y-46914833D01*
X98393117Y-46571057D01*
X98130327Y-46307808D01*
X97786799Y-46165162D01*
X97414833Y-46164838D01*
X97071057Y-46306883D01*
X96807808Y-46569673D01*
X96665162Y-46913201D01*
X96664838Y-47285167D01*
X96795069Y-47600351D01*
X96665162Y-47913201D01*
X96664838Y-48285167D01*
X96795701Y-48601881D01*
X96737808Y-48659673D01*
X96595162Y-49003201D01*
X96594838Y-49375167D01*
X92379865Y-49375167D01*
X92963124Y-47585167D01*
X94564838Y-47585167D01*
X94706883Y-47928943D01*
X94969673Y-48192192D01*
X95313201Y-48334838D01*
X95685167Y-48335162D01*
X96028943Y-48193117D01*
X96292192Y-47930327D01*
X96434838Y-47586799D01*
X96435162Y-47214833D01*
X96293117Y-46871057D01*
X96030327Y-46607808D01*
X95686799Y-46465162D01*
X95314833Y-46464838D01*
X94971057Y-46606883D01*
X94707808Y-46869673D01*
X94565162Y-47213201D01*
X94564838Y-47585167D01*
X92963124Y-47585167D01*
X94000228Y-44402331D01*
X95778568Y-43863440D01*
X96343600Y-43863440D01*
X96578917Y-43819162D01*
X96795041Y-43680090D01*
X96902469Y-43522864D01*
X97892324Y-43222908D01*
X98040330Y-43444415D01*
X98526511Y-43769271D01*
X99100000Y-43883345D01*
X99673489Y-43769271D01*
X100159670Y-43444415D01*
X100370000Y-43129634D01*
X100580330Y-43444415D01*
X101066511Y-43769271D01*
X101640000Y-43883345D01*
X102213489Y-43769271D01*
X102699670Y-43444415D01*
X102709243Y-43430087D01*
X102713238Y-43451317D01*
X102852310Y-43667441D01*
X103064510Y-43812431D01*
X103316400Y-43863440D01*
X105043600Y-43863440D01*
X105278917Y-43819162D01*
X105495041Y-43680090D01*
X105640031Y-43467890D01*
X105691040Y-43216000D01*
X105691040Y-41184000D01*
X105646762Y-40948683D01*
X105507690Y-40732559D01*
X105401459Y-40659975D01*
X105761825Y-40484156D01*
X105869673Y-40592192D01*
X106213201Y-40734838D01*
X106585167Y-40735162D01*
X106928943Y-40593117D01*
X107192192Y-40330327D01*
X107309503Y-40047812D01*
X108107029Y-40087277D01*
G36*
X88373956Y-45141380D02*
X88473090Y-53504678D01*
X88307808Y-53669672D01*
X88165162Y-54013200D01*
X88164838Y-54385166D01*
X88188287Y-54441917D01*
X88059649Y-54495069D01*
X87746799Y-54365162D01*
X87374833Y-54364838D01*
X87031057Y-54506883D01*
X86767808Y-54769673D01*
X86625162Y-55113201D01*
X86624838Y-55485167D01*
X86766883Y-55828943D01*
X87029673Y-56092192D01*
X87373201Y-56234838D01*
X87745167Y-56235162D01*
X87749151Y-56233516D01*
X87514360Y-56846847D01*
X85883770Y-59859462D01*
X83183459Y-63225067D01*
X81549730Y-62767263D01*
X81964840Y-59482476D01*
X81964838Y-59485167D01*
X82106883Y-59828943D01*
X82369673Y-60092192D01*
X82713201Y-60234838D01*
X83085167Y-60235162D01*
X83400351Y-60104931D01*
X83713201Y-60234838D01*
X84085167Y-60235162D01*
X84428943Y-60093117D01*
X84692192Y-59830327D01*
X84834838Y-59486799D01*
X84835162Y-59114833D01*
X84693117Y-58771057D01*
X84430327Y-58507808D01*
X84086799Y-58365162D01*
X83714833Y-58364838D01*
X83399649Y-58495069D01*
X83086799Y-58365162D01*
X82714833Y-58364838D01*
X82371057Y-58506883D01*
X82107808Y-58769673D01*
X82031782Y-58952763D01*
X82225998Y-57415923D01*
X82227000Y-57400000D01*
X82227000Y-56685167D01*
X85164838Y-56685167D01*
X85306883Y-57028943D01*
X85569673Y-57292192D01*
X85913201Y-57434838D01*
X86285167Y-57435162D01*
X86628943Y-57293117D01*
X86892192Y-57030327D01*
X87034838Y-56686799D01*
X87035162Y-56314833D01*
X86893117Y-55971057D01*
X86630327Y-55707808D01*
X86286799Y-55565162D01*
X85914833Y-55564838D01*
X85571057Y-55706883D01*
X85307808Y-55969673D01*
X85165162Y-56313201D01*
X85164838Y-56685167D01*
X82227000Y-56685167D01*
X82227000Y-50800000D01*
X82216994Y-50750590D01*
X82189803Y-50710197D01*
X81590427Y-50110821D01*
X79914393Y-48385167D01*
X82064838Y-48385167D01*
X82195069Y-48700351D01*
X82065162Y-49013201D01*
X82064838Y-49385167D01*
X82206883Y-49728943D01*
X82469673Y-49992192D01*
X82813201Y-50134838D01*
X83165336Y-50135145D01*
X83164630Y-50942815D01*
X83488980Y-51727800D01*
X84089041Y-52328909D01*
X84873459Y-52654628D01*
X85722815Y-52655370D01*
X86507800Y-52331020D01*
X87108909Y-51730959D01*
X87434628Y-50946541D01*
X87435370Y-50097185D01*
X87111020Y-49312200D01*
X86510959Y-48711091D01*
X85726541Y-48385372D01*
X84877185Y-48384630D01*
X84092200Y-48708980D01*
X83891549Y-48909281D01*
X83804931Y-48699649D01*
X83934838Y-48386799D01*
X83935162Y-48014833D01*
X83793117Y-47671057D01*
X83530327Y-47407808D01*
X83186799Y-47265162D01*
X82814833Y-47264838D01*
X82471057Y-47406883D01*
X82207808Y-47669673D01*
X82065162Y-48013201D01*
X82064838Y-48385167D01*
X79914393Y-48385167D01*
X78611134Y-47043326D01*
X79130308Y-45885167D01*
X82364838Y-45885167D01*
X82506883Y-46228943D01*
X82769673Y-46492192D01*
X83113201Y-46634838D01*
X83485167Y-46635162D01*
X83828943Y-46493117D01*
X84092192Y-46230327D01*
X84234838Y-45886799D01*
X84235162Y-45514833D01*
X84093117Y-45171057D01*
X83830327Y-44907808D01*
X83486799Y-44765162D01*
X83114833Y-44764838D01*
X82771057Y-44906883D01*
X82507808Y-45169673D01*
X82365162Y-45513201D01*
X82364838Y-45885167D01*
X79130308Y-45885167D01*
X79844728Y-44291463D01*
X83373562Y-44048300D01*
X83406883Y-44128943D01*
X83669673Y-44392192D01*
X84013201Y-44534838D01*
X84026685Y-44534850D01*
X84106883Y-44728943D01*
X84369673Y-44992192D01*
X84713201Y-45134838D01*
X85085167Y-45135162D01*
X85428943Y-44993117D01*
X85692192Y-44730327D01*
X85834838Y-44386799D01*
X85835162Y-44014833D01*
X85806300Y-43944981D01*
X88373956Y-45141380D01*
X88373956Y-45141380D01*
G37*
X88373956Y-45141380D02*
X88473090Y-53504678D01*
X88307808Y-53669672D01*
X88165162Y-54013200D01*
X88164838Y-54385166D01*
X88188287Y-54441917D01*
X88059649Y-54495069D01*
X87746799Y-54365162D01*
X87374833Y-54364838D01*
X87031057Y-54506883D01*
X86767808Y-54769673D01*
X86625162Y-55113201D01*
X86624838Y-55485167D01*
X86766883Y-55828943D01*
X87029673Y-56092192D01*
X87373201Y-56234838D01*
X87745167Y-56235162D01*
X87749151Y-56233516D01*
X87514360Y-56846847D01*
X85883770Y-59859462D01*
X83183459Y-63225067D01*
X81549730Y-62767263D01*
X81964840Y-59482476D01*
X81964838Y-59485167D01*
X82106883Y-59828943D01*
X82369673Y-60092192D01*
X82713201Y-60234838D01*
X83085167Y-60235162D01*
X83400351Y-60104931D01*
X83713201Y-60234838D01*
X84085167Y-60235162D01*
X84428943Y-60093117D01*
X84692192Y-59830327D01*
X84834838Y-59486799D01*
X84835162Y-59114833D01*
X84693117Y-58771057D01*
X84430327Y-58507808D01*
X84086799Y-58365162D01*
X83714833Y-58364838D01*
X83399649Y-58495069D01*
X83086799Y-58365162D01*
X82714833Y-58364838D01*
X82371057Y-58506883D01*
X82107808Y-58769673D01*
X82031782Y-58952763D01*
X82225998Y-57415923D01*
X82227000Y-57400000D01*
X82227000Y-56685167D01*
X85164838Y-56685167D01*
X85306883Y-57028943D01*
X85569673Y-57292192D01*
X85913201Y-57434838D01*
X86285167Y-57435162D01*
X86628943Y-57293117D01*
X86892192Y-57030327D01*
X87034838Y-56686799D01*
X87035162Y-56314833D01*
X86893117Y-55971057D01*
X86630327Y-55707808D01*
X86286799Y-55565162D01*
X85914833Y-55564838D01*
X85571057Y-55706883D01*
X85307808Y-55969673D01*
X85165162Y-56313201D01*
X85164838Y-56685167D01*
X82227000Y-56685167D01*
X82227000Y-50800000D01*
X82216994Y-50750590D01*
X82189803Y-50710197D01*
X81590427Y-50110821D01*
X79914393Y-48385167D01*
X82064838Y-48385167D01*
X82195069Y-48700351D01*
X82065162Y-49013201D01*
X82064838Y-49385167D01*
X82206883Y-49728943D01*
X82469673Y-49992192D01*
X82813201Y-50134838D01*
X83165336Y-50135145D01*
X83164630Y-50942815D01*
X83488980Y-51727800D01*
X84089041Y-52328909D01*
X84873459Y-52654628D01*
X85722815Y-52655370D01*
X86507800Y-52331020D01*
X87108909Y-51730959D01*
X87434628Y-50946541D01*
X87435370Y-50097185D01*
X87111020Y-49312200D01*
X86510959Y-48711091D01*
X85726541Y-48385372D01*
X84877185Y-48384630D01*
X84092200Y-48708980D01*
X83891549Y-48909281D01*
X83804931Y-48699649D01*
X83934838Y-48386799D01*
X83935162Y-48014833D01*
X83793117Y-47671057D01*
X83530327Y-47407808D01*
X83186799Y-47265162D01*
X82814833Y-47264838D01*
X82471057Y-47406883D01*
X82207808Y-47669673D01*
X82065162Y-48013201D01*
X82064838Y-48385167D01*
X79914393Y-48385167D01*
X78611134Y-47043326D01*
X79130308Y-45885167D01*
X82364838Y-45885167D01*
X82506883Y-46228943D01*
X82769673Y-46492192D01*
X83113201Y-46634838D01*
X83485167Y-46635162D01*
X83828943Y-46493117D01*
X84092192Y-46230327D01*
X84234838Y-45886799D01*
X84235162Y-45514833D01*
X84093117Y-45171057D01*
X83830327Y-44907808D01*
X83486799Y-44765162D01*
X83114833Y-44764838D01*
X82771057Y-44906883D01*
X82507808Y-45169673D01*
X82365162Y-45513201D01*
X82364838Y-45885167D01*
X79130308Y-45885167D01*
X79844728Y-44291463D01*
X83373562Y-44048300D01*
X83406883Y-44128943D01*
X83669673Y-44392192D01*
X84013201Y-44534838D01*
X84026685Y-44534850D01*
X84106883Y-44728943D01*
X84369673Y-44992192D01*
X84713201Y-45134838D01*
X85085167Y-45135162D01*
X85428943Y-44993117D01*
X85692192Y-44730327D01*
X85834838Y-44386799D01*
X85835162Y-44014833D01*
X85806300Y-43944981D01*
X88373956Y-45141380D01*
G36*
X75106883Y-47928943D02*
X75369673Y-48192192D01*
X75713201Y-48334838D01*
X76085167Y-48335162D01*
X76300104Y-48246352D01*
X76513201Y-48334838D01*
X76885167Y-48335162D01*
X77054527Y-48265184D01*
X81074048Y-52452186D01*
X81155703Y-56415568D01*
X81115162Y-56513201D01*
X81114838Y-56885167D01*
X81168030Y-57013901D01*
X81202526Y-58688287D01*
X80673988Y-60100923D01*
X79832623Y-60736621D01*
X79059065Y-60803472D01*
X79029839Y-60809517D01*
X78563813Y-60964859D01*
X78539833Y-60964838D01*
X78439477Y-61006304D01*
X78043843Y-61138182D01*
X77141554Y-61373562D01*
X73690301Y-61492914D01*
X71705194Y-61414683D01*
X70763000Y-60694182D01*
X70637972Y-58765167D01*
X72534838Y-58765167D01*
X72676883Y-59108943D01*
X72939673Y-59372192D01*
X73283201Y-59514838D01*
X73655167Y-59515162D01*
X73998943Y-59373117D01*
X74015115Y-59356973D01*
X74014838Y-59675167D01*
X74156883Y-60018943D01*
X74419673Y-60282192D01*
X74763201Y-60424838D01*
X75135167Y-60425162D01*
X75478943Y-60283117D01*
X75742192Y-60020327D01*
X75747441Y-60007687D01*
X75776883Y-60078943D01*
X76039673Y-60342192D01*
X76383201Y-60484838D01*
X76755167Y-60485162D01*
X77098943Y-60343117D01*
X77362192Y-60080327D01*
X77385750Y-60023594D01*
X77416883Y-60098943D01*
X77679673Y-60362192D01*
X78023201Y-60504838D01*
X78395167Y-60505162D01*
X78738943Y-60363117D01*
X78945120Y-60157299D01*
X79139673Y-60352192D01*
X79483201Y-60494838D01*
X79855167Y-60495162D01*
X80198943Y-60353117D01*
X80462192Y-60090327D01*
X80604838Y-59746799D01*
X80605162Y-59374833D01*
X80485286Y-59084710D01*
X80604838Y-58796799D01*
X80605162Y-58424833D01*
X80463117Y-58081057D01*
X80200327Y-57817808D01*
X79856799Y-57675162D01*
X79484833Y-57674838D01*
X79141057Y-57816883D01*
X78924862Y-58032701D01*
X78720327Y-57827808D01*
X78376799Y-57685162D01*
X78004833Y-57684838D01*
X77661057Y-57826883D01*
X77397808Y-58089673D01*
X77370108Y-58156381D01*
X77343117Y-58091057D01*
X77080327Y-57827808D01*
X76736799Y-57685162D01*
X76364833Y-57684838D01*
X76021057Y-57826883D01*
X75758703Y-58088779D01*
X75743117Y-58051057D01*
X75480327Y-57787808D01*
X75136799Y-57645162D01*
X74764833Y-57644838D01*
X74421057Y-57786883D01*
X74209862Y-57997709D01*
X74000327Y-57787808D01*
X73656799Y-57645162D01*
X73284833Y-57644838D01*
X72941057Y-57786883D01*
X72677808Y-58049673D01*
X72535162Y-58393201D01*
X72534838Y-58765167D01*
X70637972Y-58765167D01*
X70627000Y-58595890D01*
X70627000Y-58435024D01*
X70785167Y-58435162D01*
X71128943Y-58293117D01*
X71199893Y-58222290D01*
X71269673Y-58292192D01*
X71613201Y-58434838D01*
X71985167Y-58435162D01*
X72328943Y-58293117D01*
X72592192Y-58030327D01*
X72734838Y-57686799D01*
X72735162Y-57314833D01*
X72593117Y-56971057D01*
X72330327Y-56707808D01*
X71986799Y-56565162D01*
X71614833Y-56564838D01*
X71271057Y-56706883D01*
X71200107Y-56777710D01*
X71130327Y-56707808D01*
X70786799Y-56565162D01*
X70627000Y-56565023D01*
X70627000Y-55852606D01*
X72363284Y-54116322D01*
X73726610Y-53824181D01*
X73772827Y-53804044D01*
X73807568Y-53767513D01*
X73821384Y-53737349D01*
X74221384Y-52437349D01*
X74226351Y-52387181D01*
X74211409Y-52339033D01*
X74189803Y-52310197D01*
X73489803Y-51610197D01*
X73447789Y-51582334D01*
X73400000Y-51573000D01*
X71952606Y-51573000D01*
X71231178Y-50851572D01*
X71233801Y-50818058D01*
X71563201Y-50954838D01*
X71935167Y-50955162D01*
X72278943Y-50813117D01*
X72542192Y-50550327D01*
X72684838Y-50206799D01*
X72685162Y-49834833D01*
X72548948Y-49505167D01*
X73614838Y-49505167D01*
X73756883Y-49848943D01*
X74019673Y-50112192D01*
X74363201Y-50254838D01*
X74589432Y-50255035D01*
X74405328Y-50698405D01*
X74404674Y-51448305D01*
X74691043Y-52141372D01*
X75220839Y-52672093D01*
X75913405Y-52959672D01*
X76663305Y-52960326D01*
X77356372Y-52673957D01*
X77887093Y-52144161D01*
X78174672Y-51451595D01*
X78175326Y-50701695D01*
X77888957Y-50008628D01*
X77359161Y-49477907D01*
X76666595Y-49190328D01*
X75916695Y-49189674D01*
X75484959Y-49368063D01*
X75485162Y-49134833D01*
X75343117Y-48791057D01*
X75080327Y-48527808D01*
X74736799Y-48385162D01*
X74364833Y-48384838D01*
X74021057Y-48526883D01*
X73757808Y-48789673D01*
X73615162Y-49133201D01*
X73614838Y-49505167D01*
X72548948Y-49505167D01*
X72543117Y-49491057D01*
X72280327Y-49227808D01*
X71936799Y-49085162D01*
X71564833Y-49084838D01*
X71362916Y-49168268D01*
X71402337Y-48664552D01*
X72508256Y-47774193D01*
X74978186Y-47617472D01*
X75106883Y-47928943D01*
X75106883Y-47928943D01*
G37*
X75106883Y-47928943D02*
X75369673Y-48192192D01*
X75713201Y-48334838D01*
X76085167Y-48335162D01*
X76300104Y-48246352D01*
X76513201Y-48334838D01*
X76885167Y-48335162D01*
X77054527Y-48265184D01*
X81074048Y-52452186D01*
X81155703Y-56415568D01*
X81115162Y-56513201D01*
X81114838Y-56885167D01*
X81168030Y-57013901D01*
X81202526Y-58688287D01*
X80673988Y-60100923D01*
X79832623Y-60736621D01*
X79059065Y-60803472D01*
X79029839Y-60809517D01*
X78563813Y-60964859D01*
X78539833Y-60964838D01*
X78439477Y-61006304D01*
X78043843Y-61138182D01*
X77141554Y-61373562D01*
X73690301Y-61492914D01*
X71705194Y-61414683D01*
X70763000Y-60694182D01*
X70637972Y-58765167D01*
X72534838Y-58765167D01*
X72676883Y-59108943D01*
X72939673Y-59372192D01*
X73283201Y-59514838D01*
X73655167Y-59515162D01*
X73998943Y-59373117D01*
X74015115Y-59356973D01*
X74014838Y-59675167D01*
X74156883Y-60018943D01*
X74419673Y-60282192D01*
X74763201Y-60424838D01*
X75135167Y-60425162D01*
X75478943Y-60283117D01*
X75742192Y-60020327D01*
X75747441Y-60007687D01*
X75776883Y-60078943D01*
X76039673Y-60342192D01*
X76383201Y-60484838D01*
X76755167Y-60485162D01*
X77098943Y-60343117D01*
X77362192Y-60080327D01*
X77385750Y-60023594D01*
X77416883Y-60098943D01*
X77679673Y-60362192D01*
X78023201Y-60504838D01*
X78395167Y-60505162D01*
X78738943Y-60363117D01*
X78945120Y-60157299D01*
X79139673Y-60352192D01*
X79483201Y-60494838D01*
X79855167Y-60495162D01*
X80198943Y-60353117D01*
X80462192Y-60090327D01*
X80604838Y-59746799D01*
X80605162Y-59374833D01*
X80485286Y-59084710D01*
X80604838Y-58796799D01*
X80605162Y-58424833D01*
X80463117Y-58081057D01*
X80200327Y-57817808D01*
X79856799Y-57675162D01*
X79484833Y-57674838D01*
X79141057Y-57816883D01*
X78924862Y-58032701D01*
X78720327Y-57827808D01*
X78376799Y-57685162D01*
X78004833Y-57684838D01*
X77661057Y-57826883D01*
X77397808Y-58089673D01*
X77370108Y-58156381D01*
X77343117Y-58091057D01*
X77080327Y-57827808D01*
X76736799Y-57685162D01*
X76364833Y-57684838D01*
X76021057Y-57826883D01*
X75758703Y-58088779D01*
X75743117Y-58051057D01*
X75480327Y-57787808D01*
X75136799Y-57645162D01*
X74764833Y-57644838D01*
X74421057Y-57786883D01*
X74209862Y-57997709D01*
X74000327Y-57787808D01*
X73656799Y-57645162D01*
X73284833Y-57644838D01*
X72941057Y-57786883D01*
X72677808Y-58049673D01*
X72535162Y-58393201D01*
X72534838Y-58765167D01*
X70637972Y-58765167D01*
X70627000Y-58595890D01*
X70627000Y-58435024D01*
X70785167Y-58435162D01*
X71128943Y-58293117D01*
X71199893Y-58222290D01*
X71269673Y-58292192D01*
X71613201Y-58434838D01*
X71985167Y-58435162D01*
X72328943Y-58293117D01*
X72592192Y-58030327D01*
X72734838Y-57686799D01*
X72735162Y-57314833D01*
X72593117Y-56971057D01*
X72330327Y-56707808D01*
X71986799Y-56565162D01*
X71614833Y-56564838D01*
X71271057Y-56706883D01*
X71200107Y-56777710D01*
X71130327Y-56707808D01*
X70786799Y-56565162D01*
X70627000Y-56565023D01*
X70627000Y-55852606D01*
X72363284Y-54116322D01*
X73726610Y-53824181D01*
X73772827Y-53804044D01*
X73807568Y-53767513D01*
X73821384Y-53737349D01*
X74221384Y-52437349D01*
X74226351Y-52387181D01*
X74211409Y-52339033D01*
X74189803Y-52310197D01*
X73489803Y-51610197D01*
X73447789Y-51582334D01*
X73400000Y-51573000D01*
X71952606Y-51573000D01*
X71231178Y-50851572D01*
X71233801Y-50818058D01*
X71563201Y-50954838D01*
X71935167Y-50955162D01*
X72278943Y-50813117D01*
X72542192Y-50550327D01*
X72684838Y-50206799D01*
X72685162Y-49834833D01*
X72548948Y-49505167D01*
X73614838Y-49505167D01*
X73756883Y-49848943D01*
X74019673Y-50112192D01*
X74363201Y-50254838D01*
X74589432Y-50255035D01*
X74405328Y-50698405D01*
X74404674Y-51448305D01*
X74691043Y-52141372D01*
X75220839Y-52672093D01*
X75913405Y-52959672D01*
X76663305Y-52960326D01*
X77356372Y-52673957D01*
X77887093Y-52144161D01*
X78174672Y-51451595D01*
X78175326Y-50701695D01*
X77888957Y-50008628D01*
X77359161Y-49477907D01*
X76666595Y-49190328D01*
X75916695Y-49189674D01*
X75484959Y-49368063D01*
X75485162Y-49134833D01*
X75343117Y-48791057D01*
X75080327Y-48527808D01*
X74736799Y-48385162D01*
X74364833Y-48384838D01*
X74021057Y-48526883D01*
X73757808Y-48789673D01*
X73615162Y-49133201D01*
X73614838Y-49505167D01*
X72548948Y-49505167D01*
X72543117Y-49491057D01*
X72280327Y-49227808D01*
X71936799Y-49085162D01*
X71564833Y-49084838D01*
X71362916Y-49168268D01*
X71402337Y-48664552D01*
X72508256Y-47774193D01*
X74978186Y-47617472D01*
X75106883Y-47928943D01*
M02*
