M48
;DRILL file {KiCad 4.0.4-stable} date 05/31/17 00:38:51
;FORMAT={-:-/ absolute / inch / decimal}
FMAT,2
INCH,TZ
T1C0.016
T2C0.040
T3C0.063
T4C0.079
T5C0.098
%
G90
G05
M72
T1
X2.5079Y-1.9602
X2.515Y-1.8504
X2.5161Y-2.0902
X2.5236Y-2.2008
X2.5236Y-2.2835
X2.5563Y-1.9598
X2.5614Y-2.0913
X2.563Y-2.2008
X2.563Y-2.2835
X2.5709Y-1.8484
X2.5945Y-2.2835
X2.5945Y-2.3346
X2.5945Y-2.4173
X2.5984Y-2.2008
X2.6024Y-1.9598
X2.6063Y-2.0913
X2.6201Y-1.8484
X2.6378Y-2.2008
X2.6425Y-2.0913
X2.6429Y-1.9622
X2.6457Y-1.9252
X2.6484Y-1.798
X2.6496Y-1.8484
X2.6535Y-1.5906
X2.6575Y-2.2835
X2.6732Y-2.1693
X2.6772Y-2.0752
X2.6815Y-2.4283
X2.6843Y-2.4854
X2.6843Y-2.5445
X2.7039Y-2.7028
X2.7165Y-1.9252
X2.7165Y-2.1181
X2.7283Y-1.7598
X2.7323Y-1.8268
X2.7531Y-2.5453
X2.7563Y-2.7039
X2.7717Y-1.9252
X2.7795Y-2.1181
X2.7795Y-2.2638
X2.7819Y-1.9693
X2.8071Y-2.3307
X2.8075Y-2.5453
X2.8094Y-2.7031
X2.8248Y-1.9693
X2.8268Y-1.7598
X2.8268Y-2.2638
X2.8346Y-2.0945
X2.8543Y-1.5866
X2.8622Y-2.0748
X2.8661Y-1.9567
X2.8661Y-2.5453
X2.8661Y-2.7031
X2.8701Y-1.7087
X2.8925Y-2.3063
X2.9213Y-1.8976
X2.9213Y-2.189
X2.935Y-1.9417
X2.9409Y-1.7844
X2.9508Y-2.3063
X2.9508Y-2.3421
X2.9843Y-2.6929
X2.9882Y-1.8661
X3.0138Y-2.3079
X3.0146Y-2.3445
X3.0197Y-1.8661
X3.0472Y-1.6969
X3.0551Y-1.5866
X3.0709Y-2.1378
X3.0783Y-2.3079
X3.0791Y-2.3453
X3.0827Y-2.6772
X3.0994Y-2.437
X3.1366Y-2.3075
X3.1366Y-2.3449
X3.1496Y-1.8858
X3.163Y-1.5937
X3.1772Y-2.189
X3.1886Y-2.3083
X3.2303Y-2.2323
X3.2303Y-2.4646
X3.248Y-1.7835
X3.2622Y-2.8075
X3.2638Y-2.3346
X3.2677Y-1.8976
X3.2677Y-1.937
X3.2717Y-2.0748
X3.2795Y-1.7992
X3.3031Y-2.3346
X3.3067Y-2.6055
X3.315Y-1.7165
X3.315Y-2.0748
X3.3189Y-2.6531
X3.322Y-2.5232
X3.3228Y-2.8079
X3.3287Y-1.8961
X3.3339Y-2.5618
X3.3425Y-1.7402
X3.3453Y-1.7012
X3.374Y-2.0866
X3.3858Y-2.8083
X3.3878Y-1.8969
X3.3898Y-2.2244
X3.4331Y-2.5079
X3.4472Y-2.1772
X3.4524Y-2.8102
X3.4618Y-2.6535
X3.4661Y-2.5516
X3.4685Y-2.0748
X3.4866Y-2.1772
X3.4961Y-1.5827
X3.4961Y-1.6575
X3.5Y-2.5079
X3.5079Y-2.1339
X3.5165Y-2.8094
X3.5209Y-2.1768
X3.5551Y-1.5709
X3.563Y-1.8346
X3.563Y-1.8689
X3.5669Y-2.5079
X3.5984Y-2.1063
X3.5984Y-2.3504
X3.6063Y-2.2244
X3.622Y-1.5709
X3.6535Y-2.2165
X3.6535Y-2.811
X3.7008Y-1.5669
X3.7008Y-2.811
X3.7262Y-1.8584
X3.7262Y-2.1911
X3.748Y-2.811
X3.7598Y-1.8661
X3.7624Y-2.1915
X3.7795Y-2.0709
X3.7874Y-2.0394
X3.7882Y-2.1146
X3.7939Y-2.1915
X3.7953Y-2.811
X3.811Y-2.0157
X3.8283Y-2.0898
X3.8319Y-2.1925
X3.8386Y-2.811
X3.8398Y-1.9366
X3.8425Y-1.8543
X3.8425Y-1.8937
X3.8425Y-2.0472
X3.8673Y-1.9634
X3.8701Y-2.0748
X3.874Y-1.5669
X3.8756Y-2.1134
X3.8933Y-1.9846
X3.9189Y-2.0075
X3.9252Y-1.9567
X3.937Y-2.3543
X3.937Y-2.3976
X3.937Y-2.4449
X3.937Y-2.4961
X3.9512Y-2.0358
X3.9567Y-1.9803
X3.9815Y-2.061
X3.9937Y-2.1882
X3.9961Y-2.311
X4.Y-1.9803
X4.0105Y-2.1005
X4.0236Y-1.8976
X4.0472Y-2.1339
X4.0569Y-1.5669
X4.061Y-2.3213
X4.061Y-2.3752
X4.0618Y-2.4358
X4.0618Y-2.489
X4.0709Y-1.8386
X4.1102Y-2.2835
X4.1299Y-2.8268
X4.1339Y-2.7677
X4.1614Y-1.8425
X4.1614Y-1.8898
X4.1728Y-2.2992
X4.185Y-2.8268
X4.189Y-1.5669
X4.2008Y-2.6496
X4.2008Y-2.7087
X4.2008Y-2.7638
X4.2441Y-2.8268
X4.252Y-2.0984
X4.2677Y-2.3268
X4.2687Y-2.2677
X4.2717Y-2.2205
X4.2717Y-2.6181
X4.2913Y-1.5669
X4.3189Y-2.2205
X4.3189Y-2.2717
X4.3189Y-2.3268
X4.3661Y-2.2205
X4.3661Y-2.2756
X4.3661Y-2.3268
T2
X2.5945Y-2.5339
X2.5945Y-2.6339
X3.5591Y-1.6614
X3.6591Y-1.6614
X3.7591Y-1.6614
X3.9016Y-1.6614
X4.0016Y-1.6614
X4.1016Y-1.6614
X4.2441Y-1.6614
X4.2441Y-1.7614
X4.2441Y-1.8614
X4.3441Y-1.6614
X4.3441Y-1.7614
X4.3441Y-1.8614
T4
X3.0035Y-2.0108
T5
X3.3583Y-1.989
T3
X3.035Y-2.5024G85X3.035Y-2.4866
G05
T0
M30
