G04 #@! TF.FileFunction,Copper,L4,Bot,Signal*
%FSLAX46Y46*%
G04 Gerber Fmt 4.6, Leading zero omitted, Abs format (unit mm)*
G04 Created by KiCad (PCBNEW 4.0.4-stable) date 05/18/17 09:07:34*
%MOMM*%
%LPD*%
G01*
G04 APERTURE LIST*
%ADD10C,0.100000*%
%ADD11R,2.032000X2.032000*%
%ADD12O,2.032000X2.032000*%
%ADD13R,1.200000X0.750000*%
%ADD14R,0.750000X1.200000*%
%ADD15R,4.064000X1.524000*%
%ADD16R,1.727200X2.032000*%
%ADD17O,1.727200X2.032000*%
%ADD18R,1.727200X1.727200*%
%ADD19O,1.727200X1.727200*%
%ADD20R,1.200000X0.900000*%
%ADD21C,0.600000*%
%ADD22C,0.250000*%
%ADD23C,0.500000*%
%ADD24C,0.254000*%
G04 APERTURE END LIST*
D10*
D11*
X65900000Y-66900000D03*
D12*
X65900000Y-64360000D03*
D13*
X100900000Y-48200000D03*
X99000000Y-48200000D03*
D14*
X96200000Y-48600000D03*
X96200000Y-50500000D03*
X102730000Y-52860000D03*
X102730000Y-50960000D03*
D13*
X102200000Y-46700000D03*
X100300000Y-46700000D03*
D14*
X94700000Y-48600000D03*
X94700000Y-50500000D03*
X94900000Y-54500000D03*
X94900000Y-52600000D03*
D15*
X65059000Y-48887000D03*
X65059000Y-53967000D03*
D16*
X104180000Y-42200000D03*
D17*
X101640000Y-42200000D03*
X99100000Y-42200000D03*
D16*
X95480000Y-42200000D03*
D17*
X92940000Y-42200000D03*
X90400000Y-42200000D03*
D18*
X107800000Y-42200000D03*
D19*
X110340000Y-42200000D03*
X107800000Y-44740000D03*
X110340000Y-44740000D03*
X107800000Y-47280000D03*
X110340000Y-47280000D03*
D20*
X74400000Y-46400000D03*
X76600000Y-46400000D03*
X89750000Y-44800000D03*
X87550000Y-44800000D03*
X93900000Y-44800000D03*
X91700000Y-44800000D03*
D21*
X84200000Y-43600000D03*
X84900000Y-44200000D03*
X84970000Y-43210000D03*
X90500000Y-47470000D03*
X80340000Y-40480000D03*
X71800000Y-44700000D03*
X105700000Y-48000000D03*
X105700000Y-46800000D03*
X109000000Y-39800000D03*
X106400000Y-39800000D03*
X98400000Y-39800000D03*
X103046000Y-39800000D03*
X88800000Y-42100000D03*
X90500000Y-46600000D03*
X94000000Y-39800000D03*
X92000000Y-39900000D03*
X90300000Y-39900000D03*
X88800000Y-40200000D03*
X69400000Y-46400000D03*
X77600000Y-40300000D03*
X67400000Y-40400000D03*
X72500000Y-40300000D03*
X69300000Y-44700000D03*
X109700000Y-57700000D03*
X108425000Y-57600000D03*
X108400000Y-59100000D03*
X109700000Y-59100000D03*
X110900000Y-59100000D03*
X110900000Y-57800000D03*
X110900000Y-56400000D03*
X109700000Y-56400000D03*
X108500000Y-56400000D03*
X100000000Y-63400000D03*
X100000000Y-62100000D03*
X100000000Y-60900000D03*
X100000000Y-59800000D03*
X108500000Y-66500000D03*
X106700000Y-67300000D03*
X106700000Y-68800000D03*
X106700000Y-70200000D03*
X107800000Y-71800000D03*
X106300000Y-71800000D03*
X104900000Y-71800000D03*
X97500000Y-71400000D03*
X96400000Y-71400000D03*
X95200000Y-71400000D03*
X94000000Y-71400000D03*
X92800000Y-71400000D03*
X89100000Y-55500000D03*
X82900000Y-59300000D03*
X83900000Y-59300000D03*
X78725000Y-61900000D03*
X77100000Y-62300000D03*
X77100000Y-63900000D03*
X88900000Y-63700000D03*
X90600000Y-63700000D03*
X87200000Y-63700000D03*
X78300000Y-68000000D03*
X74400000Y-59000000D03*
X75500000Y-59200000D03*
X79500000Y-59200000D03*
X78000000Y-59100000D03*
X71800000Y-57500000D03*
X70600000Y-57500000D03*
X84656250Y-51133750D03*
X85943750Y-51133750D03*
X85943750Y-49846250D03*
X84656250Y-49846250D03*
X67200000Y-48900000D03*
X99100000Y-53500000D03*
X98300000Y-52700000D03*
X97600000Y-52000000D03*
X96800000Y-51200000D03*
X96200000Y-51800000D03*
X99700000Y-51100000D03*
X99000000Y-50600000D03*
X98230000Y-49870000D03*
X97600000Y-47100000D03*
X97600000Y-48100000D03*
X97530000Y-49190000D03*
X67900000Y-53700000D03*
X72700000Y-52700000D03*
X70400000Y-48900000D03*
X71700000Y-50000000D03*
X70400000Y-50000000D03*
X69000000Y-48900000D03*
X67600000Y-52700000D03*
X66600000Y-52700000D03*
X64200000Y-52700000D03*
X65000000Y-52700000D03*
X66600000Y-50100000D03*
X65200000Y-50100000D03*
X64200000Y-50100000D03*
X96000000Y-52600000D03*
X74700000Y-45325000D03*
X65100000Y-58000000D03*
X64100000Y-58000000D03*
X65900000Y-58000000D03*
X67500000Y-58000000D03*
X65900000Y-59300000D03*
X65900000Y-61400000D03*
X67300000Y-46950000D03*
X66550000Y-46950000D03*
X65300000Y-46950000D03*
X63880000Y-47000000D03*
X75580000Y-51620000D03*
X77000000Y-50300000D03*
X75545000Y-50320000D03*
X76960000Y-51560000D03*
X76240000Y-50940000D03*
X72000000Y-53200000D03*
X70600000Y-53800000D03*
X69000000Y-53800000D03*
X67900000Y-55100000D03*
X64100000Y-55900000D03*
X67000000Y-55900000D03*
X66000000Y-55900000D03*
X65100000Y-55900000D03*
X101440000Y-55580000D03*
X108000000Y-53300000D03*
X102200000Y-48200000D03*
X95500000Y-47400000D03*
X71300000Y-59200000D03*
X89100000Y-54199999D03*
X80625000Y-62700000D03*
X72800000Y-49700000D03*
X78000000Y-54300000D03*
X74200000Y-55600000D03*
X74200000Y-48200000D03*
X81200000Y-56100000D03*
X81200000Y-59100000D03*
X82500000Y-45300000D03*
X85900000Y-48200000D03*
X85700000Y-53000000D03*
X84200000Y-52700000D03*
X81400000Y-63300000D03*
X88100000Y-52700000D03*
X80000000Y-47900000D03*
X83100000Y-52700000D03*
X84600000Y-48200000D03*
X82050000Y-56700000D03*
X82050000Y-62450000D03*
X84300000Y-67390000D03*
X88040000Y-64810000D03*
X101500000Y-58700000D03*
X103400000Y-46700000D03*
X94645863Y-55654137D03*
X94645863Y-47202849D03*
X92800000Y-56300000D03*
X91400000Y-59700000D03*
X102800000Y-54200000D03*
X75800000Y-68400000D03*
X105000000Y-70300000D03*
X95566000Y-55664000D03*
X76700000Y-47400000D03*
X83300000Y-45700000D03*
X105990000Y-58400000D03*
X104400000Y-58000000D03*
X91400000Y-53500000D03*
X96366003Y-55664000D03*
X75900000Y-47400000D03*
X91600000Y-56500000D03*
X86100000Y-56500000D03*
X101580000Y-53220000D03*
X87040000Y-67400000D03*
X101130000Y-52350000D03*
X83990000Y-66180000D03*
X100360000Y-51710000D03*
X84680000Y-65070000D03*
X83000000Y-48200000D03*
X77400000Y-43100000D03*
X72900000Y-43400000D03*
X83000000Y-49200000D03*
X84380000Y-64090000D03*
X97330000Y-55690000D03*
D22*
X84900000Y-44200000D02*
X84900000Y-43280000D01*
X84900000Y-43280000D02*
X84970000Y-43210000D01*
X84970000Y-43210000D02*
X84590000Y-43210000D01*
X84590000Y-43210000D02*
X84200000Y-43600000D01*
X84900000Y-44200000D02*
X84800000Y-44200000D01*
X84800000Y-44200000D02*
X84200000Y-43600000D01*
X107800000Y-47280000D02*
X106180000Y-47280000D01*
X106180000Y-47280000D02*
X105700000Y-46800000D01*
X106400000Y-39800000D02*
X109000000Y-39800000D01*
X65059000Y-53967000D02*
X65059000Y-52759000D01*
X65059000Y-52759000D02*
X65000000Y-52700000D01*
X65059000Y-48887000D02*
X65059000Y-49959000D01*
X65059000Y-49959000D02*
X65200000Y-50100000D01*
X97600000Y-48100000D02*
X97600000Y-47100000D01*
X97530000Y-49190000D02*
X97530000Y-48170000D01*
X97530000Y-48170000D02*
X97600000Y-48100000D01*
X98230000Y-49870000D02*
X98210000Y-49870000D01*
X98210000Y-49870000D02*
X97530000Y-49190000D01*
X99700000Y-51100000D02*
X99500000Y-51100000D01*
X99500000Y-51100000D02*
X99000000Y-50600000D01*
X98230000Y-49870000D02*
X98270000Y-49870000D01*
X98270000Y-49870000D02*
X99000000Y-50600000D01*
X96800000Y-51200000D02*
X99100000Y-53500000D01*
X96200000Y-51800000D02*
X96800000Y-51200000D01*
X96000000Y-52600000D02*
X96000000Y-52000000D01*
X96000000Y-52000000D02*
X96200000Y-51800000D01*
X94900000Y-52600000D02*
X94900000Y-51590000D01*
X94700000Y-50500000D02*
X94700000Y-51390000D01*
X94700000Y-51390000D02*
X94900000Y-51590000D01*
X65059000Y-53967000D02*
X67633000Y-53967000D01*
X67633000Y-53967000D02*
X67900000Y-53700000D01*
X98230000Y-49870000D02*
X99000000Y-49100000D01*
X97600000Y-50500000D02*
X98230000Y-49870000D01*
X107201314Y-49100000D02*
X102730000Y-49100000D01*
X102730000Y-49100000D02*
X99000000Y-49100000D01*
X102730000Y-50960000D02*
X102730000Y-50110000D01*
X102730000Y-50110000D02*
X102730000Y-49100000D01*
X96000000Y-52600000D02*
X94900000Y-52600000D01*
X107800000Y-47280000D02*
X107800000Y-48501314D01*
X107800000Y-48501314D02*
X107201314Y-49100000D01*
X74400000Y-46400000D02*
X74400000Y-45625000D01*
X74400000Y-45625000D02*
X74700000Y-45325000D01*
X89750000Y-44800000D02*
X89750000Y-42850000D01*
X89750000Y-42850000D02*
X90400000Y-42200000D01*
X99000000Y-47100000D02*
X99400000Y-46700000D01*
X99400000Y-46700000D02*
X100300000Y-46700000D01*
X99000000Y-48200000D02*
X99000000Y-47100000D01*
X96200000Y-50500000D02*
X97600000Y-50500000D01*
X99000000Y-49100000D02*
X99000000Y-48200000D01*
X96200000Y-50500000D02*
X94700000Y-50500000D01*
X101440000Y-55580000D02*
X105680000Y-55580000D01*
X105680000Y-55580000D02*
X105700000Y-55600000D01*
X105500000Y-55600000D02*
X105700000Y-55600000D01*
X105700000Y-55600000D02*
X108000000Y-53300000D01*
D23*
X102200000Y-48200000D02*
X100900000Y-48200000D01*
X95500000Y-47400000D02*
X96200000Y-48100000D01*
X96200000Y-48100000D02*
X96200000Y-48600000D01*
X89100000Y-54199999D02*
X83100001Y-54199999D01*
X83100001Y-54199999D02*
X81499999Y-55800001D01*
X81499999Y-55800001D02*
X81200000Y-56100000D01*
X94900000Y-54500000D02*
X94645863Y-54754137D01*
X94645863Y-54754137D02*
X94645863Y-55654137D01*
X102800000Y-54200000D02*
X102800000Y-52930000D01*
X102800000Y-52930000D02*
X102730000Y-52860000D01*
X103400000Y-46700000D02*
X102200000Y-46700000D01*
X94645863Y-47202849D02*
X94645863Y-48545863D01*
X94645863Y-48545863D02*
X94700000Y-48600000D01*
X105000000Y-70300000D02*
X78600000Y-70300000D01*
X78600000Y-70300000D02*
X77700000Y-70300000D01*
X77700000Y-70300000D02*
X75800000Y-68400000D01*
D22*
X93900000Y-44800000D02*
X107740000Y-44800000D01*
X107740000Y-44800000D02*
X107800000Y-44740000D01*
X76700000Y-47400000D02*
X76700000Y-46500000D01*
X76700000Y-46500000D02*
X76600000Y-46400000D01*
X81125001Y-57325001D02*
X92264000Y-57325001D01*
X95566000Y-55664000D02*
X93904999Y-57325001D01*
X93904999Y-57325001D02*
X92264000Y-57325001D01*
X79600000Y-51200000D02*
X79600000Y-55800000D01*
X79600000Y-51200000D02*
X79600000Y-50300000D01*
X79600000Y-50300000D02*
X76700000Y-47400000D01*
X79600000Y-55800000D02*
X81125001Y-57325001D01*
D23*
X87550000Y-44800000D02*
X86650000Y-45700000D01*
X86650000Y-45700000D02*
X83300000Y-45700000D01*
D22*
X104400000Y-58000000D02*
X105590000Y-58000000D01*
X105590000Y-58000000D02*
X105990000Y-58400000D01*
X91400000Y-51400000D02*
X91700000Y-51100000D01*
X91700000Y-51100000D02*
X91700000Y-44800000D01*
X91400000Y-53500000D02*
X91400000Y-51400000D01*
X94724989Y-57775011D02*
X96366003Y-56133997D01*
X96366003Y-56133997D02*
X96366003Y-55664000D01*
X80938600Y-57775010D02*
X94724989Y-57775011D01*
X96366003Y-55664000D02*
X96366003Y-55788999D01*
X75900000Y-47400000D02*
X75900000Y-47525002D01*
X75900000Y-47525002D02*
X78100000Y-49725002D01*
X78100000Y-49725002D02*
X78125002Y-49725002D01*
X78125002Y-49725002D02*
X79149990Y-50749990D01*
X79149990Y-50749990D02*
X79149990Y-55986400D01*
X79149990Y-55986400D02*
X80938600Y-57775010D01*
X86100000Y-56500000D02*
X91600000Y-56500000D01*
X101580000Y-53220000D02*
X100100019Y-54699981D01*
X100100019Y-54699981D02*
X100100019Y-55117803D01*
X86270000Y-65130000D02*
X86270000Y-66630000D01*
X86270000Y-66630000D02*
X87040000Y-67400000D01*
X86270000Y-61786412D02*
X86270000Y-65130000D01*
X92746439Y-60775011D02*
X87281401Y-60775011D01*
X87281401Y-60775011D02*
X86270000Y-61786412D01*
X94800000Y-59575050D02*
X93946400Y-59575050D01*
X93946400Y-59575050D02*
X92746439Y-60775011D01*
X95470588Y-59575050D02*
X94800000Y-59575050D01*
X100100019Y-55117803D02*
X95642772Y-59575050D01*
X95642772Y-59575050D02*
X95470588Y-59575050D01*
X101130000Y-52350000D02*
X100830001Y-52649999D01*
X100830001Y-52649999D02*
X100830001Y-53333589D01*
X100830001Y-53333589D02*
X99650010Y-54513580D01*
X99650010Y-54513580D02*
X99650010Y-54931402D01*
X85640000Y-64770000D02*
X85640000Y-65035002D01*
X85640000Y-65035002D02*
X84495002Y-66180000D01*
X84495002Y-66180000D02*
X83990000Y-66180000D01*
X85640000Y-61780002D02*
X85640000Y-64770000D01*
X87095001Y-60325001D02*
X85640000Y-61780002D01*
X95284188Y-59125040D02*
X93760000Y-59125040D01*
X93760000Y-59125040D02*
X92560039Y-60325001D01*
X92560039Y-60325001D02*
X87095001Y-60325001D01*
X99650010Y-54931402D02*
X95456372Y-59125040D01*
X95456372Y-59125040D02*
X95284188Y-59125040D01*
X100360000Y-51710000D02*
X100060001Y-52009999D01*
X100060001Y-52009999D02*
X100060001Y-53467179D01*
X100060001Y-53467179D02*
X99200001Y-54327179D01*
X99200001Y-54327179D02*
X99200001Y-54745001D01*
X85005001Y-64804999D02*
X84945001Y-64804999D01*
X84945001Y-64804999D02*
X84680000Y-65070000D01*
X85340000Y-59890000D02*
X85005001Y-60224999D01*
X85005001Y-60224999D02*
X85005001Y-64804999D01*
X86554970Y-58675030D02*
X85340000Y-59890000D01*
X87365030Y-58675030D02*
X86554970Y-58675030D01*
X91484998Y-58690000D02*
X87380000Y-58690000D01*
X87380000Y-58690000D02*
X87365030Y-58675030D01*
X92994970Y-58675030D02*
X91499968Y-58675030D01*
X91499968Y-58675030D02*
X91484998Y-58690000D01*
X95097788Y-58675030D02*
X92994970Y-58675030D01*
X95269972Y-58675030D02*
X95097788Y-58675030D01*
X99200001Y-54745001D02*
X95269972Y-58675030D01*
X77400000Y-43100000D02*
X77400000Y-43524264D01*
X80022299Y-44637942D02*
X79980414Y-44690465D01*
X77400000Y-43524264D02*
X77912601Y-44036865D01*
X82500000Y-48200000D02*
X83000000Y-48200000D01*
X78049871Y-44036865D02*
X78077160Y-44030636D01*
X78552241Y-44531538D02*
X78566203Y-44549046D01*
X81748499Y-46274469D02*
X81719351Y-46334994D01*
X79386068Y-45315664D02*
X79386068Y-45338057D01*
X78566203Y-44407624D02*
X78552241Y-44425132D01*
X77912601Y-44036865D02*
X78049871Y-44036865D01*
X81305725Y-45921368D02*
X81366251Y-45892220D01*
X79400767Y-45380064D02*
X79414729Y-45397572D01*
X80066396Y-44444744D02*
X80066395Y-44511922D01*
X78552241Y-44425132D02*
X78542525Y-44445307D01*
X80583780Y-46552618D02*
X80605611Y-46557601D01*
X79391051Y-45359889D02*
X79400767Y-45380064D01*
X78953346Y-43331693D02*
X79018841Y-43346643D01*
X78760147Y-43375790D02*
X78820673Y-43346642D01*
X78077160Y-44030636D02*
X78102379Y-44018491D01*
X78537542Y-44467138D02*
X78537542Y-44489531D01*
X78102379Y-44018491D02*
X78124264Y-44001039D01*
X80234594Y-46164190D02*
X80234594Y-46186583D01*
X78124264Y-44001039D02*
X78212651Y-43912651D01*
X78707626Y-43417677D02*
X78760147Y-43375790D01*
X81323590Y-46981575D02*
X81352738Y-47042101D01*
X79131888Y-43417675D02*
X79173774Y-43470198D01*
X79061177Y-44761177D02*
X79556152Y-44266203D01*
X78930952Y-44860549D02*
X78952784Y-44855566D01*
X78212651Y-43912651D02*
X78707626Y-43417677D01*
X80870825Y-45486468D02*
X80828940Y-45538991D01*
X78820673Y-43346642D02*
X78886168Y-43331694D01*
X79400767Y-45273658D02*
X79391051Y-45293833D01*
X79909703Y-45609703D02*
X80404678Y-45114729D01*
X80649836Y-46552618D02*
X80670011Y-46542902D01*
X78886168Y-43331694D02*
X78953346Y-43331693D01*
X80650398Y-45028745D02*
X80715893Y-45043695D01*
X80066395Y-44511922D02*
X80051447Y-44577417D01*
X79018841Y-43346643D02*
X79079367Y-43375791D01*
X80404678Y-45114729D02*
X80457199Y-45072842D01*
X79079367Y-43375791D02*
X79131888Y-43417675D01*
X78566203Y-44549046D02*
X78849045Y-44831888D01*
X79173774Y-43470198D02*
X79202920Y-43530723D01*
X79202920Y-43530723D02*
X79217870Y-43596218D01*
X78990467Y-44831888D02*
X79061177Y-44761177D01*
X79217870Y-43596218D02*
X79217869Y-43663396D01*
X80517725Y-45043694D02*
X80583220Y-45028746D01*
X79217869Y-43663396D02*
X79202921Y-43728891D01*
X79173773Y-43789416D02*
X79131888Y-43841939D01*
X79391051Y-45293833D02*
X79386068Y-45315664D01*
X79801310Y-45704092D02*
X79821485Y-45694376D01*
X81394624Y-46670360D02*
X81352739Y-46722883D01*
X79202921Y-43728891D02*
X79173773Y-43789416D01*
X78537542Y-44489531D02*
X78542525Y-44511363D01*
X78542525Y-44511363D02*
X78552241Y-44531538D01*
X79131888Y-43841939D02*
X78566203Y-44407624D01*
X81763448Y-46141796D02*
X81763447Y-46208974D01*
X78542525Y-44445307D02*
X78537542Y-44467138D01*
X80234594Y-46186583D02*
X80239577Y-46208415D01*
X81308642Y-46916082D02*
X81323590Y-46981575D01*
X78849045Y-44831888D02*
X78866553Y-44845850D01*
X80899972Y-45227775D02*
X80914922Y-45293270D01*
X81624945Y-45921369D02*
X81677466Y-45963253D01*
X79980414Y-44690465D02*
X79414729Y-45256150D01*
X79735254Y-45704092D02*
X79757085Y-45709075D01*
X81677466Y-46387517D02*
X81394624Y-46670360D01*
X78866553Y-44845850D02*
X78886728Y-44855566D01*
X78886728Y-44855566D02*
X78908559Y-44860549D01*
X78908559Y-44860549D02*
X78930952Y-44860549D01*
X79608673Y-44224316D02*
X79669199Y-44195168D01*
X79556152Y-44266203D02*
X79608673Y-44224316D01*
X79386068Y-45338057D02*
X79391051Y-45359889D01*
X78952784Y-44855566D02*
X78972959Y-44845850D01*
X80583220Y-45028746D02*
X80650398Y-45028745D01*
X78972959Y-44845850D02*
X78990467Y-44831888D01*
X79414729Y-45397572D02*
X79697571Y-45680414D01*
X80914921Y-45360448D02*
X80899973Y-45425943D01*
X79414729Y-45256150D02*
X79400767Y-45273658D01*
X79669199Y-44195168D02*
X79734694Y-44180220D01*
X81352738Y-47042101D02*
X81394624Y-47094624D01*
X79734694Y-44180220D02*
X79801872Y-44180219D01*
X80051447Y-44577417D02*
X80022299Y-44637942D01*
X79801872Y-44180219D02*
X79867367Y-44195169D01*
X79715079Y-45694376D02*
X79735254Y-45704092D01*
X79867367Y-44195169D02*
X79927893Y-44224317D01*
X79927893Y-44224317D02*
X79980414Y-44266201D01*
X79980414Y-44266201D02*
X80022300Y-44318724D01*
X80022300Y-44318724D02*
X80051446Y-44379249D01*
X80051446Y-44379249D02*
X80066396Y-44444744D01*
X79697571Y-45680414D02*
X79715079Y-45694376D01*
X79757085Y-45709075D02*
X79779478Y-45709075D01*
X79779478Y-45709075D02*
X79801310Y-45704092D01*
X81748498Y-46076301D02*
X81763448Y-46141796D01*
X79821485Y-45694376D02*
X79838993Y-45680414D01*
X79838993Y-45680414D02*
X79909703Y-45609703D01*
X80457199Y-45072842D02*
X80517725Y-45043694D01*
X80758229Y-46458229D02*
X81253204Y-45963255D01*
X80715893Y-45043695D02*
X80776419Y-45072843D01*
X80776419Y-45072843D02*
X80828940Y-45114727D01*
X80828940Y-45114727D02*
X80870826Y-45167250D01*
X81564419Y-45892221D02*
X81624945Y-45921369D01*
X80870826Y-45167250D02*
X80899972Y-45227775D01*
X80914922Y-45293270D02*
X80914921Y-45360448D01*
X80628004Y-46557601D02*
X80649836Y-46552618D01*
X80899973Y-45425943D02*
X80870825Y-45486468D01*
X80828940Y-45538991D02*
X80263255Y-46104676D01*
X80263255Y-46104676D02*
X80249293Y-46122184D01*
X80249293Y-46122184D02*
X80239577Y-46142359D01*
X80239577Y-46208415D02*
X80249293Y-46228590D01*
X80239577Y-46142359D02*
X80234594Y-46164190D01*
X80249293Y-46228590D02*
X80263255Y-46246098D01*
X80263255Y-46246098D02*
X80546097Y-46528940D01*
X80546097Y-46528940D02*
X80563605Y-46542902D01*
X80563605Y-46542902D02*
X80583780Y-46552618D01*
X80605611Y-46557601D02*
X80628004Y-46557601D01*
X81308641Y-46848902D02*
X81308642Y-46916082D01*
X80670011Y-46542902D02*
X80687519Y-46528940D01*
X81719352Y-46015776D02*
X81748498Y-46076301D01*
X80687519Y-46528940D02*
X80758229Y-46458229D01*
X81253204Y-45963255D02*
X81305725Y-45921368D01*
X81366251Y-45892220D02*
X81431746Y-45877272D01*
X81431746Y-45877272D02*
X81498924Y-45877271D01*
X81498924Y-45877271D02*
X81564419Y-45892221D01*
X81677466Y-45963253D02*
X81719352Y-46015776D01*
X81352739Y-46722883D02*
X81323591Y-46783409D01*
X81763447Y-46208974D02*
X81748499Y-46274469D01*
X81719351Y-46334994D02*
X81677466Y-46387517D01*
X81323591Y-46783409D02*
X81308641Y-46848902D01*
X81394624Y-47094624D02*
X82500000Y-48200000D01*
X72900000Y-43400000D02*
X74000000Y-44500000D01*
X74000000Y-44500000D02*
X77875736Y-44500000D01*
X77875736Y-44500000D02*
X82575736Y-49200000D01*
X82575736Y-49200000D02*
X83000000Y-49200000D01*
X86144980Y-58225020D02*
X84380000Y-59990000D01*
X84380000Y-59990000D02*
X84380000Y-64090000D01*
X94911388Y-58225020D02*
X89070000Y-58225020D01*
X89070000Y-58225020D02*
X86144980Y-58225020D01*
X97330000Y-55690000D02*
X97030001Y-55989999D01*
X97030001Y-55989999D02*
X97030001Y-56106409D01*
X97030001Y-56106409D02*
X94911388Y-58225020D01*
D24*
G36*
X109356609Y-39620877D02*
X110399536Y-39828328D01*
X111162126Y-40337874D01*
X111671857Y-41100740D01*
X111879243Y-42138609D01*
X111890000Y-42164515D01*
X111890000Y-69517291D01*
X111873712Y-69556614D01*
X111666261Y-70599541D01*
X111156715Y-71362131D01*
X110393849Y-71871862D01*
X109355980Y-72079248D01*
X109330086Y-72090000D01*
X66082709Y-72090000D01*
X66043386Y-72073712D01*
X65000459Y-71866261D01*
X64237869Y-71356715D01*
X63728138Y-70593849D01*
X63520752Y-69555980D01*
X63510000Y-69530086D01*
X63510000Y-68585167D01*
X74864838Y-68585167D01*
X75006883Y-68928943D01*
X75269673Y-69192192D01*
X75390986Y-69242566D01*
X77074208Y-70925787D01*
X77074210Y-70925790D01*
X77361325Y-71117633D01*
X77417516Y-71128810D01*
X77700000Y-71185001D01*
X77700005Y-71185000D01*
X104693178Y-71185000D01*
X104813201Y-71234838D01*
X105185167Y-71235162D01*
X105528943Y-71093117D01*
X105792192Y-70830327D01*
X105934838Y-70486799D01*
X105935162Y-70114833D01*
X105793117Y-69771057D01*
X105530327Y-69507808D01*
X105186799Y-69365162D01*
X104814833Y-69364838D01*
X104693431Y-69415000D01*
X78066579Y-69415000D01*
X77015470Y-68363890D01*
X102715592Y-68363890D01*
X102880362Y-68762663D01*
X103185193Y-69068026D01*
X103583677Y-69233491D01*
X104015150Y-69233868D01*
X104413923Y-69069098D01*
X104719286Y-68764267D01*
X104884751Y-68365783D01*
X104884752Y-68363890D01*
X107114872Y-68363890D01*
X107279642Y-68762663D01*
X107584473Y-69068026D01*
X107982957Y-69233491D01*
X108414430Y-69233868D01*
X108813203Y-69069098D01*
X109118566Y-68764267D01*
X109284031Y-68365783D01*
X109284408Y-67934310D01*
X109119638Y-67535537D01*
X108814807Y-67230174D01*
X108416323Y-67064709D01*
X107984850Y-67064332D01*
X107586077Y-67229102D01*
X107280714Y-67533933D01*
X107115249Y-67932417D01*
X107114872Y-68363890D01*
X104884752Y-68363890D01*
X104885128Y-67934310D01*
X104720358Y-67535537D01*
X104415527Y-67230174D01*
X104017043Y-67064709D01*
X103585570Y-67064332D01*
X103186797Y-67229102D01*
X102881434Y-67533933D01*
X102715969Y-67932417D01*
X102715592Y-68363890D01*
X77015470Y-68363890D01*
X76642744Y-67991164D01*
X76593117Y-67871057D01*
X76330327Y-67607808D01*
X75986799Y-67465162D01*
X75614833Y-67464838D01*
X75271057Y-67606883D01*
X75007808Y-67869673D01*
X74865162Y-68213201D01*
X74864838Y-68585167D01*
X63510000Y-68585167D01*
X63510000Y-65884000D01*
X64236560Y-65884000D01*
X64236560Y-67916000D01*
X64280838Y-68151317D01*
X64419910Y-68367441D01*
X64632110Y-68512431D01*
X64884000Y-68563440D01*
X66916000Y-68563440D01*
X67151317Y-68519162D01*
X67367441Y-68380090D01*
X67512431Y-68167890D01*
X67563440Y-67916000D01*
X67563440Y-65884000D01*
X67519162Y-65648683D01*
X67380090Y-65432559D01*
X67167890Y-65287569D01*
X66916000Y-65236560D01*
X64884000Y-65236560D01*
X64648683Y-65280838D01*
X64432559Y-65419910D01*
X64287569Y-65632110D01*
X64236560Y-65884000D01*
X63510000Y-65884000D01*
X63510000Y-62885167D01*
X79689838Y-62885167D01*
X79831883Y-63228943D01*
X80094673Y-63492192D01*
X80438201Y-63634838D01*
X80526713Y-63634915D01*
X80606883Y-63828943D01*
X80869673Y-64092192D01*
X81213201Y-64234838D01*
X81585167Y-64235162D01*
X81928943Y-64093117D01*
X82192192Y-63830327D01*
X82334838Y-63486799D01*
X82334962Y-63343927D01*
X82578943Y-63243117D01*
X82842192Y-62980327D01*
X82984838Y-62636799D01*
X82985162Y-62264833D01*
X82843117Y-61921057D01*
X82580327Y-61657808D01*
X82236799Y-61515162D01*
X81864833Y-61514838D01*
X81521057Y-61656883D01*
X81257808Y-61919673D01*
X81231182Y-61983795D01*
X81155327Y-61907808D01*
X80811799Y-61765162D01*
X80439833Y-61764838D01*
X80096057Y-61906883D01*
X79832808Y-62169673D01*
X79690162Y-62513201D01*
X79689838Y-62885167D01*
X63510000Y-62885167D01*
X63510000Y-59385167D01*
X70364838Y-59385167D01*
X70506883Y-59728943D01*
X70769673Y-59992192D01*
X71113201Y-60134838D01*
X71485167Y-60135162D01*
X71828943Y-59993117D01*
X72092192Y-59730327D01*
X72234838Y-59386799D01*
X72235162Y-59014833D01*
X72093117Y-58671057D01*
X71830327Y-58407808D01*
X71486799Y-58265162D01*
X71114833Y-58264838D01*
X70771057Y-58406883D01*
X70507808Y-58669673D01*
X70365162Y-59013201D01*
X70364838Y-59385167D01*
X63510000Y-59385167D01*
X63510000Y-55785167D01*
X73264838Y-55785167D01*
X73406883Y-56128943D01*
X73669673Y-56392192D01*
X74013201Y-56534838D01*
X74385167Y-56535162D01*
X74728943Y-56393117D01*
X74992192Y-56130327D01*
X75134838Y-55786799D01*
X75135162Y-55414833D01*
X74993117Y-55071057D01*
X74730327Y-54807808D01*
X74386799Y-54665162D01*
X74014833Y-54664838D01*
X73671057Y-54806883D01*
X73407808Y-55069673D01*
X73265162Y-55413201D01*
X73264838Y-55785167D01*
X63510000Y-55785167D01*
X63510000Y-49885167D01*
X71864838Y-49885167D01*
X72006883Y-50228943D01*
X72269673Y-50492192D01*
X72613201Y-50634838D01*
X72985167Y-50635162D01*
X73328943Y-50493117D01*
X73592192Y-50230327D01*
X73734838Y-49886799D01*
X73735162Y-49514833D01*
X73593117Y-49171057D01*
X73330327Y-48907808D01*
X72986799Y-48765162D01*
X72614833Y-48764838D01*
X72271057Y-48906883D01*
X72007808Y-49169673D01*
X71865162Y-49513201D01*
X71864838Y-49885167D01*
X63510000Y-49885167D01*
X63510000Y-48385167D01*
X73264838Y-48385167D01*
X73406883Y-48728943D01*
X73669673Y-48992192D01*
X74013201Y-49134838D01*
X74385167Y-49135162D01*
X74728943Y-48993117D01*
X74992192Y-48730327D01*
X75134838Y-48386799D01*
X75135162Y-48014833D01*
X74993117Y-47671057D01*
X74907377Y-47585167D01*
X74964838Y-47585167D01*
X75106883Y-47928943D01*
X75369673Y-48192192D01*
X75579528Y-48279332D01*
X77562599Y-50262403D01*
X77637946Y-50312748D01*
X78389990Y-51064792D01*
X78389990Y-53449535D01*
X78186799Y-53365162D01*
X77814833Y-53364838D01*
X77471057Y-53506883D01*
X77207808Y-53769673D01*
X77065162Y-54113201D01*
X77064838Y-54485167D01*
X77206883Y-54828943D01*
X77469673Y-55092192D01*
X77813201Y-55234838D01*
X78185167Y-55235162D01*
X78389990Y-55150531D01*
X78389990Y-55986400D01*
X78447842Y-56277239D01*
X78612589Y-56523801D01*
X80401199Y-58312411D01*
X80559537Y-58418209D01*
X80407808Y-58569673D01*
X80265162Y-58913201D01*
X80264838Y-59285167D01*
X80406883Y-59628943D01*
X80669673Y-59892192D01*
X81013201Y-60034838D01*
X81385167Y-60035162D01*
X81728943Y-59893117D01*
X81992192Y-59630327D01*
X82134838Y-59286799D01*
X82135162Y-58914833D01*
X81993117Y-58571057D01*
X81957133Y-58535010D01*
X84760188Y-58535010D01*
X83842599Y-59452599D01*
X83677852Y-59699161D01*
X83620000Y-59990000D01*
X83620000Y-63527537D01*
X83587808Y-63559673D01*
X83445162Y-63903201D01*
X83444838Y-64275167D01*
X83586883Y-64618943D01*
X83776160Y-64808550D01*
X83745162Y-64883201D01*
X83744838Y-65255167D01*
X83749942Y-65267519D01*
X83461057Y-65386883D01*
X83197808Y-65649673D01*
X83055162Y-65993201D01*
X83054838Y-66365167D01*
X83196883Y-66708943D01*
X83459673Y-66972192D01*
X83460878Y-66972692D01*
X83365162Y-67203201D01*
X83364838Y-67575167D01*
X83506883Y-67918943D01*
X83769673Y-68182192D01*
X84113201Y-68324838D01*
X84485167Y-68325162D01*
X84828943Y-68183117D01*
X85092192Y-67920327D01*
X85234838Y-67576799D01*
X85235162Y-67204833D01*
X85093117Y-66861057D01*
X84982798Y-66750546D01*
X85032403Y-66717401D01*
X85510000Y-66239804D01*
X85510000Y-66630000D01*
X85567852Y-66920839D01*
X85732599Y-67167401D01*
X86104878Y-67539680D01*
X86104838Y-67585167D01*
X86246883Y-67928943D01*
X86509673Y-68192192D01*
X86853201Y-68334838D01*
X87225167Y-68335162D01*
X87568943Y-68193117D01*
X87832192Y-67930327D01*
X87974838Y-67586799D01*
X87975162Y-67214833D01*
X87833117Y-66871057D01*
X87570327Y-66607808D01*
X87226799Y-66465162D01*
X87179923Y-66465121D01*
X87030000Y-66315198D01*
X87030000Y-64995167D01*
X87104838Y-64995167D01*
X87246883Y-65338943D01*
X87509673Y-65602192D01*
X87853201Y-65744838D01*
X88225167Y-65745162D01*
X88568943Y-65603117D01*
X88832192Y-65340327D01*
X88974838Y-64996799D01*
X88975162Y-64624833D01*
X88833117Y-64281057D01*
X88570327Y-64017808D01*
X88226799Y-63875162D01*
X87854833Y-63874838D01*
X87511057Y-64016883D01*
X87247808Y-64279673D01*
X87105162Y-64623201D01*
X87104838Y-64995167D01*
X87030000Y-64995167D01*
X87030000Y-62101214D01*
X87596203Y-61535011D01*
X92746439Y-61535011D01*
X93037278Y-61477159D01*
X93283840Y-61312412D01*
X94261202Y-60335050D01*
X95642772Y-60335050D01*
X95933611Y-60277198D01*
X96180173Y-60112451D01*
X97407457Y-58885167D01*
X100564838Y-58885167D01*
X100706883Y-59228943D01*
X100969673Y-59492192D01*
X101313201Y-59634838D01*
X101685167Y-59635162D01*
X102028943Y-59493117D01*
X102292192Y-59230327D01*
X102434838Y-58886799D01*
X102435162Y-58514833D01*
X102298948Y-58185167D01*
X103464838Y-58185167D01*
X103606883Y-58528943D01*
X103869673Y-58792192D01*
X104213201Y-58934838D01*
X104585167Y-58935162D01*
X104928943Y-58793117D01*
X104962118Y-58760000D01*
X105127077Y-58760000D01*
X105196883Y-58928943D01*
X105459673Y-59192192D01*
X105803201Y-59334838D01*
X106175167Y-59335162D01*
X106518943Y-59193117D01*
X106782192Y-58930327D01*
X106924838Y-58586799D01*
X106925162Y-58214833D01*
X106783117Y-57871057D01*
X106520327Y-57607808D01*
X106176799Y-57465162D01*
X106129923Y-57465121D01*
X106127401Y-57462599D01*
X105880839Y-57297852D01*
X105590000Y-57240000D01*
X104962463Y-57240000D01*
X104930327Y-57207808D01*
X104586799Y-57065162D01*
X104214833Y-57064838D01*
X103871057Y-57206883D01*
X103607808Y-57469673D01*
X103465162Y-57813201D01*
X103464838Y-58185167D01*
X102298948Y-58185167D01*
X102293117Y-58171057D01*
X102030327Y-57907808D01*
X101686799Y-57765162D01*
X101314833Y-57764838D01*
X100971057Y-57906883D01*
X100707808Y-58169673D01*
X100565162Y-58513201D01*
X100564838Y-58885167D01*
X97407457Y-58885167D01*
X100511451Y-55781173D01*
X100646883Y-56108943D01*
X100909673Y-56372192D01*
X101253201Y-56514838D01*
X101625167Y-56515162D01*
X101968943Y-56373117D01*
X102002118Y-56340000D01*
X105399454Y-56340000D01*
X105500000Y-56360000D01*
X105700000Y-56360000D01*
X105990839Y-56302148D01*
X106237401Y-56137401D01*
X108139680Y-54235122D01*
X108185167Y-54235162D01*
X108528943Y-54093117D01*
X108792192Y-53830327D01*
X108934838Y-53486799D01*
X108935162Y-53114833D01*
X108793117Y-52771057D01*
X108530327Y-52507808D01*
X108186799Y-52365162D01*
X107814833Y-52364838D01*
X107471057Y-52506883D01*
X107207808Y-52769673D01*
X107065162Y-53113201D01*
X107065121Y-53160077D01*
X105405198Y-54820000D01*
X103502362Y-54820000D01*
X103592192Y-54730327D01*
X103734838Y-54386799D01*
X103735162Y-54014833D01*
X103685000Y-53893431D01*
X103685000Y-53735938D01*
X103701431Y-53711890D01*
X103752440Y-53460000D01*
X103752440Y-52260000D01*
X103708162Y-52024683D01*
X103569090Y-51808559D01*
X103356890Y-51663569D01*
X103105000Y-51612560D01*
X102355000Y-51612560D01*
X102119683Y-51656838D01*
X101903559Y-51795910D01*
X101901306Y-51799208D01*
X101660327Y-51557808D01*
X101316799Y-51415162D01*
X101249823Y-51415104D01*
X101153117Y-51181057D01*
X100890327Y-50917808D01*
X100546799Y-50775162D01*
X100174833Y-50774838D01*
X99831057Y-50916883D01*
X99567808Y-51179673D01*
X99425162Y-51523201D01*
X99425079Y-51618549D01*
X99357853Y-51719160D01*
X99300001Y-52009999D01*
X99300001Y-53152377D01*
X98662600Y-53789778D01*
X98497853Y-54036340D01*
X98440001Y-54327179D01*
X98440001Y-54430199D01*
X97916311Y-54953889D01*
X97860327Y-54897808D01*
X97516799Y-54755162D01*
X97144833Y-54754838D01*
X96879079Y-54864645D01*
X96552802Y-54729162D01*
X96180836Y-54728838D01*
X95965897Y-54817649D01*
X95922440Y-54799603D01*
X95922440Y-53900000D01*
X95878162Y-53664683D01*
X95739090Y-53448559D01*
X95526890Y-53303569D01*
X95275000Y-53252560D01*
X94525000Y-53252560D01*
X94289683Y-53296838D01*
X94073559Y-53435910D01*
X93928569Y-53648110D01*
X93877560Y-53900000D01*
X93877560Y-54341634D01*
X93828230Y-54415462D01*
X93820532Y-54454162D01*
X93760862Y-54754137D01*
X93760863Y-54754142D01*
X93760863Y-55347315D01*
X93711025Y-55467338D01*
X93710701Y-55839304D01*
X93852746Y-56183080D01*
X93912380Y-56242818D01*
X93734896Y-56420302D01*
X93735162Y-56114833D01*
X93593117Y-55771057D01*
X93330327Y-55507808D01*
X92986799Y-55365162D01*
X92614833Y-55364838D01*
X92271057Y-55506883D01*
X92087567Y-55690053D01*
X91786799Y-55565162D01*
X91414833Y-55564838D01*
X91071057Y-55706883D01*
X91037882Y-55740000D01*
X86662463Y-55740000D01*
X86630327Y-55707808D01*
X86286799Y-55565162D01*
X85914833Y-55564838D01*
X85571057Y-55706883D01*
X85307808Y-55969673D01*
X85165162Y-56313201D01*
X85164943Y-56565001D01*
X82985118Y-56565001D01*
X82985162Y-56514833D01*
X82843117Y-56171057D01*
X82612022Y-55939558D01*
X83466580Y-55084999D01*
X88793178Y-55084999D01*
X88913201Y-55134837D01*
X89285167Y-55135161D01*
X89628943Y-54993116D01*
X89892192Y-54730326D01*
X90034838Y-54386798D01*
X90035162Y-54014832D01*
X89893117Y-53671056D01*
X89630327Y-53407807D01*
X89286799Y-53265161D01*
X88914833Y-53264837D01*
X88817217Y-53305171D01*
X88892192Y-53230327D01*
X89034838Y-52886799D01*
X89035162Y-52514833D01*
X88893117Y-52171057D01*
X88630327Y-51907808D01*
X88286799Y-51765162D01*
X87914833Y-51764838D01*
X87571057Y-51906883D01*
X87307808Y-52169673D01*
X87165162Y-52513201D01*
X87164838Y-52885167D01*
X87306883Y-53228943D01*
X87392789Y-53314999D01*
X86581604Y-53314999D01*
X86634838Y-53186799D01*
X86635162Y-52814833D01*
X86493117Y-52471057D01*
X86230327Y-52207808D01*
X85886799Y-52065162D01*
X85514833Y-52064838D01*
X85171057Y-52206883D01*
X85055559Y-52322179D01*
X84993117Y-52171057D01*
X84730327Y-51907808D01*
X84386799Y-51765162D01*
X84014833Y-51764838D01*
X83671057Y-51906883D01*
X83650194Y-51927710D01*
X83630327Y-51907808D01*
X83286799Y-51765162D01*
X82914833Y-51764838D01*
X82571057Y-51906883D01*
X82307808Y-52169673D01*
X82165162Y-52513201D01*
X82164838Y-52885167D01*
X82306883Y-53228943D01*
X82569673Y-53492192D01*
X82586501Y-53499180D01*
X82474211Y-53574209D01*
X82474209Y-53574212D01*
X80874209Y-55174211D01*
X80874207Y-55174214D01*
X80791165Y-55257255D01*
X80671057Y-55306883D01*
X80426157Y-55551355D01*
X80360000Y-55485198D01*
X80360000Y-50300000D01*
X80302148Y-50009161D01*
X80302148Y-50009160D01*
X80137401Y-49762599D01*
X77666643Y-47291841D01*
X77796431Y-47101890D01*
X77847440Y-46850000D01*
X77847440Y-45950000D01*
X77803162Y-45714683D01*
X77664090Y-45498559D01*
X77451890Y-45353569D01*
X77200000Y-45302560D01*
X76000000Y-45302560D01*
X75764683Y-45346838D01*
X75548559Y-45485910D01*
X75403569Y-45698110D01*
X75352560Y-45950000D01*
X75352560Y-46625348D01*
X75107808Y-46869673D01*
X74965162Y-47213201D01*
X74964838Y-47585167D01*
X74907377Y-47585167D01*
X74730327Y-47407808D01*
X74386799Y-47265162D01*
X74014833Y-47264838D01*
X73671057Y-47406883D01*
X73407808Y-47669673D01*
X73265162Y-48013201D01*
X73264838Y-48385167D01*
X63510000Y-48385167D01*
X63510000Y-43585167D01*
X71964838Y-43585167D01*
X72106883Y-43928943D01*
X72369673Y-44192192D01*
X72713201Y-44334838D01*
X72760077Y-44334879D01*
X73462599Y-45037401D01*
X73709161Y-45202148D01*
X74000000Y-45260000D01*
X77560934Y-45260000D01*
X79439409Y-47138475D01*
X79207808Y-47369673D01*
X79065162Y-47713201D01*
X79064838Y-48085167D01*
X79206883Y-48428943D01*
X79469673Y-48692192D01*
X79813201Y-48834838D01*
X80185167Y-48835162D01*
X80528943Y-48693117D01*
X80761700Y-48460766D01*
X82038335Y-49737401D01*
X82284897Y-49902148D01*
X82403296Y-49925699D01*
X82469673Y-49992192D01*
X82813201Y-50134838D01*
X83185167Y-50135162D01*
X83528943Y-49993117D01*
X83792192Y-49730327D01*
X83934838Y-49386799D01*
X83935162Y-49014833D01*
X83824205Y-48746295D01*
X84069673Y-48992192D01*
X84413201Y-49134838D01*
X84785167Y-49135162D01*
X85128943Y-48993117D01*
X85249981Y-48872290D01*
X85369673Y-48992192D01*
X85713201Y-49134838D01*
X86085167Y-49135162D01*
X86428943Y-48993117D01*
X86692192Y-48730327D01*
X86834838Y-48386799D01*
X86835162Y-48014833D01*
X86693117Y-47671057D01*
X86430327Y-47407808D01*
X86086799Y-47265162D01*
X85714833Y-47264838D01*
X85371057Y-47406883D01*
X85250019Y-47527710D01*
X85130327Y-47407808D01*
X84786799Y-47265162D01*
X84414833Y-47264838D01*
X84071057Y-47406883D01*
X83807808Y-47669673D01*
X83800158Y-47688097D01*
X83793117Y-47671057D01*
X83530327Y-47407808D01*
X83186799Y-47265162D01*
X82814833Y-47264838D01*
X82690863Y-47316061D01*
X82252417Y-46877615D01*
X82271662Y-46861364D01*
X82313547Y-46808841D01*
X82352738Y-46732977D01*
X82363135Y-46719163D01*
X82368330Y-46714251D01*
X82370528Y-46709340D01*
X82404084Y-46664752D01*
X82433232Y-46604227D01*
X82447177Y-46550168D01*
X82449649Y-46545383D01*
X82450250Y-46538255D01*
X82454564Y-46521531D01*
X82461616Y-46505772D01*
X82465591Y-46499823D01*
X82466642Y-46494539D01*
X82489446Y-46443576D01*
X82504394Y-46378081D01*
X82505958Y-46322299D01*
X82507302Y-46317090D01*
X82506303Y-46310013D01*
X82506788Y-46292730D01*
X82510162Y-46275770D01*
X82512712Y-46269088D01*
X82512561Y-46263708D01*
X82517384Y-46239462D01*
X82769673Y-46492192D01*
X83113201Y-46634838D01*
X83485167Y-46635162D01*
X83606569Y-46585000D01*
X86649995Y-46585000D01*
X86650000Y-46585001D01*
X86932484Y-46528810D01*
X86988675Y-46517633D01*
X87275790Y-46325790D01*
X87704140Y-45897440D01*
X88150000Y-45897440D01*
X88385317Y-45853162D01*
X88601441Y-45714090D01*
X88746431Y-45501890D01*
X88797440Y-45250000D01*
X88797440Y-44350000D01*
X90452560Y-44350000D01*
X90452560Y-45250000D01*
X90496838Y-45485317D01*
X90635910Y-45701441D01*
X90848110Y-45846431D01*
X90940000Y-45865039D01*
X90940000Y-50785198D01*
X90862599Y-50862599D01*
X90697852Y-51109161D01*
X90640000Y-51400000D01*
X90640000Y-52937537D01*
X90607808Y-52969673D01*
X90465162Y-53313201D01*
X90464838Y-53685167D01*
X90606883Y-54028943D01*
X90869673Y-54292192D01*
X91213201Y-54434838D01*
X91585167Y-54435162D01*
X91928943Y-54293117D01*
X92192192Y-54030327D01*
X92334838Y-53686799D01*
X92335162Y-53314833D01*
X92193117Y-52971057D01*
X92160000Y-52937882D01*
X92160000Y-51714802D01*
X92237401Y-51637401D01*
X92402148Y-51390839D01*
X92460000Y-51100000D01*
X92460000Y-48000000D01*
X93677560Y-48000000D01*
X93677560Y-49200000D01*
X93721838Y-49435317D01*
X93860910Y-49651441D01*
X94073110Y-49796431D01*
X94325000Y-49847440D01*
X95075000Y-49847440D01*
X95310317Y-49803162D01*
X95450727Y-49712810D01*
X95573110Y-49796431D01*
X95825000Y-49847440D01*
X96575000Y-49847440D01*
X96810317Y-49803162D01*
X97026441Y-49664090D01*
X97171431Y-49451890D01*
X97222440Y-49200000D01*
X97222440Y-48000000D01*
X97189512Y-47825000D01*
X99652560Y-47825000D01*
X99652560Y-48575000D01*
X99696838Y-48810317D01*
X99835910Y-49026441D01*
X100048110Y-49171431D01*
X100300000Y-49222440D01*
X101500000Y-49222440D01*
X101735317Y-49178162D01*
X101880095Y-49085000D01*
X101893178Y-49085000D01*
X102013201Y-49134838D01*
X102385167Y-49135162D01*
X102728943Y-48993117D01*
X102992192Y-48730327D01*
X103134838Y-48386799D01*
X103135162Y-48014833D01*
X102998885Y-47685017D01*
X103035317Y-47678162D01*
X103146006Y-47606936D01*
X103213201Y-47634838D01*
X103585167Y-47635162D01*
X103928943Y-47493117D01*
X104192192Y-47230327D01*
X104334838Y-46886799D01*
X104335162Y-46514833D01*
X104193117Y-46171057D01*
X103930327Y-45907808D01*
X103586799Y-45765162D01*
X103214833Y-45764838D01*
X103146372Y-45793126D01*
X103051890Y-45728569D01*
X102800000Y-45677560D01*
X101600000Y-45677560D01*
X101364683Y-45721838D01*
X101148559Y-45860910D01*
X101003569Y-46073110D01*
X100952560Y-46325000D01*
X100952560Y-47075000D01*
X100971858Y-47177560D01*
X100300000Y-47177560D01*
X100064683Y-47221838D01*
X99848559Y-47360910D01*
X99703569Y-47573110D01*
X99652560Y-47825000D01*
X97189512Y-47825000D01*
X97178162Y-47764683D01*
X97039090Y-47548559D01*
X96826890Y-47403569D01*
X96736931Y-47385352D01*
X96342744Y-46991165D01*
X96293117Y-46871057D01*
X96030327Y-46607808D01*
X95686799Y-46465162D01*
X95314833Y-46464838D01*
X95254969Y-46489573D01*
X95176190Y-46410657D01*
X94832662Y-46268011D01*
X94460696Y-46267687D01*
X94116920Y-46409732D01*
X93853671Y-46672522D01*
X93711025Y-47016050D01*
X93710701Y-47388016D01*
X93760863Y-47509418D01*
X93760863Y-47700846D01*
X93728569Y-47748110D01*
X93677560Y-48000000D01*
X92460000Y-48000000D01*
X92460000Y-45867334D01*
X92535317Y-45853162D01*
X92751441Y-45714090D01*
X92799134Y-45644289D01*
X92835910Y-45701441D01*
X93048110Y-45846431D01*
X93300000Y-45897440D01*
X94500000Y-45897440D01*
X94735317Y-45853162D01*
X94951441Y-45714090D01*
X95056726Y-45560000D01*
X106550829Y-45560000D01*
X106710971Y-45799670D01*
X107197152Y-46124526D01*
X107770641Y-46238600D01*
X107829359Y-46238600D01*
X108402848Y-46124526D01*
X108889029Y-45799670D01*
X109070000Y-45528828D01*
X109250971Y-45799670D01*
X109737152Y-46124526D01*
X110310641Y-46238600D01*
X110369359Y-46238600D01*
X110942848Y-46124526D01*
X111429029Y-45799670D01*
X111753885Y-45313489D01*
X111867959Y-44740000D01*
X111753885Y-44166511D01*
X111429029Y-43680330D01*
X111114248Y-43470000D01*
X111429029Y-43259670D01*
X111753885Y-42773489D01*
X111867959Y-42200000D01*
X111753885Y-41626511D01*
X111429029Y-41140330D01*
X110942848Y-40815474D01*
X110369359Y-40701400D01*
X110310641Y-40701400D01*
X109737152Y-40815474D01*
X109271558Y-41126574D01*
X109266762Y-41101083D01*
X109127690Y-40884959D01*
X108915490Y-40739969D01*
X108663600Y-40688960D01*
X106936400Y-40688960D01*
X106701083Y-40733238D01*
X106484959Y-40872310D01*
X106339969Y-41084510D01*
X106288960Y-41336400D01*
X106288960Y-43063600D01*
X106333238Y-43298917D01*
X106472310Y-43515041D01*
X106684510Y-43660031D01*
X106728131Y-43668864D01*
X106710971Y-43680330D01*
X106470647Y-44040000D01*
X95055105Y-44040000D01*
X94964090Y-43898559D01*
X94912692Y-43863440D01*
X96343600Y-43863440D01*
X96578917Y-43819162D01*
X96795041Y-43680090D01*
X96940031Y-43467890D01*
X96991040Y-43216000D01*
X96991040Y-42015255D01*
X97601400Y-42015255D01*
X97601400Y-42384745D01*
X97715474Y-42958234D01*
X98040330Y-43444415D01*
X98526511Y-43769271D01*
X99100000Y-43883345D01*
X99673489Y-43769271D01*
X100159670Y-43444415D01*
X100370000Y-43129634D01*
X100580330Y-43444415D01*
X101066511Y-43769271D01*
X101640000Y-43883345D01*
X102213489Y-43769271D01*
X102699670Y-43444415D01*
X103024526Y-42958234D01*
X103138600Y-42384745D01*
X103138600Y-42015255D01*
X103024526Y-41441766D01*
X102699670Y-40955585D01*
X102213489Y-40630729D01*
X101640000Y-40516655D01*
X101066511Y-40630729D01*
X100580330Y-40955585D01*
X100370000Y-41270366D01*
X100159670Y-40955585D01*
X99673489Y-40630729D01*
X99100000Y-40516655D01*
X98526511Y-40630729D01*
X98040330Y-40955585D01*
X97715474Y-41441766D01*
X97601400Y-42015255D01*
X96991040Y-42015255D01*
X96991040Y-41184000D01*
X96946762Y-40948683D01*
X96807690Y-40732559D01*
X96595490Y-40587569D01*
X96343600Y-40536560D01*
X94616400Y-40536560D01*
X94381083Y-40580838D01*
X94164959Y-40719910D01*
X94019969Y-40932110D01*
X94011600Y-40973439D01*
X93999670Y-40955585D01*
X93513489Y-40630729D01*
X92940000Y-40516655D01*
X92366511Y-40630729D01*
X91880330Y-40955585D01*
X91555474Y-41441766D01*
X91441400Y-42015255D01*
X91441400Y-42384745D01*
X91555474Y-42958234D01*
X91880330Y-43444415D01*
X92266671Y-43702560D01*
X91100000Y-43702560D01*
X90864683Y-43746838D01*
X90648559Y-43885910D01*
X90503569Y-44098110D01*
X90452560Y-44350000D01*
X88797440Y-44350000D01*
X88753162Y-44114683D01*
X88614090Y-43898559D01*
X88401890Y-43753569D01*
X88150000Y-43702560D01*
X86950000Y-43702560D01*
X86714683Y-43746838D01*
X86498559Y-43885910D01*
X86353569Y-44098110D01*
X86302560Y-44350000D01*
X86302560Y-44795860D01*
X86283420Y-44815000D01*
X83606822Y-44815000D01*
X83486799Y-44765162D01*
X83287059Y-44764988D01*
X83030327Y-44507808D01*
X82686799Y-44365162D01*
X82314833Y-44364838D01*
X81971057Y-44506883D01*
X81707808Y-44769673D01*
X81613423Y-44996977D01*
X81613103Y-44996498D01*
X81606039Y-44980712D01*
X81601723Y-44963980D01*
X81601122Y-44956853D01*
X81598652Y-44952071D01*
X81584714Y-44898035D01*
X81555568Y-44837510D01*
X81521990Y-44792891D01*
X81519790Y-44787975D01*
X81514593Y-44783061D01*
X81504213Y-44769269D01*
X81496281Y-44753915D01*
X81494109Y-44747100D01*
X81490635Y-44742986D01*
X81465016Y-44693396D01*
X81423130Y-44640873D01*
X81380495Y-44604871D01*
X81377259Y-44600571D01*
X81371100Y-44596938D01*
X81357887Y-44585780D01*
X81346742Y-44572582D01*
X81343108Y-44566422D01*
X81338806Y-44563185D01*
X81302792Y-44520535D01*
X81250271Y-44478651D01*
X81200681Y-44453032D01*
X81196564Y-44449556D01*
X81189745Y-44447383D01*
X81174403Y-44439457D01*
X81160609Y-44429075D01*
X81155694Y-44423877D01*
X81150778Y-44421677D01*
X81106173Y-44388108D01*
X81045647Y-44358960D01*
X80991597Y-44345017D01*
X80986813Y-44342546D01*
X80979685Y-44341945D01*
X80962963Y-44337631D01*
X80947170Y-44330564D01*
X80941227Y-44326593D01*
X80935952Y-44325544D01*
X80885022Y-44302753D01*
X80819527Y-44287803D01*
X80807671Y-44287470D01*
X80807338Y-44275616D01*
X80792388Y-44210120D01*
X80769597Y-44159191D01*
X80768548Y-44153915D01*
X80764577Y-44147972D01*
X80757513Y-44132186D01*
X80753197Y-44115454D01*
X80752596Y-44108327D01*
X80750126Y-44103545D01*
X80736188Y-44049509D01*
X80707042Y-43988984D01*
X80673464Y-43944365D01*
X80671264Y-43939449D01*
X80666067Y-43934535D01*
X80655687Y-43920743D01*
X80647755Y-43905389D01*
X80645583Y-43898574D01*
X80642109Y-43894460D01*
X80616490Y-43844870D01*
X80574604Y-43792347D01*
X80531969Y-43756345D01*
X80528733Y-43752045D01*
X80522574Y-43748412D01*
X80509361Y-43737254D01*
X80498216Y-43724056D01*
X80494582Y-43717896D01*
X80490280Y-43714659D01*
X80454266Y-43672009D01*
X80401745Y-43630125D01*
X80352155Y-43604506D01*
X80348038Y-43601030D01*
X80341219Y-43598857D01*
X80325877Y-43590931D01*
X80312083Y-43580549D01*
X80307168Y-43575351D01*
X80302252Y-43573151D01*
X80257647Y-43539582D01*
X80197121Y-43510434D01*
X80143071Y-43496491D01*
X80138287Y-43494020D01*
X80131159Y-43493419D01*
X80114437Y-43489105D01*
X80098644Y-43482038D01*
X80092701Y-43478067D01*
X80087426Y-43477018D01*
X80036496Y-43454227D01*
X79971001Y-43439277D01*
X79959145Y-43438944D01*
X79958812Y-43427090D01*
X79943862Y-43361594D01*
X79921071Y-43310665D01*
X79920022Y-43305389D01*
X79916051Y-43299446D01*
X79908987Y-43283660D01*
X79904671Y-43266928D01*
X79904070Y-43259801D01*
X79901600Y-43255019D01*
X79887662Y-43200983D01*
X79858516Y-43140458D01*
X79824938Y-43095839D01*
X79822738Y-43090923D01*
X79817541Y-43086009D01*
X79807161Y-43072217D01*
X79799229Y-43056863D01*
X79797057Y-43050048D01*
X79793583Y-43045934D01*
X79767964Y-42996344D01*
X79726078Y-42943821D01*
X79683443Y-42907819D01*
X79680207Y-42903519D01*
X79674048Y-42899886D01*
X79660835Y-42888728D01*
X79649690Y-42875530D01*
X79646056Y-42869370D01*
X79641754Y-42866133D01*
X79605740Y-42823483D01*
X79553219Y-42781599D01*
X79503629Y-42755980D01*
X79499512Y-42752504D01*
X79492693Y-42750331D01*
X79477351Y-42742405D01*
X79463557Y-42732023D01*
X79458642Y-42726825D01*
X79453726Y-42724625D01*
X79409121Y-42691056D01*
X79348595Y-42661908D01*
X79294545Y-42647965D01*
X79289761Y-42645494D01*
X79282633Y-42644893D01*
X79265911Y-42640579D01*
X79250118Y-42633512D01*
X79244175Y-42629541D01*
X79238900Y-42628492D01*
X79187970Y-42605701D01*
X79122475Y-42590751D01*
X79066672Y-42589184D01*
X79061457Y-42587839D01*
X79054373Y-42588839D01*
X79037102Y-42588354D01*
X79020165Y-42584985D01*
X79013481Y-42582434D01*
X79008096Y-42582585D01*
X78953335Y-42571693D01*
X78886157Y-42571694D01*
X78831434Y-42582580D01*
X78826055Y-42582429D01*
X78819374Y-42584979D01*
X78802412Y-42588353D01*
X78785139Y-42588838D01*
X78778057Y-42587838D01*
X78772845Y-42589183D01*
X78717061Y-42590747D01*
X78651566Y-42605695D01*
X78600603Y-42628499D01*
X78595319Y-42629550D01*
X78589370Y-42633525D01*
X78573614Y-42640575D01*
X78556854Y-42644899D01*
X78549728Y-42645500D01*
X78544947Y-42647970D01*
X78490919Y-42661907D01*
X78430393Y-42691055D01*
X78385802Y-42724614D01*
X78380891Y-42726811D01*
X78375981Y-42732005D01*
X78362152Y-42742412D01*
X78286275Y-42781614D01*
X78281643Y-42785308D01*
X78193117Y-42571057D01*
X77930327Y-42307808D01*
X77586799Y-42165162D01*
X77214833Y-42164838D01*
X76871057Y-42306883D01*
X76607808Y-42569673D01*
X76465162Y-42913201D01*
X76464838Y-43285167D01*
X76606883Y-43628943D01*
X76674245Y-43696422D01*
X76682913Y-43740000D01*
X74314802Y-43740000D01*
X73835122Y-43260320D01*
X73835162Y-43214833D01*
X73693117Y-42871057D01*
X73430327Y-42607808D01*
X73086799Y-42465162D01*
X72714833Y-42464838D01*
X72371057Y-42606883D01*
X72107808Y-42869673D01*
X71965162Y-43213201D01*
X71964838Y-43585167D01*
X63510000Y-43585167D01*
X63510000Y-42169650D01*
X63520877Y-42143391D01*
X63728328Y-41100464D01*
X64237874Y-40337874D01*
X65000740Y-39828143D01*
X66038609Y-39620757D01*
X66064515Y-39610000D01*
X109330350Y-39610000D01*
X109356609Y-39620877D01*
X109356609Y-39620877D01*
G37*
X109356609Y-39620877D02*
X110399536Y-39828328D01*
X111162126Y-40337874D01*
X111671857Y-41100740D01*
X111879243Y-42138609D01*
X111890000Y-42164515D01*
X111890000Y-69517291D01*
X111873712Y-69556614D01*
X111666261Y-70599541D01*
X111156715Y-71362131D01*
X110393849Y-71871862D01*
X109355980Y-72079248D01*
X109330086Y-72090000D01*
X66082709Y-72090000D01*
X66043386Y-72073712D01*
X65000459Y-71866261D01*
X64237869Y-71356715D01*
X63728138Y-70593849D01*
X63520752Y-69555980D01*
X63510000Y-69530086D01*
X63510000Y-68585167D01*
X74864838Y-68585167D01*
X75006883Y-68928943D01*
X75269673Y-69192192D01*
X75390986Y-69242566D01*
X77074208Y-70925787D01*
X77074210Y-70925790D01*
X77361325Y-71117633D01*
X77417516Y-71128810D01*
X77700000Y-71185001D01*
X77700005Y-71185000D01*
X104693178Y-71185000D01*
X104813201Y-71234838D01*
X105185167Y-71235162D01*
X105528943Y-71093117D01*
X105792192Y-70830327D01*
X105934838Y-70486799D01*
X105935162Y-70114833D01*
X105793117Y-69771057D01*
X105530327Y-69507808D01*
X105186799Y-69365162D01*
X104814833Y-69364838D01*
X104693431Y-69415000D01*
X78066579Y-69415000D01*
X77015470Y-68363890D01*
X102715592Y-68363890D01*
X102880362Y-68762663D01*
X103185193Y-69068026D01*
X103583677Y-69233491D01*
X104015150Y-69233868D01*
X104413923Y-69069098D01*
X104719286Y-68764267D01*
X104884751Y-68365783D01*
X104884752Y-68363890D01*
X107114872Y-68363890D01*
X107279642Y-68762663D01*
X107584473Y-69068026D01*
X107982957Y-69233491D01*
X108414430Y-69233868D01*
X108813203Y-69069098D01*
X109118566Y-68764267D01*
X109284031Y-68365783D01*
X109284408Y-67934310D01*
X109119638Y-67535537D01*
X108814807Y-67230174D01*
X108416323Y-67064709D01*
X107984850Y-67064332D01*
X107586077Y-67229102D01*
X107280714Y-67533933D01*
X107115249Y-67932417D01*
X107114872Y-68363890D01*
X104884752Y-68363890D01*
X104885128Y-67934310D01*
X104720358Y-67535537D01*
X104415527Y-67230174D01*
X104017043Y-67064709D01*
X103585570Y-67064332D01*
X103186797Y-67229102D01*
X102881434Y-67533933D01*
X102715969Y-67932417D01*
X102715592Y-68363890D01*
X77015470Y-68363890D01*
X76642744Y-67991164D01*
X76593117Y-67871057D01*
X76330327Y-67607808D01*
X75986799Y-67465162D01*
X75614833Y-67464838D01*
X75271057Y-67606883D01*
X75007808Y-67869673D01*
X74865162Y-68213201D01*
X74864838Y-68585167D01*
X63510000Y-68585167D01*
X63510000Y-65884000D01*
X64236560Y-65884000D01*
X64236560Y-67916000D01*
X64280838Y-68151317D01*
X64419910Y-68367441D01*
X64632110Y-68512431D01*
X64884000Y-68563440D01*
X66916000Y-68563440D01*
X67151317Y-68519162D01*
X67367441Y-68380090D01*
X67512431Y-68167890D01*
X67563440Y-67916000D01*
X67563440Y-65884000D01*
X67519162Y-65648683D01*
X67380090Y-65432559D01*
X67167890Y-65287569D01*
X66916000Y-65236560D01*
X64884000Y-65236560D01*
X64648683Y-65280838D01*
X64432559Y-65419910D01*
X64287569Y-65632110D01*
X64236560Y-65884000D01*
X63510000Y-65884000D01*
X63510000Y-62885167D01*
X79689838Y-62885167D01*
X79831883Y-63228943D01*
X80094673Y-63492192D01*
X80438201Y-63634838D01*
X80526713Y-63634915D01*
X80606883Y-63828943D01*
X80869673Y-64092192D01*
X81213201Y-64234838D01*
X81585167Y-64235162D01*
X81928943Y-64093117D01*
X82192192Y-63830327D01*
X82334838Y-63486799D01*
X82334962Y-63343927D01*
X82578943Y-63243117D01*
X82842192Y-62980327D01*
X82984838Y-62636799D01*
X82985162Y-62264833D01*
X82843117Y-61921057D01*
X82580327Y-61657808D01*
X82236799Y-61515162D01*
X81864833Y-61514838D01*
X81521057Y-61656883D01*
X81257808Y-61919673D01*
X81231182Y-61983795D01*
X81155327Y-61907808D01*
X80811799Y-61765162D01*
X80439833Y-61764838D01*
X80096057Y-61906883D01*
X79832808Y-62169673D01*
X79690162Y-62513201D01*
X79689838Y-62885167D01*
X63510000Y-62885167D01*
X63510000Y-59385167D01*
X70364838Y-59385167D01*
X70506883Y-59728943D01*
X70769673Y-59992192D01*
X71113201Y-60134838D01*
X71485167Y-60135162D01*
X71828943Y-59993117D01*
X72092192Y-59730327D01*
X72234838Y-59386799D01*
X72235162Y-59014833D01*
X72093117Y-58671057D01*
X71830327Y-58407808D01*
X71486799Y-58265162D01*
X71114833Y-58264838D01*
X70771057Y-58406883D01*
X70507808Y-58669673D01*
X70365162Y-59013201D01*
X70364838Y-59385167D01*
X63510000Y-59385167D01*
X63510000Y-55785167D01*
X73264838Y-55785167D01*
X73406883Y-56128943D01*
X73669673Y-56392192D01*
X74013201Y-56534838D01*
X74385167Y-56535162D01*
X74728943Y-56393117D01*
X74992192Y-56130327D01*
X75134838Y-55786799D01*
X75135162Y-55414833D01*
X74993117Y-55071057D01*
X74730327Y-54807808D01*
X74386799Y-54665162D01*
X74014833Y-54664838D01*
X73671057Y-54806883D01*
X73407808Y-55069673D01*
X73265162Y-55413201D01*
X73264838Y-55785167D01*
X63510000Y-55785167D01*
X63510000Y-49885167D01*
X71864838Y-49885167D01*
X72006883Y-50228943D01*
X72269673Y-50492192D01*
X72613201Y-50634838D01*
X72985167Y-50635162D01*
X73328943Y-50493117D01*
X73592192Y-50230327D01*
X73734838Y-49886799D01*
X73735162Y-49514833D01*
X73593117Y-49171057D01*
X73330327Y-48907808D01*
X72986799Y-48765162D01*
X72614833Y-48764838D01*
X72271057Y-48906883D01*
X72007808Y-49169673D01*
X71865162Y-49513201D01*
X71864838Y-49885167D01*
X63510000Y-49885167D01*
X63510000Y-48385167D01*
X73264838Y-48385167D01*
X73406883Y-48728943D01*
X73669673Y-48992192D01*
X74013201Y-49134838D01*
X74385167Y-49135162D01*
X74728943Y-48993117D01*
X74992192Y-48730327D01*
X75134838Y-48386799D01*
X75135162Y-48014833D01*
X74993117Y-47671057D01*
X74907377Y-47585167D01*
X74964838Y-47585167D01*
X75106883Y-47928943D01*
X75369673Y-48192192D01*
X75579528Y-48279332D01*
X77562599Y-50262403D01*
X77637946Y-50312748D01*
X78389990Y-51064792D01*
X78389990Y-53449535D01*
X78186799Y-53365162D01*
X77814833Y-53364838D01*
X77471057Y-53506883D01*
X77207808Y-53769673D01*
X77065162Y-54113201D01*
X77064838Y-54485167D01*
X77206883Y-54828943D01*
X77469673Y-55092192D01*
X77813201Y-55234838D01*
X78185167Y-55235162D01*
X78389990Y-55150531D01*
X78389990Y-55986400D01*
X78447842Y-56277239D01*
X78612589Y-56523801D01*
X80401199Y-58312411D01*
X80559537Y-58418209D01*
X80407808Y-58569673D01*
X80265162Y-58913201D01*
X80264838Y-59285167D01*
X80406883Y-59628943D01*
X80669673Y-59892192D01*
X81013201Y-60034838D01*
X81385167Y-60035162D01*
X81728943Y-59893117D01*
X81992192Y-59630327D01*
X82134838Y-59286799D01*
X82135162Y-58914833D01*
X81993117Y-58571057D01*
X81957133Y-58535010D01*
X84760188Y-58535010D01*
X83842599Y-59452599D01*
X83677852Y-59699161D01*
X83620000Y-59990000D01*
X83620000Y-63527537D01*
X83587808Y-63559673D01*
X83445162Y-63903201D01*
X83444838Y-64275167D01*
X83586883Y-64618943D01*
X83776160Y-64808550D01*
X83745162Y-64883201D01*
X83744838Y-65255167D01*
X83749942Y-65267519D01*
X83461057Y-65386883D01*
X83197808Y-65649673D01*
X83055162Y-65993201D01*
X83054838Y-66365167D01*
X83196883Y-66708943D01*
X83459673Y-66972192D01*
X83460878Y-66972692D01*
X83365162Y-67203201D01*
X83364838Y-67575167D01*
X83506883Y-67918943D01*
X83769673Y-68182192D01*
X84113201Y-68324838D01*
X84485167Y-68325162D01*
X84828943Y-68183117D01*
X85092192Y-67920327D01*
X85234838Y-67576799D01*
X85235162Y-67204833D01*
X85093117Y-66861057D01*
X84982798Y-66750546D01*
X85032403Y-66717401D01*
X85510000Y-66239804D01*
X85510000Y-66630000D01*
X85567852Y-66920839D01*
X85732599Y-67167401D01*
X86104878Y-67539680D01*
X86104838Y-67585167D01*
X86246883Y-67928943D01*
X86509673Y-68192192D01*
X86853201Y-68334838D01*
X87225167Y-68335162D01*
X87568943Y-68193117D01*
X87832192Y-67930327D01*
X87974838Y-67586799D01*
X87975162Y-67214833D01*
X87833117Y-66871057D01*
X87570327Y-66607808D01*
X87226799Y-66465162D01*
X87179923Y-66465121D01*
X87030000Y-66315198D01*
X87030000Y-64995167D01*
X87104838Y-64995167D01*
X87246883Y-65338943D01*
X87509673Y-65602192D01*
X87853201Y-65744838D01*
X88225167Y-65745162D01*
X88568943Y-65603117D01*
X88832192Y-65340327D01*
X88974838Y-64996799D01*
X88975162Y-64624833D01*
X88833117Y-64281057D01*
X88570327Y-64017808D01*
X88226799Y-63875162D01*
X87854833Y-63874838D01*
X87511057Y-64016883D01*
X87247808Y-64279673D01*
X87105162Y-64623201D01*
X87104838Y-64995167D01*
X87030000Y-64995167D01*
X87030000Y-62101214D01*
X87596203Y-61535011D01*
X92746439Y-61535011D01*
X93037278Y-61477159D01*
X93283840Y-61312412D01*
X94261202Y-60335050D01*
X95642772Y-60335050D01*
X95933611Y-60277198D01*
X96180173Y-60112451D01*
X97407457Y-58885167D01*
X100564838Y-58885167D01*
X100706883Y-59228943D01*
X100969673Y-59492192D01*
X101313201Y-59634838D01*
X101685167Y-59635162D01*
X102028943Y-59493117D01*
X102292192Y-59230327D01*
X102434838Y-58886799D01*
X102435162Y-58514833D01*
X102298948Y-58185167D01*
X103464838Y-58185167D01*
X103606883Y-58528943D01*
X103869673Y-58792192D01*
X104213201Y-58934838D01*
X104585167Y-58935162D01*
X104928943Y-58793117D01*
X104962118Y-58760000D01*
X105127077Y-58760000D01*
X105196883Y-58928943D01*
X105459673Y-59192192D01*
X105803201Y-59334838D01*
X106175167Y-59335162D01*
X106518943Y-59193117D01*
X106782192Y-58930327D01*
X106924838Y-58586799D01*
X106925162Y-58214833D01*
X106783117Y-57871057D01*
X106520327Y-57607808D01*
X106176799Y-57465162D01*
X106129923Y-57465121D01*
X106127401Y-57462599D01*
X105880839Y-57297852D01*
X105590000Y-57240000D01*
X104962463Y-57240000D01*
X104930327Y-57207808D01*
X104586799Y-57065162D01*
X104214833Y-57064838D01*
X103871057Y-57206883D01*
X103607808Y-57469673D01*
X103465162Y-57813201D01*
X103464838Y-58185167D01*
X102298948Y-58185167D01*
X102293117Y-58171057D01*
X102030327Y-57907808D01*
X101686799Y-57765162D01*
X101314833Y-57764838D01*
X100971057Y-57906883D01*
X100707808Y-58169673D01*
X100565162Y-58513201D01*
X100564838Y-58885167D01*
X97407457Y-58885167D01*
X100511451Y-55781173D01*
X100646883Y-56108943D01*
X100909673Y-56372192D01*
X101253201Y-56514838D01*
X101625167Y-56515162D01*
X101968943Y-56373117D01*
X102002118Y-56340000D01*
X105399454Y-56340000D01*
X105500000Y-56360000D01*
X105700000Y-56360000D01*
X105990839Y-56302148D01*
X106237401Y-56137401D01*
X108139680Y-54235122D01*
X108185167Y-54235162D01*
X108528943Y-54093117D01*
X108792192Y-53830327D01*
X108934838Y-53486799D01*
X108935162Y-53114833D01*
X108793117Y-52771057D01*
X108530327Y-52507808D01*
X108186799Y-52365162D01*
X107814833Y-52364838D01*
X107471057Y-52506883D01*
X107207808Y-52769673D01*
X107065162Y-53113201D01*
X107065121Y-53160077D01*
X105405198Y-54820000D01*
X103502362Y-54820000D01*
X103592192Y-54730327D01*
X103734838Y-54386799D01*
X103735162Y-54014833D01*
X103685000Y-53893431D01*
X103685000Y-53735938D01*
X103701431Y-53711890D01*
X103752440Y-53460000D01*
X103752440Y-52260000D01*
X103708162Y-52024683D01*
X103569090Y-51808559D01*
X103356890Y-51663569D01*
X103105000Y-51612560D01*
X102355000Y-51612560D01*
X102119683Y-51656838D01*
X101903559Y-51795910D01*
X101901306Y-51799208D01*
X101660327Y-51557808D01*
X101316799Y-51415162D01*
X101249823Y-51415104D01*
X101153117Y-51181057D01*
X100890327Y-50917808D01*
X100546799Y-50775162D01*
X100174833Y-50774838D01*
X99831057Y-50916883D01*
X99567808Y-51179673D01*
X99425162Y-51523201D01*
X99425079Y-51618549D01*
X99357853Y-51719160D01*
X99300001Y-52009999D01*
X99300001Y-53152377D01*
X98662600Y-53789778D01*
X98497853Y-54036340D01*
X98440001Y-54327179D01*
X98440001Y-54430199D01*
X97916311Y-54953889D01*
X97860327Y-54897808D01*
X97516799Y-54755162D01*
X97144833Y-54754838D01*
X96879079Y-54864645D01*
X96552802Y-54729162D01*
X96180836Y-54728838D01*
X95965897Y-54817649D01*
X95922440Y-54799603D01*
X95922440Y-53900000D01*
X95878162Y-53664683D01*
X95739090Y-53448559D01*
X95526890Y-53303569D01*
X95275000Y-53252560D01*
X94525000Y-53252560D01*
X94289683Y-53296838D01*
X94073559Y-53435910D01*
X93928569Y-53648110D01*
X93877560Y-53900000D01*
X93877560Y-54341634D01*
X93828230Y-54415462D01*
X93820532Y-54454162D01*
X93760862Y-54754137D01*
X93760863Y-54754142D01*
X93760863Y-55347315D01*
X93711025Y-55467338D01*
X93710701Y-55839304D01*
X93852746Y-56183080D01*
X93912380Y-56242818D01*
X93734896Y-56420302D01*
X93735162Y-56114833D01*
X93593117Y-55771057D01*
X93330327Y-55507808D01*
X92986799Y-55365162D01*
X92614833Y-55364838D01*
X92271057Y-55506883D01*
X92087567Y-55690053D01*
X91786799Y-55565162D01*
X91414833Y-55564838D01*
X91071057Y-55706883D01*
X91037882Y-55740000D01*
X86662463Y-55740000D01*
X86630327Y-55707808D01*
X86286799Y-55565162D01*
X85914833Y-55564838D01*
X85571057Y-55706883D01*
X85307808Y-55969673D01*
X85165162Y-56313201D01*
X85164943Y-56565001D01*
X82985118Y-56565001D01*
X82985162Y-56514833D01*
X82843117Y-56171057D01*
X82612022Y-55939558D01*
X83466580Y-55084999D01*
X88793178Y-55084999D01*
X88913201Y-55134837D01*
X89285167Y-55135161D01*
X89628943Y-54993116D01*
X89892192Y-54730326D01*
X90034838Y-54386798D01*
X90035162Y-54014832D01*
X89893117Y-53671056D01*
X89630327Y-53407807D01*
X89286799Y-53265161D01*
X88914833Y-53264837D01*
X88817217Y-53305171D01*
X88892192Y-53230327D01*
X89034838Y-52886799D01*
X89035162Y-52514833D01*
X88893117Y-52171057D01*
X88630327Y-51907808D01*
X88286799Y-51765162D01*
X87914833Y-51764838D01*
X87571057Y-51906883D01*
X87307808Y-52169673D01*
X87165162Y-52513201D01*
X87164838Y-52885167D01*
X87306883Y-53228943D01*
X87392789Y-53314999D01*
X86581604Y-53314999D01*
X86634838Y-53186799D01*
X86635162Y-52814833D01*
X86493117Y-52471057D01*
X86230327Y-52207808D01*
X85886799Y-52065162D01*
X85514833Y-52064838D01*
X85171057Y-52206883D01*
X85055559Y-52322179D01*
X84993117Y-52171057D01*
X84730327Y-51907808D01*
X84386799Y-51765162D01*
X84014833Y-51764838D01*
X83671057Y-51906883D01*
X83650194Y-51927710D01*
X83630327Y-51907808D01*
X83286799Y-51765162D01*
X82914833Y-51764838D01*
X82571057Y-51906883D01*
X82307808Y-52169673D01*
X82165162Y-52513201D01*
X82164838Y-52885167D01*
X82306883Y-53228943D01*
X82569673Y-53492192D01*
X82586501Y-53499180D01*
X82474211Y-53574209D01*
X82474209Y-53574212D01*
X80874209Y-55174211D01*
X80874207Y-55174214D01*
X80791165Y-55257255D01*
X80671057Y-55306883D01*
X80426157Y-55551355D01*
X80360000Y-55485198D01*
X80360000Y-50300000D01*
X80302148Y-50009161D01*
X80302148Y-50009160D01*
X80137401Y-49762599D01*
X77666643Y-47291841D01*
X77796431Y-47101890D01*
X77847440Y-46850000D01*
X77847440Y-45950000D01*
X77803162Y-45714683D01*
X77664090Y-45498559D01*
X77451890Y-45353569D01*
X77200000Y-45302560D01*
X76000000Y-45302560D01*
X75764683Y-45346838D01*
X75548559Y-45485910D01*
X75403569Y-45698110D01*
X75352560Y-45950000D01*
X75352560Y-46625348D01*
X75107808Y-46869673D01*
X74965162Y-47213201D01*
X74964838Y-47585167D01*
X74907377Y-47585167D01*
X74730327Y-47407808D01*
X74386799Y-47265162D01*
X74014833Y-47264838D01*
X73671057Y-47406883D01*
X73407808Y-47669673D01*
X73265162Y-48013201D01*
X73264838Y-48385167D01*
X63510000Y-48385167D01*
X63510000Y-43585167D01*
X71964838Y-43585167D01*
X72106883Y-43928943D01*
X72369673Y-44192192D01*
X72713201Y-44334838D01*
X72760077Y-44334879D01*
X73462599Y-45037401D01*
X73709161Y-45202148D01*
X74000000Y-45260000D01*
X77560934Y-45260000D01*
X79439409Y-47138475D01*
X79207808Y-47369673D01*
X79065162Y-47713201D01*
X79064838Y-48085167D01*
X79206883Y-48428943D01*
X79469673Y-48692192D01*
X79813201Y-48834838D01*
X80185167Y-48835162D01*
X80528943Y-48693117D01*
X80761700Y-48460766D01*
X82038335Y-49737401D01*
X82284897Y-49902148D01*
X82403296Y-49925699D01*
X82469673Y-49992192D01*
X82813201Y-50134838D01*
X83185167Y-50135162D01*
X83528943Y-49993117D01*
X83792192Y-49730327D01*
X83934838Y-49386799D01*
X83935162Y-49014833D01*
X83824205Y-48746295D01*
X84069673Y-48992192D01*
X84413201Y-49134838D01*
X84785167Y-49135162D01*
X85128943Y-48993117D01*
X85249981Y-48872290D01*
X85369673Y-48992192D01*
X85713201Y-49134838D01*
X86085167Y-49135162D01*
X86428943Y-48993117D01*
X86692192Y-48730327D01*
X86834838Y-48386799D01*
X86835162Y-48014833D01*
X86693117Y-47671057D01*
X86430327Y-47407808D01*
X86086799Y-47265162D01*
X85714833Y-47264838D01*
X85371057Y-47406883D01*
X85250019Y-47527710D01*
X85130327Y-47407808D01*
X84786799Y-47265162D01*
X84414833Y-47264838D01*
X84071057Y-47406883D01*
X83807808Y-47669673D01*
X83800158Y-47688097D01*
X83793117Y-47671057D01*
X83530327Y-47407808D01*
X83186799Y-47265162D01*
X82814833Y-47264838D01*
X82690863Y-47316061D01*
X82252417Y-46877615D01*
X82271662Y-46861364D01*
X82313547Y-46808841D01*
X82352738Y-46732977D01*
X82363135Y-46719163D01*
X82368330Y-46714251D01*
X82370528Y-46709340D01*
X82404084Y-46664752D01*
X82433232Y-46604227D01*
X82447177Y-46550168D01*
X82449649Y-46545383D01*
X82450250Y-46538255D01*
X82454564Y-46521531D01*
X82461616Y-46505772D01*
X82465591Y-46499823D01*
X82466642Y-46494539D01*
X82489446Y-46443576D01*
X82504394Y-46378081D01*
X82505958Y-46322299D01*
X82507302Y-46317090D01*
X82506303Y-46310013D01*
X82506788Y-46292730D01*
X82510162Y-46275770D01*
X82512712Y-46269088D01*
X82512561Y-46263708D01*
X82517384Y-46239462D01*
X82769673Y-46492192D01*
X83113201Y-46634838D01*
X83485167Y-46635162D01*
X83606569Y-46585000D01*
X86649995Y-46585000D01*
X86650000Y-46585001D01*
X86932484Y-46528810D01*
X86988675Y-46517633D01*
X87275790Y-46325790D01*
X87704140Y-45897440D01*
X88150000Y-45897440D01*
X88385317Y-45853162D01*
X88601441Y-45714090D01*
X88746431Y-45501890D01*
X88797440Y-45250000D01*
X88797440Y-44350000D01*
X90452560Y-44350000D01*
X90452560Y-45250000D01*
X90496838Y-45485317D01*
X90635910Y-45701441D01*
X90848110Y-45846431D01*
X90940000Y-45865039D01*
X90940000Y-50785198D01*
X90862599Y-50862599D01*
X90697852Y-51109161D01*
X90640000Y-51400000D01*
X90640000Y-52937537D01*
X90607808Y-52969673D01*
X90465162Y-53313201D01*
X90464838Y-53685167D01*
X90606883Y-54028943D01*
X90869673Y-54292192D01*
X91213201Y-54434838D01*
X91585167Y-54435162D01*
X91928943Y-54293117D01*
X92192192Y-54030327D01*
X92334838Y-53686799D01*
X92335162Y-53314833D01*
X92193117Y-52971057D01*
X92160000Y-52937882D01*
X92160000Y-51714802D01*
X92237401Y-51637401D01*
X92402148Y-51390839D01*
X92460000Y-51100000D01*
X92460000Y-48000000D01*
X93677560Y-48000000D01*
X93677560Y-49200000D01*
X93721838Y-49435317D01*
X93860910Y-49651441D01*
X94073110Y-49796431D01*
X94325000Y-49847440D01*
X95075000Y-49847440D01*
X95310317Y-49803162D01*
X95450727Y-49712810D01*
X95573110Y-49796431D01*
X95825000Y-49847440D01*
X96575000Y-49847440D01*
X96810317Y-49803162D01*
X97026441Y-49664090D01*
X97171431Y-49451890D01*
X97222440Y-49200000D01*
X97222440Y-48000000D01*
X97189512Y-47825000D01*
X99652560Y-47825000D01*
X99652560Y-48575000D01*
X99696838Y-48810317D01*
X99835910Y-49026441D01*
X100048110Y-49171431D01*
X100300000Y-49222440D01*
X101500000Y-49222440D01*
X101735317Y-49178162D01*
X101880095Y-49085000D01*
X101893178Y-49085000D01*
X102013201Y-49134838D01*
X102385167Y-49135162D01*
X102728943Y-48993117D01*
X102992192Y-48730327D01*
X103134838Y-48386799D01*
X103135162Y-48014833D01*
X102998885Y-47685017D01*
X103035317Y-47678162D01*
X103146006Y-47606936D01*
X103213201Y-47634838D01*
X103585167Y-47635162D01*
X103928943Y-47493117D01*
X104192192Y-47230327D01*
X104334838Y-46886799D01*
X104335162Y-46514833D01*
X104193117Y-46171057D01*
X103930327Y-45907808D01*
X103586799Y-45765162D01*
X103214833Y-45764838D01*
X103146372Y-45793126D01*
X103051890Y-45728569D01*
X102800000Y-45677560D01*
X101600000Y-45677560D01*
X101364683Y-45721838D01*
X101148559Y-45860910D01*
X101003569Y-46073110D01*
X100952560Y-46325000D01*
X100952560Y-47075000D01*
X100971858Y-47177560D01*
X100300000Y-47177560D01*
X100064683Y-47221838D01*
X99848559Y-47360910D01*
X99703569Y-47573110D01*
X99652560Y-47825000D01*
X97189512Y-47825000D01*
X97178162Y-47764683D01*
X97039090Y-47548559D01*
X96826890Y-47403569D01*
X96736931Y-47385352D01*
X96342744Y-46991165D01*
X96293117Y-46871057D01*
X96030327Y-46607808D01*
X95686799Y-46465162D01*
X95314833Y-46464838D01*
X95254969Y-46489573D01*
X95176190Y-46410657D01*
X94832662Y-46268011D01*
X94460696Y-46267687D01*
X94116920Y-46409732D01*
X93853671Y-46672522D01*
X93711025Y-47016050D01*
X93710701Y-47388016D01*
X93760863Y-47509418D01*
X93760863Y-47700846D01*
X93728569Y-47748110D01*
X93677560Y-48000000D01*
X92460000Y-48000000D01*
X92460000Y-45867334D01*
X92535317Y-45853162D01*
X92751441Y-45714090D01*
X92799134Y-45644289D01*
X92835910Y-45701441D01*
X93048110Y-45846431D01*
X93300000Y-45897440D01*
X94500000Y-45897440D01*
X94735317Y-45853162D01*
X94951441Y-45714090D01*
X95056726Y-45560000D01*
X106550829Y-45560000D01*
X106710971Y-45799670D01*
X107197152Y-46124526D01*
X107770641Y-46238600D01*
X107829359Y-46238600D01*
X108402848Y-46124526D01*
X108889029Y-45799670D01*
X109070000Y-45528828D01*
X109250971Y-45799670D01*
X109737152Y-46124526D01*
X110310641Y-46238600D01*
X110369359Y-46238600D01*
X110942848Y-46124526D01*
X111429029Y-45799670D01*
X111753885Y-45313489D01*
X111867959Y-44740000D01*
X111753885Y-44166511D01*
X111429029Y-43680330D01*
X111114248Y-43470000D01*
X111429029Y-43259670D01*
X111753885Y-42773489D01*
X111867959Y-42200000D01*
X111753885Y-41626511D01*
X111429029Y-41140330D01*
X110942848Y-40815474D01*
X110369359Y-40701400D01*
X110310641Y-40701400D01*
X109737152Y-40815474D01*
X109271558Y-41126574D01*
X109266762Y-41101083D01*
X109127690Y-40884959D01*
X108915490Y-40739969D01*
X108663600Y-40688960D01*
X106936400Y-40688960D01*
X106701083Y-40733238D01*
X106484959Y-40872310D01*
X106339969Y-41084510D01*
X106288960Y-41336400D01*
X106288960Y-43063600D01*
X106333238Y-43298917D01*
X106472310Y-43515041D01*
X106684510Y-43660031D01*
X106728131Y-43668864D01*
X106710971Y-43680330D01*
X106470647Y-44040000D01*
X95055105Y-44040000D01*
X94964090Y-43898559D01*
X94912692Y-43863440D01*
X96343600Y-43863440D01*
X96578917Y-43819162D01*
X96795041Y-43680090D01*
X96940031Y-43467890D01*
X96991040Y-43216000D01*
X96991040Y-42015255D01*
X97601400Y-42015255D01*
X97601400Y-42384745D01*
X97715474Y-42958234D01*
X98040330Y-43444415D01*
X98526511Y-43769271D01*
X99100000Y-43883345D01*
X99673489Y-43769271D01*
X100159670Y-43444415D01*
X100370000Y-43129634D01*
X100580330Y-43444415D01*
X101066511Y-43769271D01*
X101640000Y-43883345D01*
X102213489Y-43769271D01*
X102699670Y-43444415D01*
X103024526Y-42958234D01*
X103138600Y-42384745D01*
X103138600Y-42015255D01*
X103024526Y-41441766D01*
X102699670Y-40955585D01*
X102213489Y-40630729D01*
X101640000Y-40516655D01*
X101066511Y-40630729D01*
X100580330Y-40955585D01*
X100370000Y-41270366D01*
X100159670Y-40955585D01*
X99673489Y-40630729D01*
X99100000Y-40516655D01*
X98526511Y-40630729D01*
X98040330Y-40955585D01*
X97715474Y-41441766D01*
X97601400Y-42015255D01*
X96991040Y-42015255D01*
X96991040Y-41184000D01*
X96946762Y-40948683D01*
X96807690Y-40732559D01*
X96595490Y-40587569D01*
X96343600Y-40536560D01*
X94616400Y-40536560D01*
X94381083Y-40580838D01*
X94164959Y-40719910D01*
X94019969Y-40932110D01*
X94011600Y-40973439D01*
X93999670Y-40955585D01*
X93513489Y-40630729D01*
X92940000Y-40516655D01*
X92366511Y-40630729D01*
X91880330Y-40955585D01*
X91555474Y-41441766D01*
X91441400Y-42015255D01*
X91441400Y-42384745D01*
X91555474Y-42958234D01*
X91880330Y-43444415D01*
X92266671Y-43702560D01*
X91100000Y-43702560D01*
X90864683Y-43746838D01*
X90648559Y-43885910D01*
X90503569Y-44098110D01*
X90452560Y-44350000D01*
X88797440Y-44350000D01*
X88753162Y-44114683D01*
X88614090Y-43898559D01*
X88401890Y-43753569D01*
X88150000Y-43702560D01*
X86950000Y-43702560D01*
X86714683Y-43746838D01*
X86498559Y-43885910D01*
X86353569Y-44098110D01*
X86302560Y-44350000D01*
X86302560Y-44795860D01*
X86283420Y-44815000D01*
X83606822Y-44815000D01*
X83486799Y-44765162D01*
X83287059Y-44764988D01*
X83030327Y-44507808D01*
X82686799Y-44365162D01*
X82314833Y-44364838D01*
X81971057Y-44506883D01*
X81707808Y-44769673D01*
X81613423Y-44996977D01*
X81613103Y-44996498D01*
X81606039Y-44980712D01*
X81601723Y-44963980D01*
X81601122Y-44956853D01*
X81598652Y-44952071D01*
X81584714Y-44898035D01*
X81555568Y-44837510D01*
X81521990Y-44792891D01*
X81519790Y-44787975D01*
X81514593Y-44783061D01*
X81504213Y-44769269D01*
X81496281Y-44753915D01*
X81494109Y-44747100D01*
X81490635Y-44742986D01*
X81465016Y-44693396D01*
X81423130Y-44640873D01*
X81380495Y-44604871D01*
X81377259Y-44600571D01*
X81371100Y-44596938D01*
X81357887Y-44585780D01*
X81346742Y-44572582D01*
X81343108Y-44566422D01*
X81338806Y-44563185D01*
X81302792Y-44520535D01*
X81250271Y-44478651D01*
X81200681Y-44453032D01*
X81196564Y-44449556D01*
X81189745Y-44447383D01*
X81174403Y-44439457D01*
X81160609Y-44429075D01*
X81155694Y-44423877D01*
X81150778Y-44421677D01*
X81106173Y-44388108D01*
X81045647Y-44358960D01*
X80991597Y-44345017D01*
X80986813Y-44342546D01*
X80979685Y-44341945D01*
X80962963Y-44337631D01*
X80947170Y-44330564D01*
X80941227Y-44326593D01*
X80935952Y-44325544D01*
X80885022Y-44302753D01*
X80819527Y-44287803D01*
X80807671Y-44287470D01*
X80807338Y-44275616D01*
X80792388Y-44210120D01*
X80769597Y-44159191D01*
X80768548Y-44153915D01*
X80764577Y-44147972D01*
X80757513Y-44132186D01*
X80753197Y-44115454D01*
X80752596Y-44108327D01*
X80750126Y-44103545D01*
X80736188Y-44049509D01*
X80707042Y-43988984D01*
X80673464Y-43944365D01*
X80671264Y-43939449D01*
X80666067Y-43934535D01*
X80655687Y-43920743D01*
X80647755Y-43905389D01*
X80645583Y-43898574D01*
X80642109Y-43894460D01*
X80616490Y-43844870D01*
X80574604Y-43792347D01*
X80531969Y-43756345D01*
X80528733Y-43752045D01*
X80522574Y-43748412D01*
X80509361Y-43737254D01*
X80498216Y-43724056D01*
X80494582Y-43717896D01*
X80490280Y-43714659D01*
X80454266Y-43672009D01*
X80401745Y-43630125D01*
X80352155Y-43604506D01*
X80348038Y-43601030D01*
X80341219Y-43598857D01*
X80325877Y-43590931D01*
X80312083Y-43580549D01*
X80307168Y-43575351D01*
X80302252Y-43573151D01*
X80257647Y-43539582D01*
X80197121Y-43510434D01*
X80143071Y-43496491D01*
X80138287Y-43494020D01*
X80131159Y-43493419D01*
X80114437Y-43489105D01*
X80098644Y-43482038D01*
X80092701Y-43478067D01*
X80087426Y-43477018D01*
X80036496Y-43454227D01*
X79971001Y-43439277D01*
X79959145Y-43438944D01*
X79958812Y-43427090D01*
X79943862Y-43361594D01*
X79921071Y-43310665D01*
X79920022Y-43305389D01*
X79916051Y-43299446D01*
X79908987Y-43283660D01*
X79904671Y-43266928D01*
X79904070Y-43259801D01*
X79901600Y-43255019D01*
X79887662Y-43200983D01*
X79858516Y-43140458D01*
X79824938Y-43095839D01*
X79822738Y-43090923D01*
X79817541Y-43086009D01*
X79807161Y-43072217D01*
X79799229Y-43056863D01*
X79797057Y-43050048D01*
X79793583Y-43045934D01*
X79767964Y-42996344D01*
X79726078Y-42943821D01*
X79683443Y-42907819D01*
X79680207Y-42903519D01*
X79674048Y-42899886D01*
X79660835Y-42888728D01*
X79649690Y-42875530D01*
X79646056Y-42869370D01*
X79641754Y-42866133D01*
X79605740Y-42823483D01*
X79553219Y-42781599D01*
X79503629Y-42755980D01*
X79499512Y-42752504D01*
X79492693Y-42750331D01*
X79477351Y-42742405D01*
X79463557Y-42732023D01*
X79458642Y-42726825D01*
X79453726Y-42724625D01*
X79409121Y-42691056D01*
X79348595Y-42661908D01*
X79294545Y-42647965D01*
X79289761Y-42645494D01*
X79282633Y-42644893D01*
X79265911Y-42640579D01*
X79250118Y-42633512D01*
X79244175Y-42629541D01*
X79238900Y-42628492D01*
X79187970Y-42605701D01*
X79122475Y-42590751D01*
X79066672Y-42589184D01*
X79061457Y-42587839D01*
X79054373Y-42588839D01*
X79037102Y-42588354D01*
X79020165Y-42584985D01*
X79013481Y-42582434D01*
X79008096Y-42582585D01*
X78953335Y-42571693D01*
X78886157Y-42571694D01*
X78831434Y-42582580D01*
X78826055Y-42582429D01*
X78819374Y-42584979D01*
X78802412Y-42588353D01*
X78785139Y-42588838D01*
X78778057Y-42587838D01*
X78772845Y-42589183D01*
X78717061Y-42590747D01*
X78651566Y-42605695D01*
X78600603Y-42628499D01*
X78595319Y-42629550D01*
X78589370Y-42633525D01*
X78573614Y-42640575D01*
X78556854Y-42644899D01*
X78549728Y-42645500D01*
X78544947Y-42647970D01*
X78490919Y-42661907D01*
X78430393Y-42691055D01*
X78385802Y-42724614D01*
X78380891Y-42726811D01*
X78375981Y-42732005D01*
X78362152Y-42742412D01*
X78286275Y-42781614D01*
X78281643Y-42785308D01*
X78193117Y-42571057D01*
X77930327Y-42307808D01*
X77586799Y-42165162D01*
X77214833Y-42164838D01*
X76871057Y-42306883D01*
X76607808Y-42569673D01*
X76465162Y-42913201D01*
X76464838Y-43285167D01*
X76606883Y-43628943D01*
X76674245Y-43696422D01*
X76682913Y-43740000D01*
X74314802Y-43740000D01*
X73835122Y-43260320D01*
X73835162Y-43214833D01*
X73693117Y-42871057D01*
X73430327Y-42607808D01*
X73086799Y-42465162D01*
X72714833Y-42464838D01*
X72371057Y-42606883D01*
X72107808Y-42869673D01*
X71965162Y-43213201D01*
X71964838Y-43585167D01*
X63510000Y-43585167D01*
X63510000Y-42169650D01*
X63520877Y-42143391D01*
X63728328Y-41100464D01*
X64237874Y-40337874D01*
X65000740Y-39828143D01*
X66038609Y-39620757D01*
X66064515Y-39610000D01*
X109330350Y-39610000D01*
X109356609Y-39620877D01*
M02*
