G04 #@! TF.FileFunction,Legend,Bot*
%FSLAX46Y46*%
G04 Gerber Fmt 4.6, Leading zero omitted, Abs format (unit mm)*
G04 Created by KiCad (PCBNEW 4.0.4-stable) date 05/18/17 09:07:34*
%MOMM*%
%LPD*%
G01*
G04 APERTURE LIST*
%ADD10C,0.100000*%
%ADD11C,0.150000*%
%ADD12C,0.010000*%
G04 APERTURE END LIST*
D10*
D11*
X75099620Y-53000480D02*
X81000040Y-58900900D01*
X80700320Y-57600420D02*
X80199940Y-57100040D01*
X76100380Y-56000220D02*
X76400100Y-56299940D01*
X78099360Y-58999960D02*
X77901240Y-58799300D01*
X79100120Y-54001240D02*
X78899460Y-53800580D01*
X79600500Y-54499080D02*
X79999280Y-54900400D01*
X78599740Y-54499080D02*
X78300020Y-54199360D01*
X77598980Y-54499080D02*
X77101140Y-54001240D01*
X75600000Y-52500100D02*
X75399340Y-52299440D01*
X75099620Y-53000480D02*
X74799900Y-52700760D01*
X75099620Y-54001240D02*
X74599240Y-53500860D01*
X73601020Y-54499080D02*
X73499420Y-54400020D01*
X74599240Y-54499080D02*
X74200460Y-54100300D01*
X72099880Y-54001240D02*
X71800160Y-53698980D01*
X71599500Y-54499080D02*
X71299780Y-54199360D01*
X79600500Y-59500340D02*
X79900220Y-59800060D01*
X78099360Y-57999200D02*
X77799640Y-57699480D01*
X80199940Y-61999700D02*
X80400600Y-62200360D01*
X78099360Y-60000720D02*
X77598980Y-59500340D01*
X79600500Y-62500080D02*
X79801160Y-62700740D01*
X77598980Y-60501100D02*
X77101140Y-60000720D01*
X77598980Y-61499320D02*
X77200200Y-61100540D01*
X72099880Y-57000980D02*
X71599500Y-56500600D01*
X71599500Y-57498820D02*
X71299780Y-57199100D01*
X72099880Y-60998940D02*
X71701100Y-60600160D01*
X70100900Y-57999200D02*
X69699580Y-57600420D01*
X71599500Y-61499320D02*
X72600260Y-62500080D01*
X72099880Y-60998940D02*
X73100640Y-61999700D01*
X70100900Y-57999200D02*
X74098860Y-61999700D01*
X70598740Y-57498820D02*
X74098860Y-60998940D01*
X71599500Y-57498820D02*
X74599240Y-60501100D01*
X77598980Y-61499320D02*
X78099360Y-61999700D01*
X77598980Y-60501100D02*
X79600500Y-62500080D01*
X78099360Y-60000720D02*
X80100880Y-61999700D01*
X78099360Y-58999960D02*
X79600500Y-60501100D01*
X78099360Y-57999200D02*
X79600500Y-59500340D01*
X75600000Y-52500100D02*
X76600760Y-53500860D01*
X79100120Y-54001240D02*
X79600500Y-54499080D01*
X78599740Y-54499080D02*
X79600500Y-55499840D01*
X80601260Y-57498820D02*
X81599480Y-58499580D01*
X77598980Y-54499080D02*
X80100880Y-57000980D01*
X75099620Y-54001240D02*
X80100880Y-58999960D01*
X72099880Y-57000980D02*
X73601020Y-58499580D01*
X72099880Y-56000220D02*
X73601020Y-57498820D01*
X74599240Y-54499080D02*
X76100380Y-56000220D01*
X71599500Y-54499080D02*
X74098860Y-57000980D01*
X72099880Y-54001240D02*
X74599240Y-56500600D01*
X73601020Y-54499080D02*
X75099620Y-56000220D01*
X70799400Y-66299920D02*
X70799400Y-66899360D01*
X72300540Y-65200100D02*
X71500440Y-68499560D01*
X71500440Y-68499560D02*
X71299780Y-68499560D01*
X71299780Y-68499560D02*
X70901000Y-67100020D01*
X70901000Y-67100020D02*
X70799400Y-67100020D01*
X70799400Y-67100020D02*
X70299020Y-68499560D01*
X70299020Y-68499560D02*
X70199960Y-68499560D01*
X70199960Y-68499560D02*
X69399860Y-65299160D01*
X69399860Y-65299160D02*
X69600520Y-65299160D01*
X69600520Y-65299160D02*
X70299020Y-67900120D01*
X70299020Y-67900120D02*
X70700340Y-66099260D01*
X70700340Y-66099260D02*
X70901000Y-66099260D01*
X70901000Y-66099260D02*
X71500440Y-67900120D01*
X71500440Y-67900120D02*
X72099880Y-65200100D01*
X72099880Y-65200100D02*
X72300540Y-65200100D01*
X75000560Y-66701240D02*
X73499420Y-66701240D01*
X73499420Y-66701240D02*
X73499420Y-66899360D01*
X73499420Y-66899360D02*
X74898960Y-66899360D01*
X73400360Y-65299160D02*
X73400360Y-68499560D01*
X73400360Y-68499560D02*
X73199700Y-68499560D01*
X73199700Y-68499560D02*
X73199700Y-65299160D01*
X73199700Y-65299160D02*
X73400360Y-65299160D01*
X74898960Y-65200100D02*
X75000560Y-65200100D01*
X75099620Y-65200100D02*
X75099620Y-68499560D01*
X75099620Y-68499560D02*
X74898960Y-68499560D01*
X74898960Y-68499560D02*
X74898960Y-65200100D01*
X75998780Y-65499820D02*
X76100380Y-65400760D01*
X76100380Y-65400760D02*
X76499160Y-65299160D01*
X76499160Y-65299160D02*
X76999540Y-65200100D01*
X76999540Y-65200100D02*
X77700580Y-65400760D01*
X77700580Y-65400760D02*
X78000300Y-65700480D01*
X78000300Y-65700480D02*
X78099360Y-66200860D01*
X78099360Y-66200860D02*
X78000300Y-66599640D01*
X78000300Y-66599640D02*
X77598980Y-66899360D01*
X77598980Y-66899360D02*
X77101140Y-67100020D01*
X77101140Y-67100020D02*
X76699820Y-67199080D01*
X76699820Y-67199080D02*
X76499160Y-67399740D01*
X76499160Y-67399740D02*
X76400100Y-67699460D01*
X76400100Y-67699460D02*
X76499160Y-67999180D01*
X76499160Y-67999180D02*
X76798880Y-68199840D01*
X76798880Y-68199840D02*
X77200200Y-68199840D01*
X77200200Y-68199840D02*
X77700580Y-68199840D01*
X77700580Y-68199840D02*
X78000300Y-68100780D01*
X78000300Y-68100780D02*
X78200960Y-68199840D01*
X78200960Y-68199840D02*
X77901240Y-68400500D01*
X77901240Y-68400500D02*
X77299260Y-68499560D01*
X77299260Y-68499560D02*
X76699820Y-68499560D01*
X76699820Y-68499560D02*
X76301040Y-68199840D01*
X76301040Y-68199840D02*
X76199440Y-67699460D01*
X76199440Y-67699460D02*
X76199440Y-67399740D01*
X76199440Y-67399740D02*
X76400100Y-67100020D01*
X76400100Y-67100020D02*
X76900480Y-66899360D01*
X76900480Y-66899360D02*
X77400860Y-66701240D01*
X77400860Y-66701240D02*
X77799640Y-66398980D01*
X77799640Y-66398980D02*
X77901240Y-66099260D01*
X77901240Y-66099260D02*
X77700580Y-65799540D01*
X77700580Y-65799540D02*
X77299260Y-65499820D01*
X77299260Y-65499820D02*
X76699820Y-65499820D01*
X76699820Y-65499820D02*
X76301040Y-65598880D01*
X76301040Y-65598880D02*
X75998780Y-65700480D01*
X80100880Y-65598880D02*
X80400600Y-65598880D01*
X80400600Y-65598880D02*
X80799380Y-65901140D01*
X80799380Y-65901140D02*
X80900980Y-66398980D01*
X80900980Y-66398980D02*
X80900980Y-67199080D01*
X80900980Y-67199080D02*
X80799380Y-67699460D01*
X80799380Y-67699460D02*
X80601260Y-67999180D01*
X80601260Y-67999180D02*
X80199940Y-68199840D01*
X80199940Y-68199840D02*
X79801160Y-68199840D01*
X79801160Y-68199840D02*
X79399840Y-67900120D01*
X79399840Y-67900120D02*
X79199180Y-67199080D01*
X79199180Y-67199080D02*
X79199180Y-66398980D01*
X79199180Y-66398980D02*
X79399840Y-66000200D01*
X79399840Y-66000200D02*
X79600500Y-65799540D01*
X79600500Y-65799540D02*
X79999280Y-65598880D01*
X80100880Y-65299160D02*
X80499660Y-65400760D01*
X80499660Y-65400760D02*
X80799380Y-65499820D01*
X80799380Y-65499820D02*
X81099100Y-66000200D01*
X81099100Y-66000200D02*
X81200700Y-66599640D01*
X81200700Y-66599640D02*
X81099100Y-67699460D01*
X81099100Y-67699460D02*
X80799380Y-68298900D01*
X80799380Y-68298900D02*
X80199940Y-68499560D01*
X80199940Y-68499560D02*
X79498900Y-68400500D01*
X79498900Y-68400500D02*
X79100120Y-67801060D01*
X79100120Y-67801060D02*
X79001060Y-67100020D01*
X79001060Y-67100020D02*
X79001060Y-66398980D01*
X79001060Y-66398980D02*
X79199180Y-65799540D01*
X79199180Y-65799540D02*
X79600500Y-65400760D01*
X79600500Y-65400760D02*
X80100880Y-65299160D01*
X76699820Y-60201380D02*
X77200200Y-59800060D01*
X77200200Y-59800060D02*
X77598980Y-59299680D01*
X77598980Y-59299680D02*
X77799640Y-58799300D01*
X77799640Y-58799300D02*
X77799640Y-58100800D01*
X77799640Y-58100800D02*
X77698040Y-57501360D01*
X77698040Y-57501360D02*
X77299260Y-56899380D01*
X77299260Y-56899380D02*
X76499160Y-56299940D01*
X76499160Y-56299940D02*
X75699060Y-56200880D01*
X75699060Y-56200880D02*
X74998020Y-56200880D01*
X74998020Y-56200880D02*
X74299520Y-56701260D01*
X74299520Y-56701260D02*
X73799140Y-57399760D01*
X73799140Y-57399760D02*
X73598480Y-57999200D01*
X73598480Y-57999200D02*
X73598480Y-58700240D01*
X73598480Y-58700240D02*
X73898200Y-59500340D01*
X73898200Y-59500340D02*
X74398580Y-60000720D01*
X74398580Y-60000720D02*
X74698300Y-60201380D01*
X74698300Y-60300440D02*
X73949000Y-62550880D01*
X73949000Y-62550880D02*
X73098100Y-62101300D01*
X73098100Y-62101300D02*
X71800160Y-63099520D01*
X71800160Y-63099520D02*
X70799400Y-61999700D01*
X70799400Y-61999700D02*
X71698560Y-60699220D01*
X71698560Y-60699220D02*
X71198180Y-59401280D01*
X71198180Y-59401280D02*
X71198180Y-59200620D01*
X71198180Y-59200620D02*
X69597980Y-58900900D01*
X69597980Y-58900900D02*
X69597980Y-57399760D01*
X69597980Y-57399760D02*
X71198180Y-57201640D01*
X71198180Y-57201640D02*
X71800160Y-55799560D01*
X71800160Y-55799560D02*
X70898460Y-54400020D01*
X70898460Y-54400020D02*
X71998280Y-53399260D01*
X71998280Y-53399260D02*
X73298760Y-54300960D01*
X73298760Y-54300960D02*
X74500180Y-53800580D01*
X74500180Y-53800580D02*
X74898960Y-52200380D01*
X74898960Y-52200380D02*
X76400100Y-52200380D01*
X76400100Y-52200380D02*
X76699820Y-53800580D01*
X76699820Y-53800580D02*
X78000300Y-54300960D01*
X78000300Y-54300960D02*
X79399840Y-53300200D01*
X79399840Y-53300200D02*
X80499660Y-54400020D01*
X80499660Y-54400020D02*
X79498900Y-55700500D01*
X79498900Y-55700500D02*
X80199940Y-57201640D01*
X80199940Y-57201640D02*
X81800140Y-57399760D01*
X81800140Y-57399760D02*
X81899200Y-58799300D01*
X81899200Y-58799300D02*
X80299000Y-59101560D01*
X80299000Y-59101560D02*
X79699560Y-60699220D01*
X79699560Y-60699220D02*
X80598720Y-61999700D01*
X80598720Y-61999700D02*
X79597960Y-63099520D01*
X79597960Y-63099520D02*
X78300020Y-62200360D01*
X78300020Y-62200360D02*
X77598980Y-62500080D01*
X77598980Y-62500080D02*
X76699820Y-60201380D01*
X100300000Y-47600000D02*
X99600000Y-47600000D01*
X99600000Y-48800000D02*
X100300000Y-48800000D01*
X95600000Y-49200000D02*
X95600000Y-49900000D01*
X96800000Y-49900000D02*
X96800000Y-49200000D01*
X103330000Y-52260000D02*
X103330000Y-51560000D01*
X102130000Y-51560000D02*
X102130000Y-52260000D01*
X101600000Y-46100000D02*
X100900000Y-46100000D01*
X100900000Y-47300000D02*
X101600000Y-47300000D01*
X94100000Y-49200000D02*
X94100000Y-49900000D01*
X95300000Y-49900000D02*
X95300000Y-49200000D01*
X95500000Y-53900000D02*
X95500000Y-53200000D01*
X94300000Y-53200000D02*
X94300000Y-53900000D01*
X76000000Y-45725000D02*
X75000000Y-45725000D01*
X75000000Y-47075000D02*
X76000000Y-47075000D01*
X88150000Y-45475000D02*
X89150000Y-45475000D01*
X89150000Y-44125000D02*
X88150000Y-44125000D01*
X92300000Y-45475000D02*
X93300000Y-45475000D01*
X93300000Y-44125000D02*
X92300000Y-44125000D01*
D12*
G36*
X93697663Y-61155046D02*
X93450335Y-61513436D01*
X93510643Y-61882322D01*
X93494354Y-62333207D01*
X93368812Y-62475345D01*
X93196907Y-62838247D01*
X93199781Y-63447410D01*
X93338871Y-64088112D01*
X93575613Y-64545629D01*
X93758141Y-64643158D01*
X94091153Y-64780230D01*
X94124211Y-64877106D01*
X94324996Y-65102255D01*
X94797330Y-65104720D01*
X95346184Y-64923056D01*
X95776530Y-64595822D01*
X95814717Y-64542895D01*
X96300980Y-63559577D01*
X95443782Y-63559577D01*
X95099652Y-63787214D01*
X94746409Y-63791970D01*
X94178165Y-63617567D01*
X93922023Y-63373158D01*
X94036815Y-63089326D01*
X94251394Y-63038948D01*
X94541104Y-62906583D01*
X94508778Y-62744904D01*
X94504872Y-62592154D01*
X94894051Y-62754311D01*
X95381918Y-63168399D01*
X95443782Y-63559577D01*
X96300980Y-63559577D01*
X96344828Y-63470908D01*
X96384330Y-62593354D01*
X96242134Y-62370527D01*
X94124211Y-62370527D01*
X93990527Y-62504211D01*
X93856842Y-62370527D01*
X93990527Y-62236842D01*
X94124211Y-62370527D01*
X96242134Y-62370527D01*
X95924328Y-61872515D01*
X95053765Y-61316014D01*
X94265789Y-61076889D01*
X93697663Y-61155046D01*
X93697663Y-61155046D01*
G37*
X93697663Y-61155046D02*
X93450335Y-61513436D01*
X93510643Y-61882322D01*
X93494354Y-62333207D01*
X93368812Y-62475345D01*
X93196907Y-62838247D01*
X93199781Y-63447410D01*
X93338871Y-64088112D01*
X93575613Y-64545629D01*
X93758141Y-64643158D01*
X94091153Y-64780230D01*
X94124211Y-64877106D01*
X94324996Y-65102255D01*
X94797330Y-65104720D01*
X95346184Y-64923056D01*
X95776530Y-64595822D01*
X95814717Y-64542895D01*
X96300980Y-63559577D01*
X95443782Y-63559577D01*
X95099652Y-63787214D01*
X94746409Y-63791970D01*
X94178165Y-63617567D01*
X93922023Y-63373158D01*
X94036815Y-63089326D01*
X94251394Y-63038948D01*
X94541104Y-62906583D01*
X94508778Y-62744904D01*
X94504872Y-62592154D01*
X94894051Y-62754311D01*
X95381918Y-63168399D01*
X95443782Y-63559577D01*
X96300980Y-63559577D01*
X96344828Y-63470908D01*
X96384330Y-62593354D01*
X96242134Y-62370527D01*
X94124211Y-62370527D01*
X93990527Y-62504211D01*
X93856842Y-62370527D01*
X93990527Y-62236842D01*
X94124211Y-62370527D01*
X96242134Y-62370527D01*
X95924328Y-61872515D01*
X95053765Y-61316014D01*
X94265789Y-61076889D01*
X93697663Y-61155046D01*
G36*
X97598121Y-56976425D02*
X97372171Y-57431708D01*
X97141377Y-58294606D01*
X97361283Y-58913577D01*
X97970889Y-59330695D01*
X98391348Y-59642972D01*
X98719085Y-60073396D01*
X98860853Y-60457959D01*
X98723407Y-60632656D01*
X98711285Y-60632958D01*
X98413499Y-60791880D01*
X97896817Y-61185104D01*
X97758940Y-61301379D01*
X97201934Y-61733922D01*
X96805356Y-61959954D01*
X96756309Y-61969474D01*
X96536841Y-62174125D01*
X96530527Y-62236842D01*
X96734861Y-62476386D01*
X97267121Y-62443520D01*
X98006194Y-62156188D01*
X98341726Y-61968474D01*
X99005094Y-61618607D01*
X99517976Y-61440474D01*
X99580542Y-61434737D01*
X99927844Y-61678768D01*
X100175002Y-62321877D01*
X100270034Y-63208290D01*
X100513656Y-63718037D01*
X101145694Y-64039717D01*
X101638975Y-64104770D01*
X101740413Y-63862761D01*
X101851861Y-63224077D01*
X101949554Y-62325713D01*
X101951401Y-62303684D01*
X101998678Y-61132022D01*
X101965042Y-59924001D01*
X101863634Y-58821651D01*
X101707601Y-57967003D01*
X101510086Y-57502085D01*
X101506715Y-57498644D01*
X101173224Y-57493856D01*
X100566079Y-57715875D01*
X100265181Y-57868108D01*
X99224320Y-58438244D01*
X98688545Y-57530175D01*
X98236510Y-56860569D01*
X97902221Y-56678169D01*
X97598121Y-56976425D01*
X97598121Y-56976425D01*
G37*
X97598121Y-56976425D02*
X97372171Y-57431708D01*
X97141377Y-58294606D01*
X97361283Y-58913577D01*
X97970889Y-59330695D01*
X98391348Y-59642972D01*
X98719085Y-60073396D01*
X98860853Y-60457959D01*
X98723407Y-60632656D01*
X98711285Y-60632958D01*
X98413499Y-60791880D01*
X97896817Y-61185104D01*
X97758940Y-61301379D01*
X97201934Y-61733922D01*
X96805356Y-61959954D01*
X96756309Y-61969474D01*
X96536841Y-62174125D01*
X96530527Y-62236842D01*
X96734861Y-62476386D01*
X97267121Y-62443520D01*
X98006194Y-62156188D01*
X98341726Y-61968474D01*
X99005094Y-61618607D01*
X99517976Y-61440474D01*
X99580542Y-61434737D01*
X99927844Y-61678768D01*
X100175002Y-62321877D01*
X100270034Y-63208290D01*
X100513656Y-63718037D01*
X101145694Y-64039717D01*
X101638975Y-64104770D01*
X101740413Y-63862761D01*
X101851861Y-63224077D01*
X101949554Y-62325713D01*
X101951401Y-62303684D01*
X101998678Y-61132022D01*
X101965042Y-59924001D01*
X101863634Y-58821651D01*
X101707601Y-57967003D01*
X101510086Y-57502085D01*
X101506715Y-57498644D01*
X101173224Y-57493856D01*
X100566079Y-57715875D01*
X100265181Y-57868108D01*
X99224320Y-58438244D01*
X98688545Y-57530175D01*
X98236510Y-56860569D01*
X97902221Y-56678169D01*
X97598121Y-56976425D01*
D11*
X103366666Y-48757143D02*
X103414285Y-48804762D01*
X103557142Y-48852381D01*
X103652380Y-48852381D01*
X103795238Y-48804762D01*
X103890476Y-48709524D01*
X103938095Y-48614286D01*
X103985714Y-48423810D01*
X103985714Y-48280952D01*
X103938095Y-48090476D01*
X103890476Y-47995238D01*
X103795238Y-47900000D01*
X103652380Y-47852381D01*
X103557142Y-47852381D01*
X103414285Y-47900000D01*
X103366666Y-47947619D01*
X102985714Y-47947619D02*
X102938095Y-47900000D01*
X102842857Y-47852381D01*
X102604761Y-47852381D01*
X102509523Y-47900000D01*
X102461904Y-47947619D01*
X102414285Y-48042857D01*
X102414285Y-48138095D01*
X102461904Y-48280952D01*
X103033333Y-48852381D01*
X102414285Y-48852381D01*
X96657143Y-45533334D02*
X96704762Y-45485715D01*
X96752381Y-45342858D01*
X96752381Y-45247620D01*
X96704762Y-45104762D01*
X96609524Y-45009524D01*
X96514286Y-44961905D01*
X96323810Y-44914286D01*
X96180952Y-44914286D01*
X95990476Y-44961905D01*
X95895238Y-45009524D01*
X95800000Y-45104762D01*
X95752381Y-45247620D01*
X95752381Y-45342858D01*
X95800000Y-45485715D01*
X95847619Y-45533334D01*
X95752381Y-46438096D02*
X95752381Y-45961905D01*
X96228571Y-45914286D01*
X96180952Y-45961905D01*
X96133333Y-46057143D01*
X96133333Y-46295239D01*
X96180952Y-46390477D01*
X96228571Y-46438096D01*
X96323810Y-46485715D01*
X96561905Y-46485715D01*
X96657143Y-46438096D01*
X96704762Y-46390477D01*
X96752381Y-46295239D01*
X96752381Y-46057143D01*
X96704762Y-45961905D01*
X96657143Y-45914286D01*
X105842857Y-52267143D02*
X105890476Y-52314762D01*
X106033333Y-52362381D01*
X106128571Y-52362381D01*
X106271429Y-52314762D01*
X106366667Y-52219524D01*
X106414286Y-52124286D01*
X106461905Y-51933810D01*
X106461905Y-51790952D01*
X106414286Y-51600476D01*
X106366667Y-51505238D01*
X106271429Y-51410000D01*
X106128571Y-51362381D01*
X106033333Y-51362381D01*
X105890476Y-51410000D01*
X105842857Y-51457619D01*
X105461905Y-51457619D02*
X105414286Y-51410000D01*
X105319048Y-51362381D01*
X105080952Y-51362381D01*
X104985714Y-51410000D01*
X104938095Y-51457619D01*
X104890476Y-51552857D01*
X104890476Y-51648095D01*
X104938095Y-51790952D01*
X105509524Y-52362381D01*
X104890476Y-52362381D01*
X104509524Y-51457619D02*
X104461905Y-51410000D01*
X104366667Y-51362381D01*
X104128571Y-51362381D01*
X104033333Y-51410000D01*
X103985714Y-51457619D01*
X103938095Y-51552857D01*
X103938095Y-51648095D01*
X103985714Y-51790952D01*
X104557143Y-52362381D01*
X103938095Y-52362381D01*
X105542857Y-46957143D02*
X105590476Y-47004762D01*
X105733333Y-47052381D01*
X105828571Y-47052381D01*
X105971429Y-47004762D01*
X106066667Y-46909524D01*
X106114286Y-46814286D01*
X106161905Y-46623810D01*
X106161905Y-46480952D01*
X106114286Y-46290476D01*
X106066667Y-46195238D01*
X105971429Y-46100000D01*
X105828571Y-46052381D01*
X105733333Y-46052381D01*
X105590476Y-46100000D01*
X105542857Y-46147619D01*
X105161905Y-46147619D02*
X105114286Y-46100000D01*
X105019048Y-46052381D01*
X104780952Y-46052381D01*
X104685714Y-46100000D01*
X104638095Y-46147619D01*
X104590476Y-46242857D01*
X104590476Y-46338095D01*
X104638095Y-46480952D01*
X105209524Y-47052381D01*
X104590476Y-47052381D01*
X104257143Y-46052381D02*
X103590476Y-46052381D01*
X104019048Y-47052381D01*
X95157143Y-45257143D02*
X95204762Y-45209524D01*
X95252381Y-45066667D01*
X95252381Y-44971429D01*
X95204762Y-44828571D01*
X95109524Y-44733333D01*
X95014286Y-44685714D01*
X94823810Y-44638095D01*
X94680952Y-44638095D01*
X94490476Y-44685714D01*
X94395238Y-44733333D01*
X94300000Y-44828571D01*
X94252381Y-44971429D01*
X94252381Y-45066667D01*
X94300000Y-45209524D01*
X94347619Y-45257143D01*
X94347619Y-45638095D02*
X94300000Y-45685714D01*
X94252381Y-45780952D01*
X94252381Y-46019048D01*
X94300000Y-46114286D01*
X94347619Y-46161905D01*
X94442857Y-46209524D01*
X94538095Y-46209524D01*
X94680952Y-46161905D01*
X95252381Y-45590476D01*
X95252381Y-46209524D01*
X95252381Y-46685714D02*
X95252381Y-46876190D01*
X95204762Y-46971429D01*
X95157143Y-47019048D01*
X95014286Y-47114286D01*
X94823810Y-47161905D01*
X94442857Y-47161905D01*
X94347619Y-47114286D01*
X94300000Y-47066667D01*
X94252381Y-46971429D01*
X94252381Y-46780952D01*
X94300000Y-46685714D01*
X94347619Y-46638095D01*
X94442857Y-46590476D01*
X94680952Y-46590476D01*
X94776190Y-46638095D01*
X94823810Y-46685714D01*
X94871429Y-46780952D01*
X94871429Y-46971429D01*
X94823810Y-47066667D01*
X94776190Y-47114286D01*
X94680952Y-47161905D01*
X97842857Y-53957143D02*
X97890476Y-54004762D01*
X98033333Y-54052381D01*
X98128571Y-54052381D01*
X98271429Y-54004762D01*
X98366667Y-53909524D01*
X98414286Y-53814286D01*
X98461905Y-53623810D01*
X98461905Y-53480952D01*
X98414286Y-53290476D01*
X98366667Y-53195238D01*
X98271429Y-53100000D01*
X98128571Y-53052381D01*
X98033333Y-53052381D01*
X97890476Y-53100000D01*
X97842857Y-53147619D01*
X97509524Y-53052381D02*
X96890476Y-53052381D01*
X97223810Y-53433333D01*
X97080952Y-53433333D01*
X96985714Y-53480952D01*
X96938095Y-53528571D01*
X96890476Y-53623810D01*
X96890476Y-53861905D01*
X96938095Y-53957143D01*
X96985714Y-54004762D01*
X97080952Y-54052381D01*
X97366667Y-54052381D01*
X97461905Y-54004762D01*
X97509524Y-53957143D01*
X96271429Y-53052381D02*
X96176190Y-53052381D01*
X96080952Y-53100000D01*
X96033333Y-53147619D01*
X95985714Y-53242857D01*
X95938095Y-53433333D01*
X95938095Y-53671429D01*
X95985714Y-53861905D01*
X96033333Y-53957143D01*
X96080952Y-54004762D01*
X96176190Y-54052381D01*
X96271429Y-54052381D01*
X96366667Y-54004762D01*
X96414286Y-53957143D01*
X96461905Y-53861905D01*
X96509524Y-53671429D01*
X96509524Y-53433333D01*
X96461905Y-53242857D01*
X96414286Y-53147619D01*
X96366667Y-53100000D01*
X96271429Y-53052381D01*
X75666666Y-45352381D02*
X76000000Y-44876190D01*
X76238095Y-45352381D02*
X76238095Y-44352381D01*
X75857142Y-44352381D01*
X75761904Y-44400000D01*
X75714285Y-44447619D01*
X75666666Y-44542857D01*
X75666666Y-44685714D01*
X75714285Y-44780952D01*
X75761904Y-44828571D01*
X75857142Y-44876190D01*
X76238095Y-44876190D01*
X75333333Y-44352381D02*
X74714285Y-44352381D01*
X75047619Y-44733333D01*
X74904761Y-44733333D01*
X74809523Y-44780952D01*
X74761904Y-44828571D01*
X74714285Y-44923810D01*
X74714285Y-45161905D01*
X74761904Y-45257143D01*
X74809523Y-45304762D01*
X74904761Y-45352381D01*
X75190476Y-45352381D01*
X75285714Y-45304762D01*
X75333333Y-45257143D01*
X88816666Y-43352381D02*
X89150000Y-42876190D01*
X89388095Y-43352381D02*
X89388095Y-42352381D01*
X89007142Y-42352381D01*
X88911904Y-42400000D01*
X88864285Y-42447619D01*
X88816666Y-42542857D01*
X88816666Y-42685714D01*
X88864285Y-42780952D01*
X88911904Y-42828571D01*
X89007142Y-42876190D01*
X89388095Y-42876190D01*
X87959523Y-42685714D02*
X87959523Y-43352381D01*
X88197619Y-42304762D02*
X88435714Y-43019048D01*
X87816666Y-43019048D01*
X92966666Y-43352381D02*
X93300000Y-42876190D01*
X93538095Y-43352381D02*
X93538095Y-42352381D01*
X93157142Y-42352381D01*
X93061904Y-42400000D01*
X93014285Y-42447619D01*
X92966666Y-42542857D01*
X92966666Y-42685714D01*
X93014285Y-42780952D01*
X93061904Y-42828571D01*
X93157142Y-42876190D01*
X93538095Y-42876190D01*
X92395238Y-42780952D02*
X92490476Y-42733333D01*
X92538095Y-42685714D01*
X92585714Y-42590476D01*
X92585714Y-42542857D01*
X92538095Y-42447619D01*
X92490476Y-42400000D01*
X92395238Y-42352381D01*
X92204761Y-42352381D01*
X92109523Y-42400000D01*
X92061904Y-42447619D01*
X92014285Y-42542857D01*
X92014285Y-42590476D01*
X92061904Y-42685714D01*
X92109523Y-42733333D01*
X92204761Y-42780952D01*
X92395238Y-42780952D01*
X92490476Y-42828571D01*
X92538095Y-42876190D01*
X92585714Y-42971429D01*
X92585714Y-43161905D01*
X92538095Y-43257143D01*
X92490476Y-43304762D01*
X92395238Y-43352381D01*
X92204761Y-43352381D01*
X92109523Y-43304762D01*
X92061904Y-43257143D01*
X92014285Y-43161905D01*
X92014285Y-42971429D01*
X92061904Y-42876190D01*
X92109523Y-42828571D01*
X92204761Y-42780952D01*
M02*
