G04 #@! TF.FileFunction,Copper,L1,Top,Signal*
%FSLAX46Y46*%
G04 Gerber Fmt 4.6, Leading zero omitted, Abs format (unit mm)*
G04 Created by KiCad (PCBNEW 4.0.4-stable) date 05/18/17 09:07:34*
%MOMM*%
%LPD*%
G01*
G04 APERTURE LIST*
%ADD10C,0.100000*%
%ADD11R,2.199640X1.099820*%
%ADD12R,1.000760X1.000760*%
%ADD13R,1.051560X1.000760*%
%ADD14R,0.800000X0.350000*%
%ADD15R,0.350000X0.800000*%
%ADD16C,2.000000*%
%ADD17R,0.250000X1.000000*%
%ADD18R,1.000000X0.250000*%
%ADD19R,0.750000X1.200000*%
%ADD20R,0.900000X1.200000*%
%ADD21R,1.500000X1.300000*%
%ADD22R,1.200000X0.900000*%
%ADD23R,2.032000X2.032000*%
%ADD24O,2.032000X2.032000*%
%ADD25R,0.500000X0.600000*%
%ADD26R,0.600000X0.500000*%
%ADD27R,1.200000X0.750000*%
%ADD28R,1.198880X1.198880*%
%ADD29R,4.064000X1.524000*%
%ADD30R,1.727200X2.032000*%
%ADD31O,1.727200X2.032000*%
%ADD32R,1.727200X1.727200*%
%ADD33O,1.727200X1.727200*%
%ADD34R,1.600000X2.180000*%
%ADD35R,0.650000X0.300000*%
%ADD36C,1.500000*%
%ADD37R,1.550000X0.600000*%
%ADD38R,0.500380X2.301240*%
%ADD39R,1.998980X2.499360*%
%ADD40R,0.700000X0.250000*%
%ADD41R,0.250000X0.700000*%
%ADD42R,1.287500X1.287500*%
%ADD43R,2.100000X1.800000*%
%ADD44C,0.600000*%
%ADD45C,0.500000*%
%ADD46C,0.250000*%
%ADD47C,0.254000*%
G04 APERTURE END LIST*
D10*
D11*
X70000000Y-43300680D03*
X70000000Y-40400000D03*
D12*
X68498860Y-41850340D03*
D13*
X71501140Y-41850340D03*
D14*
X78600000Y-52050000D03*
X78600000Y-51400000D03*
X78600000Y-50750000D03*
X78600000Y-50100000D03*
D15*
X77275000Y-48775000D03*
X76625000Y-48775000D03*
X75975000Y-48775000D03*
X75325000Y-48775000D03*
D14*
X74000000Y-50100000D03*
X74000000Y-50750000D03*
X74000000Y-51400000D03*
X74000000Y-52050000D03*
D15*
X75325000Y-53375000D03*
X75975000Y-53375000D03*
X76625000Y-53375000D03*
X77275000Y-53375000D03*
D16*
X76300000Y-51075000D03*
D17*
X94770000Y-57200000D03*
X95270000Y-57200000D03*
X95770000Y-57200000D03*
X96270000Y-57200000D03*
X96770000Y-57200000D03*
X97270000Y-57200000D03*
X97770000Y-57200000D03*
X98270000Y-57200000D03*
X98770000Y-57200000D03*
X99270000Y-57200000D03*
X99770000Y-57200000D03*
X100270000Y-57200000D03*
X100770000Y-57200000D03*
X101270000Y-57200000D03*
X101770000Y-57200000D03*
X102270000Y-57200000D03*
D18*
X104220000Y-55250000D03*
X104220000Y-54750000D03*
X104220000Y-54250000D03*
X104220000Y-53750000D03*
X104220000Y-53250000D03*
X104220000Y-52750000D03*
X104220000Y-52250000D03*
X104220000Y-51750000D03*
X104220000Y-51250000D03*
X104220000Y-50750000D03*
X104220000Y-50250000D03*
X104220000Y-49750000D03*
X104220000Y-49250000D03*
X104220000Y-48750000D03*
X104220000Y-48250000D03*
X104220000Y-47750000D03*
D17*
X102270000Y-45800000D03*
X101770000Y-45800000D03*
X101270000Y-45800000D03*
X100770000Y-45800000D03*
X100270000Y-45800000D03*
X99770000Y-45800000D03*
X99270000Y-45800000D03*
X98770000Y-45800000D03*
X98270000Y-45800000D03*
X97770000Y-45800000D03*
X97270000Y-45800000D03*
X96770000Y-45800000D03*
X96270000Y-45800000D03*
X95770000Y-45800000D03*
X95270000Y-45800000D03*
X94770000Y-45800000D03*
D18*
X92820000Y-47750000D03*
X92820000Y-48250000D03*
X92820000Y-48750000D03*
X92820000Y-49250000D03*
X92820000Y-49750000D03*
X92820000Y-50250000D03*
X92820000Y-50750000D03*
X92820000Y-51250000D03*
X92820000Y-51750000D03*
X92820000Y-52250000D03*
X92820000Y-52750000D03*
X92820000Y-53250000D03*
X92820000Y-53750000D03*
X92820000Y-54250000D03*
X92820000Y-54750000D03*
X92820000Y-55250000D03*
D19*
X106800000Y-55300000D03*
X106800000Y-57200000D03*
D20*
X106320000Y-61680000D03*
X106320000Y-59480000D03*
D21*
X73000000Y-66800000D03*
X70300000Y-66800000D03*
D22*
X108600000Y-49800000D03*
X110800000Y-49800000D03*
D23*
X65900000Y-66900000D03*
D24*
X65900000Y-64360000D03*
D19*
X88100000Y-58700000D03*
X88100000Y-56800000D03*
D25*
X69013500Y-52700000D03*
X69013500Y-51600000D03*
D19*
X71800000Y-46300000D03*
X71800000Y-48200000D03*
X73100000Y-46300000D03*
X73100000Y-48200000D03*
D25*
X70700000Y-52700000D03*
X70700000Y-51600000D03*
D26*
X71900000Y-51400000D03*
X70800000Y-51400000D03*
D19*
X75000000Y-55600000D03*
X75000000Y-57500000D03*
X73500000Y-55600000D03*
X73500000Y-57500000D03*
X78200000Y-55600000D03*
X78200000Y-57500000D03*
X79700000Y-55600000D03*
X79700000Y-57500000D03*
D27*
X79950000Y-46900000D03*
X78050000Y-46900000D03*
X81100000Y-45600000D03*
X79200000Y-45600000D03*
D19*
X83100000Y-56300000D03*
X83100000Y-58200000D03*
X84700000Y-56300000D03*
X84700000Y-58200000D03*
X79260000Y-41300000D03*
X79260000Y-43200000D03*
X87600000Y-40600000D03*
X87600000Y-42500000D03*
D27*
X89800000Y-45300000D03*
X87900000Y-45300000D03*
D19*
X90600000Y-55500000D03*
X90600000Y-57400000D03*
D27*
X75800000Y-66900000D03*
X77700000Y-66900000D03*
X83200000Y-62300000D03*
X85100000Y-62300000D03*
D19*
X89800000Y-60800000D03*
X89800000Y-62700000D03*
D27*
X81200000Y-60700000D03*
X79300000Y-60700000D03*
D19*
X101500000Y-60100000D03*
X101500000Y-62000000D03*
X88000000Y-60750000D03*
X88000000Y-62650000D03*
D27*
X75500000Y-60700000D03*
X77400000Y-60700000D03*
D19*
X71600000Y-60700000D03*
X71600000Y-62600000D03*
D28*
X92000000Y-61800000D03*
X92000000Y-63898040D03*
D25*
X69013500Y-50181000D03*
X69013500Y-51281000D03*
D26*
X69400000Y-51408000D03*
X70500000Y-51408000D03*
D27*
X83200000Y-60700000D03*
X85100000Y-60700000D03*
D29*
X65059000Y-51427000D03*
X65059000Y-48887000D03*
X65059000Y-53967000D03*
D11*
X75098860Y-43300680D03*
X75098860Y-40400000D03*
D12*
X73597720Y-41850340D03*
D13*
X76600000Y-41850340D03*
D30*
X104180000Y-42200000D03*
D31*
X101640000Y-42200000D03*
X99100000Y-42200000D03*
D30*
X95480000Y-42200000D03*
D31*
X92940000Y-42200000D03*
X90400000Y-42200000D03*
D32*
X107800000Y-42200000D03*
D33*
X110340000Y-42200000D03*
X107800000Y-44740000D03*
X110340000Y-44740000D03*
X107800000Y-47280000D03*
X110340000Y-47280000D03*
D20*
X106600000Y-51100000D03*
X106600000Y-53300000D03*
X76600000Y-55600000D03*
X76600000Y-57800000D03*
X104890000Y-61680000D03*
X104890000Y-59480000D03*
X73300000Y-60400000D03*
X73300000Y-62600000D03*
X69900000Y-62600000D03*
X69900000Y-60400000D03*
X92000000Y-65900000D03*
X92000000Y-68100000D03*
X94000000Y-65900000D03*
X94000000Y-68100000D03*
X96000000Y-65900000D03*
X96000000Y-68100000D03*
X98000000Y-65900000D03*
X98000000Y-68100000D03*
D34*
X110297680Y-62202430D03*
X110302320Y-52997570D03*
D35*
X78850000Y-64900000D03*
X78850000Y-64400000D03*
X78850000Y-63900000D03*
X78850000Y-63400000D03*
X78850000Y-62900000D03*
X75350000Y-62900000D03*
X75350000Y-63400000D03*
X75350000Y-63900000D03*
X75350000Y-64400000D03*
X75350000Y-64900000D03*
D36*
X77100000Y-63900000D03*
D11*
X65500000Y-45600680D03*
X65500000Y-42700000D03*
D12*
X63998860Y-44150340D03*
D13*
X67001140Y-44150340D03*
D28*
X94000000Y-61801960D03*
X94000000Y-63900000D03*
X96000000Y-61800000D03*
X96000000Y-63898040D03*
X98000000Y-61800000D03*
X98000000Y-63898040D03*
X80200000Y-67401960D03*
X80200000Y-69500000D03*
D22*
X78000000Y-69500000D03*
X75800000Y-69500000D03*
D37*
X82670000Y-64845000D03*
X82670000Y-66115000D03*
X82670000Y-67385000D03*
X82670000Y-68655000D03*
X89670000Y-68655000D03*
X89670000Y-67385000D03*
X89670000Y-66115000D03*
X89670000Y-64845000D03*
D38*
X104399800Y-64550680D03*
X105199900Y-64550680D03*
X106000000Y-64550680D03*
X106800100Y-64550680D03*
X107600200Y-64550680D03*
D39*
X101549920Y-65649740D03*
X101549920Y-71148840D03*
X110450080Y-65649740D03*
X110450080Y-71148840D03*
D40*
X81600000Y-47740000D03*
X81600000Y-48240000D03*
X81600000Y-48740000D03*
X81600000Y-49240000D03*
X81600000Y-49740000D03*
X81600000Y-50240000D03*
X81600000Y-50740000D03*
X81600000Y-51240000D03*
X81600000Y-51740000D03*
X81600000Y-52240000D03*
X81600000Y-52740000D03*
X81600000Y-53240000D03*
D41*
X82550000Y-54190000D03*
X83050000Y-54190000D03*
X83550000Y-54190000D03*
X84050000Y-54190000D03*
X84550000Y-54190000D03*
X85050000Y-54190000D03*
X85550000Y-54190000D03*
X86050000Y-54190000D03*
X86550000Y-54190000D03*
X87050000Y-54190000D03*
X87550000Y-54190000D03*
X88050000Y-54190000D03*
D40*
X89000000Y-53240000D03*
X89000000Y-52740000D03*
X89000000Y-52240000D03*
X89000000Y-51740000D03*
X89000000Y-51240000D03*
X89000000Y-50740000D03*
X89000000Y-50240000D03*
X89000000Y-49740000D03*
X89000000Y-49240000D03*
X89000000Y-48740000D03*
X89000000Y-48240000D03*
X89000000Y-47740000D03*
D41*
X88050000Y-46790000D03*
X87550000Y-46790000D03*
X87050000Y-46790000D03*
X86550000Y-46790000D03*
X86050000Y-46790000D03*
X85550000Y-46790000D03*
X85050000Y-46790000D03*
X84550000Y-46790000D03*
X84050000Y-46790000D03*
X83550000Y-46790000D03*
X83050000Y-46790000D03*
X82550000Y-46790000D03*
D42*
X85943750Y-51133750D03*
X85943750Y-49846250D03*
X84656250Y-51133750D03*
X84656250Y-49846250D03*
D43*
X82070000Y-43210000D03*
X84970000Y-43210000D03*
X84970000Y-40910000D03*
X82070000Y-40910000D03*
D44*
X84200000Y-43600000D03*
X84900000Y-44200000D03*
X84970000Y-43210000D03*
X90500000Y-47470000D03*
X80340000Y-40480000D03*
X71800000Y-44700000D03*
X105700000Y-48000000D03*
X105700000Y-46800000D03*
X109000000Y-39800000D03*
X106400000Y-39800000D03*
X98400000Y-39800000D03*
X103046000Y-39800000D03*
X88800000Y-42100000D03*
X90500000Y-46600000D03*
X94000000Y-39800000D03*
X92000000Y-39900000D03*
X90300000Y-39900000D03*
X88800000Y-40200000D03*
X69400000Y-46400000D03*
X77600000Y-40300000D03*
X67400000Y-40400000D03*
X72500000Y-40300000D03*
X69300000Y-44700000D03*
X109700000Y-57700000D03*
X108425000Y-57600000D03*
X108400000Y-59100000D03*
X109700000Y-59100000D03*
X110900000Y-59100000D03*
X110900000Y-57800000D03*
X110900000Y-56400000D03*
X109700000Y-56400000D03*
X108500000Y-56400000D03*
X100000000Y-63400000D03*
X100000000Y-62100000D03*
X100000000Y-60900000D03*
X100000000Y-59800000D03*
X108500000Y-66500000D03*
X106700000Y-67300000D03*
X106700000Y-68800000D03*
X106700000Y-70200000D03*
X107800000Y-71800000D03*
X106300000Y-71800000D03*
X104900000Y-71800000D03*
X97500000Y-71400000D03*
X96400000Y-71400000D03*
X95200000Y-71400000D03*
X94000000Y-71400000D03*
X92800000Y-71400000D03*
X89100000Y-55500000D03*
X82900000Y-59300000D03*
X83900000Y-59300000D03*
X78725000Y-61900000D03*
X77100000Y-62300000D03*
X77100000Y-63900000D03*
X88900000Y-63700000D03*
X90600000Y-63700000D03*
X87200000Y-63700000D03*
X78300000Y-68000000D03*
X74400000Y-59000000D03*
X75500000Y-59200000D03*
X79500000Y-59200000D03*
X78000000Y-59100000D03*
X71800000Y-57500000D03*
X70600000Y-57500000D03*
X84656250Y-51133750D03*
X85943750Y-51133750D03*
X85943750Y-49846250D03*
X84656250Y-49846250D03*
X67200000Y-48900000D03*
X99100000Y-53500000D03*
X98300000Y-52700000D03*
X97600000Y-52000000D03*
X96800000Y-51200000D03*
X96200000Y-51800000D03*
X99700000Y-51100000D03*
X99000000Y-50600000D03*
X98230000Y-49870000D03*
X97600000Y-47100000D03*
X97600000Y-48100000D03*
X97530000Y-49190000D03*
X67900000Y-53700000D03*
X72700000Y-52700000D03*
X70400000Y-48900000D03*
X71700000Y-50000000D03*
X70400000Y-50000000D03*
X69000000Y-48900000D03*
X67600000Y-52700000D03*
X66600000Y-52700000D03*
X64200000Y-52700000D03*
X65000000Y-52700000D03*
X66600000Y-50100000D03*
X65200000Y-50100000D03*
X64200000Y-50100000D03*
X96000000Y-52600000D03*
X74700000Y-45325000D03*
X65100000Y-58000000D03*
X64100000Y-58000000D03*
X65900000Y-58000000D03*
X67500000Y-58000000D03*
X65900000Y-59300000D03*
X65900000Y-61400000D03*
X67300000Y-46950000D03*
X66550000Y-46950000D03*
X65300000Y-46950000D03*
X63880000Y-47000000D03*
X75580000Y-51620000D03*
X77000000Y-50300000D03*
X75545000Y-50320000D03*
X76960000Y-51560000D03*
X76240000Y-50940000D03*
X72000000Y-53200000D03*
X70600000Y-53800000D03*
X69000000Y-53800000D03*
X67900000Y-55100000D03*
X64100000Y-55900000D03*
X67000000Y-55900000D03*
X66000000Y-55900000D03*
X65100000Y-55900000D03*
X101440000Y-55580000D03*
X108000000Y-53300000D03*
X102200000Y-48200000D03*
X95500000Y-47400000D03*
X71300000Y-59200000D03*
X89100000Y-54199999D03*
X80625000Y-62700000D03*
X72800000Y-49700000D03*
X78000000Y-54300000D03*
X74200000Y-55600000D03*
X74200000Y-48200000D03*
X81200000Y-56100000D03*
X81200000Y-59100000D03*
X82500000Y-45300000D03*
X85900000Y-48200000D03*
X85700000Y-53000000D03*
X84200000Y-52700000D03*
X81400000Y-63300000D03*
X88100000Y-52700000D03*
X80000000Y-47900000D03*
X83100000Y-52700000D03*
X84600000Y-48200000D03*
X82050000Y-56700000D03*
X82050000Y-62450000D03*
X84300000Y-67390000D03*
X88040000Y-64810000D03*
X101500000Y-58700000D03*
X103400000Y-46700000D03*
X94645863Y-55654137D03*
X94645863Y-47202849D03*
X92800000Y-56300000D03*
X91400000Y-59700000D03*
X102800000Y-54200000D03*
X75800000Y-68400000D03*
X105000000Y-70300000D03*
X95566000Y-55664000D03*
X76700000Y-47400000D03*
X83300000Y-45700000D03*
X105990000Y-58400000D03*
X104400000Y-58000000D03*
X91400000Y-53500000D03*
X96366003Y-55664000D03*
X75900000Y-47400000D03*
X91600000Y-56500000D03*
X86100000Y-56500000D03*
X101580000Y-53220000D03*
X87040000Y-67400000D03*
X101130000Y-52350000D03*
X83990000Y-66180000D03*
X100360000Y-51710000D03*
X84680000Y-65070000D03*
X83000000Y-48200000D03*
X77400000Y-43100000D03*
X72900000Y-43400000D03*
X83000000Y-49200000D03*
X84380000Y-64090000D03*
X97330000Y-55690000D03*
D45*
X70300000Y-66800000D02*
X66000000Y-66800000D01*
X66000000Y-66800000D02*
X65900000Y-66900000D01*
D46*
X88800000Y-40200000D02*
X88000000Y-40200000D01*
X88000000Y-40200000D02*
X87600000Y-40600000D01*
X90400000Y-42047600D02*
X90400000Y-42200000D01*
X90500000Y-46600000D02*
X90500000Y-47470000D01*
X80340000Y-40480000D02*
X81640000Y-40480000D01*
X81640000Y-40480000D02*
X82070000Y-40910000D01*
X77600000Y-40300000D02*
X80160000Y-40300000D01*
X80160000Y-40300000D02*
X80340000Y-40480000D01*
X79260000Y-41300000D02*
X78600000Y-41300000D01*
X78600000Y-41300000D02*
X77600000Y-40300000D01*
X79260000Y-41300000D02*
X81680000Y-41300000D01*
X81680000Y-41300000D02*
X82070000Y-40910000D01*
X69300000Y-44700000D02*
X69300000Y-44000680D01*
X69300000Y-44000680D02*
X70000000Y-43300680D01*
X68498860Y-41850340D02*
X68498860Y-43149360D01*
X68498860Y-43149360D02*
X68650180Y-43300680D01*
X68650180Y-43300680D02*
X70000000Y-43300680D01*
X69300000Y-44700000D02*
X69300000Y-46300000D01*
X69300000Y-46300000D02*
X69400000Y-46400000D01*
X71800000Y-46300000D02*
X71800000Y-44700000D01*
X71800000Y-44700000D02*
X71800000Y-44550770D01*
X69300000Y-44700000D02*
X71800000Y-44700000D01*
X69300000Y-44700000D02*
X69300000Y-44000000D01*
X105700000Y-46800000D02*
X105700000Y-48000000D01*
X103046000Y-39800000D02*
X106400000Y-39800000D01*
X94000000Y-39800000D02*
X98400000Y-39800000D01*
X103046000Y-39800000D02*
X98400000Y-39800000D01*
X104180000Y-42200000D02*
X104180000Y-40934000D01*
X104180000Y-40934000D02*
X103046000Y-39800000D01*
X66100000Y-41300090D02*
X65700090Y-41700000D01*
X65700090Y-41700000D02*
X65500000Y-41900090D01*
X65700090Y-41675646D02*
X65700090Y-41700000D01*
X67400000Y-40400000D02*
X66975736Y-40400000D01*
X66975736Y-40400000D02*
X65700090Y-41675646D01*
X70000000Y-40400000D02*
X67400000Y-40400000D01*
X72500000Y-40300000D02*
X70100000Y-40300000D01*
X70100000Y-40300000D02*
X70000000Y-40400000D01*
X75098860Y-40400000D02*
X72600000Y-40400000D01*
X72600000Y-40400000D02*
X72500000Y-40300000D01*
X77600000Y-40300000D02*
X75198860Y-40300000D01*
X75198860Y-40300000D02*
X75098860Y-40400000D01*
X88800000Y-40200000D02*
X88800000Y-42100000D01*
X90400000Y-42200000D02*
X90400000Y-40000000D01*
X90400000Y-40000000D02*
X90300000Y-39900000D01*
X89800000Y-45300000D02*
X89800000Y-45900000D01*
X89800000Y-45900000D02*
X90500000Y-46600000D01*
X92647600Y-39800000D02*
X94000000Y-39800000D01*
X92000000Y-39900000D02*
X93900000Y-39900000D01*
X93900000Y-39900000D02*
X94000000Y-39800000D01*
X90300000Y-39900000D02*
X92000000Y-39900000D01*
X88800000Y-40200000D02*
X90000000Y-40200000D01*
X90000000Y-40200000D02*
X90300000Y-39900000D01*
X69000000Y-46800000D02*
X69400000Y-46400000D01*
X69400000Y-46400000D02*
X69500000Y-46300000D01*
X70400000Y-48900000D02*
X70400000Y-47400000D01*
X70400000Y-47400000D02*
X69400000Y-46400000D01*
X67300000Y-40300000D02*
X67400000Y-40400000D01*
X108425000Y-57600000D02*
X109600000Y-57600000D01*
X109600000Y-57600000D02*
X109700000Y-57700000D01*
X108425000Y-58200000D02*
X108425000Y-57600000D01*
X108425000Y-57600000D02*
X108425000Y-56475000D01*
X108400000Y-59100000D02*
X108400000Y-57625000D01*
X108400000Y-57625000D02*
X108425000Y-57600000D01*
X109700000Y-59100000D02*
X108400000Y-59100000D01*
X110900000Y-59100000D02*
X109700000Y-59100000D01*
X110900000Y-57800000D02*
X110900000Y-59100000D01*
X110900000Y-56400000D02*
X110900000Y-57800000D01*
X109700000Y-56400000D02*
X110900000Y-56400000D01*
X108500000Y-56400000D02*
X109700000Y-56400000D01*
X108425000Y-58200000D02*
X110450080Y-60225080D01*
X107425000Y-57200000D02*
X108425000Y-58200000D01*
X108425000Y-56475000D02*
X108500000Y-56400000D01*
X100000000Y-62100000D02*
X100000000Y-63400000D01*
X100000000Y-60900000D02*
X100000000Y-62100000D01*
X100000000Y-59800000D02*
X100000000Y-60900000D01*
X100270000Y-59900000D02*
X100270000Y-57200000D01*
X100270000Y-62770000D02*
X100270000Y-59900000D01*
X100270000Y-59900000D02*
X100100000Y-59900000D01*
X100100000Y-59900000D02*
X100000000Y-59800000D01*
X106700000Y-68800000D02*
X106700000Y-67300000D01*
X106700000Y-70200000D02*
X106700000Y-68800000D01*
X106300000Y-71800000D02*
X107800000Y-71800000D01*
X104900000Y-71800000D02*
X106300000Y-71800000D01*
X101549920Y-71148840D02*
X104248840Y-71148840D01*
X104248840Y-71148840D02*
X104900000Y-71800000D01*
X96400000Y-71400000D02*
X97500000Y-71400000D01*
X95200000Y-71400000D02*
X96400000Y-71400000D01*
X94000000Y-71400000D02*
X95200000Y-71400000D01*
X92800000Y-71400000D02*
X94000000Y-71400000D01*
X92000000Y-72020000D02*
X92180000Y-72020000D01*
X92180000Y-72020000D02*
X92800000Y-71400000D01*
X88560000Y-55300000D02*
X88900000Y-55300000D01*
X88900000Y-55300000D02*
X89100000Y-55500000D01*
X83900000Y-59300000D02*
X82900000Y-59300000D01*
X83900000Y-58200000D02*
X83100000Y-58200000D01*
X84700000Y-58200000D02*
X83900000Y-58200000D01*
X83900000Y-58200000D02*
X83900000Y-59300000D01*
X78850000Y-61925000D02*
X78725000Y-61900000D01*
X78725000Y-61900000D02*
X77625000Y-60700000D01*
X78850000Y-62900000D02*
X77700000Y-62900000D01*
X77700000Y-62900000D02*
X77100000Y-62300000D01*
X78850000Y-62900000D02*
X78100000Y-62900000D01*
X78100000Y-62900000D02*
X77100000Y-63900000D01*
X88900000Y-62700000D02*
X88050000Y-62700000D01*
X89800000Y-62700000D02*
X88900000Y-62700000D01*
X88900000Y-62700000D02*
X88900000Y-63700000D01*
X89800000Y-62700000D02*
X89800000Y-62900000D01*
X89800000Y-62900000D02*
X90600000Y-63700000D01*
X88000000Y-62650000D02*
X88000000Y-62900000D01*
X88000000Y-62900000D02*
X87200000Y-63700000D01*
X77700000Y-66900000D02*
X77700000Y-67400000D01*
X77700000Y-67400000D02*
X78300000Y-68000000D01*
X77400000Y-60700000D02*
X77400000Y-59700000D01*
X77400000Y-59700000D02*
X78000000Y-59100000D01*
X71400000Y-57500000D02*
X71800000Y-57500000D01*
X71800000Y-57500000D02*
X73500000Y-57500000D01*
X70600000Y-57500000D02*
X71800000Y-57500000D01*
X69900000Y-60400000D02*
X69900000Y-58200000D01*
X69900000Y-58200000D02*
X70600000Y-57500000D01*
X74925000Y-70300000D02*
X74825000Y-70400000D01*
X74925000Y-70300000D02*
X74925000Y-70225000D01*
X77700000Y-67525000D02*
X74925000Y-70300000D01*
X74925000Y-70225000D02*
X75650000Y-69500000D01*
X75650000Y-69500000D02*
X75800000Y-69500000D01*
X73600000Y-70400000D02*
X70500000Y-70400000D01*
X77700000Y-66900000D02*
X77700000Y-67525000D01*
X74825000Y-70400000D02*
X73600000Y-70400000D01*
X78525000Y-66300000D02*
X80325000Y-64500000D01*
X78525000Y-66300000D02*
X78300000Y-66300000D01*
X78300000Y-66300000D02*
X77700000Y-66900000D01*
X82720009Y-63200000D02*
X83820000Y-63200000D01*
X80325000Y-64500000D02*
X81420009Y-64500000D01*
X81420009Y-64500000D02*
X82720009Y-63200000D01*
X87400000Y-52900000D02*
X87200000Y-52700000D01*
X87200000Y-52700000D02*
X87050000Y-52550000D01*
X87550000Y-54190000D02*
X87550000Y-53050000D01*
X87550000Y-53050000D02*
X87200000Y-52700000D01*
X88050000Y-54190000D02*
X88050000Y-53575002D01*
X88050000Y-53575002D02*
X87400000Y-52925002D01*
X87400000Y-52925002D02*
X87400000Y-52900000D01*
X88050000Y-54190000D02*
X88050000Y-53590000D01*
X87050000Y-53000000D02*
X87050000Y-54190000D01*
X87050000Y-52550000D02*
X87050000Y-53000000D01*
X88100000Y-55300000D02*
X88560000Y-55300000D01*
X87800000Y-55300000D02*
X88100000Y-55300000D01*
X88100000Y-55300000D02*
X88050000Y-55250000D01*
X88050000Y-55250000D02*
X88050000Y-54190000D01*
X87560000Y-55300000D02*
X87550000Y-55290000D01*
X87550000Y-55290000D02*
X87550000Y-54190000D01*
X85943750Y-51443750D02*
X87050000Y-52550000D01*
X85943750Y-51133750D02*
X85943750Y-51443750D01*
X87700000Y-55300000D02*
X87800000Y-55300000D01*
X87050000Y-54190000D02*
X87050000Y-54790000D01*
X87050000Y-54790000D02*
X87560000Y-55300000D01*
X87560000Y-55300000D02*
X87800000Y-55300000D01*
X88560000Y-55300000D02*
X89200000Y-55940000D01*
X87050000Y-54190000D02*
X87050000Y-53465000D01*
X68498860Y-40401140D02*
X68500000Y-40400000D01*
X68500000Y-40400000D02*
X70000000Y-40400000D01*
X68498860Y-41850340D02*
X68498860Y-40401140D01*
X90400000Y-42200000D02*
X90400000Y-40934000D01*
X70500000Y-70400000D02*
X66960000Y-70400000D01*
X63433160Y-69053160D02*
X64780000Y-70400000D01*
X64780000Y-70400000D02*
X66960000Y-70400000D01*
X63433160Y-65390000D02*
X63433160Y-69053160D01*
X65900000Y-64360000D02*
X64463160Y-64360000D01*
X64463160Y-64360000D02*
X63433160Y-65390000D01*
X75545000Y-50320000D02*
X76980000Y-50320000D01*
X76980000Y-50320000D02*
X77000000Y-50300000D01*
X75580000Y-51620000D02*
X75580000Y-51600000D01*
X75580000Y-51600000D02*
X76240000Y-50940000D01*
X107600200Y-64550680D02*
X109351020Y-64550680D01*
X109351020Y-64550680D02*
X110450080Y-65649740D01*
X106800100Y-64550680D02*
X107600200Y-64550680D01*
X75975000Y-53375000D02*
X75975000Y-52015000D01*
X75975000Y-52015000D02*
X75580000Y-51620000D01*
X76240000Y-50940000D02*
X76165000Y-50940000D01*
X76165000Y-50940000D02*
X75545000Y-50320000D01*
X76960000Y-51560000D02*
X76860000Y-51560000D01*
X76860000Y-51560000D02*
X76240000Y-50940000D01*
X76240000Y-50940000D02*
X76360000Y-50940000D01*
X76360000Y-50940000D02*
X77000000Y-50300000D01*
X74000000Y-52050000D02*
X75150000Y-52050000D01*
X75150000Y-52050000D02*
X75580000Y-51620000D01*
X97600000Y-52000000D02*
X96800000Y-51200000D01*
X99100000Y-53500000D02*
X98300000Y-52700000D01*
X67900000Y-53700000D02*
X68013500Y-53700000D01*
X68013500Y-53700000D02*
X69013500Y-52700000D01*
X65059000Y-53967000D02*
X67633000Y-53967000D01*
X67633000Y-53967000D02*
X67900000Y-53700000D01*
X97600000Y-52000000D02*
X98300000Y-52700000D01*
X83975000Y-63200000D02*
X83820000Y-63200000D01*
X83820000Y-63200000D02*
X82711410Y-63200000D01*
X91920000Y-72100000D02*
X99349270Y-72100000D01*
X82280000Y-72100000D02*
X91920000Y-72100000D01*
X91920000Y-72100000D02*
X92000000Y-72020000D01*
X92000000Y-72020000D02*
X92000000Y-68100000D01*
X72200000Y-72100000D02*
X82280000Y-72100000D01*
X82280000Y-72100000D02*
X82400000Y-71980000D01*
X82400000Y-71980000D02*
X82400000Y-68665000D01*
X71070000Y-70970000D02*
X70500000Y-70400000D01*
X71248840Y-71148840D02*
X71070000Y-70970000D01*
X71070000Y-70970000D02*
X72200000Y-72100000D01*
X99349270Y-72100000D02*
X100300430Y-71148840D01*
X100300430Y-71148840D02*
X101549920Y-71148840D01*
X77670000Y-66930000D02*
X77700000Y-66900000D01*
X67900000Y-55100000D02*
X67900000Y-53700000D01*
X70700000Y-52700000D02*
X72700000Y-52700000D01*
X72700000Y-52700000D02*
X73125000Y-52700000D01*
X72000000Y-53200000D02*
X72200000Y-53200000D01*
X72200000Y-53200000D02*
X72700000Y-52700000D01*
X69000000Y-49617500D02*
X69000000Y-48900000D01*
X69000000Y-48900000D02*
X69000000Y-46800000D01*
X84875000Y-62300000D02*
X83975000Y-63200000D01*
X92820000Y-54750000D02*
X93850000Y-54750000D01*
X93850000Y-54750000D02*
X96000000Y-52600000D01*
X89200000Y-56900000D02*
X89700000Y-57400000D01*
X89700000Y-57400000D02*
X90600000Y-57400000D01*
X89200000Y-55940000D02*
X89200000Y-56900000D01*
X87550000Y-54190000D02*
X87550000Y-53965000D01*
X79036410Y-48500000D02*
X79025000Y-48500000D01*
X79025000Y-48500000D02*
X78050000Y-47525000D01*
X78050000Y-47525000D02*
X78050000Y-46900000D01*
X81600000Y-49740000D02*
X80276410Y-49740000D01*
X80276410Y-49740000D02*
X79036410Y-48500000D01*
X85100000Y-62300000D02*
X84875000Y-62300000D01*
X101549920Y-71148840D02*
X102799410Y-71148840D01*
X102799410Y-71148840D02*
X110450080Y-71148840D01*
X101500000Y-62000000D02*
X101500000Y-65599820D01*
X101500000Y-65599820D02*
X101549920Y-65649740D01*
X101549920Y-65649740D02*
X101549920Y-64049920D01*
X101549920Y-64049920D02*
X100270000Y-62770000D01*
X104220000Y-54750000D02*
X105350000Y-54750000D01*
X105350000Y-54750000D02*
X105700000Y-55100000D01*
X105700000Y-55100000D02*
X105700000Y-56725000D01*
X105700000Y-56725000D02*
X106175000Y-57200000D01*
X106175000Y-57200000D02*
X106800000Y-57200000D01*
X90400000Y-42047600D02*
X92647600Y-39800000D01*
X74700000Y-45325000D02*
X78925000Y-45325000D01*
X78925000Y-45325000D02*
X79200000Y-45600000D01*
X75098860Y-44926140D02*
X74700000Y-45325000D01*
X74700000Y-45325000D02*
X73725000Y-46300000D01*
X75098860Y-43300680D02*
X75098860Y-44926140D01*
X73725000Y-46300000D02*
X73100000Y-46300000D01*
X107800000Y-47280000D02*
X110340000Y-47280000D01*
X104180000Y-42200000D02*
X104180000Y-43660000D01*
X104180000Y-43660000D02*
X107800000Y-47280000D01*
X110450080Y-65649740D02*
X110450080Y-63400000D01*
X110450080Y-63400000D02*
X110450080Y-62354830D01*
X106800000Y-57200000D02*
X107425000Y-57200000D01*
X110450080Y-60225080D02*
X110450080Y-63400000D01*
X84656250Y-51133750D02*
X85943750Y-51133750D01*
X84656250Y-49846250D02*
X85943750Y-49846250D01*
X84656250Y-51133750D02*
X84656250Y-49846250D01*
X78050000Y-46900000D02*
X78050000Y-46750000D01*
X78050000Y-46750000D02*
X79200000Y-45600000D01*
X76300000Y-51075000D02*
X76300000Y-51000000D01*
X74000000Y-50100000D02*
X75325000Y-50100000D01*
X75325000Y-50100000D02*
X75545000Y-50320000D01*
X65100000Y-55900000D02*
X65100000Y-54008000D01*
X65100000Y-54008000D02*
X65059000Y-53967000D01*
X85050000Y-54190000D02*
X85050000Y-51527500D01*
X85050000Y-51527500D02*
X84656250Y-51133750D01*
X81600000Y-51740000D02*
X82987500Y-51740000D01*
X82987500Y-51740000D02*
X83593750Y-51133750D01*
X81600000Y-49740000D02*
X82200000Y-49740000D01*
X82200000Y-49740000D02*
X83593750Y-51133750D01*
X83593750Y-51133750D02*
X83762500Y-51133750D01*
X83762500Y-51133750D02*
X84656250Y-51133750D01*
X73597720Y-41850340D02*
X73597720Y-43149360D01*
X73597720Y-43149360D02*
X73749040Y-43300680D01*
X73749040Y-43300680D02*
X75098860Y-43300680D01*
X73597720Y-41850340D02*
X73597720Y-40551320D01*
X73597720Y-40551320D02*
X73749040Y-40400000D01*
X73749040Y-40400000D02*
X75098860Y-40400000D01*
X101549920Y-69649160D02*
X101549920Y-68100000D01*
X101549920Y-68100000D02*
X101549920Y-65649740D01*
X98000000Y-68100000D02*
X101549920Y-68100000D01*
X96000000Y-68100000D02*
X98000000Y-68100000D01*
X94000000Y-68100000D02*
X96000000Y-68100000D01*
X92000000Y-68100000D02*
X94000000Y-68100000D01*
X85100000Y-62300000D02*
X87650000Y-62300000D01*
X87650000Y-62300000D02*
X88000000Y-62650000D01*
X88050000Y-62700000D02*
X88000000Y-62650000D01*
X110450080Y-71148840D02*
X110450080Y-69649160D01*
X110450080Y-69649160D02*
X110450080Y-65649740D01*
X101549920Y-71148840D02*
X101549920Y-69649160D01*
X78850000Y-62900000D02*
X78850000Y-61150000D01*
X78850000Y-61150000D02*
X79300000Y-60700000D01*
X78850000Y-62900000D02*
X78850000Y-61925000D01*
X77625000Y-60700000D02*
X77400000Y-60700000D01*
X81000000Y-57500000D02*
X81700000Y-58200000D01*
X81700000Y-58200000D02*
X83100000Y-58200000D01*
X79700000Y-57500000D02*
X81000000Y-57500000D01*
X69013500Y-50181000D02*
X69013500Y-49631000D01*
X69013500Y-49631000D02*
X69000000Y-49617500D01*
X69500000Y-46300000D02*
X71800000Y-46300000D01*
X73125000Y-52700000D02*
X73775000Y-52050000D01*
X73775000Y-52050000D02*
X74000000Y-52050000D01*
X69900000Y-60400000D02*
X69900000Y-53000000D01*
X69900000Y-53000000D02*
X70200000Y-52700000D01*
X70200000Y-52700000D02*
X70700000Y-52700000D01*
X77400000Y-60700000D02*
X77400000Y-58750000D01*
X77400000Y-58750000D02*
X76600000Y-57950000D01*
X76600000Y-57950000D02*
X76600000Y-57800000D01*
X78200000Y-57500000D02*
X79700000Y-57500000D01*
X76600000Y-57800000D02*
X77900000Y-57800000D01*
X77900000Y-57800000D02*
X78200000Y-57500000D01*
X75000000Y-57500000D02*
X76300000Y-57500000D01*
X76300000Y-57500000D02*
X76600000Y-57800000D01*
X75000000Y-57500000D02*
X73500000Y-57500000D01*
X69900000Y-59000000D02*
X71400000Y-57500000D01*
X69900000Y-60400000D02*
X69900000Y-59000000D01*
X69900000Y-60400000D02*
X66800000Y-60400000D01*
X66800000Y-60400000D02*
X65900000Y-61300000D01*
X65900000Y-61300000D02*
X65900000Y-64360000D01*
X67530500Y-53967000D02*
X65059000Y-53967000D01*
X69013500Y-52700000D02*
X69013500Y-52750000D01*
X69013500Y-52700000D02*
X70700000Y-52700000D01*
X71800000Y-44550770D02*
X70549910Y-43300680D01*
X70549910Y-43300680D02*
X70000000Y-43300680D01*
X73100000Y-46300000D02*
X71800000Y-46300000D01*
X65500000Y-45600680D02*
X65500000Y-48446000D01*
X65500000Y-48446000D02*
X65059000Y-48887000D01*
X65500000Y-45600680D02*
X65500000Y-42700000D01*
X65500000Y-42700000D02*
X65500000Y-43499910D01*
X65500000Y-43499910D02*
X64849570Y-44150340D01*
X64849570Y-44150340D02*
X64749240Y-44150340D01*
X64749240Y-44150340D02*
X63998860Y-44150340D01*
X68498860Y-41850340D02*
X65549750Y-41850340D01*
X65549750Y-41850340D02*
X65500000Y-41900090D01*
X65500000Y-41900090D02*
X65500000Y-42700000D01*
X73597720Y-41850340D02*
X73597720Y-41099960D01*
X89800000Y-45300000D02*
X89800000Y-42800000D01*
X89800000Y-42800000D02*
X90400000Y-42200000D01*
X75325000Y-48775000D02*
X75325000Y-50100000D01*
X69094500Y-50100000D02*
X69013500Y-50181000D01*
D45*
X106800000Y-55300000D02*
X107999890Y-55300000D01*
X107999890Y-55300000D02*
X110302320Y-52997570D01*
X108000000Y-53300000D02*
X109999890Y-53300000D01*
X109999890Y-53300000D02*
X110302320Y-52997570D01*
X106600000Y-53300000D02*
X108000000Y-53300000D01*
D46*
X99100000Y-55600000D02*
X101420000Y-55600000D01*
X101420000Y-55600000D02*
X101440000Y-55580000D01*
X97770000Y-57200000D02*
X97770000Y-56450000D01*
X97770000Y-56450000D02*
X98620000Y-55600000D01*
X98620000Y-55600000D02*
X99100000Y-55600000D01*
X104220000Y-48250000D02*
X102250000Y-48250000D01*
X102250000Y-48250000D02*
X102200000Y-48200000D01*
X96120000Y-58600000D02*
X96520000Y-58200000D01*
X96520000Y-58200000D02*
X96770000Y-57950000D01*
X88100000Y-58700000D02*
X96020000Y-58700000D01*
X96020000Y-58700000D02*
X96520000Y-58200000D01*
X96770000Y-57950000D02*
X96770000Y-57200000D01*
X86550000Y-54190000D02*
X86550000Y-55875000D01*
X86550000Y-55875000D02*
X87475000Y-56800000D01*
X87475000Y-56800000D02*
X88100000Y-56800000D01*
X67001140Y-44150340D02*
X67776920Y-44150340D01*
X68200000Y-51427000D02*
X68200000Y-46700000D01*
X68200000Y-46700000D02*
X68200000Y-45100000D01*
X67776920Y-44150340D02*
X68200000Y-44573420D01*
X68200000Y-44573420D02*
X68200000Y-46700000D01*
D45*
X68200000Y-51427000D02*
X69381000Y-51427000D01*
X67900000Y-51427000D02*
X68200000Y-51427000D01*
X65059000Y-51427000D02*
X67900000Y-51427000D01*
D46*
X67900000Y-51427000D02*
X67950340Y-51376660D01*
X69381000Y-51427000D02*
X69400000Y-51408000D01*
X69400000Y-51408000D02*
X69140500Y-51408000D01*
X95270000Y-45800000D02*
X95270000Y-47170000D01*
X95270000Y-47170000D02*
X95500000Y-47400000D01*
D45*
X73300000Y-60400000D02*
X71900000Y-60400000D01*
X71900000Y-60400000D02*
X71600000Y-60700000D01*
X71300000Y-59200000D02*
X71300000Y-60400000D01*
X71300000Y-60400000D02*
X71600000Y-60700000D01*
X73100000Y-48200000D02*
X73100000Y-49400000D01*
X73100000Y-49400000D02*
X72800000Y-49700000D01*
X74200000Y-48200000D02*
X71800000Y-48200000D01*
D46*
X89000000Y-53240000D02*
X89000000Y-54099999D01*
X89000000Y-54099999D02*
X89100000Y-54199999D01*
D45*
X81200000Y-60700000D02*
X83200000Y-60700000D01*
X81200000Y-62125000D02*
X81200000Y-59100000D01*
X80625000Y-62700000D02*
X81200000Y-62125000D01*
D46*
X80625000Y-62700000D02*
X80800000Y-62525000D01*
X78850000Y-63400000D02*
X79925000Y-63400000D01*
X79925000Y-63400000D02*
X80625000Y-62700000D01*
X73100000Y-48200000D02*
X73100000Y-49700000D01*
X73100000Y-49700000D02*
X73100000Y-50500000D01*
X72800000Y-49700000D02*
X73100000Y-49700000D01*
X77275000Y-53375000D02*
X77275000Y-54450000D01*
X77275000Y-54450000D02*
X78200000Y-55375000D01*
X78200000Y-55375000D02*
X78200000Y-55600000D01*
X78200000Y-55600000D02*
X78200000Y-54500000D01*
X78200000Y-54500000D02*
X78000000Y-54300000D01*
X74200000Y-55600000D02*
X73500000Y-55600000D01*
X75000000Y-55600000D02*
X74200000Y-55600000D01*
X74200000Y-48200000D02*
X73100000Y-48200000D01*
X80700000Y-55600000D02*
X79700000Y-55600000D01*
X81200000Y-56100000D02*
X80700000Y-55600000D01*
X81200000Y-60700000D02*
X81200000Y-59100000D01*
X79700000Y-55600000D02*
X78200000Y-55600000D01*
X73100000Y-50500000D02*
X73350000Y-50750000D01*
X73350000Y-50750000D02*
X74000000Y-50750000D01*
X79925000Y-63400000D02*
X81200000Y-62125000D01*
X81200000Y-62125000D02*
X81200000Y-60700000D01*
X71800000Y-48200000D02*
X73100000Y-48200000D01*
X78600000Y-52050000D02*
X79250000Y-52050000D01*
X79250000Y-52050000D02*
X79700000Y-52500000D01*
X79700000Y-52500000D02*
X79700000Y-54750000D01*
X79700000Y-54750000D02*
X79700000Y-55600000D01*
X75325000Y-54375000D02*
X75000000Y-54700000D01*
X75000000Y-54700000D02*
X75000000Y-55600000D01*
X75325000Y-53375000D02*
X75325000Y-54375000D01*
X70500000Y-51408000D02*
X70508000Y-51408000D01*
X70508000Y-51408000D02*
X70700000Y-51600000D01*
X70500000Y-51408000D02*
X70792000Y-51408000D01*
X70792000Y-51408000D02*
X70800000Y-51400000D01*
X74000000Y-51400000D02*
X71900000Y-51400000D01*
D45*
X80540000Y-48430000D02*
X80460000Y-48510000D01*
X80540000Y-48020000D02*
X80540000Y-48430000D01*
X80360001Y-48199999D02*
X80540000Y-48020000D01*
X80000000Y-47900000D02*
X80299999Y-48199999D01*
X80299999Y-48199999D02*
X80360001Y-48199999D01*
D46*
X81600000Y-47740000D02*
X80160000Y-47740000D01*
X80160000Y-47740000D02*
X80000000Y-47900000D01*
X81600000Y-48240000D02*
X80340000Y-48240000D01*
X80340000Y-48240000D02*
X80000000Y-47900000D01*
X80000000Y-47900000D02*
X80840000Y-48740000D01*
X80840000Y-48740000D02*
X81600000Y-48740000D01*
X81600000Y-49240000D02*
X81375000Y-49240000D01*
X80000000Y-48410000D02*
X80000000Y-47900000D01*
X81375000Y-49240000D02*
X81365000Y-49230000D01*
X81365000Y-49230000D02*
X80850000Y-49230000D01*
X80850000Y-49230000D02*
X80480000Y-48860000D01*
X80480000Y-48860000D02*
X80450000Y-48860000D01*
X80450000Y-48860000D02*
X80000000Y-48410000D01*
D45*
X81100000Y-45600000D02*
X82200000Y-45600000D01*
X82200000Y-45600000D02*
X82500000Y-45300000D01*
D46*
X84550000Y-46790000D02*
X84550000Y-48150000D01*
X84550000Y-48150000D02*
X84600000Y-48200000D01*
X82200000Y-45600000D02*
X82100000Y-45600000D01*
D45*
X79950000Y-46900000D02*
X79950000Y-46750000D01*
X79950000Y-46750000D02*
X81100000Y-45600000D01*
X80000000Y-47900000D02*
X80000000Y-46950000D01*
X80000000Y-46950000D02*
X79950000Y-46900000D01*
D46*
X85900000Y-48200000D02*
X86050000Y-48050000D01*
X86050000Y-48050000D02*
X86050000Y-46790000D01*
X85700000Y-53000000D02*
X85550000Y-53150000D01*
X85550000Y-53150000D02*
X85550000Y-54190000D01*
X84550000Y-54190000D02*
X84550000Y-53050000D01*
X84550000Y-53050000D02*
X84200000Y-52700000D01*
X83050000Y-54190000D02*
X83050000Y-52750000D01*
X83050000Y-52750000D02*
X83100000Y-52700000D01*
X84050000Y-54190000D02*
X84050000Y-52850000D01*
X84050000Y-52850000D02*
X84200000Y-52700000D01*
D45*
X82050000Y-56700000D02*
X82700000Y-56700000D01*
X82700000Y-56700000D02*
X83100000Y-56300000D01*
D46*
X81400000Y-63300000D02*
X80800000Y-63900000D01*
X80800000Y-63900000D02*
X78850000Y-63900000D01*
D45*
X83200000Y-62300000D02*
X82200000Y-62300000D01*
X82200000Y-62300000D02*
X82050000Y-62450000D01*
D46*
X89000000Y-52740000D02*
X88140000Y-52740000D01*
X88140000Y-52740000D02*
X88100000Y-52700000D01*
X86050000Y-46790000D02*
X86050000Y-46190000D01*
X86050000Y-46190000D02*
X86940000Y-45300000D01*
X86940000Y-45300000D02*
X87050000Y-45300000D01*
X87050000Y-45300000D02*
X87900000Y-45300000D01*
X86050000Y-47390000D02*
X86050000Y-46790000D01*
X82075000Y-62475000D02*
X82050000Y-62450000D01*
X90600000Y-55500000D02*
X90600000Y-53300000D01*
X90600000Y-53300000D02*
X90040000Y-52740000D01*
X90040000Y-52740000D02*
X89000000Y-52740000D01*
X82975000Y-62300000D02*
X83200000Y-62300000D01*
X82100000Y-45600000D02*
X81800000Y-45600000D01*
X81475000Y-45600000D02*
X81800000Y-45600000D01*
X82550000Y-46050000D02*
X82100000Y-45600000D01*
X82550000Y-46790000D02*
X82550000Y-46050000D01*
D45*
X83100000Y-56300000D02*
X84700000Y-56300000D01*
D46*
X85550000Y-54600000D02*
X85550000Y-54790000D01*
X85550000Y-54190000D02*
X85550000Y-54600000D01*
X85550000Y-54600000D02*
X85550000Y-55225000D01*
X85550000Y-55225000D02*
X84700000Y-56075000D01*
X84700000Y-56075000D02*
X84700000Y-56300000D01*
X84550000Y-54190000D02*
X84550000Y-56150000D01*
X84550000Y-56150000D02*
X84700000Y-56300000D01*
X84050000Y-54190000D02*
X84050000Y-55425000D01*
X84050000Y-55425000D02*
X84700000Y-56075000D01*
X84050000Y-54790000D02*
X84050000Y-54190000D01*
X83100000Y-56300000D02*
X83100000Y-55450000D01*
X83100000Y-55450000D02*
X83550000Y-55000000D01*
X83550000Y-55000000D02*
X83550000Y-54190000D01*
X83050000Y-54190000D02*
X83050000Y-56250000D01*
X83050000Y-56250000D02*
X83100000Y-56300000D01*
X84050000Y-54415000D02*
X84050000Y-54190000D01*
X82640000Y-52240000D02*
X83550000Y-53150000D01*
X83550000Y-53150000D02*
X83550000Y-54190000D01*
X81600000Y-52240000D02*
X82640000Y-52240000D01*
X85050000Y-46790000D02*
X85050000Y-46040000D01*
X85050000Y-46040000D02*
X82220000Y-43210000D01*
X82220000Y-43210000D02*
X82070000Y-43210000D01*
X79260000Y-43200000D02*
X82060000Y-43200000D01*
X82060000Y-43200000D02*
X82070000Y-43210000D01*
X86535001Y-41635001D02*
X86535001Y-42600000D01*
X86535001Y-42600000D02*
X86535001Y-44764999D01*
X87600000Y-42500000D02*
X86635001Y-42500000D01*
X86635001Y-42500000D02*
X86535001Y-42600000D01*
X84970000Y-40910000D02*
X85810000Y-40910000D01*
X85810000Y-40910000D02*
X86535001Y-41635001D01*
X86535001Y-44764999D02*
X85550000Y-45750000D01*
X85550000Y-45750000D02*
X85550000Y-46790000D01*
X84970000Y-40910000D02*
X85120000Y-40910000D01*
X84700000Y-40900000D02*
X84850000Y-40900000D01*
X84700000Y-40900000D02*
X85100000Y-40900000D01*
X85550000Y-46093588D02*
X85550000Y-46190000D01*
X85550000Y-46190000D02*
X85550000Y-46790000D01*
D45*
X80200000Y-67401960D02*
X82653040Y-67401960D01*
X82653040Y-67401960D02*
X82670000Y-67385000D01*
X84300000Y-67390000D02*
X82675000Y-67390000D01*
X82675000Y-67390000D02*
X82670000Y-67385000D01*
X101500000Y-60100000D02*
X101500000Y-58700000D01*
X89670000Y-64845000D02*
X89670000Y-66115000D01*
X88040000Y-64810000D02*
X89635000Y-64810000D01*
X89635000Y-64810000D02*
X89670000Y-64845000D01*
X89800000Y-60800000D02*
X90300000Y-60800000D01*
X90300000Y-60800000D02*
X91400000Y-59700000D01*
X88000000Y-60750000D02*
X89750000Y-60750000D01*
X89750000Y-60750000D02*
X89800000Y-60800000D01*
X85100000Y-60700000D02*
X87950000Y-60700000D01*
X87950000Y-60700000D02*
X88000000Y-60750000D01*
D46*
X100770000Y-57200000D02*
X100770000Y-57970000D01*
X100770000Y-57970000D02*
X101500000Y-58700000D01*
X92820000Y-55250000D02*
X94241726Y-55250000D01*
X94241726Y-55250000D02*
X94645863Y-55654137D01*
X103400000Y-46700000D02*
X103400000Y-46930000D01*
X103400000Y-46930000D02*
X104220000Y-47750000D01*
X104220000Y-54250000D02*
X104970000Y-54250000D01*
X104970000Y-54250000D02*
X105500000Y-53720000D01*
X105500000Y-53720000D02*
X105500000Y-51500000D01*
X105500000Y-51500000D02*
X105900000Y-51100000D01*
X105900000Y-51100000D02*
X106600000Y-51100000D01*
X94645863Y-47202849D02*
X94645863Y-45924137D01*
X94645863Y-45924137D02*
X94770000Y-45800000D01*
X92800000Y-56300000D02*
X92800000Y-55270000D01*
X92800000Y-55270000D02*
X92820000Y-55250000D01*
X100800000Y-57230000D02*
X100770000Y-57200000D01*
X104220000Y-54250000D02*
X102850000Y-54250000D01*
X102850000Y-54250000D02*
X102800000Y-54200000D01*
D45*
X104399800Y-66599800D02*
X105500000Y-67700000D01*
X105500000Y-67700000D02*
X105500000Y-69800000D01*
X104399800Y-64550680D02*
X104399800Y-66599800D01*
X104399800Y-65550680D02*
X104399800Y-65830000D01*
D46*
X104399800Y-65830000D02*
X104399800Y-64550680D01*
D45*
X75800000Y-66900000D02*
X73100000Y-66900000D01*
X73100000Y-66900000D02*
X73000000Y-66800000D01*
D46*
X75350000Y-64900000D02*
X74200000Y-64900000D01*
X74200000Y-64900000D02*
X74000000Y-64700000D01*
X74000000Y-64700000D02*
X74000000Y-64100000D01*
X74000000Y-64100000D02*
X74200000Y-63900000D01*
X74200000Y-63900000D02*
X75350000Y-63900000D01*
D45*
X75800000Y-66025000D02*
X77175000Y-66025000D01*
X77175000Y-66025000D02*
X78199999Y-65000001D01*
X78199999Y-65000001D02*
X78850000Y-65000001D01*
X75800000Y-66900000D02*
X75800000Y-66025000D01*
X75800000Y-66025000D02*
X75350000Y-65575000D01*
X75350000Y-65575000D02*
X75350000Y-65000001D01*
X75800000Y-68400000D02*
X75800000Y-66900000D01*
D46*
X78850000Y-64900000D02*
X78100000Y-64900000D01*
X78100000Y-64900000D02*
X77700000Y-65300000D01*
D45*
X105500000Y-68301500D02*
X105500000Y-69800000D01*
X105500000Y-69800000D02*
X105000000Y-70300000D01*
D46*
X75500000Y-60700000D02*
X75500000Y-62750000D01*
X75500000Y-62750000D02*
X75350000Y-62900000D01*
X73950000Y-63400000D02*
X75350000Y-63400000D01*
X73300000Y-62750000D02*
X73950000Y-63400000D01*
X73300000Y-62600000D02*
X71600000Y-62600000D01*
X69900000Y-62600000D02*
X71600000Y-62600000D01*
X73300000Y-62750000D02*
X73300000Y-62600000D01*
D45*
X92000000Y-65900000D02*
X92000000Y-63898040D01*
X94000000Y-63900000D02*
X94000000Y-65900000D01*
X96000000Y-65900000D02*
X96000000Y-63898040D01*
X98000000Y-65900000D02*
X98000000Y-63898040D01*
D46*
X105199900Y-64550680D02*
X105199900Y-61989900D01*
X105199900Y-61989900D02*
X104890000Y-61680000D01*
X106000000Y-64550680D02*
X106000000Y-62000000D01*
X106000000Y-62000000D02*
X106320000Y-61680000D01*
X80000000Y-50100000D02*
X80140000Y-50240000D01*
X80140000Y-50240000D02*
X81600000Y-50240000D01*
X78600000Y-50100000D02*
X80000000Y-50100000D01*
X78600000Y-51400000D02*
X80040000Y-51400000D01*
X80040000Y-51400000D02*
X80200000Y-51240000D01*
X80200000Y-51240000D02*
X81600000Y-51240000D01*
X97770000Y-45800000D02*
X97770000Y-44530000D01*
X97770000Y-44530000D02*
X98400000Y-43900000D01*
X98400000Y-43900000D02*
X101206000Y-43900000D01*
X101206000Y-43900000D02*
X101640000Y-43466000D01*
X101640000Y-43466000D02*
X101640000Y-42200000D01*
X97270000Y-45800000D02*
X97270000Y-44030000D01*
X97270000Y-44030000D02*
X98213599Y-43086401D01*
X98213599Y-43086401D02*
X99100000Y-42200000D01*
X95770000Y-45800000D02*
X95770000Y-42490000D01*
X95770000Y-42490000D02*
X95480000Y-42200000D01*
X92940000Y-42200000D02*
X92940000Y-47630000D01*
X92940000Y-47630000D02*
X92820000Y-47750000D01*
X111200000Y-49800000D02*
X111800000Y-49200000D01*
X111800000Y-49200000D02*
X111800000Y-48400000D01*
X110800000Y-49800000D02*
X111200000Y-49800000D01*
X111800000Y-48500000D02*
X111800000Y-48400000D01*
X111800000Y-48400000D02*
X111800000Y-45300000D01*
X111800000Y-49250000D02*
X111800000Y-48400000D01*
X111800000Y-45300000D02*
X111300000Y-44800000D01*
X111300000Y-44800000D02*
X110400000Y-44800000D01*
X110400000Y-44800000D02*
X110340000Y-44740000D01*
X76600000Y-55600000D02*
X76600000Y-53400000D01*
X76600000Y-53400000D02*
X76625000Y-53375000D01*
X95270000Y-57200000D02*
X95270000Y-55960000D01*
X95270000Y-55960000D02*
X95566000Y-55664000D01*
X77275000Y-48775000D02*
X77275000Y-47975000D01*
X77275000Y-47975000D02*
X76700000Y-47400000D01*
X76625000Y-48775000D02*
X76625000Y-47475000D01*
X76625000Y-47475000D02*
X76700000Y-47400000D01*
X84050000Y-46790000D02*
X84050000Y-46190000D01*
X84050000Y-46190000D02*
X83560000Y-45700000D01*
X83560000Y-45700000D02*
X83300000Y-45700000D01*
X104220000Y-49750000D02*
X108550000Y-49750000D01*
X108550000Y-49750000D02*
X108600000Y-49800000D01*
X104220000Y-49750000D02*
X106250000Y-49750000D01*
X105200000Y-58850000D02*
X104890000Y-59160000D01*
X104890000Y-59160000D02*
X104890000Y-59480000D01*
X105200000Y-57800000D02*
X105200000Y-58850000D01*
X96770000Y-45800000D02*
X96770000Y-49370000D01*
X96770000Y-49370000D02*
X105200000Y-57800000D01*
X105990000Y-58400000D02*
X105990000Y-58840000D01*
X103900000Y-57383884D02*
X103900000Y-57500000D01*
X103900000Y-57500000D02*
X104400000Y-58000000D01*
X105990000Y-58840000D02*
X106320000Y-59170000D01*
X106320000Y-59170000D02*
X106320000Y-59480000D01*
X103900000Y-57136410D02*
X103900000Y-57383884D01*
X96270000Y-45800000D02*
X96270000Y-49506410D01*
X96270000Y-49506410D02*
X103900000Y-57136410D01*
X92820000Y-53250000D02*
X91650000Y-53250000D01*
X91650000Y-53250000D02*
X91400000Y-53500000D01*
X78600000Y-50750000D02*
X81590000Y-50750000D01*
X81590000Y-50750000D02*
X81600000Y-50740000D01*
X89000000Y-48240000D02*
X92810000Y-48240000D01*
X92810000Y-48240000D02*
X92820000Y-48250000D01*
X89000000Y-48740000D02*
X92810000Y-48740000D01*
X92810000Y-48740000D02*
X92820000Y-48750000D01*
X89000000Y-49240000D02*
X92810000Y-49240000D01*
X92810000Y-49240000D02*
X92820000Y-49250000D01*
X89000000Y-49740000D02*
X92810000Y-49740000D01*
X92810000Y-49740000D02*
X92820000Y-49750000D01*
X89000000Y-50240000D02*
X92810000Y-50240000D01*
X92810000Y-50240000D02*
X92820000Y-50250000D01*
X89000000Y-50740000D02*
X92810000Y-50740000D01*
X92810000Y-50740000D02*
X92820000Y-50750000D01*
X92820000Y-51750000D02*
X91450000Y-51750000D01*
X91450000Y-51750000D02*
X90940000Y-51240000D01*
X90940000Y-51240000D02*
X90950000Y-51250000D01*
X90950000Y-51250000D02*
X92820000Y-51250000D01*
X89000000Y-51240000D02*
X90940000Y-51240000D01*
X89000000Y-51740000D02*
X90803590Y-51740000D01*
X90803590Y-51740000D02*
X91313590Y-52250000D01*
X91313590Y-52250000D02*
X92070000Y-52250000D01*
X92070000Y-52250000D02*
X92820000Y-52250000D01*
X89000000Y-52240000D02*
X90667180Y-52240000D01*
X90667180Y-52240000D02*
X91177180Y-52750000D01*
X91177180Y-52750000D02*
X92070000Y-52750000D01*
X92070000Y-52750000D02*
X92820000Y-52750000D01*
X98270000Y-57200000D02*
X98270000Y-57950000D01*
X98270000Y-57950000D02*
X96870010Y-59349990D01*
X96870010Y-59349990D02*
X93600570Y-59349990D01*
X93600570Y-59349990D02*
X92000000Y-60950560D01*
X92000000Y-60950560D02*
X92000000Y-61800000D01*
X97056410Y-59800000D02*
X95152520Y-59800000D01*
X95152520Y-59800000D02*
X94000000Y-60952520D01*
X94000000Y-60952520D02*
X94000000Y-61801960D01*
X98770000Y-58086410D02*
X97056410Y-59800000D01*
X98770000Y-57200000D02*
X98770000Y-58086410D01*
X99270000Y-57200000D02*
X99270000Y-58222820D01*
X99270000Y-58222820D02*
X96000000Y-61492820D01*
X96000000Y-61492820D02*
X96000000Y-61800000D01*
X99770000Y-57200000D02*
X99770000Y-58359230D01*
X99770000Y-58359230D02*
X98000000Y-60129230D01*
X98000000Y-60129230D02*
X98000000Y-61800000D01*
X95770000Y-57200000D02*
X95770000Y-56385002D01*
X95770000Y-56385002D02*
X96366003Y-55788999D01*
X96366003Y-55788999D02*
X96366003Y-55664000D01*
X75975000Y-48775000D02*
X75975000Y-47475000D01*
X75975000Y-47475000D02*
X75900000Y-47400000D01*
X91600000Y-56500000D02*
X91600000Y-54220000D01*
X91600000Y-54220000D02*
X92070000Y-53750000D01*
X92070000Y-53750000D02*
X92820000Y-53750000D01*
X86050000Y-54190000D02*
X86050000Y-56450000D01*
X86050000Y-56450000D02*
X86100000Y-56500000D01*
X104220000Y-53250000D02*
X101610000Y-53250000D01*
X101610000Y-53250000D02*
X101580000Y-53220000D01*
X102550000Y-53250000D02*
X102110000Y-53250000D01*
X87040000Y-67400000D02*
X89655000Y-67400000D01*
X89655000Y-67400000D02*
X89670000Y-67385000D01*
X104220000Y-53250000D02*
X102550000Y-53250000D01*
D45*
X83990000Y-66180000D02*
X82735000Y-66180000D01*
X82735000Y-66180000D02*
X82670000Y-66115000D01*
D46*
X104220000Y-52750000D02*
X102035002Y-52750000D01*
X102035002Y-52750000D02*
X101635002Y-52350000D01*
X101635002Y-52350000D02*
X101130000Y-52350000D01*
X104220000Y-52250000D02*
X102171412Y-52250000D01*
X102171412Y-52250000D02*
X101631412Y-51710000D01*
X101631412Y-51710000D02*
X100360000Y-51710000D01*
X84680000Y-65070000D02*
X84680000Y-65965002D01*
X84680000Y-65965002D02*
X87369998Y-68655000D01*
X87369998Y-68655000D02*
X88645000Y-68655000D01*
X88645000Y-68655000D02*
X89670000Y-68655000D01*
D45*
X77400000Y-43100000D02*
X77400000Y-42650340D01*
X77400000Y-42650340D02*
X76600000Y-41850340D01*
D46*
X83050000Y-48150000D02*
X83000000Y-48200000D01*
X83050000Y-46790000D02*
X83050000Y-48150000D01*
D45*
X72900000Y-43400000D02*
X72900000Y-43249200D01*
X72900000Y-43249200D02*
X71501140Y-41850340D01*
D46*
X72500000Y-42823800D02*
X71526540Y-41850340D01*
X71526540Y-41850340D02*
X71501140Y-41850340D01*
X83550000Y-46790000D02*
X83550000Y-47824998D01*
X83550000Y-47824998D02*
X83625001Y-47899999D01*
X83625001Y-47899999D02*
X83625001Y-48574999D01*
X83625001Y-48574999D02*
X83000000Y-49200000D01*
D45*
X78000000Y-69500000D02*
X80200000Y-69500000D01*
X84380000Y-64090000D02*
X83425000Y-64090000D01*
X83425000Y-64090000D02*
X82670000Y-64845000D01*
D46*
X96270000Y-57200000D02*
X96270000Y-56521412D01*
X96270000Y-56521412D02*
X96502411Y-56289001D01*
X96502411Y-56289001D02*
X96730999Y-56289001D01*
X96730999Y-56289001D02*
X97330000Y-55690000D01*
D47*
G36*
X83323569Y-39758110D02*
X83272560Y-40010000D01*
X83272560Y-41693454D01*
X83120000Y-41662560D01*
X81020000Y-41662560D01*
X80784683Y-41706838D01*
X80568559Y-41845910D01*
X80423569Y-42058110D01*
X80372560Y-42310000D01*
X80372560Y-42440000D01*
X80252334Y-42440000D01*
X80238162Y-42364683D01*
X80099090Y-42148559D01*
X79886890Y-42003569D01*
X79635000Y-41952560D01*
X78885000Y-41952560D01*
X78649683Y-41996838D01*
X78433559Y-42135910D01*
X78288569Y-42348110D01*
X78256441Y-42506763D01*
X78217633Y-42311666D01*
X78217633Y-42311665D01*
X78025790Y-42024550D01*
X78025787Y-42024548D01*
X77773220Y-41771981D01*
X77773220Y-41349960D01*
X77728942Y-41114643D01*
X77589870Y-40898519D01*
X77377670Y-40753529D01*
X77125780Y-40702520D01*
X76074220Y-40702520D01*
X75838903Y-40746798D01*
X75622779Y-40885870D01*
X75477789Y-41098070D01*
X75426780Y-41349960D01*
X75426780Y-42350720D01*
X75471058Y-42586037D01*
X75610130Y-42802161D01*
X75822330Y-42947151D01*
X76074220Y-42998160D01*
X76465088Y-42998160D01*
X76464838Y-43285167D01*
X76606883Y-43628943D01*
X76869673Y-43892192D01*
X77213201Y-44034838D01*
X77585167Y-44035162D01*
X77928943Y-43893117D01*
X78192192Y-43630327D01*
X78237560Y-43521069D01*
X78237560Y-43800000D01*
X78281838Y-44035317D01*
X78420910Y-44251441D01*
X78633110Y-44396431D01*
X78885000Y-44447440D01*
X79635000Y-44447440D01*
X79870317Y-44403162D01*
X80086441Y-44264090D01*
X80231431Y-44051890D01*
X80250039Y-43960000D01*
X80372560Y-43960000D01*
X80372560Y-44110000D01*
X80416838Y-44345317D01*
X80555910Y-44561441D01*
X80579501Y-44577560D01*
X80500000Y-44577560D01*
X80264683Y-44621838D01*
X80048559Y-44760910D01*
X79903569Y-44973110D01*
X79852560Y-45225000D01*
X79852560Y-45595860D01*
X79570860Y-45877560D01*
X79350000Y-45877560D01*
X79114683Y-45921838D01*
X78898559Y-46060910D01*
X78753569Y-46273110D01*
X78702560Y-46525000D01*
X78702560Y-47275000D01*
X78746838Y-47510317D01*
X78885910Y-47726441D01*
X79065044Y-47848838D01*
X79064838Y-48085167D01*
X79206883Y-48428943D01*
X79252947Y-48475087D01*
X79297852Y-48700839D01*
X79462599Y-48947401D01*
X79855198Y-49340000D01*
X79268620Y-49340000D01*
X79251890Y-49328569D01*
X79000000Y-49277560D01*
X78200000Y-49277560D01*
X78071786Y-49301685D01*
X78097440Y-49175000D01*
X78097440Y-48375000D01*
X78053162Y-48139683D01*
X78035000Y-48111458D01*
X78035000Y-47975000D01*
X77977148Y-47684161D01*
X77812401Y-47437599D01*
X77635122Y-47260320D01*
X77635162Y-47214833D01*
X77493117Y-46871057D01*
X77230327Y-46607808D01*
X76886799Y-46465162D01*
X76514833Y-46464838D01*
X76299896Y-46553648D01*
X76086799Y-46465162D01*
X75714833Y-46464838D01*
X75371057Y-46606883D01*
X75107808Y-46869673D01*
X74965162Y-47213201D01*
X74964838Y-47585167D01*
X75106883Y-47928943D01*
X75215000Y-48037249D01*
X75215000Y-48106380D01*
X75203569Y-48123110D01*
X75152560Y-48375000D01*
X75152560Y-49175000D01*
X75196838Y-49410317D01*
X75335910Y-49626441D01*
X75548110Y-49771431D01*
X75800000Y-49822440D01*
X76150000Y-49822440D01*
X76305507Y-49793179D01*
X76450000Y-49822440D01*
X76800000Y-49822440D01*
X76955507Y-49793179D01*
X77100000Y-49822440D01*
X77450000Y-49822440D01*
X77578214Y-49798315D01*
X77552560Y-49925000D01*
X77552560Y-50275000D01*
X77581821Y-50430507D01*
X77552560Y-50575000D01*
X77552560Y-50925000D01*
X77581821Y-51080507D01*
X77552560Y-51225000D01*
X77552560Y-51575000D01*
X77581821Y-51730507D01*
X77552560Y-51875000D01*
X77552560Y-52225000D01*
X77576685Y-52353214D01*
X77450000Y-52327560D01*
X77100000Y-52327560D01*
X76944493Y-52356821D01*
X76800000Y-52327560D01*
X76450000Y-52327560D01*
X76214683Y-52371838D01*
X75998559Y-52510910D01*
X75976616Y-52543025D01*
X75964090Y-52523559D01*
X75751890Y-52378569D01*
X75500000Y-52327560D01*
X75150000Y-52327560D01*
X74914683Y-52371838D01*
X74698559Y-52510910D01*
X74553569Y-52723110D01*
X74502560Y-52975000D01*
X74502560Y-53775000D01*
X74546838Y-54010317D01*
X74565000Y-54038542D01*
X74565000Y-54060198D01*
X74462599Y-54162599D01*
X74297852Y-54409161D01*
X74287184Y-54462795D01*
X74249273Y-54487190D01*
X74126890Y-54403569D01*
X73875000Y-54352560D01*
X73125000Y-54352560D01*
X72889683Y-54396838D01*
X72673559Y-54535910D01*
X72528569Y-54748110D01*
X72477560Y-55000000D01*
X72477560Y-56200000D01*
X72521838Y-56435317D01*
X72660910Y-56651441D01*
X72873110Y-56796431D01*
X73125000Y-56847440D01*
X73875000Y-56847440D01*
X74110317Y-56803162D01*
X74250727Y-56712810D01*
X74373110Y-56796431D01*
X74625000Y-56847440D01*
X75375000Y-56847440D01*
X75610317Y-56803162D01*
X75763602Y-56704526D01*
X75898110Y-56796431D01*
X76150000Y-56847440D01*
X77050000Y-56847440D01*
X77285317Y-56803162D01*
X77438602Y-56704526D01*
X77573110Y-56796431D01*
X77825000Y-56847440D01*
X78575000Y-56847440D01*
X78810317Y-56803162D01*
X78950727Y-56712810D01*
X79073110Y-56796431D01*
X79325000Y-56847440D01*
X80075000Y-56847440D01*
X80310317Y-56803162D01*
X80475008Y-56697187D01*
X80669673Y-56892192D01*
X81013201Y-57034838D01*
X81176740Y-57034980D01*
X81256883Y-57228943D01*
X81519673Y-57492192D01*
X81863201Y-57634838D01*
X82235167Y-57635162D01*
X82356569Y-57585000D01*
X82699995Y-57585000D01*
X82700000Y-57585001D01*
X82888828Y-57547440D01*
X83475000Y-57547440D01*
X83710317Y-57503162D01*
X83902227Y-57379671D01*
X84073110Y-57496431D01*
X84325000Y-57547440D01*
X85075000Y-57547440D01*
X85310317Y-57503162D01*
X85526441Y-57364090D01*
X85574264Y-57294098D01*
X85913201Y-57434838D01*
X86285167Y-57435162D01*
X86628943Y-57293117D01*
X86761244Y-57161046D01*
X86937599Y-57337401D01*
X87084215Y-57435366D01*
X87121838Y-57635317D01*
X87195620Y-57749978D01*
X87128569Y-57848110D01*
X87077560Y-58100000D01*
X87077560Y-59300000D01*
X87121838Y-59535317D01*
X87205511Y-59665349D01*
X87173559Y-59685910D01*
X87085356Y-59815000D01*
X86078386Y-59815000D01*
X85951890Y-59728569D01*
X85700000Y-59677560D01*
X84500000Y-59677560D01*
X84264683Y-59721838D01*
X84150022Y-59795620D01*
X84051890Y-59728569D01*
X83800000Y-59677560D01*
X82600000Y-59677560D01*
X82364683Y-59721838D01*
X82219905Y-59815000D01*
X82178386Y-59815000D01*
X82085000Y-59751192D01*
X82085000Y-59406822D01*
X82134838Y-59286799D01*
X82135162Y-58914833D01*
X81993117Y-58571057D01*
X81730327Y-58307808D01*
X81386799Y-58165162D01*
X81014833Y-58164838D01*
X80671057Y-58306883D01*
X80407808Y-58569673D01*
X80265162Y-58913201D01*
X80264838Y-59285167D01*
X80315000Y-59406569D01*
X80315000Y-59753808D01*
X80148559Y-59860910D01*
X80003569Y-60073110D01*
X79952560Y-60325000D01*
X79952560Y-61075000D01*
X79996838Y-61310317D01*
X80135910Y-61526441D01*
X80315000Y-61648808D01*
X80315000Y-61758421D01*
X80216165Y-61857256D01*
X80096057Y-61906883D01*
X79832808Y-62169673D01*
X79690162Y-62513201D01*
X79690121Y-62560077D01*
X79610198Y-62640000D01*
X79359884Y-62640000D01*
X79175000Y-62602560D01*
X78525000Y-62602560D01*
X78289683Y-62646838D01*
X78073559Y-62785910D01*
X77928569Y-62998110D01*
X77877560Y-63250000D01*
X77877560Y-63550000D01*
X77897067Y-63653671D01*
X77877560Y-63750000D01*
X77877560Y-64050000D01*
X77897067Y-64153671D01*
X77892512Y-64176164D01*
X77861324Y-64182368D01*
X77850439Y-64189641D01*
X77809160Y-64197852D01*
X77562599Y-64362599D01*
X77162599Y-64762599D01*
X77115837Y-64832584D01*
X76808420Y-65140000D01*
X76304215Y-65140000D01*
X76322440Y-65050000D01*
X76322440Y-64750000D01*
X76302933Y-64646329D01*
X76322440Y-64550000D01*
X76322440Y-64250000D01*
X76302933Y-64146329D01*
X76322440Y-64050000D01*
X76322440Y-63750000D01*
X76302933Y-63646329D01*
X76322440Y-63550000D01*
X76322440Y-63250000D01*
X76302933Y-63146329D01*
X76322440Y-63050000D01*
X76322440Y-62750000D01*
X76278162Y-62514683D01*
X76260000Y-62486458D01*
X76260000Y-61692334D01*
X76335317Y-61678162D01*
X76551441Y-61539090D01*
X76696431Y-61326890D01*
X76747440Y-61075000D01*
X76747440Y-60325000D01*
X76703162Y-60089683D01*
X76564090Y-59873559D01*
X76351890Y-59728569D01*
X76100000Y-59677560D01*
X74900000Y-59677560D01*
X74664683Y-59721838D01*
X74448559Y-59860910D01*
X74397440Y-59935725D01*
X74397440Y-59800000D01*
X74353162Y-59564683D01*
X74214090Y-59348559D01*
X74001890Y-59203569D01*
X73750000Y-59152560D01*
X72850000Y-59152560D01*
X72614683Y-59196838D01*
X72398559Y-59335910D01*
X72276192Y-59515000D01*
X72243620Y-59515000D01*
X72226890Y-59503569D01*
X72189495Y-59495996D01*
X72234838Y-59386799D01*
X72235162Y-59014833D01*
X72093117Y-58671057D01*
X71830327Y-58407808D01*
X71486799Y-58265162D01*
X71114833Y-58264838D01*
X70771057Y-58406883D01*
X70507808Y-58669673D01*
X70365162Y-59013201D01*
X70364838Y-59385167D01*
X70415000Y-59506569D01*
X70415000Y-60399995D01*
X70414999Y-60400000D01*
X70445847Y-60555080D01*
X70482367Y-60738675D01*
X70577560Y-60881142D01*
X70577560Y-61300000D01*
X70596856Y-61402550D01*
X70350000Y-61352560D01*
X69450000Y-61352560D01*
X69214683Y-61396838D01*
X68998559Y-61535910D01*
X68853569Y-61748110D01*
X68802560Y-62000000D01*
X68802560Y-63200000D01*
X68846838Y-63435317D01*
X68985910Y-63651441D01*
X69198110Y-63796431D01*
X69450000Y-63847440D01*
X70350000Y-63847440D01*
X70585317Y-63803162D01*
X70790102Y-63671387D01*
X70973110Y-63796431D01*
X71225000Y-63847440D01*
X71975000Y-63847440D01*
X72210317Y-63803162D01*
X72415102Y-63671387D01*
X72598110Y-63796431D01*
X72850000Y-63847440D01*
X73290238Y-63847440D01*
X73240000Y-64100000D01*
X73240000Y-64700000D01*
X73297852Y-64990839D01*
X73462599Y-65237401D01*
X73662599Y-65437401D01*
X73764516Y-65505500D01*
X73750000Y-65502560D01*
X72250000Y-65502560D01*
X72014683Y-65546838D01*
X71798559Y-65685910D01*
X71653569Y-65898110D01*
X71650919Y-65911197D01*
X71514090Y-65698559D01*
X71301890Y-65553569D01*
X71050000Y-65502560D01*
X69550000Y-65502560D01*
X69314683Y-65546838D01*
X69098559Y-65685910D01*
X68953569Y-65898110D01*
X68950149Y-65915000D01*
X67563440Y-65915000D01*
X67563440Y-65884000D01*
X67519162Y-65648683D01*
X67380090Y-65432559D01*
X67167890Y-65287569D01*
X66916000Y-65236560D01*
X64884000Y-65236560D01*
X64648683Y-65280838D01*
X64432559Y-65419910D01*
X64287569Y-65632110D01*
X64236560Y-65884000D01*
X64236560Y-67916000D01*
X64280838Y-68151317D01*
X64419910Y-68367441D01*
X64632110Y-68512431D01*
X64884000Y-68563440D01*
X66916000Y-68563440D01*
X67151317Y-68519162D01*
X67367441Y-68380090D01*
X67512431Y-68167890D01*
X67563440Y-67916000D01*
X67563440Y-67685000D01*
X68946778Y-67685000D01*
X68946838Y-67685317D01*
X69085910Y-67901441D01*
X69298110Y-68046431D01*
X69550000Y-68097440D01*
X71050000Y-68097440D01*
X71285317Y-68053162D01*
X71501441Y-67914090D01*
X71646431Y-67701890D01*
X71649081Y-67688803D01*
X71785910Y-67901441D01*
X71998110Y-68046431D01*
X72250000Y-68097440D01*
X73750000Y-68097440D01*
X73985317Y-68053162D01*
X74201441Y-67914090D01*
X74289644Y-67785000D01*
X74821614Y-67785000D01*
X74915000Y-67848808D01*
X74915000Y-68093178D01*
X74865162Y-68213201D01*
X74864838Y-68585167D01*
X75006883Y-68928943D01*
X75269673Y-69192192D01*
X75613201Y-69334838D01*
X75985167Y-69335162D01*
X76328943Y-69193117D01*
X76592192Y-68930327D01*
X76734838Y-68586799D01*
X76735162Y-68214833D01*
X76685000Y-68093431D01*
X76685000Y-67846192D01*
X76851441Y-67739090D01*
X76996431Y-67526890D01*
X77047440Y-67275000D01*
X77047440Y-66910000D01*
X77174995Y-66910000D01*
X77175000Y-66910001D01*
X77488709Y-66847599D01*
X77513675Y-66842633D01*
X77800790Y-66650790D01*
X77800791Y-66650789D01*
X78566578Y-65885001D01*
X78850000Y-65885001D01*
X79188675Y-65817634D01*
X79475790Y-65625791D01*
X79493091Y-65599899D01*
X79626441Y-65514090D01*
X79771431Y-65301890D01*
X79822440Y-65050000D01*
X79822440Y-64750000D01*
X79805505Y-64660000D01*
X80800000Y-64660000D01*
X81090839Y-64602148D01*
X81258700Y-64489987D01*
X81247560Y-64545000D01*
X81247560Y-65145000D01*
X81291838Y-65380317D01*
X81355678Y-65479528D01*
X81298569Y-65563110D01*
X81247560Y-65815000D01*
X81247560Y-66340167D01*
X81051330Y-66206089D01*
X80799440Y-66155080D01*
X79600560Y-66155080D01*
X79365243Y-66199358D01*
X79149119Y-66338430D01*
X79004129Y-66550630D01*
X78953120Y-66802520D01*
X78953120Y-68001400D01*
X78997398Y-68236717D01*
X79136470Y-68452841D01*
X79137467Y-68453523D01*
X79046555Y-68586578D01*
X78851890Y-68453569D01*
X78600000Y-68402560D01*
X77400000Y-68402560D01*
X77164683Y-68446838D01*
X76948559Y-68585910D01*
X76803569Y-68798110D01*
X76752560Y-69050000D01*
X76752560Y-69950000D01*
X76796838Y-70185317D01*
X76935910Y-70401441D01*
X77148110Y-70546431D01*
X77400000Y-70597440D01*
X78600000Y-70597440D01*
X78835317Y-70553162D01*
X79049324Y-70415452D01*
X79136470Y-70550881D01*
X79348670Y-70695871D01*
X79600560Y-70746880D01*
X80799440Y-70746880D01*
X81034757Y-70702602D01*
X81250881Y-70563530D01*
X81395871Y-70351330D01*
X81446880Y-70099440D01*
X81446880Y-68900560D01*
X81402602Y-68665243D01*
X81263530Y-68449119D01*
X81262533Y-68448437D01*
X81372865Y-68286960D01*
X81670413Y-68286960D01*
X81895000Y-68332440D01*
X83445000Y-68332440D01*
X83680317Y-68288162D01*
X83700771Y-68275000D01*
X83993178Y-68275000D01*
X84113201Y-68324838D01*
X84485167Y-68325162D01*
X84828943Y-68183117D01*
X85092192Y-67920327D01*
X85229603Y-67589407D01*
X86832597Y-69192401D01*
X87079159Y-69357148D01*
X87369998Y-69415000D01*
X88443437Y-69415000D01*
X88643110Y-69551431D01*
X88895000Y-69602440D01*
X90445000Y-69602440D01*
X90680317Y-69558162D01*
X90896441Y-69419090D01*
X91041431Y-69206890D01*
X91092440Y-68955000D01*
X91092440Y-68355000D01*
X91048162Y-68119683D01*
X90984322Y-68020472D01*
X91041431Y-67936890D01*
X91092440Y-67685000D01*
X91092440Y-67085000D01*
X91059622Y-66910589D01*
X91085910Y-66951441D01*
X91298110Y-67096431D01*
X91550000Y-67147440D01*
X92450000Y-67147440D01*
X92685317Y-67103162D01*
X92901441Y-66964090D01*
X93000633Y-66818917D01*
X93085910Y-66951441D01*
X93298110Y-67096431D01*
X93550000Y-67147440D01*
X94450000Y-67147440D01*
X94685317Y-67103162D01*
X94901441Y-66964090D01*
X95000633Y-66818917D01*
X95085910Y-66951441D01*
X95298110Y-67096431D01*
X95550000Y-67147440D01*
X96450000Y-67147440D01*
X96685317Y-67103162D01*
X96901441Y-66964090D01*
X97000633Y-66818917D01*
X97085910Y-66951441D01*
X97298110Y-67096431D01*
X97550000Y-67147440D01*
X98450000Y-67147440D01*
X98685317Y-67103162D01*
X98901441Y-66964090D01*
X99046431Y-66751890D01*
X99097440Y-66500000D01*
X99097440Y-65300000D01*
X99053162Y-65064683D01*
X99005572Y-64990726D01*
X99050881Y-64961570D01*
X99195871Y-64749370D01*
X99246880Y-64497480D01*
X99246880Y-63298600D01*
X99202602Y-63063283D01*
X99063530Y-62847159D01*
X99062533Y-62846477D01*
X99195871Y-62651330D01*
X99246880Y-62399440D01*
X99246880Y-61200560D01*
X99202602Y-60965243D01*
X99063530Y-60749119D01*
X98851330Y-60604129D01*
X98760000Y-60585634D01*
X98760000Y-60444032D01*
X100307401Y-58896631D01*
X100433343Y-58708145D01*
X100564878Y-58839680D01*
X100564838Y-58885167D01*
X100615000Y-59006569D01*
X100615000Y-59121614D01*
X100528569Y-59248110D01*
X100477560Y-59500000D01*
X100477560Y-60700000D01*
X100521838Y-60935317D01*
X100660910Y-61151441D01*
X100873110Y-61296431D01*
X101125000Y-61347440D01*
X101875000Y-61347440D01*
X102110317Y-61303162D01*
X102326441Y-61164090D01*
X102471431Y-60951890D01*
X102522440Y-60700000D01*
X102522440Y-59500000D01*
X102478162Y-59264683D01*
X102385000Y-59119905D01*
X102385000Y-59006822D01*
X102434838Y-58886799D01*
X102435162Y-58514833D01*
X102365997Y-58347440D01*
X102395000Y-58347440D01*
X102630317Y-58303162D01*
X102846441Y-58164090D01*
X102991431Y-57951890D01*
X103042440Y-57700000D01*
X103042440Y-57353652D01*
X103140000Y-57451212D01*
X103140000Y-57500000D01*
X103197852Y-57790839D01*
X103362599Y-58037401D01*
X103464878Y-58139680D01*
X103464838Y-58185167D01*
X103606883Y-58528943D01*
X103820348Y-58742780D01*
X103792560Y-58880000D01*
X103792560Y-60080000D01*
X103836838Y-60315317D01*
X103975910Y-60531441D01*
X104045711Y-60579134D01*
X103988559Y-60615910D01*
X103843569Y-60828110D01*
X103792560Y-61080000D01*
X103792560Y-62280000D01*
X103836838Y-62515317D01*
X103975910Y-62731441D01*
X104037720Y-62773674D01*
X103914293Y-62796898D01*
X103698169Y-62935970D01*
X103553179Y-63148170D01*
X103502170Y-63400060D01*
X103502170Y-65701300D01*
X103514800Y-65768423D01*
X103514800Y-66599795D01*
X103514799Y-66599800D01*
X103567074Y-66862599D01*
X103582167Y-66938475D01*
X103666309Y-67064403D01*
X103585570Y-67064332D01*
X103186797Y-67229102D01*
X102881434Y-67533933D01*
X102715969Y-67932417D01*
X102715592Y-68363890D01*
X102880362Y-68762663D01*
X103185193Y-69068026D01*
X103583677Y-69233491D01*
X104015150Y-69233868D01*
X104413923Y-69069098D01*
X104615000Y-68868371D01*
X104615000Y-69433420D01*
X104591165Y-69457256D01*
X104471057Y-69506883D01*
X104207808Y-69769673D01*
X104065162Y-70113201D01*
X104064838Y-70485167D01*
X104206883Y-70828943D01*
X104469673Y-71092192D01*
X104813201Y-71234838D01*
X105185167Y-71235162D01*
X105528943Y-71093117D01*
X105792192Y-70830327D01*
X105842566Y-70709014D01*
X106125787Y-70425792D01*
X106125790Y-70425790D01*
X106317633Y-70138675D01*
X106350846Y-69971705D01*
X106385001Y-69800000D01*
X106385000Y-69799995D01*
X106385000Y-68363890D01*
X107114872Y-68363890D01*
X107279642Y-68762663D01*
X107584473Y-69068026D01*
X107982957Y-69233491D01*
X108414430Y-69233868D01*
X108813203Y-69069098D01*
X109118566Y-68764267D01*
X109284031Y-68365783D01*
X109284408Y-67934310D01*
X109119638Y-67535537D01*
X108814807Y-67230174D01*
X108416323Y-67064709D01*
X107984850Y-67064332D01*
X107586077Y-67229102D01*
X107280714Y-67533933D01*
X107115249Y-67932417D01*
X107114872Y-68363890D01*
X106385000Y-68363890D01*
X106385000Y-67700005D01*
X106385001Y-67700000D01*
X106317633Y-67361326D01*
X106317633Y-67361325D01*
X106125790Y-67074210D01*
X106125787Y-67074208D01*
X105400320Y-66348740D01*
X105450090Y-66348740D01*
X105605452Y-66319507D01*
X105749810Y-66348740D01*
X106250190Y-66348740D01*
X106485507Y-66304462D01*
X106701631Y-66165390D01*
X106846621Y-65953190D01*
X106897630Y-65701300D01*
X106897630Y-63400060D01*
X106853352Y-63164743D01*
X106760000Y-63019670D01*
X106760000Y-62927440D01*
X106770000Y-62927440D01*
X107005317Y-62883162D01*
X107221441Y-62744090D01*
X107366431Y-62531890D01*
X107417440Y-62280000D01*
X107417440Y-61080000D01*
X107373162Y-60844683D01*
X107234090Y-60628559D01*
X107164289Y-60580866D01*
X107221441Y-60544090D01*
X107366431Y-60331890D01*
X107417440Y-60080000D01*
X107417440Y-58880000D01*
X107373162Y-58644683D01*
X107234090Y-58428559D01*
X107021890Y-58283569D01*
X106925119Y-58263972D01*
X106925162Y-58214833D01*
X106783117Y-57871057D01*
X106520327Y-57607808D01*
X106176799Y-57465162D01*
X105872572Y-57464897D01*
X105737401Y-57262599D01*
X104497242Y-56022440D01*
X104720000Y-56022440D01*
X104955317Y-55978162D01*
X105171441Y-55839090D01*
X105316431Y-55626890D01*
X105367440Y-55375000D01*
X105367440Y-55125000D01*
X105326642Y-54908180D01*
X105507401Y-54787401D01*
X105823967Y-54470835D01*
X105777560Y-54700000D01*
X105777560Y-55900000D01*
X105821838Y-56135317D01*
X105960910Y-56351441D01*
X106173110Y-56496431D01*
X106425000Y-56547440D01*
X107175000Y-56547440D01*
X107410317Y-56503162D01*
X107626441Y-56364090D01*
X107748808Y-56185000D01*
X107999885Y-56185000D01*
X107999890Y-56185001D01*
X108290730Y-56127148D01*
X108338565Y-56117633D01*
X108625680Y-55925790D01*
X109816459Y-54735010D01*
X111102320Y-54735010D01*
X111337637Y-54690732D01*
X111553761Y-54551660D01*
X111698751Y-54339460D01*
X111749760Y-54087570D01*
X111749760Y-51907570D01*
X111705482Y-51672253D01*
X111566410Y-51456129D01*
X111354210Y-51311139D01*
X111102320Y-51260130D01*
X109502320Y-51260130D01*
X109267003Y-51304408D01*
X109050879Y-51443480D01*
X108905889Y-51655680D01*
X108854880Y-51907570D01*
X108854880Y-52415000D01*
X108306822Y-52415000D01*
X108186799Y-52365162D01*
X107814833Y-52364838D01*
X107693431Y-52415000D01*
X107621192Y-52415000D01*
X107514090Y-52248559D01*
X107444289Y-52200866D01*
X107501441Y-52164090D01*
X107646431Y-51951890D01*
X107697440Y-51700000D01*
X107697440Y-50811810D01*
X107748110Y-50846431D01*
X108000000Y-50897440D01*
X109200000Y-50897440D01*
X109435317Y-50853162D01*
X109651441Y-50714090D01*
X109699134Y-50644289D01*
X109735910Y-50701441D01*
X109948110Y-50846431D01*
X110200000Y-50897440D01*
X111400000Y-50897440D01*
X111635317Y-50853162D01*
X111851441Y-50714090D01*
X111890000Y-50657657D01*
X111890000Y-69517291D01*
X111873712Y-69556614D01*
X111666261Y-70599541D01*
X111156715Y-71362131D01*
X110393849Y-71871862D01*
X109355980Y-72079248D01*
X109330086Y-72090000D01*
X66082709Y-72090000D01*
X66043386Y-72073712D01*
X65000459Y-71866261D01*
X64237869Y-71356715D01*
X63728138Y-70593849D01*
X63520752Y-69555980D01*
X63510000Y-69530086D01*
X63510000Y-52836440D01*
X67091000Y-52836440D01*
X67326317Y-52792162D01*
X67542441Y-52653090D01*
X67687431Y-52440890D01*
X67713532Y-52312000D01*
X68274030Y-52312000D01*
X68299410Y-52351441D01*
X68511610Y-52496431D01*
X68763500Y-52547440D01*
X69263500Y-52547440D01*
X69498817Y-52503162D01*
X69714941Y-52364090D01*
X69763131Y-52293561D01*
X69928627Y-52262421D01*
X69985910Y-52351441D01*
X70198110Y-52496431D01*
X70450000Y-52547440D01*
X70950000Y-52547440D01*
X71185317Y-52503162D01*
X71401441Y-52364090D01*
X71465580Y-52270219D01*
X71600000Y-52297440D01*
X72200000Y-52297440D01*
X72435317Y-52253162D01*
X72580095Y-52160000D01*
X73331380Y-52160000D01*
X73348110Y-52171431D01*
X73600000Y-52222440D01*
X74400000Y-52222440D01*
X74635317Y-52178162D01*
X74851441Y-52039090D01*
X74996431Y-51826890D01*
X75047440Y-51575000D01*
X75047440Y-51225000D01*
X75018179Y-51069493D01*
X75047440Y-50925000D01*
X75047440Y-50575000D01*
X75003162Y-50339683D01*
X74864090Y-50123559D01*
X74651890Y-49978569D01*
X74400000Y-49927560D01*
X73860000Y-49927560D01*
X73860000Y-49824929D01*
X73917633Y-49738675D01*
X73939958Y-49626441D01*
X73985001Y-49400000D01*
X73985000Y-49399995D01*
X73985000Y-49178386D01*
X74014754Y-49134839D01*
X74385167Y-49135162D01*
X74728943Y-48993117D01*
X74992192Y-48730327D01*
X75134838Y-48386799D01*
X75135162Y-48014833D01*
X74993117Y-47671057D01*
X74730327Y-47407808D01*
X74386799Y-47265162D01*
X74014833Y-47264838D01*
X74014107Y-47265138D01*
X73939090Y-47148559D01*
X73726890Y-47003569D01*
X73475000Y-46952560D01*
X72725000Y-46952560D01*
X72489683Y-46996838D01*
X72452272Y-47020912D01*
X72426890Y-47003569D01*
X72175000Y-46952560D01*
X71425000Y-46952560D01*
X71189683Y-46996838D01*
X70973559Y-47135910D01*
X70828569Y-47348110D01*
X70777560Y-47600000D01*
X70777560Y-48800000D01*
X70821838Y-49035317D01*
X70960910Y-49251441D01*
X71173110Y-49396431D01*
X71425000Y-49447440D01*
X71892468Y-49447440D01*
X71865162Y-49513201D01*
X71864838Y-49885167D01*
X72006883Y-50228943D01*
X72269673Y-50492192D01*
X72344639Y-50523321D01*
X72346407Y-50532208D01*
X72200000Y-50502560D01*
X71600000Y-50502560D01*
X71364683Y-50546838D01*
X71353021Y-50554342D01*
X71351890Y-50553569D01*
X71100000Y-50502560D01*
X70500000Y-50502560D01*
X70457484Y-50510560D01*
X70200000Y-50510560D01*
X69964683Y-50554838D01*
X69953021Y-50562342D01*
X69951890Y-50561569D01*
X69700000Y-50510560D01*
X69699784Y-50510560D01*
X69515390Y-50384569D01*
X69263500Y-50333560D01*
X68960000Y-50333560D01*
X68960000Y-44573420D01*
X68902148Y-44282581D01*
X68902148Y-44282580D01*
X68737401Y-44036019D01*
X68314321Y-43612939D01*
X68146265Y-43500648D01*
X68130082Y-43414643D01*
X67991010Y-43198519D01*
X67778810Y-43053529D01*
X67526920Y-43002520D01*
X66475360Y-43002520D01*
X66240043Y-43046798D01*
X66023919Y-43185870D01*
X65878929Y-43398070D01*
X65827920Y-43649960D01*
X65827920Y-44650720D01*
X65872198Y-44886037D01*
X66011270Y-45102161D01*
X66223470Y-45247151D01*
X66475360Y-45298160D01*
X67440000Y-45298160D01*
X67440000Y-50134921D01*
X67342890Y-50068569D01*
X67091000Y-50017560D01*
X63510000Y-50017560D01*
X63510000Y-42169650D01*
X63520877Y-42143391D01*
X63678700Y-41349960D01*
X70327920Y-41349960D01*
X70327920Y-42350720D01*
X70372198Y-42586037D01*
X70511270Y-42802161D01*
X70723470Y-42947151D01*
X70975360Y-42998160D01*
X71397380Y-42998160D01*
X71964855Y-43565634D01*
X71964838Y-43585167D01*
X72106883Y-43928943D01*
X72369673Y-44192192D01*
X72713201Y-44334838D01*
X73085167Y-44335162D01*
X73428943Y-44193117D01*
X73692192Y-43930327D01*
X73834838Y-43586799D01*
X73835162Y-43214833D01*
X73725253Y-42948831D01*
X73717633Y-42910526D01*
X73717633Y-42910525D01*
X73696124Y-42878334D01*
X73693117Y-42871057D01*
X73687505Y-42865436D01*
X73525790Y-42623410D01*
X73525787Y-42623408D01*
X72674360Y-41771980D01*
X72674360Y-41349960D01*
X72630082Y-41114643D01*
X72491010Y-40898519D01*
X72278810Y-40753529D01*
X72026920Y-40702520D01*
X70975360Y-40702520D01*
X70740043Y-40746798D01*
X70523919Y-40885870D01*
X70378929Y-41098070D01*
X70327920Y-41349960D01*
X63678700Y-41349960D01*
X63728328Y-41100464D01*
X64237874Y-40337874D01*
X65000740Y-39828143D01*
X66038609Y-39620757D01*
X66064515Y-39610000D01*
X83424768Y-39610000D01*
X83323569Y-39758110D01*
X83323569Y-39758110D01*
G37*
X83323569Y-39758110D02*
X83272560Y-40010000D01*
X83272560Y-41693454D01*
X83120000Y-41662560D01*
X81020000Y-41662560D01*
X80784683Y-41706838D01*
X80568559Y-41845910D01*
X80423569Y-42058110D01*
X80372560Y-42310000D01*
X80372560Y-42440000D01*
X80252334Y-42440000D01*
X80238162Y-42364683D01*
X80099090Y-42148559D01*
X79886890Y-42003569D01*
X79635000Y-41952560D01*
X78885000Y-41952560D01*
X78649683Y-41996838D01*
X78433559Y-42135910D01*
X78288569Y-42348110D01*
X78256441Y-42506763D01*
X78217633Y-42311666D01*
X78217633Y-42311665D01*
X78025790Y-42024550D01*
X78025787Y-42024548D01*
X77773220Y-41771981D01*
X77773220Y-41349960D01*
X77728942Y-41114643D01*
X77589870Y-40898519D01*
X77377670Y-40753529D01*
X77125780Y-40702520D01*
X76074220Y-40702520D01*
X75838903Y-40746798D01*
X75622779Y-40885870D01*
X75477789Y-41098070D01*
X75426780Y-41349960D01*
X75426780Y-42350720D01*
X75471058Y-42586037D01*
X75610130Y-42802161D01*
X75822330Y-42947151D01*
X76074220Y-42998160D01*
X76465088Y-42998160D01*
X76464838Y-43285167D01*
X76606883Y-43628943D01*
X76869673Y-43892192D01*
X77213201Y-44034838D01*
X77585167Y-44035162D01*
X77928943Y-43893117D01*
X78192192Y-43630327D01*
X78237560Y-43521069D01*
X78237560Y-43800000D01*
X78281838Y-44035317D01*
X78420910Y-44251441D01*
X78633110Y-44396431D01*
X78885000Y-44447440D01*
X79635000Y-44447440D01*
X79870317Y-44403162D01*
X80086441Y-44264090D01*
X80231431Y-44051890D01*
X80250039Y-43960000D01*
X80372560Y-43960000D01*
X80372560Y-44110000D01*
X80416838Y-44345317D01*
X80555910Y-44561441D01*
X80579501Y-44577560D01*
X80500000Y-44577560D01*
X80264683Y-44621838D01*
X80048559Y-44760910D01*
X79903569Y-44973110D01*
X79852560Y-45225000D01*
X79852560Y-45595860D01*
X79570860Y-45877560D01*
X79350000Y-45877560D01*
X79114683Y-45921838D01*
X78898559Y-46060910D01*
X78753569Y-46273110D01*
X78702560Y-46525000D01*
X78702560Y-47275000D01*
X78746838Y-47510317D01*
X78885910Y-47726441D01*
X79065044Y-47848838D01*
X79064838Y-48085167D01*
X79206883Y-48428943D01*
X79252947Y-48475087D01*
X79297852Y-48700839D01*
X79462599Y-48947401D01*
X79855198Y-49340000D01*
X79268620Y-49340000D01*
X79251890Y-49328569D01*
X79000000Y-49277560D01*
X78200000Y-49277560D01*
X78071786Y-49301685D01*
X78097440Y-49175000D01*
X78097440Y-48375000D01*
X78053162Y-48139683D01*
X78035000Y-48111458D01*
X78035000Y-47975000D01*
X77977148Y-47684161D01*
X77812401Y-47437599D01*
X77635122Y-47260320D01*
X77635162Y-47214833D01*
X77493117Y-46871057D01*
X77230327Y-46607808D01*
X76886799Y-46465162D01*
X76514833Y-46464838D01*
X76299896Y-46553648D01*
X76086799Y-46465162D01*
X75714833Y-46464838D01*
X75371057Y-46606883D01*
X75107808Y-46869673D01*
X74965162Y-47213201D01*
X74964838Y-47585167D01*
X75106883Y-47928943D01*
X75215000Y-48037249D01*
X75215000Y-48106380D01*
X75203569Y-48123110D01*
X75152560Y-48375000D01*
X75152560Y-49175000D01*
X75196838Y-49410317D01*
X75335910Y-49626441D01*
X75548110Y-49771431D01*
X75800000Y-49822440D01*
X76150000Y-49822440D01*
X76305507Y-49793179D01*
X76450000Y-49822440D01*
X76800000Y-49822440D01*
X76955507Y-49793179D01*
X77100000Y-49822440D01*
X77450000Y-49822440D01*
X77578214Y-49798315D01*
X77552560Y-49925000D01*
X77552560Y-50275000D01*
X77581821Y-50430507D01*
X77552560Y-50575000D01*
X77552560Y-50925000D01*
X77581821Y-51080507D01*
X77552560Y-51225000D01*
X77552560Y-51575000D01*
X77581821Y-51730507D01*
X77552560Y-51875000D01*
X77552560Y-52225000D01*
X77576685Y-52353214D01*
X77450000Y-52327560D01*
X77100000Y-52327560D01*
X76944493Y-52356821D01*
X76800000Y-52327560D01*
X76450000Y-52327560D01*
X76214683Y-52371838D01*
X75998559Y-52510910D01*
X75976616Y-52543025D01*
X75964090Y-52523559D01*
X75751890Y-52378569D01*
X75500000Y-52327560D01*
X75150000Y-52327560D01*
X74914683Y-52371838D01*
X74698559Y-52510910D01*
X74553569Y-52723110D01*
X74502560Y-52975000D01*
X74502560Y-53775000D01*
X74546838Y-54010317D01*
X74565000Y-54038542D01*
X74565000Y-54060198D01*
X74462599Y-54162599D01*
X74297852Y-54409161D01*
X74287184Y-54462795D01*
X74249273Y-54487190D01*
X74126890Y-54403569D01*
X73875000Y-54352560D01*
X73125000Y-54352560D01*
X72889683Y-54396838D01*
X72673559Y-54535910D01*
X72528569Y-54748110D01*
X72477560Y-55000000D01*
X72477560Y-56200000D01*
X72521838Y-56435317D01*
X72660910Y-56651441D01*
X72873110Y-56796431D01*
X73125000Y-56847440D01*
X73875000Y-56847440D01*
X74110317Y-56803162D01*
X74250727Y-56712810D01*
X74373110Y-56796431D01*
X74625000Y-56847440D01*
X75375000Y-56847440D01*
X75610317Y-56803162D01*
X75763602Y-56704526D01*
X75898110Y-56796431D01*
X76150000Y-56847440D01*
X77050000Y-56847440D01*
X77285317Y-56803162D01*
X77438602Y-56704526D01*
X77573110Y-56796431D01*
X77825000Y-56847440D01*
X78575000Y-56847440D01*
X78810317Y-56803162D01*
X78950727Y-56712810D01*
X79073110Y-56796431D01*
X79325000Y-56847440D01*
X80075000Y-56847440D01*
X80310317Y-56803162D01*
X80475008Y-56697187D01*
X80669673Y-56892192D01*
X81013201Y-57034838D01*
X81176740Y-57034980D01*
X81256883Y-57228943D01*
X81519673Y-57492192D01*
X81863201Y-57634838D01*
X82235167Y-57635162D01*
X82356569Y-57585000D01*
X82699995Y-57585000D01*
X82700000Y-57585001D01*
X82888828Y-57547440D01*
X83475000Y-57547440D01*
X83710317Y-57503162D01*
X83902227Y-57379671D01*
X84073110Y-57496431D01*
X84325000Y-57547440D01*
X85075000Y-57547440D01*
X85310317Y-57503162D01*
X85526441Y-57364090D01*
X85574264Y-57294098D01*
X85913201Y-57434838D01*
X86285167Y-57435162D01*
X86628943Y-57293117D01*
X86761244Y-57161046D01*
X86937599Y-57337401D01*
X87084215Y-57435366D01*
X87121838Y-57635317D01*
X87195620Y-57749978D01*
X87128569Y-57848110D01*
X87077560Y-58100000D01*
X87077560Y-59300000D01*
X87121838Y-59535317D01*
X87205511Y-59665349D01*
X87173559Y-59685910D01*
X87085356Y-59815000D01*
X86078386Y-59815000D01*
X85951890Y-59728569D01*
X85700000Y-59677560D01*
X84500000Y-59677560D01*
X84264683Y-59721838D01*
X84150022Y-59795620D01*
X84051890Y-59728569D01*
X83800000Y-59677560D01*
X82600000Y-59677560D01*
X82364683Y-59721838D01*
X82219905Y-59815000D01*
X82178386Y-59815000D01*
X82085000Y-59751192D01*
X82085000Y-59406822D01*
X82134838Y-59286799D01*
X82135162Y-58914833D01*
X81993117Y-58571057D01*
X81730327Y-58307808D01*
X81386799Y-58165162D01*
X81014833Y-58164838D01*
X80671057Y-58306883D01*
X80407808Y-58569673D01*
X80265162Y-58913201D01*
X80264838Y-59285167D01*
X80315000Y-59406569D01*
X80315000Y-59753808D01*
X80148559Y-59860910D01*
X80003569Y-60073110D01*
X79952560Y-60325000D01*
X79952560Y-61075000D01*
X79996838Y-61310317D01*
X80135910Y-61526441D01*
X80315000Y-61648808D01*
X80315000Y-61758421D01*
X80216165Y-61857256D01*
X80096057Y-61906883D01*
X79832808Y-62169673D01*
X79690162Y-62513201D01*
X79690121Y-62560077D01*
X79610198Y-62640000D01*
X79359884Y-62640000D01*
X79175000Y-62602560D01*
X78525000Y-62602560D01*
X78289683Y-62646838D01*
X78073559Y-62785910D01*
X77928569Y-62998110D01*
X77877560Y-63250000D01*
X77877560Y-63550000D01*
X77897067Y-63653671D01*
X77877560Y-63750000D01*
X77877560Y-64050000D01*
X77897067Y-64153671D01*
X77892512Y-64176164D01*
X77861324Y-64182368D01*
X77850439Y-64189641D01*
X77809160Y-64197852D01*
X77562599Y-64362599D01*
X77162599Y-64762599D01*
X77115837Y-64832584D01*
X76808420Y-65140000D01*
X76304215Y-65140000D01*
X76322440Y-65050000D01*
X76322440Y-64750000D01*
X76302933Y-64646329D01*
X76322440Y-64550000D01*
X76322440Y-64250000D01*
X76302933Y-64146329D01*
X76322440Y-64050000D01*
X76322440Y-63750000D01*
X76302933Y-63646329D01*
X76322440Y-63550000D01*
X76322440Y-63250000D01*
X76302933Y-63146329D01*
X76322440Y-63050000D01*
X76322440Y-62750000D01*
X76278162Y-62514683D01*
X76260000Y-62486458D01*
X76260000Y-61692334D01*
X76335317Y-61678162D01*
X76551441Y-61539090D01*
X76696431Y-61326890D01*
X76747440Y-61075000D01*
X76747440Y-60325000D01*
X76703162Y-60089683D01*
X76564090Y-59873559D01*
X76351890Y-59728569D01*
X76100000Y-59677560D01*
X74900000Y-59677560D01*
X74664683Y-59721838D01*
X74448559Y-59860910D01*
X74397440Y-59935725D01*
X74397440Y-59800000D01*
X74353162Y-59564683D01*
X74214090Y-59348559D01*
X74001890Y-59203569D01*
X73750000Y-59152560D01*
X72850000Y-59152560D01*
X72614683Y-59196838D01*
X72398559Y-59335910D01*
X72276192Y-59515000D01*
X72243620Y-59515000D01*
X72226890Y-59503569D01*
X72189495Y-59495996D01*
X72234838Y-59386799D01*
X72235162Y-59014833D01*
X72093117Y-58671057D01*
X71830327Y-58407808D01*
X71486799Y-58265162D01*
X71114833Y-58264838D01*
X70771057Y-58406883D01*
X70507808Y-58669673D01*
X70365162Y-59013201D01*
X70364838Y-59385167D01*
X70415000Y-59506569D01*
X70415000Y-60399995D01*
X70414999Y-60400000D01*
X70445847Y-60555080D01*
X70482367Y-60738675D01*
X70577560Y-60881142D01*
X70577560Y-61300000D01*
X70596856Y-61402550D01*
X70350000Y-61352560D01*
X69450000Y-61352560D01*
X69214683Y-61396838D01*
X68998559Y-61535910D01*
X68853569Y-61748110D01*
X68802560Y-62000000D01*
X68802560Y-63200000D01*
X68846838Y-63435317D01*
X68985910Y-63651441D01*
X69198110Y-63796431D01*
X69450000Y-63847440D01*
X70350000Y-63847440D01*
X70585317Y-63803162D01*
X70790102Y-63671387D01*
X70973110Y-63796431D01*
X71225000Y-63847440D01*
X71975000Y-63847440D01*
X72210317Y-63803162D01*
X72415102Y-63671387D01*
X72598110Y-63796431D01*
X72850000Y-63847440D01*
X73290238Y-63847440D01*
X73240000Y-64100000D01*
X73240000Y-64700000D01*
X73297852Y-64990839D01*
X73462599Y-65237401D01*
X73662599Y-65437401D01*
X73764516Y-65505500D01*
X73750000Y-65502560D01*
X72250000Y-65502560D01*
X72014683Y-65546838D01*
X71798559Y-65685910D01*
X71653569Y-65898110D01*
X71650919Y-65911197D01*
X71514090Y-65698559D01*
X71301890Y-65553569D01*
X71050000Y-65502560D01*
X69550000Y-65502560D01*
X69314683Y-65546838D01*
X69098559Y-65685910D01*
X68953569Y-65898110D01*
X68950149Y-65915000D01*
X67563440Y-65915000D01*
X67563440Y-65884000D01*
X67519162Y-65648683D01*
X67380090Y-65432559D01*
X67167890Y-65287569D01*
X66916000Y-65236560D01*
X64884000Y-65236560D01*
X64648683Y-65280838D01*
X64432559Y-65419910D01*
X64287569Y-65632110D01*
X64236560Y-65884000D01*
X64236560Y-67916000D01*
X64280838Y-68151317D01*
X64419910Y-68367441D01*
X64632110Y-68512431D01*
X64884000Y-68563440D01*
X66916000Y-68563440D01*
X67151317Y-68519162D01*
X67367441Y-68380090D01*
X67512431Y-68167890D01*
X67563440Y-67916000D01*
X67563440Y-67685000D01*
X68946778Y-67685000D01*
X68946838Y-67685317D01*
X69085910Y-67901441D01*
X69298110Y-68046431D01*
X69550000Y-68097440D01*
X71050000Y-68097440D01*
X71285317Y-68053162D01*
X71501441Y-67914090D01*
X71646431Y-67701890D01*
X71649081Y-67688803D01*
X71785910Y-67901441D01*
X71998110Y-68046431D01*
X72250000Y-68097440D01*
X73750000Y-68097440D01*
X73985317Y-68053162D01*
X74201441Y-67914090D01*
X74289644Y-67785000D01*
X74821614Y-67785000D01*
X74915000Y-67848808D01*
X74915000Y-68093178D01*
X74865162Y-68213201D01*
X74864838Y-68585167D01*
X75006883Y-68928943D01*
X75269673Y-69192192D01*
X75613201Y-69334838D01*
X75985167Y-69335162D01*
X76328943Y-69193117D01*
X76592192Y-68930327D01*
X76734838Y-68586799D01*
X76735162Y-68214833D01*
X76685000Y-68093431D01*
X76685000Y-67846192D01*
X76851441Y-67739090D01*
X76996431Y-67526890D01*
X77047440Y-67275000D01*
X77047440Y-66910000D01*
X77174995Y-66910000D01*
X77175000Y-66910001D01*
X77488709Y-66847599D01*
X77513675Y-66842633D01*
X77800790Y-66650790D01*
X77800791Y-66650789D01*
X78566578Y-65885001D01*
X78850000Y-65885001D01*
X79188675Y-65817634D01*
X79475790Y-65625791D01*
X79493091Y-65599899D01*
X79626441Y-65514090D01*
X79771431Y-65301890D01*
X79822440Y-65050000D01*
X79822440Y-64750000D01*
X79805505Y-64660000D01*
X80800000Y-64660000D01*
X81090839Y-64602148D01*
X81258700Y-64489987D01*
X81247560Y-64545000D01*
X81247560Y-65145000D01*
X81291838Y-65380317D01*
X81355678Y-65479528D01*
X81298569Y-65563110D01*
X81247560Y-65815000D01*
X81247560Y-66340167D01*
X81051330Y-66206089D01*
X80799440Y-66155080D01*
X79600560Y-66155080D01*
X79365243Y-66199358D01*
X79149119Y-66338430D01*
X79004129Y-66550630D01*
X78953120Y-66802520D01*
X78953120Y-68001400D01*
X78997398Y-68236717D01*
X79136470Y-68452841D01*
X79137467Y-68453523D01*
X79046555Y-68586578D01*
X78851890Y-68453569D01*
X78600000Y-68402560D01*
X77400000Y-68402560D01*
X77164683Y-68446838D01*
X76948559Y-68585910D01*
X76803569Y-68798110D01*
X76752560Y-69050000D01*
X76752560Y-69950000D01*
X76796838Y-70185317D01*
X76935910Y-70401441D01*
X77148110Y-70546431D01*
X77400000Y-70597440D01*
X78600000Y-70597440D01*
X78835317Y-70553162D01*
X79049324Y-70415452D01*
X79136470Y-70550881D01*
X79348670Y-70695871D01*
X79600560Y-70746880D01*
X80799440Y-70746880D01*
X81034757Y-70702602D01*
X81250881Y-70563530D01*
X81395871Y-70351330D01*
X81446880Y-70099440D01*
X81446880Y-68900560D01*
X81402602Y-68665243D01*
X81263530Y-68449119D01*
X81262533Y-68448437D01*
X81372865Y-68286960D01*
X81670413Y-68286960D01*
X81895000Y-68332440D01*
X83445000Y-68332440D01*
X83680317Y-68288162D01*
X83700771Y-68275000D01*
X83993178Y-68275000D01*
X84113201Y-68324838D01*
X84485167Y-68325162D01*
X84828943Y-68183117D01*
X85092192Y-67920327D01*
X85229603Y-67589407D01*
X86832597Y-69192401D01*
X87079159Y-69357148D01*
X87369998Y-69415000D01*
X88443437Y-69415000D01*
X88643110Y-69551431D01*
X88895000Y-69602440D01*
X90445000Y-69602440D01*
X90680317Y-69558162D01*
X90896441Y-69419090D01*
X91041431Y-69206890D01*
X91092440Y-68955000D01*
X91092440Y-68355000D01*
X91048162Y-68119683D01*
X90984322Y-68020472D01*
X91041431Y-67936890D01*
X91092440Y-67685000D01*
X91092440Y-67085000D01*
X91059622Y-66910589D01*
X91085910Y-66951441D01*
X91298110Y-67096431D01*
X91550000Y-67147440D01*
X92450000Y-67147440D01*
X92685317Y-67103162D01*
X92901441Y-66964090D01*
X93000633Y-66818917D01*
X93085910Y-66951441D01*
X93298110Y-67096431D01*
X93550000Y-67147440D01*
X94450000Y-67147440D01*
X94685317Y-67103162D01*
X94901441Y-66964090D01*
X95000633Y-66818917D01*
X95085910Y-66951441D01*
X95298110Y-67096431D01*
X95550000Y-67147440D01*
X96450000Y-67147440D01*
X96685317Y-67103162D01*
X96901441Y-66964090D01*
X97000633Y-66818917D01*
X97085910Y-66951441D01*
X97298110Y-67096431D01*
X97550000Y-67147440D01*
X98450000Y-67147440D01*
X98685317Y-67103162D01*
X98901441Y-66964090D01*
X99046431Y-66751890D01*
X99097440Y-66500000D01*
X99097440Y-65300000D01*
X99053162Y-65064683D01*
X99005572Y-64990726D01*
X99050881Y-64961570D01*
X99195871Y-64749370D01*
X99246880Y-64497480D01*
X99246880Y-63298600D01*
X99202602Y-63063283D01*
X99063530Y-62847159D01*
X99062533Y-62846477D01*
X99195871Y-62651330D01*
X99246880Y-62399440D01*
X99246880Y-61200560D01*
X99202602Y-60965243D01*
X99063530Y-60749119D01*
X98851330Y-60604129D01*
X98760000Y-60585634D01*
X98760000Y-60444032D01*
X100307401Y-58896631D01*
X100433343Y-58708145D01*
X100564878Y-58839680D01*
X100564838Y-58885167D01*
X100615000Y-59006569D01*
X100615000Y-59121614D01*
X100528569Y-59248110D01*
X100477560Y-59500000D01*
X100477560Y-60700000D01*
X100521838Y-60935317D01*
X100660910Y-61151441D01*
X100873110Y-61296431D01*
X101125000Y-61347440D01*
X101875000Y-61347440D01*
X102110317Y-61303162D01*
X102326441Y-61164090D01*
X102471431Y-60951890D01*
X102522440Y-60700000D01*
X102522440Y-59500000D01*
X102478162Y-59264683D01*
X102385000Y-59119905D01*
X102385000Y-59006822D01*
X102434838Y-58886799D01*
X102435162Y-58514833D01*
X102365997Y-58347440D01*
X102395000Y-58347440D01*
X102630317Y-58303162D01*
X102846441Y-58164090D01*
X102991431Y-57951890D01*
X103042440Y-57700000D01*
X103042440Y-57353652D01*
X103140000Y-57451212D01*
X103140000Y-57500000D01*
X103197852Y-57790839D01*
X103362599Y-58037401D01*
X103464878Y-58139680D01*
X103464838Y-58185167D01*
X103606883Y-58528943D01*
X103820348Y-58742780D01*
X103792560Y-58880000D01*
X103792560Y-60080000D01*
X103836838Y-60315317D01*
X103975910Y-60531441D01*
X104045711Y-60579134D01*
X103988559Y-60615910D01*
X103843569Y-60828110D01*
X103792560Y-61080000D01*
X103792560Y-62280000D01*
X103836838Y-62515317D01*
X103975910Y-62731441D01*
X104037720Y-62773674D01*
X103914293Y-62796898D01*
X103698169Y-62935970D01*
X103553179Y-63148170D01*
X103502170Y-63400060D01*
X103502170Y-65701300D01*
X103514800Y-65768423D01*
X103514800Y-66599795D01*
X103514799Y-66599800D01*
X103567074Y-66862599D01*
X103582167Y-66938475D01*
X103666309Y-67064403D01*
X103585570Y-67064332D01*
X103186797Y-67229102D01*
X102881434Y-67533933D01*
X102715969Y-67932417D01*
X102715592Y-68363890D01*
X102880362Y-68762663D01*
X103185193Y-69068026D01*
X103583677Y-69233491D01*
X104015150Y-69233868D01*
X104413923Y-69069098D01*
X104615000Y-68868371D01*
X104615000Y-69433420D01*
X104591165Y-69457256D01*
X104471057Y-69506883D01*
X104207808Y-69769673D01*
X104065162Y-70113201D01*
X104064838Y-70485167D01*
X104206883Y-70828943D01*
X104469673Y-71092192D01*
X104813201Y-71234838D01*
X105185167Y-71235162D01*
X105528943Y-71093117D01*
X105792192Y-70830327D01*
X105842566Y-70709014D01*
X106125787Y-70425792D01*
X106125790Y-70425790D01*
X106317633Y-70138675D01*
X106350846Y-69971705D01*
X106385001Y-69800000D01*
X106385000Y-69799995D01*
X106385000Y-68363890D01*
X107114872Y-68363890D01*
X107279642Y-68762663D01*
X107584473Y-69068026D01*
X107982957Y-69233491D01*
X108414430Y-69233868D01*
X108813203Y-69069098D01*
X109118566Y-68764267D01*
X109284031Y-68365783D01*
X109284408Y-67934310D01*
X109119638Y-67535537D01*
X108814807Y-67230174D01*
X108416323Y-67064709D01*
X107984850Y-67064332D01*
X107586077Y-67229102D01*
X107280714Y-67533933D01*
X107115249Y-67932417D01*
X107114872Y-68363890D01*
X106385000Y-68363890D01*
X106385000Y-67700005D01*
X106385001Y-67700000D01*
X106317633Y-67361326D01*
X106317633Y-67361325D01*
X106125790Y-67074210D01*
X106125787Y-67074208D01*
X105400320Y-66348740D01*
X105450090Y-66348740D01*
X105605452Y-66319507D01*
X105749810Y-66348740D01*
X106250190Y-66348740D01*
X106485507Y-66304462D01*
X106701631Y-66165390D01*
X106846621Y-65953190D01*
X106897630Y-65701300D01*
X106897630Y-63400060D01*
X106853352Y-63164743D01*
X106760000Y-63019670D01*
X106760000Y-62927440D01*
X106770000Y-62927440D01*
X107005317Y-62883162D01*
X107221441Y-62744090D01*
X107366431Y-62531890D01*
X107417440Y-62280000D01*
X107417440Y-61080000D01*
X107373162Y-60844683D01*
X107234090Y-60628559D01*
X107164289Y-60580866D01*
X107221441Y-60544090D01*
X107366431Y-60331890D01*
X107417440Y-60080000D01*
X107417440Y-58880000D01*
X107373162Y-58644683D01*
X107234090Y-58428559D01*
X107021890Y-58283569D01*
X106925119Y-58263972D01*
X106925162Y-58214833D01*
X106783117Y-57871057D01*
X106520327Y-57607808D01*
X106176799Y-57465162D01*
X105872572Y-57464897D01*
X105737401Y-57262599D01*
X104497242Y-56022440D01*
X104720000Y-56022440D01*
X104955317Y-55978162D01*
X105171441Y-55839090D01*
X105316431Y-55626890D01*
X105367440Y-55375000D01*
X105367440Y-55125000D01*
X105326642Y-54908180D01*
X105507401Y-54787401D01*
X105823967Y-54470835D01*
X105777560Y-54700000D01*
X105777560Y-55900000D01*
X105821838Y-56135317D01*
X105960910Y-56351441D01*
X106173110Y-56496431D01*
X106425000Y-56547440D01*
X107175000Y-56547440D01*
X107410317Y-56503162D01*
X107626441Y-56364090D01*
X107748808Y-56185000D01*
X107999885Y-56185000D01*
X107999890Y-56185001D01*
X108290730Y-56127148D01*
X108338565Y-56117633D01*
X108625680Y-55925790D01*
X109816459Y-54735010D01*
X111102320Y-54735010D01*
X111337637Y-54690732D01*
X111553761Y-54551660D01*
X111698751Y-54339460D01*
X111749760Y-54087570D01*
X111749760Y-51907570D01*
X111705482Y-51672253D01*
X111566410Y-51456129D01*
X111354210Y-51311139D01*
X111102320Y-51260130D01*
X109502320Y-51260130D01*
X109267003Y-51304408D01*
X109050879Y-51443480D01*
X108905889Y-51655680D01*
X108854880Y-51907570D01*
X108854880Y-52415000D01*
X108306822Y-52415000D01*
X108186799Y-52365162D01*
X107814833Y-52364838D01*
X107693431Y-52415000D01*
X107621192Y-52415000D01*
X107514090Y-52248559D01*
X107444289Y-52200866D01*
X107501441Y-52164090D01*
X107646431Y-51951890D01*
X107697440Y-51700000D01*
X107697440Y-50811810D01*
X107748110Y-50846431D01*
X108000000Y-50897440D01*
X109200000Y-50897440D01*
X109435317Y-50853162D01*
X109651441Y-50714090D01*
X109699134Y-50644289D01*
X109735910Y-50701441D01*
X109948110Y-50846431D01*
X110200000Y-50897440D01*
X111400000Y-50897440D01*
X111635317Y-50853162D01*
X111851441Y-50714090D01*
X111890000Y-50657657D01*
X111890000Y-69517291D01*
X111873712Y-69556614D01*
X111666261Y-70599541D01*
X111156715Y-71362131D01*
X110393849Y-71871862D01*
X109355980Y-72079248D01*
X109330086Y-72090000D01*
X66082709Y-72090000D01*
X66043386Y-72073712D01*
X65000459Y-71866261D01*
X64237869Y-71356715D01*
X63728138Y-70593849D01*
X63520752Y-69555980D01*
X63510000Y-69530086D01*
X63510000Y-52836440D01*
X67091000Y-52836440D01*
X67326317Y-52792162D01*
X67542441Y-52653090D01*
X67687431Y-52440890D01*
X67713532Y-52312000D01*
X68274030Y-52312000D01*
X68299410Y-52351441D01*
X68511610Y-52496431D01*
X68763500Y-52547440D01*
X69263500Y-52547440D01*
X69498817Y-52503162D01*
X69714941Y-52364090D01*
X69763131Y-52293561D01*
X69928627Y-52262421D01*
X69985910Y-52351441D01*
X70198110Y-52496431D01*
X70450000Y-52547440D01*
X70950000Y-52547440D01*
X71185317Y-52503162D01*
X71401441Y-52364090D01*
X71465580Y-52270219D01*
X71600000Y-52297440D01*
X72200000Y-52297440D01*
X72435317Y-52253162D01*
X72580095Y-52160000D01*
X73331380Y-52160000D01*
X73348110Y-52171431D01*
X73600000Y-52222440D01*
X74400000Y-52222440D01*
X74635317Y-52178162D01*
X74851441Y-52039090D01*
X74996431Y-51826890D01*
X75047440Y-51575000D01*
X75047440Y-51225000D01*
X75018179Y-51069493D01*
X75047440Y-50925000D01*
X75047440Y-50575000D01*
X75003162Y-50339683D01*
X74864090Y-50123559D01*
X74651890Y-49978569D01*
X74400000Y-49927560D01*
X73860000Y-49927560D01*
X73860000Y-49824929D01*
X73917633Y-49738675D01*
X73939958Y-49626441D01*
X73985001Y-49400000D01*
X73985000Y-49399995D01*
X73985000Y-49178386D01*
X74014754Y-49134839D01*
X74385167Y-49135162D01*
X74728943Y-48993117D01*
X74992192Y-48730327D01*
X75134838Y-48386799D01*
X75135162Y-48014833D01*
X74993117Y-47671057D01*
X74730327Y-47407808D01*
X74386799Y-47265162D01*
X74014833Y-47264838D01*
X74014107Y-47265138D01*
X73939090Y-47148559D01*
X73726890Y-47003569D01*
X73475000Y-46952560D01*
X72725000Y-46952560D01*
X72489683Y-46996838D01*
X72452272Y-47020912D01*
X72426890Y-47003569D01*
X72175000Y-46952560D01*
X71425000Y-46952560D01*
X71189683Y-46996838D01*
X70973559Y-47135910D01*
X70828569Y-47348110D01*
X70777560Y-47600000D01*
X70777560Y-48800000D01*
X70821838Y-49035317D01*
X70960910Y-49251441D01*
X71173110Y-49396431D01*
X71425000Y-49447440D01*
X71892468Y-49447440D01*
X71865162Y-49513201D01*
X71864838Y-49885167D01*
X72006883Y-50228943D01*
X72269673Y-50492192D01*
X72344639Y-50523321D01*
X72346407Y-50532208D01*
X72200000Y-50502560D01*
X71600000Y-50502560D01*
X71364683Y-50546838D01*
X71353021Y-50554342D01*
X71351890Y-50553569D01*
X71100000Y-50502560D01*
X70500000Y-50502560D01*
X70457484Y-50510560D01*
X70200000Y-50510560D01*
X69964683Y-50554838D01*
X69953021Y-50562342D01*
X69951890Y-50561569D01*
X69700000Y-50510560D01*
X69699784Y-50510560D01*
X69515390Y-50384569D01*
X69263500Y-50333560D01*
X68960000Y-50333560D01*
X68960000Y-44573420D01*
X68902148Y-44282581D01*
X68902148Y-44282580D01*
X68737401Y-44036019D01*
X68314321Y-43612939D01*
X68146265Y-43500648D01*
X68130082Y-43414643D01*
X67991010Y-43198519D01*
X67778810Y-43053529D01*
X67526920Y-43002520D01*
X66475360Y-43002520D01*
X66240043Y-43046798D01*
X66023919Y-43185870D01*
X65878929Y-43398070D01*
X65827920Y-43649960D01*
X65827920Y-44650720D01*
X65872198Y-44886037D01*
X66011270Y-45102161D01*
X66223470Y-45247151D01*
X66475360Y-45298160D01*
X67440000Y-45298160D01*
X67440000Y-50134921D01*
X67342890Y-50068569D01*
X67091000Y-50017560D01*
X63510000Y-50017560D01*
X63510000Y-42169650D01*
X63520877Y-42143391D01*
X63678700Y-41349960D01*
X70327920Y-41349960D01*
X70327920Y-42350720D01*
X70372198Y-42586037D01*
X70511270Y-42802161D01*
X70723470Y-42947151D01*
X70975360Y-42998160D01*
X71397380Y-42998160D01*
X71964855Y-43565634D01*
X71964838Y-43585167D01*
X72106883Y-43928943D01*
X72369673Y-44192192D01*
X72713201Y-44334838D01*
X73085167Y-44335162D01*
X73428943Y-44193117D01*
X73692192Y-43930327D01*
X73834838Y-43586799D01*
X73835162Y-43214833D01*
X73725253Y-42948831D01*
X73717633Y-42910526D01*
X73717633Y-42910525D01*
X73696124Y-42878334D01*
X73693117Y-42871057D01*
X73687505Y-42865436D01*
X73525790Y-42623410D01*
X73525787Y-42623408D01*
X72674360Y-41771980D01*
X72674360Y-41349960D01*
X72630082Y-41114643D01*
X72491010Y-40898519D01*
X72278810Y-40753529D01*
X72026920Y-40702520D01*
X70975360Y-40702520D01*
X70740043Y-40746798D01*
X70523919Y-40885870D01*
X70378929Y-41098070D01*
X70327920Y-41349960D01*
X63678700Y-41349960D01*
X63728328Y-41100464D01*
X64237874Y-40337874D01*
X65000740Y-39828143D01*
X66038609Y-39620757D01*
X66064515Y-39610000D01*
X83424768Y-39610000D01*
X83323569Y-39758110D01*
G36*
X87021838Y-61585317D02*
X87160910Y-61801441D01*
X87373110Y-61946431D01*
X87625000Y-61997440D01*
X88375000Y-61997440D01*
X88610317Y-61953162D01*
X88826441Y-61814090D01*
X88883314Y-61730853D01*
X88960910Y-61851441D01*
X89173110Y-61996431D01*
X89425000Y-62047440D01*
X90175000Y-62047440D01*
X90410317Y-62003162D01*
X90626441Y-61864090D01*
X90753120Y-61678689D01*
X90753120Y-62399440D01*
X90797398Y-62634757D01*
X90936470Y-62850881D01*
X90937467Y-62851563D01*
X90804129Y-63046710D01*
X90753120Y-63298600D01*
X90753120Y-63986989D01*
X90696890Y-63948569D01*
X90445000Y-63897560D01*
X88895000Y-63897560D01*
X88749169Y-63925000D01*
X88346822Y-63925000D01*
X88226799Y-63875162D01*
X87854833Y-63874838D01*
X87511057Y-64016883D01*
X87247808Y-64279673D01*
X87105162Y-64623201D01*
X87104838Y-64995167D01*
X87246883Y-65338943D01*
X87509673Y-65602192D01*
X87853201Y-65744838D01*
X88225167Y-65745162D01*
X88265039Y-65728687D01*
X88247560Y-65815000D01*
X88247560Y-66415000D01*
X88289897Y-66640000D01*
X87602463Y-66640000D01*
X87570327Y-66607808D01*
X87226799Y-66465162D01*
X86854833Y-66464838D01*
X86511057Y-66606883D01*
X86453820Y-66664020D01*
X85440000Y-65650200D01*
X85440000Y-65632463D01*
X85472192Y-65600327D01*
X85614838Y-65256799D01*
X85615162Y-64884833D01*
X85473117Y-64541057D01*
X85283840Y-64351450D01*
X85314838Y-64276799D01*
X85315162Y-63904833D01*
X85173117Y-63561057D01*
X84910327Y-63297808D01*
X84566799Y-63155162D01*
X84226924Y-63154866D01*
X84251441Y-63139090D01*
X84396431Y-62926890D01*
X84447440Y-62675000D01*
X84447440Y-61925000D01*
X84405734Y-61703351D01*
X84500000Y-61722440D01*
X85700000Y-61722440D01*
X85935317Y-61678162D01*
X86080095Y-61585000D01*
X87021778Y-61585000D01*
X87021838Y-61585317D01*
X87021838Y-61585317D01*
G37*
X87021838Y-61585317D02*
X87160910Y-61801441D01*
X87373110Y-61946431D01*
X87625000Y-61997440D01*
X88375000Y-61997440D01*
X88610317Y-61953162D01*
X88826441Y-61814090D01*
X88883314Y-61730853D01*
X88960910Y-61851441D01*
X89173110Y-61996431D01*
X89425000Y-62047440D01*
X90175000Y-62047440D01*
X90410317Y-62003162D01*
X90626441Y-61864090D01*
X90753120Y-61678689D01*
X90753120Y-62399440D01*
X90797398Y-62634757D01*
X90936470Y-62850881D01*
X90937467Y-62851563D01*
X90804129Y-63046710D01*
X90753120Y-63298600D01*
X90753120Y-63986989D01*
X90696890Y-63948569D01*
X90445000Y-63897560D01*
X88895000Y-63897560D01*
X88749169Y-63925000D01*
X88346822Y-63925000D01*
X88226799Y-63875162D01*
X87854833Y-63874838D01*
X87511057Y-64016883D01*
X87247808Y-64279673D01*
X87105162Y-64623201D01*
X87104838Y-64995167D01*
X87246883Y-65338943D01*
X87509673Y-65602192D01*
X87853201Y-65744838D01*
X88225167Y-65745162D01*
X88265039Y-65728687D01*
X88247560Y-65815000D01*
X88247560Y-66415000D01*
X88289897Y-66640000D01*
X87602463Y-66640000D01*
X87570327Y-66607808D01*
X87226799Y-66465162D01*
X86854833Y-66464838D01*
X86511057Y-66606883D01*
X86453820Y-66664020D01*
X85440000Y-65650200D01*
X85440000Y-65632463D01*
X85472192Y-65600327D01*
X85614838Y-65256799D01*
X85615162Y-64884833D01*
X85473117Y-64541057D01*
X85283840Y-64351450D01*
X85314838Y-64276799D01*
X85315162Y-63904833D01*
X85173117Y-63561057D01*
X84910327Y-63297808D01*
X84566799Y-63155162D01*
X84226924Y-63154866D01*
X84251441Y-63139090D01*
X84396431Y-62926890D01*
X84447440Y-62675000D01*
X84447440Y-61925000D01*
X84405734Y-61703351D01*
X84500000Y-61722440D01*
X85700000Y-61722440D01*
X85935317Y-61678162D01*
X86080095Y-61585000D01*
X87021778Y-61585000D01*
X87021838Y-61585317D01*
G36*
X88569673Y-54992191D02*
X88913201Y-55134837D01*
X89285167Y-55135161D01*
X89577560Y-55014347D01*
X89577560Y-56100000D01*
X89621838Y-56335317D01*
X89760910Y-56551441D01*
X89973110Y-56696431D01*
X90225000Y-56747440D01*
X90690569Y-56747440D01*
X90806883Y-57028943D01*
X91069673Y-57292192D01*
X91413201Y-57434838D01*
X91785167Y-57435162D01*
X92128943Y-57293117D01*
X92312433Y-57109947D01*
X92613201Y-57234838D01*
X92985167Y-57235162D01*
X93328943Y-57093117D01*
X93592192Y-56830327D01*
X93734838Y-56486799D01*
X93735162Y-56114833D01*
X93691846Y-56010000D01*
X93781231Y-56010000D01*
X93852746Y-56183080D01*
X94076503Y-56407228D01*
X94048569Y-56448110D01*
X93997560Y-56700000D01*
X93997560Y-57700000D01*
X94041838Y-57935317D01*
X94044851Y-57940000D01*
X89092334Y-57940000D01*
X89078162Y-57864683D01*
X89004380Y-57750022D01*
X89071431Y-57651890D01*
X89122440Y-57400000D01*
X89122440Y-56200000D01*
X89078162Y-55964683D01*
X88939090Y-55748559D01*
X88726890Y-55603569D01*
X88475000Y-55552560D01*
X87725000Y-55552560D01*
X87489683Y-55596838D01*
X87402646Y-55652844D01*
X87310000Y-55560198D01*
X87310000Y-55027000D01*
X88300000Y-55027000D01*
X88346159Y-55018315D01*
X88388553Y-54991035D01*
X88416994Y-54949410D01*
X88427000Y-54900000D01*
X88427000Y-54849269D01*
X88569673Y-54992191D01*
X88569673Y-54992191D01*
G37*
X88569673Y-54992191D02*
X88913201Y-55134837D01*
X89285167Y-55135161D01*
X89577560Y-55014347D01*
X89577560Y-56100000D01*
X89621838Y-56335317D01*
X89760910Y-56551441D01*
X89973110Y-56696431D01*
X90225000Y-56747440D01*
X90690569Y-56747440D01*
X90806883Y-57028943D01*
X91069673Y-57292192D01*
X91413201Y-57434838D01*
X91785167Y-57435162D01*
X92128943Y-57293117D01*
X92312433Y-57109947D01*
X92613201Y-57234838D01*
X92985167Y-57235162D01*
X93328943Y-57093117D01*
X93592192Y-56830327D01*
X93734838Y-56486799D01*
X93735162Y-56114833D01*
X93691846Y-56010000D01*
X93781231Y-56010000D01*
X93852746Y-56183080D01*
X94076503Y-56407228D01*
X94048569Y-56448110D01*
X93997560Y-56700000D01*
X93997560Y-57700000D01*
X94041838Y-57935317D01*
X94044851Y-57940000D01*
X89092334Y-57940000D01*
X89078162Y-57864683D01*
X89004380Y-57750022D01*
X89071431Y-57651890D01*
X89122440Y-57400000D01*
X89122440Y-56200000D01*
X89078162Y-55964683D01*
X88939090Y-55748559D01*
X88726890Y-55603569D01*
X88475000Y-55552560D01*
X87725000Y-55552560D01*
X87489683Y-55596838D01*
X87402646Y-55652844D01*
X87310000Y-55560198D01*
X87310000Y-55027000D01*
X88300000Y-55027000D01*
X88346159Y-55018315D01*
X88388553Y-54991035D01*
X88416994Y-54949410D01*
X88427000Y-54900000D01*
X88427000Y-54849269D01*
X88569673Y-54992191D01*
G36*
X94115536Y-47995041D02*
X94459064Y-48137687D01*
X94831030Y-48138011D01*
X94890894Y-48113276D01*
X94969673Y-48192192D01*
X95313201Y-48334838D01*
X95510000Y-48335009D01*
X95510000Y-49506410D01*
X95567852Y-49797249D01*
X95732599Y-50043811D01*
X100528788Y-54840000D01*
X98620000Y-54840000D01*
X98329161Y-54897852D01*
X98082599Y-55062599D01*
X98053690Y-55091508D01*
X97860327Y-54897808D01*
X97516799Y-54755162D01*
X97144833Y-54754838D01*
X96879079Y-54864645D01*
X96552802Y-54729162D01*
X96180836Y-54728838D01*
X95965897Y-54817649D01*
X95752799Y-54729162D01*
X95380833Y-54728838D01*
X95117585Y-54837610D01*
X94832662Y-54719299D01*
X94785786Y-54719258D01*
X94779127Y-54712599D01*
X94532565Y-54547852D01*
X94241726Y-54490000D01*
X93944152Y-54490000D01*
X93967440Y-54375000D01*
X93967440Y-54125000D01*
X93943056Y-53995411D01*
X93967440Y-53875000D01*
X93967440Y-53625000D01*
X93943056Y-53495411D01*
X93967440Y-53375000D01*
X93967440Y-53125000D01*
X93943056Y-52995411D01*
X93967440Y-52875000D01*
X93967440Y-52625000D01*
X93943056Y-52495411D01*
X93967440Y-52375000D01*
X93967440Y-52125000D01*
X93943056Y-51995411D01*
X93967440Y-51875000D01*
X93967440Y-51625000D01*
X93943056Y-51495411D01*
X93967440Y-51375000D01*
X93967440Y-51125000D01*
X93943056Y-50995411D01*
X93967440Y-50875000D01*
X93967440Y-50625000D01*
X93943056Y-50495411D01*
X93967440Y-50375000D01*
X93967440Y-50125000D01*
X93943056Y-49995411D01*
X93967440Y-49875000D01*
X93967440Y-49625000D01*
X93943056Y-49495411D01*
X93967440Y-49375000D01*
X93967440Y-49125000D01*
X93943056Y-48995411D01*
X93967440Y-48875000D01*
X93967440Y-48625000D01*
X93943056Y-48495411D01*
X93967440Y-48375000D01*
X93967440Y-48125000D01*
X93943056Y-47995411D01*
X93967440Y-47875000D01*
X93967440Y-47846686D01*
X94115536Y-47995041D01*
X94115536Y-47995041D01*
G37*
X94115536Y-47995041D02*
X94459064Y-48137687D01*
X94831030Y-48138011D01*
X94890894Y-48113276D01*
X94969673Y-48192192D01*
X95313201Y-48334838D01*
X95510000Y-48335009D01*
X95510000Y-49506410D01*
X95567852Y-49797249D01*
X95732599Y-50043811D01*
X100528788Y-54840000D01*
X98620000Y-54840000D01*
X98329161Y-54897852D01*
X98082599Y-55062599D01*
X98053690Y-55091508D01*
X97860327Y-54897808D01*
X97516799Y-54755162D01*
X97144833Y-54754838D01*
X96879079Y-54864645D01*
X96552802Y-54729162D01*
X96180836Y-54728838D01*
X95965897Y-54817649D01*
X95752799Y-54729162D01*
X95380833Y-54728838D01*
X95117585Y-54837610D01*
X94832662Y-54719299D01*
X94785786Y-54719258D01*
X94779127Y-54712599D01*
X94532565Y-54547852D01*
X94241726Y-54490000D01*
X93944152Y-54490000D01*
X93967440Y-54375000D01*
X93967440Y-54125000D01*
X93943056Y-53995411D01*
X93967440Y-53875000D01*
X93967440Y-53625000D01*
X93943056Y-53495411D01*
X93967440Y-53375000D01*
X93967440Y-53125000D01*
X93943056Y-52995411D01*
X93967440Y-52875000D01*
X93967440Y-52625000D01*
X93943056Y-52495411D01*
X93967440Y-52375000D01*
X93967440Y-52125000D01*
X93943056Y-51995411D01*
X93967440Y-51875000D01*
X93967440Y-51625000D01*
X93943056Y-51495411D01*
X93967440Y-51375000D01*
X93967440Y-51125000D01*
X93943056Y-50995411D01*
X93967440Y-50875000D01*
X93967440Y-50625000D01*
X93943056Y-50495411D01*
X93967440Y-50375000D01*
X93967440Y-50125000D01*
X93943056Y-49995411D01*
X93967440Y-49875000D01*
X93967440Y-49625000D01*
X93943056Y-49495411D01*
X93967440Y-49375000D01*
X93967440Y-49125000D01*
X93943056Y-48995411D01*
X93967440Y-48875000D01*
X93967440Y-48625000D01*
X93943056Y-48495411D01*
X93967440Y-48375000D01*
X93967440Y-48125000D01*
X93943056Y-47995411D01*
X93967440Y-47875000D01*
X93967440Y-47846686D01*
X94115536Y-47995041D01*
G36*
X87925000Y-47787440D02*
X88002560Y-47787440D01*
X88002560Y-47865000D01*
X88026944Y-47994589D01*
X88002560Y-48115000D01*
X88002560Y-48365000D01*
X88026944Y-48494589D01*
X88002560Y-48615000D01*
X88002560Y-48865000D01*
X88026944Y-48994589D01*
X88002560Y-49115000D01*
X88002560Y-49365000D01*
X88026944Y-49494589D01*
X88002560Y-49615000D01*
X88002560Y-49865000D01*
X88026944Y-49994589D01*
X88002560Y-50115000D01*
X88002560Y-50365000D01*
X88026944Y-50494589D01*
X88002560Y-50615000D01*
X88002560Y-50865000D01*
X88026944Y-50994589D01*
X88002560Y-51115000D01*
X88002560Y-51365000D01*
X88026944Y-51494589D01*
X88002560Y-51615000D01*
X88002560Y-51764914D01*
X87914833Y-51764838D01*
X87571057Y-51906883D01*
X87307808Y-52169673D01*
X87165162Y-52513201D01*
X87164838Y-52885167D01*
X87306883Y-53228943D01*
X87350863Y-53273000D01*
X86969964Y-53273000D01*
X86926890Y-53243569D01*
X86675000Y-53192560D01*
X86632446Y-53192560D01*
X86634838Y-53186799D01*
X86635162Y-52814833D01*
X86493117Y-52471057D01*
X86230327Y-52207808D01*
X85886799Y-52065162D01*
X85514833Y-52064838D01*
X85171057Y-52206883D01*
X85055559Y-52322179D01*
X84993117Y-52171057D01*
X84730327Y-51907808D01*
X84386799Y-51765162D01*
X84014833Y-51764838D01*
X83671057Y-51906883D01*
X83650194Y-51927710D01*
X83630327Y-51907808D01*
X83286799Y-51765162D01*
X83239923Y-51765121D01*
X83177401Y-51702599D01*
X82930839Y-51537852D01*
X82640000Y-51480000D01*
X82574152Y-51480000D01*
X82597440Y-51365000D01*
X82597440Y-51115000D01*
X82573056Y-50985411D01*
X82597440Y-50865000D01*
X82597440Y-50615000D01*
X82573056Y-50485411D01*
X82597440Y-50365000D01*
X82597440Y-50115000D01*
X82583202Y-50039334D01*
X82813201Y-50134838D01*
X83185167Y-50135162D01*
X83528943Y-49993117D01*
X83792192Y-49730327D01*
X83934838Y-49386799D01*
X83934879Y-49339923D01*
X84162402Y-49112400D01*
X84205137Y-49048442D01*
X84413201Y-49134838D01*
X84785167Y-49135162D01*
X85128943Y-48993117D01*
X85249981Y-48872290D01*
X85369673Y-48992192D01*
X85713201Y-49134838D01*
X86085167Y-49135162D01*
X86428943Y-48993117D01*
X86692192Y-48730327D01*
X86834838Y-48386799D01*
X86835162Y-48014833D01*
X86810000Y-47953936D01*
X86810000Y-47764152D01*
X86925000Y-47787440D01*
X87175000Y-47787440D01*
X87304589Y-47763056D01*
X87425000Y-47787440D01*
X87675000Y-47787440D01*
X87804589Y-47763056D01*
X87925000Y-47787440D01*
X87925000Y-47787440D01*
G37*
X87925000Y-47787440D02*
X88002560Y-47787440D01*
X88002560Y-47865000D01*
X88026944Y-47994589D01*
X88002560Y-48115000D01*
X88002560Y-48365000D01*
X88026944Y-48494589D01*
X88002560Y-48615000D01*
X88002560Y-48865000D01*
X88026944Y-48994589D01*
X88002560Y-49115000D01*
X88002560Y-49365000D01*
X88026944Y-49494589D01*
X88002560Y-49615000D01*
X88002560Y-49865000D01*
X88026944Y-49994589D01*
X88002560Y-50115000D01*
X88002560Y-50365000D01*
X88026944Y-50494589D01*
X88002560Y-50615000D01*
X88002560Y-50865000D01*
X88026944Y-50994589D01*
X88002560Y-51115000D01*
X88002560Y-51365000D01*
X88026944Y-51494589D01*
X88002560Y-51615000D01*
X88002560Y-51764914D01*
X87914833Y-51764838D01*
X87571057Y-51906883D01*
X87307808Y-52169673D01*
X87165162Y-52513201D01*
X87164838Y-52885167D01*
X87306883Y-53228943D01*
X87350863Y-53273000D01*
X86969964Y-53273000D01*
X86926890Y-53243569D01*
X86675000Y-53192560D01*
X86632446Y-53192560D01*
X86634838Y-53186799D01*
X86635162Y-52814833D01*
X86493117Y-52471057D01*
X86230327Y-52207808D01*
X85886799Y-52065162D01*
X85514833Y-52064838D01*
X85171057Y-52206883D01*
X85055559Y-52322179D01*
X84993117Y-52171057D01*
X84730327Y-51907808D01*
X84386799Y-51765162D01*
X84014833Y-51764838D01*
X83671057Y-51906883D01*
X83650194Y-51927710D01*
X83630327Y-51907808D01*
X83286799Y-51765162D01*
X83239923Y-51765121D01*
X83177401Y-51702599D01*
X82930839Y-51537852D01*
X82640000Y-51480000D01*
X82574152Y-51480000D01*
X82597440Y-51365000D01*
X82597440Y-51115000D01*
X82573056Y-50985411D01*
X82597440Y-50865000D01*
X82597440Y-50615000D01*
X82573056Y-50485411D01*
X82597440Y-50365000D01*
X82597440Y-50115000D01*
X82583202Y-50039334D01*
X82813201Y-50134838D01*
X83185167Y-50135162D01*
X83528943Y-49993117D01*
X83792192Y-49730327D01*
X83934838Y-49386799D01*
X83934879Y-49339923D01*
X84162402Y-49112400D01*
X84205137Y-49048442D01*
X84413201Y-49134838D01*
X84785167Y-49135162D01*
X85128943Y-48993117D01*
X85249981Y-48872290D01*
X85369673Y-48992192D01*
X85713201Y-49134838D01*
X86085167Y-49135162D01*
X86428943Y-48993117D01*
X86692192Y-48730327D01*
X86834838Y-48386799D01*
X86835162Y-48014833D01*
X86810000Y-47953936D01*
X86810000Y-47764152D01*
X86925000Y-47787440D01*
X87175000Y-47787440D01*
X87304589Y-47763056D01*
X87425000Y-47787440D01*
X87675000Y-47787440D01*
X87804589Y-47763056D01*
X87925000Y-47787440D01*
G36*
X102145000Y-46947440D02*
X102395000Y-46947440D01*
X102483674Y-46930755D01*
X102606883Y-47228943D01*
X102867485Y-47490000D01*
X102812376Y-47490000D01*
X102730327Y-47407808D01*
X102386799Y-47265162D01*
X102014833Y-47264838D01*
X101671057Y-47406883D01*
X101407808Y-47669673D01*
X101265162Y-48013201D01*
X101264838Y-48385167D01*
X101406883Y-48728943D01*
X101669673Y-48992192D01*
X102013201Y-49134838D01*
X102385167Y-49135162D01*
X102688083Y-49010000D01*
X103095848Y-49010000D01*
X103072560Y-49125000D01*
X103072560Y-49375000D01*
X103096944Y-49504589D01*
X103072560Y-49625000D01*
X103072560Y-49875000D01*
X103096944Y-50004589D01*
X103072560Y-50125000D01*
X103072560Y-50375000D01*
X103096944Y-50504589D01*
X103072560Y-50625000D01*
X103072560Y-50875000D01*
X103096944Y-51004589D01*
X103072560Y-51125000D01*
X103072560Y-51375000D01*
X103094199Y-51490000D01*
X102486214Y-51490000D01*
X102168813Y-51172599D01*
X101922251Y-51007852D01*
X101631412Y-50950000D01*
X100922463Y-50950000D01*
X100890327Y-50917808D01*
X100546799Y-50775162D01*
X100174833Y-50774838D01*
X99831057Y-50916883D01*
X99611179Y-51136377D01*
X97530000Y-49055198D01*
X97530000Y-46924152D01*
X97645000Y-46947440D01*
X97895000Y-46947440D01*
X98024589Y-46923056D01*
X98145000Y-46947440D01*
X98395000Y-46947440D01*
X98524589Y-46923056D01*
X98645000Y-46947440D01*
X98895000Y-46947440D01*
X99024589Y-46923056D01*
X99145000Y-46947440D01*
X99395000Y-46947440D01*
X99524589Y-46923056D01*
X99645000Y-46947440D01*
X99895000Y-46947440D01*
X100024589Y-46923056D01*
X100145000Y-46947440D01*
X100395000Y-46947440D01*
X100524589Y-46923056D01*
X100645000Y-46947440D01*
X100895000Y-46947440D01*
X101024589Y-46923056D01*
X101145000Y-46947440D01*
X101395000Y-46947440D01*
X101524589Y-46923056D01*
X101645000Y-46947440D01*
X101895000Y-46947440D01*
X102024589Y-46923056D01*
X102145000Y-46947440D01*
X102145000Y-46947440D01*
G37*
X102145000Y-46947440D02*
X102395000Y-46947440D01*
X102483674Y-46930755D01*
X102606883Y-47228943D01*
X102867485Y-47490000D01*
X102812376Y-47490000D01*
X102730327Y-47407808D01*
X102386799Y-47265162D01*
X102014833Y-47264838D01*
X101671057Y-47406883D01*
X101407808Y-47669673D01*
X101265162Y-48013201D01*
X101264838Y-48385167D01*
X101406883Y-48728943D01*
X101669673Y-48992192D01*
X102013201Y-49134838D01*
X102385167Y-49135162D01*
X102688083Y-49010000D01*
X103095848Y-49010000D01*
X103072560Y-49125000D01*
X103072560Y-49375000D01*
X103096944Y-49504589D01*
X103072560Y-49625000D01*
X103072560Y-49875000D01*
X103096944Y-50004589D01*
X103072560Y-50125000D01*
X103072560Y-50375000D01*
X103096944Y-50504589D01*
X103072560Y-50625000D01*
X103072560Y-50875000D01*
X103096944Y-51004589D01*
X103072560Y-51125000D01*
X103072560Y-51375000D01*
X103094199Y-51490000D01*
X102486214Y-51490000D01*
X102168813Y-51172599D01*
X101922251Y-51007852D01*
X101631412Y-50950000D01*
X100922463Y-50950000D01*
X100890327Y-50917808D01*
X100546799Y-50775162D01*
X100174833Y-50774838D01*
X99831057Y-50916883D01*
X99611179Y-51136377D01*
X97530000Y-49055198D01*
X97530000Y-46924152D01*
X97645000Y-46947440D01*
X97895000Y-46947440D01*
X98024589Y-46923056D01*
X98145000Y-46947440D01*
X98395000Y-46947440D01*
X98524589Y-46923056D01*
X98645000Y-46947440D01*
X98895000Y-46947440D01*
X99024589Y-46923056D01*
X99145000Y-46947440D01*
X99395000Y-46947440D01*
X99524589Y-46923056D01*
X99645000Y-46947440D01*
X99895000Y-46947440D01*
X100024589Y-46923056D01*
X100145000Y-46947440D01*
X100395000Y-46947440D01*
X100524589Y-46923056D01*
X100645000Y-46947440D01*
X100895000Y-46947440D01*
X101024589Y-46923056D01*
X101145000Y-46947440D01*
X101395000Y-46947440D01*
X101524589Y-46923056D01*
X101645000Y-46947440D01*
X101895000Y-46947440D01*
X102024589Y-46923056D01*
X102145000Y-46947440D01*
G36*
X109356609Y-39620877D02*
X110399536Y-39828328D01*
X111162126Y-40337874D01*
X111671857Y-41100740D01*
X111879243Y-42138609D01*
X111890000Y-42164515D01*
X111890000Y-44315198D01*
X111837401Y-44262599D01*
X111763126Y-44212970D01*
X111753885Y-44166511D01*
X111429029Y-43680330D01*
X111114248Y-43470000D01*
X111429029Y-43259670D01*
X111753885Y-42773489D01*
X111867959Y-42200000D01*
X111753885Y-41626511D01*
X111429029Y-41140330D01*
X110942848Y-40815474D01*
X110369359Y-40701400D01*
X110310641Y-40701400D01*
X109737152Y-40815474D01*
X109271558Y-41126574D01*
X109266762Y-41101083D01*
X109127690Y-40884959D01*
X108915490Y-40739969D01*
X108663600Y-40688960D01*
X106936400Y-40688960D01*
X106701083Y-40733238D01*
X106484959Y-40872310D01*
X106339969Y-41084510D01*
X106288960Y-41336400D01*
X106288960Y-43063600D01*
X106333238Y-43298917D01*
X106472310Y-43515041D01*
X106684510Y-43660031D01*
X106728131Y-43668864D01*
X106710971Y-43680330D01*
X106386115Y-44166511D01*
X106272041Y-44740000D01*
X106386115Y-45313489D01*
X106710971Y-45799670D01*
X107197152Y-46124526D01*
X107770641Y-46238600D01*
X107829359Y-46238600D01*
X108402848Y-46124526D01*
X108889029Y-45799670D01*
X109070000Y-45528828D01*
X109250971Y-45799670D01*
X109737152Y-46124526D01*
X110310641Y-46238600D01*
X110369359Y-46238600D01*
X110942848Y-46124526D01*
X111040000Y-46059611D01*
X111040000Y-48702560D01*
X110200000Y-48702560D01*
X109964683Y-48746838D01*
X109748559Y-48885910D01*
X109700866Y-48955711D01*
X109664090Y-48898559D01*
X109451890Y-48753569D01*
X109200000Y-48702560D01*
X108000000Y-48702560D01*
X107764683Y-48746838D01*
X107548559Y-48885910D01*
X107477437Y-48990000D01*
X105344152Y-48990000D01*
X105367440Y-48875000D01*
X105367440Y-48625000D01*
X105343056Y-48495411D01*
X105367440Y-48375000D01*
X105367440Y-48125000D01*
X105343056Y-47995411D01*
X105367440Y-47875000D01*
X105367440Y-47625000D01*
X105323162Y-47389683D01*
X105184090Y-47173559D01*
X104971890Y-47028569D01*
X104720000Y-46977560D01*
X104522362Y-46977560D01*
X104334922Y-46790120D01*
X104335162Y-46514833D01*
X104193117Y-46171057D01*
X103930327Y-45907808D01*
X103586799Y-45765162D01*
X103214833Y-45764838D01*
X103042440Y-45836069D01*
X103042440Y-45300000D01*
X102998162Y-45064683D01*
X102859090Y-44848559D01*
X102646890Y-44703569D01*
X102395000Y-44652560D01*
X102145000Y-44652560D01*
X102015411Y-44676944D01*
X101895000Y-44652560D01*
X101645000Y-44652560D01*
X101515411Y-44676944D01*
X101395000Y-44652560D01*
X101243403Y-44652560D01*
X101496839Y-44602148D01*
X101743401Y-44437401D01*
X102177401Y-44003401D01*
X102342148Y-43756839D01*
X102359017Y-43672032D01*
X102699670Y-43444415D01*
X103024526Y-42958234D01*
X103138600Y-42384745D01*
X103138600Y-42015255D01*
X103024526Y-41441766D01*
X102699670Y-40955585D01*
X102213489Y-40630729D01*
X101640000Y-40516655D01*
X101066511Y-40630729D01*
X100580330Y-40955585D01*
X100370000Y-41270366D01*
X100159670Y-40955585D01*
X99673489Y-40630729D01*
X99100000Y-40516655D01*
X98526511Y-40630729D01*
X98040330Y-40955585D01*
X97715474Y-41441766D01*
X97601400Y-42015255D01*
X97601400Y-42384745D01*
X97641061Y-42584136D01*
X96986429Y-43238768D01*
X96991040Y-43216000D01*
X96991040Y-41184000D01*
X96946762Y-40948683D01*
X96807690Y-40732559D01*
X96595490Y-40587569D01*
X96343600Y-40536560D01*
X94616400Y-40536560D01*
X94381083Y-40580838D01*
X94164959Y-40719910D01*
X94019969Y-40932110D01*
X94011600Y-40973439D01*
X93999670Y-40955585D01*
X93513489Y-40630729D01*
X92940000Y-40516655D01*
X92366511Y-40630729D01*
X91880330Y-40955585D01*
X91555474Y-41441766D01*
X91441400Y-42015255D01*
X91441400Y-42384745D01*
X91555474Y-42958234D01*
X91880330Y-43444415D01*
X92180000Y-43644648D01*
X92180000Y-47003903D01*
X92084683Y-47021838D01*
X91868559Y-47160910D01*
X91723569Y-47373110D01*
X91701923Y-47480000D01*
X89972038Y-47480000D01*
X89953162Y-47379683D01*
X89814090Y-47163559D01*
X89601890Y-47018569D01*
X89350000Y-46967560D01*
X88822440Y-46967560D01*
X88822440Y-46440000D01*
X88785867Y-46245634D01*
X88951441Y-46139090D01*
X89096431Y-45926890D01*
X89147440Y-45675000D01*
X89147440Y-44925000D01*
X89103162Y-44689683D01*
X88964090Y-44473559D01*
X88751890Y-44328569D01*
X88500000Y-44277560D01*
X87300000Y-44277560D01*
X87295001Y-44278501D01*
X87295001Y-43747440D01*
X87975000Y-43747440D01*
X88210317Y-43703162D01*
X88426441Y-43564090D01*
X88571431Y-43351890D01*
X88622440Y-43100000D01*
X88622440Y-41900000D01*
X88578162Y-41664683D01*
X88439090Y-41448559D01*
X88226890Y-41303569D01*
X87975000Y-41252560D01*
X87225000Y-41252560D01*
X87181422Y-41260760D01*
X87072402Y-41097600D01*
X86667440Y-40692638D01*
X86667440Y-40010000D01*
X86623162Y-39774683D01*
X86517191Y-39610000D01*
X109330350Y-39610000D01*
X109356609Y-39620877D01*
X109356609Y-39620877D01*
G37*
X109356609Y-39620877D02*
X110399536Y-39828328D01*
X111162126Y-40337874D01*
X111671857Y-41100740D01*
X111879243Y-42138609D01*
X111890000Y-42164515D01*
X111890000Y-44315198D01*
X111837401Y-44262599D01*
X111763126Y-44212970D01*
X111753885Y-44166511D01*
X111429029Y-43680330D01*
X111114248Y-43470000D01*
X111429029Y-43259670D01*
X111753885Y-42773489D01*
X111867959Y-42200000D01*
X111753885Y-41626511D01*
X111429029Y-41140330D01*
X110942848Y-40815474D01*
X110369359Y-40701400D01*
X110310641Y-40701400D01*
X109737152Y-40815474D01*
X109271558Y-41126574D01*
X109266762Y-41101083D01*
X109127690Y-40884959D01*
X108915490Y-40739969D01*
X108663600Y-40688960D01*
X106936400Y-40688960D01*
X106701083Y-40733238D01*
X106484959Y-40872310D01*
X106339969Y-41084510D01*
X106288960Y-41336400D01*
X106288960Y-43063600D01*
X106333238Y-43298917D01*
X106472310Y-43515041D01*
X106684510Y-43660031D01*
X106728131Y-43668864D01*
X106710971Y-43680330D01*
X106386115Y-44166511D01*
X106272041Y-44740000D01*
X106386115Y-45313489D01*
X106710971Y-45799670D01*
X107197152Y-46124526D01*
X107770641Y-46238600D01*
X107829359Y-46238600D01*
X108402848Y-46124526D01*
X108889029Y-45799670D01*
X109070000Y-45528828D01*
X109250971Y-45799670D01*
X109737152Y-46124526D01*
X110310641Y-46238600D01*
X110369359Y-46238600D01*
X110942848Y-46124526D01*
X111040000Y-46059611D01*
X111040000Y-48702560D01*
X110200000Y-48702560D01*
X109964683Y-48746838D01*
X109748559Y-48885910D01*
X109700866Y-48955711D01*
X109664090Y-48898559D01*
X109451890Y-48753569D01*
X109200000Y-48702560D01*
X108000000Y-48702560D01*
X107764683Y-48746838D01*
X107548559Y-48885910D01*
X107477437Y-48990000D01*
X105344152Y-48990000D01*
X105367440Y-48875000D01*
X105367440Y-48625000D01*
X105343056Y-48495411D01*
X105367440Y-48375000D01*
X105367440Y-48125000D01*
X105343056Y-47995411D01*
X105367440Y-47875000D01*
X105367440Y-47625000D01*
X105323162Y-47389683D01*
X105184090Y-47173559D01*
X104971890Y-47028569D01*
X104720000Y-46977560D01*
X104522362Y-46977560D01*
X104334922Y-46790120D01*
X104335162Y-46514833D01*
X104193117Y-46171057D01*
X103930327Y-45907808D01*
X103586799Y-45765162D01*
X103214833Y-45764838D01*
X103042440Y-45836069D01*
X103042440Y-45300000D01*
X102998162Y-45064683D01*
X102859090Y-44848559D01*
X102646890Y-44703569D01*
X102395000Y-44652560D01*
X102145000Y-44652560D01*
X102015411Y-44676944D01*
X101895000Y-44652560D01*
X101645000Y-44652560D01*
X101515411Y-44676944D01*
X101395000Y-44652560D01*
X101243403Y-44652560D01*
X101496839Y-44602148D01*
X101743401Y-44437401D01*
X102177401Y-44003401D01*
X102342148Y-43756839D01*
X102359017Y-43672032D01*
X102699670Y-43444415D01*
X103024526Y-42958234D01*
X103138600Y-42384745D01*
X103138600Y-42015255D01*
X103024526Y-41441766D01*
X102699670Y-40955585D01*
X102213489Y-40630729D01*
X101640000Y-40516655D01*
X101066511Y-40630729D01*
X100580330Y-40955585D01*
X100370000Y-41270366D01*
X100159670Y-40955585D01*
X99673489Y-40630729D01*
X99100000Y-40516655D01*
X98526511Y-40630729D01*
X98040330Y-40955585D01*
X97715474Y-41441766D01*
X97601400Y-42015255D01*
X97601400Y-42384745D01*
X97641061Y-42584136D01*
X96986429Y-43238768D01*
X96991040Y-43216000D01*
X96991040Y-41184000D01*
X96946762Y-40948683D01*
X96807690Y-40732559D01*
X96595490Y-40587569D01*
X96343600Y-40536560D01*
X94616400Y-40536560D01*
X94381083Y-40580838D01*
X94164959Y-40719910D01*
X94019969Y-40932110D01*
X94011600Y-40973439D01*
X93999670Y-40955585D01*
X93513489Y-40630729D01*
X92940000Y-40516655D01*
X92366511Y-40630729D01*
X91880330Y-40955585D01*
X91555474Y-41441766D01*
X91441400Y-42015255D01*
X91441400Y-42384745D01*
X91555474Y-42958234D01*
X91880330Y-43444415D01*
X92180000Y-43644648D01*
X92180000Y-47003903D01*
X92084683Y-47021838D01*
X91868559Y-47160910D01*
X91723569Y-47373110D01*
X91701923Y-47480000D01*
X89972038Y-47480000D01*
X89953162Y-47379683D01*
X89814090Y-47163559D01*
X89601890Y-47018569D01*
X89350000Y-46967560D01*
X88822440Y-46967560D01*
X88822440Y-46440000D01*
X88785867Y-46245634D01*
X88951441Y-46139090D01*
X89096431Y-45926890D01*
X89147440Y-45675000D01*
X89147440Y-44925000D01*
X89103162Y-44689683D01*
X88964090Y-44473559D01*
X88751890Y-44328569D01*
X88500000Y-44277560D01*
X87300000Y-44277560D01*
X87295001Y-44278501D01*
X87295001Y-43747440D01*
X87975000Y-43747440D01*
X88210317Y-43703162D01*
X88426441Y-43564090D01*
X88571431Y-43351890D01*
X88622440Y-43100000D01*
X88622440Y-41900000D01*
X88578162Y-41664683D01*
X88439090Y-41448559D01*
X88226890Y-41303569D01*
X87975000Y-41252560D01*
X87225000Y-41252560D01*
X87181422Y-41260760D01*
X87072402Y-41097600D01*
X86667440Y-40692638D01*
X86667440Y-40010000D01*
X86623162Y-39774683D01*
X86517191Y-39610000D01*
X109330350Y-39610000D01*
X109356609Y-39620877D01*
G36*
X83920000Y-42457440D02*
X85775001Y-42457440D01*
X85775001Y-44450197D01*
X85155000Y-45070198D01*
X83767440Y-43682638D01*
X83767440Y-42426546D01*
X83920000Y-42457440D01*
X83920000Y-42457440D01*
G37*
X83920000Y-42457440D02*
X85775001Y-42457440D01*
X85775001Y-44450197D01*
X85155000Y-45070198D01*
X83767440Y-43682638D01*
X83767440Y-42426546D01*
X83920000Y-42457440D01*
M02*
