G04 #@! TF.FileFunction,Legend,Top*
%FSLAX46Y46*%
G04 Gerber Fmt 4.6, Leading zero omitted, Abs format (unit mm)*
G04 Created by KiCad (PCBNEW 4.0.4-stable) date 05/31/17 00:38:46*
%MOMM*%
%LPD*%
G01*
G04 APERTURE LIST*
%ADD10C,0.100000*%
%ADD11C,0.300000*%
%ADD12C,0.150000*%
%ADD13C,0.200000*%
%ADD14C,0.381000*%
%ADD15C,0.120000*%
%ADD16C,0.074930*%
%ADD17C,0.076200*%
%ADD18C,0.304800*%
%ADD19C,0.125000*%
G04 APERTURE END LIST*
D10*
D11*
X82182857Y-70438571D02*
X82182857Y-71438571D01*
X81540000Y-70438571D02*
X81540000Y-71224286D01*
X81611428Y-71367143D01*
X81754286Y-71438571D01*
X81968571Y-71438571D01*
X82111428Y-71367143D01*
X82182857Y-71295714D01*
X82897143Y-71438571D02*
X82897143Y-69938571D01*
X82897143Y-70510000D02*
X83040000Y-70438571D01*
X83325714Y-70438571D01*
X83468571Y-70510000D01*
X83540000Y-70581429D01*
X83611429Y-70724286D01*
X83611429Y-71152857D01*
X83540000Y-71295714D01*
X83468571Y-71367143D01*
X83325714Y-71438571D01*
X83040000Y-71438571D01*
X82897143Y-71367143D01*
X84825714Y-71367143D02*
X84682857Y-71438571D01*
X84397143Y-71438571D01*
X84254286Y-71367143D01*
X84182857Y-71224286D01*
X84182857Y-70652857D01*
X84254286Y-70510000D01*
X84397143Y-70438571D01*
X84682857Y-70438571D01*
X84825714Y-70510000D01*
X84897143Y-70652857D01*
X84897143Y-70795714D01*
X84182857Y-70938571D01*
X85540000Y-71438571D02*
X85540000Y-70438571D01*
X85540000Y-70724286D02*
X85611428Y-70581429D01*
X85682857Y-70510000D01*
X85825714Y-70438571D01*
X85968571Y-70438571D01*
X86468571Y-71438571D02*
X86468571Y-70438571D01*
X86468571Y-70581429D02*
X86539999Y-70510000D01*
X86682857Y-70438571D01*
X86897142Y-70438571D01*
X87039999Y-70510000D01*
X87111428Y-70652857D01*
X87111428Y-71438571D01*
X87111428Y-70652857D02*
X87182857Y-70510000D01*
X87325714Y-70438571D01*
X87539999Y-70438571D01*
X87682857Y-70510000D01*
X87754285Y-70652857D01*
X87754285Y-71438571D01*
X88468571Y-71438571D02*
X88468571Y-70438571D01*
X88468571Y-69938571D02*
X88397142Y-70010000D01*
X88468571Y-70081429D01*
X88539999Y-70010000D01*
X88468571Y-69938571D01*
X88468571Y-70081429D01*
X89182857Y-70438571D02*
X89182857Y-71438571D01*
X89182857Y-70581429D02*
X89254285Y-70510000D01*
X89397143Y-70438571D01*
X89611428Y-70438571D01*
X89754285Y-70510000D01*
X89825714Y-70652857D01*
X89825714Y-71438571D01*
X90540000Y-71438571D02*
X90540000Y-70438571D01*
X90540000Y-69938571D02*
X90468571Y-70010000D01*
X90540000Y-70081429D01*
X90611428Y-70010000D01*
X90540000Y-69938571D01*
X90540000Y-70081429D01*
D12*
X101584286Y-39851429D02*
X101584286Y-40251429D01*
X101327143Y-39851429D02*
X101327143Y-40165714D01*
X101355715Y-40222857D01*
X101412857Y-40251429D01*
X101498572Y-40251429D01*
X101555715Y-40222857D01*
X101584286Y-40194286D01*
X102127143Y-40251429D02*
X102127143Y-39937143D01*
X102098572Y-39880000D01*
X102041429Y-39851429D01*
X101927143Y-39851429D01*
X101870000Y-39880000D01*
X102127143Y-40222857D02*
X102070000Y-40251429D01*
X101927143Y-40251429D01*
X101870000Y-40222857D01*
X101841429Y-40165714D01*
X101841429Y-40108571D01*
X101870000Y-40051429D01*
X101927143Y-40022857D01*
X102070000Y-40022857D01*
X102127143Y-39994286D01*
X102412857Y-40251429D02*
X102412857Y-39851429D01*
X102412857Y-39965714D02*
X102441429Y-39908571D01*
X102470000Y-39880000D01*
X102527143Y-39851429D01*
X102584286Y-39851429D01*
X102698572Y-39851429D02*
X102927143Y-39851429D01*
X102784286Y-39651429D02*
X102784286Y-40165714D01*
X102812858Y-40222857D01*
X102870000Y-40251429D01*
X102927143Y-40251429D01*
X103441429Y-40251429D02*
X103098572Y-40251429D01*
X103270000Y-40251429D02*
X103270000Y-39651429D01*
X103212857Y-39737143D01*
X103155715Y-39794286D01*
X103098572Y-39822857D01*
X92165715Y-40212857D02*
X92251429Y-40241429D01*
X92394286Y-40241429D01*
X92451429Y-40212857D01*
X92480000Y-40184286D01*
X92508572Y-40127143D01*
X92508572Y-40070000D01*
X92480000Y-40012857D01*
X92451429Y-39984286D01*
X92394286Y-39955714D01*
X92280000Y-39927143D01*
X92222858Y-39898571D01*
X92194286Y-39870000D01*
X92165715Y-39812857D01*
X92165715Y-39755714D01*
X92194286Y-39698571D01*
X92222858Y-39670000D01*
X92280000Y-39641429D01*
X92422858Y-39641429D01*
X92508572Y-39670000D01*
X92708572Y-39641429D02*
X92851429Y-40241429D01*
X92965715Y-39812857D01*
X93080001Y-40241429D01*
X93222858Y-39641429D01*
X93451429Y-40241429D02*
X93451429Y-39641429D01*
X93594286Y-39641429D01*
X93680001Y-39670000D01*
X93737143Y-39727143D01*
X93765715Y-39784286D01*
X93794286Y-39898571D01*
X93794286Y-39984286D01*
X93765715Y-40098571D01*
X93737143Y-40155714D01*
X93680001Y-40212857D01*
X93594286Y-40241429D01*
X93451429Y-40241429D01*
X90968573Y-44010000D02*
X90911430Y-43981429D01*
X90825716Y-43981429D01*
X90740001Y-44010000D01*
X90682859Y-44067143D01*
X90654287Y-44124286D01*
X90625716Y-44238571D01*
X90625716Y-44324286D01*
X90654287Y-44438571D01*
X90682859Y-44495714D01*
X90740001Y-44552857D01*
X90825716Y-44581429D01*
X90882859Y-44581429D01*
X90968573Y-44552857D01*
X90997144Y-44524286D01*
X90997144Y-44324286D01*
X90882859Y-44324286D01*
X91682859Y-43952857D02*
X91168573Y-44724286D01*
X92225715Y-44524286D02*
X92197144Y-44552857D01*
X92111430Y-44581429D01*
X92054287Y-44581429D01*
X91968572Y-44552857D01*
X91911430Y-44495714D01*
X91882858Y-44438571D01*
X91854287Y-44324286D01*
X91854287Y-44238571D01*
X91882858Y-44124286D01*
X91911430Y-44067143D01*
X91968572Y-44010000D01*
X92054287Y-43981429D01*
X92111430Y-43981429D01*
X92197144Y-44010000D01*
X92225715Y-44038571D01*
X92768572Y-44581429D02*
X92482858Y-44581429D01*
X92482858Y-43981429D01*
X92968572Y-44581429D02*
X92968572Y-43981429D01*
X93311429Y-44581429D02*
X93054286Y-44238571D01*
X93311429Y-43981429D02*
X92968572Y-44324286D01*
X93997144Y-43952857D02*
X93482858Y-44724286D01*
X94197143Y-44581429D02*
X94197143Y-43981429D01*
X94340000Y-43981429D01*
X94425715Y-44010000D01*
X94482857Y-44067143D01*
X94511429Y-44124286D01*
X94540000Y-44238571D01*
X94540000Y-44324286D01*
X94511429Y-44438571D01*
X94482857Y-44495714D01*
X94425715Y-44552857D01*
X94340000Y-44581429D01*
X94197143Y-44581429D01*
X94797143Y-44581429D02*
X94797143Y-43981429D01*
X95197143Y-43981429D02*
X95311429Y-43981429D01*
X95368571Y-44010000D01*
X95425714Y-44067143D01*
X95454286Y-44181429D01*
X95454286Y-44381429D01*
X95425714Y-44495714D01*
X95368571Y-44552857D01*
X95311429Y-44581429D01*
X95197143Y-44581429D01*
X95140000Y-44552857D01*
X95082857Y-44495714D01*
X95054286Y-44381429D01*
X95054286Y-44181429D01*
X95082857Y-44067143D01*
X95140000Y-44010000D01*
X95197143Y-43981429D01*
X99002858Y-44501429D02*
X98802858Y-44215714D01*
X98660001Y-44501429D02*
X98660001Y-43901429D01*
X98888573Y-43901429D01*
X98945715Y-43930000D01*
X98974287Y-43958571D01*
X99002858Y-44015714D01*
X99002858Y-44101429D01*
X98974287Y-44158571D01*
X98945715Y-44187143D01*
X98888573Y-44215714D01*
X98660001Y-44215714D01*
X99202858Y-44501429D02*
X99517144Y-44101429D01*
X99202858Y-44101429D02*
X99517144Y-44501429D01*
X100174287Y-43872857D02*
X99660001Y-44644286D01*
X100288572Y-43901429D02*
X100631429Y-43901429D01*
X100460000Y-44501429D02*
X100460000Y-43901429D01*
X100774286Y-44501429D02*
X101088572Y-44101429D01*
X100774286Y-44101429D02*
X101088572Y-44501429D01*
X101745715Y-43872857D02*
X101231429Y-44644286D01*
X102260000Y-43930000D02*
X102202857Y-43901429D01*
X102117143Y-43901429D01*
X102031428Y-43930000D01*
X101974286Y-43987143D01*
X101945714Y-44044286D01*
X101917143Y-44158571D01*
X101917143Y-44244286D01*
X101945714Y-44358571D01*
X101974286Y-44415714D01*
X102031428Y-44472857D01*
X102117143Y-44501429D01*
X102174286Y-44501429D01*
X102260000Y-44472857D01*
X102288571Y-44444286D01*
X102288571Y-44244286D01*
X102174286Y-44244286D01*
D13*
X104791905Y-47054763D02*
X103991905Y-47054763D01*
X104296667Y-47054763D02*
X104258571Y-46978572D01*
X104258571Y-46826191D01*
X104296667Y-46750001D01*
X104334762Y-46711906D01*
X104410952Y-46673810D01*
X104639524Y-46673810D01*
X104715714Y-46711906D01*
X104753810Y-46750001D01*
X104791905Y-46826191D01*
X104791905Y-46978572D01*
X104753810Y-47054763D01*
X104791905Y-46216667D02*
X104753810Y-46292858D01*
X104715714Y-46330953D01*
X104639524Y-46369048D01*
X104410952Y-46369048D01*
X104334762Y-46330953D01*
X104296667Y-46292858D01*
X104258571Y-46216667D01*
X104258571Y-46102381D01*
X104296667Y-46026191D01*
X104334762Y-45988096D01*
X104410952Y-45950000D01*
X104639524Y-45950000D01*
X104715714Y-45988096D01*
X104753810Y-46026191D01*
X104791905Y-46102381D01*
X104791905Y-46216667D01*
X104791905Y-45492857D02*
X104753810Y-45569048D01*
X104715714Y-45607143D01*
X104639524Y-45645238D01*
X104410952Y-45645238D01*
X104334762Y-45607143D01*
X104296667Y-45569048D01*
X104258571Y-45492857D01*
X104258571Y-45378571D01*
X104296667Y-45302381D01*
X104334762Y-45264286D01*
X104410952Y-45226190D01*
X104639524Y-45226190D01*
X104715714Y-45264286D01*
X104753810Y-45302381D01*
X104791905Y-45378571D01*
X104791905Y-45492857D01*
X104258571Y-44997619D02*
X104258571Y-44692857D01*
X103991905Y-44883333D02*
X104677619Y-44883333D01*
X104753810Y-44845238D01*
X104791905Y-44769047D01*
X104791905Y-44692857D01*
X103991905Y-44273809D02*
X103991905Y-44197618D01*
X104030000Y-44121428D01*
X104068095Y-44083333D01*
X104144286Y-44045237D01*
X104296667Y-44007142D01*
X104487143Y-44007142D01*
X104639524Y-44045237D01*
X104715714Y-44083333D01*
X104753810Y-44121428D01*
X104791905Y-44197618D01*
X104791905Y-44273809D01*
X104753810Y-44349999D01*
X104715714Y-44388095D01*
X104639524Y-44426190D01*
X104487143Y-44464285D01*
X104296667Y-44464285D01*
X104144286Y-44426190D01*
X104068095Y-44388095D01*
X104030000Y-44349999D01*
X103991905Y-44273809D01*
X106191905Y-47054763D02*
X105391905Y-47054763D01*
X105696667Y-47054763D02*
X105658571Y-46978572D01*
X105658571Y-46826191D01*
X105696667Y-46750001D01*
X105734762Y-46711906D01*
X105810952Y-46673810D01*
X106039524Y-46673810D01*
X106115714Y-46711906D01*
X106153810Y-46750001D01*
X106191905Y-46826191D01*
X106191905Y-46978572D01*
X106153810Y-47054763D01*
X106191905Y-46216667D02*
X106153810Y-46292858D01*
X106115714Y-46330953D01*
X106039524Y-46369048D01*
X105810952Y-46369048D01*
X105734762Y-46330953D01*
X105696667Y-46292858D01*
X105658571Y-46216667D01*
X105658571Y-46102381D01*
X105696667Y-46026191D01*
X105734762Y-45988096D01*
X105810952Y-45950000D01*
X106039524Y-45950000D01*
X106115714Y-45988096D01*
X106153810Y-46026191D01*
X106191905Y-46102381D01*
X106191905Y-46216667D01*
X106191905Y-45492857D02*
X106153810Y-45569048D01*
X106115714Y-45607143D01*
X106039524Y-45645238D01*
X105810952Y-45645238D01*
X105734762Y-45607143D01*
X105696667Y-45569048D01*
X105658571Y-45492857D01*
X105658571Y-45378571D01*
X105696667Y-45302381D01*
X105734762Y-45264286D01*
X105810952Y-45226190D01*
X106039524Y-45226190D01*
X106115714Y-45264286D01*
X106153810Y-45302381D01*
X106191905Y-45378571D01*
X106191905Y-45492857D01*
X105658571Y-44997619D02*
X105658571Y-44692857D01*
X105391905Y-44883333D02*
X106077619Y-44883333D01*
X106153810Y-44845238D01*
X106191905Y-44769047D01*
X106191905Y-44692857D01*
X106191905Y-44007142D02*
X106191905Y-44464285D01*
X106191905Y-44235714D02*
X105391905Y-44235714D01*
X105506190Y-44311904D01*
X105582381Y-44388095D01*
X105620476Y-44464285D01*
D12*
X69930000Y-50040000D02*
X69930000Y-50740000D01*
X68730000Y-50740000D02*
X68730000Y-50040000D01*
X88200000Y-41200000D02*
X88200000Y-41900000D01*
X87000000Y-41900000D02*
X87000000Y-41200000D01*
X81781108Y-46800000D02*
G75*
G03X81781108Y-46800000I-181108J0D01*
G01*
X88925000Y-46875000D02*
X88925000Y-47400000D01*
X81675000Y-54125000D02*
X81675000Y-53600000D01*
X88925000Y-54125000D02*
X88925000Y-53600000D01*
X81675000Y-46875000D02*
X82200000Y-46875000D01*
X81675000Y-54125000D02*
X82200000Y-54125000D01*
X88925000Y-54125000D02*
X88400000Y-54125000D01*
X88925000Y-46875000D02*
X88400000Y-46875000D01*
X78590357Y-52775000D02*
G75*
G03X78590357Y-52775000I-140357J0D01*
G01*
X74140000Y-53225000D02*
X74140000Y-52450000D01*
X78440000Y-48925000D02*
X78440000Y-49700000D01*
X74140000Y-48925000D02*
X74140000Y-49700000D01*
X78440000Y-53225000D02*
X77665000Y-53225000D01*
X78440000Y-48925000D02*
X77665000Y-48925000D01*
X74140000Y-48925000D02*
X74915000Y-48925000D01*
X74140000Y-53225000D02*
X74915000Y-53225000D01*
D14*
X68999240Y-42851100D02*
X68999240Y-40849580D01*
X68999240Y-40849580D02*
X71000760Y-40849580D01*
X71000760Y-40849580D02*
X71000760Y-42851100D01*
X71000760Y-42851100D02*
X68999240Y-42851100D01*
D12*
X93345000Y-56675000D02*
X94420000Y-56675000D01*
X93345000Y-46325000D02*
X94420000Y-46325000D01*
X103695000Y-46325000D02*
X102620000Y-46325000D01*
X103695000Y-56675000D02*
X102620000Y-56675000D01*
X93345000Y-56675000D02*
X93345000Y-55600000D01*
X103695000Y-56675000D02*
X103695000Y-55600000D01*
X103695000Y-46325000D02*
X103695000Y-47400000D01*
X93345000Y-46325000D02*
X93345000Y-47400000D01*
X94420000Y-56675000D02*
X94420000Y-57700000D01*
X107400000Y-55900000D02*
X107400000Y-56600000D01*
X106200000Y-56600000D02*
X106200000Y-55900000D01*
X106995000Y-60080000D02*
X106995000Y-61080000D01*
X105645000Y-61080000D02*
X105645000Y-60080000D01*
X71050000Y-65925000D02*
X72250000Y-65925000D01*
X72250000Y-67675000D02*
X71050000Y-67675000D01*
X110200000Y-50475000D02*
X109200000Y-50475000D01*
X109200000Y-49125000D02*
X110200000Y-49125000D01*
X64630000Y-65630000D02*
X64630000Y-63090000D01*
X64350000Y-68450000D02*
X64350000Y-66900000D01*
X64630000Y-65630000D02*
X67170000Y-65630000D01*
X67450000Y-66900000D02*
X67450000Y-68450000D01*
X67450000Y-68450000D02*
X64350000Y-68450000D01*
X67170000Y-65630000D02*
X67170000Y-63090000D01*
X67170000Y-63090000D02*
X64630000Y-63090000D01*
X87500000Y-58100000D02*
X87500000Y-57400000D01*
X88700000Y-57400000D02*
X88700000Y-58100000D01*
X68865000Y-51900000D02*
X68865000Y-52400000D01*
X69815000Y-52400000D02*
X69815000Y-51900000D01*
X72400000Y-46900000D02*
X72400000Y-47600000D01*
X71200000Y-47600000D02*
X71200000Y-46900000D01*
X73700000Y-46900000D02*
X73700000Y-47600000D01*
X72500000Y-47600000D02*
X72500000Y-46900000D01*
X70415000Y-51890000D02*
X70415000Y-52390000D01*
X71365000Y-52390000D02*
X71365000Y-51890000D01*
X71390000Y-51885000D02*
X71890000Y-51885000D01*
X71890000Y-50935000D02*
X71390000Y-50935000D01*
X75600000Y-56200000D02*
X75600000Y-56900000D01*
X74400000Y-56900000D02*
X74400000Y-56200000D01*
X74100000Y-56200000D02*
X74100000Y-56900000D01*
X72900000Y-56900000D02*
X72900000Y-56200000D01*
X78800000Y-56200000D02*
X78800000Y-56900000D01*
X77600000Y-56900000D02*
X77600000Y-56200000D01*
X80300000Y-56200000D02*
X80300000Y-56900000D01*
X79100000Y-56900000D02*
X79100000Y-56200000D01*
X79350000Y-47500000D02*
X78650000Y-47500000D01*
X78650000Y-46300000D02*
X79350000Y-46300000D01*
X80500000Y-46200000D02*
X79800000Y-46200000D01*
X79800000Y-45000000D02*
X80500000Y-45000000D01*
X83700000Y-56900000D02*
X83700000Y-57600000D01*
X82500000Y-57600000D02*
X82500000Y-56900000D01*
X85300000Y-56900000D02*
X85300000Y-57600000D01*
X84100000Y-57600000D02*
X84100000Y-56900000D01*
X79860000Y-41900000D02*
X79860000Y-42600000D01*
X78660000Y-42600000D02*
X78660000Y-41900000D01*
X89200000Y-45900000D02*
X88500000Y-45900000D01*
X88500000Y-44700000D02*
X89200000Y-44700000D01*
X91200000Y-56100000D02*
X91200000Y-56800000D01*
X90000000Y-56800000D02*
X90000000Y-56100000D01*
X76400000Y-66300000D02*
X77100000Y-66300000D01*
X77100000Y-67500000D02*
X76400000Y-67500000D01*
X83800000Y-61700000D02*
X84500000Y-61700000D01*
X84500000Y-62900000D02*
X83800000Y-62900000D01*
X90400000Y-61400000D02*
X90400000Y-62100000D01*
X89200000Y-62100000D02*
X89200000Y-61400000D01*
X80600000Y-61300000D02*
X79900000Y-61300000D01*
X79900000Y-60100000D02*
X80600000Y-60100000D01*
X102100000Y-60700000D02*
X102100000Y-61400000D01*
X100900000Y-61400000D02*
X100900000Y-60700000D01*
X88600000Y-61350000D02*
X88600000Y-62050000D01*
X87400000Y-62050000D02*
X87400000Y-61350000D01*
X76100000Y-60100000D02*
X76800000Y-60100000D01*
X76800000Y-61300000D02*
X76100000Y-61300000D01*
X72200000Y-61300000D02*
X72200000Y-62000000D01*
X71000000Y-62000000D02*
X71000000Y-61300000D01*
X92750000Y-64449020D02*
X92750000Y-61749020D01*
X91250000Y-64449020D02*
X91250000Y-61749020D01*
X92150000Y-62949020D02*
X91900000Y-62949020D01*
X91900000Y-62949020D02*
X92050000Y-63099020D01*
X91650000Y-63199020D02*
X92350000Y-63199020D01*
X92000000Y-62849020D02*
X92000000Y-62499020D01*
X92000000Y-63199020D02*
X91650000Y-62849020D01*
X91650000Y-62849020D02*
X92350000Y-62849020D01*
X92350000Y-62849020D02*
X92000000Y-63199020D01*
X83800000Y-60100000D02*
X84500000Y-60100000D01*
X84500000Y-61300000D02*
X83800000Y-61300000D01*
D14*
X56308700Y-55176040D02*
X56308700Y-47677960D01*
X57058000Y-47677960D02*
X57058000Y-55176040D01*
X57809840Y-55176040D02*
X57809840Y-47677960D01*
X59308440Y-47677960D02*
X59308440Y-55176040D01*
X58559140Y-55176040D02*
X58559140Y-47677960D01*
X55559400Y-47926880D02*
X55559400Y-54927120D01*
X55559400Y-54927120D02*
X56059780Y-54927120D01*
X62059260Y-47426500D02*
X62559640Y-47426500D01*
X62059260Y-55427500D02*
X62559640Y-55427500D01*
X62308180Y-55427500D02*
X62308180Y-47426500D01*
X62059260Y-47426500D02*
X62059260Y-55427500D01*
X62559640Y-53425980D02*
X66560140Y-53425980D01*
X66560140Y-53425980D02*
X66560140Y-54426740D01*
X66560140Y-54426740D02*
X62559640Y-54426740D01*
X62559640Y-50926620D02*
X66560140Y-50926620D01*
X66560140Y-50926620D02*
X66560140Y-51927380D01*
X66560140Y-51927380D02*
X62559640Y-51927380D01*
X62559640Y-48427260D02*
X66560140Y-48427260D01*
X66560140Y-48427260D02*
X66560140Y-49428020D01*
X66560140Y-49428020D02*
X62559640Y-49428020D01*
X55559400Y-47926880D02*
X62559640Y-47926880D01*
X62559640Y-47426500D02*
X62559640Y-55427500D01*
X62559640Y-54927120D02*
X56059780Y-54927120D01*
X74098100Y-42851100D02*
X74098100Y-40849580D01*
X74098100Y-40849580D02*
X76099620Y-40849580D01*
X76099620Y-40849580D02*
X76099620Y-42851100D01*
X76099620Y-42851100D02*
X74098100Y-42851100D01*
D12*
X102910000Y-40930000D02*
X97830000Y-40930000D01*
X97830000Y-40930000D02*
X97830000Y-43470000D01*
X97830000Y-43470000D02*
X102910000Y-43470000D01*
X105730000Y-43750000D02*
X104180000Y-43750000D01*
X102910000Y-43470000D02*
X102910000Y-40930000D01*
X104180000Y-40650000D02*
X105730000Y-40650000D01*
X105730000Y-40650000D02*
X105730000Y-43750000D01*
X94210000Y-40930000D02*
X89130000Y-40930000D01*
X89130000Y-40930000D02*
X89130000Y-43470000D01*
X89130000Y-43470000D02*
X94210000Y-43470000D01*
X97030000Y-43750000D02*
X95480000Y-43750000D01*
X94210000Y-43470000D02*
X94210000Y-40930000D01*
X95480000Y-40650000D02*
X97030000Y-40650000D01*
X97030000Y-40650000D02*
X97030000Y-43750000D01*
X106530000Y-43470000D02*
X106530000Y-48550000D01*
X106250000Y-40650000D02*
X107800000Y-40650000D01*
X109070000Y-40930000D02*
X109070000Y-43470000D01*
X109070000Y-43470000D02*
X106530000Y-43470000D01*
X106530000Y-48550000D02*
X111610000Y-48550000D01*
X111610000Y-48550000D02*
X111610000Y-43470000D01*
X106250000Y-40650000D02*
X106250000Y-42200000D01*
X111610000Y-40930000D02*
X109070000Y-40930000D01*
X111610000Y-43470000D02*
X111610000Y-40930000D01*
X105925000Y-52700000D02*
X105925000Y-51700000D01*
X107275000Y-51700000D02*
X107275000Y-52700000D01*
X75925000Y-57200000D02*
X75925000Y-56200000D01*
X77275000Y-56200000D02*
X77275000Y-57200000D01*
X105565000Y-60080000D02*
X105565000Y-61080000D01*
X104215000Y-61080000D02*
X104215000Y-60080000D01*
X72625000Y-62000000D02*
X72625000Y-61000000D01*
X73975000Y-61000000D02*
X73975000Y-62000000D01*
X70575000Y-61000000D02*
X70575000Y-62000000D01*
X69225000Y-62000000D02*
X69225000Y-61000000D01*
X91325000Y-67500000D02*
X91325000Y-66500000D01*
X92675000Y-66500000D02*
X92675000Y-67500000D01*
X93325000Y-67500000D02*
X93325000Y-66500000D01*
X94675000Y-66500000D02*
X94675000Y-67500000D01*
X95325000Y-67500000D02*
X95325000Y-66500000D01*
X96675000Y-66500000D02*
X96675000Y-67500000D01*
X97325000Y-67500000D02*
X97325000Y-66500000D01*
X98675000Y-66500000D02*
X98675000Y-67500000D01*
X109749780Y-58839890D02*
X109749780Y-56339890D01*
X109749780Y-56339890D02*
X110849780Y-56339890D01*
X110849780Y-56339890D02*
X110849780Y-58839890D01*
X110849780Y-58839890D02*
X109749780Y-58839890D01*
X111099780Y-59089890D02*
X111099780Y-56089890D01*
X109499780Y-59089890D02*
X109499780Y-56089890D01*
X109499780Y-56089890D02*
X111099780Y-56089890D01*
X109499780Y-59089890D02*
X111099780Y-59089890D01*
X112049780Y-60589890D02*
X112049780Y-54589890D01*
X108549780Y-60589890D02*
X108549780Y-54589890D01*
X108549780Y-60589890D02*
X112049780Y-60589890D01*
X108549780Y-54589890D02*
X112049780Y-54589890D01*
D14*
X64499240Y-45151100D02*
X64499240Y-43149580D01*
X64499240Y-43149580D02*
X66500760Y-43149580D01*
X66500760Y-43149580D02*
X66500760Y-45151100D01*
X66500760Y-45151100D02*
X64499240Y-45151100D01*
D12*
X94750000Y-64450980D02*
X94750000Y-61750980D01*
X93250000Y-64450980D02*
X93250000Y-61750980D01*
X94150000Y-62950980D02*
X93900000Y-62950980D01*
X93900000Y-62950980D02*
X94050000Y-63100980D01*
X93650000Y-63200980D02*
X94350000Y-63200980D01*
X94000000Y-62850980D02*
X94000000Y-62500980D01*
X94000000Y-63200980D02*
X93650000Y-62850980D01*
X93650000Y-62850980D02*
X94350000Y-62850980D01*
X94350000Y-62850980D02*
X94000000Y-63200980D01*
X96750000Y-64449020D02*
X96750000Y-61749020D01*
X95250000Y-64449020D02*
X95250000Y-61749020D01*
X96150000Y-62949020D02*
X95900000Y-62949020D01*
X95900000Y-62949020D02*
X96050000Y-63099020D01*
X95650000Y-63199020D02*
X96350000Y-63199020D01*
X96000000Y-62849020D02*
X96000000Y-62499020D01*
X96000000Y-63199020D02*
X95650000Y-62849020D01*
X95650000Y-62849020D02*
X96350000Y-62849020D01*
X96350000Y-62849020D02*
X96000000Y-63199020D01*
X98750000Y-64449020D02*
X98750000Y-61749020D01*
X97250000Y-64449020D02*
X97250000Y-61749020D01*
X98150000Y-62949020D02*
X97900000Y-62949020D01*
X97900000Y-62949020D02*
X98050000Y-63099020D01*
X97650000Y-63199020D02*
X98350000Y-63199020D01*
X98000000Y-62849020D02*
X98000000Y-62499020D01*
X98000000Y-63199020D02*
X97650000Y-62849020D01*
X97650000Y-62849020D02*
X98350000Y-62849020D01*
X98350000Y-62849020D02*
X98000000Y-63199020D01*
X80950000Y-70050980D02*
X80950000Y-67350980D01*
X79450000Y-70050980D02*
X79450000Y-67350980D01*
X80350000Y-68550980D02*
X80100000Y-68550980D01*
X80100000Y-68550980D02*
X80250000Y-68700980D01*
X79850000Y-68800980D02*
X80550000Y-68800980D01*
X80200000Y-68450980D02*
X80200000Y-68100980D01*
X80200000Y-68800980D02*
X79850000Y-68450980D01*
X79850000Y-68450980D02*
X80550000Y-68450980D01*
X80550000Y-68450980D02*
X80200000Y-68800980D01*
X76400000Y-68825000D02*
X77400000Y-68825000D01*
X77400000Y-70175000D02*
X76400000Y-70175000D01*
X84095000Y-64175000D02*
X84095000Y-64320000D01*
X88245000Y-64175000D02*
X88245000Y-64320000D01*
X88245000Y-69325000D02*
X88245000Y-69180000D01*
X84095000Y-69325000D02*
X84095000Y-69180000D01*
X84095000Y-64175000D02*
X88245000Y-64175000D01*
X84095000Y-69325000D02*
X88245000Y-69325000D01*
X84095000Y-64320000D02*
X82695000Y-64320000D01*
X102149360Y-72599180D02*
X109850640Y-72599180D01*
X102149360Y-73599940D02*
X109850640Y-73599940D01*
X109850640Y-73599940D02*
X109850640Y-64400060D01*
X109850640Y-64400060D02*
X102149360Y-64400060D01*
X102149360Y-64400060D02*
X102149360Y-73599940D01*
D15*
X80820000Y-39810000D02*
X80820000Y-44310000D01*
X80820000Y-44310000D02*
X86220000Y-44310000D01*
D12*
X80700000Y-63500000D02*
X80950000Y-63500000D01*
X80950000Y-64300000D02*
X80700000Y-64300000D01*
X80800000Y-61700000D02*
X81050000Y-61700000D01*
X81050000Y-62500000D02*
X80800000Y-62500000D01*
X68420000Y-50930000D02*
X68420000Y-51180000D01*
X67620000Y-51180000D02*
X67620000Y-50930000D01*
X69730000Y-50810000D02*
X70430000Y-50810000D01*
X70430000Y-52010000D02*
X69730000Y-52010000D01*
X75780000Y-65030000D02*
X78310000Y-65020000D01*
X78320000Y-61710000D02*
X78300000Y-65010000D01*
X75800000Y-65020000D02*
X75820000Y-61710000D01*
X79010950Y-65160000D02*
G75*
G03X79010950Y-65160000I-210950J0D01*
G01*
X78315000Y-61710000D02*
X75865000Y-61710000D01*
X69250000Y-48481429D02*
X68964286Y-48481429D01*
X68964286Y-47881429D01*
X69764286Y-48481429D02*
X69421429Y-48481429D01*
X69592857Y-48481429D02*
X69592857Y-47881429D01*
X69535714Y-47967143D01*
X69478572Y-48024286D01*
X69421429Y-48052857D01*
X86664285Y-44004286D02*
X86635714Y-44032857D01*
X86550000Y-44061429D01*
X86492857Y-44061429D01*
X86407142Y-44032857D01*
X86350000Y-43975714D01*
X86321428Y-43918571D01*
X86292857Y-43804286D01*
X86292857Y-43718571D01*
X86321428Y-43604286D01*
X86350000Y-43547143D01*
X86407142Y-43490000D01*
X86492857Y-43461429D01*
X86550000Y-43461429D01*
X86635714Y-43490000D01*
X86664285Y-43518571D01*
X87235714Y-44061429D02*
X86892857Y-44061429D01*
X87064285Y-44061429D02*
X87064285Y-43461429D01*
X87007142Y-43547143D01*
X86950000Y-43604286D01*
X86892857Y-43632857D01*
X87521429Y-44061429D02*
X87635714Y-44061429D01*
X87692857Y-44032857D01*
X87721429Y-44004286D01*
X87778571Y-43918571D01*
X87807143Y-43804286D01*
X87807143Y-43575714D01*
X87778571Y-43518571D01*
X87750000Y-43490000D01*
X87692857Y-43461429D01*
X87578571Y-43461429D01*
X87521429Y-43490000D01*
X87492857Y-43518571D01*
X87464286Y-43575714D01*
X87464286Y-43718571D01*
X87492857Y-43775714D01*
X87521429Y-43804286D01*
X87578571Y-43832857D01*
X87692857Y-43832857D01*
X87750000Y-43804286D01*
X87778571Y-43775714D01*
X87807143Y-43718571D01*
X86952857Y-47911429D02*
X86952857Y-48397143D01*
X86981429Y-48454286D01*
X87010000Y-48482857D01*
X87067143Y-48511429D01*
X87181429Y-48511429D01*
X87238571Y-48482857D01*
X87267143Y-48454286D01*
X87295714Y-48397143D01*
X87295714Y-47911429D01*
X87524285Y-47911429D02*
X87895714Y-47911429D01*
X87695714Y-48140000D01*
X87781428Y-48140000D01*
X87838571Y-48168571D01*
X87867142Y-48197143D01*
X87895714Y-48254286D01*
X87895714Y-48397143D01*
X87867142Y-48454286D01*
X87838571Y-48482857D01*
X87781428Y-48511429D01*
X87610000Y-48511429D01*
X87552857Y-48482857D01*
X87524285Y-48454286D01*
X74227857Y-47346429D02*
X74227857Y-47832143D01*
X74256429Y-47889286D01*
X74285000Y-47917857D01*
X74342143Y-47946429D01*
X74456429Y-47946429D01*
X74513571Y-47917857D01*
X74542143Y-47889286D01*
X74570714Y-47832143D01*
X74570714Y-47346429D01*
X75170714Y-47946429D02*
X74827857Y-47946429D01*
X74999285Y-47946429D02*
X74999285Y-47346429D01*
X74942142Y-47432143D01*
X74885000Y-47489286D01*
X74827857Y-47517857D01*
D16*
X71638778Y-40105588D02*
X71638778Y-39805868D01*
X71752957Y-39805868D01*
X71781502Y-39820140D01*
X71795774Y-39834412D01*
X71810046Y-39862957D01*
X71810046Y-39905774D01*
X71795774Y-39934319D01*
X71781502Y-39948591D01*
X71752957Y-39962864D01*
X71638778Y-39962864D01*
X71909953Y-39805868D02*
X72095494Y-39805868D01*
X71995587Y-39920047D01*
X72038405Y-39920047D01*
X72066949Y-39934319D01*
X72081222Y-39948591D01*
X72095494Y-39977136D01*
X72095494Y-40048498D01*
X72081222Y-40077043D01*
X72066949Y-40091315D01*
X72038405Y-40105588D01*
X71952770Y-40105588D01*
X71924226Y-40091315D01*
X71909953Y-40077043D01*
D17*
D16*
X70871315Y-43849966D02*
X70885588Y-43821422D01*
X70885588Y-43764332D01*
X70871315Y-43735787D01*
X70842770Y-43721515D01*
X70828498Y-43721515D01*
X70799953Y-43735787D01*
X70785681Y-43764332D01*
X70785681Y-43807149D01*
X70771409Y-43835694D01*
X70742864Y-43849966D01*
X70728591Y-43849966D01*
X70700047Y-43835694D01*
X70685774Y-43807149D01*
X70685774Y-43764332D01*
X70700047Y-43735787D01*
X70885588Y-43593064D02*
X70685774Y-43593064D01*
X70714319Y-43593064D02*
X70700047Y-43578792D01*
X70685774Y-43550247D01*
X70685774Y-43507430D01*
X70700047Y-43478885D01*
X70728591Y-43464613D01*
X70885588Y-43464613D01*
X70728591Y-43464613D02*
X70700047Y-43450340D01*
X70685774Y-43421796D01*
X70685774Y-43378978D01*
X70700047Y-43350434D01*
X70728591Y-43336161D01*
X70885588Y-43336161D01*
X70885588Y-43064986D02*
X70728591Y-43064986D01*
X70700047Y-43079258D01*
X70685774Y-43107803D01*
X70685774Y-43164892D01*
X70700047Y-43193437D01*
X70871315Y-43064986D02*
X70885588Y-43093530D01*
X70885588Y-43164892D01*
X70871315Y-43193437D01*
X70842770Y-43207709D01*
X70814226Y-43207709D01*
X70785681Y-43193437D01*
X70771409Y-43164892D01*
X70771409Y-43093530D01*
X70757136Y-43064986D01*
D17*
D12*
X98392857Y-51591429D02*
X98392857Y-52077143D01*
X98421429Y-52134286D01*
X98450000Y-52162857D01*
X98507143Y-52191429D01*
X98621429Y-52191429D01*
X98678571Y-52162857D01*
X98707143Y-52134286D01*
X98735714Y-52077143D01*
X98735714Y-51591429D01*
X98992857Y-51648571D02*
X99021428Y-51620000D01*
X99078571Y-51591429D01*
X99221428Y-51591429D01*
X99278571Y-51620000D01*
X99307142Y-51648571D01*
X99335714Y-51705714D01*
X99335714Y-51762857D01*
X99307142Y-51848571D01*
X98964285Y-52191429D01*
X99335714Y-52191429D01*
X105844286Y-56320000D02*
X105872857Y-56348571D01*
X105901429Y-56434285D01*
X105901429Y-56491428D01*
X105872857Y-56577143D01*
X105815714Y-56634285D01*
X105758571Y-56662857D01*
X105644286Y-56691428D01*
X105558571Y-56691428D01*
X105444286Y-56662857D01*
X105387143Y-56634285D01*
X105330000Y-56577143D01*
X105301429Y-56491428D01*
X105301429Y-56434285D01*
X105330000Y-56348571D01*
X105358571Y-56320000D01*
X105901429Y-55748571D02*
X105901429Y-56091428D01*
X105901429Y-55920000D02*
X105301429Y-55920000D01*
X105387143Y-55977143D01*
X105444286Y-56034285D01*
X105472857Y-56091428D01*
X107991429Y-60620000D02*
X107705714Y-60820000D01*
X107991429Y-60962857D02*
X107391429Y-60962857D01*
X107391429Y-60734285D01*
X107420000Y-60677143D01*
X107448571Y-60648571D01*
X107505714Y-60620000D01*
X107591429Y-60620000D01*
X107648571Y-60648571D01*
X107677143Y-60677143D01*
X107705714Y-60734285D01*
X107705714Y-60962857D01*
X107391429Y-60420000D02*
X107391429Y-60020000D01*
X107991429Y-60277143D01*
X70911905Y-65252381D02*
X70911905Y-64252381D01*
X71150000Y-64252381D01*
X71292858Y-64300000D01*
X71388096Y-64395238D01*
X71435715Y-64490476D01*
X71483334Y-64680952D01*
X71483334Y-64823810D01*
X71435715Y-65014286D01*
X71388096Y-65109524D01*
X71292858Y-65204762D01*
X71150000Y-65252381D01*
X70911905Y-65252381D01*
X72435715Y-65252381D02*
X71864286Y-65252381D01*
X72150000Y-65252381D02*
X72150000Y-64252381D01*
X72054762Y-64395238D01*
X71959524Y-64490476D01*
X71864286Y-64538095D01*
X109520000Y-51441429D02*
X109320000Y-51155714D01*
X109177143Y-51441429D02*
X109177143Y-50841429D01*
X109405715Y-50841429D01*
X109462857Y-50870000D01*
X109491429Y-50898571D01*
X109520000Y-50955714D01*
X109520000Y-51041429D01*
X109491429Y-51098571D01*
X109462857Y-51127143D01*
X109405715Y-51155714D01*
X109177143Y-51155714D01*
X110062857Y-50841429D02*
X109777143Y-50841429D01*
X109748572Y-51127143D01*
X109777143Y-51098571D01*
X109834286Y-51070000D01*
X109977143Y-51070000D01*
X110034286Y-51098571D01*
X110062857Y-51127143D01*
X110091429Y-51184286D01*
X110091429Y-51327143D01*
X110062857Y-51384286D01*
X110034286Y-51412857D01*
X109977143Y-51441429D01*
X109834286Y-51441429D01*
X109777143Y-51412857D01*
X109748572Y-51384286D01*
X65214286Y-61228571D02*
X65357143Y-61276190D01*
X65404762Y-61323810D01*
X65452381Y-61419048D01*
X65452381Y-61561905D01*
X65404762Y-61657143D01*
X65357143Y-61704762D01*
X65261905Y-61752381D01*
X64880952Y-61752381D01*
X64880952Y-60752381D01*
X65214286Y-60752381D01*
X65309524Y-60800000D01*
X65357143Y-60847619D01*
X65404762Y-60942857D01*
X65404762Y-61038095D01*
X65357143Y-61133333D01*
X65309524Y-61180952D01*
X65214286Y-61228571D01*
X64880952Y-61228571D01*
X65738095Y-60752381D02*
X66309524Y-60752381D01*
X66023809Y-61752381D02*
X66023809Y-60752381D01*
X67166667Y-61752381D02*
X66595238Y-61752381D01*
X66880952Y-61752381D02*
X66880952Y-60752381D01*
X66785714Y-60895238D01*
X66690476Y-60990476D01*
X66595238Y-61038095D01*
X87900000Y-55614286D02*
X87871429Y-55642857D01*
X87785715Y-55671429D01*
X87728572Y-55671429D01*
X87642857Y-55642857D01*
X87585715Y-55585714D01*
X87557143Y-55528571D01*
X87528572Y-55414286D01*
X87528572Y-55328571D01*
X87557143Y-55214286D01*
X87585715Y-55157143D01*
X87642857Y-55100000D01*
X87728572Y-55071429D01*
X87785715Y-55071429D01*
X87871429Y-55100000D01*
X87900000Y-55128571D01*
X88100000Y-55071429D02*
X88471429Y-55071429D01*
X88271429Y-55300000D01*
X88357143Y-55300000D01*
X88414286Y-55328571D01*
X88442857Y-55357143D01*
X88471429Y-55414286D01*
X88471429Y-55557143D01*
X88442857Y-55614286D01*
X88414286Y-55642857D01*
X88357143Y-55671429D01*
X88185715Y-55671429D01*
X88128572Y-55642857D01*
X88100000Y-55614286D01*
X69140000Y-54104286D02*
X69111429Y-54132857D01*
X69025715Y-54161429D01*
X68968572Y-54161429D01*
X68882857Y-54132857D01*
X68825715Y-54075714D01*
X68797143Y-54018571D01*
X68768572Y-53904286D01*
X68768572Y-53818571D01*
X68797143Y-53704286D01*
X68825715Y-53647143D01*
X68882857Y-53590000D01*
X68968572Y-53561429D01*
X69025715Y-53561429D01*
X69111429Y-53590000D01*
X69140000Y-53618571D01*
X69654286Y-53761429D02*
X69654286Y-54161429D01*
X69511429Y-53532857D02*
X69368572Y-53961429D01*
X69740000Y-53961429D01*
X71470000Y-44894286D02*
X71441429Y-44922857D01*
X71355715Y-44951429D01*
X71298572Y-44951429D01*
X71212857Y-44922857D01*
X71155715Y-44865714D01*
X71127143Y-44808571D01*
X71098572Y-44694286D01*
X71098572Y-44608571D01*
X71127143Y-44494286D01*
X71155715Y-44437143D01*
X71212857Y-44380000D01*
X71298572Y-44351429D01*
X71355715Y-44351429D01*
X71441429Y-44380000D01*
X71470000Y-44408571D01*
X71984286Y-44351429D02*
X71870000Y-44351429D01*
X71812857Y-44380000D01*
X71784286Y-44408571D01*
X71727143Y-44494286D01*
X71698572Y-44608571D01*
X71698572Y-44837143D01*
X71727143Y-44894286D01*
X71755715Y-44922857D01*
X71812857Y-44951429D01*
X71927143Y-44951429D01*
X71984286Y-44922857D01*
X72012857Y-44894286D01*
X72041429Y-44837143D01*
X72041429Y-44694286D01*
X72012857Y-44637143D01*
X71984286Y-44608571D01*
X71927143Y-44580000D01*
X71812857Y-44580000D01*
X71755715Y-44608571D01*
X71727143Y-44637143D01*
X71698572Y-44694286D01*
X72940000Y-44934286D02*
X72911429Y-44962857D01*
X72825715Y-44991429D01*
X72768572Y-44991429D01*
X72682857Y-44962857D01*
X72625715Y-44905714D01*
X72597143Y-44848571D01*
X72568572Y-44734286D01*
X72568572Y-44648571D01*
X72597143Y-44534286D01*
X72625715Y-44477143D01*
X72682857Y-44420000D01*
X72768572Y-44391429D01*
X72825715Y-44391429D01*
X72911429Y-44420000D01*
X72940000Y-44448571D01*
X73140000Y-44391429D02*
X73540000Y-44391429D01*
X73282857Y-44991429D01*
X70830000Y-54194286D02*
X70801429Y-54222857D01*
X70715715Y-54251429D01*
X70658572Y-54251429D01*
X70572857Y-54222857D01*
X70515715Y-54165714D01*
X70487143Y-54108571D01*
X70458572Y-53994286D01*
X70458572Y-53908571D01*
X70487143Y-53794286D01*
X70515715Y-53737143D01*
X70572857Y-53680000D01*
X70658572Y-53651429D01*
X70715715Y-53651429D01*
X70801429Y-53680000D01*
X70830000Y-53708571D01*
X71172857Y-53908571D02*
X71115715Y-53880000D01*
X71087143Y-53851429D01*
X71058572Y-53794286D01*
X71058572Y-53765714D01*
X71087143Y-53708571D01*
X71115715Y-53680000D01*
X71172857Y-53651429D01*
X71287143Y-53651429D01*
X71344286Y-53680000D01*
X71372857Y-53708571D01*
X71401429Y-53765714D01*
X71401429Y-53794286D01*
X71372857Y-53851429D01*
X71344286Y-53880000D01*
X71287143Y-53908571D01*
X71172857Y-53908571D01*
X71115715Y-53937143D01*
X71087143Y-53965714D01*
X71058572Y-54022857D01*
X71058572Y-54137143D01*
X71087143Y-54194286D01*
X71115715Y-54222857D01*
X71172857Y-54251429D01*
X71287143Y-54251429D01*
X71344286Y-54222857D01*
X71372857Y-54194286D01*
X71401429Y-54137143D01*
X71401429Y-54022857D01*
X71372857Y-53965714D01*
X71344286Y-53937143D01*
X71287143Y-53908571D01*
X71860000Y-50334286D02*
X71831429Y-50362857D01*
X71745715Y-50391429D01*
X71688572Y-50391429D01*
X71602857Y-50362857D01*
X71545715Y-50305714D01*
X71517143Y-50248571D01*
X71488572Y-50134286D01*
X71488572Y-50048571D01*
X71517143Y-49934286D01*
X71545715Y-49877143D01*
X71602857Y-49820000D01*
X71688572Y-49791429D01*
X71745715Y-49791429D01*
X71831429Y-49820000D01*
X71860000Y-49848571D01*
X72145715Y-50391429D02*
X72260000Y-50391429D01*
X72317143Y-50362857D01*
X72345715Y-50334286D01*
X72402857Y-50248571D01*
X72431429Y-50134286D01*
X72431429Y-49905714D01*
X72402857Y-49848571D01*
X72374286Y-49820000D01*
X72317143Y-49791429D01*
X72202857Y-49791429D01*
X72145715Y-49820000D01*
X72117143Y-49848571D01*
X72088572Y-49905714D01*
X72088572Y-50048571D01*
X72117143Y-50105714D01*
X72145715Y-50134286D01*
X72202857Y-50162857D01*
X72317143Y-50162857D01*
X72374286Y-50134286D01*
X72402857Y-50105714D01*
X72431429Y-50048571D01*
X74614285Y-54614286D02*
X74585714Y-54642857D01*
X74500000Y-54671429D01*
X74442857Y-54671429D01*
X74357142Y-54642857D01*
X74300000Y-54585714D01*
X74271428Y-54528571D01*
X74242857Y-54414286D01*
X74242857Y-54328571D01*
X74271428Y-54214286D01*
X74300000Y-54157143D01*
X74357142Y-54100000D01*
X74442857Y-54071429D01*
X74500000Y-54071429D01*
X74585714Y-54100000D01*
X74614285Y-54128571D01*
X75185714Y-54671429D02*
X74842857Y-54671429D01*
X75014285Y-54671429D02*
X75014285Y-54071429D01*
X74957142Y-54157143D01*
X74900000Y-54214286D01*
X74842857Y-54242857D01*
X75557143Y-54071429D02*
X75614286Y-54071429D01*
X75671429Y-54100000D01*
X75700000Y-54128571D01*
X75728571Y-54185714D01*
X75757143Y-54300000D01*
X75757143Y-54442857D01*
X75728571Y-54557143D01*
X75700000Y-54614286D01*
X75671429Y-54642857D01*
X75614286Y-54671429D01*
X75557143Y-54671429D01*
X75500000Y-54642857D01*
X75471429Y-54614286D01*
X75442857Y-54557143D01*
X75414286Y-54442857D01*
X75414286Y-54300000D01*
X75442857Y-54185714D01*
X75471429Y-54128571D01*
X75500000Y-54100000D01*
X75557143Y-54071429D01*
X72914285Y-54614286D02*
X72885714Y-54642857D01*
X72800000Y-54671429D01*
X72742857Y-54671429D01*
X72657142Y-54642857D01*
X72600000Y-54585714D01*
X72571428Y-54528571D01*
X72542857Y-54414286D01*
X72542857Y-54328571D01*
X72571428Y-54214286D01*
X72600000Y-54157143D01*
X72657142Y-54100000D01*
X72742857Y-54071429D01*
X72800000Y-54071429D01*
X72885714Y-54100000D01*
X72914285Y-54128571D01*
X73485714Y-54671429D02*
X73142857Y-54671429D01*
X73314285Y-54671429D02*
X73314285Y-54071429D01*
X73257142Y-54157143D01*
X73200000Y-54214286D01*
X73142857Y-54242857D01*
X74057143Y-54671429D02*
X73714286Y-54671429D01*
X73885714Y-54671429D02*
X73885714Y-54071429D01*
X73828571Y-54157143D01*
X73771429Y-54214286D01*
X73714286Y-54242857D01*
X77714285Y-54614286D02*
X77685714Y-54642857D01*
X77600000Y-54671429D01*
X77542857Y-54671429D01*
X77457142Y-54642857D01*
X77400000Y-54585714D01*
X77371428Y-54528571D01*
X77342857Y-54414286D01*
X77342857Y-54328571D01*
X77371428Y-54214286D01*
X77400000Y-54157143D01*
X77457142Y-54100000D01*
X77542857Y-54071429D01*
X77600000Y-54071429D01*
X77685714Y-54100000D01*
X77714285Y-54128571D01*
X78285714Y-54671429D02*
X77942857Y-54671429D01*
X78114285Y-54671429D02*
X78114285Y-54071429D01*
X78057142Y-54157143D01*
X78000000Y-54214286D01*
X77942857Y-54242857D01*
X78514286Y-54128571D02*
X78542857Y-54100000D01*
X78600000Y-54071429D01*
X78742857Y-54071429D01*
X78800000Y-54100000D01*
X78828571Y-54128571D01*
X78857143Y-54185714D01*
X78857143Y-54242857D01*
X78828571Y-54328571D01*
X78485714Y-54671429D01*
X78857143Y-54671429D01*
X79414285Y-54614286D02*
X79385714Y-54642857D01*
X79300000Y-54671429D01*
X79242857Y-54671429D01*
X79157142Y-54642857D01*
X79100000Y-54585714D01*
X79071428Y-54528571D01*
X79042857Y-54414286D01*
X79042857Y-54328571D01*
X79071428Y-54214286D01*
X79100000Y-54157143D01*
X79157142Y-54100000D01*
X79242857Y-54071429D01*
X79300000Y-54071429D01*
X79385714Y-54100000D01*
X79414285Y-54128571D01*
X79985714Y-54671429D02*
X79642857Y-54671429D01*
X79814285Y-54671429D02*
X79814285Y-54071429D01*
X79757142Y-54157143D01*
X79700000Y-54214286D01*
X79642857Y-54242857D01*
X80185714Y-54071429D02*
X80557143Y-54071429D01*
X80357143Y-54300000D01*
X80442857Y-54300000D01*
X80500000Y-54328571D01*
X80528571Y-54357143D01*
X80557143Y-54414286D01*
X80557143Y-54557143D01*
X80528571Y-54614286D01*
X80500000Y-54642857D01*
X80442857Y-54671429D01*
X80271429Y-54671429D01*
X80214286Y-54642857D01*
X80185714Y-54614286D01*
X76954285Y-45364286D02*
X76925714Y-45392857D01*
X76840000Y-45421429D01*
X76782857Y-45421429D01*
X76697142Y-45392857D01*
X76640000Y-45335714D01*
X76611428Y-45278571D01*
X76582857Y-45164286D01*
X76582857Y-45078571D01*
X76611428Y-44964286D01*
X76640000Y-44907143D01*
X76697142Y-44850000D01*
X76782857Y-44821429D01*
X76840000Y-44821429D01*
X76925714Y-44850000D01*
X76954285Y-44878571D01*
X77525714Y-45421429D02*
X77182857Y-45421429D01*
X77354285Y-45421429D02*
X77354285Y-44821429D01*
X77297142Y-44907143D01*
X77240000Y-44964286D01*
X77182857Y-44992857D01*
X78040000Y-45021429D02*
X78040000Y-45421429D01*
X77897143Y-44792857D02*
X77754286Y-45221429D01*
X78125714Y-45221429D01*
X76954285Y-44344286D02*
X76925714Y-44372857D01*
X76840000Y-44401429D01*
X76782857Y-44401429D01*
X76697142Y-44372857D01*
X76640000Y-44315714D01*
X76611428Y-44258571D01*
X76582857Y-44144286D01*
X76582857Y-44058571D01*
X76611428Y-43944286D01*
X76640000Y-43887143D01*
X76697142Y-43830000D01*
X76782857Y-43801429D01*
X76840000Y-43801429D01*
X76925714Y-43830000D01*
X76954285Y-43858571D01*
X77525714Y-44401429D02*
X77182857Y-44401429D01*
X77354285Y-44401429D02*
X77354285Y-43801429D01*
X77297142Y-43887143D01*
X77240000Y-43944286D01*
X77182857Y-43972857D01*
X78068571Y-43801429D02*
X77782857Y-43801429D01*
X77754286Y-44087143D01*
X77782857Y-44058571D01*
X77840000Y-44030000D01*
X77982857Y-44030000D01*
X78040000Y-44058571D01*
X78068571Y-44087143D01*
X78097143Y-44144286D01*
X78097143Y-44287143D01*
X78068571Y-44344286D01*
X78040000Y-44372857D01*
X77982857Y-44401429D01*
X77840000Y-44401429D01*
X77782857Y-44372857D01*
X77754286Y-44344286D01*
X82014286Y-57685715D02*
X82042857Y-57714286D01*
X82071429Y-57800000D01*
X82071429Y-57857143D01*
X82042857Y-57942858D01*
X81985714Y-58000000D01*
X81928571Y-58028572D01*
X81814286Y-58057143D01*
X81728571Y-58057143D01*
X81614286Y-58028572D01*
X81557143Y-58000000D01*
X81500000Y-57942858D01*
X81471429Y-57857143D01*
X81471429Y-57800000D01*
X81500000Y-57714286D01*
X81528571Y-57685715D01*
X82071429Y-57114286D02*
X82071429Y-57457143D01*
X82071429Y-57285715D02*
X81471429Y-57285715D01*
X81557143Y-57342858D01*
X81614286Y-57400000D01*
X81642857Y-57457143D01*
X81471429Y-56600000D02*
X81471429Y-56714286D01*
X81500000Y-56771429D01*
X81528571Y-56800000D01*
X81614286Y-56857143D01*
X81728571Y-56885714D01*
X81957143Y-56885714D01*
X82014286Y-56857143D01*
X82042857Y-56828571D01*
X82071429Y-56771429D01*
X82071429Y-56657143D01*
X82042857Y-56600000D01*
X82014286Y-56571429D01*
X81957143Y-56542857D01*
X81814286Y-56542857D01*
X81757143Y-56571429D01*
X81728571Y-56600000D01*
X81700000Y-56657143D01*
X81700000Y-56771429D01*
X81728571Y-56828571D01*
X81757143Y-56857143D01*
X81814286Y-56885714D01*
X86214286Y-57685715D02*
X86242857Y-57714286D01*
X86271429Y-57800000D01*
X86271429Y-57857143D01*
X86242857Y-57942858D01*
X86185714Y-58000000D01*
X86128571Y-58028572D01*
X86014286Y-58057143D01*
X85928571Y-58057143D01*
X85814286Y-58028572D01*
X85757143Y-58000000D01*
X85700000Y-57942858D01*
X85671429Y-57857143D01*
X85671429Y-57800000D01*
X85700000Y-57714286D01*
X85728571Y-57685715D01*
X86271429Y-57114286D02*
X86271429Y-57457143D01*
X86271429Y-57285715D02*
X85671429Y-57285715D01*
X85757143Y-57342858D01*
X85814286Y-57400000D01*
X85842857Y-57457143D01*
X85671429Y-56914286D02*
X85671429Y-56514286D01*
X86271429Y-56771429D01*
X78904285Y-40044286D02*
X78875714Y-40072857D01*
X78790000Y-40101429D01*
X78732857Y-40101429D01*
X78647142Y-40072857D01*
X78590000Y-40015714D01*
X78561428Y-39958571D01*
X78532857Y-39844286D01*
X78532857Y-39758571D01*
X78561428Y-39644286D01*
X78590000Y-39587143D01*
X78647142Y-39530000D01*
X78732857Y-39501429D01*
X78790000Y-39501429D01*
X78875714Y-39530000D01*
X78904285Y-39558571D01*
X79475714Y-40101429D02*
X79132857Y-40101429D01*
X79304285Y-40101429D02*
X79304285Y-39501429D01*
X79247142Y-39587143D01*
X79190000Y-39644286D01*
X79132857Y-39672857D01*
X79818571Y-39758571D02*
X79761429Y-39730000D01*
X79732857Y-39701429D01*
X79704286Y-39644286D01*
X79704286Y-39615714D01*
X79732857Y-39558571D01*
X79761429Y-39530000D01*
X79818571Y-39501429D01*
X79932857Y-39501429D01*
X79990000Y-39530000D01*
X80018571Y-39558571D01*
X80047143Y-39615714D01*
X80047143Y-39644286D01*
X80018571Y-39701429D01*
X79990000Y-39730000D01*
X79932857Y-39758571D01*
X79818571Y-39758571D01*
X79761429Y-39787143D01*
X79732857Y-39815714D01*
X79704286Y-39872857D01*
X79704286Y-39987143D01*
X79732857Y-40044286D01*
X79761429Y-40072857D01*
X79818571Y-40101429D01*
X79932857Y-40101429D01*
X79990000Y-40072857D01*
X80018571Y-40044286D01*
X80047143Y-39987143D01*
X80047143Y-39872857D01*
X80018571Y-39815714D01*
X79990000Y-39787143D01*
X79932857Y-39758571D01*
X88474285Y-44274286D02*
X88445714Y-44302857D01*
X88360000Y-44331429D01*
X88302857Y-44331429D01*
X88217142Y-44302857D01*
X88160000Y-44245714D01*
X88131428Y-44188571D01*
X88102857Y-44074286D01*
X88102857Y-43988571D01*
X88131428Y-43874286D01*
X88160000Y-43817143D01*
X88217142Y-43760000D01*
X88302857Y-43731429D01*
X88360000Y-43731429D01*
X88445714Y-43760000D01*
X88474285Y-43788571D01*
X88702857Y-43788571D02*
X88731428Y-43760000D01*
X88788571Y-43731429D01*
X88931428Y-43731429D01*
X88988571Y-43760000D01*
X89017142Y-43788571D01*
X89045714Y-43845714D01*
X89045714Y-43902857D01*
X89017142Y-43988571D01*
X88674285Y-44331429D01*
X89045714Y-44331429D01*
X89417143Y-43731429D02*
X89474286Y-43731429D01*
X89531429Y-43760000D01*
X89560000Y-43788571D01*
X89588571Y-43845714D01*
X89617143Y-43960000D01*
X89617143Y-44102857D01*
X89588571Y-44217143D01*
X89560000Y-44274286D01*
X89531429Y-44302857D01*
X89474286Y-44331429D01*
X89417143Y-44331429D01*
X89360000Y-44302857D01*
X89331429Y-44274286D01*
X89302857Y-44217143D01*
X89274286Y-44102857D01*
X89274286Y-43960000D01*
X89302857Y-43845714D01*
X89331429Y-43788571D01*
X89360000Y-43760000D01*
X89417143Y-43731429D01*
X92857143Y-57092857D02*
X92904762Y-57140476D01*
X92952381Y-57283333D01*
X92952381Y-57378571D01*
X92904762Y-57521429D01*
X92809524Y-57616667D01*
X92714286Y-57664286D01*
X92523810Y-57711905D01*
X92380952Y-57711905D01*
X92190476Y-57664286D01*
X92095238Y-57616667D01*
X92000000Y-57521429D01*
X91952381Y-57378571D01*
X91952381Y-57283333D01*
X92000000Y-57140476D01*
X92047619Y-57092857D01*
X92047619Y-56711905D02*
X92000000Y-56664286D01*
X91952381Y-56569048D01*
X91952381Y-56330952D01*
X92000000Y-56235714D01*
X92047619Y-56188095D01*
X92142857Y-56140476D01*
X92238095Y-56140476D01*
X92380952Y-56188095D01*
X92952381Y-56759524D01*
X92952381Y-56140476D01*
X92952381Y-55188095D02*
X92952381Y-55759524D01*
X92952381Y-55473810D02*
X91952381Y-55473810D01*
X92095238Y-55569048D01*
X92190476Y-55664286D01*
X92238095Y-55759524D01*
X76414285Y-68414286D02*
X76385714Y-68442857D01*
X76300000Y-68471429D01*
X76242857Y-68471429D01*
X76157142Y-68442857D01*
X76100000Y-68385714D01*
X76071428Y-68328571D01*
X76042857Y-68214286D01*
X76042857Y-68128571D01*
X76071428Y-68014286D01*
X76100000Y-67957143D01*
X76157142Y-67900000D01*
X76242857Y-67871429D01*
X76300000Y-67871429D01*
X76385714Y-67900000D01*
X76414285Y-67928571D01*
X76642857Y-67928571D02*
X76671428Y-67900000D01*
X76728571Y-67871429D01*
X76871428Y-67871429D01*
X76928571Y-67900000D01*
X76957142Y-67928571D01*
X76985714Y-67985714D01*
X76985714Y-68042857D01*
X76957142Y-68128571D01*
X76614285Y-68471429D01*
X76985714Y-68471429D01*
X77185714Y-67871429D02*
X77557143Y-67871429D01*
X77357143Y-68100000D01*
X77442857Y-68100000D01*
X77500000Y-68128571D01*
X77528571Y-68157143D01*
X77557143Y-68214286D01*
X77557143Y-68357143D01*
X77528571Y-68414286D01*
X77500000Y-68442857D01*
X77442857Y-68471429D01*
X77271429Y-68471429D01*
X77214286Y-68442857D01*
X77185714Y-68414286D01*
X83714285Y-63714286D02*
X83685714Y-63742857D01*
X83600000Y-63771429D01*
X83542857Y-63771429D01*
X83457142Y-63742857D01*
X83400000Y-63685714D01*
X83371428Y-63628571D01*
X83342857Y-63514286D01*
X83342857Y-63428571D01*
X83371428Y-63314286D01*
X83400000Y-63257143D01*
X83457142Y-63200000D01*
X83542857Y-63171429D01*
X83600000Y-63171429D01*
X83685714Y-63200000D01*
X83714285Y-63228571D01*
X83942857Y-63228571D02*
X83971428Y-63200000D01*
X84028571Y-63171429D01*
X84171428Y-63171429D01*
X84228571Y-63200000D01*
X84257142Y-63228571D01*
X84285714Y-63285714D01*
X84285714Y-63342857D01*
X84257142Y-63428571D01*
X83914285Y-63771429D01*
X84285714Y-63771429D01*
X84800000Y-63371429D02*
X84800000Y-63771429D01*
X84657143Y-63142857D02*
X84514286Y-63571429D01*
X84885714Y-63571429D01*
X89714285Y-59514286D02*
X89685714Y-59542857D01*
X89600000Y-59571429D01*
X89542857Y-59571429D01*
X89457142Y-59542857D01*
X89400000Y-59485714D01*
X89371428Y-59428571D01*
X89342857Y-59314286D01*
X89342857Y-59228571D01*
X89371428Y-59114286D01*
X89400000Y-59057143D01*
X89457142Y-59000000D01*
X89542857Y-58971429D01*
X89600000Y-58971429D01*
X89685714Y-59000000D01*
X89714285Y-59028571D01*
X89942857Y-59028571D02*
X89971428Y-59000000D01*
X90028571Y-58971429D01*
X90171428Y-58971429D01*
X90228571Y-59000000D01*
X90257142Y-59028571D01*
X90285714Y-59085714D01*
X90285714Y-59142857D01*
X90257142Y-59228571D01*
X89914285Y-59571429D01*
X90285714Y-59571429D01*
X90828571Y-58971429D02*
X90542857Y-58971429D01*
X90514286Y-59257143D01*
X90542857Y-59228571D01*
X90600000Y-59200000D01*
X90742857Y-59200000D01*
X90800000Y-59228571D01*
X90828571Y-59257143D01*
X90857143Y-59314286D01*
X90857143Y-59457143D01*
X90828571Y-59514286D01*
X90800000Y-59542857D01*
X90742857Y-59571429D01*
X90600000Y-59571429D01*
X90542857Y-59542857D01*
X90514286Y-59514286D01*
X79814285Y-59714286D02*
X79785714Y-59742857D01*
X79700000Y-59771429D01*
X79642857Y-59771429D01*
X79557142Y-59742857D01*
X79500000Y-59685714D01*
X79471428Y-59628571D01*
X79442857Y-59514286D01*
X79442857Y-59428571D01*
X79471428Y-59314286D01*
X79500000Y-59257143D01*
X79557142Y-59200000D01*
X79642857Y-59171429D01*
X79700000Y-59171429D01*
X79785714Y-59200000D01*
X79814285Y-59228571D01*
X80042857Y-59228571D02*
X80071428Y-59200000D01*
X80128571Y-59171429D01*
X80271428Y-59171429D01*
X80328571Y-59200000D01*
X80357142Y-59228571D01*
X80385714Y-59285714D01*
X80385714Y-59342857D01*
X80357142Y-59428571D01*
X80014285Y-59771429D01*
X80385714Y-59771429D01*
X80900000Y-59171429D02*
X80785714Y-59171429D01*
X80728571Y-59200000D01*
X80700000Y-59228571D01*
X80642857Y-59314286D01*
X80614286Y-59428571D01*
X80614286Y-59657143D01*
X80642857Y-59714286D01*
X80671429Y-59742857D01*
X80728571Y-59771429D01*
X80842857Y-59771429D01*
X80900000Y-59742857D01*
X80928571Y-59714286D01*
X80957143Y-59657143D01*
X80957143Y-59514286D01*
X80928571Y-59457143D01*
X80900000Y-59428571D01*
X80842857Y-59400000D01*
X80728571Y-59400000D01*
X80671429Y-59428571D01*
X80642857Y-59457143D01*
X80614286Y-59514286D01*
X100464286Y-61475715D02*
X100492857Y-61504286D01*
X100521429Y-61590000D01*
X100521429Y-61647143D01*
X100492857Y-61732858D01*
X100435714Y-61790000D01*
X100378571Y-61818572D01*
X100264286Y-61847143D01*
X100178571Y-61847143D01*
X100064286Y-61818572D01*
X100007143Y-61790000D01*
X99950000Y-61732858D01*
X99921429Y-61647143D01*
X99921429Y-61590000D01*
X99950000Y-61504286D01*
X99978571Y-61475715D01*
X99978571Y-61247143D02*
X99950000Y-61218572D01*
X99921429Y-61161429D01*
X99921429Y-61018572D01*
X99950000Y-60961429D01*
X99978571Y-60932858D01*
X100035714Y-60904286D01*
X100092857Y-60904286D01*
X100178571Y-60932858D01*
X100521429Y-61275715D01*
X100521429Y-60904286D01*
X100178571Y-60561429D02*
X100150000Y-60618571D01*
X100121429Y-60647143D01*
X100064286Y-60675714D01*
X100035714Y-60675714D01*
X99978571Y-60647143D01*
X99950000Y-60618571D01*
X99921429Y-60561429D01*
X99921429Y-60447143D01*
X99950000Y-60390000D01*
X99978571Y-60361429D01*
X100035714Y-60332857D01*
X100064286Y-60332857D01*
X100121429Y-60361429D01*
X100150000Y-60390000D01*
X100178571Y-60447143D01*
X100178571Y-60561429D01*
X100207143Y-60618571D01*
X100235714Y-60647143D01*
X100292857Y-60675714D01*
X100407143Y-60675714D01*
X100464286Y-60647143D01*
X100492857Y-60618571D01*
X100521429Y-60561429D01*
X100521429Y-60447143D01*
X100492857Y-60390000D01*
X100464286Y-60361429D01*
X100407143Y-60332857D01*
X100292857Y-60332857D01*
X100235714Y-60361429D01*
X100207143Y-60390000D01*
X100178571Y-60447143D01*
X87014286Y-62085715D02*
X87042857Y-62114286D01*
X87071429Y-62200000D01*
X87071429Y-62257143D01*
X87042857Y-62342858D01*
X86985714Y-62400000D01*
X86928571Y-62428572D01*
X86814286Y-62457143D01*
X86728571Y-62457143D01*
X86614286Y-62428572D01*
X86557143Y-62400000D01*
X86500000Y-62342858D01*
X86471429Y-62257143D01*
X86471429Y-62200000D01*
X86500000Y-62114286D01*
X86528571Y-62085715D01*
X86471429Y-61885715D02*
X86471429Y-61514286D01*
X86700000Y-61714286D01*
X86700000Y-61628572D01*
X86728571Y-61571429D01*
X86757143Y-61542858D01*
X86814286Y-61514286D01*
X86957143Y-61514286D01*
X87014286Y-61542858D01*
X87042857Y-61571429D01*
X87071429Y-61628572D01*
X87071429Y-61800000D01*
X87042857Y-61857143D01*
X87014286Y-61885715D01*
X87071429Y-60942857D02*
X87071429Y-61285714D01*
X87071429Y-61114286D02*
X86471429Y-61114286D01*
X86557143Y-61171429D01*
X86614286Y-61228571D01*
X86642857Y-61285714D01*
X76014285Y-59714286D02*
X75985714Y-59742857D01*
X75900000Y-59771429D01*
X75842857Y-59771429D01*
X75757142Y-59742857D01*
X75700000Y-59685714D01*
X75671428Y-59628571D01*
X75642857Y-59514286D01*
X75642857Y-59428571D01*
X75671428Y-59314286D01*
X75700000Y-59257143D01*
X75757142Y-59200000D01*
X75842857Y-59171429D01*
X75900000Y-59171429D01*
X75985714Y-59200000D01*
X76014285Y-59228571D01*
X76214285Y-59171429D02*
X76585714Y-59171429D01*
X76385714Y-59400000D01*
X76471428Y-59400000D01*
X76528571Y-59428571D01*
X76557142Y-59457143D01*
X76585714Y-59514286D01*
X76585714Y-59657143D01*
X76557142Y-59714286D01*
X76528571Y-59742857D01*
X76471428Y-59771429D01*
X76300000Y-59771429D01*
X76242857Y-59742857D01*
X76214285Y-59714286D01*
X76814286Y-59228571D02*
X76842857Y-59200000D01*
X76900000Y-59171429D01*
X77042857Y-59171429D01*
X77100000Y-59200000D01*
X77128571Y-59228571D01*
X77157143Y-59285714D01*
X77157143Y-59342857D01*
X77128571Y-59428571D01*
X76785714Y-59771429D01*
X77157143Y-59771429D01*
X71214285Y-59414286D02*
X71185714Y-59442857D01*
X71100000Y-59471429D01*
X71042857Y-59471429D01*
X70957142Y-59442857D01*
X70900000Y-59385714D01*
X70871428Y-59328571D01*
X70842857Y-59214286D01*
X70842857Y-59128571D01*
X70871428Y-59014286D01*
X70900000Y-58957143D01*
X70957142Y-58900000D01*
X71042857Y-58871429D01*
X71100000Y-58871429D01*
X71185714Y-58900000D01*
X71214285Y-58928571D01*
X71414285Y-58871429D02*
X71785714Y-58871429D01*
X71585714Y-59100000D01*
X71671428Y-59100000D01*
X71728571Y-59128571D01*
X71757142Y-59157143D01*
X71785714Y-59214286D01*
X71785714Y-59357143D01*
X71757142Y-59414286D01*
X71728571Y-59442857D01*
X71671428Y-59471429D01*
X71500000Y-59471429D01*
X71442857Y-59442857D01*
X71414285Y-59414286D01*
X71985714Y-58871429D02*
X72357143Y-58871429D01*
X72157143Y-59100000D01*
X72242857Y-59100000D01*
X72300000Y-59128571D01*
X72328571Y-59157143D01*
X72357143Y-59214286D01*
X72357143Y-59357143D01*
X72328571Y-59414286D01*
X72300000Y-59442857D01*
X72242857Y-59471429D01*
X72071429Y-59471429D01*
X72014286Y-59442857D01*
X71985714Y-59414286D01*
X91457143Y-60471429D02*
X91457143Y-59871429D01*
X91600000Y-59871429D01*
X91685715Y-59900000D01*
X91742857Y-59957143D01*
X91771429Y-60014286D01*
X91800000Y-60128571D01*
X91800000Y-60214286D01*
X91771429Y-60328571D01*
X91742857Y-60385714D01*
X91685715Y-60442857D01*
X91600000Y-60471429D01*
X91457143Y-60471429D01*
X92028572Y-59928571D02*
X92057143Y-59900000D01*
X92114286Y-59871429D01*
X92257143Y-59871429D01*
X92314286Y-59900000D01*
X92342857Y-59928571D01*
X92371429Y-59985714D01*
X92371429Y-60042857D01*
X92342857Y-60128571D01*
X92000000Y-60471429D01*
X92371429Y-60471429D01*
X84000000Y-59771429D02*
X83714286Y-59771429D01*
X83714286Y-59171429D01*
X84457143Y-59371429D02*
X84457143Y-59771429D01*
X84314286Y-59142857D02*
X84171429Y-59571429D01*
X84542857Y-59571429D01*
D18*
X65415143Y-57279429D02*
X65415143Y-55755429D01*
X65995715Y-55755429D01*
X66140857Y-55828000D01*
X66213429Y-55900571D01*
X66286000Y-56045714D01*
X66286000Y-56263429D01*
X66213429Y-56408571D01*
X66140857Y-56481143D01*
X65995715Y-56553714D01*
X65415143Y-56553714D01*
X67737429Y-57279429D02*
X66866572Y-57279429D01*
X67302000Y-57279429D02*
X67302000Y-55755429D01*
X67156857Y-55973143D01*
X67011715Y-56118286D01*
X66866572Y-56190857D01*
X61306857Y-68239713D02*
X61379429Y-68021999D01*
X61379429Y-67659142D01*
X61306857Y-67513999D01*
X61234286Y-67441428D01*
X61089143Y-67368856D01*
X60944000Y-67368856D01*
X60798857Y-67441428D01*
X60726286Y-67513999D01*
X60653714Y-67659142D01*
X60581143Y-67949428D01*
X60508571Y-68094570D01*
X60436000Y-68167142D01*
X60290857Y-68239713D01*
X60145714Y-68239713D01*
X60000571Y-68167142D01*
X59928000Y-68094570D01*
X59855429Y-67949428D01*
X59855429Y-67586570D01*
X59928000Y-67368856D01*
X61379429Y-66715713D02*
X59855429Y-66715713D01*
X60944000Y-66207713D01*
X59855429Y-65699713D01*
X61379429Y-65699713D01*
X60944000Y-65046570D02*
X60944000Y-64320856D01*
X61379429Y-65191713D02*
X59855429Y-64683713D01*
X61379429Y-64175713D01*
X60798857Y-63667713D02*
X60798857Y-62506570D01*
X61234286Y-60909999D02*
X61306857Y-60982570D01*
X61379429Y-61200284D01*
X61379429Y-61345427D01*
X61306857Y-61563142D01*
X61161714Y-61708284D01*
X61016571Y-61780856D01*
X60726286Y-61853427D01*
X60508571Y-61853427D01*
X60218286Y-61780856D01*
X60073143Y-61708284D01*
X59928000Y-61563142D01*
X59855429Y-61345427D01*
X59855429Y-61200284D01*
X59928000Y-60982570D01*
X60000571Y-60909999D01*
X59855429Y-59966570D02*
X59855429Y-59676284D01*
X59928000Y-59531142D01*
X60073143Y-59385999D01*
X60363429Y-59313427D01*
X60871429Y-59313427D01*
X61161714Y-59385999D01*
X61306857Y-59531142D01*
X61379429Y-59676284D01*
X61379429Y-59966570D01*
X61306857Y-60111713D01*
X61161714Y-60256856D01*
X60871429Y-60329427D01*
X60363429Y-60329427D01*
X60073143Y-60256856D01*
X59928000Y-60111713D01*
X59855429Y-59966570D01*
X61379429Y-58660285D02*
X59855429Y-58660285D01*
X61379429Y-57789428D01*
X59855429Y-57789428D01*
X61379429Y-57063714D02*
X59855429Y-57063714D01*
X61379429Y-56192857D01*
X59855429Y-56192857D01*
D16*
X76748778Y-40025588D02*
X76748778Y-39725868D01*
X76862957Y-39725868D01*
X76891502Y-39740140D01*
X76905774Y-39754412D01*
X76920046Y-39782957D01*
X76920046Y-39825774D01*
X76905774Y-39854319D01*
X76891502Y-39868591D01*
X76862957Y-39882864D01*
X76748778Y-39882864D01*
X77034226Y-39754412D02*
X77048498Y-39740140D01*
X77077043Y-39725868D01*
X77148405Y-39725868D01*
X77176949Y-39740140D01*
X77191222Y-39754412D01*
X77205494Y-39782957D01*
X77205494Y-39811502D01*
X77191222Y-39854319D01*
X77019953Y-40025588D01*
X77205494Y-40025588D01*
D17*
D16*
X74821395Y-42249966D02*
X74835668Y-42221422D01*
X74835668Y-42164332D01*
X74821395Y-42135787D01*
X74792850Y-42121515D01*
X74778578Y-42121515D01*
X74750033Y-42135787D01*
X74735761Y-42164332D01*
X74735761Y-42207149D01*
X74721489Y-42235694D01*
X74692944Y-42249966D01*
X74678671Y-42249966D01*
X74650127Y-42235694D01*
X74635854Y-42207149D01*
X74635854Y-42164332D01*
X74650127Y-42135787D01*
X74835668Y-41993064D02*
X74635854Y-41993064D01*
X74664399Y-41993064D02*
X74650127Y-41978792D01*
X74635854Y-41950247D01*
X74635854Y-41907430D01*
X74650127Y-41878885D01*
X74678671Y-41864613D01*
X74835668Y-41864613D01*
X74678671Y-41864613D02*
X74650127Y-41850340D01*
X74635854Y-41821796D01*
X74635854Y-41778978D01*
X74650127Y-41750434D01*
X74678671Y-41736161D01*
X74835668Y-41736161D01*
X74835668Y-41464986D02*
X74678671Y-41464986D01*
X74650127Y-41479258D01*
X74635854Y-41507803D01*
X74635854Y-41564892D01*
X74650127Y-41593437D01*
X74821395Y-41464986D02*
X74835668Y-41493530D01*
X74835668Y-41564892D01*
X74821395Y-41593437D01*
X74792850Y-41607709D01*
X74764306Y-41607709D01*
X74735761Y-41593437D01*
X74721489Y-41564892D01*
X74721489Y-41493530D01*
X74707216Y-41464986D01*
D17*
D12*
X98921905Y-40412381D02*
X98921905Y-39412381D01*
X99302858Y-39412381D01*
X99398096Y-39460000D01*
X99445715Y-39507619D01*
X99493334Y-39602857D01*
X99493334Y-39745714D01*
X99445715Y-39840952D01*
X99398096Y-39888571D01*
X99302858Y-39936190D01*
X98921905Y-39936190D01*
X100350477Y-39745714D02*
X100350477Y-40412381D01*
X100112381Y-39364762D02*
X99874286Y-40079048D01*
X100493334Y-40079048D01*
X88991905Y-40442381D02*
X88991905Y-39442381D01*
X89372858Y-39442381D01*
X89468096Y-39490000D01*
X89515715Y-39537619D01*
X89563334Y-39632857D01*
X89563334Y-39775714D01*
X89515715Y-39870952D01*
X89468096Y-39918571D01*
X89372858Y-39966190D01*
X88991905Y-39966190D01*
X90468096Y-39442381D02*
X89991905Y-39442381D01*
X89944286Y-39918571D01*
X89991905Y-39870952D01*
X90087143Y-39823333D01*
X90325239Y-39823333D01*
X90420477Y-39870952D01*
X90468096Y-39918571D01*
X90515715Y-40013810D01*
X90515715Y-40251905D01*
X90468096Y-40347143D01*
X90420477Y-40394762D01*
X90325239Y-40442381D01*
X90087143Y-40442381D01*
X89991905Y-40394762D01*
X89944286Y-40347143D01*
X108371905Y-40362381D02*
X108371905Y-39362381D01*
X108752858Y-39362381D01*
X108848096Y-39410000D01*
X108895715Y-39457619D01*
X108943334Y-39552857D01*
X108943334Y-39695714D01*
X108895715Y-39790952D01*
X108848096Y-39838571D01*
X108752858Y-39886190D01*
X108371905Y-39886190D01*
X109800477Y-39362381D02*
X109610000Y-39362381D01*
X109514762Y-39410000D01*
X109467143Y-39457619D01*
X109371905Y-39600476D01*
X109324286Y-39790952D01*
X109324286Y-40171905D01*
X109371905Y-40267143D01*
X109419524Y-40314762D01*
X109514762Y-40362381D01*
X109705239Y-40362381D01*
X109800477Y-40314762D01*
X109848096Y-40267143D01*
X109895715Y-40171905D01*
X109895715Y-39933810D01*
X109848096Y-39838571D01*
X109800477Y-39790952D01*
X109705239Y-39743333D01*
X109514762Y-39743333D01*
X109419524Y-39790952D01*
X109371905Y-39838571D01*
X109324286Y-39933810D01*
X106210000Y-50041429D02*
X106010000Y-49755714D01*
X105867143Y-50041429D02*
X105867143Y-49441429D01*
X106095715Y-49441429D01*
X106152857Y-49470000D01*
X106181429Y-49498571D01*
X106210000Y-49555714D01*
X106210000Y-49641429D01*
X106181429Y-49698571D01*
X106152857Y-49727143D01*
X106095715Y-49755714D01*
X105867143Y-49755714D01*
X106781429Y-50041429D02*
X106438572Y-50041429D01*
X106610000Y-50041429D02*
X106610000Y-49441429D01*
X106552857Y-49527143D01*
X106495715Y-49584286D01*
X106438572Y-49612857D01*
X76400000Y-54671429D02*
X76200000Y-54385714D01*
X76057143Y-54671429D02*
X76057143Y-54071429D01*
X76285715Y-54071429D01*
X76342857Y-54100000D01*
X76371429Y-54128571D01*
X76400000Y-54185714D01*
X76400000Y-54271429D01*
X76371429Y-54328571D01*
X76342857Y-54357143D01*
X76285715Y-54385714D01*
X76057143Y-54385714D01*
X76628572Y-54128571D02*
X76657143Y-54100000D01*
X76714286Y-54071429D01*
X76857143Y-54071429D01*
X76914286Y-54100000D01*
X76942857Y-54128571D01*
X76971429Y-54185714D01*
X76971429Y-54242857D01*
X76942857Y-54328571D01*
X76600000Y-54671429D01*
X76971429Y-54671429D01*
X103861429Y-60750000D02*
X103575714Y-60950000D01*
X103861429Y-61092857D02*
X103261429Y-61092857D01*
X103261429Y-60864285D01*
X103290000Y-60807143D01*
X103318571Y-60778571D01*
X103375714Y-60750000D01*
X103461429Y-60750000D01*
X103518571Y-60778571D01*
X103547143Y-60807143D01*
X103575714Y-60864285D01*
X103575714Y-61092857D01*
X103261429Y-60235714D02*
X103261429Y-60350000D01*
X103290000Y-60407143D01*
X103318571Y-60435714D01*
X103404286Y-60492857D01*
X103518571Y-60521428D01*
X103747143Y-60521428D01*
X103804286Y-60492857D01*
X103832857Y-60464285D01*
X103861429Y-60407143D01*
X103861429Y-60292857D01*
X103832857Y-60235714D01*
X103804286Y-60207143D01*
X103747143Y-60178571D01*
X103604286Y-60178571D01*
X103547143Y-60207143D01*
X103518571Y-60235714D01*
X103490000Y-60292857D01*
X103490000Y-60407143D01*
X103518571Y-60464285D01*
X103547143Y-60492857D01*
X103604286Y-60521428D01*
X73200000Y-59371429D02*
X73000000Y-59085714D01*
X72857143Y-59371429D02*
X72857143Y-58771429D01*
X73085715Y-58771429D01*
X73142857Y-58800000D01*
X73171429Y-58828571D01*
X73200000Y-58885714D01*
X73200000Y-58971429D01*
X73171429Y-59028571D01*
X73142857Y-59057143D01*
X73085715Y-59085714D01*
X72857143Y-59085714D01*
X73485715Y-59371429D02*
X73600000Y-59371429D01*
X73657143Y-59342857D01*
X73685715Y-59314286D01*
X73742857Y-59228571D01*
X73771429Y-59114286D01*
X73771429Y-58885714D01*
X73742857Y-58828571D01*
X73714286Y-58800000D01*
X73657143Y-58771429D01*
X73542857Y-58771429D01*
X73485715Y-58800000D01*
X73457143Y-58828571D01*
X73428572Y-58885714D01*
X73428572Y-59028571D01*
X73457143Y-59085714D01*
X73485715Y-59114286D01*
X73542857Y-59142857D01*
X73657143Y-59142857D01*
X73714286Y-59114286D01*
X73742857Y-59085714D01*
X73771429Y-59028571D01*
X69414285Y-59171429D02*
X69214285Y-58885714D01*
X69071428Y-59171429D02*
X69071428Y-58571429D01*
X69300000Y-58571429D01*
X69357142Y-58600000D01*
X69385714Y-58628571D01*
X69414285Y-58685714D01*
X69414285Y-58771429D01*
X69385714Y-58828571D01*
X69357142Y-58857143D01*
X69300000Y-58885714D01*
X69071428Y-58885714D01*
X69985714Y-59171429D02*
X69642857Y-59171429D01*
X69814285Y-59171429D02*
X69814285Y-58571429D01*
X69757142Y-58657143D01*
X69700000Y-58714286D01*
X69642857Y-58742857D01*
X70357143Y-58571429D02*
X70414286Y-58571429D01*
X70471429Y-58600000D01*
X70500000Y-58628571D01*
X70528571Y-58685714D01*
X70557143Y-58800000D01*
X70557143Y-58942857D01*
X70528571Y-59057143D01*
X70500000Y-59114286D01*
X70471429Y-59142857D01*
X70414286Y-59171429D01*
X70357143Y-59171429D01*
X70300000Y-59142857D01*
X70271429Y-59114286D01*
X70242857Y-59057143D01*
X70214286Y-58942857D01*
X70214286Y-58800000D01*
X70242857Y-58685714D01*
X70271429Y-58628571D01*
X70300000Y-58600000D01*
X70357143Y-58571429D01*
X91614285Y-69871429D02*
X91414285Y-69585714D01*
X91271428Y-69871429D02*
X91271428Y-69271429D01*
X91500000Y-69271429D01*
X91557142Y-69300000D01*
X91585714Y-69328571D01*
X91614285Y-69385714D01*
X91614285Y-69471429D01*
X91585714Y-69528571D01*
X91557142Y-69557143D01*
X91500000Y-69585714D01*
X91271428Y-69585714D01*
X92185714Y-69871429D02*
X91842857Y-69871429D01*
X92014285Y-69871429D02*
X92014285Y-69271429D01*
X91957142Y-69357143D01*
X91900000Y-69414286D01*
X91842857Y-69442857D01*
X92757143Y-69871429D02*
X92414286Y-69871429D01*
X92585714Y-69871429D02*
X92585714Y-69271429D01*
X92528571Y-69357143D01*
X92471429Y-69414286D01*
X92414286Y-69442857D01*
X93614285Y-69871429D02*
X93414285Y-69585714D01*
X93271428Y-69871429D02*
X93271428Y-69271429D01*
X93500000Y-69271429D01*
X93557142Y-69300000D01*
X93585714Y-69328571D01*
X93614285Y-69385714D01*
X93614285Y-69471429D01*
X93585714Y-69528571D01*
X93557142Y-69557143D01*
X93500000Y-69585714D01*
X93271428Y-69585714D01*
X94185714Y-69871429D02*
X93842857Y-69871429D01*
X94014285Y-69871429D02*
X94014285Y-69271429D01*
X93957142Y-69357143D01*
X93900000Y-69414286D01*
X93842857Y-69442857D01*
X94414286Y-69328571D02*
X94442857Y-69300000D01*
X94500000Y-69271429D01*
X94642857Y-69271429D01*
X94700000Y-69300000D01*
X94728571Y-69328571D01*
X94757143Y-69385714D01*
X94757143Y-69442857D01*
X94728571Y-69528571D01*
X94385714Y-69871429D01*
X94757143Y-69871429D01*
X95614285Y-69871429D02*
X95414285Y-69585714D01*
X95271428Y-69871429D02*
X95271428Y-69271429D01*
X95500000Y-69271429D01*
X95557142Y-69300000D01*
X95585714Y-69328571D01*
X95614285Y-69385714D01*
X95614285Y-69471429D01*
X95585714Y-69528571D01*
X95557142Y-69557143D01*
X95500000Y-69585714D01*
X95271428Y-69585714D01*
X96185714Y-69871429D02*
X95842857Y-69871429D01*
X96014285Y-69871429D02*
X96014285Y-69271429D01*
X95957142Y-69357143D01*
X95900000Y-69414286D01*
X95842857Y-69442857D01*
X96385714Y-69271429D02*
X96757143Y-69271429D01*
X96557143Y-69500000D01*
X96642857Y-69500000D01*
X96700000Y-69528571D01*
X96728571Y-69557143D01*
X96757143Y-69614286D01*
X96757143Y-69757143D01*
X96728571Y-69814286D01*
X96700000Y-69842857D01*
X96642857Y-69871429D01*
X96471429Y-69871429D01*
X96414286Y-69842857D01*
X96385714Y-69814286D01*
X97614285Y-69871429D02*
X97414285Y-69585714D01*
X97271428Y-69871429D02*
X97271428Y-69271429D01*
X97500000Y-69271429D01*
X97557142Y-69300000D01*
X97585714Y-69328571D01*
X97614285Y-69385714D01*
X97614285Y-69471429D01*
X97585714Y-69528571D01*
X97557142Y-69557143D01*
X97500000Y-69585714D01*
X97271428Y-69585714D01*
X98185714Y-69871429D02*
X97842857Y-69871429D01*
X98014285Y-69871429D02*
X98014285Y-69271429D01*
X97957142Y-69357143D01*
X97900000Y-69414286D01*
X97842857Y-69442857D01*
X98700000Y-69471429D02*
X98700000Y-69871429D01*
X98557143Y-69242857D02*
X98414286Y-69671429D01*
X98785714Y-69671429D01*
X108552857Y-53740000D02*
X108581429Y-53654286D01*
X108581429Y-53511429D01*
X108552857Y-53454286D01*
X108524286Y-53425715D01*
X108467143Y-53397143D01*
X108410000Y-53397143D01*
X108352857Y-53425715D01*
X108324286Y-53454286D01*
X108295714Y-53511429D01*
X108267143Y-53625715D01*
X108238571Y-53682857D01*
X108210000Y-53711429D01*
X108152857Y-53740000D01*
X108095714Y-53740000D01*
X108038571Y-53711429D01*
X108010000Y-53682857D01*
X107981429Y-53625715D01*
X107981429Y-53482857D01*
X108010000Y-53397143D01*
X107981429Y-53197143D02*
X108581429Y-53054286D01*
X108152857Y-52940000D01*
X108581429Y-52825714D01*
X107981429Y-52682857D01*
X108581429Y-52140000D02*
X108581429Y-52482857D01*
X108581429Y-52311429D02*
X107981429Y-52311429D01*
X108067143Y-52368572D01*
X108124286Y-52425714D01*
X108152857Y-52482857D01*
D16*
X65368778Y-41425588D02*
X65368778Y-41125868D01*
X65482957Y-41125868D01*
X65511502Y-41140140D01*
X65525774Y-41154412D01*
X65540046Y-41182957D01*
X65540046Y-41225774D01*
X65525774Y-41254319D01*
X65511502Y-41268591D01*
X65482957Y-41282864D01*
X65368778Y-41282864D01*
X65639953Y-41125868D02*
X65839766Y-41125868D01*
X65711315Y-41425588D01*
D17*
D16*
X65322455Y-43449966D02*
X65336728Y-43421422D01*
X65336728Y-43364332D01*
X65322455Y-43335787D01*
X65293910Y-43321515D01*
X65279638Y-43321515D01*
X65251093Y-43335787D01*
X65236821Y-43364332D01*
X65236821Y-43407149D01*
X65222549Y-43435694D01*
X65194004Y-43449966D01*
X65179731Y-43449966D01*
X65151187Y-43435694D01*
X65136914Y-43407149D01*
X65136914Y-43364332D01*
X65151187Y-43335787D01*
X65336728Y-43193064D02*
X65136914Y-43193064D01*
X65165459Y-43193064D02*
X65151187Y-43178792D01*
X65136914Y-43150247D01*
X65136914Y-43107430D01*
X65151187Y-43078885D01*
X65179731Y-43064613D01*
X65336728Y-43064613D01*
X65179731Y-43064613D02*
X65151187Y-43050340D01*
X65136914Y-43021796D01*
X65136914Y-42978978D01*
X65151187Y-42950434D01*
X65179731Y-42936161D01*
X65336728Y-42936161D01*
X65336728Y-42664986D02*
X65179731Y-42664986D01*
X65151187Y-42679258D01*
X65136914Y-42707803D01*
X65136914Y-42764892D01*
X65151187Y-42793437D01*
X65322455Y-42664986D02*
X65336728Y-42693530D01*
X65336728Y-42764892D01*
X65322455Y-42793437D01*
X65293910Y-42807709D01*
X65265366Y-42807709D01*
X65236821Y-42793437D01*
X65222549Y-42764892D01*
X65222549Y-42693530D01*
X65208276Y-42664986D01*
D17*
D12*
X93557143Y-60471429D02*
X93557143Y-59871429D01*
X93700000Y-59871429D01*
X93785715Y-59900000D01*
X93842857Y-59957143D01*
X93871429Y-60014286D01*
X93900000Y-60128571D01*
X93900000Y-60214286D01*
X93871429Y-60328571D01*
X93842857Y-60385714D01*
X93785715Y-60442857D01*
X93700000Y-60471429D01*
X93557143Y-60471429D01*
X94100000Y-59871429D02*
X94471429Y-59871429D01*
X94271429Y-60100000D01*
X94357143Y-60100000D01*
X94414286Y-60128571D01*
X94442857Y-60157143D01*
X94471429Y-60214286D01*
X94471429Y-60357143D01*
X94442857Y-60414286D01*
X94414286Y-60442857D01*
X94357143Y-60471429D01*
X94185715Y-60471429D01*
X94128572Y-60442857D01*
X94100000Y-60414286D01*
X95557143Y-60471429D02*
X95557143Y-59871429D01*
X95700000Y-59871429D01*
X95785715Y-59900000D01*
X95842857Y-59957143D01*
X95871429Y-60014286D01*
X95900000Y-60128571D01*
X95900000Y-60214286D01*
X95871429Y-60328571D01*
X95842857Y-60385714D01*
X95785715Y-60442857D01*
X95700000Y-60471429D01*
X95557143Y-60471429D01*
X96414286Y-60071429D02*
X96414286Y-60471429D01*
X96271429Y-59842857D02*
X96128572Y-60271429D01*
X96500000Y-60271429D01*
X97587143Y-60471429D02*
X97587143Y-59871429D01*
X97730000Y-59871429D01*
X97815715Y-59900000D01*
X97872857Y-59957143D01*
X97901429Y-60014286D01*
X97930000Y-60128571D01*
X97930000Y-60214286D01*
X97901429Y-60328571D01*
X97872857Y-60385714D01*
X97815715Y-60442857D01*
X97730000Y-60471429D01*
X97587143Y-60471429D01*
X98472857Y-59871429D02*
X98187143Y-59871429D01*
X98158572Y-60157143D01*
X98187143Y-60128571D01*
X98244286Y-60100000D01*
X98387143Y-60100000D01*
X98444286Y-60128571D01*
X98472857Y-60157143D01*
X98501429Y-60214286D01*
X98501429Y-60357143D01*
X98472857Y-60414286D01*
X98444286Y-60442857D01*
X98387143Y-60471429D01*
X98244286Y-60471429D01*
X98187143Y-60442857D01*
X98158572Y-60414286D01*
X79757143Y-66371429D02*
X79757143Y-65771429D01*
X79900000Y-65771429D01*
X79985715Y-65800000D01*
X80042857Y-65857143D01*
X80071429Y-65914286D01*
X80100000Y-66028571D01*
X80100000Y-66114286D01*
X80071429Y-66228571D01*
X80042857Y-66285714D01*
X79985715Y-66342857D01*
X79900000Y-66371429D01*
X79757143Y-66371429D01*
X80614286Y-65771429D02*
X80500000Y-65771429D01*
X80442857Y-65800000D01*
X80414286Y-65828571D01*
X80357143Y-65914286D01*
X80328572Y-66028571D01*
X80328572Y-66257143D01*
X80357143Y-66314286D01*
X80385715Y-66342857D01*
X80442857Y-66371429D01*
X80557143Y-66371429D01*
X80614286Y-66342857D01*
X80642857Y-66314286D01*
X80671429Y-66257143D01*
X80671429Y-66114286D01*
X80642857Y-66057143D01*
X80614286Y-66028571D01*
X80557143Y-66000000D01*
X80442857Y-66000000D01*
X80385715Y-66028571D01*
X80357143Y-66057143D01*
X80328572Y-66114286D01*
X76514285Y-71171429D02*
X76314285Y-70885714D01*
X76171428Y-71171429D02*
X76171428Y-70571429D01*
X76400000Y-70571429D01*
X76457142Y-70600000D01*
X76485714Y-70628571D01*
X76514285Y-70685714D01*
X76514285Y-70771429D01*
X76485714Y-70828571D01*
X76457142Y-70857143D01*
X76400000Y-70885714D01*
X76171428Y-70885714D01*
X77085714Y-71171429D02*
X76742857Y-71171429D01*
X76914285Y-71171429D02*
X76914285Y-70571429D01*
X76857142Y-70657143D01*
X76800000Y-70714286D01*
X76742857Y-70742857D01*
X77628571Y-70571429D02*
X77342857Y-70571429D01*
X77314286Y-70857143D01*
X77342857Y-70828571D01*
X77400000Y-70800000D01*
X77542857Y-70800000D01*
X77600000Y-70828571D01*
X77628571Y-70857143D01*
X77657143Y-70914286D01*
X77657143Y-71057143D01*
X77628571Y-71114286D01*
X77600000Y-71142857D01*
X77542857Y-71171429D01*
X77400000Y-71171429D01*
X77342857Y-71142857D01*
X77314286Y-71114286D01*
X85118095Y-67252381D02*
X85118095Y-68061905D01*
X85165714Y-68157143D01*
X85213333Y-68204762D01*
X85308571Y-68252381D01*
X85499048Y-68252381D01*
X85594286Y-68204762D01*
X85641905Y-68157143D01*
X85689524Y-68061905D01*
X85689524Y-67252381D01*
X86641905Y-67252381D02*
X86165714Y-67252381D01*
X86118095Y-67728571D01*
X86165714Y-67680952D01*
X86260952Y-67633333D01*
X86499048Y-67633333D01*
X86594286Y-67680952D01*
X86641905Y-67728571D01*
X86689524Y-67823810D01*
X86689524Y-68061905D01*
X86641905Y-68157143D01*
X86594286Y-68204762D01*
X86499048Y-68252381D01*
X86260952Y-68252381D01*
X86165714Y-68204762D01*
X86118095Y-68157143D01*
X105736667Y-68082381D02*
X105736667Y-68796667D01*
X105689047Y-68939524D01*
X105593809Y-69034762D01*
X105450952Y-69082381D01*
X105355714Y-69082381D01*
X106736667Y-69082381D02*
X106165238Y-69082381D01*
X106450952Y-69082381D02*
X106450952Y-68082381D01*
X106355714Y-68225238D01*
X106260476Y-68320476D01*
X106165238Y-68368095D01*
X83184286Y-41995714D02*
X83184286Y-42281429D01*
X82984286Y-41681429D02*
X83184286Y-41995714D01*
X83384286Y-41681429D01*
X83898572Y-42281429D02*
X83555715Y-42281429D01*
X83727143Y-42281429D02*
X83727143Y-41681429D01*
X83670000Y-41767143D01*
X83612858Y-41824286D01*
X83555715Y-41852857D01*
X80700000Y-65057143D02*
X80500000Y-65057143D01*
X80500000Y-65371429D02*
X80500000Y-64771429D01*
X80785714Y-64771429D01*
X81328572Y-65371429D02*
X80985715Y-65371429D01*
X81157143Y-65371429D02*
X81157143Y-64771429D01*
X81100000Y-64857143D01*
X81042858Y-64914286D01*
X80985715Y-64942857D01*
X80725000Y-62957143D02*
X80525000Y-62957143D01*
X80525000Y-63271429D02*
X80525000Y-62671429D01*
X80810714Y-62671429D01*
X81010715Y-62728571D02*
X81039286Y-62700000D01*
X81096429Y-62671429D01*
X81239286Y-62671429D01*
X81296429Y-62700000D01*
X81325000Y-62728571D01*
X81353572Y-62785714D01*
X81353572Y-62842857D01*
X81325000Y-62928571D01*
X80982143Y-63271429D01*
X81353572Y-63271429D01*
X67770000Y-49287143D02*
X67570000Y-49287143D01*
X67570000Y-49601429D02*
X67570000Y-49001429D01*
X67855714Y-49001429D01*
X68027143Y-49001429D02*
X68398572Y-49001429D01*
X68198572Y-49230000D01*
X68284286Y-49230000D01*
X68341429Y-49258571D01*
X68370000Y-49287143D01*
X68398572Y-49344286D01*
X68398572Y-49487143D01*
X68370000Y-49544286D01*
X68341429Y-49572857D01*
X68284286Y-49601429D01*
X68112858Y-49601429D01*
X68055715Y-49572857D01*
X68027143Y-49544286D01*
D19*
X70246667Y-49666190D02*
X70008572Y-49666190D01*
X70008572Y-49166190D01*
X70389524Y-49213810D02*
X70413334Y-49190000D01*
X70460953Y-49166190D01*
X70580000Y-49166190D01*
X70627619Y-49190000D01*
X70651429Y-49213810D01*
X70675238Y-49261429D01*
X70675238Y-49309048D01*
X70651429Y-49380476D01*
X70365715Y-49666190D01*
X70675238Y-49666190D01*
D12*
X76328095Y-65387381D02*
X76328095Y-66196905D01*
X76375714Y-66292143D01*
X76423333Y-66339762D01*
X76518571Y-66387381D01*
X76709048Y-66387381D01*
X76804286Y-66339762D01*
X76851905Y-66292143D01*
X76899524Y-66196905D01*
X76899524Y-65387381D01*
X77804286Y-65720714D02*
X77804286Y-66387381D01*
X77566190Y-65339762D02*
X77328095Y-66054048D01*
X77947143Y-66054048D01*
M02*
