G04 #@! TF.FileFunction,Copper,L3,Inr,Signal*
%FSLAX46Y46*%
G04 Gerber Fmt 4.6, Leading zero omitted, Abs format (unit mm)*
G04 Created by KiCad (PCBNEW 4.0.4-stable) date 05/18/17 09:07:34*
%MOMM*%
%LPD*%
G01*
G04 APERTURE LIST*
%ADD10C,0.100000*%
%ADD11C,0.300000*%
%ADD12R,2.032000X2.032000*%
%ADD13O,2.032000X2.032000*%
%ADD14R,1.727200X2.032000*%
%ADD15O,1.727200X2.032000*%
%ADD16R,1.727200X1.727200*%
%ADD17O,1.727200X1.727200*%
%ADD18C,0.600000*%
%ADD19C,0.250000*%
%ADD20C,0.500000*%
%ADD21C,0.254000*%
G04 APERTURE END LIST*
D10*
D11*
X64135714Y-43378571D02*
X64135714Y-41878571D01*
X64707142Y-41878571D01*
X64850000Y-41950000D01*
X64921428Y-42021429D01*
X64992857Y-42164286D01*
X64992857Y-42378571D01*
X64921428Y-42521429D01*
X64850000Y-42592857D01*
X64707142Y-42664286D01*
X64135714Y-42664286D01*
X65921428Y-41878571D02*
X66207142Y-41878571D01*
X66350000Y-41950000D01*
X66492857Y-42092857D01*
X66564285Y-42378571D01*
X66564285Y-42878571D01*
X66492857Y-43164286D01*
X66350000Y-43307143D01*
X66207142Y-43378571D01*
X65921428Y-43378571D01*
X65778571Y-43307143D01*
X65635714Y-43164286D01*
X65564285Y-42878571D01*
X65564285Y-42378571D01*
X65635714Y-42092857D01*
X65778571Y-41950000D01*
X65921428Y-41878571D01*
X67064286Y-41878571D02*
X67421429Y-43378571D01*
X67707143Y-42307143D01*
X67992857Y-43378571D01*
X68350000Y-41878571D01*
X68921429Y-42592857D02*
X69421429Y-42592857D01*
X69635715Y-43378571D02*
X68921429Y-43378571D01*
X68921429Y-41878571D01*
X69635715Y-41878571D01*
X71135715Y-43378571D02*
X70635715Y-42664286D01*
X70278572Y-43378571D02*
X70278572Y-41878571D01*
X70850000Y-41878571D01*
X70992858Y-41950000D01*
X71064286Y-42021429D01*
X71135715Y-42164286D01*
X71135715Y-42378571D01*
X71064286Y-42521429D01*
X70992858Y-42592857D01*
X70850000Y-42664286D01*
X70278572Y-42664286D01*
D12*
X65900000Y-66900000D03*
D13*
X65900000Y-64360000D03*
D14*
X104180000Y-42200000D03*
D15*
X101640000Y-42200000D03*
X99100000Y-42200000D03*
D14*
X95480000Y-42200000D03*
D15*
X92940000Y-42200000D03*
X90400000Y-42200000D03*
D16*
X107800000Y-42200000D03*
D17*
X110340000Y-42200000D03*
X107800000Y-44740000D03*
X110340000Y-44740000D03*
X107800000Y-47280000D03*
X110340000Y-47280000D03*
D18*
X84200000Y-43600000D03*
X84900000Y-44200000D03*
X84970000Y-43210000D03*
X90500000Y-47470000D03*
X80340000Y-40480000D03*
X71800000Y-44700000D03*
X105700000Y-48000000D03*
X105700000Y-46800000D03*
X109000000Y-39800000D03*
X106400000Y-39800000D03*
X98400000Y-39800000D03*
X103046000Y-39800000D03*
X88800000Y-42100000D03*
X90500000Y-46600000D03*
X94000000Y-39800000D03*
X92000000Y-39900000D03*
X90300000Y-39900000D03*
X88800000Y-40200000D03*
X69400000Y-46400000D03*
X77600000Y-40300000D03*
X67400000Y-40400000D03*
X72500000Y-40300000D03*
X69300000Y-44700000D03*
X109700000Y-57700000D03*
X108425000Y-57600000D03*
X108400000Y-59100000D03*
X109700000Y-59100000D03*
X110900000Y-59100000D03*
X110900000Y-57800000D03*
X110900000Y-56400000D03*
X109700000Y-56400000D03*
X108500000Y-56400000D03*
X100000000Y-63400000D03*
X100000000Y-62100000D03*
X100000000Y-60900000D03*
X100000000Y-59800000D03*
X108500000Y-66500000D03*
X106700000Y-67300000D03*
X106700000Y-68800000D03*
X106700000Y-70200000D03*
X107800000Y-71800000D03*
X106300000Y-71800000D03*
X104900000Y-71800000D03*
X97500000Y-71400000D03*
X96400000Y-71400000D03*
X95200000Y-71400000D03*
X94000000Y-71400000D03*
X92800000Y-71400000D03*
X89100000Y-55500000D03*
X82900000Y-59300000D03*
X83900000Y-59300000D03*
X78725000Y-61900000D03*
X77100000Y-62300000D03*
X77100000Y-63900000D03*
X88900000Y-63700000D03*
X90600000Y-63700000D03*
X87200000Y-63700000D03*
X78300000Y-68000000D03*
X74400000Y-59000000D03*
X75500000Y-59200000D03*
X79500000Y-59200000D03*
X78000000Y-59100000D03*
X71800000Y-57500000D03*
X70600000Y-57500000D03*
X84656250Y-51133750D03*
X85943750Y-51133750D03*
X85943750Y-49846250D03*
X84656250Y-49846250D03*
X67200000Y-48900000D03*
X99100000Y-53500000D03*
X98300000Y-52700000D03*
X97600000Y-52000000D03*
X96800000Y-51200000D03*
X96200000Y-51800000D03*
X99700000Y-51100000D03*
X99000000Y-50600000D03*
X98230000Y-49870000D03*
X97600000Y-47100000D03*
X97600000Y-48100000D03*
X97530000Y-49190000D03*
X67900000Y-53700000D03*
X72700000Y-52700000D03*
X70400000Y-48900000D03*
X71700000Y-50000000D03*
X70400000Y-50000000D03*
X69000000Y-48900000D03*
X67600000Y-52700000D03*
X66600000Y-52700000D03*
X64200000Y-52700000D03*
X65000000Y-52700000D03*
X66600000Y-50100000D03*
X65200000Y-50100000D03*
X64200000Y-50100000D03*
X96000000Y-52600000D03*
X74700000Y-45325000D03*
X65100000Y-58000000D03*
X64100000Y-58000000D03*
X65900000Y-58000000D03*
X67500000Y-58000000D03*
X65900000Y-59300000D03*
X65900000Y-61400000D03*
X67300000Y-46950000D03*
X66550000Y-46950000D03*
X65300000Y-46950000D03*
X63880000Y-47000000D03*
X75580000Y-51620000D03*
X77000000Y-50300000D03*
X75545000Y-50320000D03*
X76960000Y-51560000D03*
X76240000Y-50940000D03*
X72000000Y-53200000D03*
X70600000Y-53800000D03*
X69000000Y-53800000D03*
X67900000Y-55100000D03*
X64100000Y-55900000D03*
X67000000Y-55900000D03*
X66000000Y-55900000D03*
X65100000Y-55900000D03*
X101440000Y-55580000D03*
X108000000Y-53300000D03*
X102200000Y-48200000D03*
X95500000Y-47400000D03*
X71300000Y-59200000D03*
X89100000Y-54199999D03*
X80625000Y-62700000D03*
X72800000Y-49700000D03*
X78000000Y-54300000D03*
X74200000Y-55600000D03*
X74200000Y-48200000D03*
X81200000Y-56100000D03*
X81200000Y-59100000D03*
X82500000Y-45300000D03*
X85900000Y-48200000D03*
X85700000Y-53000000D03*
X84200000Y-52700000D03*
X81400000Y-63300000D03*
X88100000Y-52700000D03*
X80000000Y-47900000D03*
X83100000Y-52700000D03*
X84600000Y-48200000D03*
X82050000Y-56700000D03*
X82050000Y-62450000D03*
X84300000Y-67390000D03*
X88040000Y-64810000D03*
X101500000Y-58700000D03*
X103400000Y-46700000D03*
X94645863Y-55654137D03*
X94645863Y-47202849D03*
X92800000Y-56300000D03*
X91400000Y-59700000D03*
X102800000Y-54200000D03*
X75800000Y-68400000D03*
X105000000Y-70300000D03*
X95566000Y-55664000D03*
X76700000Y-47400000D03*
X83300000Y-45700000D03*
X105990000Y-58400000D03*
X104400000Y-58000000D03*
X91400000Y-53500000D03*
X96366003Y-55664000D03*
X75900000Y-47400000D03*
X91600000Y-56500000D03*
X86100000Y-56500000D03*
X101580000Y-53220000D03*
X87040000Y-67400000D03*
X101130000Y-52350000D03*
X83990000Y-66180000D03*
X100360000Y-51710000D03*
X84680000Y-65070000D03*
X83000000Y-48200000D03*
X77400000Y-43100000D03*
X72900000Y-43400000D03*
X83000000Y-49200000D03*
X84380000Y-64090000D03*
X97330000Y-55690000D03*
D19*
X71300000Y-59200000D02*
X72500000Y-60400000D01*
X80625000Y-61825000D02*
X79200000Y-60400000D01*
X79200000Y-60400000D02*
X72500000Y-60400000D01*
X80625000Y-62700000D02*
X80625000Y-61825000D01*
X76500000Y-48200000D02*
X81200000Y-52900000D01*
X81200000Y-52900000D02*
X81200000Y-53574998D01*
X74200000Y-48200000D02*
X76500000Y-48200000D01*
X81200000Y-56100000D02*
X80200000Y-56100000D01*
X74200000Y-55600000D02*
X74624264Y-55600000D01*
X80200000Y-56100000D02*
X79800000Y-56100000D01*
X74624264Y-55600000D02*
X75124264Y-56100000D01*
X75124264Y-56100000D02*
X80200000Y-56100000D01*
X74200000Y-48200000D02*
X74200000Y-48300000D01*
X74200000Y-48300000D02*
X72800000Y-49700000D01*
X79800000Y-56100000D02*
X78000000Y-54300000D01*
X81200000Y-56100000D02*
X81200000Y-53574998D01*
X81200000Y-59100000D02*
X81200000Y-56100000D01*
X83600000Y-49700000D02*
X84600000Y-48700000D01*
X84600000Y-48700000D02*
X84600000Y-48200000D01*
X83600000Y-50000000D02*
X83600000Y-49700000D01*
X82339998Y-51260002D02*
X83600000Y-50000000D01*
X82050000Y-51260002D02*
X82339998Y-51260002D01*
D20*
X80000000Y-47900000D02*
X80000000Y-47800000D01*
X80000000Y-47800000D02*
X82500000Y-45300000D01*
X82050000Y-51200000D02*
X82050000Y-49950000D01*
X82050000Y-49950000D02*
X80000000Y-47900000D01*
X85900000Y-48200000D02*
X84600000Y-48200000D01*
X82050000Y-56700000D02*
X82050000Y-51260002D01*
X88100000Y-52700000D02*
X84200000Y-52700000D01*
X83100000Y-52700000D02*
X85400000Y-52700000D01*
X85400000Y-52700000D02*
X85700000Y-53000000D01*
X82050000Y-56700000D02*
X82050000Y-53750000D01*
X82050000Y-53750000D02*
X83100000Y-52700000D01*
X82050000Y-62450000D02*
X82050000Y-62650000D01*
X82050000Y-62650000D02*
X81400000Y-63300000D01*
D19*
X85700000Y-52700000D02*
X88100000Y-52700000D01*
X84200000Y-52700000D02*
X85700000Y-52700000D01*
X85700000Y-52700000D02*
X85700000Y-53000000D01*
X83100000Y-52700000D02*
X84200000Y-52700000D01*
D20*
X82050000Y-62450000D02*
X82050000Y-56700000D01*
D19*
X82050000Y-53400000D02*
X82050000Y-51200000D01*
X82050000Y-55950000D02*
X82050000Y-53400000D01*
X82050000Y-53400000D02*
X82400000Y-53400000D01*
X82400000Y-53400000D02*
X83100000Y-52700000D01*
X82050000Y-56700000D02*
X82050000Y-55950000D01*
X92600000Y-63800000D02*
X92600000Y-60900000D01*
X92600000Y-60900000D02*
X91400000Y-59700000D01*
X91590000Y-64810000D02*
X92600000Y-63800000D01*
X88040000Y-64810000D02*
X91590000Y-64810000D01*
D20*
X94645863Y-55654137D02*
X94645863Y-47202849D01*
X92800000Y-56300000D02*
X94000000Y-56300000D01*
X94000000Y-56300000D02*
X94645863Y-55654137D01*
X91400000Y-59700000D02*
X92800000Y-58300000D01*
X92800000Y-58300000D02*
X92800000Y-56300000D01*
X88040000Y-64810000D02*
X86880000Y-64810000D01*
X86880000Y-64810000D02*
X84300000Y-67390000D01*
D19*
X108913600Y-42200000D02*
X109270000Y-42200000D01*
X109270000Y-42200000D02*
X110340000Y-42200000D01*
X107800000Y-42200000D02*
X109270000Y-42200000D01*
X94645863Y-54394000D02*
X94645863Y-54140000D01*
X94705863Y-54200000D02*
X94645863Y-54140000D01*
X94645863Y-54140000D02*
X94645863Y-47202849D01*
X102800000Y-54200000D02*
X94705863Y-54200000D01*
X94645863Y-55654137D02*
X94645863Y-54394000D01*
X102800000Y-54200000D02*
X102800000Y-57400000D01*
X102800000Y-57400000D02*
X101500000Y-58700000D01*
X103400000Y-46700000D02*
X107800000Y-42300000D01*
X103400000Y-53600000D02*
X103400000Y-46700000D01*
X102800000Y-54200000D02*
X103400000Y-53600000D01*
D21*
G36*
X108107029Y-40087277D02*
X108206883Y-40328943D01*
X108469673Y-40592192D01*
X108813201Y-40734838D01*
X109185167Y-40735162D01*
X109528943Y-40593117D01*
X109792192Y-40330327D01*
X109857154Y-40173881D01*
X110148776Y-40188312D01*
X110206883Y-40328943D01*
X110469673Y-40592192D01*
X110813201Y-40734838D01*
X111185167Y-40735162D01*
X111375137Y-40656668D01*
X111671857Y-41100740D01*
X111879243Y-42138609D01*
X111890000Y-42164515D01*
X111890000Y-42294705D01*
X111118735Y-43297350D01*
X110961877Y-43368189D01*
X110942848Y-43355474D01*
X110369359Y-43241400D01*
X110310641Y-43241400D01*
X109737152Y-43355474D01*
X109250971Y-43680330D01*
X109070000Y-43951172D01*
X108889029Y-43680330D01*
X108402848Y-43355474D01*
X107829359Y-43241400D01*
X107770641Y-43241400D01*
X107197152Y-43355474D01*
X106710971Y-43680330D01*
X106386115Y-44166511D01*
X106272041Y-44740000D01*
X106386115Y-45313489D01*
X106710971Y-45799670D01*
X107025752Y-46010000D01*
X106710971Y-46220330D01*
X106563408Y-46441174D01*
X106493117Y-46271057D01*
X106230327Y-46007808D01*
X105886799Y-45865162D01*
X105514833Y-45864838D01*
X105171057Y-46006883D01*
X104907808Y-46269673D01*
X104765162Y-46613201D01*
X104764838Y-46985167D01*
X104906883Y-47328943D01*
X104977710Y-47399893D01*
X104907808Y-47469673D01*
X104765162Y-47813201D01*
X104764838Y-48185167D01*
X104906883Y-48528943D01*
X105169673Y-48792192D01*
X105513201Y-48934838D01*
X105885167Y-48935162D01*
X106228943Y-48793117D01*
X106391267Y-48631076D01*
X106776432Y-49632505D01*
X107237447Y-52740086D01*
X107207808Y-52769673D01*
X107065162Y-53113201D01*
X107064838Y-53485167D01*
X107206883Y-53828943D01*
X107432511Y-54054965D01*
X107576663Y-55026655D01*
X105756334Y-57484877D01*
X105461057Y-57606883D01*
X105311094Y-57756584D01*
X105193117Y-57471057D01*
X104930327Y-57207808D01*
X104586799Y-57065162D01*
X104214833Y-57064838D01*
X103871057Y-57206883D01*
X103607808Y-57469673D01*
X103465162Y-57813201D01*
X103464838Y-58185167D01*
X103606883Y-58528943D01*
X103869673Y-58792192D01*
X104213201Y-58934838D01*
X104585167Y-58935162D01*
X104725251Y-58877281D01*
X104123123Y-59690411D01*
X100908387Y-60650033D01*
X100793117Y-60371057D01*
X100772290Y-60350194D01*
X100792192Y-60330327D01*
X100934838Y-59986799D01*
X100935162Y-59614833D01*
X100793117Y-59271057D01*
X100530327Y-59007808D01*
X100186799Y-58865162D01*
X99814833Y-58864838D01*
X99471057Y-59006883D01*
X99207808Y-59269673D01*
X99065162Y-59613201D01*
X99064838Y-59985167D01*
X99206883Y-60328943D01*
X99227710Y-60349806D01*
X99207808Y-60369673D01*
X99065162Y-60713201D01*
X99064838Y-61085167D01*
X99107204Y-61187700D01*
X97463673Y-61678306D01*
X97446683Y-61684734D01*
X95176683Y-62734734D01*
X95144534Y-62756061D01*
X88735163Y-68587293D01*
X84980424Y-69773000D01*
X78520140Y-69773000D01*
X78473593Y-68935152D01*
X78485167Y-68935162D01*
X78828943Y-68793117D01*
X79092192Y-68530327D01*
X79234838Y-68186799D01*
X79235162Y-67814833D01*
X79200753Y-67731557D01*
X79456935Y-67585167D01*
X86104838Y-67585167D01*
X86246883Y-67928943D01*
X86509673Y-68192192D01*
X86853201Y-68334838D01*
X87225167Y-68335162D01*
X87568943Y-68193117D01*
X87832192Y-67930327D01*
X87974838Y-67586799D01*
X87975162Y-67214833D01*
X87833117Y-66871057D01*
X87570327Y-66607808D01*
X87226799Y-66465162D01*
X86854833Y-66464838D01*
X86511057Y-66606883D01*
X86247808Y-66869673D01*
X86105162Y-67213201D01*
X86104838Y-67585167D01*
X79456935Y-67585167D01*
X82563010Y-65810267D01*
X82577433Y-65800663D01*
X83745145Y-64902423D01*
X83744838Y-65255167D01*
X83749942Y-65267519D01*
X83461057Y-65386883D01*
X83197808Y-65649673D01*
X83055162Y-65993201D01*
X83054838Y-66365167D01*
X83196883Y-66708943D01*
X83459673Y-66972192D01*
X83803201Y-67114838D01*
X84175167Y-67115162D01*
X84518943Y-66973117D01*
X84782192Y-66710327D01*
X84924838Y-66366799D01*
X84925162Y-65994833D01*
X84920058Y-65982481D01*
X85208943Y-65863117D01*
X85472192Y-65600327D01*
X85614838Y-65256799D01*
X85615162Y-64884833D01*
X85473117Y-64541057D01*
X85283840Y-64351450D01*
X85314838Y-64276799D01*
X85315162Y-63904833D01*
X85307037Y-63885167D01*
X86264838Y-63885167D01*
X86406883Y-64228943D01*
X86669673Y-64492192D01*
X87013201Y-64634838D01*
X87385167Y-64635162D01*
X87728943Y-64493117D01*
X87992192Y-64230327D01*
X88049966Y-64091193D01*
X88106883Y-64228943D01*
X88369673Y-64492192D01*
X88713201Y-64634838D01*
X89085167Y-64635162D01*
X89428943Y-64493117D01*
X89692192Y-64230327D01*
X89749966Y-64091193D01*
X89806883Y-64228943D01*
X90069673Y-64492192D01*
X90413201Y-64634838D01*
X90785167Y-64635162D01*
X91128943Y-64493117D01*
X91392192Y-64230327D01*
X91534838Y-63886799D01*
X91535162Y-63514833D01*
X91393117Y-63171057D01*
X91130327Y-62907808D01*
X90786799Y-62765162D01*
X90414833Y-62764838D01*
X90071057Y-62906883D01*
X89807808Y-63169673D01*
X89750034Y-63308807D01*
X89693117Y-63171057D01*
X89430327Y-62907808D01*
X89086799Y-62765162D01*
X88714833Y-62764838D01*
X88371057Y-62906883D01*
X88107808Y-63169673D01*
X88050034Y-63308807D01*
X87993117Y-63171057D01*
X87730327Y-62907808D01*
X87386799Y-62765162D01*
X87014833Y-62764838D01*
X86671057Y-62906883D01*
X86407808Y-63169673D01*
X86265162Y-63513201D01*
X86264838Y-63885167D01*
X85307037Y-63885167D01*
X85173117Y-63561057D01*
X84951693Y-63339247D01*
X85801147Y-62176836D01*
X87299209Y-60279291D01*
X88998710Y-58179908D01*
X89014172Y-58155622D01*
X89730547Y-56685167D01*
X90664838Y-56685167D01*
X90806883Y-57028943D01*
X91069673Y-57292192D01*
X91413201Y-57434838D01*
X91785167Y-57435162D01*
X92128943Y-57293117D01*
X92392192Y-57030327D01*
X92534838Y-56686799D01*
X92535162Y-56314833D01*
X92393117Y-55971057D01*
X92271440Y-55849167D01*
X94630838Y-55849167D01*
X94772883Y-56192943D01*
X95035673Y-56456192D01*
X95379201Y-56598838D01*
X95751167Y-56599162D01*
X95966106Y-56510351D01*
X96179204Y-56598838D01*
X96551170Y-56599162D01*
X96816924Y-56489355D01*
X97143201Y-56624838D01*
X97515167Y-56625162D01*
X97858943Y-56483117D01*
X98122192Y-56220327D01*
X98264838Y-55876799D01*
X98264935Y-55765167D01*
X100504838Y-55765167D01*
X100646883Y-56108943D01*
X100909673Y-56372192D01*
X101253201Y-56514838D01*
X101625167Y-56515162D01*
X101968943Y-56373117D01*
X102232192Y-56110327D01*
X102374838Y-55766799D01*
X102375162Y-55394833D01*
X102233117Y-55051057D01*
X101970327Y-54787808D01*
X101626799Y-54645162D01*
X101254833Y-54644838D01*
X100911057Y-54786883D01*
X100647808Y-55049673D01*
X100505162Y-55393201D01*
X100504838Y-55765167D01*
X98264935Y-55765167D01*
X98265162Y-55504833D01*
X98123117Y-55161057D01*
X97860327Y-54897808D01*
X97516799Y-54755162D01*
X97144833Y-54754838D01*
X96879079Y-54864645D01*
X96552802Y-54729162D01*
X96180836Y-54728838D01*
X95965897Y-54817649D01*
X95752799Y-54729162D01*
X95380833Y-54728838D01*
X95037057Y-54870883D01*
X94773808Y-55133673D01*
X94631162Y-55477201D01*
X94630838Y-55849167D01*
X92271440Y-55849167D01*
X92130327Y-55707808D01*
X91786799Y-55565162D01*
X91414833Y-55564838D01*
X91071057Y-55706883D01*
X90807808Y-55969673D01*
X90665162Y-56313201D01*
X90664838Y-56685167D01*
X89730547Y-56685167D01*
X90534172Y-55035622D01*
X90540751Y-55019346D01*
X90800325Y-54222723D01*
X90869673Y-54292192D01*
X91213201Y-54434838D01*
X91585167Y-54435162D01*
X91928943Y-54293117D01*
X92192192Y-54030327D01*
X92334838Y-53686799D01*
X92335162Y-53314833D01*
X92193117Y-52971057D01*
X92007552Y-52785167D01*
X95064838Y-52785167D01*
X95206883Y-53128943D01*
X95469673Y-53392192D01*
X95813201Y-53534838D01*
X96185167Y-53535162D01*
X96528943Y-53393117D01*
X96792192Y-53130327D01*
X96934838Y-52786799D01*
X96934951Y-52657235D01*
X97069673Y-52792192D01*
X97379596Y-52920884D01*
X97506883Y-53228943D01*
X97769673Y-53492192D01*
X98113201Y-53634838D01*
X98164882Y-53634883D01*
X98164838Y-53685167D01*
X98306883Y-54028943D01*
X98569673Y-54292192D01*
X98913201Y-54434838D01*
X99285167Y-54435162D01*
X99628943Y-54293117D01*
X99892192Y-54030327D01*
X100034838Y-53686799D01*
X100035162Y-53314833D01*
X99893117Y-52971057D01*
X99630327Y-52707808D01*
X99286799Y-52565162D01*
X99235118Y-52565117D01*
X99235162Y-52514833D01*
X99093117Y-52171057D01*
X98830327Y-51907808D01*
X98520404Y-51779116D01*
X98393117Y-51471057D01*
X98130327Y-51207808D01*
X97786799Y-51065162D01*
X97735118Y-51065117D01*
X97735162Y-51014833D01*
X97593117Y-50671057D01*
X97330327Y-50407808D01*
X96986799Y-50265162D01*
X96614833Y-50264838D01*
X96271057Y-50406883D01*
X96007808Y-50669673D01*
X95908529Y-50908762D01*
X95671057Y-51006883D01*
X95407808Y-51269673D01*
X95265162Y-51613201D01*
X95264838Y-51985167D01*
X95272905Y-52004690D01*
X95207808Y-52069673D01*
X95065162Y-52413201D01*
X95064838Y-52785167D01*
X92007552Y-52785167D01*
X91930327Y-52707808D01*
X91586799Y-52565162D01*
X91340499Y-52564947D01*
X92379865Y-49375167D01*
X96594838Y-49375167D01*
X96736883Y-49718943D01*
X96999673Y-49982192D01*
X97319571Y-50115026D01*
X97436883Y-50398943D01*
X97699673Y-50662192D01*
X98043201Y-50804838D01*
X98072977Y-50804864D01*
X98206883Y-51128943D01*
X98469673Y-51392192D01*
X98813201Y-51534838D01*
X98868019Y-51534886D01*
X98906883Y-51628943D01*
X99169673Y-51892192D01*
X99476200Y-52019474D01*
X99566883Y-52238943D01*
X99829673Y-52502192D01*
X100173201Y-52644838D01*
X100240177Y-52644896D01*
X100336883Y-52878943D01*
X100599673Y-53142192D01*
X100645051Y-53161035D01*
X100644838Y-53405167D01*
X100786883Y-53748943D01*
X101049673Y-54012192D01*
X101393201Y-54154838D01*
X101765167Y-54155162D01*
X102108943Y-54013117D01*
X102372192Y-53750327D01*
X102514838Y-53406799D01*
X102515162Y-53034833D01*
X102373117Y-52691057D01*
X102110327Y-52427808D01*
X102064949Y-52408965D01*
X102065162Y-52164833D01*
X101923117Y-51821057D01*
X101660327Y-51557808D01*
X101316799Y-51415162D01*
X101249823Y-51415104D01*
X101153117Y-51181057D01*
X100890327Y-50917808D01*
X100583800Y-50790526D01*
X100493117Y-50571057D01*
X100230327Y-50307808D01*
X99886799Y-50165162D01*
X99831981Y-50165114D01*
X99793117Y-50071057D01*
X99530327Y-49807808D01*
X99186799Y-49665162D01*
X99157023Y-49665136D01*
X99023117Y-49341057D01*
X98760327Y-49077808D01*
X98440429Y-48944974D01*
X98334299Y-48688119D01*
X98392192Y-48630327D01*
X98493991Y-48385167D01*
X101264838Y-48385167D01*
X101406883Y-48728943D01*
X101669673Y-48992192D01*
X102013201Y-49134838D01*
X102385167Y-49135162D01*
X102728943Y-48993117D01*
X102992192Y-48730327D01*
X103134838Y-48386799D01*
X103135162Y-48014833D01*
X102993117Y-47671057D01*
X102730327Y-47407808D01*
X102386799Y-47265162D01*
X102014833Y-47264838D01*
X101671057Y-47406883D01*
X101407808Y-47669673D01*
X101265162Y-48013201D01*
X101264838Y-48385167D01*
X98493991Y-48385167D01*
X98534838Y-48286799D01*
X98535162Y-47914833D01*
X98404931Y-47599649D01*
X98534838Y-47286799D01*
X98535162Y-46914833D01*
X98393117Y-46571057D01*
X98130327Y-46307808D01*
X97786799Y-46165162D01*
X97414833Y-46164838D01*
X97071057Y-46306883D01*
X96807808Y-46569673D01*
X96665162Y-46913201D01*
X96664838Y-47285167D01*
X96795069Y-47600351D01*
X96665162Y-47913201D01*
X96664838Y-48285167D01*
X96795701Y-48601881D01*
X96737808Y-48659673D01*
X96595162Y-49003201D01*
X96594838Y-49375167D01*
X92379865Y-49375167D01*
X92963124Y-47585167D01*
X94564838Y-47585167D01*
X94706883Y-47928943D01*
X94969673Y-48192192D01*
X95313201Y-48334838D01*
X95685167Y-48335162D01*
X96028943Y-48193117D01*
X96292192Y-47930327D01*
X96434838Y-47586799D01*
X96435162Y-47214833D01*
X96293117Y-46871057D01*
X96030327Y-46607808D01*
X95686799Y-46465162D01*
X95314833Y-46464838D01*
X94971057Y-46606883D01*
X94707808Y-46869673D01*
X94565162Y-47213201D01*
X94564838Y-47585167D01*
X92963124Y-47585167D01*
X94000228Y-44402331D01*
X95778568Y-43863440D01*
X96343600Y-43863440D01*
X96578917Y-43819162D01*
X96795041Y-43680090D01*
X96902469Y-43522864D01*
X97892324Y-43222908D01*
X98040330Y-43444415D01*
X98526511Y-43769271D01*
X99100000Y-43883345D01*
X99673489Y-43769271D01*
X100159670Y-43444415D01*
X100370000Y-43129634D01*
X100580330Y-43444415D01*
X101066511Y-43769271D01*
X101640000Y-43883345D01*
X102213489Y-43769271D01*
X102699670Y-43444415D01*
X102709243Y-43430087D01*
X102713238Y-43451317D01*
X102852310Y-43667441D01*
X103064510Y-43812431D01*
X103316400Y-43863440D01*
X105043600Y-43863440D01*
X105278917Y-43819162D01*
X105495041Y-43680090D01*
X105640031Y-43467890D01*
X105691040Y-43216000D01*
X105691040Y-41184000D01*
X105646762Y-40948683D01*
X105507690Y-40732559D01*
X105401459Y-40659975D01*
X105761825Y-40484156D01*
X105869673Y-40592192D01*
X106213201Y-40734838D01*
X106585167Y-40735162D01*
X106928943Y-40593117D01*
X107192192Y-40330327D01*
X107309503Y-40047812D01*
X108107029Y-40087277D01*
X108107029Y-40087277D01*
G37*
X108107029Y-40087277D02*
X108206883Y-40328943D01*
X108469673Y-40592192D01*
X108813201Y-40734838D01*
X109185167Y-40735162D01*
X109528943Y-40593117D01*
X109792192Y-40330327D01*
X109857154Y-40173881D01*
X110148776Y-40188312D01*
X110206883Y-40328943D01*
X110469673Y-40592192D01*
X110813201Y-40734838D01*
X111185167Y-40735162D01*
X111375137Y-40656668D01*
X111671857Y-41100740D01*
X111879243Y-42138609D01*
X111890000Y-42164515D01*
X111890000Y-42294705D01*
X111118735Y-43297350D01*
X110961877Y-43368189D01*
X110942848Y-43355474D01*
X110369359Y-43241400D01*
X110310641Y-43241400D01*
X109737152Y-43355474D01*
X109250971Y-43680330D01*
X109070000Y-43951172D01*
X108889029Y-43680330D01*
X108402848Y-43355474D01*
X107829359Y-43241400D01*
X107770641Y-43241400D01*
X107197152Y-43355474D01*
X106710971Y-43680330D01*
X106386115Y-44166511D01*
X106272041Y-44740000D01*
X106386115Y-45313489D01*
X106710971Y-45799670D01*
X107025752Y-46010000D01*
X106710971Y-46220330D01*
X106563408Y-46441174D01*
X106493117Y-46271057D01*
X106230327Y-46007808D01*
X105886799Y-45865162D01*
X105514833Y-45864838D01*
X105171057Y-46006883D01*
X104907808Y-46269673D01*
X104765162Y-46613201D01*
X104764838Y-46985167D01*
X104906883Y-47328943D01*
X104977710Y-47399893D01*
X104907808Y-47469673D01*
X104765162Y-47813201D01*
X104764838Y-48185167D01*
X104906883Y-48528943D01*
X105169673Y-48792192D01*
X105513201Y-48934838D01*
X105885167Y-48935162D01*
X106228943Y-48793117D01*
X106391267Y-48631076D01*
X106776432Y-49632505D01*
X107237447Y-52740086D01*
X107207808Y-52769673D01*
X107065162Y-53113201D01*
X107064838Y-53485167D01*
X107206883Y-53828943D01*
X107432511Y-54054965D01*
X107576663Y-55026655D01*
X105756334Y-57484877D01*
X105461057Y-57606883D01*
X105311094Y-57756584D01*
X105193117Y-57471057D01*
X104930327Y-57207808D01*
X104586799Y-57065162D01*
X104214833Y-57064838D01*
X103871057Y-57206883D01*
X103607808Y-57469673D01*
X103465162Y-57813201D01*
X103464838Y-58185167D01*
X103606883Y-58528943D01*
X103869673Y-58792192D01*
X104213201Y-58934838D01*
X104585167Y-58935162D01*
X104725251Y-58877281D01*
X104123123Y-59690411D01*
X100908387Y-60650033D01*
X100793117Y-60371057D01*
X100772290Y-60350194D01*
X100792192Y-60330327D01*
X100934838Y-59986799D01*
X100935162Y-59614833D01*
X100793117Y-59271057D01*
X100530327Y-59007808D01*
X100186799Y-58865162D01*
X99814833Y-58864838D01*
X99471057Y-59006883D01*
X99207808Y-59269673D01*
X99065162Y-59613201D01*
X99064838Y-59985167D01*
X99206883Y-60328943D01*
X99227710Y-60349806D01*
X99207808Y-60369673D01*
X99065162Y-60713201D01*
X99064838Y-61085167D01*
X99107204Y-61187700D01*
X97463673Y-61678306D01*
X97446683Y-61684734D01*
X95176683Y-62734734D01*
X95144534Y-62756061D01*
X88735163Y-68587293D01*
X84980424Y-69773000D01*
X78520140Y-69773000D01*
X78473593Y-68935152D01*
X78485167Y-68935162D01*
X78828943Y-68793117D01*
X79092192Y-68530327D01*
X79234838Y-68186799D01*
X79235162Y-67814833D01*
X79200753Y-67731557D01*
X79456935Y-67585167D01*
X86104838Y-67585167D01*
X86246883Y-67928943D01*
X86509673Y-68192192D01*
X86853201Y-68334838D01*
X87225167Y-68335162D01*
X87568943Y-68193117D01*
X87832192Y-67930327D01*
X87974838Y-67586799D01*
X87975162Y-67214833D01*
X87833117Y-66871057D01*
X87570327Y-66607808D01*
X87226799Y-66465162D01*
X86854833Y-66464838D01*
X86511057Y-66606883D01*
X86247808Y-66869673D01*
X86105162Y-67213201D01*
X86104838Y-67585167D01*
X79456935Y-67585167D01*
X82563010Y-65810267D01*
X82577433Y-65800663D01*
X83745145Y-64902423D01*
X83744838Y-65255167D01*
X83749942Y-65267519D01*
X83461057Y-65386883D01*
X83197808Y-65649673D01*
X83055162Y-65993201D01*
X83054838Y-66365167D01*
X83196883Y-66708943D01*
X83459673Y-66972192D01*
X83803201Y-67114838D01*
X84175167Y-67115162D01*
X84518943Y-66973117D01*
X84782192Y-66710327D01*
X84924838Y-66366799D01*
X84925162Y-65994833D01*
X84920058Y-65982481D01*
X85208943Y-65863117D01*
X85472192Y-65600327D01*
X85614838Y-65256799D01*
X85615162Y-64884833D01*
X85473117Y-64541057D01*
X85283840Y-64351450D01*
X85314838Y-64276799D01*
X85315162Y-63904833D01*
X85307037Y-63885167D01*
X86264838Y-63885167D01*
X86406883Y-64228943D01*
X86669673Y-64492192D01*
X87013201Y-64634838D01*
X87385167Y-64635162D01*
X87728943Y-64493117D01*
X87992192Y-64230327D01*
X88049966Y-64091193D01*
X88106883Y-64228943D01*
X88369673Y-64492192D01*
X88713201Y-64634838D01*
X89085167Y-64635162D01*
X89428943Y-64493117D01*
X89692192Y-64230327D01*
X89749966Y-64091193D01*
X89806883Y-64228943D01*
X90069673Y-64492192D01*
X90413201Y-64634838D01*
X90785167Y-64635162D01*
X91128943Y-64493117D01*
X91392192Y-64230327D01*
X91534838Y-63886799D01*
X91535162Y-63514833D01*
X91393117Y-63171057D01*
X91130327Y-62907808D01*
X90786799Y-62765162D01*
X90414833Y-62764838D01*
X90071057Y-62906883D01*
X89807808Y-63169673D01*
X89750034Y-63308807D01*
X89693117Y-63171057D01*
X89430327Y-62907808D01*
X89086799Y-62765162D01*
X88714833Y-62764838D01*
X88371057Y-62906883D01*
X88107808Y-63169673D01*
X88050034Y-63308807D01*
X87993117Y-63171057D01*
X87730327Y-62907808D01*
X87386799Y-62765162D01*
X87014833Y-62764838D01*
X86671057Y-62906883D01*
X86407808Y-63169673D01*
X86265162Y-63513201D01*
X86264838Y-63885167D01*
X85307037Y-63885167D01*
X85173117Y-63561057D01*
X84951693Y-63339247D01*
X85801147Y-62176836D01*
X87299209Y-60279291D01*
X88998710Y-58179908D01*
X89014172Y-58155622D01*
X89730547Y-56685167D01*
X90664838Y-56685167D01*
X90806883Y-57028943D01*
X91069673Y-57292192D01*
X91413201Y-57434838D01*
X91785167Y-57435162D01*
X92128943Y-57293117D01*
X92392192Y-57030327D01*
X92534838Y-56686799D01*
X92535162Y-56314833D01*
X92393117Y-55971057D01*
X92271440Y-55849167D01*
X94630838Y-55849167D01*
X94772883Y-56192943D01*
X95035673Y-56456192D01*
X95379201Y-56598838D01*
X95751167Y-56599162D01*
X95966106Y-56510351D01*
X96179204Y-56598838D01*
X96551170Y-56599162D01*
X96816924Y-56489355D01*
X97143201Y-56624838D01*
X97515167Y-56625162D01*
X97858943Y-56483117D01*
X98122192Y-56220327D01*
X98264838Y-55876799D01*
X98264935Y-55765167D01*
X100504838Y-55765167D01*
X100646883Y-56108943D01*
X100909673Y-56372192D01*
X101253201Y-56514838D01*
X101625167Y-56515162D01*
X101968943Y-56373117D01*
X102232192Y-56110327D01*
X102374838Y-55766799D01*
X102375162Y-55394833D01*
X102233117Y-55051057D01*
X101970327Y-54787808D01*
X101626799Y-54645162D01*
X101254833Y-54644838D01*
X100911057Y-54786883D01*
X100647808Y-55049673D01*
X100505162Y-55393201D01*
X100504838Y-55765167D01*
X98264935Y-55765167D01*
X98265162Y-55504833D01*
X98123117Y-55161057D01*
X97860327Y-54897808D01*
X97516799Y-54755162D01*
X97144833Y-54754838D01*
X96879079Y-54864645D01*
X96552802Y-54729162D01*
X96180836Y-54728838D01*
X95965897Y-54817649D01*
X95752799Y-54729162D01*
X95380833Y-54728838D01*
X95037057Y-54870883D01*
X94773808Y-55133673D01*
X94631162Y-55477201D01*
X94630838Y-55849167D01*
X92271440Y-55849167D01*
X92130327Y-55707808D01*
X91786799Y-55565162D01*
X91414833Y-55564838D01*
X91071057Y-55706883D01*
X90807808Y-55969673D01*
X90665162Y-56313201D01*
X90664838Y-56685167D01*
X89730547Y-56685167D01*
X90534172Y-55035622D01*
X90540751Y-55019346D01*
X90800325Y-54222723D01*
X90869673Y-54292192D01*
X91213201Y-54434838D01*
X91585167Y-54435162D01*
X91928943Y-54293117D01*
X92192192Y-54030327D01*
X92334838Y-53686799D01*
X92335162Y-53314833D01*
X92193117Y-52971057D01*
X92007552Y-52785167D01*
X95064838Y-52785167D01*
X95206883Y-53128943D01*
X95469673Y-53392192D01*
X95813201Y-53534838D01*
X96185167Y-53535162D01*
X96528943Y-53393117D01*
X96792192Y-53130327D01*
X96934838Y-52786799D01*
X96934951Y-52657235D01*
X97069673Y-52792192D01*
X97379596Y-52920884D01*
X97506883Y-53228943D01*
X97769673Y-53492192D01*
X98113201Y-53634838D01*
X98164882Y-53634883D01*
X98164838Y-53685167D01*
X98306883Y-54028943D01*
X98569673Y-54292192D01*
X98913201Y-54434838D01*
X99285167Y-54435162D01*
X99628943Y-54293117D01*
X99892192Y-54030327D01*
X100034838Y-53686799D01*
X100035162Y-53314833D01*
X99893117Y-52971057D01*
X99630327Y-52707808D01*
X99286799Y-52565162D01*
X99235118Y-52565117D01*
X99235162Y-52514833D01*
X99093117Y-52171057D01*
X98830327Y-51907808D01*
X98520404Y-51779116D01*
X98393117Y-51471057D01*
X98130327Y-51207808D01*
X97786799Y-51065162D01*
X97735118Y-51065117D01*
X97735162Y-51014833D01*
X97593117Y-50671057D01*
X97330327Y-50407808D01*
X96986799Y-50265162D01*
X96614833Y-50264838D01*
X96271057Y-50406883D01*
X96007808Y-50669673D01*
X95908529Y-50908762D01*
X95671057Y-51006883D01*
X95407808Y-51269673D01*
X95265162Y-51613201D01*
X95264838Y-51985167D01*
X95272905Y-52004690D01*
X95207808Y-52069673D01*
X95065162Y-52413201D01*
X95064838Y-52785167D01*
X92007552Y-52785167D01*
X91930327Y-52707808D01*
X91586799Y-52565162D01*
X91340499Y-52564947D01*
X92379865Y-49375167D01*
X96594838Y-49375167D01*
X96736883Y-49718943D01*
X96999673Y-49982192D01*
X97319571Y-50115026D01*
X97436883Y-50398943D01*
X97699673Y-50662192D01*
X98043201Y-50804838D01*
X98072977Y-50804864D01*
X98206883Y-51128943D01*
X98469673Y-51392192D01*
X98813201Y-51534838D01*
X98868019Y-51534886D01*
X98906883Y-51628943D01*
X99169673Y-51892192D01*
X99476200Y-52019474D01*
X99566883Y-52238943D01*
X99829673Y-52502192D01*
X100173201Y-52644838D01*
X100240177Y-52644896D01*
X100336883Y-52878943D01*
X100599673Y-53142192D01*
X100645051Y-53161035D01*
X100644838Y-53405167D01*
X100786883Y-53748943D01*
X101049673Y-54012192D01*
X101393201Y-54154838D01*
X101765167Y-54155162D01*
X102108943Y-54013117D01*
X102372192Y-53750327D01*
X102514838Y-53406799D01*
X102515162Y-53034833D01*
X102373117Y-52691057D01*
X102110327Y-52427808D01*
X102064949Y-52408965D01*
X102065162Y-52164833D01*
X101923117Y-51821057D01*
X101660327Y-51557808D01*
X101316799Y-51415162D01*
X101249823Y-51415104D01*
X101153117Y-51181057D01*
X100890327Y-50917808D01*
X100583800Y-50790526D01*
X100493117Y-50571057D01*
X100230327Y-50307808D01*
X99886799Y-50165162D01*
X99831981Y-50165114D01*
X99793117Y-50071057D01*
X99530327Y-49807808D01*
X99186799Y-49665162D01*
X99157023Y-49665136D01*
X99023117Y-49341057D01*
X98760327Y-49077808D01*
X98440429Y-48944974D01*
X98334299Y-48688119D01*
X98392192Y-48630327D01*
X98493991Y-48385167D01*
X101264838Y-48385167D01*
X101406883Y-48728943D01*
X101669673Y-48992192D01*
X102013201Y-49134838D01*
X102385167Y-49135162D01*
X102728943Y-48993117D01*
X102992192Y-48730327D01*
X103134838Y-48386799D01*
X103135162Y-48014833D01*
X102993117Y-47671057D01*
X102730327Y-47407808D01*
X102386799Y-47265162D01*
X102014833Y-47264838D01*
X101671057Y-47406883D01*
X101407808Y-47669673D01*
X101265162Y-48013201D01*
X101264838Y-48385167D01*
X98493991Y-48385167D01*
X98534838Y-48286799D01*
X98535162Y-47914833D01*
X98404931Y-47599649D01*
X98534838Y-47286799D01*
X98535162Y-46914833D01*
X98393117Y-46571057D01*
X98130327Y-46307808D01*
X97786799Y-46165162D01*
X97414833Y-46164838D01*
X97071057Y-46306883D01*
X96807808Y-46569673D01*
X96665162Y-46913201D01*
X96664838Y-47285167D01*
X96795069Y-47600351D01*
X96665162Y-47913201D01*
X96664838Y-48285167D01*
X96795701Y-48601881D01*
X96737808Y-48659673D01*
X96595162Y-49003201D01*
X96594838Y-49375167D01*
X92379865Y-49375167D01*
X92963124Y-47585167D01*
X94564838Y-47585167D01*
X94706883Y-47928943D01*
X94969673Y-48192192D01*
X95313201Y-48334838D01*
X95685167Y-48335162D01*
X96028943Y-48193117D01*
X96292192Y-47930327D01*
X96434838Y-47586799D01*
X96435162Y-47214833D01*
X96293117Y-46871057D01*
X96030327Y-46607808D01*
X95686799Y-46465162D01*
X95314833Y-46464838D01*
X94971057Y-46606883D01*
X94707808Y-46869673D01*
X94565162Y-47213201D01*
X94564838Y-47585167D01*
X92963124Y-47585167D01*
X94000228Y-44402331D01*
X95778568Y-43863440D01*
X96343600Y-43863440D01*
X96578917Y-43819162D01*
X96795041Y-43680090D01*
X96902469Y-43522864D01*
X97892324Y-43222908D01*
X98040330Y-43444415D01*
X98526511Y-43769271D01*
X99100000Y-43883345D01*
X99673489Y-43769271D01*
X100159670Y-43444415D01*
X100370000Y-43129634D01*
X100580330Y-43444415D01*
X101066511Y-43769271D01*
X101640000Y-43883345D01*
X102213489Y-43769271D01*
X102699670Y-43444415D01*
X102709243Y-43430087D01*
X102713238Y-43451317D01*
X102852310Y-43667441D01*
X103064510Y-43812431D01*
X103316400Y-43863440D01*
X105043600Y-43863440D01*
X105278917Y-43819162D01*
X105495041Y-43680090D01*
X105640031Y-43467890D01*
X105691040Y-43216000D01*
X105691040Y-41184000D01*
X105646762Y-40948683D01*
X105507690Y-40732559D01*
X105401459Y-40659975D01*
X105761825Y-40484156D01*
X105869673Y-40592192D01*
X106213201Y-40734838D01*
X106585167Y-40735162D01*
X106928943Y-40593117D01*
X107192192Y-40330327D01*
X107309503Y-40047812D01*
X108107029Y-40087277D01*
G36*
X74964838Y-47585167D02*
X75106883Y-47928943D01*
X75369673Y-48192192D01*
X75713201Y-48334838D01*
X76085167Y-48335162D01*
X76300104Y-48246352D01*
X76513201Y-48334838D01*
X76885167Y-48335162D01*
X77054527Y-48265184D01*
X81073614Y-52451733D01*
X81122339Y-56495917D01*
X81115162Y-56513201D01*
X81114838Y-56885167D01*
X81127395Y-56915557D01*
X81165000Y-60036804D01*
X81165000Y-60730011D01*
X80816099Y-62561746D01*
X80607808Y-62769673D01*
X80562265Y-62879351D01*
X79527710Y-63595582D01*
X79492781Y-63631933D01*
X79474747Y-63679010D01*
X79476448Y-63729394D01*
X79496251Y-63772191D01*
X78519461Y-65192976D01*
X77090705Y-65669228D01*
X73867630Y-65083215D01*
X71675527Y-62485167D01*
X76164838Y-62485167D01*
X76306883Y-62828943D01*
X76569673Y-63092192D01*
X76588097Y-63099842D01*
X76571057Y-63106883D01*
X76307808Y-63369673D01*
X76165162Y-63713201D01*
X76164838Y-64085167D01*
X76306883Y-64428943D01*
X76569673Y-64692192D01*
X76913201Y-64834838D01*
X77285167Y-64835162D01*
X77628943Y-64693117D01*
X77892192Y-64430327D01*
X78034838Y-64086799D01*
X78035162Y-63714833D01*
X77893117Y-63371057D01*
X77630327Y-63107808D01*
X77611903Y-63100158D01*
X77628943Y-63093117D01*
X77892192Y-62830327D01*
X78021560Y-62518776D01*
X78194673Y-62692192D01*
X78538201Y-62834838D01*
X78910167Y-62835162D01*
X79253943Y-62693117D01*
X79517192Y-62430327D01*
X79659838Y-62086799D01*
X79660162Y-61714833D01*
X79518117Y-61371057D01*
X79255327Y-61107808D01*
X78911799Y-60965162D01*
X78539833Y-60964838D01*
X78196057Y-61106883D01*
X77932808Y-61369673D01*
X77803440Y-61681224D01*
X77630327Y-61507808D01*
X77286799Y-61365162D01*
X76914833Y-61364838D01*
X76571057Y-61506883D01*
X76307808Y-61769673D01*
X76165162Y-62113201D01*
X76164838Y-62485167D01*
X71675527Y-62485167D01*
X71197065Y-61918101D01*
X71189803Y-61910197D01*
X70627000Y-61347394D01*
X70627000Y-59185167D01*
X73464838Y-59185167D01*
X73606883Y-59528943D01*
X73869673Y-59792192D01*
X74213201Y-59934838D01*
X74585167Y-59935162D01*
X74817084Y-59839336D01*
X74969673Y-59992192D01*
X75313201Y-60134838D01*
X75685167Y-60135162D01*
X76028943Y-59993117D01*
X76292192Y-59730327D01*
X76434838Y-59386799D01*
X76434926Y-59285167D01*
X77064838Y-59285167D01*
X77206883Y-59628943D01*
X77469673Y-59892192D01*
X77813201Y-60034838D01*
X78185167Y-60035162D01*
X78528943Y-59893117D01*
X78702947Y-59719417D01*
X78706883Y-59728943D01*
X78969673Y-59992192D01*
X79313201Y-60134838D01*
X79685167Y-60135162D01*
X80028943Y-59993117D01*
X80292192Y-59730327D01*
X80434838Y-59386799D01*
X80435162Y-59014833D01*
X80293117Y-58671057D01*
X80030327Y-58407808D01*
X79686799Y-58265162D01*
X79314833Y-58264838D01*
X78971057Y-58406883D01*
X78797053Y-58580583D01*
X78793117Y-58571057D01*
X78530327Y-58307808D01*
X78186799Y-58165162D01*
X77814833Y-58164838D01*
X77471057Y-58306883D01*
X77207808Y-58569673D01*
X77065162Y-58913201D01*
X77064838Y-59285167D01*
X76434926Y-59285167D01*
X76435162Y-59014833D01*
X76293117Y-58671057D01*
X76030327Y-58407808D01*
X75686799Y-58265162D01*
X75314833Y-58264838D01*
X75082916Y-58360664D01*
X74930327Y-58207808D01*
X74586799Y-58065162D01*
X74214833Y-58064838D01*
X73871057Y-58206883D01*
X73607808Y-58469673D01*
X73465162Y-58813201D01*
X73464838Y-59185167D01*
X70627000Y-59185167D01*
X70627000Y-58435024D01*
X70785167Y-58435162D01*
X71128943Y-58293117D01*
X71199893Y-58222290D01*
X71269673Y-58292192D01*
X71613201Y-58434838D01*
X71985167Y-58435162D01*
X72328943Y-58293117D01*
X72592192Y-58030327D01*
X72734838Y-57686799D01*
X72735162Y-57314833D01*
X72593117Y-56971057D01*
X72330327Y-56707808D01*
X71986799Y-56565162D01*
X71614833Y-56564838D01*
X71271057Y-56706883D01*
X71200107Y-56777710D01*
X71130327Y-56707808D01*
X70786799Y-56565162D01*
X70627000Y-56565023D01*
X70627000Y-55852606D01*
X72363284Y-54116322D01*
X73726610Y-53824181D01*
X73772827Y-53804044D01*
X73807568Y-53767513D01*
X73821384Y-53737349D01*
X74221384Y-52437349D01*
X74226351Y-52387181D01*
X74211409Y-52339033D01*
X74189803Y-52310197D01*
X73489803Y-51610197D01*
X73447789Y-51582334D01*
X73400000Y-51573000D01*
X71952606Y-51573000D01*
X71223758Y-50844152D01*
X71221865Y-50813864D01*
X71513201Y-50934838D01*
X71885167Y-50935162D01*
X72228943Y-50793117D01*
X72492192Y-50530327D01*
X72502639Y-50505167D01*
X74609838Y-50505167D01*
X74751883Y-50848943D01*
X74890179Y-50987481D01*
X74787808Y-51089673D01*
X74645162Y-51433201D01*
X74644838Y-51805167D01*
X74786883Y-52148943D01*
X75049673Y-52412192D01*
X75393201Y-52554838D01*
X75765167Y-52555162D01*
X76108943Y-52413117D01*
X76300050Y-52222343D01*
X76429673Y-52352192D01*
X76773201Y-52494838D01*
X77145167Y-52495162D01*
X77488943Y-52353117D01*
X77752192Y-52090327D01*
X77894838Y-51746799D01*
X77895162Y-51374833D01*
X77753117Y-51031057D01*
X77672256Y-50950054D01*
X77792192Y-50830327D01*
X77934838Y-50486799D01*
X77935162Y-50114833D01*
X77793117Y-49771057D01*
X77530327Y-49507808D01*
X77186799Y-49365162D01*
X76814833Y-49364838D01*
X76471057Y-49506883D01*
X76262384Y-49715192D01*
X76075327Y-49527808D01*
X75731799Y-49385162D01*
X75359833Y-49384838D01*
X75016057Y-49526883D01*
X74752808Y-49789673D01*
X74610162Y-50133201D01*
X74609838Y-50505167D01*
X72502639Y-50505167D01*
X72634838Y-50186799D01*
X72635162Y-49814833D01*
X72493117Y-49471057D01*
X72230327Y-49207808D01*
X71886799Y-49065162D01*
X71514833Y-49064838D01*
X71368120Y-49125459D01*
X73050708Y-47527000D01*
X74964889Y-47527000D01*
X74964838Y-47585167D01*
X74964838Y-47585167D01*
G37*
X74964838Y-47585167D02*
X75106883Y-47928943D01*
X75369673Y-48192192D01*
X75713201Y-48334838D01*
X76085167Y-48335162D01*
X76300104Y-48246352D01*
X76513201Y-48334838D01*
X76885167Y-48335162D01*
X77054527Y-48265184D01*
X81073614Y-52451733D01*
X81122339Y-56495917D01*
X81115162Y-56513201D01*
X81114838Y-56885167D01*
X81127395Y-56915557D01*
X81165000Y-60036804D01*
X81165000Y-60730011D01*
X80816099Y-62561746D01*
X80607808Y-62769673D01*
X80562265Y-62879351D01*
X79527710Y-63595582D01*
X79492781Y-63631933D01*
X79474747Y-63679010D01*
X79476448Y-63729394D01*
X79496251Y-63772191D01*
X78519461Y-65192976D01*
X77090705Y-65669228D01*
X73867630Y-65083215D01*
X71675527Y-62485167D01*
X76164838Y-62485167D01*
X76306883Y-62828943D01*
X76569673Y-63092192D01*
X76588097Y-63099842D01*
X76571057Y-63106883D01*
X76307808Y-63369673D01*
X76165162Y-63713201D01*
X76164838Y-64085167D01*
X76306883Y-64428943D01*
X76569673Y-64692192D01*
X76913201Y-64834838D01*
X77285167Y-64835162D01*
X77628943Y-64693117D01*
X77892192Y-64430327D01*
X78034838Y-64086799D01*
X78035162Y-63714833D01*
X77893117Y-63371057D01*
X77630327Y-63107808D01*
X77611903Y-63100158D01*
X77628943Y-63093117D01*
X77892192Y-62830327D01*
X78021560Y-62518776D01*
X78194673Y-62692192D01*
X78538201Y-62834838D01*
X78910167Y-62835162D01*
X79253943Y-62693117D01*
X79517192Y-62430327D01*
X79659838Y-62086799D01*
X79660162Y-61714833D01*
X79518117Y-61371057D01*
X79255327Y-61107808D01*
X78911799Y-60965162D01*
X78539833Y-60964838D01*
X78196057Y-61106883D01*
X77932808Y-61369673D01*
X77803440Y-61681224D01*
X77630327Y-61507808D01*
X77286799Y-61365162D01*
X76914833Y-61364838D01*
X76571057Y-61506883D01*
X76307808Y-61769673D01*
X76165162Y-62113201D01*
X76164838Y-62485167D01*
X71675527Y-62485167D01*
X71197065Y-61918101D01*
X71189803Y-61910197D01*
X70627000Y-61347394D01*
X70627000Y-59185167D01*
X73464838Y-59185167D01*
X73606883Y-59528943D01*
X73869673Y-59792192D01*
X74213201Y-59934838D01*
X74585167Y-59935162D01*
X74817084Y-59839336D01*
X74969673Y-59992192D01*
X75313201Y-60134838D01*
X75685167Y-60135162D01*
X76028943Y-59993117D01*
X76292192Y-59730327D01*
X76434838Y-59386799D01*
X76434926Y-59285167D01*
X77064838Y-59285167D01*
X77206883Y-59628943D01*
X77469673Y-59892192D01*
X77813201Y-60034838D01*
X78185167Y-60035162D01*
X78528943Y-59893117D01*
X78702947Y-59719417D01*
X78706883Y-59728943D01*
X78969673Y-59992192D01*
X79313201Y-60134838D01*
X79685167Y-60135162D01*
X80028943Y-59993117D01*
X80292192Y-59730327D01*
X80434838Y-59386799D01*
X80435162Y-59014833D01*
X80293117Y-58671057D01*
X80030327Y-58407808D01*
X79686799Y-58265162D01*
X79314833Y-58264838D01*
X78971057Y-58406883D01*
X78797053Y-58580583D01*
X78793117Y-58571057D01*
X78530327Y-58307808D01*
X78186799Y-58165162D01*
X77814833Y-58164838D01*
X77471057Y-58306883D01*
X77207808Y-58569673D01*
X77065162Y-58913201D01*
X77064838Y-59285167D01*
X76434926Y-59285167D01*
X76435162Y-59014833D01*
X76293117Y-58671057D01*
X76030327Y-58407808D01*
X75686799Y-58265162D01*
X75314833Y-58264838D01*
X75082916Y-58360664D01*
X74930327Y-58207808D01*
X74586799Y-58065162D01*
X74214833Y-58064838D01*
X73871057Y-58206883D01*
X73607808Y-58469673D01*
X73465162Y-58813201D01*
X73464838Y-59185167D01*
X70627000Y-59185167D01*
X70627000Y-58435024D01*
X70785167Y-58435162D01*
X71128943Y-58293117D01*
X71199893Y-58222290D01*
X71269673Y-58292192D01*
X71613201Y-58434838D01*
X71985167Y-58435162D01*
X72328943Y-58293117D01*
X72592192Y-58030327D01*
X72734838Y-57686799D01*
X72735162Y-57314833D01*
X72593117Y-56971057D01*
X72330327Y-56707808D01*
X71986799Y-56565162D01*
X71614833Y-56564838D01*
X71271057Y-56706883D01*
X71200107Y-56777710D01*
X71130327Y-56707808D01*
X70786799Y-56565162D01*
X70627000Y-56565023D01*
X70627000Y-55852606D01*
X72363284Y-54116322D01*
X73726610Y-53824181D01*
X73772827Y-53804044D01*
X73807568Y-53767513D01*
X73821384Y-53737349D01*
X74221384Y-52437349D01*
X74226351Y-52387181D01*
X74211409Y-52339033D01*
X74189803Y-52310197D01*
X73489803Y-51610197D01*
X73447789Y-51582334D01*
X73400000Y-51573000D01*
X71952606Y-51573000D01*
X71223758Y-50844152D01*
X71221865Y-50813864D01*
X71513201Y-50934838D01*
X71885167Y-50935162D01*
X72228943Y-50793117D01*
X72492192Y-50530327D01*
X72502639Y-50505167D01*
X74609838Y-50505167D01*
X74751883Y-50848943D01*
X74890179Y-50987481D01*
X74787808Y-51089673D01*
X74645162Y-51433201D01*
X74644838Y-51805167D01*
X74786883Y-52148943D01*
X75049673Y-52412192D01*
X75393201Y-52554838D01*
X75765167Y-52555162D01*
X76108943Y-52413117D01*
X76300050Y-52222343D01*
X76429673Y-52352192D01*
X76773201Y-52494838D01*
X77145167Y-52495162D01*
X77488943Y-52353117D01*
X77752192Y-52090327D01*
X77894838Y-51746799D01*
X77895162Y-51374833D01*
X77753117Y-51031057D01*
X77672256Y-50950054D01*
X77792192Y-50830327D01*
X77934838Y-50486799D01*
X77935162Y-50114833D01*
X77793117Y-49771057D01*
X77530327Y-49507808D01*
X77186799Y-49365162D01*
X76814833Y-49364838D01*
X76471057Y-49506883D01*
X76262384Y-49715192D01*
X76075327Y-49527808D01*
X75731799Y-49385162D01*
X75359833Y-49384838D01*
X75016057Y-49526883D01*
X74752808Y-49789673D01*
X74610162Y-50133201D01*
X74609838Y-50505167D01*
X72502639Y-50505167D01*
X72634838Y-50186799D01*
X72635162Y-49814833D01*
X72493117Y-49471057D01*
X72230327Y-49207808D01*
X71886799Y-49065162D01*
X71514833Y-49064838D01*
X71368120Y-49125459D01*
X73050708Y-47527000D01*
X74964889Y-47527000D01*
X74964838Y-47585167D01*
G36*
X83406883Y-44128943D02*
X83669673Y-44392192D01*
X84013201Y-44534838D01*
X84026685Y-44534850D01*
X84106883Y-44728943D01*
X84369673Y-44992192D01*
X84550444Y-45067255D01*
X89059453Y-50232119D01*
X87979848Y-54157955D01*
X87387326Y-55540505D01*
X86979814Y-56180881D01*
X86893117Y-55971057D01*
X86630327Y-55707808D01*
X86286799Y-55565162D01*
X85914833Y-55564838D01*
X85571057Y-55706883D01*
X85307808Y-55969673D01*
X85165162Y-56313201D01*
X85164838Y-56685167D01*
X85306883Y-57028943D01*
X85569673Y-57292192D01*
X85913201Y-57434838D01*
X86181693Y-57435072D01*
X85992855Y-57731817D01*
X85986855Y-57742318D01*
X83412214Y-62792576D01*
X81838637Y-63229681D01*
X82071123Y-59742396D01*
X82106883Y-59828943D01*
X82369673Y-60092192D01*
X82713201Y-60234838D01*
X83085167Y-60235162D01*
X83400351Y-60104931D01*
X83713201Y-60234838D01*
X84085167Y-60235162D01*
X84428943Y-60093117D01*
X84692192Y-59830327D01*
X84834838Y-59486799D01*
X84835162Y-59114833D01*
X84693117Y-58771057D01*
X84430327Y-58507808D01*
X84086799Y-58365162D01*
X83714833Y-58364838D01*
X83399649Y-58495069D01*
X83086799Y-58365162D01*
X82714833Y-58364838D01*
X82371057Y-58506883D01*
X82137979Y-58739555D01*
X82226719Y-57408448D01*
X82227000Y-57400000D01*
X82227000Y-50800000D01*
X82216994Y-50750590D01*
X82189803Y-50710197D01*
X79864773Y-48385167D01*
X82064838Y-48385167D01*
X82195069Y-48700351D01*
X82065162Y-49013201D01*
X82064838Y-49385167D01*
X82206883Y-49728943D01*
X82469673Y-49992192D01*
X82813201Y-50134838D01*
X83185167Y-50135162D01*
X83528943Y-49993117D01*
X83721289Y-49801107D01*
X83721088Y-50031417D01*
X83863133Y-50375193D01*
X83977710Y-50489970D01*
X83864058Y-50603423D01*
X83721412Y-50946951D01*
X83721088Y-51318917D01*
X83863133Y-51662693D01*
X84125923Y-51925942D01*
X84469451Y-52068588D01*
X84841417Y-52068912D01*
X85185193Y-51926867D01*
X85299970Y-51812290D01*
X85413423Y-51925942D01*
X85756951Y-52068588D01*
X86128917Y-52068912D01*
X86472693Y-51926867D01*
X86735942Y-51664077D01*
X86878588Y-51320549D01*
X86878912Y-50948583D01*
X86736867Y-50604807D01*
X86622290Y-50490030D01*
X86735942Y-50376577D01*
X86878588Y-50033049D01*
X86878912Y-49661083D01*
X86736867Y-49317307D01*
X86474077Y-49054058D01*
X86130549Y-48911412D01*
X85758583Y-48911088D01*
X85414807Y-49053133D01*
X85300030Y-49167710D01*
X85186577Y-49054058D01*
X84843049Y-48911412D01*
X84471083Y-48911088D01*
X84127307Y-49053133D01*
X83934961Y-49245143D01*
X83935162Y-49014833D01*
X83804931Y-48699649D01*
X83934838Y-48386799D01*
X83935162Y-48014833D01*
X83793117Y-47671057D01*
X83530327Y-47407808D01*
X83186799Y-47265162D01*
X82814833Y-47264838D01*
X82471057Y-47406883D01*
X82207808Y-47669673D01*
X82065162Y-48013201D01*
X82064838Y-48385167D01*
X79864773Y-48385167D01*
X79151691Y-47672085D01*
X79952722Y-45885167D01*
X82364838Y-45885167D01*
X82506883Y-46228943D01*
X82769673Y-46492192D01*
X83113201Y-46634838D01*
X83485167Y-46635162D01*
X83828943Y-46493117D01*
X84092192Y-46230327D01*
X84234838Y-45886799D01*
X84235162Y-45514833D01*
X84093117Y-45171057D01*
X83830327Y-44907808D01*
X83486799Y-44765162D01*
X83114833Y-44764838D01*
X82771057Y-44906883D01*
X82507808Y-45169673D01*
X82365162Y-45513201D01*
X82364838Y-45885167D01*
X79952722Y-45885167D01*
X80391094Y-44907261D01*
X83399442Y-44110934D01*
X83406883Y-44128943D01*
X83406883Y-44128943D01*
G37*
X83406883Y-44128943D02*
X83669673Y-44392192D01*
X84013201Y-44534838D01*
X84026685Y-44534850D01*
X84106883Y-44728943D01*
X84369673Y-44992192D01*
X84550444Y-45067255D01*
X89059453Y-50232119D01*
X87979848Y-54157955D01*
X87387326Y-55540505D01*
X86979814Y-56180881D01*
X86893117Y-55971057D01*
X86630327Y-55707808D01*
X86286799Y-55565162D01*
X85914833Y-55564838D01*
X85571057Y-55706883D01*
X85307808Y-55969673D01*
X85165162Y-56313201D01*
X85164838Y-56685167D01*
X85306883Y-57028943D01*
X85569673Y-57292192D01*
X85913201Y-57434838D01*
X86181693Y-57435072D01*
X85992855Y-57731817D01*
X85986855Y-57742318D01*
X83412214Y-62792576D01*
X81838637Y-63229681D01*
X82071123Y-59742396D01*
X82106883Y-59828943D01*
X82369673Y-60092192D01*
X82713201Y-60234838D01*
X83085167Y-60235162D01*
X83400351Y-60104931D01*
X83713201Y-60234838D01*
X84085167Y-60235162D01*
X84428943Y-60093117D01*
X84692192Y-59830327D01*
X84834838Y-59486799D01*
X84835162Y-59114833D01*
X84693117Y-58771057D01*
X84430327Y-58507808D01*
X84086799Y-58365162D01*
X83714833Y-58364838D01*
X83399649Y-58495069D01*
X83086799Y-58365162D01*
X82714833Y-58364838D01*
X82371057Y-58506883D01*
X82137979Y-58739555D01*
X82226719Y-57408448D01*
X82227000Y-57400000D01*
X82227000Y-50800000D01*
X82216994Y-50750590D01*
X82189803Y-50710197D01*
X79864773Y-48385167D01*
X82064838Y-48385167D01*
X82195069Y-48700351D01*
X82065162Y-49013201D01*
X82064838Y-49385167D01*
X82206883Y-49728943D01*
X82469673Y-49992192D01*
X82813201Y-50134838D01*
X83185167Y-50135162D01*
X83528943Y-49993117D01*
X83721289Y-49801107D01*
X83721088Y-50031417D01*
X83863133Y-50375193D01*
X83977710Y-50489970D01*
X83864058Y-50603423D01*
X83721412Y-50946951D01*
X83721088Y-51318917D01*
X83863133Y-51662693D01*
X84125923Y-51925942D01*
X84469451Y-52068588D01*
X84841417Y-52068912D01*
X85185193Y-51926867D01*
X85299970Y-51812290D01*
X85413423Y-51925942D01*
X85756951Y-52068588D01*
X86128917Y-52068912D01*
X86472693Y-51926867D01*
X86735942Y-51664077D01*
X86878588Y-51320549D01*
X86878912Y-50948583D01*
X86736867Y-50604807D01*
X86622290Y-50490030D01*
X86735942Y-50376577D01*
X86878588Y-50033049D01*
X86878912Y-49661083D01*
X86736867Y-49317307D01*
X86474077Y-49054058D01*
X86130549Y-48911412D01*
X85758583Y-48911088D01*
X85414807Y-49053133D01*
X85300030Y-49167710D01*
X85186577Y-49054058D01*
X84843049Y-48911412D01*
X84471083Y-48911088D01*
X84127307Y-49053133D01*
X83934961Y-49245143D01*
X83935162Y-49014833D01*
X83804931Y-48699649D01*
X83934838Y-48386799D01*
X83935162Y-48014833D01*
X83793117Y-47671057D01*
X83530327Y-47407808D01*
X83186799Y-47265162D01*
X82814833Y-47264838D01*
X82471057Y-47406883D01*
X82207808Y-47669673D01*
X82065162Y-48013201D01*
X82064838Y-48385167D01*
X79864773Y-48385167D01*
X79151691Y-47672085D01*
X79952722Y-45885167D01*
X82364838Y-45885167D01*
X82506883Y-46228943D01*
X82769673Y-46492192D01*
X83113201Y-46634838D01*
X83485167Y-46635162D01*
X83828943Y-46493117D01*
X84092192Y-46230327D01*
X84234838Y-45886799D01*
X84235162Y-45514833D01*
X84093117Y-45171057D01*
X83830327Y-44907808D01*
X83486799Y-44765162D01*
X83114833Y-44764838D01*
X82771057Y-44906883D01*
X82507808Y-45169673D01*
X82365162Y-45513201D01*
X82364838Y-45885167D01*
X79952722Y-45885167D01*
X80391094Y-44907261D01*
X83399442Y-44110934D01*
X83406883Y-44128943D01*
M02*
