G04 #@! TF.FileFunction,Soldermask,Top*
%FSLAX46Y46*%
G04 Gerber Fmt 4.6, Leading zero omitted, Abs format (unit mm)*
G04 Created by KiCad (PCBNEW 4.0.4-stable) date 05/18/17 09:07:34*
%MOMM*%
%LPD*%
G01*
G04 APERTURE LIST*
%ADD10C,0.100000*%
%ADD11R,2.599640X1.499820*%
%ADD12R,1.400760X1.400760*%
%ADD13R,1.451560X1.400760*%
%ADD14R,1.200000X0.750000*%
%ADD15R,0.750000X1.200000*%
%ADD16C,2.400000*%
%ADD17R,0.650000X1.400000*%
%ADD18R,1.400000X0.650000*%
%ADD19R,1.150000X1.600000*%
%ADD20R,1.300000X1.600000*%
%ADD21R,1.900000X1.700000*%
%ADD22R,1.600000X1.300000*%
%ADD23R,2.432000X2.432000*%
%ADD24O,2.432000X2.432000*%
%ADD25R,0.900000X1.000000*%
%ADD26R,1.000000X0.900000*%
%ADD27R,1.600000X1.150000*%
%ADD28R,1.598880X1.598880*%
%ADD29R,4.464000X1.924000*%
%ADD30R,2.127200X2.432000*%
%ADD31O,2.127200X2.432000*%
%ADD32R,2.127200X2.127200*%
%ADD33O,2.127200X2.127200*%
%ADD34R,2.000000X2.580000*%
%ADD35R,1.050000X0.700000*%
%ADD36C,1.900000*%
%ADD37R,1.950000X1.000000*%
%ADD38R,0.900380X2.701240*%
%ADD39R,2.398980X2.899360*%
%ADD40C,1.299160*%
%ADD41R,1.100000X0.650000*%
%ADD42R,0.650000X1.100000*%
%ADD43R,1.687500X1.687500*%
%ADD44R,2.500000X2.200000*%
G04 APERTURE END LIST*
D10*
D11*
X70000000Y-43300680D03*
X70000000Y-40400000D03*
D12*
X68498860Y-41850340D03*
D13*
X71501140Y-41850340D03*
D14*
X78600000Y-52050000D03*
X78600000Y-51400000D03*
X78600000Y-50750000D03*
X78600000Y-50100000D03*
D15*
X77275000Y-48775000D03*
X76625000Y-48775000D03*
X75975000Y-48775000D03*
X75325000Y-48775000D03*
D14*
X74000000Y-50100000D03*
X74000000Y-50750000D03*
X74000000Y-51400000D03*
X74000000Y-52050000D03*
D15*
X75325000Y-53375000D03*
X75975000Y-53375000D03*
X76625000Y-53375000D03*
X77275000Y-53375000D03*
D16*
X76300000Y-51075000D03*
D17*
X94770000Y-57200000D03*
X95270000Y-57200000D03*
X95770000Y-57200000D03*
X96270000Y-57200000D03*
X96770000Y-57200000D03*
X97270000Y-57200000D03*
X97770000Y-57200000D03*
X98270000Y-57200000D03*
X98770000Y-57200000D03*
X99270000Y-57200000D03*
X99770000Y-57200000D03*
X100270000Y-57200000D03*
X100770000Y-57200000D03*
X101270000Y-57200000D03*
X101770000Y-57200000D03*
X102270000Y-57200000D03*
D18*
X104220000Y-55250000D03*
X104220000Y-54750000D03*
X104220000Y-54250000D03*
X104220000Y-53750000D03*
X104220000Y-53250000D03*
X104220000Y-52750000D03*
X104220000Y-52250000D03*
X104220000Y-51750000D03*
X104220000Y-51250000D03*
X104220000Y-50750000D03*
X104220000Y-50250000D03*
X104220000Y-49750000D03*
X104220000Y-49250000D03*
X104220000Y-48750000D03*
X104220000Y-48250000D03*
X104220000Y-47750000D03*
D17*
X102270000Y-45800000D03*
X101770000Y-45800000D03*
X101270000Y-45800000D03*
X100770000Y-45800000D03*
X100270000Y-45800000D03*
X99770000Y-45800000D03*
X99270000Y-45800000D03*
X98770000Y-45800000D03*
X98270000Y-45800000D03*
X97770000Y-45800000D03*
X97270000Y-45800000D03*
X96770000Y-45800000D03*
X96270000Y-45800000D03*
X95770000Y-45800000D03*
X95270000Y-45800000D03*
X94770000Y-45800000D03*
D18*
X92820000Y-47750000D03*
X92820000Y-48250000D03*
X92820000Y-48750000D03*
X92820000Y-49250000D03*
X92820000Y-49750000D03*
X92820000Y-50250000D03*
X92820000Y-50750000D03*
X92820000Y-51250000D03*
X92820000Y-51750000D03*
X92820000Y-52250000D03*
X92820000Y-52750000D03*
X92820000Y-53250000D03*
X92820000Y-53750000D03*
X92820000Y-54250000D03*
X92820000Y-54750000D03*
X92820000Y-55250000D03*
D19*
X106800000Y-55300000D03*
X106800000Y-57200000D03*
D20*
X106320000Y-61680000D03*
X106320000Y-59480000D03*
D21*
X73000000Y-66800000D03*
X70300000Y-66800000D03*
D22*
X108600000Y-49800000D03*
X110800000Y-49800000D03*
D23*
X65900000Y-66900000D03*
D24*
X65900000Y-64360000D03*
D19*
X88100000Y-58700000D03*
X88100000Y-56800000D03*
D25*
X69013500Y-52700000D03*
X69013500Y-51600000D03*
D19*
X71800000Y-46300000D03*
X71800000Y-48200000D03*
X73100000Y-46300000D03*
X73100000Y-48200000D03*
D25*
X70700000Y-52700000D03*
X70700000Y-51600000D03*
D26*
X71900000Y-51400000D03*
X70800000Y-51400000D03*
D19*
X75000000Y-55600000D03*
X75000000Y-57500000D03*
X73500000Y-55600000D03*
X73500000Y-57500000D03*
X78200000Y-55600000D03*
X78200000Y-57500000D03*
X79700000Y-55600000D03*
X79700000Y-57500000D03*
D27*
X79950000Y-46900000D03*
X78050000Y-46900000D03*
X81100000Y-45600000D03*
X79200000Y-45600000D03*
D19*
X83100000Y-56300000D03*
X83100000Y-58200000D03*
X84700000Y-56300000D03*
X84700000Y-58200000D03*
X79260000Y-41300000D03*
X79260000Y-43200000D03*
X87600000Y-40600000D03*
X87600000Y-42500000D03*
D27*
X89800000Y-45300000D03*
X87900000Y-45300000D03*
D19*
X90600000Y-55500000D03*
X90600000Y-57400000D03*
D27*
X75800000Y-66900000D03*
X77700000Y-66900000D03*
X83200000Y-62300000D03*
X85100000Y-62300000D03*
D19*
X89800000Y-60800000D03*
X89800000Y-62700000D03*
D27*
X81200000Y-60700000D03*
X79300000Y-60700000D03*
D19*
X101500000Y-60100000D03*
X101500000Y-62000000D03*
X88000000Y-60750000D03*
X88000000Y-62650000D03*
D27*
X75500000Y-60700000D03*
X77400000Y-60700000D03*
D19*
X71600000Y-60700000D03*
X71600000Y-62600000D03*
D28*
X92000000Y-61800000D03*
X92000000Y-63898040D03*
D25*
X69013500Y-50181000D03*
X69013500Y-51281000D03*
D26*
X69400000Y-51408000D03*
X70500000Y-51408000D03*
D27*
X83200000Y-60700000D03*
X85100000Y-60700000D03*
D29*
X65059000Y-51427000D03*
X65059000Y-48887000D03*
X65059000Y-53967000D03*
D11*
X75098860Y-43300680D03*
X75098860Y-40400000D03*
D12*
X73597720Y-41850340D03*
D13*
X76600000Y-41850340D03*
D30*
X104180000Y-42200000D03*
D31*
X101640000Y-42200000D03*
X99100000Y-42200000D03*
D30*
X95480000Y-42200000D03*
D31*
X92940000Y-42200000D03*
X90400000Y-42200000D03*
D32*
X107800000Y-42200000D03*
D33*
X110340000Y-42200000D03*
X107800000Y-44740000D03*
X110340000Y-44740000D03*
X107800000Y-47280000D03*
X110340000Y-47280000D03*
D20*
X106600000Y-51100000D03*
X106600000Y-53300000D03*
X76600000Y-55600000D03*
X76600000Y-57800000D03*
X104890000Y-61680000D03*
X104890000Y-59480000D03*
X73300000Y-60400000D03*
X73300000Y-62600000D03*
X69900000Y-62600000D03*
X69900000Y-60400000D03*
X92000000Y-65900000D03*
X92000000Y-68100000D03*
X94000000Y-65900000D03*
X94000000Y-68100000D03*
X96000000Y-65900000D03*
X96000000Y-68100000D03*
X98000000Y-65900000D03*
X98000000Y-68100000D03*
D34*
X110297680Y-62202430D03*
X110302320Y-52997570D03*
D35*
X78850000Y-64900000D03*
X78850000Y-64400000D03*
X78850000Y-63900000D03*
X78850000Y-63400000D03*
X78850000Y-62900000D03*
X75350000Y-62900000D03*
X75350000Y-63400000D03*
X75350000Y-63900000D03*
X75350000Y-64400000D03*
X75350000Y-64900000D03*
D36*
X77100000Y-63900000D03*
D11*
X65500000Y-45600680D03*
X65500000Y-42700000D03*
D12*
X63998860Y-44150340D03*
D13*
X67001140Y-44150340D03*
D28*
X94000000Y-61801960D03*
X94000000Y-63900000D03*
X96000000Y-61800000D03*
X96000000Y-63898040D03*
X98000000Y-61800000D03*
X98000000Y-63898040D03*
X80200000Y-67401960D03*
X80200000Y-69500000D03*
D22*
X78000000Y-69500000D03*
X75800000Y-69500000D03*
D37*
X82670000Y-64845000D03*
X82670000Y-66115000D03*
X82670000Y-67385000D03*
X82670000Y-68655000D03*
X89670000Y-68655000D03*
X89670000Y-67385000D03*
X89670000Y-66115000D03*
X89670000Y-64845000D03*
D38*
X104399800Y-64550680D03*
X105199900Y-64550680D03*
X106000000Y-64550680D03*
X106800100Y-64550680D03*
X107600200Y-64550680D03*
D39*
X101549920Y-65649740D03*
X101549920Y-71148840D03*
X110450080Y-65649740D03*
X110450080Y-71148840D03*
D40*
X103800360Y-68149100D03*
X108199640Y-68149100D03*
D41*
X81600000Y-47740000D03*
X81600000Y-48240000D03*
X81600000Y-48740000D03*
X81600000Y-49240000D03*
X81600000Y-49740000D03*
X81600000Y-50240000D03*
X81600000Y-50740000D03*
X81600000Y-51240000D03*
X81600000Y-51740000D03*
X81600000Y-52240000D03*
X81600000Y-52740000D03*
X81600000Y-53240000D03*
D42*
X82550000Y-54190000D03*
X83050000Y-54190000D03*
X83550000Y-54190000D03*
X84050000Y-54190000D03*
X84550000Y-54190000D03*
X85050000Y-54190000D03*
X85550000Y-54190000D03*
X86050000Y-54190000D03*
X86550000Y-54190000D03*
X87050000Y-54190000D03*
X87550000Y-54190000D03*
X88050000Y-54190000D03*
D41*
X89000000Y-53240000D03*
X89000000Y-52740000D03*
X89000000Y-52240000D03*
X89000000Y-51740000D03*
X89000000Y-51240000D03*
X89000000Y-50740000D03*
X89000000Y-50240000D03*
X89000000Y-49740000D03*
X89000000Y-49240000D03*
X89000000Y-48740000D03*
X89000000Y-48240000D03*
X89000000Y-47740000D03*
D42*
X88050000Y-46790000D03*
X87550000Y-46790000D03*
X87050000Y-46790000D03*
X86550000Y-46790000D03*
X86050000Y-46790000D03*
X85550000Y-46790000D03*
X85050000Y-46790000D03*
X84550000Y-46790000D03*
X84050000Y-46790000D03*
X83550000Y-46790000D03*
X83050000Y-46790000D03*
X82550000Y-46790000D03*
D43*
X85943750Y-51133750D03*
X85943750Y-49846250D03*
X84656250Y-51133750D03*
X84656250Y-49846250D03*
D44*
X82070000Y-43210000D03*
X84970000Y-43210000D03*
X84970000Y-40910000D03*
X82070000Y-40910000D03*
M02*
