G04 #@! TF.FileFunction,Copper,L4,Bot,Signal*
%FSLAX46Y46*%
G04 Gerber Fmt 4.6, Leading zero omitted, Abs format (unit mm)*
G04 Created by KiCad (PCBNEW 4.0.4-stable) date 05/31/17 00:38:46*
%MOMM*%
%LPD*%
G01*
G04 APERTURE LIST*
%ADD10C,0.100000*%
%ADD11C,0.300000*%
%ADD12C,3.000000*%
%ADD13C,2.500000*%
%ADD14R,2.032000X2.032000*%
%ADD15O,2.032000X2.032000*%
%ADD16R,1.200000X0.750000*%
%ADD17R,0.750000X1.200000*%
%ADD18R,4.064000X1.524000*%
%ADD19R,1.727200X2.032000*%
%ADD20O,1.727200X2.032000*%
%ADD21R,1.727200X1.727200*%
%ADD22O,1.727200X1.727200*%
%ADD23R,1.200000X0.900000*%
%ADD24O,1.600000X2.400000*%
%ADD25C,0.600000*%
%ADD26C,0.250000*%
%ADD27C,0.500000*%
%ADD28C,0.254000*%
G04 APERTURE END LIST*
D10*
D11*
X71838572Y-70542857D02*
X71838572Y-71342857D01*
X71552858Y-70085714D02*
X71267143Y-70942857D01*
X72010001Y-70942857D01*
D12*
X85300000Y-50520000D03*
D13*
X76290000Y-51075000D03*
D14*
X65900000Y-66900000D03*
D15*
X65900000Y-64360000D03*
D16*
X100900000Y-48200000D03*
X99000000Y-48200000D03*
D17*
X96200000Y-48600000D03*
X96200000Y-50500000D03*
X102940000Y-52460000D03*
X102940000Y-50560000D03*
D16*
X102200000Y-46700000D03*
X100300000Y-46700000D03*
D17*
X94700000Y-48600000D03*
X94700000Y-50500000D03*
X94720000Y-54260000D03*
X94720000Y-52360000D03*
D18*
X65059000Y-48887000D03*
X65059000Y-53967000D03*
D19*
X104180000Y-42200000D03*
D20*
X101640000Y-42200000D03*
X99100000Y-42200000D03*
D19*
X95480000Y-42200000D03*
D20*
X92940000Y-42200000D03*
X90400000Y-42200000D03*
D21*
X107800000Y-42200000D03*
D22*
X110340000Y-42200000D03*
X107800000Y-44740000D03*
X110340000Y-44740000D03*
X107800000Y-47280000D03*
X110340000Y-47280000D03*
D23*
X74400000Y-46400000D03*
X76600000Y-46400000D03*
X89750000Y-44800000D03*
X87550000Y-44800000D03*
X93900000Y-44800000D03*
X91700000Y-44800000D03*
D24*
X77090000Y-63360000D03*
D25*
X74950000Y-59490000D03*
X76570000Y-59550000D03*
X78210000Y-59570000D03*
X79670000Y-59560000D03*
X79670000Y-58610000D03*
X78190000Y-58620000D03*
X76550000Y-58620000D03*
X74950000Y-58580000D03*
X73470000Y-58580000D03*
X98440000Y-53680000D03*
X96220000Y-53710000D03*
X89430000Y-55290000D03*
X88560000Y-55300000D03*
X87560000Y-55300000D03*
X74550000Y-49320000D03*
X103170000Y-63220000D03*
X103170000Y-61870000D03*
X103150000Y-60330000D03*
X103150000Y-58960000D03*
X72800000Y-64650000D03*
X71310000Y-64650000D03*
X69930000Y-64650000D03*
X72800000Y-68660000D03*
X71360000Y-68660000D03*
X70010000Y-68680000D03*
X68680000Y-68650000D03*
X68180000Y-64630000D03*
X68180000Y-63130000D03*
X68110000Y-61680000D03*
X89320000Y-71360000D03*
X87690000Y-71380000D03*
X86000000Y-71330000D03*
X84400000Y-71320000D03*
X82860000Y-71310000D03*
X71750000Y-50020000D03*
X70660000Y-50020000D03*
X67130000Y-49840000D03*
X67270000Y-45670000D03*
X101600000Y-50300000D03*
X99700000Y-49700000D03*
X100500000Y-50300000D03*
X84200000Y-43600000D03*
X84900000Y-44200000D03*
X84970000Y-43210000D03*
X90500000Y-47470000D03*
X80340000Y-40480000D03*
X71800000Y-44700000D03*
X105700000Y-48000000D03*
X105700000Y-46800000D03*
X109000000Y-39800000D03*
X106400000Y-39800000D03*
X98400000Y-39800000D03*
X103046000Y-39800000D03*
X88800000Y-42100000D03*
X90500000Y-46600000D03*
X94000000Y-39800000D03*
X92000000Y-39900000D03*
X90300000Y-39900000D03*
X88800000Y-40200000D03*
X69400000Y-46400000D03*
X77600000Y-40300000D03*
X67400000Y-40400000D03*
X72500000Y-40300000D03*
X69300000Y-44700000D03*
X109700000Y-57700000D03*
X108425000Y-57600000D03*
X108400000Y-59100000D03*
X109700000Y-59100000D03*
X110900000Y-59100000D03*
X110900000Y-57800000D03*
X110900000Y-56400000D03*
X109700000Y-56400000D03*
X108500000Y-56400000D03*
X100000000Y-63400000D03*
X100000000Y-62100000D03*
X100000000Y-60900000D03*
X100000000Y-59800000D03*
X108500000Y-66500000D03*
X106700000Y-67300000D03*
X106700000Y-68800000D03*
X106700000Y-70200000D03*
X107800000Y-71800000D03*
X106300000Y-71800000D03*
X104900000Y-71800000D03*
X97500000Y-71400000D03*
X96400000Y-71400000D03*
X95200000Y-71400000D03*
X94000000Y-71400000D03*
X92800000Y-71400000D03*
X82900000Y-59300000D03*
X83900000Y-59300000D03*
X78725000Y-61900000D03*
X88900000Y-63700000D03*
X90600000Y-63700000D03*
X87200000Y-63700000D03*
X78300000Y-68000000D03*
X71800000Y-57500000D03*
X70600000Y-57500000D03*
X67200000Y-48900000D03*
X97240000Y-53080000D03*
X98300000Y-52700000D03*
X97600000Y-52000000D03*
X96800000Y-51200000D03*
X96200000Y-51800000D03*
X99540000Y-50990000D03*
X98890000Y-50410000D03*
X98230000Y-49870000D03*
X97600000Y-47100000D03*
X97600000Y-48100000D03*
X97530000Y-49190000D03*
X68000000Y-52710000D03*
X72700000Y-52700000D03*
X67120000Y-53120000D03*
X66200000Y-53120000D03*
X63910000Y-53090000D03*
X65060000Y-53120000D03*
X66100000Y-49780000D03*
X64930000Y-49780000D03*
X63700000Y-49790000D03*
X96000000Y-52600000D03*
X74700000Y-45325000D03*
X65100000Y-58000000D03*
X64100000Y-58000000D03*
X65900000Y-58000000D03*
X67500000Y-58000000D03*
X65900000Y-59300000D03*
X65900000Y-61400000D03*
X67300000Y-46950000D03*
X66550000Y-46950000D03*
X65300000Y-46950000D03*
X63880000Y-47000000D03*
X72000000Y-53200000D03*
X70600000Y-53800000D03*
X69000000Y-53800000D03*
X67900000Y-55100000D03*
X64100000Y-55900000D03*
X67000000Y-55900000D03*
X66000000Y-55900000D03*
X65100000Y-55900000D03*
X70400000Y-48900000D03*
X69000000Y-48900000D03*
X101440000Y-55580000D03*
X108000000Y-53300000D03*
X102200000Y-48200000D03*
X95500000Y-47400000D03*
X80700000Y-55600000D03*
X80990000Y-58630000D03*
X71300000Y-59200000D03*
X89100000Y-54199999D03*
X72800000Y-49700000D03*
X78000000Y-54300000D03*
X74200000Y-55600000D03*
X74200000Y-48200000D03*
X82050000Y-62600000D03*
X86050000Y-48180000D03*
X84550000Y-48160000D03*
X82500000Y-45300000D03*
X85700000Y-53000000D03*
X84200000Y-52700000D03*
X88100000Y-52700000D03*
X80000000Y-47900000D03*
X83100000Y-52700000D03*
X82050000Y-56700000D03*
X84300000Y-67390000D03*
X88040000Y-64810000D03*
X101500000Y-58700000D03*
X103400000Y-46700000D03*
X94645863Y-55654137D03*
X94645863Y-47202849D03*
X92800000Y-56300000D03*
X91400000Y-59700000D03*
X102800000Y-54200000D03*
X75800000Y-68400000D03*
X105000000Y-70300000D03*
X95566000Y-55664000D03*
X76700000Y-47400000D03*
X83300000Y-45700000D03*
X105990000Y-58400000D03*
X104400000Y-58000000D03*
X91400000Y-53500000D03*
X96366003Y-55664000D03*
X75900000Y-47400000D03*
X91600000Y-56500000D03*
X86100000Y-56500000D03*
X101867722Y-53352199D03*
X87930000Y-67400000D03*
X101130000Y-52350000D03*
X83990000Y-66180000D03*
X100360000Y-51710000D03*
X84680000Y-65070000D03*
X83000000Y-48200000D03*
X77400000Y-43100000D03*
X72900000Y-43400000D03*
X83000000Y-49200000D03*
X84380000Y-64090000D03*
X97330000Y-55690000D03*
D26*
X94720000Y-52360000D02*
X94720000Y-50520000D01*
X94720000Y-50520000D02*
X94700000Y-50500000D01*
X86000000Y-71330000D02*
X87640000Y-71330000D01*
X87640000Y-71330000D02*
X87690000Y-71380000D01*
X82860000Y-71310000D02*
X84390000Y-71310000D01*
X84390000Y-71310000D02*
X84400000Y-71320000D01*
X65059000Y-48887000D02*
X65059000Y-47875000D01*
X65059000Y-47875000D02*
X66534000Y-46400000D01*
X66534000Y-46400000D02*
X73550000Y-46400000D01*
X73550000Y-46400000D02*
X74400000Y-46400000D01*
X65059000Y-48887000D02*
X64603000Y-48887000D01*
X64603000Y-48887000D02*
X63700000Y-49790000D01*
X65059000Y-53967000D02*
X64787000Y-53967000D01*
X64787000Y-53967000D02*
X63910000Y-53090000D01*
X65059000Y-53967000D02*
X65059000Y-48887000D01*
X84900000Y-44200000D02*
X84900000Y-43280000D01*
X84900000Y-43280000D02*
X84970000Y-43210000D01*
X84970000Y-43210000D02*
X84590000Y-43210000D01*
X84590000Y-43210000D02*
X84200000Y-43600000D01*
X84900000Y-44200000D02*
X84800000Y-44200000D01*
X84800000Y-44200000D02*
X84200000Y-43600000D01*
X107800000Y-47280000D02*
X106180000Y-47280000D01*
X106180000Y-47280000D02*
X105700000Y-46800000D01*
X106400000Y-39800000D02*
X109000000Y-39800000D01*
X97600000Y-48100000D02*
X97600000Y-47100000D01*
X97530000Y-49190000D02*
X97530000Y-48170000D01*
X97530000Y-48170000D02*
X97600000Y-48100000D01*
X98230000Y-49870000D02*
X98210000Y-49870000D01*
X98210000Y-49870000D02*
X97530000Y-49190000D01*
X98230000Y-49870000D02*
X98270000Y-49870000D01*
X98230000Y-49870000D02*
X99000000Y-49100000D01*
X97600000Y-50500000D02*
X98230000Y-49870000D01*
X107201314Y-49100000D02*
X102730000Y-49100000D01*
X102730000Y-49100000D02*
X99000000Y-49100000D01*
X102730000Y-50110000D02*
X102730000Y-49100000D01*
X107800000Y-47280000D02*
X107800000Y-48501314D01*
X107800000Y-48501314D02*
X107201314Y-49100000D01*
X74400000Y-46400000D02*
X74400000Y-45625000D01*
X74400000Y-45625000D02*
X74700000Y-45325000D01*
X89750000Y-44800000D02*
X89750000Y-42850000D01*
X89750000Y-42850000D02*
X90400000Y-42200000D01*
X99000000Y-47100000D02*
X99400000Y-46700000D01*
X99400000Y-46700000D02*
X100300000Y-46700000D01*
X99000000Y-48200000D02*
X99000000Y-47100000D01*
X96200000Y-50500000D02*
X97600000Y-50500000D01*
X99000000Y-49100000D02*
X99000000Y-48200000D01*
X96200000Y-50500000D02*
X94700000Y-50500000D01*
D27*
X101440000Y-55580000D02*
X105720000Y-55580000D01*
X105720000Y-55580000D02*
X108000000Y-53300000D01*
X102200000Y-48200000D02*
X100900000Y-48200000D01*
X95500000Y-47400000D02*
X96200000Y-48100000D01*
X96200000Y-48100000D02*
X96200000Y-48600000D01*
X89100000Y-54199999D02*
X83580000Y-54199999D01*
X83580000Y-54199999D02*
X83100001Y-54199999D01*
X81009999Y-55300001D02*
X82110001Y-54199999D01*
X82110001Y-54199999D02*
X83580000Y-54199999D01*
X80700000Y-55600000D02*
X80999999Y-55300001D01*
X80999999Y-55300001D02*
X81009999Y-55300001D01*
X94645863Y-54754137D02*
X94645863Y-55654137D01*
X102800000Y-54200000D02*
X102800000Y-52930000D01*
X103400000Y-46700000D02*
X102200000Y-46700000D01*
X94645863Y-47202849D02*
X94645863Y-48545863D01*
X94645863Y-48545863D02*
X94700000Y-48600000D01*
X105000000Y-70300000D02*
X78600000Y-70300000D01*
X78600000Y-70300000D02*
X77700000Y-70300000D01*
X77700000Y-70300000D02*
X75800000Y-68400000D01*
X93900000Y-44800000D02*
X107740000Y-44800000D01*
X107740000Y-44800000D02*
X107800000Y-44740000D01*
D26*
X76700000Y-47400000D02*
X76700000Y-46500000D01*
X76700000Y-46500000D02*
X76600000Y-46400000D01*
X81125001Y-57325001D02*
X92264000Y-57325001D01*
X95566000Y-55664000D02*
X93904999Y-57325001D01*
X93904999Y-57325001D02*
X92264000Y-57325001D01*
X79600000Y-51200000D02*
X79600000Y-55800000D01*
X79600000Y-51200000D02*
X79600000Y-50300000D01*
X79600000Y-50300000D02*
X76700000Y-47400000D01*
X79600000Y-55800000D02*
X81125001Y-57325001D01*
D27*
X87550000Y-44800000D02*
X86650000Y-45700000D01*
X86650000Y-45700000D02*
X83300000Y-45700000D01*
X104400000Y-58000000D02*
X105590000Y-58000000D01*
X105590000Y-58000000D02*
X105990000Y-58400000D01*
X91400000Y-53500000D02*
X91400000Y-45100000D01*
X91400000Y-45100000D02*
X91700000Y-44800000D01*
D26*
X75900000Y-47400000D02*
X75900000Y-47525002D01*
X75900000Y-47525002D02*
X78100000Y-49725002D01*
X78100000Y-49725002D02*
X78125002Y-49725002D01*
X78125002Y-49725002D02*
X79149990Y-50749990D01*
X79149990Y-50749990D02*
X79149990Y-55986400D01*
X79149990Y-55986400D02*
X80938601Y-57775011D01*
X80938601Y-57775011D02*
X94379991Y-57775011D01*
X94379991Y-57775011D02*
X95820000Y-56335002D01*
X95820000Y-56335002D02*
X95820000Y-56330000D01*
X96160000Y-55870003D02*
X96366003Y-55664000D01*
X95820000Y-56330000D02*
X96160000Y-55990000D01*
X96160000Y-55990000D02*
X96160000Y-55870003D01*
X96366003Y-55664000D02*
X96366003Y-55788999D01*
D27*
X86100000Y-56500000D02*
X91600000Y-56500000D01*
D26*
X100100019Y-55117803D02*
X100102118Y-55117803D01*
X100102118Y-55117803D02*
X101867722Y-53352199D01*
X87040000Y-67400000D02*
X87930000Y-67400000D01*
X86270000Y-65130000D02*
X86270000Y-66630000D01*
X86270000Y-66630000D02*
X87040000Y-67400000D01*
X86270000Y-61786412D02*
X86270000Y-65130000D01*
X92746439Y-60775011D02*
X87281401Y-60775011D01*
X87281401Y-60775011D02*
X86270000Y-61786412D01*
X94800000Y-59575050D02*
X93946400Y-59575050D01*
X93946400Y-59575050D02*
X92746439Y-60775011D01*
X95470588Y-59575050D02*
X94800000Y-59575050D01*
X100100019Y-55117803D02*
X95642772Y-59575050D01*
X95642772Y-59575050D02*
X95470588Y-59575050D01*
X100160000Y-53320000D02*
X101130000Y-52350000D01*
X99650011Y-53820000D02*
X99650011Y-54931401D01*
X100160000Y-53320000D02*
X100150011Y-53320000D01*
X100150011Y-53320000D02*
X99650011Y-53820000D01*
X92560039Y-60325001D02*
X87095001Y-60325001D01*
X87095001Y-60325001D02*
X85640000Y-61780002D01*
X99650011Y-54931401D02*
X95456372Y-59125040D01*
X95456372Y-59125040D02*
X93760000Y-59125040D01*
X85640000Y-61780002D02*
X85640000Y-65035002D01*
X93760000Y-59125040D02*
X92560039Y-60325001D01*
X85640000Y-65035002D02*
X84495002Y-66180000D01*
X84495002Y-66180000D02*
X83990000Y-66180000D01*
X100360000Y-51710000D02*
X99200001Y-52869999D01*
X99200001Y-52869999D02*
X99200001Y-54745001D01*
X99200001Y-54745001D02*
X95269972Y-58675030D01*
X86554970Y-58675030D02*
X85005001Y-60224999D01*
X95269972Y-58675030D02*
X91499968Y-58675030D01*
X91499968Y-58675030D02*
X91484998Y-58690000D01*
X91484998Y-58690000D02*
X87380000Y-58690000D01*
X87380000Y-58690000D02*
X87365030Y-58675030D01*
X87365030Y-58675030D02*
X86554970Y-58675030D01*
X85005001Y-60224999D02*
X85005001Y-64744999D01*
X85005001Y-64744999D02*
X84680000Y-65070000D01*
X77400000Y-43100000D02*
X78310000Y-44010000D01*
X80714158Y-44999945D02*
X80756044Y-45052468D01*
X79865632Y-44575683D02*
X78875683Y-45565632D01*
X78395981Y-44255721D02*
X78381032Y-44321215D01*
X80756044Y-45052468D02*
X80785190Y-45112993D01*
X78310000Y-44010000D02*
X78351885Y-44062522D01*
X78789701Y-45811354D02*
X78804650Y-45876848D01*
X78789701Y-45744175D02*
X78789701Y-45811354D01*
X78027157Y-44717106D02*
X77985272Y-44769629D01*
X78351885Y-44381741D02*
X78310000Y-44434264D01*
X78804650Y-45678681D02*
X78789701Y-45744175D01*
X78079679Y-45183255D02*
X78140205Y-45212402D01*
X79907518Y-44203942D02*
X79936664Y-44264467D01*
X77985272Y-45088848D02*
X78027157Y-45141370D01*
X79554417Y-44080386D02*
X79619912Y-44065438D01*
X80360282Y-46018267D02*
X80389430Y-46078793D01*
X80389430Y-46078793D02*
X80431316Y-46131316D01*
X78804650Y-45876848D02*
X78833798Y-45937374D01*
X78351885Y-44062522D02*
X78381032Y-44123048D01*
X78381032Y-44123048D02*
X78395981Y-44188542D01*
X80601111Y-44928913D02*
X80661637Y-44958061D01*
X78946395Y-44646395D02*
X79441370Y-44151421D01*
X80360283Y-45820101D02*
X80345333Y-45885594D01*
X80468438Y-44913964D02*
X80535616Y-44913963D01*
X78395981Y-44188542D02*
X78395981Y-44255721D01*
X80661637Y-44958061D02*
X80714158Y-44999945D01*
X78381032Y-44321215D02*
X78351885Y-44381741D01*
X78338372Y-45212402D02*
X78398898Y-45183255D01*
X77941175Y-44962828D02*
X77956124Y-45028322D01*
X77956124Y-44830155D02*
X77941175Y-44895649D01*
X78205699Y-45227351D02*
X78272878Y-45227351D01*
X78272878Y-45227351D02*
X78338372Y-45212402D01*
X80389431Y-45759575D02*
X80360283Y-45820101D01*
X78310000Y-44434264D02*
X78027157Y-44717106D01*
X77985272Y-44769629D02*
X77956124Y-44830155D01*
X78928205Y-46031781D02*
X78988731Y-46060928D01*
X78875683Y-45565632D02*
X78833798Y-45618155D01*
X79687090Y-44065437D02*
X79752585Y-44080387D01*
X77941175Y-44895649D02*
X77941175Y-44962828D01*
X77956124Y-45028322D02*
X77985272Y-45088848D01*
X78027157Y-45141370D02*
X78079679Y-45183255D01*
X79299947Y-45989896D02*
X80289896Y-44999947D01*
X79619912Y-44065438D02*
X79687090Y-44065437D01*
X78875683Y-45989896D02*
X78928205Y-46031781D01*
X78140205Y-45212402D02*
X78205699Y-45227351D01*
X79493891Y-44109534D02*
X79554417Y-44080386D01*
X78398898Y-45183255D02*
X78451421Y-45141370D01*
X78988731Y-46060928D02*
X79054225Y-46075877D01*
X79951613Y-44397140D02*
X79936665Y-44462635D01*
X80345333Y-45885594D02*
X80345334Y-45952774D01*
X80342417Y-44958060D02*
X80402943Y-44928912D01*
X78451421Y-45141370D02*
X78946395Y-44646395D01*
X79752585Y-44080387D02*
X79813111Y-44109535D01*
X79441370Y-44151421D02*
X79493891Y-44109534D01*
X79813111Y-44109535D02*
X79865632Y-44151419D01*
X80431316Y-45707052D02*
X80389431Y-45759575D01*
X80345334Y-45952774D02*
X80360282Y-46018267D01*
X79865632Y-44151419D02*
X79907518Y-44203942D01*
X78833798Y-45618155D02*
X78804650Y-45678681D01*
X79936664Y-44264467D02*
X79951614Y-44329962D01*
X80785190Y-45112993D02*
X80800140Y-45178488D01*
X79951614Y-44329962D02*
X79951613Y-44397140D01*
X79936665Y-44462635D02*
X79907517Y-44523160D01*
X79907517Y-44523160D02*
X79865632Y-44575683D01*
X78833798Y-45937374D02*
X78875683Y-45989896D01*
X79054225Y-46075877D02*
X79121404Y-46075877D01*
X79121404Y-46075877D02*
X79186898Y-46060928D01*
X79186898Y-46060928D02*
X79247424Y-46031781D01*
X80535616Y-44913963D02*
X80601111Y-44928913D01*
X79247424Y-46031781D02*
X79299947Y-45989896D01*
X80289896Y-44999947D02*
X80342417Y-44958060D01*
X80431316Y-46131316D02*
X82500000Y-48200000D01*
X80402943Y-44928912D02*
X80468438Y-44913964D01*
X80714158Y-45424209D02*
X80431316Y-45707052D01*
X80800140Y-45178488D02*
X80800139Y-45245666D01*
X80800139Y-45245666D02*
X80785191Y-45311161D01*
X80785191Y-45311161D02*
X80756043Y-45371686D01*
X80756043Y-45371686D02*
X80714158Y-45424209D01*
X82500000Y-48200000D02*
X83000000Y-48200000D01*
X78310000Y-47135002D02*
X78310000Y-46474998D01*
X78310000Y-46474998D02*
X76335002Y-44500000D01*
X76335002Y-44500000D02*
X74000000Y-44500000D01*
X83000000Y-49200000D02*
X80374998Y-49200000D01*
X80374998Y-49200000D02*
X78310000Y-47135002D01*
X72900000Y-43400000D02*
X74000000Y-44500000D01*
X97330000Y-55690000D02*
X94794980Y-58225020D01*
X94794980Y-58225020D02*
X86144980Y-58225020D01*
X86144980Y-58225020D02*
X84380000Y-59990000D01*
X84380000Y-59990000D02*
X84380000Y-64090000D01*
D28*
G36*
X109356609Y-39620877D02*
X110399536Y-39828328D01*
X111162126Y-40337874D01*
X111671857Y-41100740D01*
X111879243Y-42138609D01*
X111890000Y-42164515D01*
X111890000Y-69517291D01*
X111873712Y-69556614D01*
X111666261Y-70599541D01*
X111156715Y-71362131D01*
X110393849Y-71871862D01*
X109355980Y-72079248D01*
X109330086Y-72090000D01*
X72816429Y-72090000D01*
X72816429Y-69175000D01*
X70403572Y-69175000D01*
X70403572Y-69183000D01*
X65670000Y-69183000D01*
X65623841Y-69191685D01*
X65581447Y-69218965D01*
X65553006Y-69260590D01*
X65543000Y-69310000D01*
X65543000Y-71974179D01*
X65000459Y-71866261D01*
X64237869Y-71356715D01*
X63728138Y-70593849D01*
X63520752Y-69555980D01*
X63510000Y-69530086D01*
X63510000Y-68585167D01*
X74864838Y-68585167D01*
X75006883Y-68928943D01*
X75269673Y-69192192D01*
X75390986Y-69242566D01*
X77074208Y-70925787D01*
X77074210Y-70925790D01*
X77361325Y-71117633D01*
X77417516Y-71128810D01*
X77700000Y-71185001D01*
X77700005Y-71185000D01*
X104693178Y-71185000D01*
X104813201Y-71234838D01*
X105185167Y-71235162D01*
X105528943Y-71093117D01*
X105792192Y-70830327D01*
X105934838Y-70486799D01*
X105935162Y-70114833D01*
X105793117Y-69771057D01*
X105530327Y-69507808D01*
X105186799Y-69365162D01*
X104814833Y-69364838D01*
X104693431Y-69415000D01*
X78066579Y-69415000D01*
X77015470Y-68363890D01*
X102715592Y-68363890D01*
X102880362Y-68762663D01*
X103185193Y-69068026D01*
X103583677Y-69233491D01*
X104015150Y-69233868D01*
X104413923Y-69069098D01*
X104719286Y-68764267D01*
X104884751Y-68365783D01*
X104884752Y-68363890D01*
X107114872Y-68363890D01*
X107279642Y-68762663D01*
X107584473Y-69068026D01*
X107982957Y-69233491D01*
X108414430Y-69233868D01*
X108813203Y-69069098D01*
X109118566Y-68764267D01*
X109284031Y-68365783D01*
X109284408Y-67934310D01*
X109119638Y-67535537D01*
X108814807Y-67230174D01*
X108416323Y-67064709D01*
X107984850Y-67064332D01*
X107586077Y-67229102D01*
X107280714Y-67533933D01*
X107115249Y-67932417D01*
X107114872Y-68363890D01*
X104884752Y-68363890D01*
X104885128Y-67934310D01*
X104720358Y-67535537D01*
X104415527Y-67230174D01*
X104017043Y-67064709D01*
X103585570Y-67064332D01*
X103186797Y-67229102D01*
X102881434Y-67533933D01*
X102715969Y-67932417D01*
X102715592Y-68363890D01*
X77015470Y-68363890D01*
X76642744Y-67991164D01*
X76593117Y-67871057D01*
X76330327Y-67607808D01*
X75986799Y-67465162D01*
X75614833Y-67464838D01*
X75271057Y-67606883D01*
X75007808Y-67869673D01*
X74865162Y-68213201D01*
X74864838Y-68585167D01*
X63510000Y-68585167D01*
X63510000Y-65884000D01*
X64236560Y-65884000D01*
X64236560Y-67916000D01*
X64280838Y-68151317D01*
X64419910Y-68367441D01*
X64632110Y-68512431D01*
X64884000Y-68563440D01*
X66916000Y-68563440D01*
X67151317Y-68519162D01*
X67367441Y-68380090D01*
X67512431Y-68167890D01*
X67563440Y-67916000D01*
X67563440Y-65884000D01*
X67519162Y-65648683D01*
X67380090Y-65432559D01*
X67167890Y-65287569D01*
X66916000Y-65236560D01*
X64884000Y-65236560D01*
X64648683Y-65280838D01*
X64432559Y-65419910D01*
X64287569Y-65632110D01*
X64236560Y-65884000D01*
X63510000Y-65884000D01*
X63510000Y-62785167D01*
X81114838Y-62785167D01*
X81256883Y-63128943D01*
X81519673Y-63392192D01*
X81863201Y-63534838D01*
X82235167Y-63535162D01*
X82578943Y-63393117D01*
X82842192Y-63130327D01*
X82984838Y-62786799D01*
X82985162Y-62414833D01*
X82843117Y-62071057D01*
X82580327Y-61807808D01*
X82236799Y-61665162D01*
X81864833Y-61664838D01*
X81521057Y-61806883D01*
X81257808Y-62069673D01*
X81115162Y-62413201D01*
X81114838Y-62785167D01*
X63510000Y-62785167D01*
X63510000Y-59385167D01*
X70364838Y-59385167D01*
X70506883Y-59728943D01*
X70769673Y-59992192D01*
X71113201Y-60134838D01*
X71485167Y-60135162D01*
X71828943Y-59993117D01*
X72092192Y-59730327D01*
X72234838Y-59386799D01*
X72235162Y-59014833D01*
X72093117Y-58671057D01*
X71830327Y-58407808D01*
X71486799Y-58265162D01*
X71114833Y-58264838D01*
X70771057Y-58406883D01*
X70507808Y-58669673D01*
X70365162Y-59013201D01*
X70364838Y-59385167D01*
X63510000Y-59385167D01*
X63510000Y-55785167D01*
X73264838Y-55785167D01*
X73406883Y-56128943D01*
X73669673Y-56392192D01*
X74013201Y-56534838D01*
X74385167Y-56535162D01*
X74728943Y-56393117D01*
X74992192Y-56130327D01*
X75134838Y-55786799D01*
X75135162Y-55414833D01*
X74993117Y-55071057D01*
X74730327Y-54807808D01*
X74386799Y-54665162D01*
X74014833Y-54664838D01*
X73671057Y-54806883D01*
X73407808Y-55069673D01*
X73265162Y-55413201D01*
X73264838Y-55785167D01*
X63510000Y-55785167D01*
X63510000Y-49885167D01*
X71864838Y-49885167D01*
X72006883Y-50228943D01*
X72269673Y-50492192D01*
X72613201Y-50634838D01*
X72985167Y-50635162D01*
X73328943Y-50493117D01*
X73592192Y-50230327D01*
X73734838Y-49886799D01*
X73735162Y-49514833D01*
X73593117Y-49171057D01*
X73330327Y-48907808D01*
X72986799Y-48765162D01*
X72614833Y-48764838D01*
X72271057Y-48906883D01*
X72007808Y-49169673D01*
X71865162Y-49513201D01*
X71864838Y-49885167D01*
X63510000Y-49885167D01*
X63510000Y-48385167D01*
X73264838Y-48385167D01*
X73406883Y-48728943D01*
X73669673Y-48992192D01*
X74013201Y-49134838D01*
X74385167Y-49135162D01*
X74728943Y-48993117D01*
X74992192Y-48730327D01*
X75134838Y-48386799D01*
X75135162Y-48014833D01*
X74993117Y-47671057D01*
X74730327Y-47407808D01*
X74386799Y-47265162D01*
X74014833Y-47264838D01*
X73671057Y-47406883D01*
X73407808Y-47669673D01*
X73265162Y-48013201D01*
X73264838Y-48385167D01*
X63510000Y-48385167D01*
X63510000Y-43585167D01*
X71964838Y-43585167D01*
X72106883Y-43928943D01*
X72369673Y-44192192D01*
X72713201Y-44334838D01*
X72760077Y-44334879D01*
X73462599Y-45037401D01*
X73709161Y-45202148D01*
X74000000Y-45260000D01*
X76020200Y-45260000D01*
X76062760Y-45302560D01*
X76000000Y-45302560D01*
X75764683Y-45346838D01*
X75548559Y-45485910D01*
X75403569Y-45698110D01*
X75352560Y-45950000D01*
X75352560Y-46625348D01*
X75107808Y-46869673D01*
X74965162Y-47213201D01*
X74964838Y-47585167D01*
X75106883Y-47928943D01*
X75369673Y-48192192D01*
X75579528Y-48279332D01*
X77562599Y-50262403D01*
X77637946Y-50312748D01*
X78389990Y-51064792D01*
X78389990Y-53449535D01*
X78186799Y-53365162D01*
X77814833Y-53364838D01*
X77471057Y-53506883D01*
X77207808Y-53769673D01*
X77065162Y-54113201D01*
X77064838Y-54485167D01*
X77206883Y-54828943D01*
X77469673Y-55092192D01*
X77813201Y-55234838D01*
X78185167Y-55235162D01*
X78389990Y-55150531D01*
X78389990Y-55986400D01*
X78447842Y-56277239D01*
X78612589Y-56523801D01*
X80195066Y-58106278D01*
X80055162Y-58443201D01*
X80054838Y-58815167D01*
X80196883Y-59158943D01*
X80459673Y-59422192D01*
X80803201Y-59564838D01*
X81175167Y-59565162D01*
X81518943Y-59423117D01*
X81782192Y-59160327D01*
X81924838Y-58816799D01*
X81925083Y-58535011D01*
X84760187Y-58535011D01*
X83842599Y-59452599D01*
X83677852Y-59699161D01*
X83620000Y-59990000D01*
X83620000Y-63527537D01*
X83587808Y-63559673D01*
X83445162Y-63903201D01*
X83444838Y-64275167D01*
X83586883Y-64618943D01*
X83776160Y-64808550D01*
X83745162Y-64883201D01*
X83744838Y-65255167D01*
X83749942Y-65267519D01*
X83461057Y-65386883D01*
X83197808Y-65649673D01*
X83055162Y-65993201D01*
X83054838Y-66365167D01*
X83196883Y-66708943D01*
X83459673Y-66972192D01*
X83460878Y-66972692D01*
X83365162Y-67203201D01*
X83364838Y-67575167D01*
X83506883Y-67918943D01*
X83769673Y-68182192D01*
X84113201Y-68324838D01*
X84485167Y-68325162D01*
X84828943Y-68183117D01*
X85092192Y-67920327D01*
X85234838Y-67576799D01*
X85235162Y-67204833D01*
X85093117Y-66861057D01*
X84982798Y-66750546D01*
X85032403Y-66717401D01*
X85510000Y-66239804D01*
X85510000Y-66630000D01*
X85567852Y-66920839D01*
X85732599Y-67167401D01*
X86502599Y-67937401D01*
X86749160Y-68102148D01*
X86797414Y-68111746D01*
X87040000Y-68160000D01*
X87367537Y-68160000D01*
X87399673Y-68192192D01*
X87743201Y-68334838D01*
X88115167Y-68335162D01*
X88458943Y-68193117D01*
X88722192Y-67930327D01*
X88864838Y-67586799D01*
X88865162Y-67214833D01*
X88723117Y-66871057D01*
X88460327Y-66607808D01*
X88116799Y-66465162D01*
X87744833Y-66464838D01*
X87401057Y-66606883D01*
X87367882Y-66640000D01*
X87354802Y-66640000D01*
X87030000Y-66315198D01*
X87030000Y-64995167D01*
X87104838Y-64995167D01*
X87246883Y-65338943D01*
X87509673Y-65602192D01*
X87853201Y-65744838D01*
X88225167Y-65745162D01*
X88568943Y-65603117D01*
X88832192Y-65340327D01*
X88974838Y-64996799D01*
X88975162Y-64624833D01*
X88833117Y-64281057D01*
X88570327Y-64017808D01*
X88226799Y-63875162D01*
X87854833Y-63874838D01*
X87511057Y-64016883D01*
X87247808Y-64279673D01*
X87105162Y-64623201D01*
X87104838Y-64995167D01*
X87030000Y-64995167D01*
X87030000Y-62101214D01*
X87596203Y-61535011D01*
X92746439Y-61535011D01*
X93037278Y-61477159D01*
X93283840Y-61312412D01*
X94261202Y-60335050D01*
X95642772Y-60335050D01*
X95933611Y-60277198D01*
X96180173Y-60112451D01*
X97407457Y-58885167D01*
X100564838Y-58885167D01*
X100706883Y-59228943D01*
X100969673Y-59492192D01*
X101313201Y-59634838D01*
X101685167Y-59635162D01*
X102028943Y-59493117D01*
X102292192Y-59230327D01*
X102434838Y-58886799D01*
X102435162Y-58514833D01*
X102298948Y-58185167D01*
X103464838Y-58185167D01*
X103606883Y-58528943D01*
X103869673Y-58792192D01*
X104213201Y-58934838D01*
X104585167Y-58935162D01*
X104706569Y-58885000D01*
X105178726Y-58885000D01*
X105196883Y-58928943D01*
X105459673Y-59192192D01*
X105803201Y-59334838D01*
X106175167Y-59335162D01*
X106518943Y-59193117D01*
X106782192Y-58930327D01*
X106924838Y-58586799D01*
X106925162Y-58214833D01*
X106783117Y-57871057D01*
X106520327Y-57607808D01*
X106399014Y-57557434D01*
X106215790Y-57374210D01*
X106094425Y-57293117D01*
X105928675Y-57182367D01*
X105872484Y-57171190D01*
X105590000Y-57114999D01*
X105589995Y-57115000D01*
X104706822Y-57115000D01*
X104586799Y-57065162D01*
X104214833Y-57064838D01*
X103871057Y-57206883D01*
X103607808Y-57469673D01*
X103465162Y-57813201D01*
X103464838Y-58185167D01*
X102298948Y-58185167D01*
X102293117Y-58171057D01*
X102030327Y-57907808D01*
X101686799Y-57765162D01*
X101314833Y-57764838D01*
X100971057Y-57906883D01*
X100707808Y-58169673D01*
X100565162Y-58513201D01*
X100564838Y-58885167D01*
X97407457Y-58885167D01*
X100511451Y-55781173D01*
X100646883Y-56108943D01*
X100909673Y-56372192D01*
X101253201Y-56514838D01*
X101625167Y-56515162D01*
X101746569Y-56465000D01*
X105719995Y-56465000D01*
X105720000Y-56465001D01*
X106009553Y-56407404D01*
X106058675Y-56397633D01*
X106345790Y-56205790D01*
X108408834Y-54142745D01*
X108528943Y-54093117D01*
X108792192Y-53830327D01*
X108934838Y-53486799D01*
X108935162Y-53114833D01*
X108793117Y-52771057D01*
X108530327Y-52507808D01*
X108186799Y-52365162D01*
X107814833Y-52364838D01*
X107471057Y-52506883D01*
X107207808Y-52769673D01*
X107157434Y-52890987D01*
X105353420Y-54695000D01*
X103606861Y-54695000D01*
X103734838Y-54386799D01*
X103735162Y-54014833D01*
X103685000Y-53893431D01*
X103685000Y-53576496D01*
X103766441Y-53524090D01*
X103911431Y-53311890D01*
X103962440Y-53060000D01*
X103962440Y-51860000D01*
X103918162Y-51624683D01*
X103779090Y-51408559D01*
X103566890Y-51263569D01*
X103315000Y-51212560D01*
X102565000Y-51212560D01*
X102329683Y-51256838D01*
X102113559Y-51395910D01*
X101968569Y-51608110D01*
X101924680Y-51824840D01*
X101923117Y-51821057D01*
X101660327Y-51557808D01*
X101316799Y-51415162D01*
X101249823Y-51415104D01*
X101153117Y-51181057D01*
X100890327Y-50917808D01*
X100546799Y-50775162D01*
X100174833Y-50774838D01*
X99831057Y-50916883D01*
X99567808Y-51179673D01*
X99425162Y-51523201D01*
X99425121Y-51570077D01*
X98662600Y-52332598D01*
X98497853Y-52579160D01*
X98440001Y-52869999D01*
X98440001Y-54430199D01*
X97916311Y-54953889D01*
X97860327Y-54897808D01*
X97516799Y-54755162D01*
X97144833Y-54754838D01*
X96879079Y-54864645D01*
X96552802Y-54729162D01*
X96180836Y-54728838D01*
X95965897Y-54817649D01*
X95752799Y-54729162D01*
X95742440Y-54729153D01*
X95742440Y-53660000D01*
X95698162Y-53424683D01*
X95559090Y-53208559D01*
X95346890Y-53063569D01*
X95095000Y-53012560D01*
X94345000Y-53012560D01*
X94109683Y-53056838D01*
X93893559Y-53195910D01*
X93748569Y-53408110D01*
X93697560Y-53660000D01*
X93697560Y-54860000D01*
X93741838Y-55095317D01*
X93760863Y-55124883D01*
X93760863Y-55347315D01*
X93711025Y-55467338D01*
X93710701Y-55839304D01*
X93852746Y-56183080D01*
X93912380Y-56242818D01*
X93734896Y-56420302D01*
X93735162Y-56114833D01*
X93593117Y-55771057D01*
X93330327Y-55507808D01*
X92986799Y-55365162D01*
X92614833Y-55364838D01*
X92271057Y-55506883D01*
X92087567Y-55690053D01*
X91786799Y-55565162D01*
X91414833Y-55564838D01*
X91293431Y-55615000D01*
X86406822Y-55615000D01*
X86286799Y-55565162D01*
X85914833Y-55564838D01*
X85571057Y-55706883D01*
X85307808Y-55969673D01*
X85165162Y-56313201D01*
X85164943Y-56565001D01*
X82985118Y-56565001D01*
X82985162Y-56514833D01*
X82843117Y-56171057D01*
X82580327Y-55907808D01*
X82236799Y-55765162D01*
X81864833Y-55764838D01*
X81748797Y-55812783D01*
X82476580Y-55084999D01*
X88793178Y-55084999D01*
X88913201Y-55134837D01*
X89285167Y-55135161D01*
X89628943Y-54993116D01*
X89892192Y-54730326D01*
X90034838Y-54386798D01*
X90035162Y-54014832D01*
X89893117Y-53671056D01*
X89630327Y-53407807D01*
X89286799Y-53265161D01*
X88914833Y-53264837D01*
X88817217Y-53305171D01*
X88892192Y-53230327D01*
X89034838Y-52886799D01*
X89035162Y-52514833D01*
X88893117Y-52171057D01*
X88630327Y-51907808D01*
X88286799Y-51765162D01*
X87914833Y-51764838D01*
X87571057Y-51906883D01*
X87307808Y-52169673D01*
X87165162Y-52513201D01*
X87164838Y-52885167D01*
X87306883Y-53228943D01*
X87392789Y-53314999D01*
X86581604Y-53314999D01*
X86634838Y-53186799D01*
X86635162Y-52814833D01*
X86493117Y-52471057D01*
X86230327Y-52207808D01*
X85886799Y-52065162D01*
X85514833Y-52064838D01*
X85171057Y-52206883D01*
X85055559Y-52322179D01*
X84993117Y-52171057D01*
X84730327Y-51907808D01*
X84386799Y-51765162D01*
X84014833Y-51764838D01*
X83671057Y-51906883D01*
X83650194Y-51927710D01*
X83630327Y-51907808D01*
X83286799Y-51765162D01*
X82914833Y-51764838D01*
X82571057Y-51906883D01*
X82307808Y-52169673D01*
X82165162Y-52513201D01*
X82164838Y-52885167D01*
X82306883Y-53228943D01*
X82392789Y-53314999D01*
X82110006Y-53314999D01*
X82110001Y-53314998D01*
X81827517Y-53371189D01*
X81771326Y-53382366D01*
X81484211Y-53574209D01*
X81484209Y-53574212D01*
X80404345Y-54654075D01*
X80374209Y-54674211D01*
X80374207Y-54674214D01*
X80360000Y-54688421D01*
X80360000Y-50300000D01*
X80302148Y-50009161D01*
X80302148Y-50009160D01*
X80253099Y-49935753D01*
X80374998Y-49960000D01*
X82437537Y-49960000D01*
X82469673Y-49992192D01*
X82813201Y-50134838D01*
X83185167Y-50135162D01*
X83528943Y-49993117D01*
X83792192Y-49730327D01*
X83934838Y-49386799D01*
X83935162Y-49014833D01*
X83831316Y-48763506D01*
X84019673Y-48952192D01*
X84363201Y-49094838D01*
X84735167Y-49095162D01*
X85078943Y-48953117D01*
X85290155Y-48742273D01*
X85519673Y-48972192D01*
X85863201Y-49114838D01*
X86235167Y-49115162D01*
X86578943Y-48973117D01*
X86842192Y-48710327D01*
X86984838Y-48366799D01*
X86985162Y-47994833D01*
X86843117Y-47651057D01*
X86580327Y-47387808D01*
X86236799Y-47245162D01*
X85864833Y-47244838D01*
X85521057Y-47386883D01*
X85309845Y-47597727D01*
X85080327Y-47367808D01*
X84736799Y-47225162D01*
X84364833Y-47224838D01*
X84021057Y-47366883D01*
X83757808Y-47629673D01*
X83756045Y-47633920D01*
X83530327Y-47407808D01*
X83186799Y-47265162D01*
X82814833Y-47264838D01*
X82690863Y-47316061D01*
X81289109Y-45914307D01*
X81308354Y-45898056D01*
X81350239Y-45845533D01*
X81389430Y-45769669D01*
X81399827Y-45755855D01*
X81405022Y-45750943D01*
X81407220Y-45746032D01*
X81440776Y-45701444D01*
X81469924Y-45640919D01*
X81483869Y-45586860D01*
X81486341Y-45582075D01*
X81486942Y-45574947D01*
X81491256Y-45558223D01*
X81498308Y-45542464D01*
X81502283Y-45536515D01*
X81503334Y-45531231D01*
X81523945Y-45485167D01*
X81564838Y-45485167D01*
X81706883Y-45828943D01*
X81969673Y-46092192D01*
X82313201Y-46234838D01*
X82512941Y-46235012D01*
X82769673Y-46492192D01*
X83113201Y-46634838D01*
X83485167Y-46635162D01*
X83606569Y-46585000D01*
X86649995Y-46585000D01*
X86650000Y-46585001D01*
X86940091Y-46527297D01*
X86988675Y-46517633D01*
X87275790Y-46325790D01*
X87704140Y-45897440D01*
X88150000Y-45897440D01*
X88385317Y-45853162D01*
X88601441Y-45714090D01*
X88746431Y-45501890D01*
X88797440Y-45250000D01*
X88797440Y-44350000D01*
X90452560Y-44350000D01*
X90452560Y-45250000D01*
X90496838Y-45485317D01*
X90515000Y-45513542D01*
X90515000Y-53193178D01*
X90465162Y-53313201D01*
X90464838Y-53685167D01*
X90606883Y-54028943D01*
X90869673Y-54292192D01*
X91213201Y-54434838D01*
X91585167Y-54435162D01*
X91928943Y-54293117D01*
X92192192Y-54030327D01*
X92334838Y-53686799D01*
X92335162Y-53314833D01*
X92285000Y-53193431D01*
X92285000Y-48000000D01*
X93677560Y-48000000D01*
X93677560Y-49200000D01*
X93721838Y-49435317D01*
X93860910Y-49651441D01*
X94073110Y-49796431D01*
X94325000Y-49847440D01*
X95075000Y-49847440D01*
X95310317Y-49803162D01*
X95450727Y-49712810D01*
X95573110Y-49796431D01*
X95825000Y-49847440D01*
X96575000Y-49847440D01*
X96810317Y-49803162D01*
X97026441Y-49664090D01*
X97171431Y-49451890D01*
X97222440Y-49200000D01*
X97222440Y-48000000D01*
X97178162Y-47764683D01*
X97039090Y-47548559D01*
X96826890Y-47403569D01*
X96736931Y-47385352D01*
X96342744Y-46991165D01*
X96293117Y-46871057D01*
X96030327Y-46607808D01*
X95686799Y-46465162D01*
X95314833Y-46464838D01*
X95254969Y-46489573D01*
X95176190Y-46410657D01*
X94832662Y-46268011D01*
X94460696Y-46267687D01*
X94116920Y-46409732D01*
X93853671Y-46672522D01*
X93711025Y-47016050D01*
X93710701Y-47388016D01*
X93760863Y-47509418D01*
X93760863Y-47700846D01*
X93728569Y-47748110D01*
X93677560Y-48000000D01*
X92285000Y-48000000D01*
X92285000Y-45897440D01*
X92300000Y-45897440D01*
X92535317Y-45853162D01*
X92751441Y-45714090D01*
X92799134Y-45644289D01*
X92835910Y-45701441D01*
X93048110Y-45846431D01*
X93300000Y-45897440D01*
X94500000Y-45897440D01*
X94735317Y-45853162D01*
X94951441Y-45714090D01*
X94971317Y-45685000D01*
X101560460Y-45685000D01*
X101364683Y-45721838D01*
X101148559Y-45860910D01*
X101003569Y-46073110D01*
X100952560Y-46325000D01*
X100952560Y-47075000D01*
X100971858Y-47177560D01*
X100300000Y-47177560D01*
X100064683Y-47221838D01*
X99848559Y-47360910D01*
X99703569Y-47573110D01*
X99652560Y-47825000D01*
X99652560Y-48575000D01*
X99696838Y-48810317D01*
X99835910Y-49026441D01*
X100048110Y-49171431D01*
X100300000Y-49222440D01*
X101500000Y-49222440D01*
X101735317Y-49178162D01*
X101880095Y-49085000D01*
X101893178Y-49085000D01*
X102013201Y-49134838D01*
X102385167Y-49135162D01*
X102728943Y-48993117D01*
X102992192Y-48730327D01*
X103134838Y-48386799D01*
X103135162Y-48014833D01*
X102998885Y-47685017D01*
X103035317Y-47678162D01*
X103146006Y-47606936D01*
X103213201Y-47634838D01*
X103585167Y-47635162D01*
X103928943Y-47493117D01*
X104192192Y-47230327D01*
X104334838Y-46886799D01*
X104335162Y-46514833D01*
X104193117Y-46171057D01*
X103930327Y-45907808D01*
X103586799Y-45765162D01*
X103214833Y-45764838D01*
X103146372Y-45793126D01*
X103051890Y-45728569D01*
X102836740Y-45685000D01*
X106634351Y-45685000D01*
X106710971Y-45799670D01*
X107197152Y-46124526D01*
X107770641Y-46238600D01*
X107829359Y-46238600D01*
X108402848Y-46124526D01*
X108889029Y-45799670D01*
X109070000Y-45528828D01*
X109250971Y-45799670D01*
X109737152Y-46124526D01*
X110310641Y-46238600D01*
X110369359Y-46238600D01*
X110942848Y-46124526D01*
X111429029Y-45799670D01*
X111753885Y-45313489D01*
X111867959Y-44740000D01*
X111753885Y-44166511D01*
X111429029Y-43680330D01*
X111114248Y-43470000D01*
X111429029Y-43259670D01*
X111753885Y-42773489D01*
X111867959Y-42200000D01*
X111753885Y-41626511D01*
X111429029Y-41140330D01*
X110942848Y-40815474D01*
X110369359Y-40701400D01*
X110310641Y-40701400D01*
X109737152Y-40815474D01*
X109271558Y-41126574D01*
X109266762Y-41101083D01*
X109127690Y-40884959D01*
X108915490Y-40739969D01*
X108663600Y-40688960D01*
X106936400Y-40688960D01*
X106701083Y-40733238D01*
X106484959Y-40872310D01*
X106339969Y-41084510D01*
X106288960Y-41336400D01*
X106288960Y-43063600D01*
X106333238Y-43298917D01*
X106472310Y-43515041D01*
X106684510Y-43660031D01*
X106728131Y-43668864D01*
X106710971Y-43680330D01*
X106554169Y-43915000D01*
X94974669Y-43915000D01*
X94964090Y-43898559D01*
X94912692Y-43863440D01*
X96343600Y-43863440D01*
X96578917Y-43819162D01*
X96795041Y-43680090D01*
X96940031Y-43467890D01*
X96991040Y-43216000D01*
X96991040Y-42015255D01*
X97601400Y-42015255D01*
X97601400Y-42384745D01*
X97715474Y-42958234D01*
X98040330Y-43444415D01*
X98526511Y-43769271D01*
X99100000Y-43883345D01*
X99673489Y-43769271D01*
X100159670Y-43444415D01*
X100370000Y-43129634D01*
X100580330Y-43444415D01*
X101066511Y-43769271D01*
X101640000Y-43883345D01*
X102213489Y-43769271D01*
X102699670Y-43444415D01*
X103024526Y-42958234D01*
X103138600Y-42384745D01*
X103138600Y-42015255D01*
X103024526Y-41441766D01*
X102699670Y-40955585D01*
X102213489Y-40630729D01*
X101640000Y-40516655D01*
X101066511Y-40630729D01*
X100580330Y-40955585D01*
X100370000Y-41270366D01*
X100159670Y-40955585D01*
X99673489Y-40630729D01*
X99100000Y-40516655D01*
X98526511Y-40630729D01*
X98040330Y-40955585D01*
X97715474Y-41441766D01*
X97601400Y-42015255D01*
X96991040Y-42015255D01*
X96991040Y-41184000D01*
X96946762Y-40948683D01*
X96807690Y-40732559D01*
X96595490Y-40587569D01*
X96343600Y-40536560D01*
X94616400Y-40536560D01*
X94381083Y-40580838D01*
X94164959Y-40719910D01*
X94019969Y-40932110D01*
X94011600Y-40973439D01*
X93999670Y-40955585D01*
X93513489Y-40630729D01*
X92940000Y-40516655D01*
X92366511Y-40630729D01*
X91880330Y-40955585D01*
X91555474Y-41441766D01*
X91441400Y-42015255D01*
X91441400Y-42384745D01*
X91555474Y-42958234D01*
X91880330Y-43444415D01*
X92266671Y-43702560D01*
X91100000Y-43702560D01*
X90864683Y-43746838D01*
X90648559Y-43885910D01*
X90503569Y-44098110D01*
X90452560Y-44350000D01*
X88797440Y-44350000D01*
X88753162Y-44114683D01*
X88614090Y-43898559D01*
X88401890Y-43753569D01*
X88150000Y-43702560D01*
X86950000Y-43702560D01*
X86714683Y-43746838D01*
X86498559Y-43885910D01*
X86353569Y-44098110D01*
X86302560Y-44350000D01*
X86302560Y-44795860D01*
X86283420Y-44815000D01*
X83606822Y-44815000D01*
X83486799Y-44765162D01*
X83287059Y-44764988D01*
X83030327Y-44507808D01*
X82686799Y-44365162D01*
X82314833Y-44364838D01*
X81971057Y-44506883D01*
X81707808Y-44769673D01*
X81565162Y-45113201D01*
X81564838Y-45485167D01*
X81523945Y-45485167D01*
X81526138Y-45480268D01*
X81541086Y-45414773D01*
X81542650Y-45358991D01*
X81543994Y-45353782D01*
X81542995Y-45346705D01*
X81543480Y-45329422D01*
X81546854Y-45312462D01*
X81549404Y-45305780D01*
X81549253Y-45300400D01*
X81560139Y-45245677D01*
X81560140Y-45178499D01*
X81549248Y-45123738D01*
X81549399Y-45118353D01*
X81546848Y-45111669D01*
X81543479Y-45094732D01*
X81542994Y-45077473D01*
X81543994Y-45070392D01*
X81542649Y-45065178D01*
X81541082Y-45009360D01*
X81526132Y-44943864D01*
X81503341Y-44892935D01*
X81502292Y-44887659D01*
X81498321Y-44881716D01*
X81491257Y-44865930D01*
X81486941Y-44849198D01*
X81486340Y-44842071D01*
X81483870Y-44837289D01*
X81469932Y-44783253D01*
X81440786Y-44722728D01*
X81407208Y-44678109D01*
X81405008Y-44673193D01*
X81399811Y-44668279D01*
X81389431Y-44654487D01*
X81381499Y-44639133D01*
X81379327Y-44632318D01*
X81375853Y-44628204D01*
X81350234Y-44578614D01*
X81308348Y-44526091D01*
X81265713Y-44490089D01*
X81262477Y-44485789D01*
X81256318Y-44482156D01*
X81243105Y-44470998D01*
X81231960Y-44457800D01*
X81228326Y-44451640D01*
X81224024Y-44448403D01*
X81188010Y-44405753D01*
X81135489Y-44363869D01*
X81085899Y-44338250D01*
X81081782Y-44334774D01*
X81074963Y-44332601D01*
X81059621Y-44324675D01*
X81045827Y-44314293D01*
X81040912Y-44309095D01*
X81035996Y-44306895D01*
X80991391Y-44273326D01*
X80930865Y-44244178D01*
X80876815Y-44230235D01*
X80872031Y-44227764D01*
X80864903Y-44227163D01*
X80848181Y-44222849D01*
X80832388Y-44215782D01*
X80826445Y-44211811D01*
X80821170Y-44210762D01*
X80770240Y-44187971D01*
X80704745Y-44173021D01*
X80692889Y-44172688D01*
X80692556Y-44160834D01*
X80677606Y-44095338D01*
X80654815Y-44044409D01*
X80653766Y-44039133D01*
X80649795Y-44033190D01*
X80642731Y-44017404D01*
X80638415Y-44000672D01*
X80637814Y-43993545D01*
X80635344Y-43988763D01*
X80621406Y-43934727D01*
X80592260Y-43874202D01*
X80558682Y-43829583D01*
X80556482Y-43824667D01*
X80551285Y-43819753D01*
X80540905Y-43805961D01*
X80532973Y-43790607D01*
X80530801Y-43783792D01*
X80527327Y-43779678D01*
X80501708Y-43730088D01*
X80459822Y-43677565D01*
X80417187Y-43641563D01*
X80413951Y-43637263D01*
X80407792Y-43633630D01*
X80394579Y-43622472D01*
X80383434Y-43609274D01*
X80379800Y-43603114D01*
X80375498Y-43599877D01*
X80339484Y-43557227D01*
X80286963Y-43515343D01*
X80237373Y-43489724D01*
X80233256Y-43486248D01*
X80226437Y-43484075D01*
X80211095Y-43476149D01*
X80197301Y-43465767D01*
X80192386Y-43460569D01*
X80187470Y-43458369D01*
X80142865Y-43424800D01*
X80082339Y-43395652D01*
X80028289Y-43381709D01*
X80023505Y-43379238D01*
X80016377Y-43378637D01*
X79999655Y-43374323D01*
X79983862Y-43367256D01*
X79977919Y-43363285D01*
X79972644Y-43362236D01*
X79921714Y-43339445D01*
X79856219Y-43324495D01*
X79800416Y-43322928D01*
X79795201Y-43321583D01*
X79788117Y-43322583D01*
X79770846Y-43322098D01*
X79753909Y-43318729D01*
X79747225Y-43316178D01*
X79741840Y-43316329D01*
X79687079Y-43305437D01*
X79619901Y-43305438D01*
X79565178Y-43316324D01*
X79559799Y-43316173D01*
X79553118Y-43318723D01*
X79536156Y-43322097D01*
X79518883Y-43322582D01*
X79511801Y-43321582D01*
X79506589Y-43322927D01*
X79450805Y-43324491D01*
X79385310Y-43339439D01*
X79334347Y-43362243D01*
X79329063Y-43363294D01*
X79323114Y-43367269D01*
X79307358Y-43374319D01*
X79290598Y-43378643D01*
X79283472Y-43379244D01*
X79278691Y-43381714D01*
X79224663Y-43395651D01*
X79164137Y-43424799D01*
X79119546Y-43458358D01*
X79114635Y-43460555D01*
X79109725Y-43465749D01*
X79095896Y-43476156D01*
X79020019Y-43515358D01*
X78967498Y-43557245D01*
X78943593Y-43585556D01*
X78904191Y-43536147D01*
X78871310Y-43508382D01*
X78847401Y-43472599D01*
X78335122Y-42960320D01*
X78335162Y-42914833D01*
X78193117Y-42571057D01*
X77930327Y-42307808D01*
X77586799Y-42165162D01*
X77214833Y-42164838D01*
X76871057Y-42306883D01*
X76607808Y-42569673D01*
X76465162Y-42913201D01*
X76464838Y-43285167D01*
X76606883Y-43628943D01*
X76869673Y-43892192D01*
X77213201Y-44034838D01*
X77260077Y-44034879D01*
X77452206Y-44227008D01*
X77432961Y-44243259D01*
X77391076Y-44295782D01*
X77351884Y-44371648D01*
X77341496Y-44385450D01*
X77336301Y-44390362D01*
X77334103Y-44395274D01*
X77321639Y-44411835D01*
X76872403Y-43962599D01*
X76625841Y-43797852D01*
X76335002Y-43740000D01*
X74314802Y-43740000D01*
X73835122Y-43260320D01*
X73835162Y-43214833D01*
X73693117Y-42871057D01*
X73430327Y-42607808D01*
X73086799Y-42465162D01*
X72714833Y-42464838D01*
X72371057Y-42606883D01*
X72107808Y-42869673D01*
X71965162Y-43213201D01*
X71964838Y-43585167D01*
X63510000Y-43585167D01*
X63510000Y-42169650D01*
X63520877Y-42143391D01*
X63728328Y-41100464D01*
X64237874Y-40337874D01*
X65000740Y-39828143D01*
X66038609Y-39620757D01*
X66064515Y-39610000D01*
X109330350Y-39610000D01*
X109356609Y-39620877D01*
X109356609Y-39620877D01*
G37*
X109356609Y-39620877D02*
X110399536Y-39828328D01*
X111162126Y-40337874D01*
X111671857Y-41100740D01*
X111879243Y-42138609D01*
X111890000Y-42164515D01*
X111890000Y-69517291D01*
X111873712Y-69556614D01*
X111666261Y-70599541D01*
X111156715Y-71362131D01*
X110393849Y-71871862D01*
X109355980Y-72079248D01*
X109330086Y-72090000D01*
X72816429Y-72090000D01*
X72816429Y-69175000D01*
X70403572Y-69175000D01*
X70403572Y-69183000D01*
X65670000Y-69183000D01*
X65623841Y-69191685D01*
X65581447Y-69218965D01*
X65553006Y-69260590D01*
X65543000Y-69310000D01*
X65543000Y-71974179D01*
X65000459Y-71866261D01*
X64237869Y-71356715D01*
X63728138Y-70593849D01*
X63520752Y-69555980D01*
X63510000Y-69530086D01*
X63510000Y-68585167D01*
X74864838Y-68585167D01*
X75006883Y-68928943D01*
X75269673Y-69192192D01*
X75390986Y-69242566D01*
X77074208Y-70925787D01*
X77074210Y-70925790D01*
X77361325Y-71117633D01*
X77417516Y-71128810D01*
X77700000Y-71185001D01*
X77700005Y-71185000D01*
X104693178Y-71185000D01*
X104813201Y-71234838D01*
X105185167Y-71235162D01*
X105528943Y-71093117D01*
X105792192Y-70830327D01*
X105934838Y-70486799D01*
X105935162Y-70114833D01*
X105793117Y-69771057D01*
X105530327Y-69507808D01*
X105186799Y-69365162D01*
X104814833Y-69364838D01*
X104693431Y-69415000D01*
X78066579Y-69415000D01*
X77015470Y-68363890D01*
X102715592Y-68363890D01*
X102880362Y-68762663D01*
X103185193Y-69068026D01*
X103583677Y-69233491D01*
X104015150Y-69233868D01*
X104413923Y-69069098D01*
X104719286Y-68764267D01*
X104884751Y-68365783D01*
X104884752Y-68363890D01*
X107114872Y-68363890D01*
X107279642Y-68762663D01*
X107584473Y-69068026D01*
X107982957Y-69233491D01*
X108414430Y-69233868D01*
X108813203Y-69069098D01*
X109118566Y-68764267D01*
X109284031Y-68365783D01*
X109284408Y-67934310D01*
X109119638Y-67535537D01*
X108814807Y-67230174D01*
X108416323Y-67064709D01*
X107984850Y-67064332D01*
X107586077Y-67229102D01*
X107280714Y-67533933D01*
X107115249Y-67932417D01*
X107114872Y-68363890D01*
X104884752Y-68363890D01*
X104885128Y-67934310D01*
X104720358Y-67535537D01*
X104415527Y-67230174D01*
X104017043Y-67064709D01*
X103585570Y-67064332D01*
X103186797Y-67229102D01*
X102881434Y-67533933D01*
X102715969Y-67932417D01*
X102715592Y-68363890D01*
X77015470Y-68363890D01*
X76642744Y-67991164D01*
X76593117Y-67871057D01*
X76330327Y-67607808D01*
X75986799Y-67465162D01*
X75614833Y-67464838D01*
X75271057Y-67606883D01*
X75007808Y-67869673D01*
X74865162Y-68213201D01*
X74864838Y-68585167D01*
X63510000Y-68585167D01*
X63510000Y-65884000D01*
X64236560Y-65884000D01*
X64236560Y-67916000D01*
X64280838Y-68151317D01*
X64419910Y-68367441D01*
X64632110Y-68512431D01*
X64884000Y-68563440D01*
X66916000Y-68563440D01*
X67151317Y-68519162D01*
X67367441Y-68380090D01*
X67512431Y-68167890D01*
X67563440Y-67916000D01*
X67563440Y-65884000D01*
X67519162Y-65648683D01*
X67380090Y-65432559D01*
X67167890Y-65287569D01*
X66916000Y-65236560D01*
X64884000Y-65236560D01*
X64648683Y-65280838D01*
X64432559Y-65419910D01*
X64287569Y-65632110D01*
X64236560Y-65884000D01*
X63510000Y-65884000D01*
X63510000Y-62785167D01*
X81114838Y-62785167D01*
X81256883Y-63128943D01*
X81519673Y-63392192D01*
X81863201Y-63534838D01*
X82235167Y-63535162D01*
X82578943Y-63393117D01*
X82842192Y-63130327D01*
X82984838Y-62786799D01*
X82985162Y-62414833D01*
X82843117Y-62071057D01*
X82580327Y-61807808D01*
X82236799Y-61665162D01*
X81864833Y-61664838D01*
X81521057Y-61806883D01*
X81257808Y-62069673D01*
X81115162Y-62413201D01*
X81114838Y-62785167D01*
X63510000Y-62785167D01*
X63510000Y-59385167D01*
X70364838Y-59385167D01*
X70506883Y-59728943D01*
X70769673Y-59992192D01*
X71113201Y-60134838D01*
X71485167Y-60135162D01*
X71828943Y-59993117D01*
X72092192Y-59730327D01*
X72234838Y-59386799D01*
X72235162Y-59014833D01*
X72093117Y-58671057D01*
X71830327Y-58407808D01*
X71486799Y-58265162D01*
X71114833Y-58264838D01*
X70771057Y-58406883D01*
X70507808Y-58669673D01*
X70365162Y-59013201D01*
X70364838Y-59385167D01*
X63510000Y-59385167D01*
X63510000Y-55785167D01*
X73264838Y-55785167D01*
X73406883Y-56128943D01*
X73669673Y-56392192D01*
X74013201Y-56534838D01*
X74385167Y-56535162D01*
X74728943Y-56393117D01*
X74992192Y-56130327D01*
X75134838Y-55786799D01*
X75135162Y-55414833D01*
X74993117Y-55071057D01*
X74730327Y-54807808D01*
X74386799Y-54665162D01*
X74014833Y-54664838D01*
X73671057Y-54806883D01*
X73407808Y-55069673D01*
X73265162Y-55413201D01*
X73264838Y-55785167D01*
X63510000Y-55785167D01*
X63510000Y-49885167D01*
X71864838Y-49885167D01*
X72006883Y-50228943D01*
X72269673Y-50492192D01*
X72613201Y-50634838D01*
X72985167Y-50635162D01*
X73328943Y-50493117D01*
X73592192Y-50230327D01*
X73734838Y-49886799D01*
X73735162Y-49514833D01*
X73593117Y-49171057D01*
X73330327Y-48907808D01*
X72986799Y-48765162D01*
X72614833Y-48764838D01*
X72271057Y-48906883D01*
X72007808Y-49169673D01*
X71865162Y-49513201D01*
X71864838Y-49885167D01*
X63510000Y-49885167D01*
X63510000Y-48385167D01*
X73264838Y-48385167D01*
X73406883Y-48728943D01*
X73669673Y-48992192D01*
X74013201Y-49134838D01*
X74385167Y-49135162D01*
X74728943Y-48993117D01*
X74992192Y-48730327D01*
X75134838Y-48386799D01*
X75135162Y-48014833D01*
X74993117Y-47671057D01*
X74730327Y-47407808D01*
X74386799Y-47265162D01*
X74014833Y-47264838D01*
X73671057Y-47406883D01*
X73407808Y-47669673D01*
X73265162Y-48013201D01*
X73264838Y-48385167D01*
X63510000Y-48385167D01*
X63510000Y-43585167D01*
X71964838Y-43585167D01*
X72106883Y-43928943D01*
X72369673Y-44192192D01*
X72713201Y-44334838D01*
X72760077Y-44334879D01*
X73462599Y-45037401D01*
X73709161Y-45202148D01*
X74000000Y-45260000D01*
X76020200Y-45260000D01*
X76062760Y-45302560D01*
X76000000Y-45302560D01*
X75764683Y-45346838D01*
X75548559Y-45485910D01*
X75403569Y-45698110D01*
X75352560Y-45950000D01*
X75352560Y-46625348D01*
X75107808Y-46869673D01*
X74965162Y-47213201D01*
X74964838Y-47585167D01*
X75106883Y-47928943D01*
X75369673Y-48192192D01*
X75579528Y-48279332D01*
X77562599Y-50262403D01*
X77637946Y-50312748D01*
X78389990Y-51064792D01*
X78389990Y-53449535D01*
X78186799Y-53365162D01*
X77814833Y-53364838D01*
X77471057Y-53506883D01*
X77207808Y-53769673D01*
X77065162Y-54113201D01*
X77064838Y-54485167D01*
X77206883Y-54828943D01*
X77469673Y-55092192D01*
X77813201Y-55234838D01*
X78185167Y-55235162D01*
X78389990Y-55150531D01*
X78389990Y-55986400D01*
X78447842Y-56277239D01*
X78612589Y-56523801D01*
X80195066Y-58106278D01*
X80055162Y-58443201D01*
X80054838Y-58815167D01*
X80196883Y-59158943D01*
X80459673Y-59422192D01*
X80803201Y-59564838D01*
X81175167Y-59565162D01*
X81518943Y-59423117D01*
X81782192Y-59160327D01*
X81924838Y-58816799D01*
X81925083Y-58535011D01*
X84760187Y-58535011D01*
X83842599Y-59452599D01*
X83677852Y-59699161D01*
X83620000Y-59990000D01*
X83620000Y-63527537D01*
X83587808Y-63559673D01*
X83445162Y-63903201D01*
X83444838Y-64275167D01*
X83586883Y-64618943D01*
X83776160Y-64808550D01*
X83745162Y-64883201D01*
X83744838Y-65255167D01*
X83749942Y-65267519D01*
X83461057Y-65386883D01*
X83197808Y-65649673D01*
X83055162Y-65993201D01*
X83054838Y-66365167D01*
X83196883Y-66708943D01*
X83459673Y-66972192D01*
X83460878Y-66972692D01*
X83365162Y-67203201D01*
X83364838Y-67575167D01*
X83506883Y-67918943D01*
X83769673Y-68182192D01*
X84113201Y-68324838D01*
X84485167Y-68325162D01*
X84828943Y-68183117D01*
X85092192Y-67920327D01*
X85234838Y-67576799D01*
X85235162Y-67204833D01*
X85093117Y-66861057D01*
X84982798Y-66750546D01*
X85032403Y-66717401D01*
X85510000Y-66239804D01*
X85510000Y-66630000D01*
X85567852Y-66920839D01*
X85732599Y-67167401D01*
X86502599Y-67937401D01*
X86749160Y-68102148D01*
X86797414Y-68111746D01*
X87040000Y-68160000D01*
X87367537Y-68160000D01*
X87399673Y-68192192D01*
X87743201Y-68334838D01*
X88115167Y-68335162D01*
X88458943Y-68193117D01*
X88722192Y-67930327D01*
X88864838Y-67586799D01*
X88865162Y-67214833D01*
X88723117Y-66871057D01*
X88460327Y-66607808D01*
X88116799Y-66465162D01*
X87744833Y-66464838D01*
X87401057Y-66606883D01*
X87367882Y-66640000D01*
X87354802Y-66640000D01*
X87030000Y-66315198D01*
X87030000Y-64995167D01*
X87104838Y-64995167D01*
X87246883Y-65338943D01*
X87509673Y-65602192D01*
X87853201Y-65744838D01*
X88225167Y-65745162D01*
X88568943Y-65603117D01*
X88832192Y-65340327D01*
X88974838Y-64996799D01*
X88975162Y-64624833D01*
X88833117Y-64281057D01*
X88570327Y-64017808D01*
X88226799Y-63875162D01*
X87854833Y-63874838D01*
X87511057Y-64016883D01*
X87247808Y-64279673D01*
X87105162Y-64623201D01*
X87104838Y-64995167D01*
X87030000Y-64995167D01*
X87030000Y-62101214D01*
X87596203Y-61535011D01*
X92746439Y-61535011D01*
X93037278Y-61477159D01*
X93283840Y-61312412D01*
X94261202Y-60335050D01*
X95642772Y-60335050D01*
X95933611Y-60277198D01*
X96180173Y-60112451D01*
X97407457Y-58885167D01*
X100564838Y-58885167D01*
X100706883Y-59228943D01*
X100969673Y-59492192D01*
X101313201Y-59634838D01*
X101685167Y-59635162D01*
X102028943Y-59493117D01*
X102292192Y-59230327D01*
X102434838Y-58886799D01*
X102435162Y-58514833D01*
X102298948Y-58185167D01*
X103464838Y-58185167D01*
X103606883Y-58528943D01*
X103869673Y-58792192D01*
X104213201Y-58934838D01*
X104585167Y-58935162D01*
X104706569Y-58885000D01*
X105178726Y-58885000D01*
X105196883Y-58928943D01*
X105459673Y-59192192D01*
X105803201Y-59334838D01*
X106175167Y-59335162D01*
X106518943Y-59193117D01*
X106782192Y-58930327D01*
X106924838Y-58586799D01*
X106925162Y-58214833D01*
X106783117Y-57871057D01*
X106520327Y-57607808D01*
X106399014Y-57557434D01*
X106215790Y-57374210D01*
X106094425Y-57293117D01*
X105928675Y-57182367D01*
X105872484Y-57171190D01*
X105590000Y-57114999D01*
X105589995Y-57115000D01*
X104706822Y-57115000D01*
X104586799Y-57065162D01*
X104214833Y-57064838D01*
X103871057Y-57206883D01*
X103607808Y-57469673D01*
X103465162Y-57813201D01*
X103464838Y-58185167D01*
X102298948Y-58185167D01*
X102293117Y-58171057D01*
X102030327Y-57907808D01*
X101686799Y-57765162D01*
X101314833Y-57764838D01*
X100971057Y-57906883D01*
X100707808Y-58169673D01*
X100565162Y-58513201D01*
X100564838Y-58885167D01*
X97407457Y-58885167D01*
X100511451Y-55781173D01*
X100646883Y-56108943D01*
X100909673Y-56372192D01*
X101253201Y-56514838D01*
X101625167Y-56515162D01*
X101746569Y-56465000D01*
X105719995Y-56465000D01*
X105720000Y-56465001D01*
X106009553Y-56407404D01*
X106058675Y-56397633D01*
X106345790Y-56205790D01*
X108408834Y-54142745D01*
X108528943Y-54093117D01*
X108792192Y-53830327D01*
X108934838Y-53486799D01*
X108935162Y-53114833D01*
X108793117Y-52771057D01*
X108530327Y-52507808D01*
X108186799Y-52365162D01*
X107814833Y-52364838D01*
X107471057Y-52506883D01*
X107207808Y-52769673D01*
X107157434Y-52890987D01*
X105353420Y-54695000D01*
X103606861Y-54695000D01*
X103734838Y-54386799D01*
X103735162Y-54014833D01*
X103685000Y-53893431D01*
X103685000Y-53576496D01*
X103766441Y-53524090D01*
X103911431Y-53311890D01*
X103962440Y-53060000D01*
X103962440Y-51860000D01*
X103918162Y-51624683D01*
X103779090Y-51408559D01*
X103566890Y-51263569D01*
X103315000Y-51212560D01*
X102565000Y-51212560D01*
X102329683Y-51256838D01*
X102113559Y-51395910D01*
X101968569Y-51608110D01*
X101924680Y-51824840D01*
X101923117Y-51821057D01*
X101660327Y-51557808D01*
X101316799Y-51415162D01*
X101249823Y-51415104D01*
X101153117Y-51181057D01*
X100890327Y-50917808D01*
X100546799Y-50775162D01*
X100174833Y-50774838D01*
X99831057Y-50916883D01*
X99567808Y-51179673D01*
X99425162Y-51523201D01*
X99425121Y-51570077D01*
X98662600Y-52332598D01*
X98497853Y-52579160D01*
X98440001Y-52869999D01*
X98440001Y-54430199D01*
X97916311Y-54953889D01*
X97860327Y-54897808D01*
X97516799Y-54755162D01*
X97144833Y-54754838D01*
X96879079Y-54864645D01*
X96552802Y-54729162D01*
X96180836Y-54728838D01*
X95965897Y-54817649D01*
X95752799Y-54729162D01*
X95742440Y-54729153D01*
X95742440Y-53660000D01*
X95698162Y-53424683D01*
X95559090Y-53208559D01*
X95346890Y-53063569D01*
X95095000Y-53012560D01*
X94345000Y-53012560D01*
X94109683Y-53056838D01*
X93893559Y-53195910D01*
X93748569Y-53408110D01*
X93697560Y-53660000D01*
X93697560Y-54860000D01*
X93741838Y-55095317D01*
X93760863Y-55124883D01*
X93760863Y-55347315D01*
X93711025Y-55467338D01*
X93710701Y-55839304D01*
X93852746Y-56183080D01*
X93912380Y-56242818D01*
X93734896Y-56420302D01*
X93735162Y-56114833D01*
X93593117Y-55771057D01*
X93330327Y-55507808D01*
X92986799Y-55365162D01*
X92614833Y-55364838D01*
X92271057Y-55506883D01*
X92087567Y-55690053D01*
X91786799Y-55565162D01*
X91414833Y-55564838D01*
X91293431Y-55615000D01*
X86406822Y-55615000D01*
X86286799Y-55565162D01*
X85914833Y-55564838D01*
X85571057Y-55706883D01*
X85307808Y-55969673D01*
X85165162Y-56313201D01*
X85164943Y-56565001D01*
X82985118Y-56565001D01*
X82985162Y-56514833D01*
X82843117Y-56171057D01*
X82580327Y-55907808D01*
X82236799Y-55765162D01*
X81864833Y-55764838D01*
X81748797Y-55812783D01*
X82476580Y-55084999D01*
X88793178Y-55084999D01*
X88913201Y-55134837D01*
X89285167Y-55135161D01*
X89628943Y-54993116D01*
X89892192Y-54730326D01*
X90034838Y-54386798D01*
X90035162Y-54014832D01*
X89893117Y-53671056D01*
X89630327Y-53407807D01*
X89286799Y-53265161D01*
X88914833Y-53264837D01*
X88817217Y-53305171D01*
X88892192Y-53230327D01*
X89034838Y-52886799D01*
X89035162Y-52514833D01*
X88893117Y-52171057D01*
X88630327Y-51907808D01*
X88286799Y-51765162D01*
X87914833Y-51764838D01*
X87571057Y-51906883D01*
X87307808Y-52169673D01*
X87165162Y-52513201D01*
X87164838Y-52885167D01*
X87306883Y-53228943D01*
X87392789Y-53314999D01*
X86581604Y-53314999D01*
X86634838Y-53186799D01*
X86635162Y-52814833D01*
X86493117Y-52471057D01*
X86230327Y-52207808D01*
X85886799Y-52065162D01*
X85514833Y-52064838D01*
X85171057Y-52206883D01*
X85055559Y-52322179D01*
X84993117Y-52171057D01*
X84730327Y-51907808D01*
X84386799Y-51765162D01*
X84014833Y-51764838D01*
X83671057Y-51906883D01*
X83650194Y-51927710D01*
X83630327Y-51907808D01*
X83286799Y-51765162D01*
X82914833Y-51764838D01*
X82571057Y-51906883D01*
X82307808Y-52169673D01*
X82165162Y-52513201D01*
X82164838Y-52885167D01*
X82306883Y-53228943D01*
X82392789Y-53314999D01*
X82110006Y-53314999D01*
X82110001Y-53314998D01*
X81827517Y-53371189D01*
X81771326Y-53382366D01*
X81484211Y-53574209D01*
X81484209Y-53574212D01*
X80404345Y-54654075D01*
X80374209Y-54674211D01*
X80374207Y-54674214D01*
X80360000Y-54688421D01*
X80360000Y-50300000D01*
X80302148Y-50009161D01*
X80302148Y-50009160D01*
X80253099Y-49935753D01*
X80374998Y-49960000D01*
X82437537Y-49960000D01*
X82469673Y-49992192D01*
X82813201Y-50134838D01*
X83185167Y-50135162D01*
X83528943Y-49993117D01*
X83792192Y-49730327D01*
X83934838Y-49386799D01*
X83935162Y-49014833D01*
X83831316Y-48763506D01*
X84019673Y-48952192D01*
X84363201Y-49094838D01*
X84735167Y-49095162D01*
X85078943Y-48953117D01*
X85290155Y-48742273D01*
X85519673Y-48972192D01*
X85863201Y-49114838D01*
X86235167Y-49115162D01*
X86578943Y-48973117D01*
X86842192Y-48710327D01*
X86984838Y-48366799D01*
X86985162Y-47994833D01*
X86843117Y-47651057D01*
X86580327Y-47387808D01*
X86236799Y-47245162D01*
X85864833Y-47244838D01*
X85521057Y-47386883D01*
X85309845Y-47597727D01*
X85080327Y-47367808D01*
X84736799Y-47225162D01*
X84364833Y-47224838D01*
X84021057Y-47366883D01*
X83757808Y-47629673D01*
X83756045Y-47633920D01*
X83530327Y-47407808D01*
X83186799Y-47265162D01*
X82814833Y-47264838D01*
X82690863Y-47316061D01*
X81289109Y-45914307D01*
X81308354Y-45898056D01*
X81350239Y-45845533D01*
X81389430Y-45769669D01*
X81399827Y-45755855D01*
X81405022Y-45750943D01*
X81407220Y-45746032D01*
X81440776Y-45701444D01*
X81469924Y-45640919D01*
X81483869Y-45586860D01*
X81486341Y-45582075D01*
X81486942Y-45574947D01*
X81491256Y-45558223D01*
X81498308Y-45542464D01*
X81502283Y-45536515D01*
X81503334Y-45531231D01*
X81523945Y-45485167D01*
X81564838Y-45485167D01*
X81706883Y-45828943D01*
X81969673Y-46092192D01*
X82313201Y-46234838D01*
X82512941Y-46235012D01*
X82769673Y-46492192D01*
X83113201Y-46634838D01*
X83485167Y-46635162D01*
X83606569Y-46585000D01*
X86649995Y-46585000D01*
X86650000Y-46585001D01*
X86940091Y-46527297D01*
X86988675Y-46517633D01*
X87275790Y-46325790D01*
X87704140Y-45897440D01*
X88150000Y-45897440D01*
X88385317Y-45853162D01*
X88601441Y-45714090D01*
X88746431Y-45501890D01*
X88797440Y-45250000D01*
X88797440Y-44350000D01*
X90452560Y-44350000D01*
X90452560Y-45250000D01*
X90496838Y-45485317D01*
X90515000Y-45513542D01*
X90515000Y-53193178D01*
X90465162Y-53313201D01*
X90464838Y-53685167D01*
X90606883Y-54028943D01*
X90869673Y-54292192D01*
X91213201Y-54434838D01*
X91585167Y-54435162D01*
X91928943Y-54293117D01*
X92192192Y-54030327D01*
X92334838Y-53686799D01*
X92335162Y-53314833D01*
X92285000Y-53193431D01*
X92285000Y-48000000D01*
X93677560Y-48000000D01*
X93677560Y-49200000D01*
X93721838Y-49435317D01*
X93860910Y-49651441D01*
X94073110Y-49796431D01*
X94325000Y-49847440D01*
X95075000Y-49847440D01*
X95310317Y-49803162D01*
X95450727Y-49712810D01*
X95573110Y-49796431D01*
X95825000Y-49847440D01*
X96575000Y-49847440D01*
X96810317Y-49803162D01*
X97026441Y-49664090D01*
X97171431Y-49451890D01*
X97222440Y-49200000D01*
X97222440Y-48000000D01*
X97178162Y-47764683D01*
X97039090Y-47548559D01*
X96826890Y-47403569D01*
X96736931Y-47385352D01*
X96342744Y-46991165D01*
X96293117Y-46871057D01*
X96030327Y-46607808D01*
X95686799Y-46465162D01*
X95314833Y-46464838D01*
X95254969Y-46489573D01*
X95176190Y-46410657D01*
X94832662Y-46268011D01*
X94460696Y-46267687D01*
X94116920Y-46409732D01*
X93853671Y-46672522D01*
X93711025Y-47016050D01*
X93710701Y-47388016D01*
X93760863Y-47509418D01*
X93760863Y-47700846D01*
X93728569Y-47748110D01*
X93677560Y-48000000D01*
X92285000Y-48000000D01*
X92285000Y-45897440D01*
X92300000Y-45897440D01*
X92535317Y-45853162D01*
X92751441Y-45714090D01*
X92799134Y-45644289D01*
X92835910Y-45701441D01*
X93048110Y-45846431D01*
X93300000Y-45897440D01*
X94500000Y-45897440D01*
X94735317Y-45853162D01*
X94951441Y-45714090D01*
X94971317Y-45685000D01*
X101560460Y-45685000D01*
X101364683Y-45721838D01*
X101148559Y-45860910D01*
X101003569Y-46073110D01*
X100952560Y-46325000D01*
X100952560Y-47075000D01*
X100971858Y-47177560D01*
X100300000Y-47177560D01*
X100064683Y-47221838D01*
X99848559Y-47360910D01*
X99703569Y-47573110D01*
X99652560Y-47825000D01*
X99652560Y-48575000D01*
X99696838Y-48810317D01*
X99835910Y-49026441D01*
X100048110Y-49171431D01*
X100300000Y-49222440D01*
X101500000Y-49222440D01*
X101735317Y-49178162D01*
X101880095Y-49085000D01*
X101893178Y-49085000D01*
X102013201Y-49134838D01*
X102385167Y-49135162D01*
X102728943Y-48993117D01*
X102992192Y-48730327D01*
X103134838Y-48386799D01*
X103135162Y-48014833D01*
X102998885Y-47685017D01*
X103035317Y-47678162D01*
X103146006Y-47606936D01*
X103213201Y-47634838D01*
X103585167Y-47635162D01*
X103928943Y-47493117D01*
X104192192Y-47230327D01*
X104334838Y-46886799D01*
X104335162Y-46514833D01*
X104193117Y-46171057D01*
X103930327Y-45907808D01*
X103586799Y-45765162D01*
X103214833Y-45764838D01*
X103146372Y-45793126D01*
X103051890Y-45728569D01*
X102836740Y-45685000D01*
X106634351Y-45685000D01*
X106710971Y-45799670D01*
X107197152Y-46124526D01*
X107770641Y-46238600D01*
X107829359Y-46238600D01*
X108402848Y-46124526D01*
X108889029Y-45799670D01*
X109070000Y-45528828D01*
X109250971Y-45799670D01*
X109737152Y-46124526D01*
X110310641Y-46238600D01*
X110369359Y-46238600D01*
X110942848Y-46124526D01*
X111429029Y-45799670D01*
X111753885Y-45313489D01*
X111867959Y-44740000D01*
X111753885Y-44166511D01*
X111429029Y-43680330D01*
X111114248Y-43470000D01*
X111429029Y-43259670D01*
X111753885Y-42773489D01*
X111867959Y-42200000D01*
X111753885Y-41626511D01*
X111429029Y-41140330D01*
X110942848Y-40815474D01*
X110369359Y-40701400D01*
X110310641Y-40701400D01*
X109737152Y-40815474D01*
X109271558Y-41126574D01*
X109266762Y-41101083D01*
X109127690Y-40884959D01*
X108915490Y-40739969D01*
X108663600Y-40688960D01*
X106936400Y-40688960D01*
X106701083Y-40733238D01*
X106484959Y-40872310D01*
X106339969Y-41084510D01*
X106288960Y-41336400D01*
X106288960Y-43063600D01*
X106333238Y-43298917D01*
X106472310Y-43515041D01*
X106684510Y-43660031D01*
X106728131Y-43668864D01*
X106710971Y-43680330D01*
X106554169Y-43915000D01*
X94974669Y-43915000D01*
X94964090Y-43898559D01*
X94912692Y-43863440D01*
X96343600Y-43863440D01*
X96578917Y-43819162D01*
X96795041Y-43680090D01*
X96940031Y-43467890D01*
X96991040Y-43216000D01*
X96991040Y-42015255D01*
X97601400Y-42015255D01*
X97601400Y-42384745D01*
X97715474Y-42958234D01*
X98040330Y-43444415D01*
X98526511Y-43769271D01*
X99100000Y-43883345D01*
X99673489Y-43769271D01*
X100159670Y-43444415D01*
X100370000Y-43129634D01*
X100580330Y-43444415D01*
X101066511Y-43769271D01*
X101640000Y-43883345D01*
X102213489Y-43769271D01*
X102699670Y-43444415D01*
X103024526Y-42958234D01*
X103138600Y-42384745D01*
X103138600Y-42015255D01*
X103024526Y-41441766D01*
X102699670Y-40955585D01*
X102213489Y-40630729D01*
X101640000Y-40516655D01*
X101066511Y-40630729D01*
X100580330Y-40955585D01*
X100370000Y-41270366D01*
X100159670Y-40955585D01*
X99673489Y-40630729D01*
X99100000Y-40516655D01*
X98526511Y-40630729D01*
X98040330Y-40955585D01*
X97715474Y-41441766D01*
X97601400Y-42015255D01*
X96991040Y-42015255D01*
X96991040Y-41184000D01*
X96946762Y-40948683D01*
X96807690Y-40732559D01*
X96595490Y-40587569D01*
X96343600Y-40536560D01*
X94616400Y-40536560D01*
X94381083Y-40580838D01*
X94164959Y-40719910D01*
X94019969Y-40932110D01*
X94011600Y-40973439D01*
X93999670Y-40955585D01*
X93513489Y-40630729D01*
X92940000Y-40516655D01*
X92366511Y-40630729D01*
X91880330Y-40955585D01*
X91555474Y-41441766D01*
X91441400Y-42015255D01*
X91441400Y-42384745D01*
X91555474Y-42958234D01*
X91880330Y-43444415D01*
X92266671Y-43702560D01*
X91100000Y-43702560D01*
X90864683Y-43746838D01*
X90648559Y-43885910D01*
X90503569Y-44098110D01*
X90452560Y-44350000D01*
X88797440Y-44350000D01*
X88753162Y-44114683D01*
X88614090Y-43898559D01*
X88401890Y-43753569D01*
X88150000Y-43702560D01*
X86950000Y-43702560D01*
X86714683Y-43746838D01*
X86498559Y-43885910D01*
X86353569Y-44098110D01*
X86302560Y-44350000D01*
X86302560Y-44795860D01*
X86283420Y-44815000D01*
X83606822Y-44815000D01*
X83486799Y-44765162D01*
X83287059Y-44764988D01*
X83030327Y-44507808D01*
X82686799Y-44365162D01*
X82314833Y-44364838D01*
X81971057Y-44506883D01*
X81707808Y-44769673D01*
X81565162Y-45113201D01*
X81564838Y-45485167D01*
X81523945Y-45485167D01*
X81526138Y-45480268D01*
X81541086Y-45414773D01*
X81542650Y-45358991D01*
X81543994Y-45353782D01*
X81542995Y-45346705D01*
X81543480Y-45329422D01*
X81546854Y-45312462D01*
X81549404Y-45305780D01*
X81549253Y-45300400D01*
X81560139Y-45245677D01*
X81560140Y-45178499D01*
X81549248Y-45123738D01*
X81549399Y-45118353D01*
X81546848Y-45111669D01*
X81543479Y-45094732D01*
X81542994Y-45077473D01*
X81543994Y-45070392D01*
X81542649Y-45065178D01*
X81541082Y-45009360D01*
X81526132Y-44943864D01*
X81503341Y-44892935D01*
X81502292Y-44887659D01*
X81498321Y-44881716D01*
X81491257Y-44865930D01*
X81486941Y-44849198D01*
X81486340Y-44842071D01*
X81483870Y-44837289D01*
X81469932Y-44783253D01*
X81440786Y-44722728D01*
X81407208Y-44678109D01*
X81405008Y-44673193D01*
X81399811Y-44668279D01*
X81389431Y-44654487D01*
X81381499Y-44639133D01*
X81379327Y-44632318D01*
X81375853Y-44628204D01*
X81350234Y-44578614D01*
X81308348Y-44526091D01*
X81265713Y-44490089D01*
X81262477Y-44485789D01*
X81256318Y-44482156D01*
X81243105Y-44470998D01*
X81231960Y-44457800D01*
X81228326Y-44451640D01*
X81224024Y-44448403D01*
X81188010Y-44405753D01*
X81135489Y-44363869D01*
X81085899Y-44338250D01*
X81081782Y-44334774D01*
X81074963Y-44332601D01*
X81059621Y-44324675D01*
X81045827Y-44314293D01*
X81040912Y-44309095D01*
X81035996Y-44306895D01*
X80991391Y-44273326D01*
X80930865Y-44244178D01*
X80876815Y-44230235D01*
X80872031Y-44227764D01*
X80864903Y-44227163D01*
X80848181Y-44222849D01*
X80832388Y-44215782D01*
X80826445Y-44211811D01*
X80821170Y-44210762D01*
X80770240Y-44187971D01*
X80704745Y-44173021D01*
X80692889Y-44172688D01*
X80692556Y-44160834D01*
X80677606Y-44095338D01*
X80654815Y-44044409D01*
X80653766Y-44039133D01*
X80649795Y-44033190D01*
X80642731Y-44017404D01*
X80638415Y-44000672D01*
X80637814Y-43993545D01*
X80635344Y-43988763D01*
X80621406Y-43934727D01*
X80592260Y-43874202D01*
X80558682Y-43829583D01*
X80556482Y-43824667D01*
X80551285Y-43819753D01*
X80540905Y-43805961D01*
X80532973Y-43790607D01*
X80530801Y-43783792D01*
X80527327Y-43779678D01*
X80501708Y-43730088D01*
X80459822Y-43677565D01*
X80417187Y-43641563D01*
X80413951Y-43637263D01*
X80407792Y-43633630D01*
X80394579Y-43622472D01*
X80383434Y-43609274D01*
X80379800Y-43603114D01*
X80375498Y-43599877D01*
X80339484Y-43557227D01*
X80286963Y-43515343D01*
X80237373Y-43489724D01*
X80233256Y-43486248D01*
X80226437Y-43484075D01*
X80211095Y-43476149D01*
X80197301Y-43465767D01*
X80192386Y-43460569D01*
X80187470Y-43458369D01*
X80142865Y-43424800D01*
X80082339Y-43395652D01*
X80028289Y-43381709D01*
X80023505Y-43379238D01*
X80016377Y-43378637D01*
X79999655Y-43374323D01*
X79983862Y-43367256D01*
X79977919Y-43363285D01*
X79972644Y-43362236D01*
X79921714Y-43339445D01*
X79856219Y-43324495D01*
X79800416Y-43322928D01*
X79795201Y-43321583D01*
X79788117Y-43322583D01*
X79770846Y-43322098D01*
X79753909Y-43318729D01*
X79747225Y-43316178D01*
X79741840Y-43316329D01*
X79687079Y-43305437D01*
X79619901Y-43305438D01*
X79565178Y-43316324D01*
X79559799Y-43316173D01*
X79553118Y-43318723D01*
X79536156Y-43322097D01*
X79518883Y-43322582D01*
X79511801Y-43321582D01*
X79506589Y-43322927D01*
X79450805Y-43324491D01*
X79385310Y-43339439D01*
X79334347Y-43362243D01*
X79329063Y-43363294D01*
X79323114Y-43367269D01*
X79307358Y-43374319D01*
X79290598Y-43378643D01*
X79283472Y-43379244D01*
X79278691Y-43381714D01*
X79224663Y-43395651D01*
X79164137Y-43424799D01*
X79119546Y-43458358D01*
X79114635Y-43460555D01*
X79109725Y-43465749D01*
X79095896Y-43476156D01*
X79020019Y-43515358D01*
X78967498Y-43557245D01*
X78943593Y-43585556D01*
X78904191Y-43536147D01*
X78871310Y-43508382D01*
X78847401Y-43472599D01*
X78335122Y-42960320D01*
X78335162Y-42914833D01*
X78193117Y-42571057D01*
X77930327Y-42307808D01*
X77586799Y-42165162D01*
X77214833Y-42164838D01*
X76871057Y-42306883D01*
X76607808Y-42569673D01*
X76465162Y-42913201D01*
X76464838Y-43285167D01*
X76606883Y-43628943D01*
X76869673Y-43892192D01*
X77213201Y-44034838D01*
X77260077Y-44034879D01*
X77452206Y-44227008D01*
X77432961Y-44243259D01*
X77391076Y-44295782D01*
X77351884Y-44371648D01*
X77341496Y-44385450D01*
X77336301Y-44390362D01*
X77334103Y-44395274D01*
X77321639Y-44411835D01*
X76872403Y-43962599D01*
X76625841Y-43797852D01*
X76335002Y-43740000D01*
X74314802Y-43740000D01*
X73835122Y-43260320D01*
X73835162Y-43214833D01*
X73693117Y-42871057D01*
X73430327Y-42607808D01*
X73086799Y-42465162D01*
X72714833Y-42464838D01*
X72371057Y-42606883D01*
X72107808Y-42869673D01*
X71965162Y-43213201D01*
X71964838Y-43585167D01*
X63510000Y-43585167D01*
X63510000Y-42169650D01*
X63520877Y-42143391D01*
X63728328Y-41100464D01*
X64237874Y-40337874D01*
X65000740Y-39828143D01*
X66038609Y-39620757D01*
X66064515Y-39610000D01*
X109330350Y-39610000D01*
X109356609Y-39620877D01*
M02*
